ISO-10303-21;
HEADER;

/* File generated by Shapr3D Version 26.30.10505.0 */

FILE_DESCRIPTION(('HOOPS Exchange Step'),'2;1');

FILE_NAME('C:\\Users\\Ruben\\AppData\\Local\\Packages\\Shapr3D.Shapr3D_dvv5p1vgwv6mp\\TempState\\export\\temp_export',
'2026-03-03T22:30:36+01:00',
('Ruben'),
('Shapr3D Limited'),
'HOOPS Exchange 2025.9',
'Shapr3D',
'Authorized');

FILE_SCHEMA( ('AP242_MANAGED_MODEL_BASED_3D_ENGINEERING_MIM_LF {1 0 10303 442 1 1 4}') );

ENDSEC;

DATA;
#3=(NAMED_UNIT(*)PLANE_ANGLE_UNIT()SI_UNIT($,.RADIAN.));
#4=PLANE_ANGLE_MEASURE_WITH_UNIT(PLANE_ANGLE_MEASURE(0.0174532925),#3);
#5=(CONVERSION_BASED_UNIT('DEGREE',#4)NAMED_UNIT(#6)PLANE_ANGLE_UNIT());
#6=DIMENSIONAL_EXPONENTS(0.,0.,0.,0.,0.,0.,0.);
#7=(NAMED_UNIT(*)SI_UNIT($,.STERADIAN.)SOLID_ANGLE_UNIT());
#8=(LENGTH_UNIT()NAMED_UNIT(*)SI_UNIT(.MILLI.,.METRE.));
#9=UNCERTAINTY_MEASURE_WITH_UNIT(LENGTH_MEASURE(1.000000E-03),#8,'DISTANCE_ACCURACY_VALUE','Maximum Tolerance applied to model');
#10=(GEOMETRIC_REPRESENTATION_CONTEXT(3)GLOBAL_UNCERTAINTY_ASSIGNED_CONTEXT((#9))GLOBAL_UNIT_ASSIGNED_CONTEXT((#8,#5,#7))REPRESENTATION_CONTEXT('','root'));
#12=CARTESIAN_POINT('',(0.,0.,0.));
#13=DIRECTION('',(0.,0.,1.));
#14=DIRECTION('',(1.,0.,0.));
#15=AXIS2_PLACEMENT_3D('',#12,#13,#14);
#26=(NAMED_UNIT(*)PLANE_ANGLE_UNIT()SI_UNIT($,.RADIAN.));
#27=PLANE_ANGLE_MEASURE_WITH_UNIT(PLANE_ANGLE_MEASURE(0.0174532925),#26);
#28=(CONVERSION_BASED_UNIT('DEGREE',#27)NAMED_UNIT(#29)PLANE_ANGLE_UNIT());
#29=DIMENSIONAL_EXPONENTS(0.,0.,0.,0.,0.,0.,0.);
#30=(NAMED_UNIT(*)SI_UNIT($,.STERADIAN.)SOLID_ANGLE_UNIT());
#31=(LENGTH_UNIT()NAMED_UNIT(*)SI_UNIT(.MILLI.,.METRE.));
#32=UNCERTAINTY_MEASURE_WITH_UNIT(LENGTH_MEASURE(1.000000E-03),#31,'DISTANCE_ACCURACY_VALUE','Maximum Tolerance applied to model');
#33=(GEOMETRIC_REPRESENTATION_CONTEXT(3)GLOBAL_UNCERTAINTY_ASSIGNED_CONTEXT((#32))GLOBAL_UNIT_ASSIGNED_CONTEXT((#31,#28,#30))REPRESENTATION_CONTEXT('','Ball Mechanismus'));
#45=CARTESIAN_POINT('',(0.,0.,0.));
#46=DIRECTION('',(0.,0.,1.));
#47=DIRECTION('',(1.,0.,-0.));
#48=AXIS2_PLACEMENT_3D('',#45,#46,#47);
#49=ITEM_DEFINED_TRANSFORMATION('','',#48,#15);
#50=(REPRESENTATION_RELATIONSHIP('','',#35,#16)REPRESENTATION_RELATIONSHIP_WITH_TRANSFORMATION(#49)SHAPE_REPRESENTATION_RELATIONSHIP());
#51=NEXT_ASSEMBLY_USAGE_OCCURRENCE('Ball Mechanismus_1','Ball Mechanismus','Ball Mechanismus',#25,#44,$);
#52=PRODUCT_DEFINITION_SHAPE('','',#51);
#53=CONTEXT_DEPENDENT_SHAPE_REPRESENTATION(#50,#52);
#54=(NAMED_UNIT(*)PLANE_ANGLE_UNIT()SI_UNIT($,.RADIAN.));
#55=PLANE_ANGLE_MEASURE_WITH_UNIT(PLANE_ANGLE_MEASURE(0.0174532925),#54);
#56=(CONVERSION_BASED_UNIT('DEGREE',#55)NAMED_UNIT(#57)PLANE_ANGLE_UNIT());
#57=DIMENSIONAL_EXPONENTS(0.,0.,0.,0.,0.,0.,0.);
#58=(NAMED_UNIT(*)SI_UNIT($,.STERADIAN.)SOLID_ANGLE_UNIT());
#59=(LENGTH_UNIT()NAMED_UNIT(*)SI_UNIT(.MILLI.,.METRE.));
#60=UNCERTAINTY_MEASURE_WITH_UNIT(LENGTH_MEASURE(1.000000E-05),#59,'DISTANCE_ACCURACY_VALUE','Maximum Tolerance applied to model');
#61=(GEOMETRIC_REPRESENTATION_CONTEXT(3)GLOBAL_UNCERTAINTY_ASSIGNED_CONTEXT((#60))GLOBAL_UNIT_ASSIGNED_CONTEXT((#59,#56,#58))REPRESENTATION_CONTEXT('','Green'));
#73=CARTESIAN_POINT('',(0.,0.,0.));
#74=DIRECTION('',(0.,0.,1.));
#75=DIRECTION('',(1.,0.,-0.));
#76=AXIS2_PLACEMENT_3D('',#73,#74,#75);
#77=ITEM_DEFINED_TRANSFORMATION('','',#76,#15);
#78=(REPRESENTATION_RELATIONSHIP('','',#63,#35)REPRESENTATION_RELATIONSHIP_WITH_TRANSFORMATION(#77)SHAPE_REPRESENTATION_RELATIONSHIP());
#79=NEXT_ASSEMBLY_USAGE_OCCURRENCE('Green_2','Green','Green',#44,#72,$);
#80=PRODUCT_DEFINITION_SHAPE('','',#79);
#81=CONTEXT_DEPENDENT_SHAPE_REPRESENTATION(#78,#80);
#83=CARTESIAN_POINT('',(-17.598984405,1.49071047,292.));
#84=DIRECTION('',(0.,0.,-1.));
#85=DIRECTION('',(0.5,-0.866025404,0.));
#86=AXIS2_PLACEMENT_3D('',#83,#84,#85);
#87=CYLINDRICAL_SURFACE('',#86,13.25);
#88=CARTESIAN_POINT('',(-10.973984407,-9.984126131,269.));
#89=VERTEX_POINT('',#88);
#90=CARTESIAN_POINT('',(-10.973984407,-9.984126131,304.));
#91=VERTEX_POINT('',#90);
#92=CARTESIAN_POINT('',(-10.973984407,-9.984126131,269.));
#93=DIRECTION('',(-0.,-0.,1.));
#94=VECTOR('',#93,35.);
#95=LINE('',#92,#94);
#96=EDGE_CURVE('',#89,#91,#95,.T.);
#97=ORIENTED_EDGE('',*,*,#96,.F.);
#98=CARTESIAN_POINT('',(-30.848984405,1.49071047,269.));
#99=VERTEX_POINT('',#98);
#100=CARTESIAN_POINT('',(-17.598984405,1.49071047,269.));
#101=DIRECTION('',(-0.,-0.,1.));
#102=DIRECTION('',(-1.,0.,0.));
#103=AXIS2_PLACEMENT_3D('',#100,#101,#102);
#104=CIRCLE('',#103,13.25);
#105=EDGE_CURVE('',#99,#89,#104,.T.);
#106=ORIENTED_EDGE('',*,*,#105,.F.);
#107=CARTESIAN_POINT('',(-17.598984405,1.49071047,269.));
#108=DIRECTION('',(-0.,-0.,1.));
#109=DIRECTION('',(-1.,0.,0.));
#110=AXIS2_PLACEMENT_3D('',#107,#108,#109);
#111=CIRCLE('',#110,13.25);
#112=EDGE_CURVE('',#89,#99,#111,.T.);
#113=ORIENTED_EDGE('',*,*,#112,.F.);
#114=ORIENTED_EDGE('',*,*,#96,.T.);
#115=CARTESIAN_POINT('',(-30.848984405,1.49071047,304.));
#116=VERTEX_POINT('',#115);
#117=CARTESIAN_POINT('',(-17.598984405,1.49071047,304.));
#118=DIRECTION('',(-0.,-0.,1.));
#119=DIRECTION('',(-1.,0.,0.));
#120=AXIS2_PLACEMENT_3D('',#117,#118,#119);
#121=CIRCLE('',#120,13.25);
#122=EDGE_CURVE('',#91,#116,#121,.T.);
#123=ORIENTED_EDGE('',*,*,#122,.T.);
#124=CARTESIAN_POINT('',(-17.598984405,1.49071047,304.));
#125=DIRECTION('',(-0.,-0.,1.));
#126=DIRECTION('',(-1.,0.,0.));
#127=AXIS2_PLACEMENT_3D('',#124,#125,#126);
#128=CIRCLE('',#127,13.25);
#129=EDGE_CURVE('',#116,#91,#128,.T.);
#130=ORIENTED_EDGE('',*,*,#129,.T.);
#131=EDGE_LOOP('',(#97,#106,#113,#114,#123,#130));
#132=FACE_BOUND('',#131,.T.);
#133=CARTESIAN_POINT('',(-12.595984273,13.759878725,295.8));
#134=VERTEX_POINT('',#133);
#135=CARTESIAN_POINT('',(-30.848744391,1.410958765,295.8));
#136=VERTEX_POINT('',#135);
#137=CARTESIAN_POINT('',(-17.598984405,1.49071047,295.8));
#138=DIRECTION('',(-0.,-0.,1.));
#139=DIRECTION('',(-1.,0.,0.));
#140=AXIS2_PLACEMENT_3D('',#137,#138,#139);
#141=CIRCLE('',#140,13.25);
#142=EDGE_CURVE('',#134,#136,#141,.T.);
#143=ORIENTED_EDGE('',*,*,#142,.F.);
#144=CARTESIAN_POINT('',(-12.595984273,13.759878725,292.7));
#145=VERTEX_POINT('',#144);
#146=CARTESIAN_POINT('',(-12.595984273,13.759878725,295.8));
#147=DIRECTION('',(0.,0.,-1.));
#148=VECTOR('',#147,3.1);
#149=LINE('',#146,#148);
#150=EDGE_CURVE('',#134,#145,#149,.T.);
#151=ORIENTED_EDGE('',*,*,#150,.T.);
#152=CARTESIAN_POINT('',(-30.848744391,1.410958765,292.7));
#153=VERTEX_POINT('',#152);
#154=CARTESIAN_POINT('',(-17.598984405,1.49071047,292.7));
#155=DIRECTION('',(-0.,-0.,1.));
#156=DIRECTION('',(-1.,0.,0.));
#157=AXIS2_PLACEMENT_3D('',#154,#155,#156);
#158=CIRCLE('',#157,13.25);
#159=EDGE_CURVE('',#145,#153,#158,.T.);
#160=ORIENTED_EDGE('',*,*,#159,.T.);
#161=CARTESIAN_POINT('',(-30.848744391,1.410958765,292.7));
#162=DIRECTION('',(0.,0.,1.));
#163=VECTOR('',#162,3.1);
#164=LINE('',#161,#163);
#165=EDGE_CURVE('',#153,#136,#164,.T.);
#166=ORIENTED_EDGE('',*,*,#165,.T.);
#167=EDGE_LOOP('',(#143,#151,#160,#166));
#168=FACE_BOUND('',#167,.T.);
#169=CARTESIAN_POINT('',(-12.684390229,13.795557648,271.7));
#170=VERTEX_POINT('',#169);
#171=CARTESIAN_POINT('',(-30.848376764,1.363816331,271.7));
#172=VERTEX_POINT('',#171);
#173=CARTESIAN_POINT('',(-17.598984405,1.49071047,271.7));
#174=DIRECTION('',(-0.,-0.,1.));
#175=DIRECTION('',(-1.,0.,0.));
#176=AXIS2_PLACEMENT_3D('',#173,#174,#175);
#177=CIRCLE('',#176,13.25);
#178=EDGE_CURVE('',#170,#172,#177,.T.);
#179=ORIENTED_EDGE('',*,*,#178,.T.);
#180=CARTESIAN_POINT('',(-30.848376764,1.363816331,274.8));
#181=VERTEX_POINT('',#180);
#182=CARTESIAN_POINT('',(-30.848376764,1.363816331,274.8));
#183=DIRECTION('',(0.,0.,-1.));
#184=VECTOR('',#183,3.1);
#185=LINE('',#182,#184);
#186=EDGE_CURVE('',#181,#172,#185,.T.);
#187=ORIENTED_EDGE('',*,*,#186,.F.);
#188=CARTESIAN_POINT('',(-12.684390229,13.795557648,274.8));
#189=VERTEX_POINT('',#188);
#190=CARTESIAN_POINT('',(-17.598984405,1.49071047,274.8));
#191=DIRECTION('',(-0.,-0.,1.));
#192=DIRECTION('',(-1.,0.,0.));
#193=AXIS2_PLACEMENT_3D('',#190,#191,#192);
#194=CIRCLE('',#193,13.25);
#195=EDGE_CURVE('',#189,#181,#194,.T.);
#196=ORIENTED_EDGE('',*,*,#195,.F.);
#197=CARTESIAN_POINT('',(-12.684390229,13.795557648,274.8));
#198=DIRECTION('',(0.,0.,-1.));
#199=VECTOR('',#198,3.1);
#200=LINE('',#197,#199);
#201=EDGE_CURVE('',#189,#170,#200,.T.);
#202=ORIENTED_EDGE('',*,*,#201,.T.);
#203=EDGE_LOOP('',(#179,#187,#196,#202));
#204=FACE_BOUND('',#203,.T.);
#205=ADVANCED_FACE('',(#132,#168,#204),#87,.F.);
#206=CARTESIAN_POINT('',(-17.598984405,1.49071047,292.));
#207=DIRECTION('',(0.,0.,-1.));
#208=DIRECTION('',(0.5,-0.866025404,0.));
#209=AXIS2_PLACEMENT_3D('',#206,#207,#208);
#210=CYLINDRICAL_SURFACE('',#209,14.5);
#211=CARTESIAN_POINT('',(-10.348984407,-11.066657886,269.));
#212=VERTEX_POINT('',#211);
#213=CARTESIAN_POINT('',(-10.348984407,-11.066657886,304.));
#214=VERTEX_POINT('',#213);
#215=CARTESIAN_POINT('',(-10.348984407,-11.066657886,269.));
#216=DIRECTION('',(-0.,-0.,1.));
#217=VECTOR('',#216,35.);
#218=LINE('',#215,#217);
#219=EDGE_CURVE('',#212,#214,#218,.T.);
#220=ORIENTED_EDGE('',*,*,#219,.T.);
#221=CARTESIAN_POINT('',(-32.098984405,1.49071047,304.));
#222=VERTEX_POINT('',#221);
#223=CARTESIAN_POINT('',(-17.598984405,1.49071047,304.));
#224=DIRECTION('',(-0.,-0.,1.));
#225=DIRECTION('',(-1.,0.,0.));
#226=AXIS2_PLACEMENT_3D('',#223,#224,#225);
#227=CIRCLE('',#226,14.5);
#228=EDGE_CURVE('',#222,#214,#227,.T.);
#229=ORIENTED_EDGE('',*,*,#228,.F.);
#230=CARTESIAN_POINT('',(-17.598984405,1.49071047,304.));
#231=DIRECTION('',(-0.,-0.,1.));
#232=DIRECTION('',(-1.,0.,0.));
#233=AXIS2_PLACEMENT_3D('',#230,#231,#232);
#234=CIRCLE('',#233,14.5);
#235=EDGE_CURVE('',#214,#222,#234,.T.);
#236=ORIENTED_EDGE('',*,*,#235,.F.);
#237=ORIENTED_EDGE('',*,*,#219,.F.);
#238=CARTESIAN_POINT('',(-32.098984405,1.49071047,269.));
#239=VERTEX_POINT('',#238);
#240=CARTESIAN_POINT('',(-17.598984405,1.49071047,269.));
#241=DIRECTION('',(-0.,-0.,1.));
#242=DIRECTION('',(-1.,0.,0.));
#243=AXIS2_PLACEMENT_3D('',#240,#241,#242);
#244=CIRCLE('',#243,14.5);
#245=EDGE_CURVE('',#212,#239,#244,.T.);
#246=ORIENTED_EDGE('',*,*,#245,.T.);
#247=CARTESIAN_POINT('',(-17.598984405,1.49071047,269.));
#248=DIRECTION('',(-0.,-0.,1.));
#249=DIRECTION('',(-1.,0.,0.));
#250=AXIS2_PLACEMENT_3D('',#247,#248,#249);
#251=CIRCLE('',#250,14.5);
#252=EDGE_CURVE('',#239,#212,#251,.T.);
#253=ORIENTED_EDGE('',*,*,#252,.T.);
#254=EDGE_LOOP('',(#220,#229,#236,#237,#246,#253));
#255=FACE_BOUND('',#254,.T.);
#256=CARTESIAN_POINT('',(-32.096629011,1.752054848,292.7));
#257=VERTEX_POINT('',#256);
#258=CARTESIAN_POINT('',(-32.096629011,1.752054848,295.8));
#259=VERTEX_POINT('',#258);
#260=CARTESIAN_POINT('',(-32.096629011,1.752054848,292.7));
#261=DIRECTION('',(-0.,-0.,1.));
#262=VECTOR('',#261,3.1);
#263=LINE('',#260,#262);
#264=EDGE_CURVE('',#257,#259,#263,.T.);
#265=ORIENTED_EDGE('',*,*,#264,.F.);
#266=CARTESIAN_POINT('',(-12.29318866,14.985099359,292.7));
#267=VERTEX_POINT('',#266);
#268=CARTESIAN_POINT('',(-17.598984405,1.49071047,292.7));
#269=DIRECTION('',(-0.,-0.,1.));
#270=DIRECTION('',(-1.,0.,0.));
#271=AXIS2_PLACEMENT_3D('',#268,#269,#270);
#272=CIRCLE('',#271,14.5);
#273=EDGE_CURVE('',#267,#257,#272,.T.);
#274=ORIENTED_EDGE('',*,*,#273,.F.);
#275=CARTESIAN_POINT('',(-12.29318866,14.985099359,295.8));
#276=VERTEX_POINT('',#275);
#277=CARTESIAN_POINT('',(-12.29318866,14.985099359,295.8));
#278=DIRECTION('',(0.,0.,-1.));
#279=VECTOR('',#278,3.1);
#280=LINE('',#277,#279);
#281=EDGE_CURVE('',#276,#267,#280,.T.);
#282=ORIENTED_EDGE('',*,*,#281,.F.);
#283=CARTESIAN_POINT('',(-17.598984405,1.49071047,295.8));
#284=DIRECTION('',(-0.,-0.,1.));
#285=DIRECTION('',(-1.,0.,0.));
#286=AXIS2_PLACEMENT_3D('',#283,#284,#285);
#287=CIRCLE('',#286,14.5);
#288=EDGE_CURVE('',#276,#259,#287,.T.);
#289=ORIENTED_EDGE('',*,*,#288,.T.);
#290=EDGE_LOOP('',(#265,#274,#282,#289));
#291=FACE_BOUND('',#290,.T.);
#292=CARTESIAN_POINT('',(-12.3866789,15.021485441,274.8));
#293=VERTEX_POINT('',#292);
#294=CARTESIAN_POINT('',(-32.097521649,1.696666272,274.8));
#295=VERTEX_POINT('',#294);
#296=CARTESIAN_POINT('',(-17.598984405,1.49071047,274.8));
#297=DIRECTION('',(-0.,-0.,1.));
#298=DIRECTION('',(-1.,0.,0.));
#299=AXIS2_PLACEMENT_3D('',#296,#297,#298);
#300=CIRCLE('',#299,14.5);
#301=EDGE_CURVE('',#293,#295,#300,.T.);
#302=ORIENTED_EDGE('',*,*,#301,.T.);
#303=CARTESIAN_POINT('',(-32.097521649,1.696666272,271.7));
#304=VERTEX_POINT('',#303);
#305=CARTESIAN_POINT('',(-32.097521649,1.696666272,271.7));
#306=DIRECTION('',(0.,0.,1.));
#307=VECTOR('',#306,3.1);
#308=LINE('',#305,#307);
#309=EDGE_CURVE('',#304,#295,#308,.T.);
#310=ORIENTED_EDGE('',*,*,#309,.F.);
#311=CARTESIAN_POINT('',(-12.3866789,15.021485441,271.7));
#312=VERTEX_POINT('',#311);
#313=CARTESIAN_POINT('',(-17.598984405,1.49071047,271.7));
#314=DIRECTION('',(-0.,-0.,1.));
#315=DIRECTION('',(-1.,0.,0.));
#316=AXIS2_PLACEMENT_3D('',#313,#314,#315);
#317=CIRCLE('',#316,14.5);
#318=EDGE_CURVE('',#312,#304,#317,.T.);
#319=ORIENTED_EDGE('',*,*,#318,.F.);
#320=CARTESIAN_POINT('',(-12.3866789,15.021485441,274.8));
#321=DIRECTION('',(0.,0.,-1.));
#322=VECTOR('',#321,3.1);
#323=LINE('',#320,#322);
#324=EDGE_CURVE('',#293,#312,#323,.T.);
#325=ORIENTED_EDGE('',*,*,#324,.F.);
#326=EDGE_LOOP('',(#302,#310,#319,#325));
#327=FACE_BOUND('',#326,.T.);
#328=ADVANCED_FACE('',(#255,#291,#327),#210,.T.);
#329=CARTESIAN_POINT('',(-17.598984405,1.49071047,304.));
#330=DIRECTION('',(0.,0.,1.));
#331=DIRECTION('',(-0.5,0.866025404,0.));
#332=AXIS2_PLACEMENT_3D('',#329,#330,#331);
#333=PLANE('',#332);
#334=ORIENTED_EDGE('',*,*,#122,.F.);
#335=ORIENTED_EDGE('',*,*,#129,.F.);
#336=EDGE_LOOP('',(#334,#335));
#337=FACE_BOUND('',#336,.T.);
#338=ORIENTED_EDGE('',*,*,#228,.T.);
#339=ORIENTED_EDGE('',*,*,#235,.T.);
#340=EDGE_LOOP('',(#338,#339));
#341=FACE_BOUND('',#340,.T.);
#342=ADVANCED_FACE('',(#337,#341),#333,.T.);
#343=CARTESIAN_POINT('',(-17.598984405,1.49071047,269.));
#344=DIRECTION('',(0.,0.,1.));
#345=DIRECTION('',(-0.5,0.866025404,0.));
#346=AXIS2_PLACEMENT_3D('',#343,#344,#345);
#347=PLANE('',#346);
#348=ORIENTED_EDGE('',*,*,#105,.T.);
#349=ORIENTED_EDGE('',*,*,#112,.T.);
#350=EDGE_LOOP('',(#348,#349));
#351=FACE_BOUND('',#350,.T.);
#352=ORIENTED_EDGE('',*,*,#245,.F.);
#353=ORIENTED_EDGE('',*,*,#252,.F.);
#354=EDGE_LOOP('',(#352,#353));
#355=FACE_BOUND('',#354,.T.);
#356=ADVANCED_FACE('',(#351,#355),#347,.F.);
#357=CARTESIAN_POINT('',(-41.548438097,5.755101808,292.7));
#358=DIRECTION('',(0.,0.,1.));
#359=DIRECTION('',(0.766044443,0.64278761,0.));
#360=AXIS2_PLACEMENT_3D('',#357,#358,#359);
#361=PLANE('',#360);
#362=CARTESIAN_POINT('',(-26.993593677,17.968066392,292.7));
#363=DIRECTION('',(0.,0.,1.));
#364=DIRECTION('',(1.,0.,-0.));
#365=AXIS2_PLACEMENT_3D('',#362,#363,#364);
#366=CIRCLE('',#365,15.);
#367=EDGE_CURVE('',#145,#267,#366,.T.);
#368=ORIENTED_EDGE('',*,*,#367,.T.);
#369=ORIENTED_EDGE('',*,*,#273,.T.);
#370=CARTESIAN_POINT('',(-26.993593677,17.968066392,292.7));
#371=DIRECTION('',(0.,0.,1.));
#372=DIRECTION('',(1.,0.,-0.));
#373=AXIS2_PLACEMENT_3D('',#370,#371,#372);
#374=CIRCLE('',#373,17.);
#375=EDGE_CURVE('',#257,#153,#374,.T.);
#376=ORIENTED_EDGE('',*,*,#375,.T.);
#377=ORIENTED_EDGE('',*,*,#159,.F.);
#378=EDGE_LOOP('',(#368,#369,#376,#377));
#379=FACE_BOUND('',#378,.T.);
#380=ADVANCED_FACE('',(#379),#361,.T.);
#381=CARTESIAN_POINT('',(-41.548438097,5.755101808,295.8));
#382=DIRECTION('',(0.,0.,1.));
#383=DIRECTION('',(0.766044443,0.64278761,0.));
#384=AXIS2_PLACEMENT_3D('',#381,#382,#383);
#385=PLANE('',#384);
#386=ORIENTED_EDGE('',*,*,#142,.T.);
#387=CARTESIAN_POINT('',(-26.993593677,17.968066392,295.8));
#388=DIRECTION('',(0.,0.,1.));
#389=DIRECTION('',(1.,0.,-0.));
#390=AXIS2_PLACEMENT_3D('',#387,#388,#389);
#391=CIRCLE('',#390,17.);
#392=EDGE_CURVE('',#259,#136,#391,.T.);
#393=ORIENTED_EDGE('',*,*,#392,.F.);
#394=ORIENTED_EDGE('',*,*,#288,.F.);
#395=CARTESIAN_POINT('',(-26.993593677,17.968066392,295.8));
#396=DIRECTION('',(0.,0.,1.));
#397=DIRECTION('',(1.,0.,-0.));
#398=AXIS2_PLACEMENT_3D('',#395,#396,#397);
#399=CIRCLE('',#398,15.);
#400=EDGE_CURVE('',#134,#276,#399,.T.);
#401=ORIENTED_EDGE('',*,*,#400,.F.);
#402=EDGE_LOOP('',(#386,#393,#394,#401));
#403=FACE_BOUND('',#402,.T.);
#404=ADVANCED_FACE('',(#403),#385,.F.);
#405=CARTESIAN_POINT('',(-26.993593677,17.968066392,295.5));
#406=DIRECTION('',(-0.,0.,-1.));
#407=DIRECTION('',(-0.766044443,-0.64278761,0.));
#408=AXIS2_PLACEMENT_3D('',#405,#406,#407);
#409=CYLINDRICAL_SURFACE('',#408,15.);
#410=ORIENTED_EDGE('',*,*,#400,.T.);
#411=ORIENTED_EDGE('',*,*,#281,.T.);
#412=ORIENTED_EDGE('',*,*,#367,.F.);
#413=ORIENTED_EDGE('',*,*,#150,.F.);
#414=EDGE_LOOP('',(#410,#411,#412,#413));
#415=FACE_BOUND('',#414,.T.);
#416=ADVANCED_FACE('',(#415),#409,.F.);
#417=CARTESIAN_POINT('',(-26.993593677,17.968066392,295.5));
#418=DIRECTION('',(-0.,0.,-1.));
#419=DIRECTION('',(-0.766044443,-0.64278761,0.));
#420=AXIS2_PLACEMENT_3D('',#417,#418,#419);
#421=CYLINDRICAL_SURFACE('',#420,17.);
#422=ORIENTED_EDGE('',*,*,#375,.F.);
#423=ORIENTED_EDGE('',*,*,#264,.T.);
#424=ORIENTED_EDGE('',*,*,#392,.T.);
#425=ORIENTED_EDGE('',*,*,#165,.F.);
#426=EDGE_LOOP('',(#422,#423,#424,#425));
#427=FACE_BOUND('',#426,.T.);
#428=ADVANCED_FACE('',(#427),#421,.F.);
#429=CARTESIAN_POINT('',(-27.098984405,17.945193142,274.5));
#430=DIRECTION('',(0.,0.,-1.));
#431=DIRECTION('',(0.5,-0.866025404,0.));
#432=AXIS2_PLACEMENT_3D('',#429,#430,#431);
#433=CYLINDRICAL_SURFACE('',#432,15.);
#434=ORIENTED_EDGE('',*,*,#324,.T.);
#435=CARTESIAN_POINT('',(-27.098984405,17.945193142,271.7));
#436=DIRECTION('',(0.,0.,1.));
#437=DIRECTION('',(1.,0.,-0.));
#438=AXIS2_PLACEMENT_3D('',#435,#436,#437);
#439=CIRCLE('',#438,15.);
#440=EDGE_CURVE('',#170,#312,#439,.T.);
#441=ORIENTED_EDGE('',*,*,#440,.F.);
#442=ORIENTED_EDGE('',*,*,#201,.F.);
#443=CARTESIAN_POINT('',(-27.098984405,17.945193142,274.8));
#444=DIRECTION('',(0.,0.,1.));
#445=DIRECTION('',(1.,0.,-0.));
#446=AXIS2_PLACEMENT_3D('',#443,#444,#445);
#447=CIRCLE('',#446,15.);
#448=EDGE_CURVE('',#189,#293,#447,.T.);
#449=ORIENTED_EDGE('',*,*,#448,.T.);
#450=EDGE_LOOP('',(#434,#441,#442,#449));
#451=FACE_BOUND('',#450,.T.);
#452=ADVANCED_FACE('',(#451),#433,.F.);
#453=CARTESIAN_POINT('',(-27.098984405,17.945193142,274.5));
#454=DIRECTION('',(0.,0.,-1.));
#455=DIRECTION('',(0.5,-0.866025404,0.));
#456=AXIS2_PLACEMENT_3D('',#453,#454,#455);
#457=CYLINDRICAL_SURFACE('',#456,17.);
#458=ORIENTED_EDGE('',*,*,#309,.T.);
#459=CARTESIAN_POINT('',(-27.098984405,17.945193142,274.8));
#460=DIRECTION('',(0.,0.,1.));
#461=DIRECTION('',(1.,0.,-0.));
#462=AXIS2_PLACEMENT_3D('',#459,#460,#461);
#463=CIRCLE('',#462,17.);
#464=EDGE_CURVE('',#295,#181,#463,.T.);
#465=ORIENTED_EDGE('',*,*,#464,.T.);
#466=ORIENTED_EDGE('',*,*,#186,.T.);
#467=CARTESIAN_POINT('',(-27.098984405,17.945193142,271.7));
#468=DIRECTION('',(0.,0.,1.));
#469=DIRECTION('',(1.,0.,-0.));
#470=AXIS2_PLACEMENT_3D('',#467,#468,#469);
#471=CIRCLE('',#470,17.);
#472=EDGE_CURVE('',#304,#172,#471,.T.);
#473=ORIENTED_EDGE('',*,*,#472,.F.);
#474=EDGE_LOOP('',(#458,#465,#466,#473));
#475=FACE_BOUND('',#474,.T.);
#476=ADVANCED_FACE('',(#475),#457,.F.);
#477=CARTESIAN_POINT('',(-17.598984405,1.49071047,274.8));
#478=DIRECTION('',(0.,0.,1.));
#479=DIRECTION('',(-0.5,0.866025404,0.));
#480=AXIS2_PLACEMENT_3D('',#477,#478,#479);
#481=PLANE('',#480);
#482=ORIENTED_EDGE('',*,*,#448,.F.);
#483=ORIENTED_EDGE('',*,*,#195,.T.);
#484=ORIENTED_EDGE('',*,*,#464,.F.);
#485=ORIENTED_EDGE('',*,*,#301,.F.);
#486=EDGE_LOOP('',(#482,#483,#484,#485));
#487=FACE_BOUND('',#486,.T.);
#488=ADVANCED_FACE('',(#487),#481,.F.);
#489=CARTESIAN_POINT('',(-17.598984405,1.49071047,271.7));
#490=DIRECTION('',(0.,0.,1.));
#491=DIRECTION('',(-0.5,0.866025404,0.));
#492=AXIS2_PLACEMENT_3D('',#489,#490,#491);
#493=PLANE('',#492);
#494=ORIENTED_EDGE('',*,*,#178,.F.);
#495=ORIENTED_EDGE('',*,*,#440,.T.);
#496=ORIENTED_EDGE('',*,*,#318,.T.);
#497=ORIENTED_EDGE('',*,*,#472,.T.);
#498=EDGE_LOOP('',(#494,#495,#496,#497));
#499=FACE_BOUND('',#498,.T.);
#500=ADVANCED_FACE('',(#499),#493,.T.);
#501=CLOSED_SHELL('',(#205,#328,#342,#356,#380,#404,#416,#428,#452,#476,#488,#500));
#502=MANIFOLD_SOLID_BREP('2.1',#501);
#503=COLOUR_RGB('',0.321568638,0.454901963,0.050980393);
#504=FILL_AREA_STYLE_COLOUR('',#503);
#505=FILL_AREA_STYLE('',(#504));
#506=SURFACE_STYLE_FILL_AREA(#505);
#507=SURFACE_SIDE_STYLE('',(#506));
#508=SURFACE_STYLE_USAGE(.BOTH.,#507);
#509=PRESENTATION_STYLE_ASSIGNMENT((#508));
#82=STYLED_ITEM('',(#509),#502);
#63=SHAPE_REPRESENTATION('Green',(#15),#61);
#64=ADVANCED_BREP_SHAPE_REPRESENTATION('Green',(#502),#61);
#517=SHAPE_REPRESENTATION_RELATIONSHIP('','',#63,#64);
#518=CARTESIAN_POINT('',(0.,0.,0.));
#519=DIRECTION('',(0.,0.,1.));
#520=DIRECTION('',(1.,0.,0.));
#521=AXIS2_PLACEMENT_3D('',#518,#519,#520);
#523=MAPPED_ITEM('',#522,#521);
#522=REPRESENTATION_MAP(#521,#63);
#524=APPLICATION_CONTEXT('Managed model based 3d engineering');
#525=APPLICATION_PROTOCOL_DEFINITION('international standard','ap242_managed_model_based_3d_engineering',2014,#524);
#526=PRODUCT_CONTEXT('',#524,'mechanical');
#527=PRODUCT_DEFINITION_CONTEXT('part definition',#524,'design');
#71=PRODUCT('Green','Green','',(#526));
#528=PRODUCT_RELATED_PRODUCT_CATEGORY('part','',(#71));
#529=PRODUCT_DEFINITION_FORMATION_WITH_SPECIFIED_SOURCE('','',#71,.NOT_KNOWN.);
#72=PRODUCT_DEFINITION('design','',#529,#527);
#70=PRODUCT_DEFINITION_SHAPE('','',#72);
#530=SHAPE_DEFINITION_REPRESENTATION(#70,#63);
#62=DRAUGHTING_MODEL('',(#523),#61);
#531=(NAMED_UNIT(*)PLANE_ANGLE_UNIT()SI_UNIT($,.RADIAN.));
#532=PLANE_ANGLE_MEASURE_WITH_UNIT(PLANE_ANGLE_MEASURE(0.0174532925),#531);
#533=(CONVERSION_BASED_UNIT('DEGREE',#532)NAMED_UNIT(#534)PLANE_ANGLE_UNIT());
#534=DIMENSIONAL_EXPONENTS(0.,0.,0.,0.,0.,0.,0.);
#535=(NAMED_UNIT(*)SI_UNIT($,.STERADIAN.)SOLID_ANGLE_UNIT());
#536=(LENGTH_UNIT()NAMED_UNIT(*)SI_UNIT(.MILLI.,.METRE.));
#537=UNCERTAINTY_MEASURE_WITH_UNIT(LENGTH_MEASURE(1.000000E-05),#536,'DISTANCE_ACCURACY_VALUE','Maximum Tolerance applied to model');
#538=(GEOMETRIC_REPRESENTATION_CONTEXT(3)GLOBAL_UNCERTAINTY_ASSIGNED_CONTEXT((#537))GLOBAL_UNIT_ASSIGNED_CONTEXT((#536,#533,#535))REPRESENTATION_CONTEXT('','Red'));
#550=CARTESIAN_POINT('',(0.,0.,0.));
#551=DIRECTION('',(0.,0.,1.));
#552=DIRECTION('',(1.,0.,-0.));
#553=AXIS2_PLACEMENT_3D('',#550,#551,#552);
#554=ITEM_DEFINED_TRANSFORMATION('','',#553,#15);
#555=(REPRESENTATION_RELATIONSHIP('','',#540,#35)REPRESENTATION_RELATIONSHIP_WITH_TRANSFORMATION(#554)SHAPE_REPRESENTATION_RELATIONSHIP());
#556=NEXT_ASSEMBLY_USAGE_OCCURRENCE('Red_3','Red','Red',#44,#549,$);
#557=PRODUCT_DEFINITION_SHAPE('','',#556);
#558=CONTEXT_DEPENDENT_SHAPE_REPRESENTATION(#555,#557);
#560=CARTESIAN_POINT('',(17.735230235,-4.936599173,292.));
#561=DIRECTION('',(0.,0.,-1.));
#562=DIRECTION('',(-1.,0.,0.));
#563=AXIS2_PLACEMENT_3D('',#560,#561,#562);
#564=CYLINDRICAL_SURFACE('',#563,13.);
#565=CARTESIAN_POINT('',(4.735230235,-4.936599173,269.));
#566=VERTEX_POINT('',#565);
#567=CARTESIAN_POINT('',(4.735230235,-4.936599173,304.));
#568=VERTEX_POINT('',#567);
#569=CARTESIAN_POINT('',(4.735230235,-4.936599173,269.));
#570=DIRECTION('',(-0.,-0.,1.));
#571=VECTOR('',#570,35.);
#572=LINE('',#569,#571);
#573=EDGE_CURVE('',#566,#568,#572,.T.);
#574=ORIENTED_EDGE('',*,*,#573,.F.);
#575=CARTESIAN_POINT('',(17.735230235,-4.936599173,269.));
#576=DIRECTION('',(-0.,-0.,1.));
#577=DIRECTION('',(-1.,0.,0.));
#578=AXIS2_PLACEMENT_3D('',#575,#576,#577);
#579=CIRCLE('',#578,13.);
#580=EDGE_CURVE('',#566,#566,#579,.T.);
#581=ORIENTED_EDGE('',*,*,#580,.F.);
#582=ORIENTED_EDGE('',*,*,#573,.T.);
#583=CARTESIAN_POINT('',(17.735230235,-4.936599173,304.));
#584=DIRECTION('',(-0.,-0.,1.));
#585=DIRECTION('',(-1.,0.,0.));
#586=AXIS2_PLACEMENT_3D('',#583,#584,#585);
#587=CIRCLE('',#586,13.);
#588=EDGE_CURVE('',#568,#568,#587,.T.);
#589=ORIENTED_EDGE('',*,*,#588,.T.);
#590=EDGE_LOOP('',(#574,#581,#582,#589));
#591=FACE_BOUND('',#590,.T.);
#592=CARTESIAN_POINT('',(25.687135662,-15.220917336,295.8));
#593=VERTEX_POINT('',#592);
#594=CARTESIAN_POINT('',(25.79804605,5.260998639,295.8));
#595=VERTEX_POINT('',#594);
#596=CARTESIAN_POINT('',(17.735230235,-4.936599173,295.8));
#597=DIRECTION('',(-0.,-0.,1.));
#598=DIRECTION('',(-1.,0.,0.));
#599=AXIS2_PLACEMENT_3D('',#596,#597,#598);
#600=CIRCLE('',#599,13.);
#601=EDGE_CURVE('',#593,#595,#600,.T.);
#602=ORIENTED_EDGE('',*,*,#601,.F.);
#603=CARTESIAN_POINT('',(25.687135662,-15.220917336,292.7));
#604=VERTEX_POINT('',#603);
#605=CARTESIAN_POINT('',(25.687135662,-15.220917336,295.8));
#606=DIRECTION('',(0.,0.,-1.));
#607=VECTOR('',#606,3.1);
#608=LINE('',#605,#607);
#609=EDGE_CURVE('',#593,#604,#608,.T.);
#610=ORIENTED_EDGE('',*,*,#609,.T.);
#611=CARTESIAN_POINT('',(25.79804605,5.260998639,292.7));
#612=VERTEX_POINT('',#611);
#613=CARTESIAN_POINT('',(17.735230235,-4.936599173,292.7));
#614=DIRECTION('',(-0.,-0.,1.));
#615=DIRECTION('',(-1.,0.,0.));
#616=AXIS2_PLACEMENT_3D('',#613,#614,#615);
#617=CIRCLE('',#616,13.);
#618=EDGE_CURVE('',#604,#612,#617,.T.);
#619=ORIENTED_EDGE('',*,*,#618,.T.);
#620=CARTESIAN_POINT('',(25.79804605,5.260998639,292.7));
#621=DIRECTION('',(0.,0.,1.));
#622=VECTOR('',#621,3.1);
#623=LINE('',#620,#622);
#624=EDGE_CURVE('',#612,#595,#623,.T.);
#625=ORIENTED_EDGE('',*,*,#624,.T.);
#626=EDGE_LOOP('',(#602,#610,#619,#625));
#627=FACE_BOUND('',#626,.T.);
#628=CARTESIAN_POINT('',(25.761546025,-15.162950176,271.7));
#629=VERTEX_POINT('',#628);
#630=CARTESIAN_POINT('',(25.761546025,5.289751831,271.7));
#631=VERTEX_POINT('',#630);
#632=CARTESIAN_POINT('',(17.735230235,-4.936599173,271.7));
#633=DIRECTION('',(-0.,-0.,1.));
#634=DIRECTION('',(-1.,0.,0.));
#635=AXIS2_PLACEMENT_3D('',#632,#633,#634);
#636=CIRCLE('',#635,13.);
#637=EDGE_CURVE('',#629,#631,#636,.T.);
#638=ORIENTED_EDGE('',*,*,#637,.T.);
#639=CARTESIAN_POINT('',(25.761546025,5.289751831,274.8));
#640=VERTEX_POINT('',#639);
#641=CARTESIAN_POINT('',(25.761546025,5.289751831,274.8));
#642=DIRECTION('',(0.,0.,-1.));
#643=VECTOR('',#642,3.1);
#644=LINE('',#641,#643);
#645=EDGE_CURVE('',#640,#631,#644,.T.);
#646=ORIENTED_EDGE('',*,*,#645,.F.);
#647=CARTESIAN_POINT('',(25.761546025,-15.162950176,274.8));
#648=VERTEX_POINT('',#647);
#649=CARTESIAN_POINT('',(17.735230235,-4.936599173,274.8));
#650=DIRECTION('',(-0.,-0.,1.));
#651=DIRECTION('',(-1.,0.,0.));
#652=AXIS2_PLACEMENT_3D('',#649,#650,#651);
#653=CIRCLE('',#652,13.);
#654=EDGE_CURVE('',#648,#640,#653,.T.);
#655=ORIENTED_EDGE('',*,*,#654,.F.);
#656=CARTESIAN_POINT('',(25.761546025,-15.162950176,274.8));
#657=DIRECTION('',(0.,0.,-1.));
#658=VECTOR('',#657,3.1);
#659=LINE('',#656,#658);
#660=EDGE_CURVE('',#648,#629,#659,.T.);
#661=ORIENTED_EDGE('',*,*,#660,.T.);
#662=EDGE_LOOP('',(#638,#646,#655,#661));
#663=FACE_BOUND('',#662,.T.);
#664=ADVANCED_FACE('',(#591,#627,#663),#564,.F.);
#665=CARTESIAN_POINT('',(17.735230235,-4.936599173,292.));
#666=DIRECTION('',(0.,0.,-1.));
#667=DIRECTION('',(-1.,0.,0.));
#668=AXIS2_PLACEMENT_3D('',#665,#666,#667);
#669=CYLINDRICAL_SURFACE('',#668,14.5);
#670=CARTESIAN_POINT('',(3.235230235,-4.936599173,269.));
#671=VERTEX_POINT('',#670);
#672=CARTESIAN_POINT('',(3.235230235,-4.936599173,304.));
#673=VERTEX_POINT('',#672);
#674=CARTESIAN_POINT('',(3.235230235,-4.936599173,269.));
#675=DIRECTION('',(-0.,-0.,1.));
#676=VECTOR('',#675,35.);
#677=LINE('',#674,#676);
#678=EDGE_CURVE('',#671,#673,#677,.T.);
#679=ORIENTED_EDGE('',*,*,#678,.T.);
#680=CARTESIAN_POINT('',(17.735230235,-4.936599173,304.));
#681=DIRECTION('',(-0.,-0.,1.));
#682=DIRECTION('',(-1.,0.,0.));
#683=AXIS2_PLACEMENT_3D('',#680,#681,#682);
#684=CIRCLE('',#683,14.5);
#685=EDGE_CURVE('',#673,#673,#684,.T.);
#686=ORIENTED_EDGE('',*,*,#685,.F.);
#687=ORIENTED_EDGE('',*,*,#678,.F.);
#688=CARTESIAN_POINT('',(17.735230235,-4.936599173,269.));
#689=DIRECTION('',(-0.,-0.,1.));
#690=DIRECTION('',(-1.,0.,0.));
#691=AXIS2_PLACEMENT_3D('',#688,#689,#690);
#692=CIRCLE('',#691,14.5);
#693=EDGE_CURVE('',#671,#671,#692,.T.);
#694=ORIENTED_EDGE('',*,*,#693,.T.);
#695=EDGE_LOOP('',(#679,#686,#687,#694));
#696=FACE_BOUND('',#695,.T.);
#697=CARTESIAN_POINT('',(26.891118953,6.307052449,292.7));
#698=VERTEX_POINT('',#697);
#699=CARTESIAN_POINT('',(26.891118953,6.307052449,295.8));
#700=VERTEX_POINT('',#699);
#701=CARTESIAN_POINT('',(26.891118953,6.307052449,292.7));
#702=DIRECTION('',(-0.,-0.,1.));
#703=VECTOR('',#702,3.1);
#704=LINE('',#701,#703);
#705=EDGE_CURVE('',#698,#700,#704,.T.);
#706=ORIENTED_EDGE('',*,*,#705,.F.);
#707=CARTESIAN_POINT('',(26.76881595,-16.27874752,292.7));
#708=VERTEX_POINT('',#707);
#709=CARTESIAN_POINT('',(17.735230235,-4.936599173,292.7));
#710=DIRECTION('',(-0.,-0.,1.));
#711=DIRECTION('',(-1.,0.,0.));
#712=AXIS2_PLACEMENT_3D('',#709,#710,#711);
#713=CIRCLE('',#712,14.5);
#714=EDGE_CURVE('',#708,#698,#713,.T.);
#715=ORIENTED_EDGE('',*,*,#714,.F.);
#716=CARTESIAN_POINT('',(26.76881595,-16.27874752,295.8));
#717=VERTEX_POINT('',#716);
#718=CARTESIAN_POINT('',(26.76881595,-16.27874752,295.8));
#719=DIRECTION('',(0.,0.,-1.));
#720=VECTOR('',#719,3.1);
#721=LINE('',#718,#720);
#722=EDGE_CURVE('',#717,#708,#721,.T.);
#723=ORIENTED_EDGE('',*,*,#722,.F.);
#724=CARTESIAN_POINT('',(17.735230235,-4.936599173,295.8));
#725=DIRECTION('',(-0.,-0.,1.));
#726=DIRECTION('',(-1.,0.,0.));
#727=AXIS2_PLACEMENT_3D('',#724,#725,#726);
#728=CIRCLE('',#727,14.5);
#729=EDGE_CURVE('',#717,#700,#728,.T.);
#730=ORIENTED_EDGE('',*,*,#729,.T.);
#731=EDGE_LOOP('',(#706,#715,#723,#730));
#732=FACE_BOUND('',#731,.T.);
#733=CARTESIAN_POINT('',(26.847072341,-16.215975638,274.8));
#734=VERTEX_POINT('',#733);
#735=CARTESIAN_POINT('',(26.847072341,6.342777293,274.8));
#736=VERTEX_POINT('',#735);
#737=CARTESIAN_POINT('',(17.735230235,-4.936599173,274.8));
#738=DIRECTION('',(-0.,-0.,1.));
#739=DIRECTION('',(-1.,0.,0.));
#740=AXIS2_PLACEMENT_3D('',#737,#738,#739);
#741=CIRCLE('',#740,14.5);
#742=EDGE_CURVE('',#734,#736,#741,.T.);
#743=ORIENTED_EDGE('',*,*,#742,.T.);
#744=CARTESIAN_POINT('',(26.847072341,6.342777293,271.7));
#745=VERTEX_POINT('',#744);
#746=CARTESIAN_POINT('',(26.847072341,6.342777293,271.7));
#747=DIRECTION('',(0.,0.,1.));
#748=VECTOR('',#747,3.1);
#749=LINE('',#746,#748);
#750=EDGE_CURVE('',#745,#736,#749,.T.);
#751=ORIENTED_EDGE('',*,*,#750,.F.);
#752=CARTESIAN_POINT('',(26.847072341,-16.215975638,271.7));
#753=VERTEX_POINT('',#752);
#754=CARTESIAN_POINT('',(17.735230235,-4.936599173,271.7));
#755=DIRECTION('',(-0.,-0.,1.));
#756=DIRECTION('',(-1.,0.,0.));
#757=AXIS2_PLACEMENT_3D('',#754,#755,#756);
#758=CIRCLE('',#757,14.5);
#759=EDGE_CURVE('',#753,#745,#758,.T.);
#760=ORIENTED_EDGE('',*,*,#759,.F.);
#761=CARTESIAN_POINT('',(26.847072341,-16.215975638,274.8));
#762=DIRECTION('',(0.,0.,-1.));
#763=VECTOR('',#762,3.1);
#764=LINE('',#761,#763);
#765=EDGE_CURVE('',#734,#753,#764,.T.);
#766=ORIENTED_EDGE('',*,*,#765,.F.);
#767=EDGE_LOOP('',(#743,#751,#760,#766));
#768=FACE_BOUND('',#767,.T.);
#769=ADVANCED_FACE('',(#696,#732,#768),#669,.T.);
#770=CARTESIAN_POINT('',(17.735230235,-4.936599173,304.));
#771=DIRECTION('',(0.,0.,1.));
#772=DIRECTION('',(1.,0.,0.));
#773=AXIS2_PLACEMENT_3D('',#770,#771,#772);
#774=PLANE('',#773);
#775=ORIENTED_EDGE('',*,*,#588,.F.);
#776=EDGE_LOOP('',(#775));
#777=FACE_BOUND('',#776,.T.);
#778=ORIENTED_EDGE('',*,*,#685,.T.);
#779=EDGE_LOOP('',(#778));
#780=FACE_BOUND('',#779,.T.);
#781=ADVANCED_FACE('',(#777,#780),#774,.T.);
#782=CARTESIAN_POINT('',(17.735230235,-4.936599173,269.));
#783=DIRECTION('',(0.,0.,1.));
#784=DIRECTION('',(1.,0.,0.));
#785=AXIS2_PLACEMENT_3D('',#782,#783,#784);
#786=PLANE('',#785);
#787=ORIENTED_EDGE('',*,*,#580,.T.);
#788=EDGE_LOOP('',(#787));
#789=FACE_BOUND('',#788,.T.);
#790=ORIENTED_EDGE('',*,*,#693,.F.);
#791=EDGE_LOOP('',(#790));
#792=FACE_BOUND('',#791,.T.);
#793=ADVANCED_FACE('',(#789,#792),#786,.F.);
#794=CARTESIAN_POINT('',(33.40302831,13.672040462,292.7));
#795=DIRECTION('',(0.,0.,1.));
#796=DIRECTION('',(0.173648178,-0.984807753,0.));
#797=AXIS2_PLACEMENT_3D('',#794,#795,#796);
#798=PLANE('',#797);
#799=CARTESIAN_POINT('',(36.702343686,-5.039306845,292.7));
#800=DIRECTION('',(0.,0.,1.));
#801=DIRECTION('',(1.,0.,-0.));
#802=AXIS2_PLACEMENT_3D('',#799,#800,#801);
#803=CIRCLE('',#802,15.);
#804=EDGE_CURVE('',#604,#708,#803,.T.);
#805=ORIENTED_EDGE('',*,*,#804,.T.);
#806=ORIENTED_EDGE('',*,*,#714,.T.);
#807=CARTESIAN_POINT('',(36.702343686,-5.039306845,292.7));
#808=DIRECTION('',(0.,0.,1.));
#809=DIRECTION('',(1.,0.,-0.));
#810=AXIS2_PLACEMENT_3D('',#807,#808,#809);
#811=CIRCLE('',#810,15.);
#812=EDGE_CURVE('',#698,#612,#811,.T.);
#813=ORIENTED_EDGE('',*,*,#812,.T.);
#814=ORIENTED_EDGE('',*,*,#618,.F.);
#815=EDGE_LOOP('',(#805,#806,#813,#814));
#816=FACE_BOUND('',#815,.T.);
#817=ADVANCED_FACE('',(#816),#798,.T.);
#818=CARTESIAN_POINT('',(33.40302831,13.672040462,295.8));
#819=DIRECTION('',(0.,0.,1.));
#820=DIRECTION('',(0.173648178,-0.984807753,0.));
#821=AXIS2_PLACEMENT_3D('',#818,#819,#820);
#822=PLANE('',#821);
#823=ORIENTED_EDGE('',*,*,#601,.T.);
#824=CARTESIAN_POINT('',(36.702343686,-5.039306845,295.8));
#825=DIRECTION('',(0.,0.,1.));
#826=DIRECTION('',(1.,0.,-0.));
#827=AXIS2_PLACEMENT_3D('',#824,#825,#826);
#828=CIRCLE('',#827,15.);
#829=EDGE_CURVE('',#700,#595,#828,.T.);
#830=ORIENTED_EDGE('',*,*,#829,.F.);
#831=ORIENTED_EDGE('',*,*,#729,.F.);
#832=CARTESIAN_POINT('',(36.702343686,-5.039306845,295.8));
#833=DIRECTION('',(0.,0.,1.));
#834=DIRECTION('',(1.,0.,-0.));
#835=AXIS2_PLACEMENT_3D('',#832,#833,#834);
#836=CIRCLE('',#835,15.);
#837=EDGE_CURVE('',#593,#717,#836,.T.);
#838=ORIENTED_EDGE('',*,*,#837,.F.);
#839=EDGE_LOOP('',(#823,#830,#831,#838));
#840=FACE_BOUND('',#839,.T.);
#841=ADVANCED_FACE('',(#840),#822,.F.);
#842=CARTESIAN_POINT('',(36.702343686,-5.039306845,295.5));
#843=DIRECTION('',(0.,0.,-1.));
#844=DIRECTION('',(-0.173648178,0.984807753,0.));
#845=AXIS2_PLACEMENT_3D('',#842,#843,#844);
#846=CYLINDRICAL_SURFACE('',#845,15.);
#847=ORIENTED_EDGE('',*,*,#837,.T.);
#848=ORIENTED_EDGE('',*,*,#722,.T.);
#849=ORIENTED_EDGE('',*,*,#804,.F.);
#850=ORIENTED_EDGE('',*,*,#609,.F.);
#851=EDGE_LOOP('',(#847,#848,#849,#850));
#852=FACE_BOUND('',#851,.T.);
#853=ADVANCED_FACE('',(#852),#846,.F.);
#854=CARTESIAN_POINT('',(36.702343686,-5.039306845,295.5));
#855=DIRECTION('',(0.,0.,-1.));
#856=DIRECTION('',(-0.173648178,0.984807753,0.));
#857=AXIS2_PLACEMENT_3D('',#854,#855,#856);
#858=CYLINDRICAL_SURFACE('',#857,15.);
#859=ORIENTED_EDGE('',*,*,#812,.F.);
#860=ORIENTED_EDGE('',*,*,#705,.T.);
#861=ORIENTED_EDGE('',*,*,#829,.T.);
#862=ORIENTED_EDGE('',*,*,#624,.F.);
#863=EDGE_LOOP('',(#859,#860,#861,#862));
#864=FACE_BOUND('',#863,.T.);
#865=ADVANCED_FACE('',(#864),#858,.F.);
#866=CARTESIAN_POINT('',(36.735230235,-4.936599173,274.5));
#867=DIRECTION('',(0.,0.,-1.));
#868=DIRECTION('',(-1.,0.,0.));
#869=AXIS2_PLACEMENT_3D('',#866,#867,#868);
#870=CYLINDRICAL_SURFACE('',#869,15.);
#871=ORIENTED_EDGE('',*,*,#765,.T.);
#872=CARTESIAN_POINT('',(36.735230235,-4.936599173,271.7));
#873=DIRECTION('',(0.,0.,1.));
#874=DIRECTION('',(1.,0.,-0.));
#875=AXIS2_PLACEMENT_3D('',#872,#873,#874);
#876=CIRCLE('',#875,15.);
#877=EDGE_CURVE('',#629,#753,#876,.T.);
#878=ORIENTED_EDGE('',*,*,#877,.F.);
#879=ORIENTED_EDGE('',*,*,#660,.F.);
#880=CARTESIAN_POINT('',(36.735230235,-4.936599173,274.8));
#881=DIRECTION('',(0.,0.,1.));
#882=DIRECTION('',(1.,0.,-0.));
#883=AXIS2_PLACEMENT_3D('',#880,#881,#882);
#884=CIRCLE('',#883,15.);
#885=EDGE_CURVE('',#648,#734,#884,.T.);
#886=ORIENTED_EDGE('',*,*,#885,.T.);
#887=EDGE_LOOP('',(#871,#878,#879,#886));
#888=FACE_BOUND('',#887,.T.);
#889=ADVANCED_FACE('',(#888),#870,.F.);
#890=CARTESIAN_POINT('',(36.735230235,-4.936599173,274.5));
#891=DIRECTION('',(0.,0.,-1.));
#892=DIRECTION('',(-1.,0.,0.));
#893=AXIS2_PLACEMENT_3D('',#890,#891,#892);
#894=CYLINDRICAL_SURFACE('',#893,15.);
#895=ORIENTED_EDGE('',*,*,#750,.T.);
#896=CARTESIAN_POINT('',(36.735230235,-4.936599173,274.8));
#897=DIRECTION('',(0.,0.,1.));
#898=DIRECTION('',(1.,0.,-0.));
#899=AXIS2_PLACEMENT_3D('',#896,#897,#898);
#900=CIRCLE('',#899,15.);
#901=EDGE_CURVE('',#736,#640,#900,.T.);
#902=ORIENTED_EDGE('',*,*,#901,.T.);
#903=ORIENTED_EDGE('',*,*,#645,.T.);
#904=CARTESIAN_POINT('',(36.735230235,-4.936599173,271.7));
#905=DIRECTION('',(0.,0.,1.));
#906=DIRECTION('',(1.,0.,-0.));
#907=AXIS2_PLACEMENT_3D('',#904,#905,#906);
#908=CIRCLE('',#907,15.);
#909=EDGE_CURVE('',#745,#631,#908,.T.);
#910=ORIENTED_EDGE('',*,*,#909,.F.);
#911=EDGE_LOOP('',(#895,#902,#903,#910));
#912=FACE_BOUND('',#911,.T.);
#913=ADVANCED_FACE('',(#912),#894,.F.);
#914=CARTESIAN_POINT('',(17.735230235,-4.936599173,274.8));
#915=DIRECTION('',(0.,0.,1.));
#916=DIRECTION('',(1.,0.,0.));
#917=AXIS2_PLACEMENT_3D('',#914,#915,#916);
#918=PLANE('',#917);
#919=ORIENTED_EDGE('',*,*,#885,.F.);
#920=ORIENTED_EDGE('',*,*,#654,.T.);
#921=ORIENTED_EDGE('',*,*,#901,.F.);
#922=ORIENTED_EDGE('',*,*,#742,.F.);
#923=EDGE_LOOP('',(#919,#920,#921,#922));
#924=FACE_BOUND('',#923,.T.);
#925=ADVANCED_FACE('',(#924),#918,.F.);
#926=CARTESIAN_POINT('',(17.735230235,-4.936599173,271.7));
#927=DIRECTION('',(0.,0.,1.));
#928=DIRECTION('',(1.,0.,0.));
#929=AXIS2_PLACEMENT_3D('',#926,#927,#928);
#930=PLANE('',#929);
#931=ORIENTED_EDGE('',*,*,#637,.F.);
#932=ORIENTED_EDGE('',*,*,#877,.T.);
#933=ORIENTED_EDGE('',*,*,#759,.T.);
#934=ORIENTED_EDGE('',*,*,#909,.T.);
#935=EDGE_LOOP('',(#931,#932,#933,#934));
#936=FACE_BOUND('',#935,.T.);
#937=ADVANCED_FACE('',(#936),#930,.T.);
#938=CLOSED_SHELL('',(#664,#769,#781,#793,#817,#841,#853,#865,#889,#913,#925,#937));
#939=MANIFOLD_SOLID_BREP('1.1',#938);
#940=COLOUR_RGB('',0.898039222,0.180392161,0.180392161);
#941=FILL_AREA_STYLE_COLOUR('',#940);
#942=FILL_AREA_STYLE('',(#941));
#943=SURFACE_STYLE_FILL_AREA(#942);
#944=SURFACE_SIDE_STYLE('',(#943));
#945=SURFACE_STYLE_USAGE(.BOTH.,#944);
#946=PRESENTATION_STYLE_ASSIGNMENT((#945));
#559=STYLED_ITEM('',(#946),#939);
#540=SHAPE_REPRESENTATION('Red',(#15),#538);
#541=ADVANCED_BREP_SHAPE_REPRESENTATION('Red',(#939),#538);
#954=SHAPE_REPRESENTATION_RELATIONSHIP('','',#540,#541);
#955=CARTESIAN_POINT('',(0.,0.,0.));
#956=DIRECTION('',(0.,0.,1.));
#957=DIRECTION('',(1.,0.,0.));
#958=AXIS2_PLACEMENT_3D('',#955,#956,#957);
#960=MAPPED_ITEM('',#959,#958);
#959=REPRESENTATION_MAP(#958,#540);
#548=PRODUCT('Red','Red','',(#526));
#961=PRODUCT_RELATED_PRODUCT_CATEGORY('part','',(#548));
#962=PRODUCT_DEFINITION_FORMATION_WITH_SPECIFIED_SOURCE('','',#548,.NOT_KNOWN.);
#549=PRODUCT_DEFINITION('design','',#962,#527);
#547=PRODUCT_DEFINITION_SHAPE('','',#549);
#963=SHAPE_DEFINITION_REPRESENTATION(#547,#540);
#539=DRAUGHTING_MODEL('',(#960),#538);
#964=(NAMED_UNIT(*)PLANE_ANGLE_UNIT()SI_UNIT($,.RADIAN.));
#965=PLANE_ANGLE_MEASURE_WITH_UNIT(PLANE_ANGLE_MEASURE(0.0174532925),#964);
#966=(CONVERSION_BASED_UNIT('DEGREE',#965)NAMED_UNIT(#967)PLANE_ANGLE_UNIT());
#967=DIMENSIONAL_EXPONENTS(0.,0.,0.,0.,0.,0.,0.);
#968=(NAMED_UNIT(*)SI_UNIT($,.STERADIAN.)SOLID_ANGLE_UNIT());
#969=(LENGTH_UNIT()NAMED_UNIT(*)SI_UNIT(.MILLI.,.METRE.));
#970=UNCERTAINTY_MEASURE_WITH_UNIT(LENGTH_MEASURE(1.000000E-05),#969,'DISTANCE_ACCURACY_VALUE','Maximum Tolerance applied to model');
#971=(GEOMETRIC_REPRESENTATION_CONTEXT(3)GLOBAL_UNCERTAINTY_ASSIGNED_CONTEXT((#970))GLOBAL_UNIT_ASSIGNED_CONTEXT((#969,#966,#968))REPRESENTATION_CONTEXT('','Blue'));
#983=CARTESIAN_POINT('',(0.,0.,0.));
#984=DIRECTION('',(0.,0.,1.));
#985=DIRECTION('',(1.,0.,-0.));
#986=AXIS2_PLACEMENT_3D('',#983,#984,#985);
#987=ITEM_DEFINED_TRANSFORMATION('','',#986,#15);
#988=(REPRESENTATION_RELATIONSHIP('','',#973,#35)REPRESENTATION_RELATIONSHIP_WITH_TRANSFORMATION(#987)SHAPE_REPRESENTATION_RELATIONSHIP());
#989=NEXT_ASSEMBLY_USAGE_OCCURRENCE('Blue_4','Blue','Blue',#44,#982,$);
#990=PRODUCT_DEFINITION_SHAPE('','',#989);
#991=CONTEXT_DEPENDENT_SHAPE_REPRESENTATION(#988,#990);
#993=CARTESIAN_POINT('',(-5.410428374,-32.360952498,292.));
#994=DIRECTION('',(0.,0.,-1.));
#995=DIRECTION('',(0.5,0.866025404,0.));
#996=AXIS2_PLACEMENT_3D('',#993,#994,#995);
#997=CYLINDRICAL_SURFACE('',#996,13.25);
#998=CARTESIAN_POINT('',(1.214571624,-20.886115897,269.));
#999=VERTEX_POINT('',#998);
#1000=CARTESIAN_POINT('',(1.214571624,-20.886115897,304.));
#1001=VERTEX_POINT('',#1000);
#1002=CARTESIAN_POINT('',(1.214571624,-20.886115897,269.));
#1003=DIRECTION('',(-0.,-0.,1.));
#1004=VECTOR('',#1003,35.);
#1005=LINE('',#1002,#1004);
#1006=EDGE_CURVE('',#999,#1001,#1005,.T.);
#1007=ORIENTED_EDGE('',*,*,#1006,.F.);
#1008=CARTESIAN_POINT('',(-18.660428374,-32.360952498,269.));
#1009=VERTEX_POINT('',#1008);
#1010=CARTESIAN_POINT('',(-5.410428374,-32.360952498,269.));
#1011=DIRECTION('',(-0.,-0.,1.));
#1012=DIRECTION('',(-1.,0.,0.));
#1013=AXIS2_PLACEMENT_3D('',#1010,#1011,#1012);
#1014=CIRCLE('',#1013,13.25);
#1015=EDGE_CURVE('',#1009,#999,#1014,.T.);
#1016=ORIENTED_EDGE('',*,*,#1015,.F.);
#1017=CARTESIAN_POINT('',(-5.410428374,-32.360952498,269.));
#1018=DIRECTION('',(-0.,-0.,1.));
#1019=DIRECTION('',(-1.,0.,0.));
#1020=AXIS2_PLACEMENT_3D('',#1017,#1018,#1019);
#1021=CIRCLE('',#1020,13.25);
#1022=EDGE_CURVE('',#999,#1009,#1021,.T.);
#1023=ORIENTED_EDGE('',*,*,#1022,.F.);
#1024=ORIENTED_EDGE('',*,*,#1006,.T.);
#1025=CARTESIAN_POINT('',(-18.660428374,-32.360952498,304.));
#1026=VERTEX_POINT('',#1025);
#1027=CARTESIAN_POINT('',(-5.410428374,-32.360952498,304.));
#1028=DIRECTION('',(-0.,-0.,1.));
#1029=DIRECTION('',(-1.,0.,0.));
#1030=AXIS2_PLACEMENT_3D('',#1027,#1028,#1029);
#1031=CIRCLE('',#1030,13.25);
#1032=EDGE_CURVE('',#1001,#1026,#1031,.T.);
#1033=ORIENTED_EDGE('',*,*,#1032,.T.);
#1034=CARTESIAN_POINT('',(-5.410428374,-32.360952498,304.));
#1035=DIRECTION('',(-0.,-0.,1.));
#1036=DIRECTION('',(-1.,0.,0.));
#1037=AXIS2_PLACEMENT_3D('',#1034,#1035,#1036);
#1038=CIRCLE('',#1037,13.25);
#1039=EDGE_CURVE('',#1026,#1001,#1038,.T.);
#1040=ORIENTED_EDGE('',*,*,#1039,.T.);
#1041=EDGE_LOOP('',(#1007,#1016,#1023,#1024,#1033,#1040));
#1042=FACE_BOUND('',#1041,.T.);
#1043=CARTESIAN_POINT('',(-18.658547654,-32.137713724,295.8));
#1044=VERTEX_POINT('',#1043);
#1045=CARTESIAN_POINT('',(1.283518622,-43.795705386,295.8));
#1046=VERTEX_POINT('',#1045);
#1047=CARTESIAN_POINT('',(-5.410428374,-32.360952498,295.8));
#1048=DIRECTION('',(-0.,-0.,1.));
#1049=DIRECTION('',(-1.,0.,0.));
#1050=AXIS2_PLACEMENT_3D('',#1047,#1048,#1049);
#1051=CIRCLE('',#1050,13.25);
#1052=EDGE_CURVE('',#1044,#1046,#1051,.T.);
#1053=ORIENTED_EDGE('',*,*,#1052,.F.);
#1054=CARTESIAN_POINT('',(-18.658547654,-32.137713724,292.7));
#1055=VERTEX_POINT('',#1054);
#1056=CARTESIAN_POINT('',(-18.658547654,-32.137713724,295.8));
#1057=DIRECTION('',(0.,0.,-1.));
#1058=VECTOR('',#1057,3.1);
#1059=LINE('',#1056,#1058);
#1060=EDGE_CURVE('',#1044,#1055,#1059,.T.);
#1061=ORIENTED_EDGE('',*,*,#1060,.T.);
#1062=CARTESIAN_POINT('',(1.283518622,-43.795705386,292.7));
#1063=VERTEX_POINT('',#1062);
#1064=CARTESIAN_POINT('',(-5.410428374,-32.360952498,292.7));
#1065=DIRECTION('',(-0.,-0.,1.));
#1066=DIRECTION('',(-1.,0.,0.));
#1067=AXIS2_PLACEMENT_3D('',#1064,#1065,#1066);
#1068=CIRCLE('',#1067,13.25);
#1069=EDGE_CURVE('',#1055,#1063,#1068,.T.);
#1070=ORIENTED_EDGE('',*,*,#1069,.T.);
#1071=CARTESIAN_POINT('',(1.283518622,-43.795705386,292.7));
#1072=DIRECTION('',(0.,0.,1.));
#1073=VECTOR('',#1072,3.1);
#1074=LINE('',#1071,#1073);
#1075=EDGE_CURVE('',#1063,#1046,#1074,.T.);
#1076=ORIENTED_EDGE('',*,*,#1075,.T.);
#1077=EDGE_LOOP('',(#1053,#1061,#1070,#1076));
#1078=FACE_BOUND('',#1077,.T.);
#1079=CARTESIAN_POINT('',(-18.659820733,-32.234058359,271.7));
#1080=VERTEX_POINT('',#1079);
#1081=CARTESIAN_POINT('',(1.324161353,-43.771815796,271.7));
#1082=VERTEX_POINT('',#1081);
#1083=CARTESIAN_POINT('',(-5.410428374,-32.360952498,271.7));
#1084=DIRECTION('',(-0.,-0.,1.));
#1085=DIRECTION('',(-1.,0.,0.));
#1086=AXIS2_PLACEMENT_3D('',#1083,#1084,#1085);
#1087=CIRCLE('',#1086,13.25);
#1088=EDGE_CURVE('',#1080,#1082,#1087,.T.);
#1089=ORIENTED_EDGE('',*,*,#1088,.T.);
#1090=CARTESIAN_POINT('',(1.324161353,-43.771815796,274.8));
#1091=VERTEX_POINT('',#1090);
#1092=CARTESIAN_POINT('',(1.324161353,-43.771815796,274.8));
#1093=DIRECTION('',(0.,0.,-1.));
#1094=VECTOR('',#1093,3.1);
#1095=LINE('',#1092,#1094);
#1096=EDGE_CURVE('',#1091,#1082,#1095,.T.);
#1097=ORIENTED_EDGE('',*,*,#1096,.F.);
#1098=CARTESIAN_POINT('',(-18.659820733,-32.234058359,274.8));
#1099=VERTEX_POINT('',#1098);
#1100=CARTESIAN_POINT('',(-5.410428374,-32.360952498,274.8));
#1101=DIRECTION('',(-0.,-0.,1.));
#1102=DIRECTION('',(-1.,0.,0.));
#1103=AXIS2_PLACEMENT_3D('',#1100,#1101,#1102);
#1104=CIRCLE('',#1103,13.25);
#1105=EDGE_CURVE('',#1099,#1091,#1104,.T.);
#1106=ORIENTED_EDGE('',*,*,#1105,.F.);
#1107=CARTESIAN_POINT('',(-18.659820733,-32.234058359,274.8));
#1108=DIRECTION('',(0.,0.,-1.));
#1109=VECTOR('',#1108,3.1);
#1110=LINE('',#1107,#1109);
#1111=EDGE_CURVE('',#1099,#1080,#1110,.T.);
#1112=ORIENTED_EDGE('',*,*,#1111,.T.);
#1113=EDGE_LOOP('',(#1089,#1097,#1106,#1112));
#1114=FACE_BOUND('',#1113,.T.);
#1115=ADVANCED_FACE('',(#1042,#1078,#1114),#997,.F.);
#1116=CARTESIAN_POINT('',(-5.410428374,-32.360952498,292.));
#1117=DIRECTION('',(0.,0.,-1.));
#1118=DIRECTION('',(0.5,0.866025404,0.));
#1119=AXIS2_PLACEMENT_3D('',#1116,#1117,#1118);
#1120=CYLINDRICAL_SURFACE('',#1119,14.5);
#1121=CARTESIAN_POINT('',(1.839571624,-19.803584142,269.));
#1122=VERTEX_POINT('',#1121);
#1123=CARTESIAN_POINT('',(1.839571624,-19.803584142,304.));
#1124=VERTEX_POINT('',#1123);
#1125=CARTESIAN_POINT('',(1.839571624,-19.803584142,269.));
#1126=DIRECTION('',(-0.,-0.,1.));
#1127=VECTOR('',#1126,35.);
#1128=LINE('',#1125,#1127);
#1129=EDGE_CURVE('',#1122,#1124,#1128,.T.);
#1130=ORIENTED_EDGE('',*,*,#1129,.T.);
#1131=CARTESIAN_POINT('',(-19.910428374,-32.360952498,304.));
#1132=VERTEX_POINT('',#1131);
#1133=CARTESIAN_POINT('',(-5.410428374,-32.360952498,304.));
#1134=DIRECTION('',(-0.,-0.,1.));
#1135=DIRECTION('',(-1.,0.,0.));
#1136=AXIS2_PLACEMENT_3D('',#1133,#1134,#1135);
#1137=CIRCLE('',#1136,14.5);
#1138=EDGE_CURVE('',#1132,#1124,#1137,.T.);
#1139=ORIENTED_EDGE('',*,*,#1138,.F.);
#1140=CARTESIAN_POINT('',(-5.410428374,-32.360952498,304.));
#1141=DIRECTION('',(-0.,-0.,1.));
#1142=DIRECTION('',(-1.,0.,0.));
#1143=AXIS2_PLACEMENT_3D('',#1140,#1141,#1142);
#1144=CIRCLE('',#1143,14.5);
#1145=EDGE_CURVE('',#1124,#1132,#1144,.T.);
#1146=ORIENTED_EDGE('',*,*,#1145,.F.);
#1147=ORIENTED_EDGE('',*,*,#1129,.F.);
#1148=CARTESIAN_POINT('',(-19.910428374,-32.360952498,269.));
#1149=VERTEX_POINT('',#1148);
#1150=CARTESIAN_POINT('',(-5.410428374,-32.360952498,269.));
#1151=DIRECTION('',(-0.,-0.,1.));
#1152=DIRECTION('',(-1.,0.,0.));
#1153=AXIS2_PLACEMENT_3D('',#1150,#1151,#1152);
#1154=CIRCLE('',#1153,14.5);
#1155=EDGE_CURVE('',#1122,#1149,#1154,.T.);
#1156=ORIENTED_EDGE('',*,*,#1155,.T.);
#1157=CARTESIAN_POINT('',(-5.410428374,-32.360952498,269.));
#1158=DIRECTION('',(-0.,-0.,1.));
#1159=DIRECTION('',(-1.,0.,0.));
#1160=AXIS2_PLACEMENT_3D('',#1157,#1158,#1159);
#1161=CIRCLE('',#1160,14.5);
#1162=EDGE_CURVE('',#1149,#1122,#1161,.T.);
#1163=ORIENTED_EDGE('',*,*,#1162,.T.);
#1164=EDGE_LOOP('',(#1130,#1139,#1146,#1147,#1156,#1163));
#1165=FACE_BOUND('',#1164,.T.);
#1166=CARTESIAN_POINT('',(1.612063058,-45.04695321,292.7));
#1167=VERTEX_POINT('',#1166);
#1168=CARTESIAN_POINT('',(1.612063058,-45.04695321,295.8));
#1169=VERTEX_POINT('',#1168);
#1170=CARTESIAN_POINT('',(1.612063058,-45.04695321,292.7));
#1171=DIRECTION('',(-0.,-0.,1.));
#1172=VECTOR('',#1171,3.1);
#1173=LINE('',#1170,#1172);
#1174=EDGE_CURVE('',#1167,#1169,#1173,.T.);
#1175=ORIENTED_EDGE('',*,*,#1174,.F.);
#1176=CARTESIAN_POINT('',(-19.910053084,-32.465275511,292.7));
#1177=VERTEX_POINT('',#1176);
#1178=CARTESIAN_POINT('',(-5.410428374,-32.360952498,292.7));
#1179=DIRECTION('',(-0.,-0.,1.));
#1180=DIRECTION('',(-1.,0.,0.));
#1181=AXIS2_PLACEMENT_3D('',#1178,#1179,#1180);
#1182=CIRCLE('',#1181,14.5);
#1183=EDGE_CURVE('',#1177,#1167,#1182,.T.);
#1184=ORIENTED_EDGE('',*,*,#1183,.F.);
#1185=CARTESIAN_POINT('',(-19.910053084,-32.465275511,295.8));
#1186=VERTEX_POINT('',#1185);
#1187=CARTESIAN_POINT('',(-19.910053084,-32.465275511,295.8));
#1188=DIRECTION('',(0.,0.,-1.));
#1189=VECTOR('',#1188,3.1);
#1190=LINE('',#1187,#1189);
#1191=EDGE_CURVE('',#1186,#1177,#1190,.T.);
#1192=ORIENTED_EDGE('',*,*,#1191,.F.);
#1193=CARTESIAN_POINT('',(-5.410428374,-32.360952498,295.8));
#1194=DIRECTION('',(-0.,-0.,1.));
#1195=DIRECTION('',(-1.,0.,0.));
#1196=AXIS2_PLACEMENT_3D('',#1193,#1194,#1195);
#1197=CIRCLE('',#1196,14.5);
#1198=EDGE_CURVE('',#1186,#1169,#1197,.T.);
#1199=ORIENTED_EDGE('',*,*,#1198,.T.);
#1200=EDGE_LOOP('',(#1175,#1184,#1192,#1199));
#1201=FACE_BOUND('',#1200,.T.);
#1202=CARTESIAN_POINT('',(-19.908965618,-32.566908301,274.8));
#1203=VERTEX_POINT('',#1202);
#1204=CARTESIAN_POINT('',(1.66047729,-45.02003197,274.8));
#1205=VERTEX_POINT('',#1204);
#1206=CARTESIAN_POINT('',(-5.410428374,-32.360952498,274.8));
#1207=DIRECTION('',(-0.,-0.,1.));
#1208=DIRECTION('',(-1.,0.,0.));
#1209=AXIS2_PLACEMENT_3D('',#1206,#1207,#1208);
#1210=CIRCLE('',#1209,14.5);
#1211=EDGE_CURVE('',#1203,#1205,#1210,.T.);
#1212=ORIENTED_EDGE('',*,*,#1211,.T.);
#1213=CARTESIAN_POINT('',(1.66047729,-45.02003197,271.7));
#1214=VERTEX_POINT('',#1213);
#1215=CARTESIAN_POINT('',(1.66047729,-45.02003197,271.7));
#1216=DIRECTION('',(0.,0.,1.));
#1217=VECTOR('',#1216,3.1);
#1218=LINE('',#1215,#1217);
#1219=EDGE_CURVE('',#1214,#1205,#1218,.T.);
#1220=ORIENTED_EDGE('',*,*,#1219,.F.);
#1221=CARTESIAN_POINT('',(-19.908965618,-32.566908301,271.7));
#1222=VERTEX_POINT('',#1221);
#1223=CARTESIAN_POINT('',(-5.410428374,-32.360952498,271.7));
#1224=DIRECTION('',(-0.,-0.,1.));
#1225=DIRECTION('',(-1.,0.,0.));
#1226=AXIS2_PLACEMENT_3D('',#1223,#1224,#1225);
#1227=CIRCLE('',#1226,14.5);
#1228=EDGE_CURVE('',#1222,#1214,#1227,.T.);
#1229=ORIENTED_EDGE('',*,*,#1228,.F.);
#1230=CARTESIAN_POINT('',(-19.908965618,-32.566908301,274.8));
#1231=DIRECTION('',(0.,0.,-1.));
#1232=VECTOR('',#1231,3.1);
#1233=LINE('',#1230,#1232);
#1234=EDGE_CURVE('',#1203,#1222,#1233,.T.);
#1235=ORIENTED_EDGE('',*,*,#1234,.F.);
#1236=EDGE_LOOP('',(#1212,#1220,#1229,#1235));
#1237=FACE_BOUND('',#1236,.T.);
#1238=ADVANCED_FACE('',(#1165,#1201,#1237),#1120,.T.);
#1239=CARTESIAN_POINT('',(-5.410428374,-32.360952498,304.));
#1240=DIRECTION('',(0.,0.,1.));
#1241=DIRECTION('',(-0.5,-0.866025404,0.));
#1242=AXIS2_PLACEMENT_3D('',#1239,#1240,#1241);
#1243=PLANE('',#1242);
#1244=ORIENTED_EDGE('',*,*,#1032,.F.);
#1245=ORIENTED_EDGE('',*,*,#1039,.F.);
#1246=EDGE_LOOP('',(#1244,#1245));
#1247=FACE_BOUND('',#1246,.T.);
#1248=ORIENTED_EDGE('',*,*,#1138,.T.);
#1249=ORIENTED_EDGE('',*,*,#1145,.T.);
#1250=EDGE_LOOP('',(#1248,#1249));
#1251=FACE_BOUND('',#1250,.T.);
#1252=ADVANCED_FACE('',(#1247,#1251),#1243,.T.);
#1253=CARTESIAN_POINT('',(-5.410428374,-32.360952498,269.));
#1254=DIRECTION('',(0.,0.,1.));
#1255=DIRECTION('',(-0.5,-0.866025404,0.));
#1256=AXIS2_PLACEMENT_3D('',#1253,#1254,#1255);
#1257=PLANE('',#1256);
#1258=ORIENTED_EDGE('',*,*,#1015,.T.);
#1259=ORIENTED_EDGE('',*,*,#1022,.T.);
#1260=EDGE_LOOP('',(#1258,#1259));
#1261=FACE_BOUND('',#1260,.T.);
#1262=ORIENTED_EDGE('',*,*,#1155,.F.);
#1263=ORIENTED_EDGE('',*,*,#1162,.F.);
#1264=EDGE_LOOP('',(#1262,#1263));
#1265=FACE_BOUND('',#1264,.T.);
#1266=ADVANCED_FACE('',(#1261,#1265),#1257,.F.);
#1267=CARTESIAN_POINT('',(2.871227242,-55.23398347,292.7));
#1268=DIRECTION('',(0.,0.,1.));
#1269=DIRECTION('',(-0.939692621,0.342020143,0.));
#1270=AXIS2_PLACEMENT_3D('',#1267,#1268,#1269);
#1271=PLANE('',#1270);
#1272=CARTESIAN_POINT('',(-14.982932553,-48.735600747,292.7));
#1273=DIRECTION('',(0.,0.,1.));
#1274=DIRECTION('',(1.,0.,-0.));
#1275=AXIS2_PLACEMENT_3D('',#1272,#1273,#1274);
#1276=CIRCLE('',#1275,17.);
#1277=EDGE_CURVE('',#1055,#1177,#1276,.T.);
#1278=ORIENTED_EDGE('',*,*,#1277,.T.);
#1279=ORIENTED_EDGE('',*,*,#1183,.T.);
#1280=CARTESIAN_POINT('',(-14.982932553,-48.735600747,292.7));
#1281=DIRECTION('',(0.,0.,1.));
#1282=DIRECTION('',(1.,0.,-0.));
#1283=AXIS2_PLACEMENT_3D('',#1280,#1281,#1282);
#1284=CIRCLE('',#1283,17.);
#1285=EDGE_CURVE('',#1167,#1063,#1284,.T.);
#1286=ORIENTED_EDGE('',*,*,#1285,.T.);
#1287=ORIENTED_EDGE('',*,*,#1069,.F.);
#1288=EDGE_LOOP('',(#1278,#1279,#1286,#1287));
#1289=FACE_BOUND('',#1288,.T.);
#1290=ADVANCED_FACE('',(#1289),#1271,.T.);
#1291=CARTESIAN_POINT('',(2.871227242,-55.23398347,295.8));
#1292=DIRECTION('',(0.,0.,1.));
#1293=DIRECTION('',(-0.939692621,0.342020143,0.));
#1294=AXIS2_PLACEMENT_3D('',#1291,#1292,#1293);
#1295=PLANE('',#1294);
#1296=ORIENTED_EDGE('',*,*,#1052,.T.);
#1297=CARTESIAN_POINT('',(-14.982932553,-48.735600747,295.8));
#1298=DIRECTION('',(0.,0.,1.));
#1299=DIRECTION('',(1.,0.,-0.));
#1300=AXIS2_PLACEMENT_3D('',#1297,#1298,#1299);
#1301=CIRCLE('',#1300,17.);
#1302=EDGE_CURVE('',#1169,#1046,#1301,.T.);
#1303=ORIENTED_EDGE('',*,*,#1302,.F.);
#1304=ORIENTED_EDGE('',*,*,#1198,.F.);
#1305=CARTESIAN_POINT('',(-14.982932553,-48.735600747,295.8));
#1306=DIRECTION('',(0.,0.,1.));
#1307=DIRECTION('',(1.,0.,-0.));
#1308=AXIS2_PLACEMENT_3D('',#1305,#1306,#1307);
#1309=CIRCLE('',#1308,17.);
#1310=EDGE_CURVE('',#1044,#1186,#1309,.T.);
#1311=ORIENTED_EDGE('',*,*,#1310,.F.);
#1312=EDGE_LOOP('',(#1296,#1303,#1304,#1311));
#1313=FACE_BOUND('',#1312,.T.);
#1314=ADVANCED_FACE('',(#1313),#1295,.F.);
#1315=CARTESIAN_POINT('',(-14.982932553,-48.735600747,295.5));
#1316=DIRECTION('',(0.,0.,-1.));
#1317=DIRECTION('',(0.939692621,-0.342020143,0.));
#1318=AXIS2_PLACEMENT_3D('',#1315,#1316,#1317);
#1319=CYLINDRICAL_SURFACE('',#1318,17.);
#1320=ORIENTED_EDGE('',*,*,#1310,.T.);
#1321=ORIENTED_EDGE('',*,*,#1191,.T.);
#1322=ORIENTED_EDGE('',*,*,#1277,.F.);
#1323=ORIENTED_EDGE('',*,*,#1060,.F.);
#1324=EDGE_LOOP('',(#1320,#1321,#1322,#1323));
#1325=FACE_BOUND('',#1324,.T.);
#1326=ADVANCED_FACE('',(#1325),#1319,.F.);
#1327=CARTESIAN_POINT('',(-14.982932553,-48.735600747,295.5));
#1328=DIRECTION('',(0.,0.,-1.));
#1329=DIRECTION('',(0.939692621,-0.342020143,0.));
#1330=AXIS2_PLACEMENT_3D('',#1327,#1328,#1329);
#1331=CYLINDRICAL_SURFACE('',#1330,17.);
#1332=ORIENTED_EDGE('',*,*,#1285,.F.);
#1333=ORIENTED_EDGE('',*,*,#1174,.T.);
#1334=ORIENTED_EDGE('',*,*,#1302,.T.);
#1335=ORIENTED_EDGE('',*,*,#1075,.F.);
#1336=EDGE_LOOP('',(#1332,#1333,#1334,#1335));
#1337=FACE_BOUND('',#1336,.T.);
#1338=ADVANCED_FACE('',(#1337),#1331,.F.);
#1339=CARTESIAN_POINT('',(-14.910428374,-48.81543517,274.5));
#1340=DIRECTION('',(0.,0.,-1.));
#1341=DIRECTION('',(0.5,0.866025404,0.));
#1342=AXIS2_PLACEMENT_3D('',#1339,#1340,#1341);
#1343=CYLINDRICAL_SURFACE('',#1342,17.);
#1344=ORIENTED_EDGE('',*,*,#1234,.T.);
#1345=CARTESIAN_POINT('',(-14.910428374,-48.81543517,271.7));
#1346=DIRECTION('',(0.,0.,1.));
#1347=DIRECTION('',(1.,0.,-0.));
#1348=AXIS2_PLACEMENT_3D('',#1345,#1346,#1347);
#1349=CIRCLE('',#1348,17.);
#1350=EDGE_CURVE('',#1080,#1222,#1349,.T.);
#1351=ORIENTED_EDGE('',*,*,#1350,.F.);
#1352=ORIENTED_EDGE('',*,*,#1111,.F.);
#1353=CARTESIAN_POINT('',(-14.910428374,-48.81543517,274.8));
#1354=DIRECTION('',(0.,0.,1.));
#1355=DIRECTION('',(1.,0.,-0.));
#1356=AXIS2_PLACEMENT_3D('',#1353,#1354,#1355);
#1357=CIRCLE('',#1356,17.);
#1358=EDGE_CURVE('',#1099,#1203,#1357,.T.);
#1359=ORIENTED_EDGE('',*,*,#1358,.T.);
#1360=EDGE_LOOP('',(#1344,#1351,#1352,#1359));
#1361=FACE_BOUND('',#1360,.T.);
#1362=ADVANCED_FACE('',(#1361),#1343,.F.);
#1363=CARTESIAN_POINT('',(-14.910428374,-48.81543517,274.5));
#1364=DIRECTION('',(0.,0.,-1.));
#1365=DIRECTION('',(0.5,0.866025404,0.));
#1366=AXIS2_PLACEMENT_3D('',#1363,#1364,#1365);
#1367=CYLINDRICAL_SURFACE('',#1366,17.);
#1368=ORIENTED_EDGE('',*,*,#1219,.T.);
#1369=CARTESIAN_POINT('',(-14.910428374,-48.81543517,274.8));
#1370=DIRECTION('',(0.,0.,1.));
#1371=DIRECTION('',(1.,0.,-0.));
#1372=AXIS2_PLACEMENT_3D('',#1369,#1370,#1371);
#1373=CIRCLE('',#1372,17.);
#1374=EDGE_CURVE('',#1205,#1091,#1373,.T.);
#1375=ORIENTED_EDGE('',*,*,#1374,.T.);
#1376=ORIENTED_EDGE('',*,*,#1096,.T.);
#1377=CARTESIAN_POINT('',(-14.910428374,-48.81543517,271.7));
#1378=DIRECTION('',(0.,0.,1.));
#1379=DIRECTION('',(1.,0.,-0.));
#1380=AXIS2_PLACEMENT_3D('',#1377,#1378,#1379);
#1381=CIRCLE('',#1380,17.);
#1382=EDGE_CURVE('',#1214,#1082,#1381,.T.);
#1383=ORIENTED_EDGE('',*,*,#1382,.F.);
#1384=EDGE_LOOP('',(#1368,#1375,#1376,#1383));
#1385=FACE_BOUND('',#1384,.T.);
#1386=ADVANCED_FACE('',(#1385),#1367,.F.);
#1387=CARTESIAN_POINT('',(-5.410428374,-32.360952498,274.8));
#1388=DIRECTION('',(0.,0.,1.));
#1389=DIRECTION('',(-0.5,-0.866025404,0.));
#1390=AXIS2_PLACEMENT_3D('',#1387,#1388,#1389);
#1391=PLANE('',#1390);
#1392=ORIENTED_EDGE('',*,*,#1358,.F.);
#1393=ORIENTED_EDGE('',*,*,#1105,.T.);
#1394=ORIENTED_EDGE('',*,*,#1374,.F.);
#1395=ORIENTED_EDGE('',*,*,#1211,.F.);
#1396=EDGE_LOOP('',(#1392,#1393,#1394,#1395));
#1397=FACE_BOUND('',#1396,.T.);
#1398=ADVANCED_FACE('',(#1397),#1391,.F.);
#1399=CARTESIAN_POINT('',(-5.410428374,-32.360952498,271.7));
#1400=DIRECTION('',(0.,0.,1.));
#1401=DIRECTION('',(-0.5,-0.866025404,0.));
#1402=AXIS2_PLACEMENT_3D('',#1399,#1400,#1401);
#1403=PLANE('',#1402);
#1404=ORIENTED_EDGE('',*,*,#1088,.F.);
#1405=ORIENTED_EDGE('',*,*,#1350,.T.);
#1406=ORIENTED_EDGE('',*,*,#1228,.T.);
#1407=ORIENTED_EDGE('',*,*,#1382,.T.);
#1408=EDGE_LOOP('',(#1404,#1405,#1406,#1407));
#1409=FACE_BOUND('',#1408,.T.);
#1410=ADVANCED_FACE('',(#1409),#1403,.T.);
#1411=CLOSED_SHELL('',(#1115,#1238,#1252,#1266,#1290,#1314,#1326,#1338,#1362,#1386,#1398,#1410));
#1412=MANIFOLD_SOLID_BREP('3.1',#1411);
#1413=COLOUR_RGB('',0.,0.250980407,1.);
#1414=FILL_AREA_STYLE_COLOUR('',#1413);
#1415=FILL_AREA_STYLE('',(#1414));
#1416=SURFACE_STYLE_FILL_AREA(#1415);
#1417=SURFACE_SIDE_STYLE('',(#1416));
#1418=SURFACE_STYLE_USAGE(.BOTH.,#1417);
#1419=PRESENTATION_STYLE_ASSIGNMENT((#1418));
#992=STYLED_ITEM('',(#1419),#1412);
#973=SHAPE_REPRESENTATION('Blue',(#15),#971);
#974=ADVANCED_BREP_SHAPE_REPRESENTATION('Blue',(#1412),#971);
#1427=SHAPE_REPRESENTATION_RELATIONSHIP('','',#973,#974);
#1428=CARTESIAN_POINT('',(0.,0.,0.));
#1429=DIRECTION('',(0.,0.,1.));
#1430=DIRECTION('',(1.,0.,0.));
#1431=AXIS2_PLACEMENT_3D('',#1428,#1429,#1430);
#1433=MAPPED_ITEM('',#1432,#1431);
#1432=REPRESENTATION_MAP(#1431,#973);
#981=PRODUCT('Blue','Blue','',(#526));
#1434=PRODUCT_RELATED_PRODUCT_CATEGORY('part','',(#981));
#1435=PRODUCT_DEFINITION_FORMATION_WITH_SPECIFIED_SOURCE('','',#981,.NOT_KNOWN.);
#982=PRODUCT_DEFINITION('design','',#1435,#527);
#980=PRODUCT_DEFINITION_SHAPE('','',#982);
#1436=SHAPE_DEFINITION_REPRESENTATION(#980,#973);
#972=DRAUGHTING_MODEL('',(#1433),#971);
#35=SHAPE_REPRESENTATION('Ball Mechanismus',(#15,#76,#553,#986),#33);
#1437=CARTESIAN_POINT('',(0.,0.,0.));
#1438=DIRECTION('',(0.,0.,1.));
#1439=DIRECTION('',(1.,0.,0.));
#1440=AXIS2_PLACEMENT_3D('',#1437,#1438,#1439);
#1442=MAPPED_ITEM('',#1441,#1440);
#1441=REPRESENTATION_MAP(#1440,#35);
#43=PRODUCT('Ball Mechanismus','Ball Mechanismus','',(#526));
#1443=PRODUCT_RELATED_PRODUCT_CATEGORY('part','',(#43));
#1444=PRODUCT_DEFINITION_FORMATION_WITH_SPECIFIED_SOURCE('','',#43,.NOT_KNOWN.);
#44=PRODUCT_DEFINITION('design','',#1444,#527);
#42=PRODUCT_DEFINITION_SHAPE('','',#44);
#1445=SHAPE_DEFINITION_REPRESENTATION(#42,#35);
#34=DRAUGHTING_MODEL('',(#1442),#33);
#16=SHAPE_REPRESENTATION('root',(#15,#48),#10);
#1446=CARTESIAN_POINT('',(0.,0.,0.));
#1447=DIRECTION('',(0.,0.,1.));
#1448=DIRECTION('',(1.,0.,0.));
#1449=AXIS2_PLACEMENT_3D('',#1446,#1447,#1448);
#1451=MAPPED_ITEM('',#1450,#1449);
#1450=REPRESENTATION_MAP(#1449,#16);
#24=PRODUCT('root','root','',(#526));
#1452=PRODUCT_RELATED_PRODUCT_CATEGORY('part','',(#24));
#1453=PRODUCT_DEFINITION_FORMATION_WITH_SPECIFIED_SOURCE('','',#24,.NOT_KNOWN.);
#25=PRODUCT_DEFINITION('design','',#1453,#527);
#23=PRODUCT_DEFINITION_SHAPE('','',#25);
#1454=SHAPE_DEFINITION_REPRESENTATION(#23,#16);
#11=DRAUGHTING_MODEL('',(#1451),#10);
#1455=DESCRIPTIVE_REPRESENTATION_ITEM('KEY','C:\\Users\\Ruben\\AppData\\Local\\Packages\\Shapr3D.Shapr3D_dvv5p1vgwv6mp\\TempState\\64f2a459-81bf-49f5-85ee-67a231f48c2f.tmp');
#1456=PROPERTY_DEFINITION('KEY','',#25);
#1457=REPRESENTATION('',(#1455),#10);
#1458=PROPERTY_DEFINITION_REPRESENTATION(#1456,#1457);
#1459=GENERAL_PROPERTY('','KEY','');
#1460=GENERAL_PROPERTY_ASSOCIATION('','',#1459,#1456);
#1=MECHANICAL_DESIGN_GEOMETRIC_PRESENTATION_REPRESENTATION('',(#82,#559,#992),#10);
ENDSEC;
END-ISO-10303-21;
