ISO-10303-21;
HEADER;

/* File generated by Shapr3D Version 26.21.10452.0 */

FILE_DESCRIPTION(('HOOPS Exchange Step'),'2;1');

FILE_NAME('C:\\Users\\acer\\AppData\\Local\\Packages\\Shapr3D.Shapr3D_dvv5p1vgwv6mp\\TempState\\export\\temp_export',
'2026-03-02T20:51:30+01:00',
('acer'),
('Shapr3D Limited'),
'HOOPS Exchange 2025.9',
'Shapr3D',
'Authorized');

FILE_SCHEMA( ('AP242_MANAGED_MODEL_BASED_3D_ENGINEERING_MIM_LF {1 0 10303 442 1 1 4}') );

ENDSEC;

DATA;
#3=(NAMED_UNIT(*)PLANE_ANGLE_UNIT()SI_UNIT($,.RADIAN.));
#4=PLANE_ANGLE_MEASURE_WITH_UNIT(PLANE_ANGLE_MEASURE(0.0174532925),#3);
#5=(CONVERSION_BASED_UNIT('DEGREE',#4)NAMED_UNIT(#6)PLANE_ANGLE_UNIT());
#6=DIMENSIONAL_EXPONENTS(0.,0.,0.,0.,0.,0.,0.);
#7=(NAMED_UNIT(*)SI_UNIT($,.STERADIAN.)SOLID_ANGLE_UNIT());
#8=(LENGTH_UNIT()NAMED_UNIT(*)SI_UNIT(.MILLI.,.METRE.));
#9=UNCERTAINTY_MEASURE_WITH_UNIT(LENGTH_MEASURE(1.000000E-03),#8,'DISTANCE_ACCURACY_VALUE','Maximum Tolerance applied to model');
#10=(GEOMETRIC_REPRESENTATION_CONTEXT(3)GLOBAL_UNCERTAINTY_ASSIGNED_CONTEXT((#9))GLOBAL_UNIT_ASSIGNED_CONTEXT((#8,#5,#7))REPRESENTATION_CONTEXT('','root'));
#12=CARTESIAN_POINT('',(0.,0.,0.));
#13=DIRECTION('',(0.,0.,1.));
#14=DIRECTION('',(1.,0.,0.));
#15=AXIS2_PLACEMENT_3D('',#12,#13,#14);
#26=(NAMED_UNIT(*)PLANE_ANGLE_UNIT()SI_UNIT($,.RADIAN.));
#27=PLANE_ANGLE_MEASURE_WITH_UNIT(PLANE_ANGLE_MEASURE(0.0174532925),#26);
#28=(CONVERSION_BASED_UNIT('DEGREE',#27)NAMED_UNIT(#29)PLANE_ANGLE_UNIT());
#29=DIMENSIONAL_EXPONENTS(0.,0.,0.,0.,0.,0.,0.);
#30=(NAMED_UNIT(*)SI_UNIT($,.STERADIAN.)SOLID_ANGLE_UNIT());
#31=(LENGTH_UNIT()NAMED_UNIT(*)SI_UNIT(.MILLI.,.METRE.));
#32=UNCERTAINTY_MEASURE_WITH_UNIT(LENGTH_MEASURE(1.000000E-05),#31,'DISTANCE_ACCURACY_VALUE','Maximum Tolerance applied to model');
#33=(GEOMETRIC_REPRESENTATION_CONTEXT(3)GLOBAL_UNCERTAINTY_ASSIGNED_CONTEXT((#32))GLOBAL_UNIT_ASSIGNED_CONTEXT((#31,#28,#30))REPRESENTATION_CONTEXT('','Vorschlag 1'));
#45=CARTESIAN_POINT('',(0.,0.,0.));
#46=DIRECTION('',(0.,0.,1.));
#47=DIRECTION('',(1.,0.,-0.));
#48=AXIS2_PLACEMENT_3D('',#45,#46,#47);
#49=ITEM_DEFINED_TRANSFORMATION('','',#48,#15);
#50=(REPRESENTATION_RELATIONSHIP('','',#35,#16)REPRESENTATION_RELATIONSHIP_WITH_TRANSFORMATION(#49)SHAPE_REPRESENTATION_RELATIONSHIP());
#51=NEXT_ASSEMBLY_USAGE_OCCURRENCE('Vorschlag 1_1','Vorschlag 1','Vorschlag 1',#25,#44,$);
#52=PRODUCT_DEFINITION_SHAPE('','',#51);
#53=CONTEXT_DEPENDENT_SHAPE_REPRESENTATION(#50,#52);
#55=CARTESIAN_POINT('',(424.610496589,-74.604841436,302.5));
#56=DIRECTION('',(0.,0.,-1.));
#57=DIRECTION('',(0.5,0.866025404,0.));
#58=AXIS2_PLACEMENT_3D('',#55,#56,#57);
#59=CYLINDRICAL_SURFACE('',#58,11.5);
#60=CARTESIAN_POINT('',(414.028905928,-79.108166773,300.));
#61=VERTEX_POINT('',#60);
#62=CARTESIAN_POINT('',(426.001297776,-86.020430429,300.));
#63=VERTEX_POINT('',#62);
#64=CARTESIAN_POINT('',(424.610496589,-74.604841436,300.));
#65=DIRECTION('',(0.,0.,1.));
#66=DIRECTION('',(-0.5,-0.866025404,0.));
#67=AXIS2_PLACEMENT_3D('',#64,#65,#66);
#68=CIRCLE('',#67,11.5);
#69=EDGE_CURVE('',#61,#63,#68,.T.);
#70=ORIENTED_EDGE('',*,*,#69,.F.);
#71=CARTESIAN_POINT('',(414.028905928,-79.108166773,302.5));
#72=VERTEX_POINT('',#71);
#73=CARTESIAN_POINT('',(414.028905928,-79.108166773,302.5));
#74=DIRECTION('',(0.,0.,-1.));
#75=VECTOR('',#74,2.5);
#76=LINE('',#73,#75);
#77=EDGE_CURVE('',#72,#61,#76,.T.);
#78=ORIENTED_EDGE('',*,*,#77,.F.);
#79=CARTESIAN_POINT('',(426.001297776,-86.020430429,302.5));
#80=VERTEX_POINT('',#79);
#81=CARTESIAN_POINT('',(424.610496589,-74.604841436,302.5));
#82=DIRECTION('',(0.,0.,1.));
#83=DIRECTION('',(-0.5,-0.866025404,0.));
#84=AXIS2_PLACEMENT_3D('',#81,#82,#83);
#85=CIRCLE('',#84,11.5);
#86=EDGE_CURVE('',#72,#80,#85,.T.);
#87=ORIENTED_EDGE('',*,*,#86,.T.);
#88=CARTESIAN_POINT('',(426.001297776,-86.020430429,302.5));
#89=DIRECTION('',(0.,0.,-1.));
#90=VECTOR('',#89,2.5);
#91=LINE('',#88,#90);
#92=EDGE_CURVE('',#80,#63,#91,.T.);
#93=ORIENTED_EDGE('',*,*,#92,.T.);
#94=EDGE_LOOP('',(#70,#78,#87,#93));
#95=FACE_BOUND('',#94,.T.);
#96=ADVANCED_FACE('',(#95),#59,.F.);
#97=CARTESIAN_POINT('',(415.110496589,-91.059324108,302.5));
#98=DIRECTION('',(0.,0.,-1.));
#99=DIRECTION('',(0.5,0.866025404,0.));
#100=AXIS2_PLACEMENT_3D('',#97,#98,#99);
#101=CYLINDRICAL_SURFACE('',#100,12.);
#102=CARTESIAN_POINT('',(415.110496589,-91.059324108,300.));
#103=DIRECTION('',(0.,0.,1.));
#104=DIRECTION('',(-0.5,-0.866025404,0.));
#105=AXIS2_PLACEMENT_3D('',#102,#103,#104);
#106=CIRCLE('',#105,12.);
#107=EDGE_CURVE('',#61,#63,#106,.T.);
#108=ORIENTED_EDGE('',*,*,#107,.T.);
#109=ORIENTED_EDGE('',*,*,#92,.F.);
#110=CARTESIAN_POINT('',(415.110496589,-91.059324108,302.5));
#111=DIRECTION('',(0.,0.,1.));
#112=DIRECTION('',(-0.5,-0.866025404,0.));
#113=AXIS2_PLACEMENT_3D('',#110,#111,#112);
#114=CIRCLE('',#113,12.);
#115=EDGE_CURVE('',#72,#80,#114,.T.);
#116=ORIENTED_EDGE('',*,*,#115,.F.);
#117=ORIENTED_EDGE('',*,*,#77,.T.);
#118=EDGE_LOOP('',(#108,#109,#116,#117));
#119=FACE_BOUND('',#118,.T.);
#120=ADVANCED_FACE('',(#119),#101,.T.);
#121=CARTESIAN_POINT('',(424.610496589,-74.604841436,302.5));
#122=DIRECTION('',(0.,0.,1.));
#123=DIRECTION('',(-0.5,-0.866025404,0.));
#124=AXIS2_PLACEMENT_3D('',#121,#122,#123);
#125=PLANE('',#124);
#126=CARTESIAN_POINT('',(413.110496589,-94.523425723,302.5));
#127=VERTEX_POINT('',#126);
#128=CARTESIAN_POINT('',(417.110496589,-87.595222493,302.5));
#129=VERTEX_POINT('',#128);
#130=CARTESIAN_POINT('',(415.110496589,-91.059324108,302.5));
#131=DIRECTION('',(-0.,-0.,-1.));
#132=DIRECTION('',(-0.5,-0.866025404,0.));
#133=AXIS2_PLACEMENT_3D('',#130,#131,#132);
#134=CIRCLE('',#133,4.);
#135=EDGE_CURVE('',#127,#129,#134,.T.);
#136=ORIENTED_EDGE('',*,*,#135,.T.);
#137=CARTESIAN_POINT('',(415.110496589,-91.059324108,302.5));
#138=DIRECTION('',(-0.,-0.,-1.));
#139=DIRECTION('',(-0.5,-0.866025404,0.));
#140=AXIS2_PLACEMENT_3D('',#137,#138,#139);
#141=CIRCLE('',#140,4.);
#142=EDGE_CURVE('',#129,#127,#141,.T.);
#143=ORIENTED_EDGE('',*,*,#142,.T.);
#144=EDGE_LOOP('',(#136,#143));
#145=FACE_BOUND('',#144,.T.);
#146=ORIENTED_EDGE('',*,*,#86,.F.);
#147=ORIENTED_EDGE('',*,*,#115,.T.);
#148=EDGE_LOOP('',(#146,#147));
#149=FACE_BOUND('',#148,.T.);
#150=ADVANCED_FACE('',(#145,#149),#125,.T.);
#151=CARTESIAN_POINT('',(424.610496589,-74.604841436,300.));
#152=DIRECTION('',(0.,0.,1.));
#153=DIRECTION('',(-0.5,-0.866025404,0.));
#154=AXIS2_PLACEMENT_3D('',#151,#152,#153);
#155=PLANE('',#154);
#156=ORIENTED_EDGE('',*,*,#69,.T.);
#157=ORIENTED_EDGE('',*,*,#107,.F.);
#158=EDGE_LOOP('',(#156,#157));
#159=FACE_BOUND('',#158,.T.);
#160=ADVANCED_FACE('',(#159),#155,.F.);
#161=CARTESIAN_POINT('',(432.892152205,-97.477872408,323.5));
#162=DIRECTION('',(0.,0.,-1.));
#163=DIRECTION('',(0.939692621,-0.342020143,0.));
#164=AXIS2_PLACEMENT_3D('',#161,#162,#163);
#165=CYLINDRICAL_SURFACE('',#164,11.5);
#166=CARTESIAN_POINT('',(426.619768563,-87.839034125,321.));
#167=VERTEX_POINT('',#166);
#168=CARTESIAN_POINT('',(421.891501751,-100.829840426,321.));
#169=VERTEX_POINT('',#168);
#170=CARTESIAN_POINT('',(432.892152205,-97.477872408,321.));
#171=DIRECTION('',(0.,0.,1.));
#172=DIRECTION('',(-0.939692621,0.342020143,0.));
#173=AXIS2_PLACEMENT_3D('',#170,#171,#172);
#174=CIRCLE('',#173,11.5);
#175=EDGE_CURVE('',#167,#169,#174,.T.);
#176=ORIENTED_EDGE('',*,*,#175,.F.);
#177=CARTESIAN_POINT('',(426.619768563,-87.839034125,323.5));
#178=VERTEX_POINT('',#177);
#179=CARTESIAN_POINT('',(426.619768563,-87.839034125,323.5));
#180=DIRECTION('',(0.,0.,-1.));
#181=VECTOR('',#180,2.5);
#182=LINE('',#179,#181);
#183=EDGE_CURVE('',#178,#167,#182,.T.);
#184=ORIENTED_EDGE('',*,*,#183,.F.);
#185=CARTESIAN_POINT('',(421.891501751,-100.829840426,323.5));
#186=VERTEX_POINT('',#185);
#187=CARTESIAN_POINT('',(432.892152205,-97.477872408,323.5));
#188=DIRECTION('',(0.,0.,1.));
#189=DIRECTION('',(-0.939692621,0.342020143,0.));
#190=AXIS2_PLACEMENT_3D('',#187,#188,#189);
#191=CIRCLE('',#190,11.5);
#192=EDGE_CURVE('',#178,#186,#191,.T.);
#193=ORIENTED_EDGE('',*,*,#192,.T.);
#194=CARTESIAN_POINT('',(421.891501751,-100.829840426,323.5));
#195=DIRECTION('',(0.,0.,-1.));
#196=VECTOR('',#195,2.5);
#197=LINE('',#194,#196);
#198=EDGE_CURVE('',#186,#169,#197,.T.);
#199=ORIENTED_EDGE('',*,*,#198,.T.);
#200=EDGE_LOOP('',(#176,#184,#193,#199));
#201=FACE_BOUND('',#200,.T.);
#202=ADVANCED_FACE('',(#201),#165,.F.);
#203=CARTESIAN_POINT('',(415.03799241,-90.979489685,323.5));
#204=DIRECTION('',(0.,0.,-1.));
#205=DIRECTION('',(0.939692621,-0.342020143,0.));
#206=AXIS2_PLACEMENT_3D('',#203,#204,#205);
#207=CYLINDRICAL_SURFACE('',#206,12.);
#208=CARTESIAN_POINT('',(415.03799241,-90.979489685,321.));
#209=DIRECTION('',(0.,0.,1.));
#210=DIRECTION('',(-0.939692621,0.342020143,0.));
#211=AXIS2_PLACEMENT_3D('',#208,#209,#210);
#212=CIRCLE('',#211,12.);
#213=EDGE_CURVE('',#167,#169,#212,.T.);
#214=ORIENTED_EDGE('',*,*,#213,.T.);
#215=ORIENTED_EDGE('',*,*,#198,.F.);
#216=CARTESIAN_POINT('',(415.03799241,-90.979489685,323.5));
#217=DIRECTION('',(0.,0.,1.));
#218=DIRECTION('',(-0.939692621,0.342020143,0.));
#219=AXIS2_PLACEMENT_3D('',#216,#217,#218);
#220=CIRCLE('',#219,12.);
#221=EDGE_CURVE('',#178,#186,#220,.T.);
#222=ORIENTED_EDGE('',*,*,#221,.F.);
#223=ORIENTED_EDGE('',*,*,#183,.T.);
#224=EDGE_LOOP('',(#214,#215,#222,#223));
#225=FACE_BOUND('',#224,.T.);
#226=ADVANCED_FACE('',(#225),#207,.T.);
#227=CARTESIAN_POINT('',(432.892152205,-97.477872408,323.5));
#228=DIRECTION('',(0.,0.,1.));
#229=DIRECTION('',(-0.939692621,0.342020143,0.));
#230=AXIS2_PLACEMENT_3D('',#227,#228,#229);
#231=PLANE('',#230);
#232=ORIENTED_EDGE('',*,*,#192,.F.);
#233=ORIENTED_EDGE('',*,*,#221,.T.);
#234=EDGE_LOOP('',(#232,#233));
#235=FACE_BOUND('',#234,.T.);
#236=ADVANCED_FACE('',(#235),#231,.T.);
#237=CARTESIAN_POINT('',(432.892152205,-97.477872408,321.));
#238=DIRECTION('',(0.,0.,1.));
#239=DIRECTION('',(-0.939692621,0.342020143,0.));
#240=AXIS2_PLACEMENT_3D('',#237,#238,#239);
#241=PLANE('',#240);
#242=CARTESIAN_POINT('',(417.110496589,-87.595222493,321.));
#243=VERTEX_POINT('',#242);
#244=CARTESIAN_POINT('',(413.110496589,-94.523425723,321.));
#245=VERTEX_POINT('',#244);
#246=CARTESIAN_POINT('',(415.110496589,-91.059324108,321.));
#247=DIRECTION('',(-0.,-0.,-1.));
#248=DIRECTION('',(-0.5,-0.866025404,0.));
#249=AXIS2_PLACEMENT_3D('',#246,#247,#248);
#250=CIRCLE('',#249,4.);
#251=EDGE_CURVE('',#243,#245,#250,.T.);
#252=ORIENTED_EDGE('',*,*,#251,.F.);
#253=CARTESIAN_POINT('',(415.110496589,-91.059324108,321.));
#254=DIRECTION('',(-0.,-0.,-1.));
#255=DIRECTION('',(-0.5,-0.866025404,0.));
#256=AXIS2_PLACEMENT_3D('',#253,#254,#255);
#257=CIRCLE('',#256,4.);
#258=EDGE_CURVE('',#245,#243,#257,.T.);
#259=ORIENTED_EDGE('',*,*,#258,.F.);
#260=EDGE_LOOP('',(#252,#259));
#261=FACE_BOUND('',#260,.T.);
#262=ORIENTED_EDGE('',*,*,#175,.T.);
#263=ORIENTED_EDGE('',*,*,#213,.F.);
#264=EDGE_LOOP('',(#262,#263));
#265=FACE_BOUND('',#264,.T.);
#266=ADVANCED_FACE('',(#261,#265),#241,.F.);
#267=CARTESIAN_POINT('',(415.110496589,-91.059324108,322.));
#268=DIRECTION('',(0.,0.,-1.));
#269=DIRECTION('',(0.5,0.866025404,0.));
#270=AXIS2_PLACEMENT_3D('',#267,#268,#269);
#271=CYLINDRICAL_SURFACE('',#270,4.);
#272=CARTESIAN_POINT('',(417.110496589,-87.595222493,302.5));
#273=DIRECTION('',(-0.,-0.,1.));
#274=VECTOR('',#273,18.5);
#275=LINE('',#272,#274);
#276=EDGE_CURVE('',#129,#243,#275,.T.);
#277=ORIENTED_EDGE('',*,*,#276,.T.);
#278=ORIENTED_EDGE('',*,*,#251,.T.);
#279=ORIENTED_EDGE('',*,*,#258,.T.);
#280=ORIENTED_EDGE('',*,*,#276,.F.);
#281=ORIENTED_EDGE('',*,*,#135,.F.);
#282=ORIENTED_EDGE('',*,*,#142,.F.);
#283=EDGE_LOOP('',(#277,#278,#279,#280,#281,#282));
#284=FACE_BOUND('',#283,.T.);
#285=ADVANCED_FACE('',(#284),#271,.T.);
#286=CLOSED_SHELL('',(#96,#120,#150,#160,#202,#226,#236,#266,#285));
#287=MANIFOLD_SOLID_BREP('K\S\vrper 02 (3)',#286);
#288=COLOUR_RGB('',0.627451003,0.627451003,0.643137276);
#289=FILL_AREA_STYLE_COLOUR('',#288);
#290=FILL_AREA_STYLE('',(#289));
#291=SURFACE_STYLE_FILL_AREA(#290);
#292=SURFACE_SIDE_STYLE('',(#291));
#293=SURFACE_STYLE_USAGE(.BOTH.,#292);
#294=PRESENTATION_STYLE_ASSIGNMENT((#293));
#54=STYLED_ITEM('',(#294),#287);
#296=CARTESIAN_POINT('',(424.610496589,-43.4279269,302.5));
#297=DIRECTION('',(0.,0.,-1.));
#298=DIRECTION('',(0.5,-0.866025404,0.));
#299=AXIS2_PLACEMENT_3D('',#296,#297,#298);
#300=CYLINDRICAL_SURFACE('',#299,11.5);
#301=CARTESIAN_POINT('',(426.001297776,-32.012337907,300.));
#302=VERTEX_POINT('',#301);
#303=CARTESIAN_POINT('',(414.028905928,-38.924601563,300.));
#304=VERTEX_POINT('',#303);
#305=CARTESIAN_POINT('',(424.610496589,-43.4279269,300.));
#306=DIRECTION('',(0.,0.,1.));
#307=DIRECTION('',(-0.5,0.866025404,0.));
#308=AXIS2_PLACEMENT_3D('',#305,#306,#307);
#309=CIRCLE('',#308,11.5);
#310=EDGE_CURVE('',#302,#304,#309,.T.);
#311=ORIENTED_EDGE('',*,*,#310,.F.);
#312=CARTESIAN_POINT('',(426.001297776,-32.012337907,302.5));
#313=VERTEX_POINT('',#312);
#314=CARTESIAN_POINT('',(426.001297776,-32.012337907,302.5));
#315=DIRECTION('',(0.,0.,-1.));
#316=VECTOR('',#315,2.5);
#317=LINE('',#314,#316);
#318=EDGE_CURVE('',#313,#302,#317,.T.);
#319=ORIENTED_EDGE('',*,*,#318,.F.);
#320=CARTESIAN_POINT('',(414.028905928,-38.924601563,302.5));
#321=VERTEX_POINT('',#320);
#322=CARTESIAN_POINT('',(424.610496589,-43.4279269,302.5));
#323=DIRECTION('',(0.,0.,1.));
#324=DIRECTION('',(-0.5,0.866025404,0.));
#325=AXIS2_PLACEMENT_3D('',#322,#323,#324);
#326=CIRCLE('',#325,11.5);
#327=EDGE_CURVE('',#313,#321,#326,.T.);
#328=ORIENTED_EDGE('',*,*,#327,.T.);
#329=CARTESIAN_POINT('',(414.028905928,-38.924601563,302.5));
#330=DIRECTION('',(0.,0.,-1.));
#331=VECTOR('',#330,2.5);
#332=LINE('',#329,#331);
#333=EDGE_CURVE('',#321,#304,#332,.T.);
#334=ORIENTED_EDGE('',*,*,#333,.T.);
#335=EDGE_LOOP('',(#311,#319,#328,#334));
#336=FACE_BOUND('',#335,.T.);
#337=ADVANCED_FACE('',(#336),#300,.F.);
#338=CARTESIAN_POINT('',(415.110496589,-26.973444228,302.5));
#339=DIRECTION('',(0.,0.,-1.));
#340=DIRECTION('',(0.5,-0.866025404,0.));
#341=AXIS2_PLACEMENT_3D('',#338,#339,#340);
#342=CYLINDRICAL_SURFACE('',#341,12.);
#343=CARTESIAN_POINT('',(415.110496589,-26.973444228,300.));
#344=DIRECTION('',(0.,0.,1.));
#345=DIRECTION('',(-0.5,0.866025404,0.));
#346=AXIS2_PLACEMENT_3D('',#343,#344,#345);
#347=CIRCLE('',#346,12.);
#348=EDGE_CURVE('',#302,#304,#347,.T.);
#349=ORIENTED_EDGE('',*,*,#348,.T.);
#350=ORIENTED_EDGE('',*,*,#333,.F.);
#351=CARTESIAN_POINT('',(415.110496589,-26.973444228,302.5));
#352=DIRECTION('',(0.,0.,1.));
#353=DIRECTION('',(-0.5,0.866025404,0.));
#354=AXIS2_PLACEMENT_3D('',#351,#352,#353);
#355=CIRCLE('',#354,12.);
#356=EDGE_CURVE('',#313,#321,#355,.T.);
#357=ORIENTED_EDGE('',*,*,#356,.F.);
#358=ORIENTED_EDGE('',*,*,#318,.T.);
#359=EDGE_LOOP('',(#349,#350,#357,#358));
#360=FACE_BOUND('',#359,.T.);
#361=ADVANCED_FACE('',(#360),#342,.T.);
#362=CARTESIAN_POINT('',(424.610496589,-43.4279269,302.5));
#363=DIRECTION('',(0.,0.,1.));
#364=DIRECTION('',(-0.5,0.866025404,0.));
#365=AXIS2_PLACEMENT_3D('',#362,#363,#364);
#366=PLANE('',#365);
#367=CARTESIAN_POINT('',(413.110496589,-23.509342613,302.5));
#368=VERTEX_POINT('',#367);
#369=CARTESIAN_POINT('',(417.110496589,-30.437545843,302.5));
#370=VERTEX_POINT('',#369);
#371=CARTESIAN_POINT('',(415.110496589,-26.973444228,302.5));
#372=DIRECTION('',(-0.,-0.,-1.));
#373=DIRECTION('',(-0.5,0.866025404,0.));
#374=AXIS2_PLACEMENT_3D('',#371,#372,#373);
#375=CIRCLE('',#374,4.);
#376=EDGE_CURVE('',#368,#370,#375,.T.);
#377=ORIENTED_EDGE('',*,*,#376,.T.);
#378=CARTESIAN_POINT('',(415.110496589,-26.973444228,302.5));
#379=DIRECTION('',(-0.,-0.,-1.));
#380=DIRECTION('',(-0.5,0.866025404,0.));
#381=AXIS2_PLACEMENT_3D('',#378,#379,#380);
#382=CIRCLE('',#381,4.);
#383=EDGE_CURVE('',#370,#368,#382,.T.);
#384=ORIENTED_EDGE('',*,*,#383,.T.);
#385=EDGE_LOOP('',(#377,#384));
#386=FACE_BOUND('',#385,.T.);
#387=ORIENTED_EDGE('',*,*,#327,.F.);
#388=ORIENTED_EDGE('',*,*,#356,.T.);
#389=EDGE_LOOP('',(#387,#388));
#390=FACE_BOUND('',#389,.T.);
#391=ADVANCED_FACE('',(#386,#390),#366,.T.);
#392=CARTESIAN_POINT('',(424.610496589,-43.4279269,300.));
#393=DIRECTION('',(0.,0.,1.));
#394=DIRECTION('',(-0.5,0.866025404,0.));
#395=AXIS2_PLACEMENT_3D('',#392,#393,#394);
#396=PLANE('',#395);
#397=ORIENTED_EDGE('',*,*,#310,.T.);
#398=ORIENTED_EDGE('',*,*,#348,.F.);
#399=EDGE_LOOP('',(#397,#398));
#400=FACE_BOUND('',#399,.T.);
#401=ADVANCED_FACE('',(#400),#396,.F.);
#402=CARTESIAN_POINT('',(400.661042897,-39.163535562,323.5));
#403=DIRECTION('',(-0.,0.,-1.));
#404=DIRECTION('',(-0.766044443,-0.64278761,0.));
#405=AXIS2_PLACEMENT_3D('',#402,#403,#404);
#406=CYLINDRICAL_SURFACE('',#405,11.5);
#407=CARTESIAN_POINT('',(412.144713535,-38.550911129,321.));
#408=VERTEX_POINT('',#407);
#409=CARTESIAN_POINT('',(403.258478669,-27.960708802,321.));
#410=VERTEX_POINT('',#409);
#411=CARTESIAN_POINT('',(400.661042897,-39.163535562,321.));
#412=DIRECTION('',(0.,-0.,1.));
#413=DIRECTION('',(0.766044443,0.64278761,0.));
#414=AXIS2_PLACEMENT_3D('',#411,#412,#413);
#415=CIRCLE('',#414,11.5);
#416=EDGE_CURVE('',#408,#410,#415,.T.);
#417=ORIENTED_EDGE('',*,*,#416,.F.);
#418=CARTESIAN_POINT('',(412.144713535,-38.550911129,323.5));
#419=VERTEX_POINT('',#418);
#420=CARTESIAN_POINT('',(412.144713535,-38.550911129,323.5));
#421=DIRECTION('',(0.,0.,-1.));
#422=VECTOR('',#421,2.5);
#423=LINE('',#420,#422);
#424=EDGE_CURVE('',#419,#408,#423,.T.);
#425=ORIENTED_EDGE('',*,*,#424,.F.);
#426=CARTESIAN_POINT('',(403.258478669,-27.960708802,323.5));
#427=VERTEX_POINT('',#426);
#428=CARTESIAN_POINT('',(400.661042897,-39.163535562,323.5));
#429=DIRECTION('',(0.,-0.,1.));
#430=DIRECTION('',(0.766044443,0.64278761,0.));
#431=AXIS2_PLACEMENT_3D('',#428,#429,#430);
#432=CIRCLE('',#431,11.5);
#433=EDGE_CURVE('',#419,#427,#432,.T.);
#434=ORIENTED_EDGE('',*,*,#433,.T.);
#435=CARTESIAN_POINT('',(403.258478669,-27.960708802,323.5));
#436=DIRECTION('',(0.,0.,-1.));
#437=VECTOR('',#436,2.5);
#438=LINE('',#435,#437);
#439=EDGE_CURVE('',#427,#410,#438,.T.);
#440=ORIENTED_EDGE('',*,*,#439,.T.);
#441=EDGE_LOOP('',(#417,#425,#434,#440));
#442=FACE_BOUND('',#441,.T.);
#443=ADVANCED_FACE('',(#442),#406,.F.);
#444=CARTESIAN_POINT('',(415.215887317,-26.950570978,323.5));
#445=DIRECTION('',(-0.,0.,-1.));
#446=DIRECTION('',(-0.766044443,-0.64278761,0.));
#447=AXIS2_PLACEMENT_3D('',#444,#445,#446);
#448=CYLINDRICAL_SURFACE('',#447,12.);
#449=CARTESIAN_POINT('',(415.215887317,-26.950570978,321.));
#450=DIRECTION('',(0.,-0.,1.));
#451=DIRECTION('',(0.766044443,0.64278761,0.));
#452=AXIS2_PLACEMENT_3D('',#449,#450,#451);
#453=CIRCLE('',#452,12.);
#454=EDGE_CURVE('',#408,#410,#453,.T.);
#455=ORIENTED_EDGE('',*,*,#454,.T.);
#456=ORIENTED_EDGE('',*,*,#439,.F.);
#457=CARTESIAN_POINT('',(415.215887317,-26.950570978,323.5));
#458=DIRECTION('',(0.,-0.,1.));
#459=DIRECTION('',(0.766044443,0.64278761,0.));
#460=AXIS2_PLACEMENT_3D('',#457,#458,#459);
#461=CIRCLE('',#460,12.);
#462=EDGE_CURVE('',#419,#427,#461,.T.);
#463=ORIENTED_EDGE('',*,*,#462,.F.);
#464=ORIENTED_EDGE('',*,*,#424,.T.);
#465=EDGE_LOOP('',(#455,#456,#463,#464));
#466=FACE_BOUND('',#465,.T.);
#467=ADVANCED_FACE('',(#466),#448,.T.);
#468=CARTESIAN_POINT('',(400.661042897,-39.163535562,323.5));
#469=DIRECTION('',(0.,0.,1.));
#470=DIRECTION('',(0.766044443,0.64278761,0.));
#471=AXIS2_PLACEMENT_3D('',#468,#469,#470);
#472=PLANE('',#471);
#473=ORIENTED_EDGE('',*,*,#433,.F.);
#474=ORIENTED_EDGE('',*,*,#462,.T.);
#475=EDGE_LOOP('',(#473,#474));
#476=FACE_BOUND('',#475,.T.);
#477=ADVANCED_FACE('',(#476),#472,.T.);
#478=CARTESIAN_POINT('',(400.661042897,-39.163535562,321.));
#479=DIRECTION('',(0.,0.,1.));
#480=DIRECTION('',(0.766044443,0.64278761,0.));
#481=AXIS2_PLACEMENT_3D('',#478,#479,#480);
#482=PLANE('',#481);
#483=CARTESIAN_POINT('',(417.110496589,-30.437545843,321.));
#484=VERTEX_POINT('',#483);
#485=CARTESIAN_POINT('',(413.110496589,-23.509342613,321.));
#486=VERTEX_POINT('',#485);
#487=CARTESIAN_POINT('',(415.110496589,-26.973444228,321.));
#488=DIRECTION('',(-0.,-0.,-1.));
#489=DIRECTION('',(-0.5,0.866025404,0.));
#490=AXIS2_PLACEMENT_3D('',#487,#488,#489);
#491=CIRCLE('',#490,4.);
#492=EDGE_CURVE('',#484,#486,#491,.T.);
#493=ORIENTED_EDGE('',*,*,#492,.F.);
#494=CARTESIAN_POINT('',(415.110496589,-26.973444228,321.));
#495=DIRECTION('',(-0.,-0.,-1.));
#496=DIRECTION('',(-0.5,0.866025404,0.));
#497=AXIS2_PLACEMENT_3D('',#494,#495,#496);
#498=CIRCLE('',#497,4.);
#499=EDGE_CURVE('',#486,#484,#498,.T.);
#500=ORIENTED_EDGE('',*,*,#499,.F.);
#501=EDGE_LOOP('',(#493,#500));
#502=FACE_BOUND('',#501,.T.);
#503=ORIENTED_EDGE('',*,*,#416,.T.);
#504=ORIENTED_EDGE('',*,*,#454,.F.);
#505=EDGE_LOOP('',(#503,#504));
#506=FACE_BOUND('',#505,.T.);
#507=ADVANCED_FACE('',(#502,#506),#482,.F.);
#508=CARTESIAN_POINT('',(415.110496589,-26.973444228,322.));
#509=DIRECTION('',(0.,0.,-1.));
#510=DIRECTION('',(0.5,-0.866025404,0.));
#511=AXIS2_PLACEMENT_3D('',#508,#509,#510);
#512=CYLINDRICAL_SURFACE('',#511,4.);
#513=CARTESIAN_POINT('',(417.110496589,-30.437545843,302.5));
#514=DIRECTION('',(-0.,-0.,1.));
#515=VECTOR('',#514,18.5);
#516=LINE('',#513,#515);
#517=EDGE_CURVE('',#370,#484,#516,.T.);
#518=ORIENTED_EDGE('',*,*,#517,.T.);
#519=ORIENTED_EDGE('',*,*,#492,.T.);
#520=ORIENTED_EDGE('',*,*,#499,.T.);
#521=ORIENTED_EDGE('',*,*,#517,.F.);
#522=ORIENTED_EDGE('',*,*,#376,.F.);
#523=ORIENTED_EDGE('',*,*,#383,.F.);
#524=EDGE_LOOP('',(#518,#519,#520,#521,#522,#523));
#525=FACE_BOUND('',#524,.T.);
#526=ADVANCED_FACE('',(#525),#512,.T.);
#527=CLOSED_SHELL('',(#337,#361,#391,#401,#443,#467,#477,#507,#526));
#528=MANIFOLD_SOLID_BREP('K\S\vrper 02 (2)',#527);
#295=STYLED_ITEM('',(#294),#528);
#530=CARTESIAN_POINT('',(451.610496589,-59.016384168,302.5));
#531=DIRECTION('',(0.,0.,-1.));
#532=DIRECTION('',(-1.,0.,0.));
#533=AXIS2_PLACEMENT_3D('',#530,#531,#532);
#534=CYLINDRICAL_SURFACE('',#533,11.5);
#535=CARTESIAN_POINT('',(460.801286062,-65.928647824,300.));
#536=VERTEX_POINT('',#535);
#537=CARTESIAN_POINT('',(460.801286062,-52.104120512,300.));
#538=VERTEX_POINT('',#537);
#539=CARTESIAN_POINT('',(451.610496589,-59.016384168,300.));
#540=DIRECTION('',(0.,0.,1.));
#541=DIRECTION('',(1.,0.,-0.));
#542=AXIS2_PLACEMENT_3D('',#539,#540,#541);
#543=CIRCLE('',#542,11.5);
#544=EDGE_CURVE('',#536,#538,#543,.T.);
#545=ORIENTED_EDGE('',*,*,#544,.F.);
#546=CARTESIAN_POINT('',(460.801286062,-65.928647824,302.5));
#547=VERTEX_POINT('',#546);
#548=CARTESIAN_POINT('',(460.801286062,-65.928647824,302.5));
#549=DIRECTION('',(0.,0.,-1.));
#550=VECTOR('',#549,2.5);
#551=LINE('',#548,#550);
#552=EDGE_CURVE('',#547,#536,#551,.T.);
#553=ORIENTED_EDGE('',*,*,#552,.F.);
#554=CARTESIAN_POINT('',(460.801286062,-52.104120512,302.5));
#555=VERTEX_POINT('',#554);
#556=CARTESIAN_POINT('',(451.610496589,-59.016384168,302.5));
#557=DIRECTION('',(0.,0.,1.));
#558=DIRECTION('',(1.,0.,-0.));
#559=AXIS2_PLACEMENT_3D('',#556,#557,#558);
#560=CIRCLE('',#559,11.5);
#561=EDGE_CURVE('',#547,#555,#560,.T.);
#562=ORIENTED_EDGE('',*,*,#561,.T.);
#563=CARTESIAN_POINT('',(460.801286062,-52.104120512,302.5));
#564=DIRECTION('',(0.,0.,-1.));
#565=VECTOR('',#564,2.5);
#566=LINE('',#563,#565);
#567=EDGE_CURVE('',#555,#538,#566,.T.);
#568=ORIENTED_EDGE('',*,*,#567,.T.);
#569=EDGE_LOOP('',(#545,#553,#562,#568));
#570=FACE_BOUND('',#569,.T.);
#571=ADVANCED_FACE('',(#570),#534,.F.);
#572=CARTESIAN_POINT('',(470.610496589,-59.016384168,302.5));
#573=DIRECTION('',(0.,0.,-1.));
#574=DIRECTION('',(-1.,0.,0.));
#575=AXIS2_PLACEMENT_3D('',#572,#573,#574);
#576=CYLINDRICAL_SURFACE('',#575,12.);
#577=CARTESIAN_POINT('',(470.610496589,-59.016384168,300.));
#578=DIRECTION('',(0.,0.,1.));
#579=DIRECTION('',(1.,0.,-0.));
#580=AXIS2_PLACEMENT_3D('',#577,#578,#579);
#581=CIRCLE('',#580,12.);
#582=EDGE_CURVE('',#536,#538,#581,.T.);
#583=ORIENTED_EDGE('',*,*,#582,.T.);
#584=ORIENTED_EDGE('',*,*,#567,.F.);
#585=CARTESIAN_POINT('',(470.610496589,-59.016384168,302.5));
#586=DIRECTION('',(0.,0.,1.));
#587=DIRECTION('',(1.,0.,-0.));
#588=AXIS2_PLACEMENT_3D('',#585,#586,#587);
#589=CIRCLE('',#588,12.);
#590=EDGE_CURVE('',#547,#555,#589,.T.);
#591=ORIENTED_EDGE('',*,*,#590,.F.);
#592=ORIENTED_EDGE('',*,*,#552,.T.);
#593=EDGE_LOOP('',(#583,#584,#591,#592));
#594=FACE_BOUND('',#593,.T.);
#595=ADVANCED_FACE('',(#594),#576,.T.);
#596=CARTESIAN_POINT('',(451.610496589,-59.016384168,302.5));
#597=DIRECTION('',(0.,0.,1.));
#598=DIRECTION('',(1.,0.,0.));
#599=AXIS2_PLACEMENT_3D('',#596,#597,#598);
#600=PLANE('',#599);
#601=CARTESIAN_POINT('',(474.610496589,-59.016384168,302.5));
#602=VERTEX_POINT('',#601);
#603=CARTESIAN_POINT('',(466.610496589,-59.016384168,302.5));
#604=VERTEX_POINT('',#603);
#605=CARTESIAN_POINT('',(470.610496589,-59.016384168,302.5));
#606=DIRECTION('',(-0.,-0.,-1.));
#607=DIRECTION('',(1.,0.,-0.));
#608=AXIS2_PLACEMENT_3D('',#605,#606,#607);
#609=CIRCLE('',#608,4.);
#610=EDGE_CURVE('',#602,#604,#609,.T.);
#611=ORIENTED_EDGE('',*,*,#610,.T.);
#612=CARTESIAN_POINT('',(470.610496589,-59.016384168,302.5));
#613=DIRECTION('',(-0.,-0.,-1.));
#614=DIRECTION('',(1.,0.,-0.));
#615=AXIS2_PLACEMENT_3D('',#612,#613,#614);
#616=CIRCLE('',#615,4.);
#617=EDGE_CURVE('',#604,#602,#616,.T.);
#618=ORIENTED_EDGE('',*,*,#617,.T.);
#619=EDGE_LOOP('',(#611,#618));
#620=FACE_BOUND('',#619,.T.);
#621=ORIENTED_EDGE('',*,*,#561,.F.);
#622=ORIENTED_EDGE('',*,*,#590,.T.);
#623=EDGE_LOOP('',(#621,#622));
#624=FACE_BOUND('',#623,.T.);
#625=ADVANCED_FACE('',(#620,#624),#600,.T.);
#626=CARTESIAN_POINT('',(451.610496589,-59.016384168,300.));
#627=DIRECTION('',(0.,0.,1.));
#628=DIRECTION('',(1.,0.,0.));
#629=AXIS2_PLACEMENT_3D('',#626,#627,#628);
#630=PLANE('',#629);
#631=ORIENTED_EDGE('',*,*,#544,.T.);
#632=ORIENTED_EDGE('',*,*,#582,.F.);
#633=EDGE_LOOP('',(#631,#632));
#634=FACE_BOUND('',#633,.T.);
#635=ADVANCED_FACE('',(#634),#630,.F.);
#636=CARTESIAN_POINT('',(467.278294664,-40.407744533,323.5));
#637=DIRECTION('',(0.,0.,-1.));
#638=DIRECTION('',(-0.173648178,0.984807753,0.));
#639=AXIS2_PLACEMENT_3D('',#636,#637,#638);
#640=CYLINDRICAL_SURFACE('',#639,11.5);
#641=CARTESIAN_POINT('',(462.067007668,-50.659207251,321.));
#642=VERTEX_POINT('',#641);
#643=CARTESIAN_POINT('',(475.681509347,-48.258603276,321.));
#644=VERTEX_POINT('',#643);
#645=CARTESIAN_POINT('',(467.278294664,-40.407744533,321.));
#646=DIRECTION('',(0.,0.,1.));
#647=DIRECTION('',(0.173648178,-0.984807753,0.));
#648=AXIS2_PLACEMENT_3D('',#645,#646,#647);
#649=CIRCLE('',#648,11.5);
#650=EDGE_CURVE('',#642,#644,#649,.T.);
#651=ORIENTED_EDGE('',*,*,#650,.F.);
#652=CARTESIAN_POINT('',(462.067007668,-50.659207251,323.5));
#653=VERTEX_POINT('',#652);
#654=CARTESIAN_POINT('',(462.067007668,-50.659207251,323.5));
#655=DIRECTION('',(0.,0.,-1.));
#656=VECTOR('',#655,2.5);
#657=LINE('',#654,#656);
#658=EDGE_CURVE('',#653,#642,#657,.T.);
#659=ORIENTED_EDGE('',*,*,#658,.F.);
#660=CARTESIAN_POINT('',(475.681509347,-48.258603276,323.5));
#661=VERTEX_POINT('',#660);
#662=CARTESIAN_POINT('',(467.278294664,-40.407744533,323.5));
#663=DIRECTION('',(0.,0.,1.));
#664=DIRECTION('',(0.173648178,-0.984807753,0.));
#665=AXIS2_PLACEMENT_3D('',#662,#663,#664);
#666=CIRCLE('',#665,11.5);
#667=EDGE_CURVE('',#653,#661,#666,.T.);
#668=ORIENTED_EDGE('',*,*,#667,.T.);
#669=CARTESIAN_POINT('',(475.681509347,-48.258603276,323.5));
#670=DIRECTION('',(0.,0.,-1.));
#671=VECTOR('',#670,2.5);
#672=LINE('',#669,#671);
#673=EDGE_CURVE('',#661,#644,#672,.T.);
#674=ORIENTED_EDGE('',*,*,#673,.T.);
#675=EDGE_LOOP('',(#651,#659,#668,#674));
#676=FACE_BOUND('',#675,.T.);
#677=ADVANCED_FACE('',(#676),#640,.F.);
#678=CARTESIAN_POINT('',(470.57761004,-59.11909184,323.5));
#679=DIRECTION('',(0.,0.,-1.));
#680=DIRECTION('',(-0.173648178,0.984807753,0.));
#681=AXIS2_PLACEMENT_3D('',#678,#679,#680);
#682=CYLINDRICAL_SURFACE('',#681,12.);
#683=CARTESIAN_POINT('',(470.57761004,-59.11909184,321.));
#684=DIRECTION('',(0.,0.,1.));
#685=DIRECTION('',(0.173648178,-0.984807753,0.));
#686=AXIS2_PLACEMENT_3D('',#683,#684,#685);
#687=CIRCLE('',#686,12.);
#688=EDGE_CURVE('',#642,#644,#687,.T.);
#689=ORIENTED_EDGE('',*,*,#688,.T.);
#690=ORIENTED_EDGE('',*,*,#673,.F.);
#691=CARTESIAN_POINT('',(470.57761004,-59.11909184,323.5));
#692=DIRECTION('',(0.,0.,1.));
#693=DIRECTION('',(0.173648178,-0.984807753,0.));
#694=AXIS2_PLACEMENT_3D('',#691,#692,#693);
#695=CIRCLE('',#694,12.);
#696=EDGE_CURVE('',#653,#661,#695,.T.);
#697=ORIENTED_EDGE('',*,*,#696,.F.);
#698=ORIENTED_EDGE('',*,*,#658,.T.);
#699=EDGE_LOOP('',(#689,#690,#697,#698));
#700=FACE_BOUND('',#699,.T.);
#701=ADVANCED_FACE('',(#700),#682,.T.);
#702=CARTESIAN_POINT('',(467.278294664,-40.407744533,323.5));
#703=DIRECTION('',(0.,0.,1.));
#704=DIRECTION('',(0.173648178,-0.984807753,0.));
#705=AXIS2_PLACEMENT_3D('',#702,#703,#704);
#706=PLANE('',#705);
#707=ORIENTED_EDGE('',*,*,#667,.F.);
#708=ORIENTED_EDGE('',*,*,#696,.T.);
#709=EDGE_LOOP('',(#707,#708));
#710=FACE_BOUND('',#709,.T.);
#711=ADVANCED_FACE('',(#710),#706,.T.);
#712=CARTESIAN_POINT('',(467.278294664,-40.407744533,321.));
#713=DIRECTION('',(0.,0.,1.));
#714=DIRECTION('',(0.173648178,-0.984807753,0.));
#715=AXIS2_PLACEMENT_3D('',#712,#713,#714);
#716=PLANE('',#715);
#717=CARTESIAN_POINT('',(466.610496589,-59.016384168,321.));
#718=VERTEX_POINT('',#717);
#719=CARTESIAN_POINT('',(474.610496589,-59.016384168,321.));
#720=VERTEX_POINT('',#719);
#721=CARTESIAN_POINT('',(470.610496589,-59.016384168,321.));
#722=DIRECTION('',(-0.,-0.,-1.));
#723=DIRECTION('',(1.,0.,-0.));
#724=AXIS2_PLACEMENT_3D('',#721,#722,#723);
#725=CIRCLE('',#724,4.);
#726=EDGE_CURVE('',#718,#720,#725,.T.);
#727=ORIENTED_EDGE('',*,*,#726,.F.);
#728=CARTESIAN_POINT('',(470.610496589,-59.016384168,321.));
#729=DIRECTION('',(-0.,-0.,-1.));
#730=DIRECTION('',(1.,0.,-0.));
#731=AXIS2_PLACEMENT_3D('',#728,#729,#730);
#732=CIRCLE('',#731,4.);
#733=EDGE_CURVE('',#720,#718,#732,.T.);
#734=ORIENTED_EDGE('',*,*,#733,.F.);
#735=EDGE_LOOP('',(#727,#734));
#736=FACE_BOUND('',#735,.T.);
#737=ORIENTED_EDGE('',*,*,#650,.T.);
#738=ORIENTED_EDGE('',*,*,#688,.F.);
#739=EDGE_LOOP('',(#737,#738));
#740=FACE_BOUND('',#739,.T.);
#741=ADVANCED_FACE('',(#736,#740),#716,.F.);
#742=CARTESIAN_POINT('',(470.610496589,-59.016384168,322.));
#743=DIRECTION('',(0.,0.,-1.));
#744=DIRECTION('',(-1.,0.,0.));
#745=AXIS2_PLACEMENT_3D('',#742,#743,#744);
#746=CYLINDRICAL_SURFACE('',#745,4.);
#747=CARTESIAN_POINT('',(466.610496589,-59.016384168,302.5));
#748=DIRECTION('',(-0.,-0.,1.));
#749=VECTOR('',#748,18.5);
#750=LINE('',#747,#749);
#751=EDGE_CURVE('',#604,#718,#750,.T.);
#752=ORIENTED_EDGE('',*,*,#751,.T.);
#753=ORIENTED_EDGE('',*,*,#726,.T.);
#754=ORIENTED_EDGE('',*,*,#733,.T.);
#755=ORIENTED_EDGE('',*,*,#751,.F.);
#756=ORIENTED_EDGE('',*,*,#610,.F.);
#757=ORIENTED_EDGE('',*,*,#617,.F.);
#758=EDGE_LOOP('',(#752,#753,#754,#755,#756,#757));
#759=FACE_BOUND('',#758,.T.);
#760=ADVANCED_FACE('',(#759),#746,.T.);
#761=CLOSED_SHELL('',(#571,#595,#625,#635,#677,#701,#711,#741,#760));
#762=MANIFOLD_SOLID_BREP('K\S\vrper 02 (1)',#761);
#529=STYLED_ITEM('',(#294),#762);
#764=CARTESIAN_POINT('',(424.610496589,-74.604841436,320.));
#765=DIRECTION('',(0.,0.,-1.));
#766=DIRECTION('',(0.5,0.866025404,0.));
#767=AXIS2_PLACEMENT_3D('',#764,#765,#766);
#768=CYLINDRICAL_SURFACE('',#767,13.25);
#769=CARTESIAN_POINT('',(431.235496589,-63.130004836,297.));
#770=VERTEX_POINT('',#769);
#771=CARTESIAN_POINT('',(431.235496589,-63.130004836,332.));
#772=VERTEX_POINT('',#771);
#773=CARTESIAN_POINT('',(431.235496589,-63.130004836,297.));
#774=DIRECTION('',(-0.,-0.,1.));
#775=VECTOR('',#774,35.);
#776=LINE('',#773,#775);
#777=EDGE_CURVE('',#770,#772,#776,.T.);
#778=ORIENTED_EDGE('',*,*,#777,.F.);
#779=CARTESIAN_POINT('',(437.860496589,-74.604841436,297.));
#780=VERTEX_POINT('',#779);
#781=CARTESIAN_POINT('',(424.610496589,-74.604841436,297.));
#782=DIRECTION('',(0.,0.,1.));
#783=DIRECTION('',(1.,0.,-0.));
#784=AXIS2_PLACEMENT_3D('',#781,#782,#783);
#785=CIRCLE('',#784,13.25);
#786=EDGE_CURVE('',#780,#770,#785,.T.);
#787=ORIENTED_EDGE('',*,*,#786,.F.);
#788=CARTESIAN_POINT('',(424.610496589,-74.604841436,297.));
#789=DIRECTION('',(0.,0.,1.));
#790=DIRECTION('',(1.,0.,-0.));
#791=AXIS2_PLACEMENT_3D('',#788,#789,#790);
#792=CIRCLE('',#791,13.25);
#793=EDGE_CURVE('',#770,#780,#792,.T.);
#794=ORIENTED_EDGE('',*,*,#793,.F.);
#795=ORIENTED_EDGE('',*,*,#777,.T.);
#796=CARTESIAN_POINT('',(437.860496589,-74.604841436,332.));
#797=VERTEX_POINT('',#796);
#798=CARTESIAN_POINT('',(424.610496589,-74.604841436,332.));
#799=DIRECTION('',(0.,0.,1.));
#800=DIRECTION('',(1.,0.,-0.));
#801=AXIS2_PLACEMENT_3D('',#798,#799,#800);
#802=CIRCLE('',#801,13.25);
#803=EDGE_CURVE('',#772,#797,#802,.T.);
#804=ORIENTED_EDGE('',*,*,#803,.T.);
#805=CARTESIAN_POINT('',(424.610496589,-74.604841436,332.));
#806=DIRECTION('',(0.,0.,1.));
#807=DIRECTION('',(1.,0.,-0.));
#808=AXIS2_PLACEMENT_3D('',#805,#806,#807);
#809=CIRCLE('',#808,13.25);
#810=EDGE_CURVE('',#797,#772,#809,.T.);
#811=ORIENTED_EDGE('',*,*,#810,.T.);
#812=EDGE_LOOP('',(#778,#787,#794,#795,#804,#811));
#813=FACE_BOUND('',#812,.T.);
#814=CARTESIAN_POINT('',(411.904573048,-78.362767325,323.8));
#815=VERTEX_POINT('',#814);
#816=CARTESIAN_POINT('',(427.569301708,-87.520257506,323.8));
#817=VERTEX_POINT('',#816);
#818=CARTESIAN_POINT('',(424.610496589,-74.604841436,323.8));
#819=DIRECTION('',(0.,0.,1.));
#820=DIRECTION('',(1.,0.,-0.));
#821=AXIS2_PLACEMENT_3D('',#818,#819,#820);
#822=CIRCLE('',#821,13.25);
#823=EDGE_CURVE('',#815,#817,#822,.T.);
#824=ORIENTED_EDGE('',*,*,#823,.F.);
#825=CARTESIAN_POINT('',(411.904573048,-78.362767325,320.7));
#826=VERTEX_POINT('',#825);
#827=CARTESIAN_POINT('',(411.904573048,-78.362767325,323.8));
#828=DIRECTION('',(0.,0.,-1.));
#829=VECTOR('',#828,3.1);
#830=LINE('',#827,#829);
#831=EDGE_CURVE('',#815,#826,#830,.T.);
#832=ORIENTED_EDGE('',*,*,#831,.T.);
#833=CARTESIAN_POINT('',(427.569301708,-87.520257506,320.7));
#834=VERTEX_POINT('',#833);
#835=CARTESIAN_POINT('',(424.610496589,-74.604841436,320.7));
#836=DIRECTION('',(0.,0.,1.));
#837=DIRECTION('',(1.,0.,-0.));
#838=AXIS2_PLACEMENT_3D('',#835,#836,#837);
#839=CIRCLE('',#838,13.25);
#840=EDGE_CURVE('',#826,#834,#839,.T.);
#841=ORIENTED_EDGE('',*,*,#840,.T.);
#842=CARTESIAN_POINT('',(427.569301708,-87.520257506,320.7));
#843=DIRECTION('',(0.,0.,1.));
#844=VECTOR('',#843,3.1);
#845=LINE('',#842,#844);
#846=EDGE_CURVE('',#834,#817,#845,.T.);
#847=ORIENTED_EDGE('',*,*,#846,.T.);
#848=EDGE_LOOP('',(#824,#832,#841,#847));
#849=FACE_BOUND('',#848,.T.);
#850=CARTESIAN_POINT('',(411.931886164,-78.453911153,299.7));
#851=VERTEX_POINT('',#850);
#852=CARTESIAN_POINT('',(427.616409646,-87.509375007,299.7));
#853=VERTEX_POINT('',#852);
#854=CARTESIAN_POINT('',(424.610496589,-74.604841436,299.7));
#855=DIRECTION('',(0.,0.,1.));
#856=DIRECTION('',(1.,0.,-0.));
#857=AXIS2_PLACEMENT_3D('',#854,#855,#856);
#858=CIRCLE('',#857,13.25);
#859=EDGE_CURVE('',#851,#853,#858,.T.);
#860=ORIENTED_EDGE('',*,*,#859,.T.);
#861=CARTESIAN_POINT('',(427.616409646,-87.509375007,302.8));
#862=VERTEX_POINT('',#861);
#863=CARTESIAN_POINT('',(427.616409646,-87.509375007,302.8));
#864=DIRECTION('',(0.,0.,-1.));
#865=VECTOR('',#864,3.1);
#866=LINE('',#863,#865);
#867=EDGE_CURVE('',#862,#853,#866,.T.);
#868=ORIENTED_EDGE('',*,*,#867,.F.);
#869=CARTESIAN_POINT('',(411.931886164,-78.453911153,302.8));
#870=VERTEX_POINT('',#869);
#871=CARTESIAN_POINT('',(424.610496589,-74.604841436,302.8));
#872=DIRECTION('',(0.,0.,1.));
#873=DIRECTION('',(1.,0.,-0.));
#874=AXIS2_PLACEMENT_3D('',#871,#872,#873);
#875=CIRCLE('',#874,13.25);
#876=EDGE_CURVE('',#870,#862,#875,.T.);
#877=ORIENTED_EDGE('',*,*,#876,.F.);
#878=CARTESIAN_POINT('',(411.931886164,-78.453911153,302.8));
#879=DIRECTION('',(0.,0.,-1.));
#880=VECTOR('',#879,3.1);
#881=LINE('',#878,#880);
#882=EDGE_CURVE('',#870,#851,#881,.T.);
#883=ORIENTED_EDGE('',*,*,#882,.T.);
#884=EDGE_LOOP('',(#860,#868,#877,#883));
#885=FACE_BOUND('',#884,.T.);
#886=ADVANCED_FACE('',(#813,#849,#885),#768,.F.);
#887=CARTESIAN_POINT('',(424.610496589,-74.604841436,320.));
#888=DIRECTION('',(0.,0.,-1.));
#889=DIRECTION('',(0.5,0.866025404,0.));
#890=AXIS2_PLACEMENT_3D('',#887,#888,#889);
#891=CYLINDRICAL_SURFACE('',#890,14.5);
#892=CARTESIAN_POINT('',(431.860496589,-62.047473081,297.));
#893=VERTEX_POINT('',#892);
#894=CARTESIAN_POINT('',(431.860496589,-62.047473081,332.));
#895=VERTEX_POINT('',#894);
#896=CARTESIAN_POINT('',(431.860496589,-62.047473081,297.));
#897=DIRECTION('',(-0.,-0.,1.));
#898=VECTOR('',#897,35.);
#899=LINE('',#896,#898);
#900=EDGE_CURVE('',#893,#895,#899,.T.);
#901=ORIENTED_EDGE('',*,*,#900,.T.);
#902=CARTESIAN_POINT('',(439.110496589,-74.604841436,332.));
#903=VERTEX_POINT('',#902);
#904=CARTESIAN_POINT('',(424.610496589,-74.604841436,332.));
#905=DIRECTION('',(0.,0.,1.));
#906=DIRECTION('',(1.,0.,-0.));
#907=AXIS2_PLACEMENT_3D('',#904,#905,#906);
#908=CIRCLE('',#907,14.5);
#909=EDGE_CURVE('',#903,#895,#908,.T.);
#910=ORIENTED_EDGE('',*,*,#909,.F.);
#911=CARTESIAN_POINT('',(424.610496589,-74.604841436,332.));
#912=DIRECTION('',(0.,0.,1.));
#913=DIRECTION('',(1.,0.,-0.));
#914=AXIS2_PLACEMENT_3D('',#911,#912,#913);
#915=CIRCLE('',#914,14.5);
#916=EDGE_CURVE('',#895,#903,#915,.T.);
#917=ORIENTED_EDGE('',*,*,#916,.F.);
#918=ORIENTED_EDGE('',*,*,#900,.F.);
#919=CARTESIAN_POINT('',(439.110496589,-74.604841436,297.));
#920=VERTEX_POINT('',#919);
#921=CARTESIAN_POINT('',(424.610496589,-74.604841436,297.));
#922=DIRECTION('',(0.,0.,1.));
#923=DIRECTION('',(1.,0.,-0.));
#924=AXIS2_PLACEMENT_3D('',#921,#922,#923);
#925=CIRCLE('',#924,14.5);
#926=EDGE_CURVE('',#893,#920,#925,.T.);
#927=ORIENTED_EDGE('',*,*,#926,.T.);
#928=CARTESIAN_POINT('',(424.610496589,-74.604841436,297.));
#929=DIRECTION('',(0.,0.,1.));
#930=DIRECTION('',(1.,0.,-0.));
#931=AXIS2_PLACEMENT_3D('',#928,#929,#930);
#932=CIRCLE('',#931,14.5);
#933=EDGE_CURVE('',#920,#893,#932,.T.);
#934=ORIENTED_EDGE('',*,*,#933,.T.);
#935=EDGE_LOOP('',(#901,#910,#917,#918,#927,#934));
#936=FACE_BOUND('',#935,.T.);
#937=CARTESIAN_POINT('',(410.707306159,-78.722036581,320.7));
#938=VERTEX_POINT('',#937);
#939=CARTESIAN_POINT('',(427.843607605,-88.739797862,320.7));
#940=VERTEX_POINT('',#939);
#941=CARTESIAN_POINT('',(424.610496589,-74.604841436,320.7));
#942=DIRECTION('',(0.,0.,1.));
#943=DIRECTION('',(1.,0.,-0.));
#944=AXIS2_PLACEMENT_3D('',#941,#942,#943);
#945=CIRCLE('',#944,14.5);
#946=EDGE_CURVE('',#938,#940,#945,.T.);
#947=ORIENTED_EDGE('',*,*,#946,.F.);
#948=CARTESIAN_POINT('',(410.707306159,-78.722036581,323.8));
#949=VERTEX_POINT('',#948);
#950=CARTESIAN_POINT('',(410.707306159,-78.722036581,323.8));
#951=DIRECTION('',(0.,0.,-1.));
#952=VECTOR('',#951,3.1);
#953=LINE('',#950,#952);
#954=EDGE_CURVE('',#949,#938,#953,.T.);
#955=ORIENTED_EDGE('',*,*,#954,.F.);
#956=CARTESIAN_POINT('',(427.843607605,-88.739797862,323.8));
#957=VERTEX_POINT('',#956);
#958=CARTESIAN_POINT('',(424.610496589,-74.604841436,323.8));
#959=DIRECTION('',(0.,0.,1.));
#960=DIRECTION('',(1.,0.,-0.));
#961=AXIS2_PLACEMENT_3D('',#958,#959,#960);
#962=CIRCLE('',#961,14.5);
#963=EDGE_CURVE('',#949,#957,#962,.T.);
#964=ORIENTED_EDGE('',*,*,#963,.T.);
#965=CARTESIAN_POINT('',(427.843607605,-88.739797862,320.7));
#966=DIRECTION('',(0.,0.,1.));
#967=VECTOR('',#966,3.1);
#968=LINE('',#965,#967);
#969=EDGE_CURVE('',#940,#957,#968,.T.);
#970=ORIENTED_EDGE('',*,*,#969,.F.);
#971=EDGE_LOOP('',(#947,#955,#964,#970));
#972=FACE_BOUND('',#971,.T.);
#973=CARTESIAN_POINT('',(427.899544106,-88.726886841,299.7));
#974=VERTEX_POINT('',#973);
#975=CARTESIAN_POINT('',(427.899544106,-88.726886841,302.8));
#976=VERTEX_POINT('',#975);
#977=CARTESIAN_POINT('',(427.899544106,-88.726886841,299.7));
#978=DIRECTION('',(0.,0.,1.));
#979=VECTOR('',#978,3.1);
#980=LINE('',#977,#979);
#981=EDGE_CURVE('',#974,#976,#980,.T.);
#982=ORIENTED_EDGE('',*,*,#981,.F.);
#983=CARTESIAN_POINT('',(410.735922756,-78.817465435,299.7));
#984=VERTEX_POINT('',#983);
#985=CARTESIAN_POINT('',(424.610496589,-74.604841436,299.7));
#986=DIRECTION('',(0.,0.,1.));
#987=DIRECTION('',(1.,0.,-0.));
#988=AXIS2_PLACEMENT_3D('',#985,#986,#987);
#989=CIRCLE('',#988,14.5);
#990=EDGE_CURVE('',#984,#974,#989,.T.);
#991=ORIENTED_EDGE('',*,*,#990,.F.);
#992=CARTESIAN_POINT('',(410.735922756,-78.817465435,302.8));
#993=VERTEX_POINT('',#992);
#994=CARTESIAN_POINT('',(410.735922756,-78.817465435,302.8));
#995=DIRECTION('',(0.,0.,-1.));
#996=VECTOR('',#995,3.1);
#997=LINE('',#994,#996);
#998=EDGE_CURVE('',#993,#984,#997,.T.);
#999=ORIENTED_EDGE('',*,*,#998,.F.);
#1000=CARTESIAN_POINT('',(424.610496589,-74.604841436,302.8));
#1001=DIRECTION('',(0.,0.,1.));
#1002=DIRECTION('',(1.,0.,-0.));
#1003=AXIS2_PLACEMENT_3D('',#1000,#1001,#1002);
#1004=CIRCLE('',#1003,14.5);
#1005=EDGE_CURVE('',#993,#976,#1004,.T.);
#1006=ORIENTED_EDGE('',*,*,#1005,.T.);
#1007=EDGE_LOOP('',(#982,#991,#999,#1006));
#1008=FACE_BOUND('',#1007,.T.);
#1009=ADVANCED_FACE('',(#936,#972,#1008),#891,.T.);
#1010=CARTESIAN_POINT('',(424.610496589,-74.604841436,332.));
#1011=DIRECTION('',(0.,0.,1.));
#1012=DIRECTION('',(-0.5,-0.866025404,0.));
#1013=AXIS2_PLACEMENT_3D('',#1010,#1011,#1012);
#1014=PLANE('',#1013);
#1015=ORIENTED_EDGE('',*,*,#803,.F.);
#1016=ORIENTED_EDGE('',*,*,#810,.F.);
#1017=EDGE_LOOP('',(#1015,#1016));
#1018=FACE_BOUND('',#1017,.T.);
#1019=ORIENTED_EDGE('',*,*,#909,.T.);
#1020=ORIENTED_EDGE('',*,*,#916,.T.);
#1021=EDGE_LOOP('',(#1019,#1020));
#1022=FACE_BOUND('',#1021,.T.);
#1023=ADVANCED_FACE('',(#1018,#1022),#1014,.T.);
#1024=CARTESIAN_POINT('',(424.610496589,-74.604841436,297.));
#1025=DIRECTION('',(0.,0.,1.));
#1026=DIRECTION('',(-0.5,-0.866025404,0.));
#1027=AXIS2_PLACEMENT_3D('',#1024,#1025,#1026);
#1028=PLANE('',#1027);
#1029=ORIENTED_EDGE('',*,*,#786,.T.);
#1030=ORIENTED_EDGE('',*,*,#793,.T.);
#1031=EDGE_LOOP('',(#1029,#1030));
#1032=FACE_BOUND('',#1031,.T.);
#1033=ORIENTED_EDGE('',*,*,#926,.F.);
#1034=ORIENTED_EDGE('',*,*,#933,.F.);
#1035=EDGE_LOOP('',(#1033,#1034));
#1036=FACE_BOUND('',#1035,.T.);
#1037=ADVANCED_FACE('',(#1032,#1036),#1028,.F.);
#1038=CARTESIAN_POINT('',(432.892152205,-97.477872408,320.7));
#1039=DIRECTION('',(0.,0.,1.));
#1040=DIRECTION('',(-0.939692621,0.342020143,0.));
#1041=AXIS2_PLACEMENT_3D('',#1038,#1039,#1040);
#1042=PLANE('',#1041);
#1043=CARTESIAN_POINT('',(415.03799241,-90.979489685,320.7));
#1044=DIRECTION('',(0.,0.,1.));
#1045=DIRECTION('',(-0.5,-0.866025404,0.));
#1046=AXIS2_PLACEMENT_3D('',#1043,#1044,#1045);
#1047=CIRCLE('',#1046,13.);
#1048=EDGE_CURVE('',#826,#938,#1047,.T.);
#1049=ORIENTED_EDGE('',*,*,#1048,.T.);
#1050=ORIENTED_EDGE('',*,*,#946,.T.);
#1051=CARTESIAN_POINT('',(415.03799241,-90.979489685,320.7));
#1052=DIRECTION('',(0.,0.,1.));
#1053=DIRECTION('',(-0.5,-0.866025404,0.));
#1054=AXIS2_PLACEMENT_3D('',#1051,#1052,#1053);
#1055=CIRCLE('',#1054,13.);
#1056=EDGE_CURVE('',#940,#834,#1055,.T.);
#1057=ORIENTED_EDGE('',*,*,#1056,.T.);
#1058=ORIENTED_EDGE('',*,*,#840,.F.);
#1059=EDGE_LOOP('',(#1049,#1050,#1057,#1058));
#1060=FACE_BOUND('',#1059,.T.);
#1061=ADVANCED_FACE('',(#1060),#1042,.T.);
#1062=CARTESIAN_POINT('',(432.892152205,-97.477872408,323.8));
#1063=DIRECTION('',(0.,0.,1.));
#1064=DIRECTION('',(-0.939692621,0.342020143,0.));
#1065=AXIS2_PLACEMENT_3D('',#1062,#1063,#1064);
#1066=PLANE('',#1065);
#1067=ORIENTED_EDGE('',*,*,#823,.T.);
#1068=CARTESIAN_POINT('',(415.03799241,-90.979489685,323.8));
#1069=DIRECTION('',(0.,0.,1.));
#1070=DIRECTION('',(-0.5,-0.866025404,0.));
#1071=AXIS2_PLACEMENT_3D('',#1068,#1069,#1070);
#1072=CIRCLE('',#1071,13.);
#1073=EDGE_CURVE('',#957,#817,#1072,.T.);
#1074=ORIENTED_EDGE('',*,*,#1073,.F.);
#1075=ORIENTED_EDGE('',*,*,#963,.F.);
#1076=CARTESIAN_POINT('',(415.03799241,-90.979489685,323.8));
#1077=DIRECTION('',(0.,0.,1.));
#1078=DIRECTION('',(-0.5,-0.866025404,0.));
#1079=AXIS2_PLACEMENT_3D('',#1076,#1077,#1078);
#1080=CIRCLE('',#1079,13.);
#1081=EDGE_CURVE('',#815,#949,#1080,.T.);
#1082=ORIENTED_EDGE('',*,*,#1081,.F.);
#1083=EDGE_LOOP('',(#1067,#1074,#1075,#1082));
#1084=FACE_BOUND('',#1083,.T.);
#1085=ADVANCED_FACE('',(#1084),#1066,.F.);
#1086=CARTESIAN_POINT('',(415.03799241,-90.979489685,323.5));
#1087=DIRECTION('',(0.,0.,-1.));
#1088=DIRECTION('',(0.939692621,-0.342020143,0.));
#1089=AXIS2_PLACEMENT_3D('',#1086,#1087,#1088);
#1090=CYLINDRICAL_SURFACE('',#1089,13.);
#1091=ORIENTED_EDGE('',*,*,#1081,.T.);
#1092=ORIENTED_EDGE('',*,*,#954,.T.);
#1093=ORIENTED_EDGE('',*,*,#1048,.F.);
#1094=ORIENTED_EDGE('',*,*,#831,.F.);
#1095=EDGE_LOOP('',(#1091,#1092,#1093,#1094));
#1096=FACE_BOUND('',#1095,.T.);
#1097=ADVANCED_FACE('',(#1096),#1090,.F.);
#1098=CARTESIAN_POINT('',(415.03799241,-90.979489685,323.5));
#1099=DIRECTION('',(0.,0.,-1.));
#1100=DIRECTION('',(0.939692621,-0.342020143,0.));
#1101=AXIS2_PLACEMENT_3D('',#1098,#1099,#1100);
#1102=CYLINDRICAL_SURFACE('',#1101,13.);
#1103=ORIENTED_EDGE('',*,*,#1056,.F.);
#1104=ORIENTED_EDGE('',*,*,#969,.T.);
#1105=ORIENTED_EDGE('',*,*,#1073,.T.);
#1106=ORIENTED_EDGE('',*,*,#846,.F.);
#1107=EDGE_LOOP('',(#1103,#1104,#1105,#1106));
#1108=FACE_BOUND('',#1107,.T.);
#1109=ADVANCED_FACE('',(#1108),#1102,.F.);
#1110=CARTESIAN_POINT('',(415.110496589,-91.059324108,302.5));
#1111=DIRECTION('',(0.,0.,-1.));
#1112=DIRECTION('',(0.5,0.866025404,0.));
#1113=AXIS2_PLACEMENT_3D('',#1110,#1111,#1112);
#1114=CYLINDRICAL_SURFACE('',#1113,13.);
#1115=ORIENTED_EDGE('',*,*,#998,.T.);
#1116=CARTESIAN_POINT('',(415.110496589,-91.059324108,299.7));
#1117=DIRECTION('',(0.,0.,1.));
#1118=DIRECTION('',(-0.5,-0.866025404,0.));
#1119=AXIS2_PLACEMENT_3D('',#1116,#1117,#1118);
#1120=CIRCLE('',#1119,13.);
#1121=EDGE_CURVE('',#851,#984,#1120,.T.);
#1122=ORIENTED_EDGE('',*,*,#1121,.F.);
#1123=ORIENTED_EDGE('',*,*,#882,.F.);
#1124=CARTESIAN_POINT('',(415.110496589,-91.059324108,302.8));
#1125=DIRECTION('',(0.,0.,1.));
#1126=DIRECTION('',(-0.5,-0.866025404,0.));
#1127=AXIS2_PLACEMENT_3D('',#1124,#1125,#1126);
#1128=CIRCLE('',#1127,13.);
#1129=EDGE_CURVE('',#870,#993,#1128,.T.);
#1130=ORIENTED_EDGE('',*,*,#1129,.T.);
#1131=EDGE_LOOP('',(#1115,#1122,#1123,#1130));
#1132=FACE_BOUND('',#1131,.T.);
#1133=ADVANCED_FACE('',(#1132),#1114,.F.);
#1134=CARTESIAN_POINT('',(415.110496589,-91.059324108,302.5));
#1135=DIRECTION('',(0.,0.,-1.));
#1136=DIRECTION('',(0.5,0.866025404,0.));
#1137=AXIS2_PLACEMENT_3D('',#1134,#1135,#1136);
#1138=CYLINDRICAL_SURFACE('',#1137,13.);
#1139=ORIENTED_EDGE('',*,*,#981,.T.);
#1140=CARTESIAN_POINT('',(415.110496589,-91.059324108,302.8));
#1141=DIRECTION('',(0.,0.,1.));
#1142=DIRECTION('',(-0.5,-0.866025404,0.));
#1143=AXIS2_PLACEMENT_3D('',#1140,#1141,#1142);
#1144=CIRCLE('',#1143,13.);
#1145=EDGE_CURVE('',#976,#862,#1144,.T.);
#1146=ORIENTED_EDGE('',*,*,#1145,.T.);
#1147=ORIENTED_EDGE('',*,*,#867,.T.);
#1148=CARTESIAN_POINT('',(415.110496589,-91.059324108,299.7));
#1149=DIRECTION('',(0.,0.,1.));
#1150=DIRECTION('',(-0.5,-0.866025404,0.));
#1151=AXIS2_PLACEMENT_3D('',#1148,#1149,#1150);
#1152=CIRCLE('',#1151,13.);
#1153=EDGE_CURVE('',#974,#853,#1152,.T.);
#1154=ORIENTED_EDGE('',*,*,#1153,.F.);
#1155=EDGE_LOOP('',(#1139,#1146,#1147,#1154));
#1156=FACE_BOUND('',#1155,.T.);
#1157=ADVANCED_FACE('',(#1156),#1138,.F.);
#1158=CARTESIAN_POINT('',(424.610496589,-74.604841436,302.8));
#1159=DIRECTION('',(0.,0.,1.));
#1160=DIRECTION('',(-0.5,-0.866025404,0.));
#1161=AXIS2_PLACEMENT_3D('',#1158,#1159,#1160);
#1162=PLANE('',#1161);
#1163=ORIENTED_EDGE('',*,*,#1129,.F.);
#1164=ORIENTED_EDGE('',*,*,#876,.T.);
#1165=ORIENTED_EDGE('',*,*,#1145,.F.);
#1166=ORIENTED_EDGE('',*,*,#1005,.F.);
#1167=EDGE_LOOP('',(#1163,#1164,#1165,#1166));
#1168=FACE_BOUND('',#1167,.T.);
#1169=ADVANCED_FACE('',(#1168),#1162,.F.);
#1170=CARTESIAN_POINT('',(424.610496589,-74.604841436,299.7));
#1171=DIRECTION('',(0.,0.,1.));
#1172=DIRECTION('',(-0.5,-0.866025404,0.));
#1173=AXIS2_PLACEMENT_3D('',#1170,#1171,#1172);
#1174=PLANE('',#1173);
#1175=ORIENTED_EDGE('',*,*,#859,.F.);
#1176=ORIENTED_EDGE('',*,*,#1121,.T.);
#1177=ORIENTED_EDGE('',*,*,#990,.T.);
#1178=ORIENTED_EDGE('',*,*,#1153,.T.);
#1179=EDGE_LOOP('',(#1175,#1176,#1177,#1178));
#1180=FACE_BOUND('',#1179,.T.);
#1181=ADVANCED_FACE('',(#1180),#1174,.T.);
#1182=CLOSED_SHELL('',(#886,#1009,#1023,#1037,#1061,#1085,#1097,#1109,#1133,#1157,#1169,#1181));
#1183=MANIFOLD_SOLID_BREP('K\S\vrper 01 (2)',#1182);
#763=STYLED_ITEM('',(#294),#1183);
#1185=CARTESIAN_POINT('',(451.610496589,-59.016384168,320.));
#1186=DIRECTION('',(0.,0.,-1.));
#1187=DIRECTION('',(-1.,0.,0.));
#1188=AXIS2_PLACEMENT_3D('',#1185,#1186,#1187);
#1189=CYLINDRICAL_SURFACE('',#1188,13.);
#1190=CARTESIAN_POINT('',(438.610496589,-59.016384168,297.));
#1191=VERTEX_POINT('',#1190);
#1192=CARTESIAN_POINT('',(438.610496589,-59.016384168,332.));
#1193=VERTEX_POINT('',#1192);
#1194=CARTESIAN_POINT('',(438.610496589,-59.016384168,297.));
#1195=DIRECTION('',(-0.,-0.,1.));
#1196=VECTOR('',#1195,35.);
#1197=LINE('',#1194,#1196);
#1198=EDGE_CURVE('',#1191,#1193,#1197,.T.);
#1199=ORIENTED_EDGE('',*,*,#1198,.F.);
#1200=CARTESIAN_POINT('',(464.610496589,-59.016384168,297.));
#1201=VERTEX_POINT('',#1200);
#1202=CARTESIAN_POINT('',(451.610496589,-59.016384168,297.));
#1203=DIRECTION('',(0.,0.,1.));
#1204=DIRECTION('',(1.,0.,-0.));
#1205=AXIS2_PLACEMENT_3D('',#1202,#1203,#1204);
#1206=CIRCLE('',#1205,13.);
#1207=EDGE_CURVE('',#1201,#1191,#1206,.T.);
#1208=ORIENTED_EDGE('',*,*,#1207,.F.);
#1209=CARTESIAN_POINT('',(451.610496589,-59.016384168,297.));
#1210=DIRECTION('',(0.,0.,1.));
#1211=DIRECTION('',(1.,0.,-0.));
#1212=AXIS2_PLACEMENT_3D('',#1209,#1210,#1211);
#1213=CIRCLE('',#1212,13.);
#1214=EDGE_CURVE('',#1191,#1201,#1213,.T.);
#1215=ORIENTED_EDGE('',*,*,#1214,.F.);
#1216=ORIENTED_EDGE('',*,*,#1198,.T.);
#1217=CARTESIAN_POINT('',(464.610496589,-59.016384168,332.));
#1218=VERTEX_POINT('',#1217);
#1219=CARTESIAN_POINT('',(451.610496589,-59.016384168,332.));
#1220=DIRECTION('',(0.,0.,1.));
#1221=DIRECTION('',(1.,0.,-0.));
#1222=AXIS2_PLACEMENT_3D('',#1219,#1220,#1221);
#1223=CIRCLE('',#1222,13.);
#1224=EDGE_CURVE('',#1193,#1218,#1223,.T.);
#1225=ORIENTED_EDGE('',*,*,#1224,.T.);
#1226=CARTESIAN_POINT('',(451.610496589,-59.016384168,332.));
#1227=DIRECTION('',(0.,0.,1.));
#1228=DIRECTION('',(1.,0.,-0.));
#1229=AXIS2_PLACEMENT_3D('',#1226,#1227,#1228);
#1230=CIRCLE('',#1229,13.);
#1231=EDGE_CURVE('',#1218,#1193,#1230,.T.);
#1232=ORIENTED_EDGE('',*,*,#1231,.T.);
#1233=EDGE_LOOP('',(#1199,#1208,#1215,#1216,#1225,#1232));
#1234=FACE_BOUND('',#1233,.T.);
#1235=CARTESIAN_POINT('',(461.045905969,-67.959149391,323.8));
#1236=VERTEX_POINT('',#1235);
#1237=CARTESIAN_POINT('',(461.14220066,-50.176326617,323.8));
#1238=VERTEX_POINT('',#1237);
#1239=CARTESIAN_POINT('',(451.610496589,-59.016384168,323.8));
#1240=DIRECTION('',(0.,0.,1.));
#1241=DIRECTION('',(1.,0.,-0.));
#1242=AXIS2_PLACEMENT_3D('',#1239,#1240,#1241);
#1243=CIRCLE('',#1242,13.);
#1244=EDGE_CURVE('',#1236,#1238,#1243,.T.);
#1245=ORIENTED_EDGE('',*,*,#1244,.F.);
#1246=CARTESIAN_POINT('',(461.045905969,-67.959149391,320.7));
#1247=VERTEX_POINT('',#1246);
#1248=CARTESIAN_POINT('',(461.045905969,-67.959149391,323.8));
#1249=DIRECTION('',(0.,0.,-1.));
#1250=VECTOR('',#1249,3.1);
#1251=LINE('',#1248,#1250);
#1252=EDGE_CURVE('',#1236,#1247,#1251,.T.);
#1253=ORIENTED_EDGE('',*,*,#1252,.T.);
#1254=CARTESIAN_POINT('',(461.14220066,-50.176326617,320.7));
#1255=VERTEX_POINT('',#1254);
#1256=CARTESIAN_POINT('',(451.610496589,-59.016384168,320.7));
#1257=DIRECTION('',(0.,0.,1.));
#1258=DIRECTION('',(1.,0.,-0.));
#1259=AXIS2_PLACEMENT_3D('',#1256,#1257,#1258);
#1260=CIRCLE('',#1259,13.);
#1261=EDGE_CURVE('',#1247,#1255,#1260,.T.);
#1262=ORIENTED_EDGE('',*,*,#1261,.T.);
#1263=CARTESIAN_POINT('',(461.14220066,-50.176326617,320.7));
#1264=DIRECTION('',(0.,0.,1.));
#1265=VECTOR('',#1264,3.1);
#1266=LINE('',#1263,#1265);
#1267=EDGE_CURVE('',#1255,#1238,#1266,.T.);
#1268=ORIENTED_EDGE('',*,*,#1267,.T.);
#1269=EDGE_LOOP('',(#1245,#1253,#1262,#1268));
#1270=FACE_BOUND('',#1269,.T.);
#1271=CARTESIAN_POINT('',(461.110496589,-67.890503843,299.7));
#1272=VERTEX_POINT('',#1271);
#1273=CARTESIAN_POINT('',(461.110496589,-50.142264493,299.7));
#1274=VERTEX_POINT('',#1273);
#1275=CARTESIAN_POINT('',(451.610496589,-59.016384168,299.7));
#1276=DIRECTION('',(0.,0.,1.));
#1277=DIRECTION('',(1.,0.,-0.));
#1278=AXIS2_PLACEMENT_3D('',#1275,#1276,#1277);
#1279=CIRCLE('',#1278,13.);
#1280=EDGE_CURVE('',#1272,#1274,#1279,.T.);
#1281=ORIENTED_EDGE('',*,*,#1280,.T.);
#1282=CARTESIAN_POINT('',(461.110496589,-50.142264493,302.8));
#1283=VERTEX_POINT('',#1282);
#1284=CARTESIAN_POINT('',(461.110496589,-50.142264493,302.8));
#1285=DIRECTION('',(0.,0.,-1.));
#1286=VECTOR('',#1285,3.1);
#1287=LINE('',#1284,#1286);
#1288=EDGE_CURVE('',#1283,#1274,#1287,.T.);
#1289=ORIENTED_EDGE('',*,*,#1288,.F.);
#1290=CARTESIAN_POINT('',(461.110496589,-67.890503843,302.8));
#1291=VERTEX_POINT('',#1290);
#1292=CARTESIAN_POINT('',(451.610496589,-59.016384168,302.8));
#1293=DIRECTION('',(0.,0.,1.));
#1294=DIRECTION('',(1.,0.,-0.));
#1295=AXIS2_PLACEMENT_3D('',#1292,#1293,#1294);
#1296=CIRCLE('',#1295,13.);
#1297=EDGE_CURVE('',#1291,#1283,#1296,.T.);
#1298=ORIENTED_EDGE('',*,*,#1297,.F.);
#1299=CARTESIAN_POINT('',(461.110496589,-67.890503843,302.8));
#1300=DIRECTION('',(0.,0.,-1.));
#1301=VECTOR('',#1300,3.1);
#1302=LINE('',#1299,#1301);
#1303=EDGE_CURVE('',#1291,#1272,#1302,.T.);
#1304=ORIENTED_EDGE('',*,*,#1303,.T.);
#1305=EDGE_LOOP('',(#1281,#1289,#1298,#1304));
#1306=FACE_BOUND('',#1305,.T.);
#1307=ADVANCED_FACE('',(#1234,#1270,#1306),#1189,.F.);
#1308=CARTESIAN_POINT('',(451.610496589,-59.016384168,320.));
#1309=DIRECTION('',(0.,0.,-1.));
#1310=DIRECTION('',(-1.,0.,0.));
#1311=AXIS2_PLACEMENT_3D('',#1308,#1309,#1310);
#1312=CYLINDRICAL_SURFACE('',#1311,14.5);
#1313=CARTESIAN_POINT('',(437.110496589,-59.016384168,297.));
#1314=VERTEX_POINT('',#1313);
#1315=CARTESIAN_POINT('',(437.110496589,-59.016384168,332.));
#1316=VERTEX_POINT('',#1315);
#1317=CARTESIAN_POINT('',(437.110496589,-59.016384168,297.));
#1318=DIRECTION('',(-0.,-0.,1.));
#1319=VECTOR('',#1318,35.);
#1320=LINE('',#1317,#1319);
#1321=EDGE_CURVE('',#1314,#1316,#1320,.T.);
#1322=ORIENTED_EDGE('',*,*,#1321,.T.);
#1323=CARTESIAN_POINT('',(466.110496589,-59.016384168,332.));
#1324=VERTEX_POINT('',#1323);
#1325=CARTESIAN_POINT('',(451.610496589,-59.016384168,332.));
#1326=DIRECTION('',(0.,0.,1.));
#1327=DIRECTION('',(1.,0.,-0.));
#1328=AXIS2_PLACEMENT_3D('',#1325,#1326,#1327);
#1329=CIRCLE('',#1328,14.5);
#1330=EDGE_CURVE('',#1324,#1316,#1329,.T.);
#1331=ORIENTED_EDGE('',*,*,#1330,.F.);
#1332=CARTESIAN_POINT('',(451.610496589,-59.016384168,332.));
#1333=DIRECTION('',(0.,0.,1.));
#1334=DIRECTION('',(1.,0.,-0.));
#1335=AXIS2_PLACEMENT_3D('',#1332,#1333,#1334);
#1336=CIRCLE('',#1335,14.5);
#1337=EDGE_CURVE('',#1316,#1324,#1336,.T.);
#1338=ORIENTED_EDGE('',*,*,#1337,.F.);
#1339=ORIENTED_EDGE('',*,*,#1321,.F.);
#1340=CARTESIAN_POINT('',(466.110496589,-59.016384168,297.));
#1341=VERTEX_POINT('',#1340);
#1342=CARTESIAN_POINT('',(451.610496589,-59.016384168,297.));
#1343=DIRECTION('',(0.,0.,1.));
#1344=DIRECTION('',(1.,0.,-0.));
#1345=AXIS2_PLACEMENT_3D('',#1342,#1343,#1344);
#1346=CIRCLE('',#1345,14.5);
#1347=EDGE_CURVE('',#1314,#1341,#1346,.T.);
#1348=ORIENTED_EDGE('',*,*,#1347,.T.);
#1349=CARTESIAN_POINT('',(451.610496589,-59.016384168,297.));
#1350=DIRECTION('',(0.,0.,1.));
#1351=DIRECTION('',(1.,0.,-0.));
#1352=AXIS2_PLACEMENT_3D('',#1349,#1350,#1351);
#1353=CIRCLE('',#1352,14.5);
#1354=EDGE_CURVE('',#1341,#1314,#1353,.T.);
#1355=ORIENTED_EDGE('',*,*,#1354,.T.);
#1356=EDGE_LOOP('',(#1322,#1331,#1338,#1339,#1348,#1355));
#1357=FACE_BOUND('',#1356,.T.);
#1358=CARTESIAN_POINT('',(462.127687392,-68.998302702,320.7));
#1359=VERTEX_POINT('',#1358);
#1360=CARTESIAN_POINT('',(462.235172427,-49.148949682,320.7));
#1361=VERTEX_POINT('',#1360);
#1362=CARTESIAN_POINT('',(451.610496589,-59.016384168,320.7));
#1363=DIRECTION('',(0.,0.,1.));
#1364=DIRECTION('',(1.,0.,-0.));
#1365=AXIS2_PLACEMENT_3D('',#1362,#1363,#1364);
#1366=CIRCLE('',#1365,14.5);
#1367=EDGE_CURVE('',#1359,#1361,#1366,.T.);
#1368=ORIENTED_EDGE('',*,*,#1367,.F.);
#1369=CARTESIAN_POINT('',(462.127687392,-68.998302702,323.8));
#1370=VERTEX_POINT('',#1369);
#1371=CARTESIAN_POINT('',(462.127687392,-68.998302702,323.8));
#1372=DIRECTION('',(0.,0.,-1.));
#1373=VECTOR('',#1372,3.1);
#1374=LINE('',#1371,#1373);
#1375=EDGE_CURVE('',#1370,#1359,#1374,.T.);
#1376=ORIENTED_EDGE('',*,*,#1375,.F.);
#1377=CARTESIAN_POINT('',(462.235172427,-49.148949682,323.8));
#1378=VERTEX_POINT('',#1377);
#1379=CARTESIAN_POINT('',(451.610496589,-59.016384168,323.8));
#1380=DIRECTION('',(0.,0.,1.));
#1381=DIRECTION('',(1.,0.,-0.));
#1382=AXIS2_PLACEMENT_3D('',#1379,#1380,#1381);
#1383=CIRCLE('',#1382,14.5);
#1384=EDGE_CURVE('',#1370,#1378,#1383,.T.);
#1385=ORIENTED_EDGE('',*,*,#1384,.T.);
#1386=CARTESIAN_POINT('',(462.235172427,-49.148949682,320.7));
#1387=DIRECTION('',(0.,0.,1.));
#1388=VECTOR('',#1387,3.1);
#1389=LINE('',#1386,#1388);
#1390=EDGE_CURVE('',#1361,#1378,#1389,.T.);
#1391=ORIENTED_EDGE('',*,*,#1390,.F.);
#1392=EDGE_LOOP('',(#1368,#1376,#1385,#1391));
#1393=FACE_BOUND('',#1392,.T.);
#1394=CARTESIAN_POINT('',(462.196022905,-49.106962761,299.7));
#1395=VERTEX_POINT('',#1394);
#1396=CARTESIAN_POINT('',(462.196022905,-49.106962761,302.8));
#1397=VERTEX_POINT('',#1396);
#1398=CARTESIAN_POINT('',(462.196022905,-49.106962761,299.7));
#1399=DIRECTION('',(0.,0.,1.));
#1400=VECTOR('',#1399,3.1);
#1401=LINE('',#1398,#1400);
#1402=EDGE_CURVE('',#1395,#1397,#1401,.T.);
#1403=ORIENTED_EDGE('',*,*,#1402,.F.);
#1404=CARTESIAN_POINT('',(462.196022905,-68.925805575,299.7));
#1405=VERTEX_POINT('',#1404);
#1406=CARTESIAN_POINT('',(451.610496589,-59.016384168,299.7));
#1407=DIRECTION('',(0.,0.,1.));
#1408=DIRECTION('',(1.,0.,-0.));
#1409=AXIS2_PLACEMENT_3D('',#1406,#1407,#1408);
#1410=CIRCLE('',#1409,14.5);
#1411=EDGE_CURVE('',#1405,#1395,#1410,.T.);
#1412=ORIENTED_EDGE('',*,*,#1411,.F.);
#1413=CARTESIAN_POINT('',(462.196022905,-68.925805575,302.8));
#1414=VERTEX_POINT('',#1413);
#1415=CARTESIAN_POINT('',(462.196022905,-68.925805575,302.8));
#1416=DIRECTION('',(0.,0.,-1.));
#1417=VECTOR('',#1416,3.1);
#1418=LINE('',#1415,#1417);
#1419=EDGE_CURVE('',#1414,#1405,#1418,.T.);
#1420=ORIENTED_EDGE('',*,*,#1419,.F.);
#1421=CARTESIAN_POINT('',(451.610496589,-59.016384168,302.8));
#1422=DIRECTION('',(0.,0.,1.));
#1423=DIRECTION('',(1.,0.,-0.));
#1424=AXIS2_PLACEMENT_3D('',#1421,#1422,#1423);
#1425=CIRCLE('',#1424,14.5);
#1426=EDGE_CURVE('',#1414,#1397,#1425,.T.);
#1427=ORIENTED_EDGE('',*,*,#1426,.T.);
#1428=EDGE_LOOP('',(#1403,#1412,#1420,#1427));
#1429=FACE_BOUND('',#1428,.T.);
#1430=ADVANCED_FACE('',(#1357,#1393,#1429),#1312,.T.);
#1431=CARTESIAN_POINT('',(451.610496589,-59.016384168,332.));
#1432=DIRECTION('',(0.,0.,1.));
#1433=DIRECTION('',(1.,0.,0.));
#1434=AXIS2_PLACEMENT_3D('',#1431,#1432,#1433);
#1435=PLANE('',#1434);
#1436=ORIENTED_EDGE('',*,*,#1224,.F.);
#1437=ORIENTED_EDGE('',*,*,#1231,.F.);
#1438=EDGE_LOOP('',(#1436,#1437));
#1439=FACE_BOUND('',#1438,.T.);
#1440=ORIENTED_EDGE('',*,*,#1330,.T.);
#1441=ORIENTED_EDGE('',*,*,#1337,.T.);
#1442=EDGE_LOOP('',(#1440,#1441));
#1443=FACE_BOUND('',#1442,.T.);
#1444=ADVANCED_FACE('',(#1439,#1443),#1435,.T.);
#1445=CARTESIAN_POINT('',(451.610496589,-59.016384168,297.));
#1446=DIRECTION('',(0.,0.,1.));
#1447=DIRECTION('',(1.,0.,0.));
#1448=AXIS2_PLACEMENT_3D('',#1445,#1446,#1447);
#1449=PLANE('',#1448);
#1450=ORIENTED_EDGE('',*,*,#1207,.T.);
#1451=ORIENTED_EDGE('',*,*,#1214,.T.);
#1452=EDGE_LOOP('',(#1450,#1451));
#1453=FACE_BOUND('',#1452,.T.);
#1454=ORIENTED_EDGE('',*,*,#1347,.F.);
#1455=ORIENTED_EDGE('',*,*,#1354,.F.);
#1456=EDGE_LOOP('',(#1454,#1455));
#1457=FACE_BOUND('',#1456,.T.);
#1458=ADVANCED_FACE('',(#1453,#1457),#1449,.F.);
#1459=CARTESIAN_POINT('',(467.278294664,-40.407744533,320.7));
#1460=DIRECTION('',(0.,0.,1.));
#1461=DIRECTION('',(0.173648178,-0.984807753,0.));
#1462=AXIS2_PLACEMENT_3D('',#1459,#1460,#1461);
#1463=PLANE('',#1462);
#1464=CARTESIAN_POINT('',(470.57761004,-59.11909184,320.7));
#1465=DIRECTION('',(0.,0.,1.));
#1466=DIRECTION('',(1.,0.,-0.));
#1467=AXIS2_PLACEMENT_3D('',#1464,#1465,#1466);
#1468=CIRCLE('',#1467,13.);
#1469=EDGE_CURVE('',#1247,#1359,#1468,.T.);
#1470=ORIENTED_EDGE('',*,*,#1469,.T.);
#1471=ORIENTED_EDGE('',*,*,#1367,.T.);
#1472=CARTESIAN_POINT('',(470.57761004,-59.11909184,320.7));
#1473=DIRECTION('',(0.,0.,1.));
#1474=DIRECTION('',(1.,0.,-0.));
#1475=AXIS2_PLACEMENT_3D('',#1472,#1473,#1474);
#1476=CIRCLE('',#1475,13.);
#1477=EDGE_CURVE('',#1361,#1255,#1476,.T.);
#1478=ORIENTED_EDGE('',*,*,#1477,.T.);
#1479=ORIENTED_EDGE('',*,*,#1261,.F.);
#1480=EDGE_LOOP('',(#1470,#1471,#1478,#1479));
#1481=FACE_BOUND('',#1480,.T.);
#1482=ADVANCED_FACE('',(#1481),#1463,.T.);
#1483=CARTESIAN_POINT('',(467.278294664,-40.407744533,323.8));
#1484=DIRECTION('',(0.,0.,1.));
#1485=DIRECTION('',(0.173648178,-0.984807753,0.));
#1486=AXIS2_PLACEMENT_3D('',#1483,#1484,#1485);
#1487=PLANE('',#1486);
#1488=ORIENTED_EDGE('',*,*,#1244,.T.);
#1489=CARTESIAN_POINT('',(470.57761004,-59.11909184,323.8));
#1490=DIRECTION('',(0.,0.,1.));
#1491=DIRECTION('',(1.,0.,-0.));
#1492=AXIS2_PLACEMENT_3D('',#1489,#1490,#1491);
#1493=CIRCLE('',#1492,13.);
#1494=EDGE_CURVE('',#1378,#1238,#1493,.T.);
#1495=ORIENTED_EDGE('',*,*,#1494,.F.);
#1496=ORIENTED_EDGE('',*,*,#1384,.F.);
#1497=CARTESIAN_POINT('',(470.57761004,-59.11909184,323.8));
#1498=DIRECTION('',(0.,0.,1.));
#1499=DIRECTION('',(1.,0.,-0.));
#1500=AXIS2_PLACEMENT_3D('',#1497,#1498,#1499);
#1501=CIRCLE('',#1500,13.);
#1502=EDGE_CURVE('',#1236,#1370,#1501,.T.);
#1503=ORIENTED_EDGE('',*,*,#1502,.F.);
#1504=EDGE_LOOP('',(#1488,#1495,#1496,#1503));
#1505=FACE_BOUND('',#1504,.T.);
#1506=ADVANCED_FACE('',(#1505),#1487,.F.);
#1507=CARTESIAN_POINT('',(470.57761004,-59.11909184,323.5));
#1508=DIRECTION('',(0.,0.,-1.));
#1509=DIRECTION('',(-0.173648178,0.984807753,0.));
#1510=AXIS2_PLACEMENT_3D('',#1507,#1508,#1509);
#1511=CYLINDRICAL_SURFACE('',#1510,13.);
#1512=ORIENTED_EDGE('',*,*,#1502,.T.);
#1513=ORIENTED_EDGE('',*,*,#1375,.T.);
#1514=ORIENTED_EDGE('',*,*,#1469,.F.);
#1515=ORIENTED_EDGE('',*,*,#1252,.F.);
#1516=EDGE_LOOP('',(#1512,#1513,#1514,#1515));
#1517=FACE_BOUND('',#1516,.T.);
#1518=ADVANCED_FACE('',(#1517),#1511,.F.);
#1519=CARTESIAN_POINT('',(470.57761004,-59.11909184,323.5));
#1520=DIRECTION('',(0.,0.,-1.));
#1521=DIRECTION('',(-0.173648178,0.984807753,0.));
#1522=AXIS2_PLACEMENT_3D('',#1519,#1520,#1521);
#1523=CYLINDRICAL_SURFACE('',#1522,13.);
#1524=ORIENTED_EDGE('',*,*,#1477,.F.);
#1525=ORIENTED_EDGE('',*,*,#1390,.T.);
#1526=ORIENTED_EDGE('',*,*,#1494,.T.);
#1527=ORIENTED_EDGE('',*,*,#1267,.F.);
#1528=EDGE_LOOP('',(#1524,#1525,#1526,#1527));
#1529=FACE_BOUND('',#1528,.T.);
#1530=ADVANCED_FACE('',(#1529),#1523,.F.);
#1531=CARTESIAN_POINT('',(470.610496589,-59.016384168,302.5));
#1532=DIRECTION('',(0.,0.,-1.));
#1533=DIRECTION('',(-1.,0.,0.));
#1534=AXIS2_PLACEMENT_3D('',#1531,#1532,#1533);
#1535=CYLINDRICAL_SURFACE('',#1534,13.);
#1536=ORIENTED_EDGE('',*,*,#1419,.T.);
#1537=CARTESIAN_POINT('',(470.610496589,-59.016384168,299.7));
#1538=DIRECTION('',(0.,0.,1.));
#1539=DIRECTION('',(1.,0.,-0.));
#1540=AXIS2_PLACEMENT_3D('',#1537,#1538,#1539);
#1541=CIRCLE('',#1540,13.);
#1542=EDGE_CURVE('',#1272,#1405,#1541,.T.);
#1543=ORIENTED_EDGE('',*,*,#1542,.F.);
#1544=ORIENTED_EDGE('',*,*,#1303,.F.);
#1545=CARTESIAN_POINT('',(470.610496589,-59.016384168,302.8));
#1546=DIRECTION('',(0.,0.,1.));
#1547=DIRECTION('',(1.,0.,-0.));
#1548=AXIS2_PLACEMENT_3D('',#1545,#1546,#1547);
#1549=CIRCLE('',#1548,13.);
#1550=EDGE_CURVE('',#1291,#1414,#1549,.T.);
#1551=ORIENTED_EDGE('',*,*,#1550,.T.);
#1552=EDGE_LOOP('',(#1536,#1543,#1544,#1551));
#1553=FACE_BOUND('',#1552,.T.);
#1554=ADVANCED_FACE('',(#1553),#1535,.F.);
#1555=CARTESIAN_POINT('',(470.610496589,-59.016384168,302.5));
#1556=DIRECTION('',(0.,0.,-1.));
#1557=DIRECTION('',(-1.,0.,0.));
#1558=AXIS2_PLACEMENT_3D('',#1555,#1556,#1557);
#1559=CYLINDRICAL_SURFACE('',#1558,13.);
#1560=ORIENTED_EDGE('',*,*,#1402,.T.);
#1561=CARTESIAN_POINT('',(470.610496589,-59.016384168,302.8));
#1562=DIRECTION('',(0.,0.,1.));
#1563=DIRECTION('',(1.,0.,-0.));
#1564=AXIS2_PLACEMENT_3D('',#1561,#1562,#1563);
#1565=CIRCLE('',#1564,13.);
#1566=EDGE_CURVE('',#1397,#1283,#1565,.T.);
#1567=ORIENTED_EDGE('',*,*,#1566,.T.);
#1568=ORIENTED_EDGE('',*,*,#1288,.T.);
#1569=CARTESIAN_POINT('',(470.610496589,-59.016384168,299.7));
#1570=DIRECTION('',(0.,0.,1.));
#1571=DIRECTION('',(1.,0.,-0.));
#1572=AXIS2_PLACEMENT_3D('',#1569,#1570,#1571);
#1573=CIRCLE('',#1572,13.);
#1574=EDGE_CURVE('',#1395,#1274,#1573,.T.);
#1575=ORIENTED_EDGE('',*,*,#1574,.F.);
#1576=EDGE_LOOP('',(#1560,#1567,#1568,#1575));
#1577=FACE_BOUND('',#1576,.T.);
#1578=ADVANCED_FACE('',(#1577),#1559,.F.);
#1579=CARTESIAN_POINT('',(451.610496589,-59.016384168,302.8));
#1580=DIRECTION('',(0.,0.,1.));
#1581=DIRECTION('',(1.,0.,0.));
#1582=AXIS2_PLACEMENT_3D('',#1579,#1580,#1581);
#1583=PLANE('',#1582);
#1584=ORIENTED_EDGE('',*,*,#1550,.F.);
#1585=ORIENTED_EDGE('',*,*,#1297,.T.);
#1586=ORIENTED_EDGE('',*,*,#1566,.F.);
#1587=ORIENTED_EDGE('',*,*,#1426,.F.);
#1588=EDGE_LOOP('',(#1584,#1585,#1586,#1587));
#1589=FACE_BOUND('',#1588,.T.);
#1590=ADVANCED_FACE('',(#1589),#1583,.F.);
#1591=CARTESIAN_POINT('',(451.610496589,-59.016384168,299.7));
#1592=DIRECTION('',(0.,0.,1.));
#1593=DIRECTION('',(1.,0.,0.));
#1594=AXIS2_PLACEMENT_3D('',#1591,#1592,#1593);
#1595=PLANE('',#1594);
#1596=ORIENTED_EDGE('',*,*,#1280,.F.);
#1597=ORIENTED_EDGE('',*,*,#1542,.T.);
#1598=ORIENTED_EDGE('',*,*,#1411,.T.);
#1599=ORIENTED_EDGE('',*,*,#1574,.T.);
#1600=EDGE_LOOP('',(#1596,#1597,#1598,#1599));
#1601=FACE_BOUND('',#1600,.T.);
#1602=ADVANCED_FACE('',(#1601),#1595,.T.);
#1603=CLOSED_SHELL('',(#1307,#1430,#1444,#1458,#1482,#1506,#1518,#1530,#1554,#1578,#1590,#1602));
#1604=MANIFOLD_SOLID_BREP('K\S\vrper 01',#1603);
#1184=STYLED_ITEM('',(#294),#1604);
#1606=CARTESIAN_POINT('',(424.610496589,-43.4279269,320.));
#1607=DIRECTION('',(0.,0.,-1.));
#1608=DIRECTION('',(0.5,-0.866025404,0.));
#1609=AXIS2_PLACEMENT_3D('',#1606,#1607,#1608);
#1610=CYLINDRICAL_SURFACE('',#1609,13.25);
#1611=CARTESIAN_POINT('',(431.235496589,-54.9027635,297.));
#1612=VERTEX_POINT('',#1611);
#1613=CARTESIAN_POINT('',(431.235496589,-54.9027635,332.));
#1614=VERTEX_POINT('',#1613);
#1615=CARTESIAN_POINT('',(431.235496589,-54.9027635,297.));
#1616=DIRECTION('',(-0.,-0.,1.));
#1617=VECTOR('',#1616,35.);
#1618=LINE('',#1615,#1617);
#1619=EDGE_CURVE('',#1612,#1614,#1618,.T.);
#1620=ORIENTED_EDGE('',*,*,#1619,.F.);
#1621=CARTESIAN_POINT('',(437.860496589,-43.4279269,297.));
#1622=VERTEX_POINT('',#1621);
#1623=CARTESIAN_POINT('',(424.610496589,-43.4279269,297.));
#1624=DIRECTION('',(0.,0.,1.));
#1625=DIRECTION('',(1.,0.,-0.));
#1626=AXIS2_PLACEMENT_3D('',#1623,#1624,#1625);
#1627=CIRCLE('',#1626,13.25);
#1628=EDGE_CURVE('',#1622,#1612,#1627,.T.);
#1629=ORIENTED_EDGE('',*,*,#1628,.F.);
#1630=CARTESIAN_POINT('',(424.610496589,-43.4279269,297.));
#1631=DIRECTION('',(0.,0.,1.));
#1632=DIRECTION('',(1.,0.,-0.));
#1633=AXIS2_PLACEMENT_3D('',#1630,#1631,#1632);
#1634=CIRCLE('',#1633,13.25);
#1635=EDGE_CURVE('',#1612,#1622,#1634,.T.);
#1636=ORIENTED_EDGE('',*,*,#1635,.F.);
#1637=ORIENTED_EDGE('',*,*,#1619,.T.);
#1638=CARTESIAN_POINT('',(437.860496589,-43.4279269,332.));
#1639=VERTEX_POINT('',#1638);
#1640=CARTESIAN_POINT('',(424.610496589,-43.4279269,332.));
#1641=DIRECTION('',(0.,0.,1.));
#1642=DIRECTION('',(1.,0.,-0.));
#1643=AXIS2_PLACEMENT_3D('',#1640,#1641,#1642);
#1644=CIRCLE('',#1643,13.25);
#1645=EDGE_CURVE('',#1614,#1639,#1644,.T.);
#1646=ORIENTED_EDGE('',*,*,#1645,.T.);
#1647=CARTESIAN_POINT('',(424.610496589,-43.4279269,332.));
#1648=DIRECTION('',(0.,0.,1.));
#1649=DIRECTION('',(1.,0.,-0.));
#1650=AXIS2_PLACEMENT_3D('',#1647,#1648,#1649);
#1651=CIRCLE('',#1650,13.25);
#1652=EDGE_CURVE('',#1639,#1614,#1651,.T.);
#1653=ORIENTED_EDGE('',*,*,#1652,.T.);
#1654=EDGE_LOOP('',(#1620,#1629,#1636,#1637,#1646,#1653));
#1655=FACE_BOUND('',#1654,.T.);
#1656=CARTESIAN_POINT('',(427.708999073,-30.545311391,323.8));
#1657=VERTEX_POINT('',#1656);
#1658=CARTESIAN_POINT('',(411.946015612,-39.532619263,323.8));
#1659=VERTEX_POINT('',#1658);
#1660=CARTESIAN_POINT('',(424.610496589,-43.4279269,323.8));
#1661=DIRECTION('',(0.,0.,1.));
#1662=DIRECTION('',(1.,0.,-0.));
#1663=AXIS2_PLACEMENT_3D('',#1660,#1661,#1662);
#1664=CIRCLE('',#1663,13.25);
#1665=EDGE_CURVE('',#1657,#1659,#1664,.T.);
#1666=ORIENTED_EDGE('',*,*,#1665,.F.);
#1667=CARTESIAN_POINT('',(427.708999073,-30.545311391,320.7));
#1668=VERTEX_POINT('',#1667);
#1669=CARTESIAN_POINT('',(427.708999073,-30.545311391,323.8));
#1670=DIRECTION('',(0.,0.,-1.));
#1671=VECTOR('',#1670,3.1);
#1672=LINE('',#1669,#1671);
#1673=EDGE_CURVE('',#1657,#1668,#1672,.T.);
#1674=ORIENTED_EDGE('',*,*,#1673,.T.);
#1675=CARTESIAN_POINT('',(411.946015612,-39.532619263,320.7));
#1676=VERTEX_POINT('',#1675);
#1677=CARTESIAN_POINT('',(424.610496589,-43.4279269,320.7));
#1678=DIRECTION('',(0.,0.,1.));
#1679=DIRECTION('',(1.,0.,-0.));
#1680=AXIS2_PLACEMENT_3D('',#1677,#1678,#1679);
#1681=CIRCLE('',#1680,13.25);
#1682=EDGE_CURVE('',#1668,#1676,#1681,.T.);
#1683=ORIENTED_EDGE('',*,*,#1682,.T.);
#1684=CARTESIAN_POINT('',(411.946015612,-39.532619263,320.7));
#1685=DIRECTION('',(0.,0.,1.));
#1686=VECTOR('',#1685,3.1);
#1687=LINE('',#1684,#1686);
#1688=EDGE_CURVE('',#1676,#1659,#1687,.T.);
#1689=ORIENTED_EDGE('',*,*,#1688,.T.);
#1690=EDGE_LOOP('',(#1666,#1674,#1683,#1689));
#1691=FACE_BOUND('',#1690,.T.);
#1692=CARTESIAN_POINT('',(427.616409646,-30.523393328,299.7));
#1693=VERTEX_POINT('',#1692);
#1694=CARTESIAN_POINT('',(411.931886164,-39.578857183,299.7));
#1695=VERTEX_POINT('',#1694);
#1696=CARTESIAN_POINT('',(424.610496589,-43.4279269,299.7));
#1697=DIRECTION('',(0.,0.,1.));
#1698=DIRECTION('',(1.,0.,-0.));
#1699=AXIS2_PLACEMENT_3D('',#1696,#1697,#1698);
#1700=CIRCLE('',#1699,13.25);
#1701=EDGE_CURVE('',#1693,#1695,#1700,.T.);
#1702=ORIENTED_EDGE('',*,*,#1701,.T.);
#1703=CARTESIAN_POINT('',(411.931886164,-39.578857183,302.8));
#1704=VERTEX_POINT('',#1703);
#1705=CARTESIAN_POINT('',(411.931886164,-39.578857183,302.8));
#1706=DIRECTION('',(0.,0.,-1.));
#1707=VECTOR('',#1706,3.1);
#1708=LINE('',#1705,#1707);
#1709=EDGE_CURVE('',#1704,#1695,#1708,.T.);
#1710=ORIENTED_EDGE('',*,*,#1709,.F.);
#1711=CARTESIAN_POINT('',(427.616409646,-30.523393328,302.8));
#1712=VERTEX_POINT('',#1711);
#1713=CARTESIAN_POINT('',(424.610496589,-43.4279269,302.8));
#1714=DIRECTION('',(0.,0.,1.));
#1715=DIRECTION('',(1.,0.,-0.));
#1716=AXIS2_PLACEMENT_3D('',#1713,#1714,#1715);
#1717=CIRCLE('',#1716,13.25);
#1718=EDGE_CURVE('',#1712,#1704,#1717,.T.);
#1719=ORIENTED_EDGE('',*,*,#1718,.F.);
#1720=CARTESIAN_POINT('',(427.616409646,-30.523393328,302.8));
#1721=DIRECTION('',(0.,0.,-1.));
#1722=VECTOR('',#1721,3.1);
#1723=LINE('',#1720,#1722);
#1724=EDGE_CURVE('',#1712,#1693,#1723,.T.);
#1725=ORIENTED_EDGE('',*,*,#1724,.T.);
#1726=EDGE_LOOP('',(#1702,#1710,#1719,#1725));
#1727=FACE_BOUND('',#1726,.T.);
#1728=ADVANCED_FACE('',(#1655,#1691,#1727),#1610,.F.);
#1729=CARTESIAN_POINT('',(424.610496589,-43.4279269,320.));
#1730=DIRECTION('',(0.,0.,-1.));
#1731=DIRECTION('',(0.5,-0.866025404,0.));
#1732=AXIS2_PLACEMENT_3D('',#1729,#1730,#1731);
#1733=CYLINDRICAL_SURFACE('',#1732,14.5);
#1734=CARTESIAN_POINT('',(431.860496589,-55.985295255,297.));
#1735=VERTEX_POINT('',#1734);
#1736=CARTESIAN_POINT('',(431.860496589,-55.985295255,332.));
#1737=VERTEX_POINT('',#1736);
#1738=CARTESIAN_POINT('',(431.860496589,-55.985295255,297.));
#1739=DIRECTION('',(-0.,-0.,1.));
#1740=VECTOR('',#1739,35.);
#1741=LINE('',#1738,#1740);
#1742=EDGE_CURVE('',#1735,#1737,#1741,.T.);
#1743=ORIENTED_EDGE('',*,*,#1742,.T.);
#1744=CARTESIAN_POINT('',(439.110496589,-43.4279269,332.));
#1745=VERTEX_POINT('',#1744);
#1746=CARTESIAN_POINT('',(424.610496589,-43.4279269,332.));
#1747=DIRECTION('',(0.,0.,1.));
#1748=DIRECTION('',(1.,0.,-0.));
#1749=AXIS2_PLACEMENT_3D('',#1746,#1747,#1748);
#1750=CIRCLE('',#1749,14.5);
#1751=EDGE_CURVE('',#1745,#1737,#1750,.T.);
#1752=ORIENTED_EDGE('',*,*,#1751,.F.);
#1753=CARTESIAN_POINT('',(424.610496589,-43.4279269,332.));
#1754=DIRECTION('',(0.,0.,1.));
#1755=DIRECTION('',(1.,0.,-0.));
#1756=AXIS2_PLACEMENT_3D('',#1753,#1754,#1755);
#1757=CIRCLE('',#1756,14.5);
#1758=EDGE_CURVE('',#1737,#1745,#1757,.T.);
#1759=ORIENTED_EDGE('',*,*,#1758,.F.);
#1760=ORIENTED_EDGE('',*,*,#1742,.F.);
#1761=CARTESIAN_POINT('',(439.110496589,-43.4279269,297.));
#1762=VERTEX_POINT('',#1761);
#1763=CARTESIAN_POINT('',(424.610496589,-43.4279269,297.));
#1764=DIRECTION('',(0.,0.,1.));
#1765=DIRECTION('',(1.,0.,-0.));
#1766=AXIS2_PLACEMENT_3D('',#1763,#1764,#1765);
#1767=CIRCLE('',#1766,14.5);
#1768=EDGE_CURVE('',#1735,#1762,#1767,.T.);
#1769=ORIENTED_EDGE('',*,*,#1768,.T.);
#1770=CARTESIAN_POINT('',(424.610496589,-43.4279269,297.));
#1771=DIRECTION('',(0.,0.,1.));
#1772=DIRECTION('',(1.,0.,-0.));
#1773=AXIS2_PLACEMENT_3D('',#1770,#1771,#1772);
#1774=CIRCLE('',#1773,14.5);
#1775=EDGE_CURVE('',#1762,#1735,#1774,.T.);
#1776=ORIENTED_EDGE('',*,*,#1775,.T.);
#1777=EDGE_LOOP('',(#1743,#1752,#1759,#1760,#1769,#1776));
#1778=FACE_BOUND('',#1777,.T.);
#1779=CARTESIAN_POINT('',(427.996496216,-29.328813221,320.7));
#1780=VERTEX_POINT('',#1779);
#1781=CARTESIAN_POINT('',(410.752709735,-39.16040496,320.7));
#1782=VERTEX_POINT('',#1781);
#1783=CARTESIAN_POINT('',(424.610496589,-43.4279269,320.7));
#1784=DIRECTION('',(0.,0.,1.));
#1785=DIRECTION('',(1.,0.,-0.));
#1786=AXIS2_PLACEMENT_3D('',#1783,#1784,#1785);
#1787=CIRCLE('',#1786,14.5);
#1788=EDGE_CURVE('',#1780,#1782,#1787,.T.);
#1789=ORIENTED_EDGE('',*,*,#1788,.F.);
#1790=CARTESIAN_POINT('',(427.996496216,-29.328813221,323.8));
#1791=VERTEX_POINT('',#1790);
#1792=CARTESIAN_POINT('',(427.996496216,-29.328813221,323.8));
#1793=DIRECTION('',(0.,0.,-1.));
#1794=VECTOR('',#1793,3.1);
#1795=LINE('',#1792,#1794);
#1796=EDGE_CURVE('',#1791,#1780,#1795,.T.);
#1797=ORIENTED_EDGE('',*,*,#1796,.F.);
#1798=CARTESIAN_POINT('',(410.752709735,-39.16040496,323.8));
#1799=VERTEX_POINT('',#1798);
#1800=CARTESIAN_POINT('',(424.610496589,-43.4279269,323.8));
#1801=DIRECTION('',(0.,0.,1.));
#1802=DIRECTION('',(1.,0.,-0.));
#1803=AXIS2_PLACEMENT_3D('',#1800,#1801,#1802);
#1804=CIRCLE('',#1803,14.5);
#1805=EDGE_CURVE('',#1791,#1799,#1804,.T.);
#1806=ORIENTED_EDGE('',*,*,#1805,.T.);
#1807=CARTESIAN_POINT('',(410.752709735,-39.16040496,320.7));
#1808=DIRECTION('',(0.,0.,1.));
#1809=VECTOR('',#1808,3.1);
#1810=LINE('',#1807,#1809);
#1811=EDGE_CURVE('',#1782,#1799,#1810,.T.);
#1812=ORIENTED_EDGE('',*,*,#1811,.F.);
#1813=EDGE_LOOP('',(#1789,#1797,#1806,#1812));
#1814=FACE_BOUND('',#1813,.T.);
#1815=CARTESIAN_POINT('',(410.735922756,-39.215302901,299.7));
#1816=VERTEX_POINT('',#1815);
#1817=CARTESIAN_POINT('',(410.735922756,-39.215302901,302.8));
#1818=VERTEX_POINT('',#1817);
#1819=CARTESIAN_POINT('',(410.735922756,-39.215302901,299.7));
#1820=DIRECTION('',(0.,0.,1.));
#1821=VECTOR('',#1820,3.1);
#1822=LINE('',#1819,#1821);
#1823=EDGE_CURVE('',#1816,#1818,#1822,.T.);
#1824=ORIENTED_EDGE('',*,*,#1823,.F.);
#1825=CARTESIAN_POINT('',(427.899544106,-29.305881495,299.7));
#1826=VERTEX_POINT('',#1825);
#1827=CARTESIAN_POINT('',(424.610496589,-43.4279269,299.7));
#1828=DIRECTION('',(0.,0.,1.));
#1829=DIRECTION('',(1.,0.,-0.));
#1830=AXIS2_PLACEMENT_3D('',#1827,#1828,#1829);
#1831=CIRCLE('',#1830,14.5);
#1832=EDGE_CURVE('',#1826,#1816,#1831,.T.);
#1833=ORIENTED_EDGE('',*,*,#1832,.F.);
#1834=CARTESIAN_POINT('',(427.899544106,-29.305881495,302.8));
#1835=VERTEX_POINT('',#1834);
#1836=CARTESIAN_POINT('',(427.899544106,-29.305881495,302.8));
#1837=DIRECTION('',(0.,0.,-1.));
#1838=VECTOR('',#1837,3.1);
#1839=LINE('',#1836,#1838);
#1840=EDGE_CURVE('',#1835,#1826,#1839,.T.);
#1841=ORIENTED_EDGE('',*,*,#1840,.F.);
#1842=CARTESIAN_POINT('',(424.610496589,-43.4279269,302.8));
#1843=DIRECTION('',(0.,0.,1.));
#1844=DIRECTION('',(1.,0.,-0.));
#1845=AXIS2_PLACEMENT_3D('',#1842,#1843,#1844);
#1846=CIRCLE('',#1845,14.5);
#1847=EDGE_CURVE('',#1835,#1818,#1846,.T.);
#1848=ORIENTED_EDGE('',*,*,#1847,.T.);
#1849=EDGE_LOOP('',(#1824,#1833,#1841,#1848));
#1850=FACE_BOUND('',#1849,.T.);
#1851=ADVANCED_FACE('',(#1778,#1814,#1850),#1733,.T.);
#1852=CARTESIAN_POINT('',(424.610496589,-43.4279269,332.));
#1853=DIRECTION('',(0.,0.,1.));
#1854=DIRECTION('',(-0.5,0.866025404,0.));
#1855=AXIS2_PLACEMENT_3D('',#1852,#1853,#1854);
#1856=PLANE('',#1855);
#1857=ORIENTED_EDGE('',*,*,#1645,.F.);
#1858=ORIENTED_EDGE('',*,*,#1652,.F.);
#1859=EDGE_LOOP('',(#1857,#1858));
#1860=FACE_BOUND('',#1859,.T.);
#1861=ORIENTED_EDGE('',*,*,#1751,.T.);
#1862=ORIENTED_EDGE('',*,*,#1758,.T.);
#1863=EDGE_LOOP('',(#1861,#1862));
#1864=FACE_BOUND('',#1863,.T.);
#1865=ADVANCED_FACE('',(#1860,#1864),#1856,.T.);
#1866=CARTESIAN_POINT('',(424.610496589,-43.4279269,297.));
#1867=DIRECTION('',(0.,0.,1.));
#1868=DIRECTION('',(-0.5,0.866025404,0.));
#1869=AXIS2_PLACEMENT_3D('',#1866,#1867,#1868);
#1870=PLANE('',#1869);
#1871=ORIENTED_EDGE('',*,*,#1628,.T.);
#1872=ORIENTED_EDGE('',*,*,#1635,.T.);
#1873=EDGE_LOOP('',(#1871,#1872));
#1874=FACE_BOUND('',#1873,.T.);
#1875=ORIENTED_EDGE('',*,*,#1768,.F.);
#1876=ORIENTED_EDGE('',*,*,#1775,.F.);
#1877=EDGE_LOOP('',(#1875,#1876));
#1878=FACE_BOUND('',#1877,.T.);
#1879=ADVANCED_FACE('',(#1874,#1878),#1870,.F.);
#1880=CARTESIAN_POINT('',(400.661042897,-39.163535562,320.7));
#1881=DIRECTION('',(0.,0.,1.));
#1882=DIRECTION('',(0.766044443,0.64278761,0.));
#1883=AXIS2_PLACEMENT_3D('',#1880,#1881,#1882);
#1884=PLANE('',#1883);
#1885=CARTESIAN_POINT('',(415.215887317,-26.950570978,320.7));
#1886=DIRECTION('',(0.,0.,1.));
#1887=DIRECTION('',(-0.5,0.866025404,0.));
#1888=AXIS2_PLACEMENT_3D('',#1885,#1886,#1887);
#1889=CIRCLE('',#1888,13.);
#1890=EDGE_CURVE('',#1668,#1780,#1889,.T.);
#1891=ORIENTED_EDGE('',*,*,#1890,.T.);
#1892=ORIENTED_EDGE('',*,*,#1788,.T.);
#1893=CARTESIAN_POINT('',(415.215887317,-26.950570978,320.7));
#1894=DIRECTION('',(0.,0.,1.));
#1895=DIRECTION('',(-0.5,0.866025404,0.));
#1896=AXIS2_PLACEMENT_3D('',#1893,#1894,#1895);
#1897=CIRCLE('',#1896,13.);
#1898=EDGE_CURVE('',#1782,#1676,#1897,.T.);
#1899=ORIENTED_EDGE('',*,*,#1898,.T.);
#1900=ORIENTED_EDGE('',*,*,#1682,.F.);
#1901=EDGE_LOOP('',(#1891,#1892,#1899,#1900));
#1902=FACE_BOUND('',#1901,.T.);
#1903=ADVANCED_FACE('',(#1902),#1884,.T.);
#1904=CARTESIAN_POINT('',(400.661042897,-39.163535562,323.8));
#1905=DIRECTION('',(0.,0.,1.));
#1906=DIRECTION('',(0.766044443,0.64278761,0.));
#1907=AXIS2_PLACEMENT_3D('',#1904,#1905,#1906);
#1908=PLANE('',#1907);
#1909=ORIENTED_EDGE('',*,*,#1665,.T.);
#1910=CARTESIAN_POINT('',(415.215887317,-26.950570978,323.8));
#1911=DIRECTION('',(0.,0.,1.));
#1912=DIRECTION('',(-0.5,0.866025404,0.));
#1913=AXIS2_PLACEMENT_3D('',#1910,#1911,#1912);
#1914=CIRCLE('',#1913,13.);
#1915=EDGE_CURVE('',#1799,#1659,#1914,.T.);
#1916=ORIENTED_EDGE('',*,*,#1915,.F.);
#1917=ORIENTED_EDGE('',*,*,#1805,.F.);
#1918=CARTESIAN_POINT('',(415.215887317,-26.950570978,323.8));
#1919=DIRECTION('',(0.,0.,1.));
#1920=DIRECTION('',(-0.5,0.866025404,0.));
#1921=AXIS2_PLACEMENT_3D('',#1918,#1919,#1920);
#1922=CIRCLE('',#1921,13.);
#1923=EDGE_CURVE('',#1657,#1791,#1922,.T.);
#1924=ORIENTED_EDGE('',*,*,#1923,.F.);
#1925=EDGE_LOOP('',(#1909,#1916,#1917,#1924));
#1926=FACE_BOUND('',#1925,.T.);
#1927=ADVANCED_FACE('',(#1926),#1908,.F.);
#1928=CARTESIAN_POINT('',(415.215887317,-26.950570978,323.5));
#1929=DIRECTION('',(-0.,0.,-1.));
#1930=DIRECTION('',(-0.766044443,-0.64278761,0.));
#1931=AXIS2_PLACEMENT_3D('',#1928,#1929,#1930);
#1932=CYLINDRICAL_SURFACE('',#1931,13.);
#1933=ORIENTED_EDGE('',*,*,#1923,.T.);
#1934=ORIENTED_EDGE('',*,*,#1796,.T.);
#1935=ORIENTED_EDGE('',*,*,#1890,.F.);
#1936=ORIENTED_EDGE('',*,*,#1673,.F.);
#1937=EDGE_LOOP('',(#1933,#1934,#1935,#1936));
#1938=FACE_BOUND('',#1937,.T.);
#1939=ADVANCED_FACE('',(#1938),#1932,.F.);
#1940=CARTESIAN_POINT('',(415.215887317,-26.950570978,323.5));
#1941=DIRECTION('',(-0.,0.,-1.));
#1942=DIRECTION('',(-0.766044443,-0.64278761,0.));
#1943=AXIS2_PLACEMENT_3D('',#1940,#1941,#1942);
#1944=CYLINDRICAL_SURFACE('',#1943,13.);
#1945=ORIENTED_EDGE('',*,*,#1898,.F.);
#1946=ORIENTED_EDGE('',*,*,#1811,.T.);
#1947=ORIENTED_EDGE('',*,*,#1915,.T.);
#1948=ORIENTED_EDGE('',*,*,#1688,.F.);
#1949=EDGE_LOOP('',(#1945,#1946,#1947,#1948));
#1950=FACE_BOUND('',#1949,.T.);
#1951=ADVANCED_FACE('',(#1950),#1944,.F.);
#1952=CARTESIAN_POINT('',(415.110496589,-26.973444228,302.5));
#1953=DIRECTION('',(0.,0.,-1.));
#1954=DIRECTION('',(0.5,-0.866025404,0.));
#1955=AXIS2_PLACEMENT_3D('',#1952,#1953,#1954);
#1956=CYLINDRICAL_SURFACE('',#1955,13.);
#1957=ORIENTED_EDGE('',*,*,#1840,.T.);
#1958=CARTESIAN_POINT('',(415.110496589,-26.973444228,299.7));
#1959=DIRECTION('',(0.,0.,1.));
#1960=DIRECTION('',(-0.5,0.866025404,0.));
#1961=AXIS2_PLACEMENT_3D('',#1958,#1959,#1960);
#1962=CIRCLE('',#1961,13.);
#1963=EDGE_CURVE('',#1693,#1826,#1962,.T.);
#1964=ORIENTED_EDGE('',*,*,#1963,.F.);
#1965=ORIENTED_EDGE('',*,*,#1724,.F.);
#1966=CARTESIAN_POINT('',(415.110496589,-26.973444228,302.8));
#1967=DIRECTION('',(0.,0.,1.));
#1968=DIRECTION('',(-0.5,0.866025404,0.));
#1969=AXIS2_PLACEMENT_3D('',#1966,#1967,#1968);
#1970=CIRCLE('',#1969,13.);
#1971=EDGE_CURVE('',#1712,#1835,#1970,.T.);
#1972=ORIENTED_EDGE('',*,*,#1971,.T.);
#1973=EDGE_LOOP('',(#1957,#1964,#1965,#1972));
#1974=FACE_BOUND('',#1973,.T.);
#1975=ADVANCED_FACE('',(#1974),#1956,.F.);
#1976=CARTESIAN_POINT('',(415.110496589,-26.973444228,302.5));
#1977=DIRECTION('',(0.,0.,-1.));
#1978=DIRECTION('',(0.5,-0.866025404,0.));
#1979=AXIS2_PLACEMENT_3D('',#1976,#1977,#1978);
#1980=CYLINDRICAL_SURFACE('',#1979,13.);
#1981=ORIENTED_EDGE('',*,*,#1823,.T.);
#1982=CARTESIAN_POINT('',(415.110496589,-26.973444228,302.8));
#1983=DIRECTION('',(0.,0.,1.));
#1984=DIRECTION('',(-0.5,0.866025404,0.));
#1985=AXIS2_PLACEMENT_3D('',#1982,#1983,#1984);
#1986=CIRCLE('',#1985,13.);
#1987=EDGE_CURVE('',#1818,#1704,#1986,.T.);
#1988=ORIENTED_EDGE('',*,*,#1987,.T.);
#1989=ORIENTED_EDGE('',*,*,#1709,.T.);
#1990=CARTESIAN_POINT('',(415.110496589,-26.973444228,299.7));
#1991=DIRECTION('',(0.,0.,1.));
#1992=DIRECTION('',(-0.5,0.866025404,0.));
#1993=AXIS2_PLACEMENT_3D('',#1990,#1991,#1992);
#1994=CIRCLE('',#1993,13.);
#1995=EDGE_CURVE('',#1816,#1695,#1994,.T.);
#1996=ORIENTED_EDGE('',*,*,#1995,.F.);
#1997=EDGE_LOOP('',(#1981,#1988,#1989,#1996));
#1998=FACE_BOUND('',#1997,.T.);
#1999=ADVANCED_FACE('',(#1998),#1980,.F.);
#2000=CARTESIAN_POINT('',(424.610496589,-43.4279269,302.8));
#2001=DIRECTION('',(0.,0.,1.));
#2002=DIRECTION('',(-0.5,0.866025404,0.));
#2003=AXIS2_PLACEMENT_3D('',#2000,#2001,#2002);
#2004=PLANE('',#2003);
#2005=ORIENTED_EDGE('',*,*,#1971,.F.);
#2006=ORIENTED_EDGE('',*,*,#1718,.T.);
#2007=ORIENTED_EDGE('',*,*,#1987,.F.);
#2008=ORIENTED_EDGE('',*,*,#1847,.F.);
#2009=EDGE_LOOP('',(#2005,#2006,#2007,#2008));
#2010=FACE_BOUND('',#2009,.T.);
#2011=ADVANCED_FACE('',(#2010),#2004,.F.);
#2012=CARTESIAN_POINT('',(424.610496589,-43.4279269,299.7));
#2013=DIRECTION('',(0.,0.,1.));
#2014=DIRECTION('',(-0.5,0.866025404,0.));
#2015=AXIS2_PLACEMENT_3D('',#2012,#2013,#2014);
#2016=PLANE('',#2015);
#2017=ORIENTED_EDGE('',*,*,#1701,.F.);
#2018=ORIENTED_EDGE('',*,*,#1963,.T.);
#2019=ORIENTED_EDGE('',*,*,#1832,.T.);
#2020=ORIENTED_EDGE('',*,*,#1995,.T.);
#2021=EDGE_LOOP('',(#2017,#2018,#2019,#2020));
#2022=FACE_BOUND('',#2021,.T.);
#2023=ADVANCED_FACE('',(#2022),#2016,.T.);
#2024=CLOSED_SHELL('',(#1728,#1851,#1865,#1879,#1903,#1927,#1939,#1951,#1975,#1999,#2011,#2023));
#2025=MANIFOLD_SOLID_BREP('K\S\vrper 01 (1)',#2024);
#1605=STYLED_ITEM('',(#294),#2025);
#35=SHAPE_REPRESENTATION('Vorschlag 1',(#15),#33);
#36=ADVANCED_BREP_SHAPE_REPRESENTATION('Vorschlag 1',(#287,#528,#762,#1183,#1604,#2025),#33);
#2033=SHAPE_REPRESENTATION_RELATIONSHIP('','',#35,#36);
#2034=CARTESIAN_POINT('',(0.,0.,0.));
#2035=DIRECTION('',(0.,0.,1.));
#2036=DIRECTION('',(1.,0.,0.));
#2037=AXIS2_PLACEMENT_3D('',#2034,#2035,#2036);
#2039=MAPPED_ITEM('',#2038,#2037);
#2038=REPRESENTATION_MAP(#2037,#35);
#2040=APPLICATION_CONTEXT('Managed model based 3d engineering');
#2041=APPLICATION_PROTOCOL_DEFINITION('international standard','ap242_managed_model_based_3d_engineering',2014,#2040);
#2042=PRODUCT_CONTEXT('',#2040,'mechanical');
#2043=PRODUCT_DEFINITION_CONTEXT('part definition',#2040,'design');
#43=PRODUCT('Vorschlag 1','Vorschlag 1','',(#2042));
#2044=PRODUCT_RELATED_PRODUCT_CATEGORY('part','',(#43));
#2045=PRODUCT_DEFINITION_FORMATION_WITH_SPECIFIED_SOURCE('','',#43,.NOT_KNOWN.);
#44=PRODUCT_DEFINITION('design','',#2045,#2043);
#42=PRODUCT_DEFINITION_SHAPE('','',#44);
#2046=SHAPE_DEFINITION_REPRESENTATION(#42,#35);
#34=DRAUGHTING_MODEL('',(#2039),#33);
#16=SHAPE_REPRESENTATION('root',(#15,#48),#10);
#2047=CARTESIAN_POINT('',(0.,0.,0.));
#2048=DIRECTION('',(0.,0.,1.));
#2049=DIRECTION('',(1.,0.,0.));
#2050=AXIS2_PLACEMENT_3D('',#2047,#2048,#2049);
#2052=MAPPED_ITEM('',#2051,#2050);
#2051=REPRESENTATION_MAP(#2050,#16);
#24=PRODUCT('root','root','',(#2042));
#2053=PRODUCT_RELATED_PRODUCT_CATEGORY('part','',(#24));
#2054=PRODUCT_DEFINITION_FORMATION_WITH_SPECIFIED_SOURCE('','',#24,.NOT_KNOWN.);
#25=PRODUCT_DEFINITION('design','',#2054,#2043);
#23=PRODUCT_DEFINITION_SHAPE('','',#25);
#2055=SHAPE_DEFINITION_REPRESENTATION(#23,#16);
#11=DRAUGHTING_MODEL('',(#2052),#10);
#2056=DESCRIPTIVE_REPRESENTATION_ITEM('KEY','C:\\Users\\acer\\AppData\\Local\\Packages\\Shapr3D.Shapr3D_dvv5p1vgwv6mp\\TempState\\88775686-6de3-4431-9ec1-fff744bd5e93.tmp');
#2057=PROPERTY_DEFINITION('KEY','',#25);
#2058=REPRESENTATION('',(#2056),#10);
#2059=PROPERTY_DEFINITION_REPRESENTATION(#2057,#2058);
#2060=GENERAL_PROPERTY('','KEY','');
#2061=GENERAL_PROPERTY_ASSOCIATION('','',#2060,#2057);
#1=MECHANICAL_DESIGN_GEOMETRIC_PRESENTATION_REPRESENTATION('',(#54,#295,#529,#763,#1184,#1605),#10);
ENDSEC;
END-ISO-10303-21;
