ISO-10303-21;
HEADER;

/* File generated by Shapr3D Version 26.0.10296.0 */

FILE_DESCRIPTION(('HOOPS Exchange Step'),'2;1');

FILE_NAME('C:\\Users\\acer\\AppData\\Local\\Packages\\Shapr3D.Shapr3D_dvv5p1vgwv6mp\\TempState\\export\\temp_export',
'2026-01-31T18:49:09+01:00',
('acer'),
('Shapr3D Limited'),
'HOOPS Exchange 2025.9',
'Shapr3D',
'Authorized');

FILE_SCHEMA( ('AP242_MANAGED_MODEL_BASED_3D_ENGINEERING_MIM_LF {1 0 10303 442 1 1 4}') );

ENDSEC;

DATA;
#3=(NAMED_UNIT(*)PLANE_ANGLE_UNIT()SI_UNIT($,.RADIAN.));
#4=PLANE_ANGLE_MEASURE_WITH_UNIT(PLANE_ANGLE_MEASURE(0.0174532925),#3);
#5=(CONVERSION_BASED_UNIT('DEGREE',#4)NAMED_UNIT(#6)PLANE_ANGLE_UNIT());
#6=DIMENSIONAL_EXPONENTS(0.,0.,0.,0.,0.,0.,0.);
#7=(NAMED_UNIT(*)SI_UNIT($,.STERADIAN.)SOLID_ANGLE_UNIT());
#8=(LENGTH_UNIT()NAMED_UNIT(*)SI_UNIT(.MILLI.,.METRE.));
#9=UNCERTAINTY_MEASURE_WITH_UNIT(LENGTH_MEASURE(1.000000E-03),#8,'DISTANCE_ACCURACY_VALUE','Maximum Tolerance applied to model');
#10=(GEOMETRIC_REPRESENTATION_CONTEXT(3)GLOBAL_UNCERTAINTY_ASSIGNED_CONTEXT((#9))GLOBAL_UNIT_ASSIGNED_CONTEXT((#8,#5,#7))REPRESENTATION_CONTEXT('','root'));
#12=CARTESIAN_POINT('',(0.,0.,0.));
#13=DIRECTION('',(0.,0.,1.));
#14=DIRECTION('',(1.,0.,0.));
#15=AXIS2_PLACEMENT_3D('',#12,#13,#14);
#26=(NAMED_UNIT(*)PLANE_ANGLE_UNIT()SI_UNIT($,.RADIAN.));
#27=PLANE_ANGLE_MEASURE_WITH_UNIT(PLANE_ANGLE_MEASURE(0.0174532925),#26);
#28=(CONVERSION_BASED_UNIT('DEGREE',#27)NAMED_UNIT(#29)PLANE_ANGLE_UNIT());
#29=DIMENSIONAL_EXPONENTS(0.,0.,0.,0.,0.,0.,0.);
#30=(NAMED_UNIT(*)SI_UNIT($,.STERADIAN.)SOLID_ANGLE_UNIT());
#31=(LENGTH_UNIT()NAMED_UNIT(*)SI_UNIT(.MILLI.,.METRE.));
#32=UNCERTAINTY_MEASURE_WITH_UNIT(LENGTH_MEASURE(1.000000E-03),#31,'DISTANCE_ACCURACY_VALUE','Maximum Tolerance applied to model');
#33=(GEOMETRIC_REPRESENTATION_CONTEXT(3)GLOBAL_UNCERTAINTY_ASSIGNED_CONTEXT((#32))GLOBAL_UNIT_ASSIGNED_CONTEXT((#31,#28,#30))REPRESENTATION_CONTEXT('','Spiral V3.00'));
#45=CARTESIAN_POINT('',(0.,0.,0.));
#46=DIRECTION('',(0.,0.,1.));
#47=DIRECTION('',(1.,0.,-0.));
#48=AXIS2_PLACEMENT_3D('',#45,#46,#47);
#49=ITEM_DEFINED_TRANSFORMATION('','',#48,#15);
#50=(REPRESENTATION_RELATIONSHIP('','',#35,#16)REPRESENTATION_RELATIONSHIP_WITH_TRANSFORMATION(#49)SHAPE_REPRESENTATION_RELATIONSHIP());
#51=NEXT_ASSEMBLY_USAGE_OCCURRENCE('Spiral V3.00_1','Spiral V3.00','Spiral V3.00',#25,#44,$);
#52=PRODUCT_DEFINITION_SHAPE('','',#51);
#53=CONTEXT_DEPENDENT_SHAPE_REPRESENTATION(#50,#52);
#54=(NAMED_UNIT(*)PLANE_ANGLE_UNIT()SI_UNIT($,.RADIAN.));
#55=PLANE_ANGLE_MEASURE_WITH_UNIT(PLANE_ANGLE_MEASURE(0.0174532925),#54);
#56=(CONVERSION_BASED_UNIT('DEGREE',#55)NAMED_UNIT(#57)PLANE_ANGLE_UNIT());
#57=DIMENSIONAL_EXPONENTS(0.,0.,0.,0.,0.,0.,0.);
#58=(NAMED_UNIT(*)SI_UNIT($,.STERADIAN.)SOLID_ANGLE_UNIT());
#59=(LENGTH_UNIT()NAMED_UNIT(*)SI_UNIT(.MILLI.,.METRE.));
#60=UNCERTAINTY_MEASURE_WITH_UNIT(LENGTH_MEASURE(1.000000E-03),#59,'DISTANCE_ACCURACY_VALUE','Maximum Tolerance applied to model');
#61=(GEOMETRIC_REPRESENTATION_CONTEXT(3)GLOBAL_UNCERTAINTY_ASSIGNED_CONTEXT((#60))GLOBAL_UNIT_ASSIGNED_CONTEXT((#59,#56,#58))REPRESENTATION_CONTEXT('','Spiral V3.00 (1)'));
#73=CARTESIAN_POINT('',(0.,0.,0.));
#74=DIRECTION('',(0.,0.,1.));
#75=DIRECTION('',(1.,0.,-0.));
#76=AXIS2_PLACEMENT_3D('',#73,#74,#75);
#77=ITEM_DEFINED_TRANSFORMATION('','',#76,#15);
#78=(REPRESENTATION_RELATIONSHIP('','',#63,#35)REPRESENTATION_RELATIONSHIP_WITH_TRANSFORMATION(#77)SHAPE_REPRESENTATION_RELATIONSHIP());
#79=NEXT_ASSEMBLY_USAGE_OCCURRENCE('Spiral V3.00 (1)_2','Spiral V3.00 (1)','Spiral V3.00 (1)',#44,#72,$);
#80=PRODUCT_DEFINITION_SHAPE('','',#79);
#81=CONTEXT_DEPENDENT_SHAPE_REPRESENTATION(#78,#80);
#63=SHAPE_REPRESENTATION('Spiral V3.00 (1)',(#15),#61);
#82=CARTESIAN_POINT('',(0.,0.,0.));
#83=DIRECTION('',(0.,0.,1.));
#84=DIRECTION('',(1.,0.,0.));
#85=AXIS2_PLACEMENT_3D('',#82,#83,#84);
#87=MAPPED_ITEM('',#86,#85);
#86=REPRESENTATION_MAP(#85,#63);
#88=APPLICATION_CONTEXT('Managed model based 3d engineering');
#89=APPLICATION_PROTOCOL_DEFINITION('international standard','ap242_managed_model_based_3d_engineering',2014,#88);
#90=PRODUCT_CONTEXT('',#88,'mechanical');
#91=PRODUCT_DEFINITION_CONTEXT('part definition',#88,'design');
#71=PRODUCT('Spiral V3.00 (1)','Spiral V3.00 (1)','',(#90));
#92=PRODUCT_RELATED_PRODUCT_CATEGORY('part','',(#71));
#93=PRODUCT_DEFINITION_FORMATION_WITH_SPECIFIED_SOURCE('','',#71,.NOT_KNOWN.);
#72=PRODUCT_DEFINITION('design','',#93,#91);
#70=PRODUCT_DEFINITION_SHAPE('','',#72);
#94=SHAPE_DEFINITION_REPRESENTATION(#70,#63);
#62=DRAUGHTING_MODEL('',(#87),#61);
#35=SHAPE_REPRESENTATION('Spiral V3.00',(#15,#76),#33);
#95=CARTESIAN_POINT('',(0.,0.,0.));
#96=DIRECTION('',(0.,0.,1.));
#97=DIRECTION('',(1.,0.,0.));
#98=AXIS2_PLACEMENT_3D('',#95,#96,#97);
#100=MAPPED_ITEM('',#99,#98);
#99=REPRESENTATION_MAP(#98,#35);
#43=PRODUCT('Spiral V3.00','Spiral V3.00','',(#90));
#101=PRODUCT_RELATED_PRODUCT_CATEGORY('part','',(#43));
#102=PRODUCT_DEFINITION_FORMATION_WITH_SPECIFIED_SOURCE('','',#43,.NOT_KNOWN.);
#44=PRODUCT_DEFINITION('design','',#102,#91);
#42=PRODUCT_DEFINITION_SHAPE('','',#44);
#103=SHAPE_DEFINITION_REPRESENTATION(#42,#35);
#34=DRAUGHTING_MODEL('',(#100),#33);
#104=(NAMED_UNIT(*)PLANE_ANGLE_UNIT()SI_UNIT($,.RADIAN.));
#105=PLANE_ANGLE_MEASURE_WITH_UNIT(PLANE_ANGLE_MEASURE(0.0174532925),#104);
#106=(CONVERSION_BASED_UNIT('DEGREE',#105)NAMED_UNIT(#107)PLANE_ANGLE_UNIT());
#107=DIMENSIONAL_EXPONENTS(0.,0.,0.,0.,0.,0.,0.);
#108=(NAMED_UNIT(*)SI_UNIT($,.STERADIAN.)SOLID_ANGLE_UNIT());
#109=(LENGTH_UNIT()NAMED_UNIT(*)SI_UNIT(.MILLI.,.METRE.));
#110=UNCERTAINTY_MEASURE_WITH_UNIT(LENGTH_MEASURE(1.000000E-05),#109,'DISTANCE_ACCURACY_VALUE','Maximum Tolerance applied to model');
#111=(GEOMETRIC_REPRESENTATION_CONTEXT(3)GLOBAL_UNCERTAINTY_ASSIGNED_CONTEXT((#110))GLOBAL_UNIT_ASSIGNED_CONTEXT((#109,#106,#108))REPRESENTATION_CONTEXT('','Spriral Cover'));
#123=CARTESIAN_POINT('',(0.,0.,0.));
#124=DIRECTION('',(0.,0.,1.));
#125=DIRECTION('',(1.,0.,-0.));
#126=AXIS2_PLACEMENT_3D('',#123,#124,#125);
#127=ITEM_DEFINED_TRANSFORMATION('','',#126,#15);
#128=(REPRESENTATION_RELATIONSHIP('','',#113,#16)REPRESENTATION_RELATIONSHIP_WITH_TRANSFORMATION(#127)SHAPE_REPRESENTATION_RELATIONSHIP());
#129=NEXT_ASSEMBLY_USAGE_OCCURRENCE('Spriral Cover_3','Spriral Cover','Spriral Cover',#25,#122,$);
#130=PRODUCT_DEFINITION_SHAPE('','',#129);
#131=CONTEXT_DEPENDENT_SHAPE_REPRESENTATION(#128,#130);
#133=CARTESIAN_POINT('',(604.475745551,203.713359373,250.9));
#134=DIRECTION('',(-0.00885677,-0.999960778,0.));
#135=DIRECTION('',(0.999960778,-0.00885677,0.));
#136=AXIS2_PLACEMENT_3D('',#133,#134,#135);
#137=PLANE('',#136);
#138=CARTESIAN_POINT('',(588.812719872,203.852088638,221.9));
#139=VERTEX_POINT('',#138);
#140=CARTESIAN_POINT('',(619.658802822,203.578881246,221.9));
#141=VERTEX_POINT('',#140);
#142=CARTESIAN_POINT('',(588.812719872,203.852088638,221.9));
#143=DIRECTION('',(0.999960778,-0.00885677,0.));
#144=VECTOR('',#143,30.847292841);
#145=LINE('',#142,#144);
#146=EDGE_CURVE('',#139,#141,#145,.T.);
#147=ORIENTED_EDGE('',*,*,#146,.F.);
#148=CARTESIAN_POINT('',(588.812719872,203.852088638,191.9));
#149=VERTEX_POINT('',#148);
#150=CARTESIAN_POINT('',(588.812719872,203.852088638,191.9));
#151=DIRECTION('',(0.,0.,1.));
#152=VECTOR('',#151,30.);
#153=LINE('',#150,#152);
#154=EDGE_CURVE('',#149,#139,#153,.T.);
#155=ORIENTED_EDGE('',*,*,#154,.F.);
#156=CARTESIAN_POINT('',(574.041650682,203.982917738,191.9));
#157=VERTEX_POINT('',#156);
#158=CARTESIAN_POINT('',(588.812719872,203.852088638,191.9));
#159=DIRECTION('',(-0.999960778,0.00885677,0.));
#160=VECTOR('',#159,14.771648563);
#161=LINE('',#158,#160);
#162=EDGE_CURVE('',#149,#157,#161,.T.);
#163=ORIENTED_EDGE('',*,*,#162,.T.);
#164=CARTESIAN_POINT('',(574.041650682,203.982917738,309.7));
#165=VERTEX_POINT('',#164);
#166=CARTESIAN_POINT('',(574.041650682,203.982917738,191.9));
#167=DIRECTION('',(-0.,-0.,1.));
#168=VECTOR('',#167,117.8);
#169=LINE('',#166,#168);
#170=EDGE_CURVE('',#157,#165,#169,.T.);
#171=ORIENTED_EDGE('',*,*,#170,.T.);
#172=CARTESIAN_POINT('',(634.90984042,203.443801009,309.7));
#173=VERTEX_POINT('',#172);
#174=CARTESIAN_POINT('',(634.90984042,203.443801009,309.7));
#175=DIRECTION('',(-0.999960778,0.00885677,0.));
#176=VECTOR('',#175,60.870577201);
#177=LINE('',#174,#176);
#178=EDGE_CURVE('',#173,#165,#177,.T.);
#179=ORIENTED_EDGE('',*,*,#178,.F.);
#180=CARTESIAN_POINT('',(634.90984042,203.443801009,191.9));
#181=VERTEX_POINT('',#180);
#182=CARTESIAN_POINT('',(634.90984042,203.443801009,309.7));
#183=DIRECTION('',(0.,0.,-1.));
#184=VECTOR('',#183,117.8);
#185=LINE('',#182,#184);
#186=EDGE_CURVE('',#173,#181,#185,.T.);
#187=ORIENTED_EDGE('',*,*,#186,.T.);
#188=CARTESIAN_POINT('',(619.658802822,203.578881246,191.9));
#189=VERTEX_POINT('',#188);
#190=CARTESIAN_POINT('',(634.90984042,203.443801009,191.9));
#191=DIRECTION('',(-0.999960778,0.00885677,0.));
#192=VECTOR('',#191,15.251635797);
#193=LINE('',#190,#192);
#194=EDGE_CURVE('',#181,#189,#193,.T.);
#195=ORIENTED_EDGE('',*,*,#194,.T.);
#196=CARTESIAN_POINT('',(619.658802822,203.578881246,221.9));
#197=DIRECTION('',(0.,0.,-1.));
#198=VECTOR('',#197,30.);
#199=LINE('',#196,#198);
#200=EDGE_CURVE('',#141,#189,#199,.T.);
#201=ORIENTED_EDGE('',*,*,#200,.F.);
#202=EDGE_LOOP('',(#147,#155,#163,#171,#179,#187,#195,#201));
#203=FACE_BOUND('',#202,.T.);
#204=CARTESIAN_POINT('',(632.561982621,203.464596262,285.016541819));
#205=VERTEX_POINT('',#204);
#206=CARTESIAN_POINT('',(632.561982621,203.464596262,264.));
#207=VERTEX_POINT('',#206);
#208=CARTESIAN_POINT('',(632.561982621,203.464596262,285.016541819));
#209=DIRECTION('',(0.,0.,-1.));
#210=VECTOR('',#209,21.016541819);
#211=LINE('',#208,#210);
#212=EDGE_CURVE('',#205,#207,#211,.T.);
#213=ORIENTED_EDGE('',*,*,#212,.F.);
#214=CARTESIAN_POINT('',(629.264496391,203.493802486,285.016541819));
#215=VERTEX_POINT('',#214);
#216=CARTESIAN_POINT('',(629.264496391,203.493802486,285.016541819));
#217=DIRECTION('',(0.999960778,-0.00885677,0.));
#218=VECTOR('',#217,3.297615569);
#219=LINE('',#216,#218);
#220=EDGE_CURVE('',#215,#205,#219,.T.);
#221=ORIENTED_EDGE('',*,*,#220,.F.);
#222=CARTESIAN_POINT('',(629.264496391,203.493802486,264.));
#223=VERTEX_POINT('',#222);
#224=CARTESIAN_POINT('',(629.264496391,203.493802486,264.));
#225=DIRECTION('',(0.,0.,1.));
#226=VECTOR('',#225,21.016541819);
#227=LINE('',#224,#226);
#228=EDGE_CURVE('',#223,#215,#227,.T.);
#229=ORIENTED_EDGE('',*,*,#228,.F.);
#230=CARTESIAN_POINT('',(632.561982621,203.464596262,264.));
#231=DIRECTION('',(-0.999960778,0.00885677,0.));
#232=VECTOR('',#231,3.297615569);
#233=LINE('',#230,#232);
#234=EDGE_CURVE('',#207,#223,#233,.T.);
#235=ORIENTED_EDGE('',*,*,#234,.F.);
#236=EDGE_LOOP('',(#213,#221,#229,#235));
#237=FACE_BOUND('',#236,.T.);
#238=ADVANCED_FACE('',(#203,#237),#137,.F.);
#239=CARTESIAN_POINT('',(604.475745553,202.713359372,250.9));
#240=DIRECTION('',(-0.009024774,-0.999959276,0.));
#241=DIRECTION('',(0.999959276,-0.009024774,0.));
#242=AXIS2_PLACEMENT_3D('',#239,#240,#241);
#243=PLANE('',#242);
#244=CARTESIAN_POINT('',(588.80388677,202.854800123,221.9));
#245=VERTEX_POINT('',#244);
#246=CARTESIAN_POINT('',(588.80388677,202.854800123,190.900003571));
#247=VERTEX_POINT('',#246);
#248=CARTESIAN_POINT('',(588.80388677,202.854800123,221.9));
#249=DIRECTION('',(0.,0.,-1.));
#250=VECTOR('',#249,30.999996429);
#251=LINE('',#248,#250);
#252=EDGE_CURVE('',#245,#247,#251,.T.);
#253=ORIENTED_EDGE('',*,*,#252,.F.);
#254=CARTESIAN_POINT('',(619.649923818,202.576410257,221.9));
#255=VERTEX_POINT('',#254);
#256=CARTESIAN_POINT('',(619.649923818,202.576410257,221.9));
#257=DIRECTION('',(-0.999959276,0.009024774,0.));
#258=VECTOR('',#257,30.847293276);
#259=LINE('',#256,#258);
#260=EDGE_CURVE('',#255,#245,#259,.T.);
#261=ORIENTED_EDGE('',*,*,#260,.F.);
#262=CARTESIAN_POINT('',(619.649923818,202.576410257,190.9));
#263=VERTEX_POINT('',#262);
#264=CARTESIAN_POINT('',(619.649923818,202.576410257,190.9));
#265=DIRECTION('',(0.,0.,1.));
#266=VECTOR('',#265,31.);
#267=LINE('',#264,#266);
#268=EDGE_CURVE('',#263,#255,#267,.T.);
#269=ORIENTED_EDGE('',*,*,#268,.F.);
#270=CARTESIAN_POINT('',(634.903867638,202.438741248,190.9));
#271=VERTEX_POINT('',#270);
#272=CARTESIAN_POINT('',(634.903867638,202.438741248,190.9));
#273=DIRECTION('',(-0.999959276,0.009024774,0.));
#274=VECTOR('',#273,15.254565049);
#275=LINE('',#272,#274);
#276=EDGE_CURVE('',#271,#263,#275,.T.);
#277=ORIENTED_EDGE('',*,*,#276,.F.);
#278=CARTESIAN_POINT('',(634.909817776,202.438687547,190.900013275));
#279=VERTEX_POINT('',#278);
#280=CARTESIAN_POINT('',(634.903867638,202.438741248,191.9));
#281=DIRECTION('',(-0.009024774,-0.999959276,0.));
#282=DIRECTION('',(-0.999959276,0.009024774,0.));
#283=AXIS2_PLACEMENT_3D('',#280,#281,#282);
#284=ELLIPSE('',#283,1.154812573,1.);
#285=EDGE_CURVE('',#271,#279,#284,.T.);
#286=ORIENTED_EDGE('',*,*,#285,.T.);
#287=CARTESIAN_POINT('',(634.909817776,202.438687547,309.7));
#288=VERTEX_POINT('',#287);
#289=CARTESIAN_POINT('',(634.909817776,202.438687547,309.7));
#290=DIRECTION('',(0.,0.,-1.));
#291=VECTOR('',#290,118.799986725);
#292=LINE('',#289,#291);
#293=EDGE_CURVE('',#288,#279,#292,.T.);
#294=ORIENTED_EDGE('',*,*,#293,.F.);
#295=CARTESIAN_POINT('',(574.04167333,202.988031196,309.7));
#296=VERTEX_POINT('',#295);
#297=CARTESIAN_POINT('',(634.909817776,202.438687547,309.7));
#298=DIRECTION('',(-0.999959276,0.009024774,0.));
#299=VECTOR('',#298,60.870623347);
#300=LINE('',#297,#299);
#301=EDGE_CURVE('',#288,#296,#300,.T.);
#302=ORIENTED_EDGE('',*,*,#301,.T.);
#303=CARTESIAN_POINT('',(574.04167333,202.988031196,190.900013275));
#304=VERTEX_POINT('',#303);
#305=CARTESIAN_POINT('',(574.04167333,202.988031196,309.7));
#306=DIRECTION('',(0.,0.,-1.));
#307=VECTOR('',#306,118.799986725);
#308=LINE('',#305,#307);
#309=EDGE_CURVE('',#296,#304,#308,.T.);
#310=ORIENTED_EDGE('',*,*,#309,.T.);
#311=CARTESIAN_POINT('',(574.04167333,202.988031196,190.900013275));
#312=CARTESIAN_POINT('',(578.962411143,202.943620838,190.900009015));
#313=CARTESIAN_POINT('',(583.883148957,202.899210481,190.90000578));
#314=CARTESIAN_POINT('',(588.80388677,202.854800123,190.900003571));
#315=B_SPLINE_CURVE_WITH_KNOTS('',3,(#311,#312,#313,#314),.UNSPECIFIED.,.F.,.F.,(4,4),(0.,0.014762815),.UNSPECIFIED.);
#316=EDGE_CURVE('',#304,#247,#315,.T.);
#317=ORIENTED_EDGE('',*,*,#316,.T.);
#318=EDGE_LOOP('',(#253,#261,#269,#277,#286,#294,#302,#310,#317));
#319=FACE_BOUND('',#318,.T.);
#320=CARTESIAN_POINT('',(629.255434396,202.48971916,285.016541819));
#321=VERTEX_POINT('',#320);
#322=CARTESIAN_POINT('',(632.552915627,202.459958924,285.016541819));
#323=VERTEX_POINT('',#322);
#324=CARTESIAN_POINT('',(629.255434396,202.48971916,285.016541819));
#325=DIRECTION('',(0.999959276,-0.009024774,0.));
#326=VECTOR('',#325,3.297615523);
#327=LINE('',#324,#326);
#328=EDGE_CURVE('',#321,#323,#327,.T.);
#329=ORIENTED_EDGE('',*,*,#328,.T.);
#330=CARTESIAN_POINT('',(632.552915627,202.459958924,264.));
#331=VERTEX_POINT('',#330);
#332=CARTESIAN_POINT('',(632.552915627,202.459958924,285.016541819));
#333=DIRECTION('',(0.,0.,-1.));
#334=VECTOR('',#333,21.016541819);
#335=LINE('',#332,#334);
#336=EDGE_CURVE('',#323,#331,#335,.T.);
#337=ORIENTED_EDGE('',*,*,#336,.T.);
#338=CARTESIAN_POINT('',(629.255434396,202.48971916,264.));
#339=VERTEX_POINT('',#338);
#340=CARTESIAN_POINT('',(632.552915627,202.459958924,264.));
#341=DIRECTION('',(-0.999959276,0.009024774,0.));
#342=VECTOR('',#341,3.297615523);
#343=LINE('',#340,#342);
#344=EDGE_CURVE('',#331,#339,#343,.T.);
#345=ORIENTED_EDGE('',*,*,#344,.T.);
#346=CARTESIAN_POINT('',(629.255434396,202.48971916,264.));
#347=DIRECTION('',(0.,0.,1.));
#348=VECTOR('',#347,21.016541819);
#349=LINE('',#346,#348);
#350=EDGE_CURVE('',#339,#321,#349,.T.);
#351=ORIENTED_EDGE('',*,*,#350,.T.);
#352=EDGE_LOOP('',(#329,#337,#345,#351));
#353=FACE_BOUND('',#352,.T.);
#354=ADVANCED_FACE('',(#319,#353),#243,.T.);
#355=CARTESIAN_POINT('',(604.46688878,202.713398595,191.9));
#356=DIRECTION('',(-0.999960778,0.00885677,0.));
#357=DIRECTION('',(-0.00885677,-0.999960778,0.));
#358=AXIS2_PLACEMENT_3D('',#355,#356,#357);
#359=CYLINDRICAL_SURFACE('',#358,1.);
#360=CARTESIAN_POINT('',(619.649946051,202.578920468,190.9));
#361=VERTEX_POINT('',#360);
#362=CARTESIAN_POINT('',(619.649946051,202.578920468,191.9));
#363=DIRECTION('',(-0.999960778,0.00885677,-0.));
#364=DIRECTION('',(0.00885677,0.999960778,0.));
#365=AXIS2_PLACEMENT_3D('',#362,#363,#364);
#366=CIRCLE('',#365,1.);
#367=EDGE_CURVE('',#189,#361,#366,.T.);
#368=ORIENTED_EDGE('',*,*,#367,.F.);
#369=ORIENTED_EDGE('',*,*,#194,.F.);
#370=CARTESIAN_POINT('',(634.900983649,202.443840231,190.9));
#371=VERTEX_POINT('',#370);
#372=CARTESIAN_POINT('',(634.900983649,202.443840231,191.9));
#373=DIRECTION('',(-0.999960778,0.00885677,0.));
#374=DIRECTION('',(-0.00885677,-0.999960778,0.));
#375=AXIS2_PLACEMENT_3D('',#372,#373,#374);
#376=CIRCLE('',#375,1.);
#377=EDGE_CURVE('',#181,#371,#376,.T.);
#378=ORIENTED_EDGE('',*,*,#377,.T.);
#379=CARTESIAN_POINT('',(619.649946051,202.578920468,190.9));
#380=DIRECTION('',(0.999960778,-0.00885677,-0.));
#381=VECTOR('',#380,15.251635797);
#382=LINE('',#379,#381);
#383=EDGE_CURVE('',#361,#371,#382,.T.);
#384=ORIENTED_EDGE('',*,*,#383,.F.);
#385=EDGE_LOOP('',(#368,#369,#378,#384));
#386=FACE_BOUND('',#385,.T.);
#387=ADVANCED_FACE('',(#386),#359,.T.);
#388=CARTESIAN_POINT('',(404.,0.,190.9));
#389=DIRECTION('',(0.,0.,1.));
#390=DIRECTION('',(1.,0.,0.));
#391=AXIS2_PLACEMENT_3D('',#388,#389,#390);
#392=PLANE('',#391);
#393=CARTESIAN_POINT('',(649.294696875,123.030211013,190.9));
#394=VERTEX_POINT('',#393);
#395=CARTESIAN_POINT('',(633.967206082,97.017043041,190.9));
#396=VERTEX_POINT('',#395);
#397=CARTESIAN_POINT('',(649.294696875,123.030211013,190.9));
#398=DIRECTION('',(-0.507650577,-0.861563051,-0.));
#399=VECTOR('',#398,30.192993922);
#400=LINE('',#397,#399);
#401=EDGE_CURVE('',#394,#396,#400,.T.);
#402=ORIENTED_EDGE('',*,*,#401,.T.);
#403=CARTESIAN_POINT('',(633.961348239,97.017094924,190.9));
#404=VERTEX_POINT('',#403);
#405=CARTESIAN_POINT('',(633.967206082,97.017043041,190.9));
#406=DIRECTION('',(-0.999960778,0.00885677,-0.));
#407=VECTOR('',#406,0.005858073);
#408=LINE('',#405,#407);
#409=EDGE_CURVE('',#396,#404,#408,.T.);
#410=ORIENTED_EDGE('',*,*,#409,.T.);
#411=CARTESIAN_POINT('',(633.961348239,97.017094924,190.9));
#412=DIRECTION('',(0.507795322,0.861477748,0.));
#413=VECTOR('',#412,30.195923385);
#414=LINE('',#411,#413);
#415=EDGE_CURVE('',#404,#394,#414,.T.);
#416=ORIENTED_EDGE('',*,*,#415,.T.);
#417=EDGE_LOOP('',(#402,#410,#416));
#418=FACE_BOUND('',#417,.T.);
#419=ADVANCED_FACE('',(#418),#392,.F.);
#420=CARTESIAN_POINT('',(404.,0.,190.9));
#421=DIRECTION('',(0.,0.,1.));
#422=DIRECTION('',(1.,0.,0.));
#423=AXIS2_PLACEMENT_3D('',#420,#421,#422);
#424=PLANE('',#423);
#425=CARTESIAN_POINT('',(573.096132356,97.561258753,190.9));
#426=VERTEX_POINT('',#425);
#427=CARTESIAN_POINT('',(603.290826536,97.288747349,190.9));
#428=VERTEX_POINT('',#427);
#429=CARTESIAN_POINT('',(573.096132356,97.561258753,190.9));
#430=DIRECTION('',(0.999959276,-0.009024774,0.));
#431=VECTOR('',#430,30.195923882);
#432=LINE('',#429,#431);
#433=EDGE_CURVE('',#426,#428,#432,.T.);
#434=ORIENTED_EDGE('',*,*,#433,.T.);
#435=CARTESIAN_POINT('',(573.099016345,97.55615977,190.9));
#436=VERTEX_POINT('',#435);
#437=CARTESIAN_POINT('',(603.290826536,97.288747349,190.9));
#438=DIRECTION('',(-0.999960778,0.00885677,-0.));
#439=VECTOR('',#438,30.192994419);
#440=LINE('',#437,#439);
#441=EDGE_CURVE('',#428,#436,#440,.T.);
#442=ORIENTED_EDGE('',*,*,#441,.T.);
#443=CARTESIAN_POINT('',(573.099016345,97.55615977,190.9));
#444=DIRECTION('',(-0.492310201,0.870419822,-0.));
#445=VECTOR('',#444,0.005858073);
#446=LINE('',#443,#445);
#447=EDGE_CURVE('',#436,#426,#446,.T.);
#448=ORIENTED_EDGE('',*,*,#447,.T.);
#449=EDGE_LOOP('',(#434,#442,#448));
#450=FACE_BOUND('',#449,.T.);
#451=ADVANCED_FACE('',(#450),#424,.F.);
#452=CARTESIAN_POINT('',(404.,0.,190.9));
#453=DIRECTION('',(0.,0.,1.));
#454=DIRECTION('',(1.,0.,0.));
#455=AXIS2_PLACEMENT_3D('',#452,#453,#454);
#456=PLANE('',#455);
#457=CARTESIAN_POINT('',(543.134784114,150.544163829,190.9));
#458=VERTEX_POINT('',#457);
#459=CARTESIAN_POINT('',(557.996129523,124.258535699,190.9));
#460=VERTEX_POINT('',#459);
#461=CARTESIAN_POINT('',(543.134784114,150.544163829,190.9));
#462=DIRECTION('',(0.492163954,-0.870502523,0.));
#463=VECTOR('',#462,30.195924122);
#464=LINE('',#461,#463);
#465=EDGE_CURVE('',#458,#460,#464,.T.);
#466=ORIENTED_EDGE('',*,*,#465,.T.);
#467=CARTESIAN_POINT('',(543.131810259,150.53911673,190.9));
#468=VERTEX_POINT('',#467);
#469=CARTESIAN_POINT('',(557.996129523,124.258535699,190.9));
#470=DIRECTION('',(-0.492310201,0.870419822,-0.));
#471=VECTOR('',#470,30.192994659);
#472=LINE('',#469,#471);
#473=EDGE_CURVE('',#460,#468,#472,.T.);
#474=ORIENTED_EDGE('',*,*,#473,.T.);
#475=CARTESIAN_POINT('',(543.131810259,150.53911673,190.9));
#476=DIRECTION('',(0.507650577,0.861563051,-0.));
#477=VECTOR('',#476,0.005858073);
#478=LINE('',#475,#477);
#479=EDGE_CURVE('',#468,#458,#478,.T.);
#480=ORIENTED_EDGE('',*,*,#479,.T.);
#481=EDGE_LOOP('',(#466,#474,#480));
#482=FACE_BOUND('',#481,.T.);
#483=ADVANCED_FACE('',(#482),#456,.F.);
#484=CARTESIAN_POINT('',(404.,0.,190.9));
#485=DIRECTION('',(0.,0.,1.));
#486=DIRECTION('',(1.,0.,0.));
#487=AXIS2_PLACEMENT_3D('',#484,#485,#486);
#488=PLANE('',#487);
#489=CARTESIAN_POINT('',(574.038651755,202.982905077,190.9));
#490=VERTEX_POINT('',#489);
#491=CARTESIAN_POINT('',(558.705303119,176.969788988,190.9));
#492=VERTEX_POINT('',#491);
#493=CARTESIAN_POINT('',(574.038651755,202.982905077,190.9));
#494=DIRECTION('',(-0.507795322,-0.861477748,0.));
#495=VECTOR('',#494,30.195923385);
#496=LINE('',#493,#495);
#497=EDGE_CURVE('',#490,#492,#496,.T.);
#498=ORIENTED_EDGE('',*,*,#497,.T.);
#499=CARTESIAN_POINT('',(574.032793912,202.98295696,190.9));
#500=VERTEX_POINT('',#499);
#501=CARTESIAN_POINT('',(558.705303119,176.969788988,190.9));
#502=DIRECTION('',(0.507650577,0.861563051,-0.));
#503=VECTOR('',#502,30.192993922);
#504=LINE('',#501,#503);
#505=EDGE_CURVE('',#492,#500,#504,.T.);
#506=ORIENTED_EDGE('',*,*,#505,.T.);
#507=CARTESIAN_POINT('',(574.032793912,202.98295696,190.9));
#508=DIRECTION('',(0.999960778,-0.00885677,-0.));
#509=VECTOR('',#508,0.005858073);
#510=LINE('',#507,#509);
#511=EDGE_CURVE('',#500,#490,#510,.T.);
#512=ORIENTED_EDGE('',*,*,#511,.T.);
#513=EDGE_LOOP('',(#498,#506,#512));
#514=FACE_BOUND('',#513,.T.);
#515=ADVANCED_FACE('',(#514),#488,.F.);
#516=CARTESIAN_POINT('',(404.,0.,190.9));
#517=DIRECTION('',(0.,0.,1.));
#518=DIRECTION('',(1.,0.,0.));
#519=AXIS2_PLACEMENT_3D('',#516,#517,#518);
#520=PLANE('',#519);
#521=ORIENTED_EDGE('',*,*,#276,.T.);
#522=CARTESIAN_POINT('',(619.649923818,202.576410257,190.9));
#523=DIRECTION('',(0.00885677,0.999960778,0.));
#524=VECTOR('',#523,0.002510309);
#525=LINE('',#522,#524);
#526=EDGE_CURVE('',#263,#361,#525,.T.);
#527=ORIENTED_EDGE('',*,*,#526,.T.);
#528=ORIENTED_EDGE('',*,*,#383,.T.);
#529=CARTESIAN_POINT('',(634.900983649,202.443840231,190.9));
#530=DIRECTION('',(0.492310201,-0.870419822,-0.));
#531=VECTOR('',#530,0.005858073);
#532=LINE('',#529,#531);
#533=EDGE_CURVE('',#371,#271,#532,.T.);
#534=ORIENTED_EDGE('',*,*,#533,.T.);
#535=EDGE_LOOP('',(#521,#527,#528,#534));
#536=FACE_BOUND('',#535,.T.);
#537=ADVANCED_FACE('',(#536),#520,.F.);
#538=CARTESIAN_POINT('',(650.27926096,122.731312578,250.9));
#539=DIRECTION('',(-0.861563051,0.507650577,0.));
#540=DIRECTION('',(-0.507650577,-0.861563051,0.));
#541=AXIS2_PLACEMENT_3D('',#538,#539,#540);
#542=PLANE('',#541);
#543=CARTESIAN_POINT('',(634.828770698,96.509395119,309.7));
#544=VERTEX_POINT('',#543);
#545=CARTESIAN_POINT('',(665.729752786,148.953232694,309.7));
#546=VERTEX_POINT('',#545);
#547=CARTESIAN_POINT('',(634.828770698,96.509395119,309.7));
#548=DIRECTION('',(0.507650577,0.861563051,0.));
#549=VECTOR('',#548,60.870574119);
#550=LINE('',#547,#549);
#551=EDGE_CURVE('',#544,#546,#550,.T.);
#552=ORIENTED_EDGE('',*,*,#551,.F.);
#553=CARTESIAN_POINT('',(634.828769134,96.509392463,191.9));
#554=VERTEX_POINT('',#553);
#555=CARTESIAN_POINT('',(634.828769134,96.509392463,309.7));
#556=DIRECTION('',(0.,0.,-1.));
#557=VECTOR('',#556,117.8);
#558=LINE('',#555,#557);
#559=EDGE_CURVE('',#544,#554,#558,.T.);
#560=ORIENTED_EDGE('',*,*,#559,.T.);
#561=CARTESIAN_POINT('',(665.729752786,148.953232694,191.9));
#562=VERTEX_POINT('',#561);
#563=CARTESIAN_POINT('',(634.828769134,96.509392463,191.9));
#564=DIRECTION('',(0.507650577,0.861563051,0.));
#565=VECTOR('',#564,60.870577201);
#566=LINE('',#563,#565);
#567=EDGE_CURVE('',#554,#562,#566,.T.);
#568=ORIENTED_EDGE('',*,*,#567,.T.);
#569=CARTESIAN_POINT('',(665.729752786,148.953232694,191.9));
#570=DIRECTION('',(-0.,-0.,1.));
#571=VECTOR('',#570,117.8);
#572=LINE('',#569,#571);
#573=EDGE_CURVE('',#562,#546,#572,.T.);
#574=ORIENTED_EDGE('',*,*,#573,.T.);
#575=EDGE_LOOP('',(#552,#560,#568,#574));
#576=FACE_BOUND('',#575,.T.);
#577=ADVANCED_FACE('',(#576),#542,.F.);
#578=CARTESIAN_POINT('',(650.755006514,176.444671952,250.9));
#579=DIRECTION('',(-0.870419822,-0.492310201,0.));
#580=DIRECTION('',(0.492310201,-0.870419822,0.));
#581=AXIS2_PLACEMENT_3D('',#578,#579,#580);
#582=PLANE('',#581);
#583=CARTESIAN_POINT('',(650.608495198,176.703708537,191.9));
#584=VERTEX_POINT('',#583);
#585=CARTESIAN_POINT('',(635.771403471,202.936150431,191.9));
#586=VERTEX_POINT('',#585);
#587=CARTESIAN_POINT('',(650.608495198,176.703708537,191.9));
#588=DIRECTION('',(-0.492310201,0.870419822,0.));
#589=VECTOR('',#588,30.137689007);
#590=LINE('',#587,#589);
#591=EDGE_CURVE('',#584,#586,#590,.T.);
#592=ORIENTED_EDGE('',*,*,#591,.T.);
#593=CARTESIAN_POINT('',(635.771403508,202.936150366,309.7));
#594=VERTEX_POINT('',#593);
#595=CARTESIAN_POINT('',(635.771403471,202.936150431,191.9));
#596=DIRECTION('',(-0.,-0.,1.));
#597=VECTOR('',#596,117.8);
#598=LINE('',#595,#597);
#599=EDGE_CURVE('',#586,#594,#598,.T.);
#600=ORIENTED_EDGE('',*,*,#599,.T.);
#601=CARTESIAN_POINT('',(665.738608305,149.953195685,309.7));
#602=VERTEX_POINT('',#601);
#603=CARTESIAN_POINT('',(665.738608305,149.953195685,309.7));
#604=DIRECTION('',(-0.492310201,0.870419822,0.));
#605=VECTOR('',#604,60.870574583);
#606=LINE('',#603,#605);
#607=EDGE_CURVE('',#602,#594,#606,.T.);
#608=ORIENTED_EDGE('',*,*,#607,.F.);
#609=CARTESIAN_POINT('',(665.738609556,149.953193472,191.9));
#610=VERTEX_POINT('',#609);
#611=CARTESIAN_POINT('',(665.738609556,149.953193472,309.7));
#612=DIRECTION('',(0.,0.,-1.));
#613=VECTOR('',#612,117.8);
#614=LINE('',#611,#613);
#615=EDGE_CURVE('',#602,#610,#614,.T.);
#616=ORIENTED_EDGE('',*,*,#615,.T.);
#617=CARTESIAN_POINT('',(665.738609556,149.953193472,191.9));
#618=DIRECTION('',(-0.492310201,0.870419822,0.));
#619=VECTOR('',#618,30.732888194);
#620=LINE('',#617,#619);
#621=EDGE_CURVE('',#610,#584,#620,.T.);
#622=ORIENTED_EDGE('',*,*,#621,.T.);
#623=CARTESIAN_POINT('',(649.623874796,178.44454818,193.9));
#624=VERTEX_POINT('',#623);
#625=CARTESIAN_POINT('',(650.608495198,176.703708537,193.9));
#626=DIRECTION('',(0.870419822,0.492310201,0.));
#627=DIRECTION('',(-0.492310201,0.870419822,0.));
#628=AXIS2_PLACEMENT_3D('',#625,#626,#627);
#629=CIRCLE('',#628,2.);
#630=EDGE_CURVE('',#624,#584,#629,.T.);
#631=ORIENTED_EDGE('',*,*,#630,.F.);
#632=CARTESIAN_POINT('',(650.608495198,176.703708537,193.9));
#633=DIRECTION('',(0.870419822,0.492310201,0.));
#634=DIRECTION('',(-0.492310201,0.870419822,0.));
#635=AXIS2_PLACEMENT_3D('',#632,#633,#634);
#636=CIRCLE('',#635,2.);
#637=EDGE_CURVE('',#584,#624,#636,.T.);
#638=ORIENTED_EDGE('',*,*,#637,.F.);
#639=EDGE_LOOP('',(#592,#600,#608,#616,#622,#631,#638));
#640=FACE_BOUND('',#639,.T.);
#641=ADVANCED_FACE('',(#640),#582,.F.);
#642=CARTESIAN_POINT('',(557.720739034,177.268687422,250.9));
#643=DIRECTION('',(0.861563051,-0.507650577,0.));
#644=DIRECTION('',(0.507650577,0.861563051,0.));
#645=AXIS2_PLACEMENT_3D('',#642,#643,#644);
#646=PLANE('',#645);
#647=CARTESIAN_POINT('',(557.675166787,177.191344136,191.9));
#648=VERTEX_POINT('',#647);
#649=CARTESIAN_POINT('',(542.270247208,151.046767307,191.9));
#650=VERTEX_POINT('',#649);
#651=CARTESIAN_POINT('',(557.675166787,177.191344136,191.9));
#652=DIRECTION('',(-0.507650577,-0.861563051,0.));
#653=VECTOR('',#652,30.345517705);
#654=LINE('',#651,#653);
#655=EDGE_CURVE('',#648,#650,#654,.T.);
#656=ORIENTED_EDGE('',*,*,#655,.T.);
#657=CARTESIAN_POINT('',(542.270248862,151.046770114,309.7));
#658=VERTEX_POINT('',#657);
#659=CARTESIAN_POINT('',(542.270247208,151.046767307,191.9));
#660=DIRECTION('',(-0.,-0.,1.));
#661=VECTOR('',#660,117.8);
#662=LINE('',#659,#661);
#663=EDGE_CURVE('',#650,#658,#662,.T.);
#664=ORIENTED_EDGE('',*,*,#663,.T.);
#665=CARTESIAN_POINT('',(573.171232662,203.490610595,309.7));
#666=VERTEX_POINT('',#665);
#667=CARTESIAN_POINT('',(573.171232662,203.490610595,309.7));
#668=DIRECTION('',(-0.507650577,-0.861563051,0.));
#669=VECTOR('',#668,60.870577492);
#670=LINE('',#667,#669);
#671=EDGE_CURVE('',#666,#658,#670,.T.);
#672=ORIENTED_EDGE('',*,*,#671,.F.);
#673=CARTESIAN_POINT('',(573.17123086,203.490607537,191.9));
#674=VERTEX_POINT('',#673);
#675=CARTESIAN_POINT('',(573.17123086,203.490607537,309.7));
#676=DIRECTION('',(0.,0.,-1.));
#677=VECTOR('',#676,117.8);
#678=LINE('',#675,#677);
#679=EDGE_CURVE('',#666,#674,#678,.T.);
#680=ORIENTED_EDGE('',*,*,#679,.T.);
#681=CARTESIAN_POINT('',(573.17123086,203.490607537,191.9));
#682=DIRECTION('',(-0.507650577,-0.861563051,0.));
#683=VECTOR('',#682,30.525059496);
#684=LINE('',#681,#683);
#685=EDGE_CURVE('',#674,#648,#684,.T.);
#686=ORIENTED_EDGE('',*,*,#685,.T.);
#687=CARTESIAN_POINT('',(556.659865633,175.468218033,193.9));
#688=VERTEX_POINT('',#687);
#689=CARTESIAN_POINT('',(557.675166787,177.191344136,193.9));
#690=DIRECTION('',(-0.861563051,0.507650577,0.));
#691=DIRECTION('',(-0.507650577,-0.861563051,0.));
#692=AXIS2_PLACEMENT_3D('',#689,#690,#691);
#693=CIRCLE('',#692,2.);
#694=EDGE_CURVE('',#688,#648,#693,.T.);
#695=ORIENTED_EDGE('',*,*,#694,.F.);
#696=CARTESIAN_POINT('',(557.675166787,177.191344136,193.9));
#697=DIRECTION('',(-0.861563051,0.507650577,0.));
#698=DIRECTION('',(-0.507650577,-0.861563051,0.));
#699=AXIS2_PLACEMENT_3D('',#696,#697,#698);
#700=CIRCLE('',#699,2.);
#701=EDGE_CURVE('',#648,#688,#700,.T.);
#702=ORIENTED_EDGE('',*,*,#701,.F.);
#703=EDGE_LOOP('',(#656,#664,#672,#680,#686,#695,#702));
#704=FACE_BOUND('',#703,.T.);
#705=ADVANCED_FACE('',(#704),#646,.F.);
#706=CARTESIAN_POINT('',(557.24499348,123.555328049,250.9));
#707=DIRECTION('',(0.870419822,0.492310201,0.));
#708=DIRECTION('',(-0.492310201,0.870419822,0.));
#709=AXIS2_PLACEMENT_3D('',#706,#707,#708);
#710=PLANE('',#709);
#711=CARTESIAN_POINT('',(558.170560649,121.918896367,191.9));
#712=VERTEX_POINT('',#711);
#713=CARTESIAN_POINT('',(572.228596523,97.063849569,191.9));
#714=VERTEX_POINT('',#713);
#715=CARTESIAN_POINT('',(558.170560649,121.918896367,191.9));
#716=DIRECTION('',(0.492310201,-0.870419822,0.));
#717=VECTOR('',#716,28.555239869);
#718=LINE('',#715,#717);
#719=EDGE_CURVE('',#712,#714,#718,.T.);
#720=ORIENTED_EDGE('',*,*,#719,.T.);
#721=CARTESIAN_POINT('',(572.22859872,97.063845686,309.7));
#722=VERTEX_POINT('',#721);
#723=CARTESIAN_POINT('',(572.228596523,97.063849569,191.9));
#724=DIRECTION('',(-0.,-0.,1.));
#725=VECTOR('',#724,117.8);
#726=LINE('',#723,#725);
#727=EDGE_CURVE('',#714,#722,#726,.T.);
#728=ORIENTED_EDGE('',*,*,#727,.T.);
#729=CARTESIAN_POINT('',(542.261392122,150.04680355,309.7));
#730=VERTEX_POINT('',#729);
#731=CARTESIAN_POINT('',(542.261392122,150.04680355,309.7));
#732=DIRECTION('',(0.492310201,-0.870419822,0.));
#733=VECTOR('',#732,60.870578241);
#734=LINE('',#731,#733);
#735=EDGE_CURVE('',#730,#722,#734,.T.);
#736=ORIENTED_EDGE('',*,*,#735,.F.);
#737=CARTESIAN_POINT('',(542.261390438,150.046806529,191.9));
#738=VERTEX_POINT('',#737);
#739=CARTESIAN_POINT('',(542.261390438,150.046806529,309.7));
#740=DIRECTION('',(0.,0.,-1.));
#741=VECTOR('',#740,117.8);
#742=LINE('',#739,#741);
#743=EDGE_CURVE('',#730,#738,#742,.T.);
#744=ORIENTED_EDGE('',*,*,#743,.T.);
#745=CARTESIAN_POINT('',(542.261390438,150.046806529,191.9));
#746=DIRECTION('',(0.492310201,-0.870419822,0.));
#747=VECTOR('',#746,32.315337332);
#748=LINE('',#745,#747);
#749=EDGE_CURVE('',#738,#712,#748,.T.);
#750=ORIENTED_EDGE('',*,*,#749,.T.);
#751=CARTESIAN_POINT('',(559.155181051,120.178056724,193.9));
#752=VERTEX_POINT('',#751);
#753=CARTESIAN_POINT('',(558.170560649,121.918896367,193.9));
#754=DIRECTION('',(-0.870419822,-0.492310201,0.));
#755=DIRECTION('',(0.492310201,-0.870419822,0.));
#756=AXIS2_PLACEMENT_3D('',#753,#754,#755);
#757=CIRCLE('',#756,2.);
#758=EDGE_CURVE('',#752,#712,#757,.T.);
#759=ORIENTED_EDGE('',*,*,#758,.F.);
#760=CARTESIAN_POINT('',(558.170560649,121.918896367,193.9));
#761=DIRECTION('',(-0.870419822,-0.492310201,0.));
#762=DIRECTION('',(0.492310201,-0.870419822,0.));
#763=AXIS2_PLACEMENT_3D('',#760,#761,#762);
#764=CIRCLE('',#763,2.);
#765=EDGE_CURVE('',#712,#752,#764,.T.);
#766=ORIENTED_EDGE('',*,*,#765,.F.);
#767=EDGE_LOOP('',(#720,#728,#736,#744,#750,#759,#766));
#768=FACE_BOUND('',#767,.T.);
#769=ADVANCED_FACE('',(#768),#710,.F.);
#770=CARTESIAN_POINT('',(649.888981109,175.944671949,250.9));
#771=DIRECTION('',(-0.870502523,-0.492163954,0.));
#772=DIRECTION('',(0.492163954,-0.870502523,0.));
#773=AXIS2_PLACEMENT_3D('',#770,#771,#772);
#774=PLANE('',#773);
#775=CARTESIAN_POINT('',(648.753826408,177.952448063,193.9));
#776=VERTEX_POINT('',#775);
#777=CARTESIAN_POINT('',(649.73815433,176.211442992,193.9));
#778=DIRECTION('',(-0.870502523,-0.492163954,0.));
#779=DIRECTION('',(-0.492163954,0.870502523,0.));
#780=AXIS2_PLACEMENT_3D('',#777,#778,#779);
#781=ELLIPSE('',#780,2.000000028,2.);
#782=EDGE_CURVE('',#776,#776,#781,.T.);
#783=ORIENTED_EDGE('',*,*,#782,.F.);
#784=EDGE_LOOP('',(#783));
#785=FACE_BOUND('',#784,.T.);
#786=ORIENTED_EDGE('',*,*,#293,.T.);
#787=CARTESIAN_POINT('',(650.003870713,175.741463874,190.9));
#788=VERTEX_POINT('',#787);
#789=CARTESIAN_POINT('',(634.909817776,202.438687547,190.900013275));
#790=CARTESIAN_POINT('',(639.941168755,193.539612989,190.900004425));
#791=CARTESIAN_POINT('',(644.972519734,184.640538432,190.9));
#792=CARTESIAN_POINT('',(650.003870713,175.741463874,190.9));
#793=B_SPLINE_CURVE_WITH_KNOTS('',3,(#789,#790,#791,#792),.UNSPECIFIED.,.F.,.F.,(4,4),(0.,0.030668749),.UNSPECIFIED.);
#794=EDGE_CURVE('',#279,#788,#793,.T.);
#795=ORIENTED_EDGE('',*,*,#794,.T.);
#796=CARTESIAN_POINT('',(664.86521588,149.455836172,190.9));
#797=VERTEX_POINT('',#796);
#798=CARTESIAN_POINT('',(664.86521588,149.455836172,190.9));
#799=DIRECTION('',(-0.492163954,0.870502523,0.));
#800=VECTOR('',#799,30.195923631);
#801=LINE('',#798,#800);
#802=EDGE_CURVE('',#797,#788,#801,.T.);
#803=ORIENTED_EDGE('',*,*,#802,.F.);
#804=CARTESIAN_POINT('',(664.868144443,149.450656351,190.900013275));
#805=VERTEX_POINT('',#804);
#806=CARTESIAN_POINT('',(664.86521588,149.455836172,191.9));
#807=DIRECTION('',(-0.870502523,-0.492163954,0.));
#808=DIRECTION('',(-0.492163954,0.870502523,0.));
#809=AXIS2_PLACEMENT_3D('',#806,#807,#808);
#810=ELLIPSE('',#809,1.154812573,1.);
#811=EDGE_CURVE('',#797,#805,#810,.T.);
#812=ORIENTED_EDGE('',*,*,#811,.T.);
#813=CARTESIAN_POINT('',(664.868144443,149.450656351,309.7));
#814=VERTEX_POINT('',#813);
#815=CARTESIAN_POINT('',(664.868144443,149.450656351,309.7));
#816=DIRECTION('',(0.,0.,-1.));
#817=VECTOR('',#816,118.799986725);
#818=LINE('',#815,#817);
#819=EDGE_CURVE('',#814,#805,#818,.T.);
#820=ORIENTED_EDGE('',*,*,#819,.F.);
#821=CARTESIAN_POINT('',(664.868144443,149.450656351,309.7));
#822=DIRECTION('',(-0.492163954,0.870502523,0.));
#823=VECTOR('',#822,60.870623347);
#824=LINE('',#821,#823);
#825=EDGE_CURVE('',#814,#288,#824,.T.);
#826=ORIENTED_EDGE('',*,*,#825,.T.);
#827=EDGE_LOOP('',(#786,#795,#803,#812,#820,#826));
#828=FACE_BOUND('',#827,.T.);
#829=ADVANCED_FACE('',(#785,#828),#774,.T.);
#830=CARTESIAN_POINT('',(649.413235553,123.231312578,250.9));
#831=DIRECTION('',(-0.861477748,0.507795322,0.));
#832=DIRECTION('',(-0.507795322,-0.861477748,0.));
#833=AXIS2_PLACEMENT_3D('',#830,#831,#832);
#834=PLANE('',#833);
#835=ORIENTED_EDGE('',*,*,#415,.F.);
#836=CARTESIAN_POINT('',(633.958326664,97.011968805,190.900013275));
#837=VERTEX_POINT('',#836);
#838=CARTESIAN_POINT('',(633.961348239,97.017094924,191.9));
#839=DIRECTION('',(-0.861477748,0.507795322,0.));
#840=DIRECTION('',(0.507795322,0.861477748,0.));
#841=AXIS2_PLACEMENT_3D('',#838,#839,#840);
#842=ELLIPSE('',#841,1.154812573,1.);
#843=EDGE_CURVE('',#404,#837,#842,.T.);
#844=ORIENTED_EDGE('',*,*,#843,.T.);
#845=CARTESIAN_POINT('',(633.958326664,97.011968805,309.7));
#846=VERTEX_POINT('',#845);
#847=CARTESIAN_POINT('',(633.958326664,97.011968805,309.7));
#848=DIRECTION('',(0.,0.,-1.));
#849=VECTOR('',#848,118.799986725);
#850=LINE('',#847,#849);
#851=EDGE_CURVE('',#846,#837,#850,.T.);
#852=ORIENTED_EDGE('',*,*,#851,.F.);
#853=CARTESIAN_POINT('',(633.958326664,97.011968805,309.7));
#854=DIRECTION('',(0.507795322,0.861477748,0.));
#855=VECTOR('',#854,60.870623347);
#856=LINE('',#853,#855);
#857=EDGE_CURVE('',#846,#814,#856,.T.);
#858=ORIENTED_EDGE('',*,*,#857,.T.);
#859=ORIENTED_EDGE('',*,*,#819,.T.);
#860=CARTESIAN_POINT('',(664.868144443,149.450656351,190.900013275));
#861=CARTESIAN_POINT('',(659.676995254,140.643841238,190.900004425));
#862=CARTESIAN_POINT('',(654.485846064,131.837026126,190.9));
#863=CARTESIAN_POINT('',(649.294696875,123.030211013,190.9));
#864=B_SPLINE_CURVE_WITH_KNOTS('',3,(#860,#861,#862,#863),.UNSPECIFIED.,.F.,.F.,(4,4),(0.,0.03066875),.UNSPECIFIED.);
#865=EDGE_CURVE('',#805,#394,#864,.T.);
#866=ORIENTED_EDGE('',*,*,#865,.T.);
#867=EDGE_LOOP('',(#835,#844,#852,#858,#859,#866));
#868=FACE_BOUND('',#867,.T.);
#869=ADVANCED_FACE('',(#868),#834,.T.);
#870=CARTESIAN_POINT('',(603.524254441,97.286640629,250.9));
#871=DIRECTION('',(0.009024774,0.999959276,0.));
#872=DIRECTION('',(-0.999959276,0.009024774,0.));
#873=AXIS2_PLACEMENT_3D('',#870,#871,#872);
#874=PLANE('',#873);
#875=ORIENTED_EDGE('',*,*,#851,.T.);
#876=CARTESIAN_POINT('',(633.958326664,97.011968805,190.900013275));
#877=CARTESIAN_POINT('',(623.735826621,97.104228319,190.900004425));
#878=CARTESIAN_POINT('',(613.513326579,97.196487834,190.9));
#879=CARTESIAN_POINT('',(603.290826536,97.288747349,190.9));
#880=B_SPLINE_CURVE_WITH_KNOTS('',3,(#876,#877,#878,#879),.UNSPECIFIED.,.F.,.F.,(4,4),(0.,0.030668749),.UNSPECIFIED.);
#881=EDGE_CURVE('',#837,#428,#880,.T.);
#882=ORIENTED_EDGE('',*,*,#881,.T.);
#883=ORIENTED_EDGE('',*,*,#433,.F.);
#884=CARTESIAN_POINT('',(573.090182219,97.561312454,190.900013275));
#885=VERTEX_POINT('',#884);
#886=CARTESIAN_POINT('',(573.096132356,97.561258753,191.9));
#887=DIRECTION('',(0.009024774,0.999959276,0.));
#888=DIRECTION('',(0.999959276,-0.009024774,0.));
#889=AXIS2_PLACEMENT_3D('',#886,#887,#888);
#890=ELLIPSE('',#889,1.154812573,1.);
#891=EDGE_CURVE('',#426,#885,#890,.T.);
#892=ORIENTED_EDGE('',*,*,#891,.T.);
#893=CARTESIAN_POINT('',(573.090182219,97.561312454,309.7));
#894=VERTEX_POINT('',#893);
#895=CARTESIAN_POINT('',(573.090182219,97.561312454,309.7));
#896=DIRECTION('',(0.,0.,-1.));
#897=VECTOR('',#896,118.799986725);
#898=LINE('',#895,#897);
#899=EDGE_CURVE('',#894,#885,#898,.T.);
#900=ORIENTED_EDGE('',*,*,#899,.F.);
#901=CARTESIAN_POINT('',(573.090182219,97.561312454,309.7));
#902=DIRECTION('',(0.999959276,-0.009024774,0.));
#903=VECTOR('',#902,60.870623347);
#904=LINE('',#901,#903);
#905=EDGE_CURVE('',#894,#846,#904,.T.);
#906=ORIENTED_EDGE('',*,*,#905,.T.);
#907=EDGE_LOOP('',(#875,#882,#883,#892,#900,#906));
#908=FACE_BOUND('',#907,.T.);
#909=ADVANCED_FACE('',(#908),#874,.T.);
#910=CARTESIAN_POINT('',(558.111018885,124.055328052,250.9));
#911=DIRECTION('',(0.870502523,0.492163954,0.));
#912=DIRECTION('',(-0.492163954,0.870502523,0.));
#913=AXIS2_PLACEMENT_3D('',#910,#911,#912);
#914=PLANE('',#913);
#915=CARTESIAN_POINT('',(560.024998021,120.670025951,193.9));
#916=VERTEX_POINT('',#915);
#917=CARTESIAN_POINT('',(559.0406701,122.411031022,193.9));
#918=DIRECTION('',(0.870502523,0.492163954,0.));
#919=DIRECTION('',(0.492163954,-0.870502523,0.));
#920=AXIS2_PLACEMENT_3D('',#917,#918,#919);
#921=ELLIPSE('',#920,2.000000028,2.);
#922=EDGE_CURVE('',#916,#916,#921,.T.);
#923=ORIENTED_EDGE('',*,*,#922,.F.);
#924=EDGE_LOOP('',(#923));
#925=FACE_BOUND('',#924,.T.);
#926=ORIENTED_EDGE('',*,*,#899,.T.);
#927=CARTESIAN_POINT('',(573.090182219,97.561312454,190.900013275));
#928=CARTESIAN_POINT('',(568.05883132,106.460386869,190.900004425));
#929=CARTESIAN_POINT('',(563.027480422,115.359461284,190.9));
#930=CARTESIAN_POINT('',(557.996129523,124.258535699,190.9));
#931=B_SPLINE_CURVE_WITH_KNOTS('',3,(#927,#928,#929,#930),.UNSPECIFIED.,.F.,.F.,(4,4),(0.,0.030668749),.UNSPECIFIED.);
#932=EDGE_CURVE('',#885,#460,#931,.T.);
#933=ORIENTED_EDGE('',*,*,#932,.T.);
#934=ORIENTED_EDGE('',*,*,#465,.F.);
#935=CARTESIAN_POINT('',(543.131855551,150.54934365,190.900013275));
#936=VERTEX_POINT('',#935);
#937=CARTESIAN_POINT('',(543.134784114,150.544163829,191.9));
#938=DIRECTION('',(0.870502523,0.492163954,0.));
#939=DIRECTION('',(0.492163954,-0.870502523,0.));
#940=AXIS2_PLACEMENT_3D('',#937,#938,#939);
#941=ELLIPSE('',#940,1.154812573,1.);
#942=EDGE_CURVE('',#458,#936,#941,.T.);
#943=ORIENTED_EDGE('',*,*,#942,.T.);
#944=CARTESIAN_POINT('',(543.131855551,150.54934365,309.7));
#945=VERTEX_POINT('',#944);
#946=CARTESIAN_POINT('',(543.131855551,150.54934365,309.7));
#947=DIRECTION('',(0.,0.,-1.));
#948=VECTOR('',#947,118.799986725);
#949=LINE('',#946,#948);
#950=EDGE_CURVE('',#945,#936,#949,.T.);
#951=ORIENTED_EDGE('',*,*,#950,.F.);
#952=CARTESIAN_POINT('',(543.131855551,150.54934365,309.7));
#953=DIRECTION('',(0.492163954,-0.870502523,0.));
#954=VECTOR('',#953,60.870623347);
#955=LINE('',#952,#954);
#956=EDGE_CURVE('',#945,#894,#955,.T.);
#957=ORIENTED_EDGE('',*,*,#956,.T.);
#958=EDGE_LOOP('',(#926,#933,#934,#943,#951,#957));
#959=FACE_BOUND('',#958,.T.);
#960=ADVANCED_FACE('',(#925,#959),#914,.T.);
#961=CARTESIAN_POINT('',(558.586764441,176.768687423,250.9));
#962=DIRECTION('',(0.861477748,-0.507795322,0.));
#963=DIRECTION('',(0.507795322,0.861477748,0.));
#964=AXIS2_PLACEMENT_3D('',#961,#962,#963);
#965=PLANE('',#964);
#966=CARTESIAN_POINT('',(557.521091114,174.960766359,193.9));
#967=VERTEX_POINT('',#966);
#968=CARTESIAN_POINT('',(558.536681772,176.683721881,193.9));
#969=DIRECTION('',(0.861477748,-0.507795322,0.));
#970=DIRECTION('',(-0.507795322,-0.861477748,0.));
#971=AXIS2_PLACEMENT_3D('',#968,#969,#970);
#972=ELLIPSE('',#971,2.000000028,2.);
#973=EDGE_CURVE('',#967,#967,#972,.T.);
#974=ORIENTED_EDGE('',*,*,#973,.F.);
#975=EDGE_LOOP('',(#974));
#976=FACE_BOUND('',#975,.T.);
#977=ORIENTED_EDGE('',*,*,#950,.T.);
#978=CARTESIAN_POINT('',(543.131855551,150.54934365,190.900013275));
#979=CARTESIAN_POINT('',(548.323004741,159.356158762,190.900004425));
#980=CARTESIAN_POINT('',(553.51415393,168.162973875,190.9));
#981=CARTESIAN_POINT('',(558.705303119,176.969788987,190.9));
#982=B_SPLINE_CURVE_WITH_KNOTS('',3,(#978,#979,#980,#981),.UNSPECIFIED.,.F.,.F.,(4,4),(0.,0.03066875),.UNSPECIFIED.);
#983=EDGE_CURVE('',#936,#492,#982,.T.);
#984=ORIENTED_EDGE('',*,*,#983,.T.);
#985=ORIENTED_EDGE('',*,*,#497,.F.);
#986=CARTESIAN_POINT('',(574.038651755,202.982905077,191.9));
#987=DIRECTION('',(0.861477748,-0.507795322,0.));
#988=DIRECTION('',(-0.507795322,-0.861477748,0.));
#989=AXIS2_PLACEMENT_3D('',#986,#987,#988);
#990=ELLIPSE('',#989,1.154812573,1.);
#991=EDGE_CURVE('',#490,#304,#990,.T.);
#992=ORIENTED_EDGE('',*,*,#991,.T.);
#993=ORIENTED_EDGE('',*,*,#309,.F.);
#994=CARTESIAN_POINT('',(574.04167333,202.988031196,309.7));
#995=DIRECTION('',(-0.507795322,-0.861477748,0.));
#996=VECTOR('',#995,60.870623347);
#997=LINE('',#994,#996);
#998=EDGE_CURVE('',#296,#945,#997,.T.);
#999=ORIENTED_EDGE('',*,*,#998,.T.);
#1000=EDGE_LOOP('',(#977,#984,#985,#992,#993,#999));
#1001=FACE_BOUND('',#1000,.T.);
#1002=ADVANCED_FACE('',(#976,#1001),#965,.T.);
#1003=CARTESIAN_POINT('',(603.524254443,96.286640627,250.9));
#1004=DIRECTION('',(0.00885677,0.999960778,0.));
#1005=DIRECTION('',(-0.999960778,0.00885677,0.));
#1006=AXIS2_PLACEMENT_3D('',#1003,#1004,#1005);
#1007=PLANE('',#1006);
#1008=CARTESIAN_POINT('',(604.568267168,96.277393684,191.9));
#1009=VERTEX_POINT('',#1008);
#1010=CARTESIAN_POINT('',(633.958349312,96.017082262,191.9));
#1011=VERTEX_POINT('',#1010);
#1012=CARTESIAN_POINT('',(604.568267168,96.277393684,191.9));
#1013=DIRECTION('',(0.999960778,-0.00885677,0.));
#1014=VECTOR('',#1013,29.391234926);
#1015=LINE('',#1012,#1014);
#1016=EDGE_CURVE('',#1009,#1011,#1015,.T.);
#1017=ORIENTED_EDGE('',*,*,#1016,.T.);
#1018=CARTESIAN_POINT('',(633.958349312,96.017082262,309.7));
#1019=VERTEX_POINT('',#1018);
#1020=CARTESIAN_POINT('',(633.958349312,96.017082262,191.9));
#1021=DIRECTION('',(-0.,-0.,1.));
#1022=VECTOR('',#1021,117.8);
#1023=LINE('',#1020,#1022);
#1024=EDGE_CURVE('',#1011,#1019,#1023,.T.);
#1025=ORIENTED_EDGE('',*,*,#1024,.T.);
#1026=CARTESIAN_POINT('',(573.090159574,96.556198992,309.7));
#1027=VERTEX_POINT('',#1026);
#1028=CARTESIAN_POINT('',(573.090159574,96.556198992,309.7));
#1029=DIRECTION('',(0.999960778,-0.00885677,0.));
#1030=VECTOR('',#1029,60.870577201);
#1031=LINE('',#1028,#1030);
#1032=EDGE_CURVE('',#1027,#1019,#1031,.T.);
#1033=ORIENTED_EDGE('',*,*,#1032,.F.);
#1034=CARTESIAN_POINT('',(573.090159574,96.556198992,191.9));
#1035=VERTEX_POINT('',#1034);
#1036=CARTESIAN_POINT('',(573.090159574,96.556198992,309.7));
#1037=DIRECTION('',(0.,0.,-1.));
#1038=VECTOR('',#1037,117.8);
#1039=LINE('',#1036,#1038);
#1040=EDGE_CURVE('',#1027,#1035,#1039,.T.);
#1041=ORIENTED_EDGE('',*,*,#1040,.T.);
#1042=CARTESIAN_POINT('',(573.090159574,96.556198992,191.9));
#1043=DIRECTION('',(0.999960778,-0.00885677,0.));
#1044=VECTOR('',#1043,31.479342275);
#1045=LINE('',#1042,#1044);
#1046=EDGE_CURVE('',#1035,#1009,#1045,.T.);
#1047=ORIENTED_EDGE('',*,*,#1046,.T.);
#1048=EDGE_LOOP('',(#1017,#1025,#1033,#1041,#1047));
#1049=FACE_BOUND('',#1048,.T.);
#1050=ADVANCED_FACE('',(#1049),#1007,.F.);
#1051=CARTESIAN_POINT('',(404.,0.,309.7));
#1052=DIRECTION('',(0.,0.,1.));
#1053=DIRECTION('',(1.,0.,0.));
#1054=AXIS2_PLACEMENT_3D('',#1051,#1052,#1053);
#1055=PLANE('',#1054);
#1056=ORIENTED_EDGE('',*,*,#825,.F.);
#1057=ORIENTED_EDGE('',*,*,#857,.F.);
#1058=ORIENTED_EDGE('',*,*,#905,.F.);
#1059=ORIENTED_EDGE('',*,*,#956,.F.);
#1060=ORIENTED_EDGE('',*,*,#998,.F.);
#1061=ORIENTED_EDGE('',*,*,#301,.F.);
#1062=EDGE_LOOP('',(#1056,#1057,#1058,#1059,#1060,#1061));
#1063=FACE_BOUND('',#1062,.T.);
#1064=ORIENTED_EDGE('',*,*,#1032,.T.);
#1065=CARTESIAN_POINT('',(633.967206082,97.017043041,309.7));
#1066=DIRECTION('',(0.,0.,1.));
#1067=DIRECTION('',(1.,0.,-0.));
#1068=AXIS2_PLACEMENT_3D('',#1065,#1066,#1067);
#1069=CIRCLE('',#1068,1.);
#1070=EDGE_CURVE('',#1019,#544,#1069,.T.);
#1071=ORIENTED_EDGE('',*,*,#1070,.T.);
#1072=ORIENTED_EDGE('',*,*,#551,.T.);
#1073=CARTESIAN_POINT('',(664.868189735,149.460883271,309.7));
#1074=DIRECTION('',(0.,0.,1.));
#1075=DIRECTION('',(1.,0.,-0.));
#1076=AXIS2_PLACEMENT_3D('',#1073,#1074,#1075);
#1077=CIRCLE('',#1076,1.);
#1078=EDGE_CURVE('',#546,#602,#1077,.T.);
#1079=ORIENTED_EDGE('',*,*,#1078,.T.);
#1080=ORIENTED_EDGE('',*,*,#607,.T.);
#1081=CARTESIAN_POINT('',(634.900983649,202.443840231,309.7));
#1082=DIRECTION('',(0.,0.,1.));
#1083=DIRECTION('',(1.,0.,-0.));
#1084=AXIS2_PLACEMENT_3D('',#1081,#1082,#1083);
#1085=CIRCLE('',#1084,1.);
#1086=EDGE_CURVE('',#594,#173,#1085,.T.);
#1087=ORIENTED_EDGE('',*,*,#1086,.T.);
#1088=ORIENTED_EDGE('',*,*,#178,.T.);
#1089=CARTESIAN_POINT('',(574.032793912,202.98295696,309.7));
#1090=DIRECTION('',(0.,0.,1.));
#1091=DIRECTION('',(1.,0.,-0.));
#1092=AXIS2_PLACEMENT_3D('',#1089,#1090,#1091);
#1093=CIRCLE('',#1092,1.);
#1094=EDGE_CURVE('',#165,#666,#1093,.T.);
#1095=ORIENTED_EDGE('',*,*,#1094,.T.);
#1096=ORIENTED_EDGE('',*,*,#671,.T.);
#1097=CARTESIAN_POINT('',(542.131810259,150.53911673,309.7));
#1098=VERTEX_POINT('',#1097);
#1099=CARTESIAN_POINT('',(543.131810259,150.53911673,309.7));
#1100=DIRECTION('',(0.,0.,1.));
#1101=DIRECTION('',(1.,0.,-0.));
#1102=AXIS2_PLACEMENT_3D('',#1099,#1100,#1101);
#1103=CIRCLE('',#1102,1.);
#1104=EDGE_CURVE('',#658,#1098,#1103,.T.);
#1105=ORIENTED_EDGE('',*,*,#1104,.T.);
#1106=CARTESIAN_POINT('',(543.131810259,150.53911673,309.7));
#1107=DIRECTION('',(0.,0.,1.));
#1108=DIRECTION('',(1.,0.,-0.));
#1109=AXIS2_PLACEMENT_3D('',#1106,#1107,#1108);
#1110=CIRCLE('',#1109,1.);
#1111=EDGE_CURVE('',#1098,#730,#1110,.T.);
#1112=ORIENTED_EDGE('',*,*,#1111,.T.);
#1113=ORIENTED_EDGE('',*,*,#735,.T.);
#1114=CARTESIAN_POINT('',(573.099016345,97.55615977,309.7));
#1115=DIRECTION('',(0.,0.,1.));
#1116=DIRECTION('',(1.,0.,-0.));
#1117=AXIS2_PLACEMENT_3D('',#1114,#1115,#1116);
#1118=CIRCLE('',#1117,1.);
#1119=EDGE_CURVE('',#722,#1027,#1118,.T.);
#1120=ORIENTED_EDGE('',*,*,#1119,.T.);
#1121=EDGE_LOOP('',(#1064,#1071,#1072,#1079,#1080,#1087,#1088,#1095,#1096,#1105,#1112,#1113,#1120));
#1122=FACE_BOUND('',#1121,.T.);
#1123=ADVANCED_FACE('',(#1063,#1122),#1055,.T.);
#1124=CARTESIAN_POINT('',(404.,0.,190.9));
#1125=DIRECTION('',(0.,0.,1.));
#1126=DIRECTION('',(1.,0.,0.));
#1127=AXIS2_PLACEMENT_3D('',#1124,#1125,#1126);
#1128=PLANE('',#1127);
#1129=ORIENTED_EDGE('',*,*,#802,.T.);
#1130=CARTESIAN_POINT('',(664.868189735,149.460883271,190.9));
#1131=VERTEX_POINT('',#1130);
#1132=CARTESIAN_POINT('',(650.003870713,175.741463874,190.9));
#1133=DIRECTION('',(0.492310201,-0.870419822,-0.));
#1134=VECTOR('',#1133,30.192994168);
#1135=LINE('',#1132,#1134);
#1136=EDGE_CURVE('',#788,#1131,#1135,.T.);
#1137=ORIENTED_EDGE('',*,*,#1136,.T.);
#1138=CARTESIAN_POINT('',(664.868189735,149.460883271,190.9));
#1139=DIRECTION('',(-0.507650577,-0.861563051,-0.));
#1140=VECTOR('',#1139,0.005858073);
#1141=LINE('',#1138,#1140);
#1142=EDGE_CURVE('',#1131,#797,#1141,.T.);
#1143=ORIENTED_EDGE('',*,*,#1142,.T.);
#1144=EDGE_LOOP('',(#1129,#1137,#1143));
#1145=FACE_BOUND('',#1144,.T.);
#1146=ADVANCED_FACE('',(#1145),#1128,.F.);
#1147=CARTESIAN_POINT('',(574.906427814,167.038332591,193.9));
#1148=DIRECTION('',(-0.861563051,0.507650577,0.));
#1149=DIRECTION('',(-0.507650577,-0.861563051,0.));
#1150=AXIS2_PLACEMENT_3D('',#1147,#1148,#1149);
#1151=CYLINDRICAL_SURFACE('',#1150,2.);
#1152=CARTESIAN_POINT('',(556.659865633,175.468218033,193.9));
#1153=DIRECTION('',(0.861563051,-0.507650577,-0.));
#1154=VECTOR('',#1153,0.999608188);
#1155=LINE('',#1152,#1154);
#1156=EDGE_CURVE('',#688,#967,#1155,.T.);
#1157=ORIENTED_EDGE('',*,*,#1156,.F.);
#1158=ORIENTED_EDGE('',*,*,#694,.T.);
#1159=ORIENTED_EDGE('',*,*,#701,.T.);
#1160=ORIENTED_EDGE('',*,*,#1156,.T.);
#1161=ORIENTED_EDGE('',*,*,#973,.T.);
#1162=EDGE_LOOP('',(#1157,#1158,#1159,#1160,#1161));
#1163=FACE_BOUND('',#1162,.T.);
#1164=ADVANCED_FACE('',(#1163),#1151,.F.);
#1165=CARTESIAN_POINT('',(575.578957085,131.765100383,193.9));
#1166=DIRECTION('',(-0.870419822,-0.492310201,0.));
#1167=DIRECTION('',(0.492310201,-0.870419822,0.));
#1168=AXIS2_PLACEMENT_3D('',#1165,#1166,#1167);
#1169=CYLINDRICAL_SURFACE('',#1168,2.);
#1170=CARTESIAN_POINT('',(559.155181051,120.178056724,193.9));
#1171=DIRECTION('',(0.870419822,0.492310201,-0.));
#1172=VECTOR('',#1171,0.999307402);
#1173=LINE('',#1170,#1172);
#1174=EDGE_CURVE('',#752,#916,#1173,.T.);
#1175=ORIENTED_EDGE('',*,*,#1174,.F.);
#1176=ORIENTED_EDGE('',*,*,#758,.T.);
#1177=ORIENTED_EDGE('',*,*,#765,.T.);
#1178=ORIENTED_EDGE('',*,*,#1174,.T.);
#1179=ORIENTED_EDGE('',*,*,#922,.T.);
#1180=EDGE_LOOP('',(#1175,#1176,#1177,#1178,#1179));
#1181=FACE_BOUND('',#1180,.T.);
#1182=ADVANCED_FACE('',(#1181),#1169,.F.);
#1183=CARTESIAN_POINT('',(633.200098762,166.85750452,193.9));
#1184=DIRECTION('',(0.870419822,0.492310201,0.));
#1185=DIRECTION('',(-0.492310201,0.870419822,0.));
#1186=AXIS2_PLACEMENT_3D('',#1183,#1184,#1185);
#1187=CYLINDRICAL_SURFACE('',#1186,2.);
#1188=CARTESIAN_POINT('',(649.623874796,178.44454818,193.9));
#1189=DIRECTION('',(-0.870419822,-0.492310201,-0.));
#1190=VECTOR('',#1189,0.99957327);
#1191=LINE('',#1188,#1190);
#1192=EDGE_CURVE('',#624,#776,#1191,.T.);
#1193=ORIENTED_EDGE('',*,*,#1192,.F.);
#1194=ORIENTED_EDGE('',*,*,#630,.T.);
#1195=ORIENTED_EDGE('',*,*,#637,.T.);
#1196=ORIENTED_EDGE('',*,*,#1192,.T.);
#1197=ORIENTED_EDGE('',*,*,#782,.T.);
#1198=EDGE_LOOP('',(#1193,#1194,#1195,#1196,#1197));
#1199=FACE_BOUND('',#1198,.T.);
#1200=ADVANCED_FACE('',(#1199),#1187,.F.);
#1201=CARTESIAN_POINT('',(649.417697908,123.238963156,191.9));
#1202=DIRECTION('',(0.507650577,0.861563051,0.));
#1203=DIRECTION('',(-0.861563051,0.507650577,0.));
#1204=AXIS2_PLACEMENT_3D('',#1201,#1202,#1203);
#1205=CYLINDRICAL_SURFACE('',#1204,1.);
#1206=ORIENTED_EDGE('',*,*,#567,.F.);
#1207=CARTESIAN_POINT('',(633.967206082,97.017043041,191.9));
#1208=DIRECTION('',(0.507650577,0.861563051,0.));
#1209=DIRECTION('',(-0.861563051,0.507650577,0.));
#1210=AXIS2_PLACEMENT_3D('',#1207,#1208,#1209);
#1211=CIRCLE('',#1210,1.);
#1212=EDGE_CURVE('',#554,#396,#1211,.T.);
#1213=ORIENTED_EDGE('',*,*,#1212,.T.);
#1214=ORIENTED_EDGE('',*,*,#401,.F.);
#1215=ORIENTED_EDGE('',*,*,#865,.F.);
#1216=ORIENTED_EDGE('',*,*,#811,.F.);
#1217=ORIENTED_EDGE('',*,*,#1142,.F.);
#1218=CARTESIAN_POINT('',(664.868189735,149.460883271,191.9));
#1219=DIRECTION('',(-0.507650577,-0.861563051,-0.));
#1220=DIRECTION('',(-0.861563051,0.507650577,0.));
#1221=AXIS2_PLACEMENT_3D('',#1218,#1219,#1220);
#1222=CIRCLE('',#1221,1.);
#1223=EDGE_CURVE('',#1131,#562,#1222,.T.);
#1224=ORIENTED_EDGE('',*,*,#1223,.T.);
#1225=EDGE_LOOP('',(#1206,#1213,#1214,#1215,#1216,#1217,#1224));
#1226=FACE_BOUND('',#1225,.T.);
#1227=ADVANCED_FACE('',(#1226),#1205,.T.);
#1228=CARTESIAN_POINT('',(664.868189735,149.460883271,250.9));
#1229=DIRECTION('',(0.,0.,-1.));
#1230=DIRECTION('',(-1.,0.,0.));
#1231=AXIS2_PLACEMENT_3D('',#1228,#1229,#1230);
#1232=CYLINDRICAL_SURFACE('',#1231,1.);
#1233=ORIENTED_EDGE('',*,*,#1078,.F.);
#1234=ORIENTED_EDGE('',*,*,#573,.F.);
#1235=CARTESIAN_POINT('',(664.868189735,149.460883271,191.9));
#1236=DIRECTION('',(0.,0.,-1.));
#1237=DIRECTION('',(-1.,0.,0.));
#1238=AXIS2_PLACEMENT_3D('',#1235,#1236,#1237);
#1239=CIRCLE('',#1238,1.);
#1240=EDGE_CURVE('',#610,#562,#1239,.T.);
#1241=ORIENTED_EDGE('',*,*,#1240,.F.);
#1242=ORIENTED_EDGE('',*,*,#615,.F.);
#1243=EDGE_LOOP('',(#1233,#1234,#1241,#1242));
#1244=FACE_BOUND('',#1243,.T.);
#1245=ADVANCED_FACE('',(#1244),#1232,.T.);
#1246=CARTESIAN_POINT('',(664.868189735,149.460883271,191.9));
#1247=DIRECTION('',(-0.870419822,-0.492310201,0.));
#1248=DIRECTION('',(0.492310201,-0.870419822,0.));
#1249=AXIS2_PLACEMENT_3D('',#1246,#1247,#1248);
#1250=SPHERICAL_SURFACE('',#1249,1.);
#1251=ORIENTED_EDGE('',*,*,#1240,.T.);
#1252=ORIENTED_EDGE('',*,*,#1223,.F.);
#1253=CARTESIAN_POINT('',(664.868189735,149.460883271,191.9));
#1254=DIRECTION('',(-0.492310201,0.870419822,-0.));
#1255=DIRECTION('',(-0.870419822,-0.492310201,0.));
#1256=AXIS2_PLACEMENT_3D('',#1253,#1254,#1255);
#1257=CIRCLE('',#1256,1.);
#1258=EDGE_CURVE('',#610,#1131,#1257,.T.);
#1259=ORIENTED_EDGE('',*,*,#1258,.F.);
#1260=EDGE_LOOP('',(#1251,#1252,#1259));
#1261=FACE_BOUND('',#1260,.T.);
#1262=ADVANCED_FACE('',(#1261),#1250,.T.);
#1263=CARTESIAN_POINT('',(649.884586692,175.952361751,191.9));
#1264=DIRECTION('',(-0.492310201,0.870419822,0.));
#1265=DIRECTION('',(-0.870419822,-0.492310201,0.));
#1266=AXIS2_PLACEMENT_3D('',#1263,#1264,#1265);
#1267=CYLINDRICAL_SURFACE('',#1266,1.);
#1268=ORIENTED_EDGE('',*,*,#533,.F.);
#1269=CARTESIAN_POINT('',(634.900983649,202.443840231,191.9));
#1270=DIRECTION('',(0.492310201,-0.870419822,-0.));
#1271=DIRECTION('',(-0.870419822,-0.492310201,0.));
#1272=AXIS2_PLACEMENT_3D('',#1269,#1270,#1271);
#1273=CIRCLE('',#1272,1.);
#1274=EDGE_CURVE('',#371,#586,#1273,.T.);
#1275=ORIENTED_EDGE('',*,*,#1274,.T.);
#1276=ORIENTED_EDGE('',*,*,#591,.F.);
#1277=ORIENTED_EDGE('',*,*,#621,.F.);
#1278=ORIENTED_EDGE('',*,*,#1258,.T.);
#1279=ORIENTED_EDGE('',*,*,#1136,.F.);
#1280=ORIENTED_EDGE('',*,*,#794,.F.);
#1281=ORIENTED_EDGE('',*,*,#285,.F.);
#1282=EDGE_LOOP('',(#1268,#1275,#1276,#1277,#1278,#1279,#1280,#1281));
#1283=FACE_BOUND('',#1282,.T.);
#1284=ADVANCED_FACE('',(#1283),#1267,.T.);
#1285=CARTESIAN_POINT('',(634.900983649,202.443840231,250.9));
#1286=DIRECTION('',(0.,0.,-1.));
#1287=DIRECTION('',(-1.,0.,0.));
#1288=AXIS2_PLACEMENT_3D('',#1285,#1286,#1287);
#1289=CYLINDRICAL_SURFACE('',#1288,1.);
#1290=ORIENTED_EDGE('',*,*,#1086,.F.);
#1291=ORIENTED_EDGE('',*,*,#599,.F.);
#1292=CARTESIAN_POINT('',(634.900983649,202.443840231,191.9));
#1293=DIRECTION('',(0.,0.,-1.));
#1294=DIRECTION('',(-1.,0.,0.));
#1295=AXIS2_PLACEMENT_3D('',#1292,#1293,#1294);
#1296=CIRCLE('',#1295,1.);
#1297=EDGE_CURVE('',#181,#586,#1296,.T.);
#1298=ORIENTED_EDGE('',*,*,#1297,.F.);
#1299=ORIENTED_EDGE('',*,*,#186,.F.);
#1300=EDGE_LOOP('',(#1290,#1291,#1298,#1299));
#1301=FACE_BOUND('',#1300,.T.);
#1302=ADVANCED_FACE('',(#1301),#1289,.T.);
#1303=CARTESIAN_POINT('',(634.900983649,202.443840231,191.9));
#1304=DIRECTION('',(-0.00885677,-0.999960778,0.));
#1305=DIRECTION('',(0.999960778,-0.00885677,0.));
#1306=AXIS2_PLACEMENT_3D('',#1303,#1304,#1305);
#1307=SPHERICAL_SURFACE('',#1306,1.);
#1308=ORIENTED_EDGE('',*,*,#1297,.T.);
#1309=ORIENTED_EDGE('',*,*,#1274,.F.);
#1310=ORIENTED_EDGE('',*,*,#377,.F.);
#1311=EDGE_LOOP('',(#1308,#1309,#1310));
#1312=FACE_BOUND('',#1311,.T.);
#1313=ADVANCED_FACE('',(#1312),#1307,.T.);
#1314=CARTESIAN_POINT('',(604.46688878,202.713398595,191.9));
#1315=DIRECTION('',(-0.999960778,0.00885677,0.));
#1316=DIRECTION('',(-0.00885677,-0.999960778,0.));
#1317=AXIS2_PLACEMENT_3D('',#1314,#1315,#1316);
#1318=CYLINDRICAL_SURFACE('',#1317,1.);
#1319=CARTESIAN_POINT('',(588.803863102,202.85212786,191.9));
#1320=DIRECTION('',(0.999960778,-0.00885677,-0.));
#1321=DIRECTION('',(-0.00885677,-0.999960778,0.));
#1322=AXIS2_PLACEMENT_3D('',#1319,#1320,#1321);
#1323=CIRCLE('',#1322,1.);
#1324=EDGE_CURVE('',#247,#149,#1323,.T.);
#1325=ORIENTED_EDGE('',*,*,#1324,.F.);
#1326=ORIENTED_EDGE('',*,*,#316,.F.);
#1327=ORIENTED_EDGE('',*,*,#991,.F.);
#1328=ORIENTED_EDGE('',*,*,#511,.F.);
#1329=CARTESIAN_POINT('',(574.032793912,202.98295696,191.9));
#1330=DIRECTION('',(0.999960778,-0.00885677,-0.));
#1331=DIRECTION('',(-0.00885677,-0.999960778,0.));
#1332=AXIS2_PLACEMENT_3D('',#1329,#1330,#1331);
#1333=CIRCLE('',#1332,1.);
#1334=EDGE_CURVE('',#500,#157,#1333,.T.);
#1335=ORIENTED_EDGE('',*,*,#1334,.T.);
#1336=ORIENTED_EDGE('',*,*,#162,.F.);
#1337=EDGE_LOOP('',(#1325,#1326,#1327,#1328,#1335,#1336));
#1338=FACE_BOUND('',#1337,.T.);
#1339=ADVANCED_FACE('',(#1338),#1318,.T.);
#1340=CARTESIAN_POINT('',(574.032793912,202.98295696,250.9));
#1341=DIRECTION('',(0.,0.,-1.));
#1342=DIRECTION('',(-1.,0.,0.));
#1343=AXIS2_PLACEMENT_3D('',#1340,#1341,#1342);
#1344=CYLINDRICAL_SURFACE('',#1343,1.);
#1345=ORIENTED_EDGE('',*,*,#1094,.F.);
#1346=ORIENTED_EDGE('',*,*,#170,.F.);
#1347=CARTESIAN_POINT('',(574.032793912,202.98295696,191.9));
#1348=DIRECTION('',(0.,0.,-1.));
#1349=DIRECTION('',(-1.,0.,0.));
#1350=AXIS2_PLACEMENT_3D('',#1347,#1348,#1349);
#1351=CIRCLE('',#1350,1.);
#1352=EDGE_CURVE('',#674,#157,#1351,.T.);
#1353=ORIENTED_EDGE('',*,*,#1352,.F.);
#1354=ORIENTED_EDGE('',*,*,#679,.F.);
#1355=EDGE_LOOP('',(#1345,#1346,#1353,#1354));
#1356=FACE_BOUND('',#1355,.T.);
#1357=ADVANCED_FACE('',(#1356),#1344,.T.);
#1358=CARTESIAN_POINT('',(574.032793912,202.98295696,191.9));
#1359=DIRECTION('',(0.861563051,-0.507650577,0.));
#1360=DIRECTION('',(0.507650577,0.861563051,0.));
#1361=AXIS2_PLACEMENT_3D('',#1358,#1359,#1360);
#1362=SPHERICAL_SURFACE('',#1361,1.);
#1363=ORIENTED_EDGE('',*,*,#1352,.T.);
#1364=ORIENTED_EDGE('',*,*,#1334,.F.);
#1365=CARTESIAN_POINT('',(574.032793912,202.98295696,191.9));
#1366=DIRECTION('',(-0.507650577,-0.861563051,0.));
#1367=DIRECTION('',(0.861563051,-0.507650577,0.));
#1368=AXIS2_PLACEMENT_3D('',#1365,#1366,#1367);
#1369=CIRCLE('',#1368,1.);
#1370=EDGE_CURVE('',#674,#500,#1369,.T.);
#1371=ORIENTED_EDGE('',*,*,#1370,.F.);
#1372=EDGE_LOOP('',(#1363,#1364,#1371));
#1373=FACE_BOUND('',#1372,.T.);
#1374=ADVANCED_FACE('',(#1373),#1362,.T.);
#1375=CARTESIAN_POINT('',(558.582302086,176.761036845,191.9));
#1376=DIRECTION('',(-0.507650577,-0.861563051,0.));
#1377=DIRECTION('',(0.861563051,-0.507650577,0.));
#1378=AXIS2_PLACEMENT_3D('',#1375,#1376,#1377);
#1379=CYLINDRICAL_SURFACE('',#1378,1.);
#1380=ORIENTED_EDGE('',*,*,#479,.F.);
#1381=CARTESIAN_POINT('',(543.131810259,150.53911673,191.9));
#1382=DIRECTION('',(0.507650577,0.861563051,-0.));
#1383=DIRECTION('',(0.861563051,-0.507650577,0.));
#1384=AXIS2_PLACEMENT_3D('',#1381,#1382,#1383);
#1385=CIRCLE('',#1384,1.);
#1386=EDGE_CURVE('',#468,#650,#1385,.T.);
#1387=ORIENTED_EDGE('',*,*,#1386,.T.);
#1388=ORIENTED_EDGE('',*,*,#655,.F.);
#1389=ORIENTED_EDGE('',*,*,#685,.F.);
#1390=ORIENTED_EDGE('',*,*,#1370,.T.);
#1391=ORIENTED_EDGE('',*,*,#505,.F.);
#1392=ORIENTED_EDGE('',*,*,#983,.F.);
#1393=ORIENTED_EDGE('',*,*,#942,.F.);
#1394=EDGE_LOOP('',(#1380,#1387,#1388,#1389,#1390,#1391,#1392,#1393));
#1395=FACE_BOUND('',#1394,.T.);
#1396=ADVANCED_FACE('',(#1395),#1379,.T.);
#1397=CARTESIAN_POINT('',(543.131810259,150.53911673,250.9));
#1398=DIRECTION('',(0.,0.,-1.));
#1399=DIRECTION('',(-1.,0.,0.));
#1400=AXIS2_PLACEMENT_3D('',#1397,#1398,#1399);
#1401=CYLINDRICAL_SURFACE('',#1400,1.);
#1402=CARTESIAN_POINT('',(542.131810259,150.53911673,191.9));
#1403=VERTEX_POINT('',#1402);
#1404=CARTESIAN_POINT('',(542.131810259,150.53911673,191.9));
#1405=DIRECTION('',(-0.,-0.,1.));
#1406=VECTOR('',#1405,117.8);
#1407=LINE('',#1404,#1406);
#1408=EDGE_CURVE('',#1403,#1098,#1407,.T.);
#1409=ORIENTED_EDGE('',*,*,#1408,.T.);
#1410=ORIENTED_EDGE('',*,*,#1104,.F.);
#1411=ORIENTED_EDGE('',*,*,#663,.F.);
#1412=CARTESIAN_POINT('',(543.131810259,150.53911673,191.9));
#1413=DIRECTION('',(0.,0.,-1.));
#1414=DIRECTION('',(-1.,0.,0.));
#1415=AXIS2_PLACEMENT_3D('',#1412,#1413,#1414);
#1416=CIRCLE('',#1415,1.);
#1417=EDGE_CURVE('',#1403,#650,#1416,.T.);
#1418=ORIENTED_EDGE('',*,*,#1417,.F.);
#1419=EDGE_LOOP('',(#1409,#1410,#1411,#1418));
#1420=FACE_BOUND('',#1419,.T.);
#1421=ADVANCED_FACE('',(#1420),#1401,.T.);
#1422=CARTESIAN_POINT('',(543.131810259,150.53911673,191.9));
#1423=DIRECTION('',(0.870419822,0.492310201,0.));
#1424=DIRECTION('',(-0.492310201,0.870419822,0.));
#1425=AXIS2_PLACEMENT_3D('',#1422,#1423,#1424);
#1426=SPHERICAL_SURFACE('',#1425,1.);
#1427=CARTESIAN_POINT('',(543.131810259,150.53911673,191.9));
#1428=DIRECTION('',(0.,0.,-1.));
#1429=DIRECTION('',(-1.,0.,0.));
#1430=AXIS2_PLACEMENT_3D('',#1427,#1428,#1429);
#1431=CIRCLE('',#1430,1.);
#1432=EDGE_CURVE('',#738,#1403,#1431,.T.);
#1433=ORIENTED_EDGE('',*,*,#1432,.T.);
#1434=ORIENTED_EDGE('',*,*,#1417,.T.);
#1435=ORIENTED_EDGE('',*,*,#1386,.F.);
#1436=CARTESIAN_POINT('',(543.131810259,150.53911673,191.9));
#1437=DIRECTION('',(0.492310201,-0.870419822,0.));
#1438=DIRECTION('',(0.870419822,0.492310201,0.));
#1439=AXIS2_PLACEMENT_3D('',#1436,#1437,#1438);
#1440=CIRCLE('',#1439,1.);
#1441=EDGE_CURVE('',#738,#468,#1440,.T.);
#1442=ORIENTED_EDGE('',*,*,#1441,.F.);
#1443=EDGE_LOOP('',(#1433,#1434,#1435,#1442));
#1444=FACE_BOUND('',#1443,.T.);
#1445=ADVANCED_FACE('',(#1444),#1426,.T.);
#1446=CARTESIAN_POINT('',(558.115413302,124.04763825,191.9));
#1447=DIRECTION('',(0.492310201,-0.870419822,0.));
#1448=DIRECTION('',(0.870419822,0.492310201,0.));
#1449=AXIS2_PLACEMENT_3D('',#1446,#1447,#1448);
#1450=CYLINDRICAL_SURFACE('',#1449,1.);
#1451=ORIENTED_EDGE('',*,*,#447,.F.);
#1452=CARTESIAN_POINT('',(573.099016345,97.55615977,191.9));
#1453=DIRECTION('',(-0.492310201,0.870419822,-0.));
#1454=DIRECTION('',(0.870419822,0.492310201,0.));
#1455=AXIS2_PLACEMENT_3D('',#1452,#1453,#1454);
#1456=CIRCLE('',#1455,1.);
#1457=EDGE_CURVE('',#436,#714,#1456,.T.);
#1458=ORIENTED_EDGE('',*,*,#1457,.T.);
#1459=ORIENTED_EDGE('',*,*,#719,.F.);
#1460=ORIENTED_EDGE('',*,*,#749,.F.);
#1461=ORIENTED_EDGE('',*,*,#1441,.T.);
#1462=ORIENTED_EDGE('',*,*,#473,.F.);
#1463=ORIENTED_EDGE('',*,*,#932,.F.);
#1464=ORIENTED_EDGE('',*,*,#891,.F.);
#1465=EDGE_LOOP('',(#1451,#1458,#1459,#1460,#1461,#1462,#1463,#1464));
#1466=FACE_BOUND('',#1465,.T.);
#1467=ADVANCED_FACE('',(#1466),#1450,.T.);
#1468=CARTESIAN_POINT('',(573.099016345,97.55615977,250.9));
#1469=DIRECTION('',(0.,0.,-1.));
#1470=DIRECTION('',(-1.,0.,0.));
#1471=AXIS2_PLACEMENT_3D('',#1468,#1469,#1470);
#1472=CYLINDRICAL_SURFACE('',#1471,1.);
#1473=ORIENTED_EDGE('',*,*,#1119,.F.);
#1474=ORIENTED_EDGE('',*,*,#727,.F.);
#1475=CARTESIAN_POINT('',(573.099016345,97.55615977,191.9));
#1476=DIRECTION('',(0.,0.,-1.));
#1477=DIRECTION('',(-1.,0.,0.));
#1478=AXIS2_PLACEMENT_3D('',#1475,#1476,#1477);
#1479=CIRCLE('',#1478,1.);
#1480=EDGE_CURVE('',#1035,#714,#1479,.T.);
#1481=ORIENTED_EDGE('',*,*,#1480,.F.);
#1482=ORIENTED_EDGE('',*,*,#1040,.F.);
#1483=EDGE_LOOP('',(#1473,#1474,#1481,#1482));
#1484=FACE_BOUND('',#1483,.T.);
#1485=ADVANCED_FACE('',(#1484),#1472,.T.);
#1486=CARTESIAN_POINT('',(573.099016345,97.55615977,191.9));
#1487=DIRECTION('',(0.00885677,0.999960778,0.));
#1488=DIRECTION('',(-0.999960778,0.00885677,0.));
#1489=AXIS2_PLACEMENT_3D('',#1486,#1487,#1488);
#1490=SPHERICAL_SURFACE('',#1489,1.);
#1491=ORIENTED_EDGE('',*,*,#1480,.T.);
#1492=ORIENTED_EDGE('',*,*,#1457,.F.);
#1493=CARTESIAN_POINT('',(573.099016345,97.55615977,191.9));
#1494=DIRECTION('',(0.999960778,-0.00885677,-0.));
#1495=DIRECTION('',(0.00885677,0.999960778,0.));
#1496=AXIS2_PLACEMENT_3D('',#1493,#1494,#1495);
#1497=CIRCLE('',#1496,1.);
#1498=EDGE_CURVE('',#1035,#436,#1497,.T.);
#1499=ORIENTED_EDGE('',*,*,#1498,.F.);
#1500=EDGE_LOOP('',(#1491,#1492,#1499));
#1501=FACE_BOUND('',#1500,.T.);
#1502=ADVANCED_FACE('',(#1501),#1490,.T.);
#1503=CARTESIAN_POINT('',(603.533111214,97.286601405,191.9));
#1504=DIRECTION('',(0.999960778,-0.00885677,0.));
#1505=DIRECTION('',(0.00885677,0.999960778,0.));
#1506=AXIS2_PLACEMENT_3D('',#1503,#1504,#1505);
#1507=CYLINDRICAL_SURFACE('',#1506,1.);
#1508=ORIENTED_EDGE('',*,*,#843,.F.);
#1509=ORIENTED_EDGE('',*,*,#409,.F.);
#1510=CARTESIAN_POINT('',(633.967206082,97.017043041,191.9));
#1511=DIRECTION('',(0.999960778,-0.00885677,0.));
#1512=DIRECTION('',(0.00885677,0.999960778,0.));
#1513=AXIS2_PLACEMENT_3D('',#1510,#1511,#1512);
#1514=CIRCLE('',#1513,1.);
#1515=EDGE_CURVE('',#1011,#396,#1514,.T.);
#1516=ORIENTED_EDGE('',*,*,#1515,.F.);
#1517=ORIENTED_EDGE('',*,*,#1016,.F.);
#1518=ORIENTED_EDGE('',*,*,#1046,.F.);
#1519=ORIENTED_EDGE('',*,*,#1498,.T.);
#1520=ORIENTED_EDGE('',*,*,#441,.F.);
#1521=ORIENTED_EDGE('',*,*,#881,.F.);
#1522=EDGE_LOOP('',(#1508,#1509,#1516,#1517,#1518,#1519,#1520,#1521));
#1523=FACE_BOUND('',#1522,.T.);
#1524=ADVANCED_FACE('',(#1523),#1507,.T.);
#1525=CARTESIAN_POINT('',(633.967206082,97.017043041,191.9));
#1526=DIRECTION('',(0.00885677,0.999960778,0.));
#1527=DIRECTION('',(-0.999960778,0.00885677,0.));
#1528=AXIS2_PLACEMENT_3D('',#1525,#1526,#1527);
#1529=SPHERICAL_SURFACE('',#1528,1.);
#1530=ORIENTED_EDGE('',*,*,#1515,.T.);
#1531=ORIENTED_EDGE('',*,*,#1212,.F.);
#1532=CARTESIAN_POINT('',(633.967206082,97.017043041,191.9));
#1533=DIRECTION('',(0.,0.,1.));
#1534=DIRECTION('',(1.,0.,-0.));
#1535=AXIS2_PLACEMENT_3D('',#1532,#1533,#1534);
#1536=CIRCLE('',#1535,1.);
#1537=EDGE_CURVE('',#1011,#554,#1536,.T.);
#1538=ORIENTED_EDGE('',*,*,#1537,.F.);
#1539=EDGE_LOOP('',(#1530,#1531,#1538));
#1540=FACE_BOUND('',#1539,.T.);
#1541=ADVANCED_FACE('',(#1540),#1529,.T.);
#1542=CARTESIAN_POINT('',(633.967206082,97.017043041,250.9));
#1543=DIRECTION('',(0.,0.,-1.));
#1544=DIRECTION('',(-1.,0.,0.));
#1545=AXIS2_PLACEMENT_3D('',#1542,#1543,#1544);
#1546=CYLINDRICAL_SURFACE('',#1545,1.);
#1547=ORIENTED_EDGE('',*,*,#1070,.F.);
#1548=ORIENTED_EDGE('',*,*,#1024,.F.);
#1549=ORIENTED_EDGE('',*,*,#1537,.T.);
#1550=ORIENTED_EDGE('',*,*,#559,.F.);
#1551=EDGE_LOOP('',(#1547,#1548,#1549,#1550));
#1552=FACE_BOUND('',#1551,.T.);
#1553=ADVANCED_FACE('',(#1552),#1546,.T.);
#1554=CARTESIAN_POINT('',(619.639317927,201.378967534,203.354574975));
#1555=DIRECTION('',(0.999960778,-0.00885677,0.));
#1556=DIRECTION('',(0.00885677,0.999960778,0.));
#1557=AXIS2_PLACEMENT_3D('',#1554,#1555,#1556);
#1558=PLANE('',#1557);
#1559=ORIENTED_EDGE('',*,*,#268,.T.);
#1560=CARTESIAN_POINT('',(619.649923818,202.576410257,221.9));
#1561=DIRECTION('',(0.00885677,0.999960778,0.));
#1562=VECTOR('',#1561,1.002510309);
#1563=LINE('',#1560,#1562);
#1564=EDGE_CURVE('',#255,#141,#1563,.T.);
#1565=ORIENTED_EDGE('',*,*,#1564,.T.);
#1566=ORIENTED_EDGE('',*,*,#200,.T.);
#1567=ORIENTED_EDGE('',*,*,#367,.T.);
#1568=ORIENTED_EDGE('',*,*,#526,.F.);
#1569=EDGE_LOOP('',(#1559,#1565,#1566,#1567,#1568));
#1570=FACE_BOUND('',#1569,.T.);
#1571=ADVANCED_FACE('',(#1570),#1558,.F.);
#1572=CARTESIAN_POINT('',(588.793234977,201.652174926,203.354574975));
#1573=DIRECTION('',(-0.999960778,0.00885677,0.));
#1574=DIRECTION('',(-0.00885677,-0.999960778,0.));
#1575=AXIS2_PLACEMENT_3D('',#1572,#1573,#1574);
#1576=PLANE('',#1575);
#1577=ORIENTED_EDGE('',*,*,#252,.T.);
#1578=ORIENTED_EDGE('',*,*,#1324,.T.);
#1579=ORIENTED_EDGE('',*,*,#154,.T.);
#1580=CARTESIAN_POINT('',(588.80388677,202.854800123,221.9));
#1581=DIRECTION('',(0.00885677,0.999960778,0.));
#1582=VECTOR('',#1581,0.997327632);
#1583=LINE('',#1580,#1582);
#1584=EDGE_CURVE('',#245,#139,#1583,.T.);
#1585=ORIENTED_EDGE('',*,*,#1584,.F.);
#1586=EDGE_LOOP('',(#1577,#1578,#1579,#1585));
#1587=FACE_BOUND('',#1586,.T.);
#1588=ADVANCED_FACE('',(#1587),#1576,.F.);
#1589=CARTESIAN_POINT('',(604.209191036,200.715602608,221.9));
#1590=DIRECTION('',(0.,0.,1.));
#1591=DIRECTION('',(1.,0.,0.));
#1592=AXIS2_PLACEMENT_3D('',#1589,#1590,#1591);
#1593=PLANE('',#1592);
#1594=ORIENTED_EDGE('',*,*,#260,.T.);
#1595=ORIENTED_EDGE('',*,*,#1584,.T.);
#1596=ORIENTED_EDGE('',*,*,#146,.T.);
#1597=ORIENTED_EDGE('',*,*,#1564,.F.);
#1598=EDGE_LOOP('',(#1594,#1595,#1596,#1597));
#1599=FACE_BOUND('',#1598,.T.);
#1600=ADVANCED_FACE('',(#1599),#1593,.F.);
#1601=CARTESIAN_POINT('',(632.584502337,205.959816389,274.508270909));
#1602=DIRECTION('',(-0.999959276,0.009024774,0.));
#1603=DIRECTION('',(-0.009024774,-0.999959276,0.));
#1604=AXIS2_PLACEMENT_3D('',#1601,#1602,#1603);
#1605=PLANE('',#1604);
#1606=ORIENTED_EDGE('',*,*,#212,.T.);
#1607=CARTESIAN_POINT('',(632.561982621,203.464596262,264.));
#1608=DIRECTION('',(-0.009024774,-0.999959276,0.));
#1609=VECTOR('',#1608,1.004678253);
#1610=LINE('',#1607,#1609);
#1611=EDGE_CURVE('',#207,#331,#1610,.T.);
#1612=ORIENTED_EDGE('',*,*,#1611,.T.);
#1613=ORIENTED_EDGE('',*,*,#336,.F.);
#1614=CARTESIAN_POINT('',(632.561982621,203.464596262,285.016541819));
#1615=DIRECTION('',(-0.009024774,-0.999959276,0.));
#1616=VECTOR('',#1615,1.004678253);
#1617=LINE('',#1614,#1616);
#1618=EDGE_CURVE('',#205,#323,#1617,.T.);
#1619=ORIENTED_EDGE('',*,*,#1618,.F.);
#1620=EDGE_LOOP('',(#1606,#1612,#1613,#1619));
#1621=FACE_BOUND('',#1620,.T.);
#1622=ADVANCED_FACE('',(#1621),#1605,.T.);
#1623=CARTESIAN_POINT('',(630.935761722,205.974696507,285.016541819));
#1624=DIRECTION('',(0.,0.,-1.));
#1625=DIRECTION('',(-1.,0.,0.));
#1626=AXIS2_PLACEMENT_3D('',#1623,#1624,#1625);
#1627=PLANE('',#1626);
#1628=ORIENTED_EDGE('',*,*,#220,.T.);
#1629=ORIENTED_EDGE('',*,*,#1618,.T.);
#1630=ORIENTED_EDGE('',*,*,#328,.F.);
#1631=CARTESIAN_POINT('',(629.264496391,203.493802486,285.016541819));
#1632=DIRECTION('',(-0.009024774,-0.999959276,0.));
#1633=VECTOR('',#1632,1.004124218);
#1634=LINE('',#1631,#1633);
#1635=EDGE_CURVE('',#215,#321,#1634,.T.);
#1636=ORIENTED_EDGE('',*,*,#1635,.F.);
#1637=EDGE_LOOP('',(#1628,#1629,#1630,#1636));
#1638=FACE_BOUND('',#1637,.T.);
#1639=ADVANCED_FACE('',(#1638),#1627,.T.);
#1640=CARTESIAN_POINT('',(629.287021107,205.989576626,274.508270909));
#1641=DIRECTION('',(0.999959276,-0.009024774,0.));
#1642=DIRECTION('',(0.009024774,0.999959276,0.));
#1643=AXIS2_PLACEMENT_3D('',#1640,#1641,#1642);
#1644=PLANE('',#1643);
#1645=ORIENTED_EDGE('',*,*,#228,.T.);
#1646=ORIENTED_EDGE('',*,*,#1635,.T.);
#1647=ORIENTED_EDGE('',*,*,#350,.F.);
#1648=CARTESIAN_POINT('',(629.264496391,203.493802486,264.));
#1649=DIRECTION('',(-0.009024774,-0.999959276,0.));
#1650=VECTOR('',#1649,1.004124218);
#1651=LINE('',#1648,#1650);
#1652=EDGE_CURVE('',#223,#339,#1651,.T.);
#1653=ORIENTED_EDGE('',*,*,#1652,.F.);
#1654=EDGE_LOOP('',(#1645,#1646,#1647,#1653));
#1655=FACE_BOUND('',#1654,.T.);
#1656=ADVANCED_FACE('',(#1655),#1644,.T.);
#1657=CARTESIAN_POINT('',(630.935761722,205.974696507,264.));
#1658=DIRECTION('',(0.,0.,1.));
#1659=DIRECTION('',(1.,0.,0.));
#1660=AXIS2_PLACEMENT_3D('',#1657,#1658,#1659);
#1661=PLANE('',#1660);
#1662=ORIENTED_EDGE('',*,*,#234,.T.);
#1663=ORIENTED_EDGE('',*,*,#1652,.T.);
#1664=ORIENTED_EDGE('',*,*,#344,.F.);
#1665=ORIENTED_EDGE('',*,*,#1611,.F.);
#1666=EDGE_LOOP('',(#1662,#1663,#1664,#1665));
#1667=FACE_BOUND('',#1666,.T.);
#1668=ADVANCED_FACE('',(#1667),#1661,.T.);
#1669=CARTESIAN_POINT('',(543.131810259,150.53911673,250.9));
#1670=DIRECTION('',(0.,0.,-1.));
#1671=DIRECTION('',(-1.,0.,0.));
#1672=AXIS2_PLACEMENT_3D('',#1669,#1670,#1671);
#1673=CYLINDRICAL_SURFACE('',#1672,1.);
#1674=ORIENTED_EDGE('',*,*,#1408,.F.);
#1675=ORIENTED_EDGE('',*,*,#1432,.F.);
#1676=ORIENTED_EDGE('',*,*,#743,.F.);
#1677=ORIENTED_EDGE('',*,*,#1111,.F.);
#1678=EDGE_LOOP('',(#1674,#1675,#1676,#1677));
#1679=FACE_BOUND('',#1678,.T.);
#1680=ADVANCED_FACE('',(#1679),#1673,.T.);
#1681=CLOSED_SHELL('',(#238,#354,#387,#419,#451,#483,#515,#537,#577,#641,#705,#769,#829,#869,#909,#960,#1002,#1050,#1123,#1146,#1164,#1182,#1200,#1227,#1245,#1262,
#1284,#1302,#1313,#1339,#1357,#1374,#1396,#1421,#1445,#1467,#1485,#1502,#1524,#1541,#1553,#1571,#1588,#1600,#1622,#1639,#1656,#1668,#1680));
#1682=MANIFOLD_SOLID_BREP('Cover Spiral Ball (1)',#1681);
#1683=COLOUR_RGB('',0.180392161,0.180392161,0.180392161);
#1684=FILL_AREA_STYLE_COLOUR('',#1683);
#1685=FILL_AREA_STYLE('',(#1684));
#1686=SURFACE_STYLE_FILL_AREA(#1685);
#1687=SURFACE_SIDE_STYLE('',(#1686));
#1688=SURFACE_STYLE_USAGE(.BOTH.,#1687);
#1689=PRESENTATION_STYLE_ASSIGNMENT((#1688));
#132=STYLED_ITEM('',(#1689),#1682);
#113=SHAPE_REPRESENTATION('Spriral Cover',(#15),#111);
#114=ADVANCED_BREP_SHAPE_REPRESENTATION('Spriral Cover',(#1682),#111);
#1697=SHAPE_REPRESENTATION_RELATIONSHIP('','',#113,#114);
#1698=CARTESIAN_POINT('',(0.,0.,0.));
#1699=DIRECTION('',(0.,0.,1.));
#1700=DIRECTION('',(1.,0.,0.));
#1701=AXIS2_PLACEMENT_3D('',#1698,#1699,#1700);
#1703=MAPPED_ITEM('',#1702,#1701);
#1702=REPRESENTATION_MAP(#1701,#113);
#121=PRODUCT('Spriral Cover','Spriral Cover','',(#90));
#1704=PRODUCT_RELATED_PRODUCT_CATEGORY('part','',(#121));
#1705=PRODUCT_DEFINITION_FORMATION_WITH_SPECIFIED_SOURCE('','',#121,.NOT_KNOWN.);
#122=PRODUCT_DEFINITION('design','',#1705,#91);
#120=PRODUCT_DEFINITION_SHAPE('','',#122);
#1706=SHAPE_DEFINITION_REPRESENTATION(#120,#113);
#112=DRAUGHTING_MODEL('',(#1703),#111);
#1707=(NAMED_UNIT(*)PLANE_ANGLE_UNIT()SI_UNIT($,.RADIAN.));
#1708=PLANE_ANGLE_MEASURE_WITH_UNIT(PLANE_ANGLE_MEASURE(0.0174532925),#1707);
#1709=(CONVERSION_BASED_UNIT('DEGREE',#1708)NAMED_UNIT(#1710)PLANE_ANGLE_UNIT());
#1710=DIMENSIONAL_EXPONENTS(0.,0.,0.,0.,0.,0.,0.);
#1711=(NAMED_UNIT(*)SI_UNIT($,.STERADIAN.)SOLID_ANGLE_UNIT());
#1712=(LENGTH_UNIT()NAMED_UNIT(*)SI_UNIT(.MILLI.,.METRE.));
#1713=UNCERTAINTY_MEASURE_WITH_UNIT(LENGTH_MEASURE(1.000000E-03),#1712,'DISTANCE_ACCURACY_VALUE','Maximum Tolerance applied to model');
#1714=(GEOMETRIC_REPRESENTATION_CONTEXT(3)GLOBAL_UNCERTAINTY_ASSIGNED_CONTEXT((#1713))GLOBAL_UNIT_ASSIGNED_CONTEXT((#1712,#1709,#1711))REPRESENTATION_CONTEXT('','Spiral Cover Top'));
#1726=CARTESIAN_POINT('',(0.,0.,0.));
#1727=DIRECTION('',(0.,0.,1.));
#1728=DIRECTION('',(1.,0.,-0.));
#1729=AXIS2_PLACEMENT_3D('',#1726,#1727,#1728);
#1730=ITEM_DEFINED_TRANSFORMATION('','',#1729,#15);
#1731=(REPRESENTATION_RELATIONSHIP('','',#1716,#16)REPRESENTATION_RELATIONSHIP_WITH_TRANSFORMATION(#1730)SHAPE_REPRESENTATION_RELATIONSHIP());
#1732=NEXT_ASSEMBLY_USAGE_OCCURRENCE('Spiral Cover Top_4','Spiral Cover Top','Spiral Cover Top',#25,#1725,$);
#1733=PRODUCT_DEFINITION_SHAPE('','',#1732);
#1734=CONTEXT_DEPENDENT_SHAPE_REPRESENTATION(#1731,#1733);
#1716=SHAPE_REPRESENTATION('Spiral Cover Top',(#15),#1714);
#1735=CARTESIAN_POINT('',(0.,0.,0.));
#1736=DIRECTION('',(0.,0.,1.));
#1737=DIRECTION('',(1.,0.,0.));
#1738=AXIS2_PLACEMENT_3D('',#1735,#1736,#1737);
#1740=MAPPED_ITEM('',#1739,#1738);
#1739=REPRESENTATION_MAP(#1738,#1716);
#1724=PRODUCT('Spiral Cover Top','Spiral Cover Top','',(#90));
#1741=PRODUCT_RELATED_PRODUCT_CATEGORY('part','',(#1724));
#1742=PRODUCT_DEFINITION_FORMATION_WITH_SPECIFIED_SOURCE('','',#1724,.NOT_KNOWN.);
#1725=PRODUCT_DEFINITION('design','',#1742,#91);
#1723=PRODUCT_DEFINITION_SHAPE('','',#1725);
#1743=SHAPE_DEFINITION_REPRESENTATION(#1723,#1716);
#1715=DRAUGHTING_MODEL('',(#1740),#1714);
#1744=(NAMED_UNIT(*)PLANE_ANGLE_UNIT()SI_UNIT($,.RADIAN.));
#1745=PLANE_ANGLE_MEASURE_WITH_UNIT(PLANE_ANGLE_MEASURE(0.0174532925),#1744);
#1746=(CONVERSION_BASED_UNIT('DEGREE',#1745)NAMED_UNIT(#1747)PLANE_ANGLE_UNIT());
#1747=DIMENSIONAL_EXPONENTS(0.,0.,0.,0.,0.,0.,0.);
#1748=(NAMED_UNIT(*)SI_UNIT($,.STERADIAN.)SOLID_ANGLE_UNIT());
#1749=(LENGTH_UNIT()NAMED_UNIT(*)SI_UNIT(.MILLI.,.METRE.));
#1750=UNCERTAINTY_MEASURE_WITH_UNIT(LENGTH_MEASURE(1.000000E-03),#1749,'DISTANCE_ACCURACY_VALUE','Maximum Tolerance applied to model');
#1751=(GEOMETRIC_REPRESENTATION_CONTEXT(3)GLOBAL_UNCERTAINTY_ASSIGNED_CONTEXT((#1750))GLOBAL_UNIT_ASSIGNED_CONTEXT((#1749,#1746,#1748))REPRESENTATION_CONTEXT('','Spiral'));
#1763=CARTESIAN_POINT('',(0.,0.,0.));
#1764=DIRECTION('',(0.,0.,1.));
#1765=DIRECTION('',(1.,0.,-0.));
#1766=AXIS2_PLACEMENT_3D('',#1763,#1764,#1765);
#1767=ITEM_DEFINED_TRANSFORMATION('','',#1766,#15);
#1768=(REPRESENTATION_RELATIONSHIP('','',#1753,#16)REPRESENTATION_RELATIONSHIP_WITH_TRANSFORMATION(#1767)SHAPE_REPRESENTATION_RELATIONSHIP());
#1769=NEXT_ASSEMBLY_USAGE_OCCURRENCE('Spiral_5','Spiral','Spiral',#25,#1762,$);
#1770=PRODUCT_DEFINITION_SHAPE('','',#1769);
#1771=CONTEXT_DEPENDENT_SHAPE_REPRESENTATION(#1768,#1770);
#1753=SHAPE_REPRESENTATION('Spiral',(#15),#1751);
#1772=CARTESIAN_POINT('',(0.,0.,0.));
#1773=DIRECTION('',(0.,0.,1.));
#1774=DIRECTION('',(1.,0.,0.));
#1775=AXIS2_PLACEMENT_3D('',#1772,#1773,#1774);
#1777=MAPPED_ITEM('',#1776,#1775);
#1776=REPRESENTATION_MAP(#1775,#1753);
#1761=PRODUCT('Spiral','Spiral','',(#90));
#1778=PRODUCT_RELATED_PRODUCT_CATEGORY('part','',(#1761));
#1779=PRODUCT_DEFINITION_FORMATION_WITH_SPECIFIED_SOURCE('','',#1761,.NOT_KNOWN.);
#1762=PRODUCT_DEFINITION('design','',#1779,#91);
#1760=PRODUCT_DEFINITION_SHAPE('','',#1762);
#1780=SHAPE_DEFINITION_REPRESENTATION(#1760,#1753);
#1752=DRAUGHTING_MODEL('',(#1777),#1751);
#16=SHAPE_REPRESENTATION('root',(#15,#48,#126,#1729,#1766),#10);
#1781=CARTESIAN_POINT('',(0.,0.,0.));
#1782=DIRECTION('',(0.,0.,1.));
#1783=DIRECTION('',(1.,0.,0.));
#1784=AXIS2_PLACEMENT_3D('',#1781,#1782,#1783);
#1786=MAPPED_ITEM('',#1785,#1784);
#1785=REPRESENTATION_MAP(#1784,#16);
#24=PRODUCT('root','root','',(#90));
#1787=PRODUCT_RELATED_PRODUCT_CATEGORY('part','',(#24));
#1788=PRODUCT_DEFINITION_FORMATION_WITH_SPECIFIED_SOURCE('','',#24,.NOT_KNOWN.);
#25=PRODUCT_DEFINITION('design','',#1788,#91);
#23=PRODUCT_DEFINITION_SHAPE('','',#25);
#1789=SHAPE_DEFINITION_REPRESENTATION(#23,#16);
#11=DRAUGHTING_MODEL('',(#1786),#10);
#1790=DESCRIPTIVE_REPRESENTATION_ITEM('KEY','C:\\Users\\acer\\AppData\\Local\\Packages\\Shapr3D.Shapr3D_dvv5p1vgwv6mp\\TempState\\777a3c1a-84a7-452e-b2ad-2e389f28fc15.tmp');
#1791=PROPERTY_DEFINITION('KEY','',#25);
#1792=REPRESENTATION('',(#1790),#10);
#1793=PROPERTY_DEFINITION_REPRESENTATION(#1791,#1792);
#1794=GENERAL_PROPERTY('','KEY','');
#1795=GENERAL_PROPERTY_ASSOCIATION('','',#1794,#1791);
#1=MECHANICAL_DESIGN_GEOMETRIC_PRESENTATION_REPRESENTATION('',(#132),#10);
ENDSEC;
END-ISO-10303-21;
