ISO-10303-21;
HEADER;

/* File generated by Shapr3D Version 26.0.10296.0 */

FILE_DESCRIPTION(('HOOPS Exchange Step'),'2;1');

FILE_NAME('C:\\Users\\Ruben\\AppData\\Local\\Packages\\Shapr3D.Shapr3D_dvv5p1vgwv6mp\\TempState\\export\\temp_export',
'2026-01-29T18:51:34+01:00',
('Ruben'),
('Shapr3D Limited'),
'HOOPS Exchange 2025.9',
'Shapr3D',
'Authorized');

FILE_SCHEMA( ('AP242_MANAGED_MODEL_BASED_3D_ENGINEERING_MIM_LF {1 0 10303 442 1 1 4}') );

ENDSEC;

DATA;
#3=(NAMED_UNIT(*)PLANE_ANGLE_UNIT()SI_UNIT($,.RADIAN.));
#4=PLANE_ANGLE_MEASURE_WITH_UNIT(PLANE_ANGLE_MEASURE(0.0174532925),#3);
#5=(CONVERSION_BASED_UNIT('DEGREE',#4)NAMED_UNIT(#6)PLANE_ANGLE_UNIT());
#6=DIMENSIONAL_EXPONENTS(0.,0.,0.,0.,0.,0.,0.);
#7=(NAMED_UNIT(*)SI_UNIT($,.STERADIAN.)SOLID_ANGLE_UNIT());
#8=(LENGTH_UNIT()NAMED_UNIT(*)SI_UNIT(.MILLI.,.METRE.));
#9=UNCERTAINTY_MEASURE_WITH_UNIT(LENGTH_MEASURE(1.000000E-03),#8,'DISTANCE_ACCURACY_VALUE','Maximum Tolerance applied to model');
#10=(GEOMETRIC_REPRESENTATION_CONTEXT(3)GLOBAL_UNCERTAINTY_ASSIGNED_CONTEXT((#9))GLOBAL_UNIT_ASSIGNED_CONTEXT((#8,#5,#7))REPRESENTATION_CONTEXT('','root'));
#12=CARTESIAN_POINT('',(0.,0.,0.));
#13=DIRECTION('',(0.,0.,1.));
#14=DIRECTION('',(1.,0.,0.));
#15=AXIS2_PLACEMENT_3D('',#12,#13,#14);
#26=(NAMED_UNIT(*)PLANE_ANGLE_UNIT()SI_UNIT($,.RADIAN.));
#27=PLANE_ANGLE_MEASURE_WITH_UNIT(PLANE_ANGLE_MEASURE(0.0174532925),#26);
#28=(CONVERSION_BASED_UNIT('DEGREE',#27)NAMED_UNIT(#29)PLANE_ANGLE_UNIT());
#29=DIMENSIONAL_EXPONENTS(0.,0.,0.,0.,0.,0.,0.);
#30=(NAMED_UNIT(*)SI_UNIT($,.STERADIAN.)SOLID_ANGLE_UNIT());
#31=(LENGTH_UNIT()NAMED_UNIT(*)SI_UNIT(.MILLI.,.METRE.));
#32=UNCERTAINTY_MEASURE_WITH_UNIT(LENGTH_MEASURE(1.000000E-05),#31,'DISTANCE_ACCURACY_VALUE','Maximum Tolerance applied to model');
#33=(GEOMETRIC_REPRESENTATION_CONTEXT(3)GLOBAL_UNCERTAINTY_ASSIGNED_CONTEXT((#32))GLOBAL_UNIT_ASSIGNED_CONTEXT((#31,#28,#30))REPRESENTATION_CONTEXT('','Schieber'));
#45=CARTESIAN_POINT('',(0.,0.,0.));
#46=DIRECTION('',(0.,0.,1.));
#47=DIRECTION('',(1.,0.,-0.));
#48=AXIS2_PLACEMENT_3D('',#45,#46,#47);
#49=ITEM_DEFINED_TRANSFORMATION('','',#48,#15);
#50=(REPRESENTATION_RELATIONSHIP('','',#35,#16)REPRESENTATION_RELATIONSHIP_WITH_TRANSFORMATION(#49)SHAPE_REPRESENTATION_RELATIONSHIP());
#51=NEXT_ASSEMBLY_USAGE_OCCURRENCE('Schieber_1','Schieber','Schieber',#25,#44,$);
#52=PRODUCT_DEFINITION_SHAPE('','',#51);
#53=CONTEXT_DEPENDENT_SHAPE_REPRESENTATION(#50,#52);
#55=CARTESIAN_POINT('',(338.795415479,65.228945043,5.977661028));
#56=DIRECTION('',(0.,0.,-1.));
#57=DIRECTION('',(1.,0.,0.));
#58=AXIS2_PLACEMENT_3D('',#55,#56,#57);
#59=PLANE('',#58);
#60=CARTESIAN_POINT('',(337.905277633,80.831064018,5.977661028));
#61=VERTEX_POINT('',#60);
#62=CARTESIAN_POINT('',(337.313946773,78.852776662,5.977661028));
#63=VERTEX_POINT('',#62);
#64=CARTESIAN_POINT('',(337.905277633,80.831064018,5.977661028));
#65=DIRECTION('',(-0.286390067,-0.958113109,0.));
#66=VECTOR('',#65,2.064774334);
#67=LINE('',#64,#66);
#68=EDGE_CURVE('',#61,#63,#67,.T.);
#69=ORIENTED_EDGE('',*,*,#68,.F.);
#70=CARTESIAN_POINT('',(337.112508429,82.425615305,5.977661028));
#71=VERTEX_POINT('',#70);
#72=CARTESIAN_POINT('',(339.112508429,82.425615305,5.977661028));
#73=DIRECTION('',(0.,0.,-1.));
#74=DIRECTION('',(-1.,0.,0.));
#75=AXIS2_PLACEMENT_3D('',#72,#73,#74);
#76=CIRCLE('',#75,2.);
#77=EDGE_CURVE('',#61,#71,#76,.T.);
#78=ORIENTED_EDGE('',*,*,#77,.T.);
#79=CARTESIAN_POINT('',(339.246635986,80.430117924,5.977661028));
#80=VERTEX_POINT('',#79);
#81=CARTESIAN_POINT('',(339.112508429,82.425615305,5.977661028));
#82=DIRECTION('',(0.,0.,-1.));
#83=DIRECTION('',(-1.,0.,0.));
#84=AXIS2_PLACEMENT_3D('',#81,#82,#83);
#85=CIRCLE('',#84,2.);
#86=EDGE_CURVE('',#71,#80,#85,.T.);
#87=ORIENTED_EDGE('',*,*,#86,.T.);
#88=CARTESIAN_POINT('',(338.655305125,78.451830568,5.977661028));
#89=VERTEX_POINT('',#88);
#90=CARTESIAN_POINT('',(339.246635986,80.430117924,5.977661028));
#91=DIRECTION('',(-0.286390067,-0.958113109,0.));
#92=VECTOR('',#91,2.064774334);
#93=LINE('',#90,#92);
#94=EDGE_CURVE('',#80,#89,#93,.T.);
#95=ORIENTED_EDGE('',*,*,#94,.T.);
#96=CARTESIAN_POINT('',(335.112508429,82.425615305,5.977661028));
#97=VERTEX_POINT('',#96);
#98=CARTESIAN_POINT('',(339.112508429,82.425615305,5.977661028));
#99=DIRECTION('',(0.,0.,-1.));
#100=DIRECTION('',(-1.,0.,0.));
#101=AXIS2_PLACEMENT_3D('',#98,#99,#100);
#102=CIRCLE('',#101,4.);
#103=EDGE_CURVE('',#97,#89,#102,.T.);
#104=ORIENTED_EDGE('',*,*,#103,.F.);
#105=CARTESIAN_POINT('',(339.112508429,82.425615305,5.977661028));
#106=DIRECTION('',(0.,0.,-1.));
#107=DIRECTION('',(-1.,0.,0.));
#108=AXIS2_PLACEMENT_3D('',#105,#106,#107);
#109=CIRCLE('',#108,4.);
#110=EDGE_CURVE('',#63,#97,#109,.T.);
#111=ORIENTED_EDGE('',*,*,#110,.F.);
#112=EDGE_LOOP('',(#69,#78,#87,#95,#104,#111));
#113=FACE_BOUND('',#112,.T.);
#114=ADVANCED_FACE('',(#113),#59,.F.);
#115=CARTESIAN_POINT('',(339.112508429,82.425615305,5.977661028));
#116=DIRECTION('',(0.,0.,-1.));
#117=DIRECTION('',(-1.,0.,0.));
#118=AXIS2_PLACEMENT_3D('',#115,#116,#117);
#119=CYLINDRICAL_SURFACE('',#118,2.);
#120=CARTESIAN_POINT('',(337.112508429,82.425615305,-1.022338972));
#121=VERTEX_POINT('',#120);
#122=CARTESIAN_POINT('',(337.112508429,82.425615305,-1.022338972));
#123=DIRECTION('',(-0.,-0.,1.));
#124=VECTOR('',#123,7.);
#125=LINE('',#122,#124);
#126=EDGE_CURVE('',#121,#71,#125,.T.);
#127=ORIENTED_EDGE('',*,*,#126,.F.);
#128=CARTESIAN_POINT('',(339.112508429,82.425615305,-1.022338972));
#129=DIRECTION('',(0.,0.,-1.));
#130=DIRECTION('',(-1.,0.,0.));
#131=AXIS2_PLACEMENT_3D('',#128,#129,#130);
#132=CIRCLE('',#131,2.);
#133=EDGE_CURVE('',#121,#121,#132,.T.);
#134=ORIENTED_EDGE('',*,*,#133,.T.);
#135=ORIENTED_EDGE('',*,*,#126,.T.);
#136=ORIENTED_EDGE('',*,*,#77,.F.);
#137=CARTESIAN_POINT('',(338.539728294,80.509389088,6.677661028));
#138=VERTEX_POINT('',#137);
#139=CARTESIAN_POINT('',(339.112508429,82.425615305,6.677661028));
#140=DIRECTION('',(-0.677488276,0.202508359,0.707106781));
#141=DIRECTION('',(-0.677488276,0.202508359,-0.707106781));
#142=AXIS2_PLACEMENT_3D('',#139,#140,#141);
#143=ELLIPSE('',#142,2.828427125,2.);
#144=EDGE_CURVE('',#61,#138,#143,.T.);
#145=ORIENTED_EDGE('',*,*,#144,.T.);
#146=CARTESIAN_POINT('',(339.112508429,82.425615305,6.677661028));
#147=DIRECTION('',(0.677488276,-0.202508359,0.707106781));
#148=DIRECTION('',(0.677488276,-0.202508359,-0.707106781));
#149=AXIS2_PLACEMENT_3D('',#146,#147,#148);
#150=ELLIPSE('',#149,2.828427125,2.);
#151=EDGE_CURVE('',#138,#80,#150,.T.);
#152=ORIENTED_EDGE('',*,*,#151,.T.);
#153=ORIENTED_EDGE('',*,*,#86,.F.);
#154=EDGE_LOOP('',(#127,#134,#135,#136,#145,#152,#153));
#155=FACE_BOUND('',#154,.T.);
#156=ADVANCED_FACE('',(#155),#119,.F.);
#157=CARTESIAN_POINT('',(339.112508429,82.425615305,5.977661028));
#158=DIRECTION('',(0.,0.,-1.));
#159=DIRECTION('',(-1.,0.,0.));
#160=AXIS2_PLACEMENT_3D('',#157,#158,#159);
#161=CYLINDRICAL_SURFACE('',#160,4.);
#162=CARTESIAN_POINT('',(335.112508429,82.425615305,0.977661028));
#163=VERTEX_POINT('',#162);
#164=CARTESIAN_POINT('',(335.112508429,82.425615305,0.977661028));
#165=DIRECTION('',(-0.,-0.,1.));
#166=VECTOR('',#165,5.);
#167=LINE('',#164,#166);
#168=EDGE_CURVE('',#163,#97,#167,.T.);
#169=ORIENTED_EDGE('',*,*,#168,.T.);
#170=ORIENTED_EDGE('',*,*,#103,.T.);
#171=CARTESIAN_POINT('',(337.966948159,78.59316287,6.677661028));
#172=VERTEX_POINT('',#171);
#173=CARTESIAN_POINT('',(339.112508429,82.425615305,6.677661028));
#174=DIRECTION('',(-0.677488276,0.202508359,-0.707106781));
#175=DIRECTION('',(0.677488276,-0.202508359,-0.707106781));
#176=AXIS2_PLACEMENT_3D('',#173,#174,#175);
#177=ELLIPSE('',#176,5.656854249,4.);
#178=EDGE_CURVE('',#89,#172,#177,.T.);
#179=ORIENTED_EDGE('',*,*,#178,.T.);
#180=CARTESIAN_POINT('',(339.112508429,82.425615305,6.677661028));
#181=DIRECTION('',(0.677488276,-0.202508359,-0.707106781));
#182=DIRECTION('',(-0.677488276,0.202508359,-0.707106781));
#183=AXIS2_PLACEMENT_3D('',#180,#181,#182);
#184=ELLIPSE('',#183,5.656854249,4.);
#185=EDGE_CURVE('',#172,#63,#184,.T.);
#186=ORIENTED_EDGE('',*,*,#185,.T.);
#187=ORIENTED_EDGE('',*,*,#110,.T.);
#188=ORIENTED_EDGE('',*,*,#168,.F.);
#189=CARTESIAN_POINT('',(339.112508429,82.425615305,0.977661028));
#190=DIRECTION('',(0.,0.,-1.));
#191=DIRECTION('',(-1.,0.,0.));
#192=AXIS2_PLACEMENT_3D('',#189,#190,#191);
#193=CIRCLE('',#192,4.);
#194=EDGE_CURVE('',#163,#163,#193,.T.);
#195=ORIENTED_EDGE('',*,*,#194,.F.);
#196=EDGE_LOOP('',(#169,#170,#179,#186,#187,#188,#195));
#197=FACE_BOUND('',#196,.T.);
#198=ADVANCED_FACE('',(#197),#161,.T.);
#199=CARTESIAN_POINT('',(334.367836219,66.552394968,6.677661028));
#200=DIRECTION('',(-0.677488276,0.202508359,0.707106781));
#201=DIRECTION('',(0.286390067,0.958113109,0.));
#202=AXIS2_PLACEMENT_3D('',#199,#200,#201);
#203=PLANE('',#202);
#204=CARTESIAN_POINT('',(338.539728294,80.509389088,6.677661028));
#205=DIRECTION('',(-0.286390067,-0.958113109,0.));
#206=VECTOR('',#205,2.);
#207=LINE('',#204,#206);
#208=EDGE_CURVE('',#138,#172,#207,.T.);
#209=ORIENTED_EDGE('',*,*,#208,.F.);
#210=ORIENTED_EDGE('',*,*,#144,.F.);
#211=ORIENTED_EDGE('',*,*,#68,.T.);
#212=ORIENTED_EDGE('',*,*,#185,.F.);
#213=EDGE_LOOP('',(#209,#210,#211,#212));
#214=FACE_BOUND('',#213,.T.);
#215=ADVANCED_FACE('',(#214),#203,.T.);
#216=CARTESIAN_POINT('',(339.221979979,80.347631672,5.977661028));
#217=DIRECTION('',(-0.677488276,0.202508359,-0.707106781));
#218=DIRECTION('',(-0.286390067,-0.958113109,-0.));
#219=AXIS2_PLACEMENT_3D('',#216,#217,#218);
#220=PLANE('',#219);
#221=ORIENTED_EDGE('',*,*,#151,.F.);
#222=ORIENTED_EDGE('',*,*,#208,.T.);
#223=ORIENTED_EDGE('',*,*,#178,.F.);
#224=ORIENTED_EDGE('',*,*,#94,.F.);
#225=EDGE_LOOP('',(#221,#222,#223,#224));
#226=FACE_BOUND('',#225,.T.);
#227=ADVANCED_FACE('',(#226),#220,.F.);
#228=CARTESIAN_POINT('',(339.112508429,82.425615305,-1.022338972));
#229=DIRECTION('',(0.,0.,1.));
#230=DIRECTION('',(1.,0.,-0.));
#231=AXIS2_PLACEMENT_3D('',#228,#229,#230);
#232=CYLINDRICAL_SURFACE('',#231,7.);
#233=CARTESIAN_POINT('',(346.112508429,82.425615305,0.977661028));
#234=VERTEX_POINT('',#233);
#235=CARTESIAN_POINT('',(346.112508429,82.425615305,-1.022338972));
#236=VERTEX_POINT('',#235);
#237=CARTESIAN_POINT('',(346.112508429,82.425615305,0.977661028));
#238=DIRECTION('',(-0.,-0.,-1.));
#239=VECTOR('',#238,2.);
#240=LINE('',#237,#239);
#241=EDGE_CURVE('',#234,#236,#240,.T.);
#242=ORIENTED_EDGE('',*,*,#241,.T.);
#243=CARTESIAN_POINT('',(332.112508429,82.425615305,-1.022338972));
#244=VERTEX_POINT('',#243);
#245=CARTESIAN_POINT('',(339.112508429,82.425615305,-1.022338972));
#246=DIRECTION('',(0.,0.,-1.));
#247=DIRECTION('',(-1.,0.,0.));
#248=AXIS2_PLACEMENT_3D('',#245,#246,#247);
#249=CIRCLE('',#248,7.);
#250=EDGE_CURVE('',#244,#236,#249,.T.);
#251=ORIENTED_EDGE('',*,*,#250,.F.);
#252=CARTESIAN_POINT('',(339.112508429,82.425615305,-1.022338972));
#253=DIRECTION('',(0.,0.,-1.));
#254=DIRECTION('',(-1.,0.,0.));
#255=AXIS2_PLACEMENT_3D('',#252,#253,#254);
#256=CIRCLE('',#255,7.);
#257=EDGE_CURVE('',#236,#244,#256,.T.);
#258=ORIENTED_EDGE('',*,*,#257,.F.);
#259=ORIENTED_EDGE('',*,*,#241,.F.);
#260=CARTESIAN_POINT('',(332.112508429,82.425615305,0.977661028));
#261=VERTEX_POINT('',#260);
#262=CARTESIAN_POINT('',(339.112508429,82.425615305,0.977661028));
#263=DIRECTION('',(0.,0.,-1.));
#264=DIRECTION('',(-1.,0.,0.));
#265=AXIS2_PLACEMENT_3D('',#262,#263,#264);
#266=CIRCLE('',#265,7.);
#267=EDGE_CURVE('',#234,#261,#266,.T.);
#268=ORIENTED_EDGE('',*,*,#267,.T.);
#269=CARTESIAN_POINT('',(339.112508429,82.425615305,0.977661028));
#270=DIRECTION('',(0.,0.,-1.));
#271=DIRECTION('',(-1.,0.,0.));
#272=AXIS2_PLACEMENT_3D('',#269,#270,#271);
#273=CIRCLE('',#272,7.);
#274=EDGE_CURVE('',#261,#234,#273,.T.);
#275=ORIENTED_EDGE('',*,*,#274,.T.);
#276=EDGE_LOOP('',(#242,#251,#258,#259,#268,#275));
#277=FACE_BOUND('',#276,.T.);
#278=ADVANCED_FACE('',(#277),#232,.T.);
#279=CARTESIAN_POINT('',(338.795415479,65.228945043,-1.022338972));
#280=DIRECTION('',(0.,0.,-1.));
#281=DIRECTION('',(1.,0.,0.));
#282=AXIS2_PLACEMENT_3D('',#279,#280,#281);
#283=PLANE('',#282);
#284=ORIENTED_EDGE('',*,*,#133,.F.);
#285=EDGE_LOOP('',(#284));
#286=FACE_BOUND('',#285,.T.);
#287=ORIENTED_EDGE('',*,*,#250,.T.);
#288=ORIENTED_EDGE('',*,*,#257,.T.);
#289=EDGE_LOOP('',(#287,#288));
#290=FACE_BOUND('',#289,.T.);
#291=ADVANCED_FACE('',(#286,#290),#283,.T.);
#292=CARTESIAN_POINT('',(338.795415479,65.228945043,0.977661028));
#293=DIRECTION('',(0.,0.,-1.));
#294=DIRECTION('',(1.,0.,0.));
#295=AXIS2_PLACEMENT_3D('',#292,#293,#294);
#296=PLANE('',#295);
#297=ORIENTED_EDGE('',*,*,#194,.T.);
#298=EDGE_LOOP('',(#297));
#299=FACE_BOUND('',#298,.T.);
#300=ORIENTED_EDGE('',*,*,#267,.F.);
#301=ORIENTED_EDGE('',*,*,#274,.F.);
#302=EDGE_LOOP('',(#300,#301));
#303=FACE_BOUND('',#302,.T.);
#304=ADVANCED_FACE('',(#299,#303),#296,.F.);
#305=CLOSED_SHELL('',(#114,#156,#198,#215,#227,#278,#291,#304));
#306=MANIFOLD_SOLID_BREP('Achse',#305);
#307=COLOUR_RGB('',0.627451003,0.627451003,0.643137276);
#308=FILL_AREA_STYLE_COLOUR('',#307);
#309=FILL_AREA_STYLE('',(#308));
#310=SURFACE_STYLE_FILL_AREA(#309);
#311=SURFACE_SIDE_STYLE('',(#310));
#312=SURFACE_STYLE_USAGE(.BOTH.,#311);
#313=PRESENTATION_STYLE_ASSIGNMENT((#312));
#54=STYLED_ITEM('',(#313),#306);
#35=SHAPE_REPRESENTATION('Schieber',(#15),#33);
#36=ADVANCED_BREP_SHAPE_REPRESENTATION('Schieber',(#306),#33);
#321=SHAPE_REPRESENTATION_RELATIONSHIP('','',#35,#36);
#322=CARTESIAN_POINT('',(0.,0.,0.));
#323=DIRECTION('',(0.,0.,1.));
#324=DIRECTION('',(1.,0.,0.));
#325=AXIS2_PLACEMENT_3D('',#322,#323,#324);
#327=MAPPED_ITEM('',#326,#325);
#326=REPRESENTATION_MAP(#325,#35);
#328=APPLICATION_CONTEXT('Managed model based 3d engineering');
#329=APPLICATION_PROTOCOL_DEFINITION('international standard','ap242_managed_model_based_3d_engineering',2014,#328);
#330=PRODUCT_CONTEXT('',#328,'mechanical');
#331=PRODUCT_DEFINITION_CONTEXT('part definition',#328,'design');
#43=PRODUCT('Schieber','Schieber','',(#330));
#332=PRODUCT_RELATED_PRODUCT_CATEGORY('part','',(#43));
#333=PRODUCT_DEFINITION_FORMATION_WITH_SPECIFIED_SOURCE('','',#43,.NOT_KNOWN.);
#44=PRODUCT_DEFINITION('design','',#333,#331);
#42=PRODUCT_DEFINITION_SHAPE('','',#44);
#334=SHAPE_DEFINITION_REPRESENTATION(#42,#35);
#34=DRAUGHTING_MODEL('',(#327),#33);
#16=SHAPE_REPRESENTATION('root',(#15,#48),#10);
#335=CARTESIAN_POINT('',(0.,0.,0.));
#336=DIRECTION('',(0.,0.,1.));
#337=DIRECTION('',(1.,0.,0.));
#338=AXIS2_PLACEMENT_3D('',#335,#336,#337);
#340=MAPPED_ITEM('',#339,#338);
#339=REPRESENTATION_MAP(#338,#16);
#24=PRODUCT('root','root','',(#330));
#341=PRODUCT_RELATED_PRODUCT_CATEGORY('part','',(#24));
#342=PRODUCT_DEFINITION_FORMATION_WITH_SPECIFIED_SOURCE('','',#24,.NOT_KNOWN.);
#25=PRODUCT_DEFINITION('design','',#342,#331);
#23=PRODUCT_DEFINITION_SHAPE('','',#25);
#343=SHAPE_DEFINITION_REPRESENTATION(#23,#16);
#11=DRAUGHTING_MODEL('',(#340),#10);
#344=DESCRIPTIVE_REPRESENTATION_ITEM('KEY','C:\\Users\\Ruben\\AppData\\Local\\Packages\\Shapr3D.Shapr3D_dvv5p1vgwv6mp\\TempState\\d4214050-c758-4a96-9037-980bf1d0c3ca.tmp');
#345=PROPERTY_DEFINITION('KEY','',#25);
#346=REPRESENTATION('',(#344),#10);
#347=PROPERTY_DEFINITION_REPRESENTATION(#345,#346);
#348=GENERAL_PROPERTY('','KEY','');
#349=GENERAL_PROPERTY_ASSOCIATION('','',#348,#345);
#1=MECHANICAL_DESIGN_GEOMETRIC_PRESENTATION_REPRESENTATION('',(#54),#10);
ENDSEC;
END-ISO-10303-21;
