ISO-10303-21;
HEADER;

/* File generated by Shapr3D Version 26.0.10296.0 */

FILE_DESCRIPTION(('HOOPS Exchange Step'),'2;1');

FILE_NAME('C:\\Users\\Ruben\\AppData\\Local\\Packages\\Shapr3D.Shapr3D_dvv5p1vgwv6mp\\TempState\\export\\temp_export',
'2026-01-29T18:51:17+01:00',
('Ruben'),
('Shapr3D Limited'),
'HOOPS Exchange 2025.9',
'Shapr3D',
'Authorized');

FILE_SCHEMA( ('AP242_MANAGED_MODEL_BASED_3D_ENGINEERING_MIM_LF {1 0 10303 442 1 1 4}') );

ENDSEC;

DATA;
#3=(NAMED_UNIT(*)PLANE_ANGLE_UNIT()SI_UNIT($,.RADIAN.));
#4=PLANE_ANGLE_MEASURE_WITH_UNIT(PLANE_ANGLE_MEASURE(0.0174532925),#3);
#5=(CONVERSION_BASED_UNIT('DEGREE',#4)NAMED_UNIT(#6)PLANE_ANGLE_UNIT());
#6=DIMENSIONAL_EXPONENTS(0.,0.,0.,0.,0.,0.,0.);
#7=(NAMED_UNIT(*)SI_UNIT($,.STERADIAN.)SOLID_ANGLE_UNIT());
#8=(LENGTH_UNIT()NAMED_UNIT(*)SI_UNIT(.MILLI.,.METRE.));
#9=UNCERTAINTY_MEASURE_WITH_UNIT(LENGTH_MEASURE(1.000000E-03),#8,'DISTANCE_ACCURACY_VALUE','Maximum Tolerance applied to model');
#10=(GEOMETRIC_REPRESENTATION_CONTEXT(3)GLOBAL_UNCERTAINTY_ASSIGNED_CONTEXT((#9))GLOBAL_UNIT_ASSIGNED_CONTEXT((#8,#5,#7))REPRESENTATION_CONTEXT('','root'));
#12=CARTESIAN_POINT('',(0.,0.,0.));
#13=DIRECTION('',(0.,0.,1.));
#14=DIRECTION('',(1.,0.,0.));
#15=AXIS2_PLACEMENT_3D('',#12,#13,#14);
#26=(NAMED_UNIT(*)PLANE_ANGLE_UNIT()SI_UNIT($,.RADIAN.));
#27=PLANE_ANGLE_MEASURE_WITH_UNIT(PLANE_ANGLE_MEASURE(0.0174532925),#26);
#28=(CONVERSION_BASED_UNIT('DEGREE',#27)NAMED_UNIT(#29)PLANE_ANGLE_UNIT());
#29=DIMENSIONAL_EXPONENTS(0.,0.,0.,0.,0.,0.,0.);
#30=(NAMED_UNIT(*)SI_UNIT($,.STERADIAN.)SOLID_ANGLE_UNIT());
#31=(LENGTH_UNIT()NAMED_UNIT(*)SI_UNIT(.MILLI.,.METRE.));
#32=UNCERTAINTY_MEASURE_WITH_UNIT(LENGTH_MEASURE(1.000000E-05),#31,'DISTANCE_ACCURACY_VALUE','Maximum Tolerance applied to model');
#33=(GEOMETRIC_REPRESENTATION_CONTEXT(3)GLOBAL_UNCERTAINTY_ASSIGNED_CONTEXT((#32))GLOBAL_UNIT_ASSIGNED_CONTEXT((#31,#28,#30))REPRESENTATION_CONTEXT('','Schieber'));
#45=CARTESIAN_POINT('',(0.,0.,0.));
#46=DIRECTION('',(0.,0.,1.));
#47=DIRECTION('',(1.,0.,-0.));
#48=AXIS2_PLACEMENT_3D('',#45,#46,#47);
#49=ITEM_DEFINED_TRANSFORMATION('','',#48,#15);
#50=(REPRESENTATION_RELATIONSHIP('','',#35,#16)REPRESENTATION_RELATIONSHIP_WITH_TRANSFORMATION(#49)SHAPE_REPRESENTATION_RELATIONSHIP());
#51=NEXT_ASSEMBLY_USAGE_OCCURRENCE('Schieber_1','Schieber','Schieber',#25,#44,$);
#52=PRODUCT_DEFINITION_SHAPE('','',#51);
#53=CONTEXT_DEPENDENT_SHAPE_REPRESENTATION(#50,#52);
#55=CARTESIAN_POINT('',(338.795415479,65.228945043,8.977661028));
#56=DIRECTION('',(0.,0.,1.));
#57=DIRECTION('',(1.,0.,0.));
#58=AXIS2_PLACEMENT_3D('',#55,#56,#57);
#59=PLANE('',#58);
#60=CARTESIAN_POINT('',(345.458363228,76.418868528,8.977661028));
#61=VERTEX_POINT('',#60);
#62=CARTESIAN_POINT('',(333.973387349,60.43984177,8.977661028));
#63=VERTEX_POINT('',#62);
#64=CARTESIAN_POINT('',(398.647385938,26.072146002,8.977661028));
#65=DIRECTION('',(0.,0.,1.));
#66=DIRECTION('',(1.,0.,-0.));
#67=AXIS2_PLACEMENT_3D('',#64,#65,#66);
#68=CIRCLE('',#67,73.238409362);
#69=EDGE_CURVE('',#61,#63,#68,.T.);
#70=ORIENTED_EDGE('',*,*,#69,.T.);
#71=CARTESIAN_POINT('',(331.337103396,61.096805992,8.977661028));
#72=VERTEX_POINT('',#71);
#73=CARTESIAN_POINT('',(332.737103396,61.096805992,8.977661028));
#74=DIRECTION('',(-0.,-0.,-1.));
#75=DIRECTION('',(1.,0.,-0.));
#76=AXIS2_PLACEMENT_3D('',#73,#74,#75);
#77=CIRCLE('',#76,1.4);
#78=EDGE_CURVE('',#63,#72,#77,.T.);
#79=ORIENTED_EDGE('',*,*,#78,.T.);
#80=CARTESIAN_POINT('',(331.343083476,61.226067211,8.977661028));
#81=VERTEX_POINT('',#80);
#82=CARTESIAN_POINT('',(332.737103396,61.096805992,8.977661028));
#83=DIRECTION('',(-0.,-0.,-1.));
#84=DIRECTION('',(1.,0.,-0.));
#85=AXIS2_PLACEMENT_3D('',#82,#83,#84);
#86=CIRCLE('',#85,1.4);
#87=EDGE_CURVE('',#72,#81,#86,.T.);
#88=ORIENTED_EDGE('',*,*,#87,.T.);
#89=CARTESIAN_POINT('',(331.655938271,67.988322524,8.977661028));
#90=VERTEX_POINT('',#89);
#91=CARTESIAN_POINT('',(258.417528909,67.988322524,8.977661028));
#92=DIRECTION('',(0.,0.,1.));
#93=DIRECTION('',(1.,0.,-0.));
#94=AXIS2_PLACEMENT_3D('',#91,#92,#93);
#95=CIRCLE('',#94,73.238409362);
#96=EDGE_CURVE('',#81,#90,#95,.T.);
#97=ORIENTED_EDGE('',*,*,#96,.T.);
#98=CARTESIAN_POINT('',(330.511186909,80.886736458,8.977661028));
#99=VERTEX_POINT('',#98);
#100=CARTESIAN_POINT('',(258.417528909,67.988322524,8.977661028));
#101=DIRECTION('',(0.,0.,1.));
#102=DIRECTION('',(1.,0.,-0.));
#103=AXIS2_PLACEMENT_3D('',#100,#101,#102);
#104=CIRCLE('',#103,73.238409362);
#105=EDGE_CURVE('',#90,#99,#104,.T.);
#106=ORIENTED_EDGE('',*,*,#105,.T.);
#107=CARTESIAN_POINT('',(330.374609368,82.425615305,8.977661028));
#108=VERTEX_POINT('',#107);
#109=CARTESIAN_POINT('',(339.112508429,82.425615305,8.977661028));
#110=DIRECTION('',(0.,0.,1.));
#111=DIRECTION('',(1.,0.,-0.));
#112=AXIS2_PLACEMENT_3D('',#109,#110,#111);
#113=CIRCLE('',#112,8.73789906);
#114=EDGE_CURVE('',#108,#99,#113,.T.);
#115=ORIENTED_EDGE('',*,*,#114,.F.);
#116=CARTESIAN_POINT('',(339.112508429,82.425615305,8.977661028));
#117=DIRECTION('',(0.,0.,1.));
#118=DIRECTION('',(1.,0.,-0.));
#119=AXIS2_PLACEMENT_3D('',#116,#117,#118);
#120=CIRCLE('',#119,8.73789906);
#121=EDGE_CURVE('',#61,#108,#120,.T.);
#122=ORIENTED_EDGE('',*,*,#121,.F.);
#123=EDGE_LOOP('',(#70,#79,#88,#97,#106,#115,#122));
#124=FACE_BOUND('',#123,.T.);
#125=CARTESIAN_POINT('',(339.433250463,80.705259369,8.977661028));
#126=VERTEX_POINT('',#125);
#127=CARTESIAN_POINT('',(340.862508429,82.425615305,8.977661028));
#128=VERTEX_POINT('',#127);
#129=CARTESIAN_POINT('',(339.112508429,82.425615305,8.977661028));
#130=DIRECTION('',(0.,0.,1.));
#131=DIRECTION('',(1.,0.,-0.));
#132=AXIS2_PLACEMENT_3D('',#129,#130,#131);
#133=CIRCLE('',#132,1.75);
#134=EDGE_CURVE('',#126,#128,#133,.T.);
#135=ORIENTED_EDGE('',*,*,#134,.T.);
#136=CARTESIAN_POINT('',(337.900269489,81.163483477,8.977661028));
#137=VERTEX_POINT('',#136);
#138=CARTESIAN_POINT('',(339.112508429,82.425615305,8.977661028));
#139=DIRECTION('',(0.,0.,1.));
#140=DIRECTION('',(1.,0.,-0.));
#141=AXIS2_PLACEMENT_3D('',#138,#139,#140);
#142=CIRCLE('',#141,1.75);
#143=EDGE_CURVE('',#128,#137,#142,.T.);
#144=ORIENTED_EDGE('',*,*,#143,.T.);
#145=CARTESIAN_POINT('',(336.9325154,77.925878602,8.977661028));
#146=VERTEX_POINT('',#145);
#147=CARTESIAN_POINT('',(337.900269489,81.163483477,8.977661028));
#148=DIRECTION('',(-0.286390067,-0.958113109,0.));
#149=VECTOR('',#148,3.37914683);
#150=LINE('',#147,#149);
#151=EDGE_CURVE('',#137,#146,#150,.T.);
#152=ORIENTED_EDGE('',*,*,#151,.T.);
#153=CARTESIAN_POINT('',(338.465496375,77.467654494,8.977661028));
#154=VERTEX_POINT('',#153);
#155=CARTESIAN_POINT('',(339.112508429,82.425615305,8.977661028));
#156=DIRECTION('',(0.,0.,1.));
#157=DIRECTION('',(1.,0.,-0.));
#158=AXIS2_PLACEMENT_3D('',#155,#156,#157);
#159=CIRCLE('',#158,5.);
#160=EDGE_CURVE('',#146,#154,#159,.T.);
#161=ORIENTED_EDGE('',*,*,#160,.T.);
#162=CARTESIAN_POINT('',(339.433250463,80.705259369,8.977661028));
#163=DIRECTION('',(-0.286390067,-0.958113109,0.));
#164=VECTOR('',#163,3.37914683);
#165=LINE('',#162,#164);
#166=EDGE_CURVE('',#126,#154,#165,.T.);
#167=ORIENTED_EDGE('',*,*,#166,.F.);
#168=EDGE_LOOP('',(#135,#144,#152,#161,#167));
#169=FACE_BOUND('',#168,.T.);
#170=ADVANCED_FACE('',(#124,#169),#59,.F.);
#171=CARTESIAN_POINT('',(339.112508429,82.425615305,14.977661028));
#172=DIRECTION('',(0.,0.,-1.));
#173=DIRECTION('',(-1.,0.,0.));
#174=AXIS2_PLACEMENT_3D('',#171,#172,#173);
#175=CYLINDRICAL_SURFACE('',#174,8.73789906);
#176=CARTESIAN_POINT('',(330.374609368,82.425615305,11.477661028));
#177=VERTEX_POINT('',#176);
#178=CARTESIAN_POINT('',(330.374609368,82.425615305,8.977661028));
#179=DIRECTION('',(-0.,-0.,1.));
#180=VECTOR('',#179,2.5);
#181=LINE('',#178,#180);
#182=EDGE_CURVE('',#108,#177,#181,.T.);
#183=ORIENTED_EDGE('',*,*,#182,.T.);
#184=CARTESIAN_POINT('',(347.850407489,82.425615305,11.477661028));
#185=VERTEX_POINT('',#184);
#186=CARTESIAN_POINT('',(339.112508429,82.425615305,11.477661028));
#187=DIRECTION('',(-0.,-0.,-1.));
#188=DIRECTION('',(1.,0.,-0.));
#189=AXIS2_PLACEMENT_3D('',#186,#187,#188);
#190=CIRCLE('',#189,8.73789906);
#191=EDGE_CURVE('',#177,#185,#190,.T.);
#192=ORIENTED_EDGE('',*,*,#191,.T.);
#193=CARTESIAN_POINT('',(345.458363228,76.418868528,11.477661028));
#194=VERTEX_POINT('',#193);
#195=CARTESIAN_POINT('',(339.112508429,82.425615305,11.477661028));
#196=DIRECTION('',(-0.,-0.,-1.));
#197=DIRECTION('',(1.,0.,-0.));
#198=AXIS2_PLACEMENT_3D('',#195,#196,#197);
#199=CIRCLE('',#198,8.73789906);
#200=EDGE_CURVE('',#185,#194,#199,.T.);
#201=ORIENTED_EDGE('',*,*,#200,.T.);
#202=CARTESIAN_POINT('',(345.458363228,76.418868528,11.477661028));
#203=DIRECTION('',(0.,0.,-1.));
#204=VECTOR('',#203,2.5);
#205=LINE('',#202,#204);
#206=EDGE_CURVE('',#194,#61,#205,.T.);
#207=ORIENTED_EDGE('',*,*,#206,.T.);
#208=ORIENTED_EDGE('',*,*,#121,.T.);
#209=EDGE_LOOP('',(#183,#192,#201,#207,#208));
#210=FACE_BOUND('',#209,.T.);
#211=ADVANCED_FACE('',(#210),#175,.T.);
#212=CARTESIAN_POINT('',(258.417528909,67.988322524,14.977661028));
#213=DIRECTION('',(0.,0.,1.));
#214=DIRECTION('',(1.,0.,-0.));
#215=AXIS2_PLACEMENT_3D('',#212,#213,#214);
#216=CYLINDRICAL_SURFACE('',#215,73.238409362);
#217=CARTESIAN_POINT('',(331.655938271,67.988322524,11.477661028));
#218=VERTEX_POINT('',#217);
#219=CARTESIAN_POINT('',(331.655938271,67.988322524,11.477661028));
#220=DIRECTION('',(-0.,-0.,-1.));
#221=VECTOR('',#220,2.5);
#222=LINE('',#219,#221);
#223=EDGE_CURVE('',#218,#90,#222,.T.);
#224=ORIENTED_EDGE('',*,*,#223,.F.);
#225=CARTESIAN_POINT('',(330.511186909,80.886736458,11.477661028));
#226=VERTEX_POINT('',#225);
#227=CARTESIAN_POINT('',(258.417528909,67.988322524,11.477661028));
#228=DIRECTION('',(0.,0.,1.));
#229=DIRECTION('',(1.,0.,-0.));
#230=AXIS2_PLACEMENT_3D('',#227,#228,#229);
#231=CIRCLE('',#230,73.238409362);
#232=EDGE_CURVE('',#218,#226,#231,.T.);
#233=ORIENTED_EDGE('',*,*,#232,.T.);
#234=CARTESIAN_POINT('',(330.511186909,80.886736458,11.477661028));
#235=DIRECTION('',(0.,0.,-1.));
#236=VECTOR('',#235,2.5);
#237=LINE('',#234,#236);
#238=EDGE_CURVE('',#226,#99,#237,.T.);
#239=ORIENTED_EDGE('',*,*,#238,.T.);
#240=ORIENTED_EDGE('',*,*,#105,.F.);
#241=EDGE_LOOP('',(#224,#233,#239,#240));
#242=FACE_BOUND('',#241,.T.);
#243=ADVANCED_FACE('',(#242),#216,.F.);
#244=CARTESIAN_POINT('',(398.647385938,26.072146002,14.977661028));
#245=DIRECTION('',(0.,0.,-1.));
#246=DIRECTION('',(-1.,0.,0.));
#247=AXIS2_PLACEMENT_3D('',#244,#245,#246);
#248=CYLINDRICAL_SURFACE('',#247,73.238409362);
#249=CARTESIAN_POINT('',(333.973389061,60.439844993,11.477661028));
#250=VERTEX_POINT('',#249);
#251=CARTESIAN_POINT('',(398.647385938,26.072146002,11.477661028));
#252=DIRECTION('',(0.,0.,1.));
#253=DIRECTION('',(1.,0.,-0.));
#254=AXIS2_PLACEMENT_3D('',#251,#252,#253);
#255=CIRCLE('',#254,73.238409362);
#256=EDGE_CURVE('',#194,#250,#255,.T.);
#257=ORIENTED_EDGE('',*,*,#256,.T.);
#258=CARTESIAN_POINT('',(333.973389061,60.439844993,11.477661028));
#259=DIRECTION('',(0.,0.,-1.));
#260=VECTOR('',#259,2.5);
#261=LINE('',#258,#260);
#262=EDGE_CURVE('',#250,#63,#261,.T.);
#263=ORIENTED_EDGE('',*,*,#262,.T.);
#264=ORIENTED_EDGE('',*,*,#69,.F.);
#265=ORIENTED_EDGE('',*,*,#206,.F.);
#266=EDGE_LOOP('',(#257,#263,#264,#265));
#267=FACE_BOUND('',#266,.T.);
#268=ADVANCED_FACE('',(#267),#248,.F.);
#269=CARTESIAN_POINT('',(338.795415479,65.228945043,14.977661028));
#270=DIRECTION('',(0.,0.,1.));
#271=DIRECTION('',(1.,0.,0.));
#272=AXIS2_PLACEMENT_3D('',#269,#270,#271);
#273=PLANE('',#272);
#274=CARTESIAN_POINT('',(342.162508429,82.425615305,14.977661028));
#275=VERTEX_POINT('',#274);
#276=CARTESIAN_POINT('',(339.112508429,82.425615305,14.977661028));
#277=DIRECTION('',(-0.,-0.,-1.));
#278=DIRECTION('',(1.,0.,-0.));
#279=AXIS2_PLACEMENT_3D('',#276,#277,#278);
#280=CIRCLE('',#279,3.05);
#281=EDGE_CURVE('',#275,#275,#280,.T.);
#282=ORIENTED_EDGE('',*,*,#281,.T.);
#283=EDGE_LOOP('',(#282));
#284=FACE_BOUND('',#283,.T.);
#285=CARTESIAN_POINT('',(335.147006684,69.159096533,14.977661028));
#286=VERTEX_POINT('',#285);
#287=CARTESIAN_POINT('',(342.91650601,78.824894688,14.977661028));
#288=VERTEX_POINT('',#287);
#289=CARTESIAN_POINT('',(398.647385938,26.072146002,14.977661028));
#290=DIRECTION('',(-0.,-0.,-1.));
#291=DIRECTION('',(1.,0.,-0.));
#292=AXIS2_PLACEMENT_3D('',#289,#290,#291);
#293=CIRCLE('',#292,76.738409362);
#294=EDGE_CURVE('',#286,#288,#293,.T.);
#295=ORIENTED_EDGE('',*,*,#294,.T.);
#296=CARTESIAN_POINT('',(344.350407489,82.425615305,14.977661028));
#297=VERTEX_POINT('',#296);
#298=CARTESIAN_POINT('',(339.112508429,82.425615305,14.977661028));
#299=DIRECTION('',(0.,0.,1.));
#300=DIRECTION('',(1.,0.,-0.));
#301=AXIS2_PLACEMENT_3D('',#298,#299,#300);
#302=CIRCLE('',#301,5.23789906);
#303=EDGE_CURVE('',#288,#297,#302,.T.);
#304=ORIENTED_EDGE('',*,*,#303,.T.);
#305=CARTESIAN_POINT('',(333.956480236,81.503140462,14.977661028));
#306=VERTEX_POINT('',#305);
#307=CARTESIAN_POINT('',(339.112508429,82.425615305,14.977661028));
#308=DIRECTION('',(0.,0.,1.));
#309=DIRECTION('',(1.,0.,-0.));
#310=AXIS2_PLACEMENT_3D('',#307,#308,#309);
#311=CIRCLE('',#310,5.23789906);
#312=EDGE_CURVE('',#297,#306,#311,.T.);
#313=ORIENTED_EDGE('',*,*,#312,.T.);
#314=CARTESIAN_POINT('',(258.417528909,67.988322524,14.977661028));
#315=DIRECTION('',(-0.,-0.,-1.));
#316=DIRECTION('',(1.,0.,-0.));
#317=AXIS2_PLACEMENT_3D('',#314,#315,#316);
#318=CIRCLE('',#317,76.738409362);
#319=EDGE_CURVE('',#306,#286,#318,.T.);
#320=ORIENTED_EDGE('',*,*,#319,.T.);
#321=EDGE_LOOP('',(#295,#304,#313,#320));
#322=FACE_BOUND('',#321,.T.);
#323=ADVANCED_FACE('',(#284,#322),#273,.T.);
#324=CARTESIAN_POINT('',(398.647385938,26.072146002,11.477661028));
#325=DIRECTION('',(0.,0.,1.));
#326=DIRECTION('',(1.,0.,-0.));
#327=AXIS2_PLACEMENT_3D('',#324,#325,#326);
#328=TOROIDAL_SURFACE('',#327,76.738409362,3.5);
#329=ORIENTED_EDGE('',*,*,#294,.F.);
#330=CARTESIAN_POINT('',(335.147006684,69.159096533,14.977661028));
#331=CARTESIAN_POINT('',(335.101948107,68.758641038,14.977661028));
#332=CARTESIAN_POINT('',(335.056162183,68.359683485,14.962626266));
#333=CARTESIAN_POINT('',(335.009649659,67.963925464,14.934185954));
#334=CARTESIAN_POINT('',(334.963137136,67.568167442,14.905745642));
#335=CARTESIAN_POINT('',(334.91585453,67.175585293,14.863952941));
#336=CARTESIAN_POINT('',(334.867924994,66.785994284,14.809516859));
#337=CARTESIAN_POINT('',(334.77206592,66.006812265,14.700644694));
#338=CARTESIAN_POINT('',(334.673267156,65.239549149,14.542604507));
#339=CARTESIAN_POINT('',(334.571153525,64.484411888,14.328434069));
#340=CARTESIAN_POINT('',(334.52009671,64.106843257,14.22134885));
#341=CARTESIAN_POINT('',(334.468230157,63.732322732,14.100026397));
#342=CARTESIAN_POINT('',(334.415580813,63.361213778,13.960096626));
#343=CARTESIAN_POINT('',(334.362931468,62.990104825,13.820166855));
#344=CARTESIAN_POINT('',(334.309487738,62.622339635,13.662325272));
#345=CARTESIAN_POINT('',(334.255416132,62.259087606,13.47391938));
#346=CARTESIAN_POINT('',(334.228380328,62.077461592,13.379716434));
#347=CARTESIAN_POINT('',(334.201048087,61.896335113,13.27741059));
#348=CARTESIAN_POINT('',(334.173931381,61.718465403,13.16405421));
#349=CARTESIAN_POINT('',(334.146814675,61.540595693,13.050697829));
#350=CARTESIAN_POINT('',(334.119945295,61.366180369,12.92693237));
#351=CARTESIAN_POINT('',(334.093664993,61.197740883,12.784231313));
#352=CARTESIAN_POINT('',(334.080524842,61.11352114,12.712880784));
#353=CARTESIAN_POINT('',(334.067546759,61.030817353,12.636709856));
#354=CARTESIAN_POINT('',(334.054866277,60.950436732,12.552974877));
#355=CARTESIAN_POINT('',(334.042185795,60.870056111,12.469239898));
#356=CARTESIAN_POINT('',(334.029671176,60.79129255,12.377317275));
#357=CARTESIAN_POINT('',(334.018143439,60.718978024,12.274662599));
#358=CARTESIAN_POINT('',(334.012379571,60.682820761,12.223335261));
#359=CARTESIAN_POINT('',(334.006857043,60.648245409,12.169264273));
#360=CARTESIAN_POINT('',(334.001678186,60.61590891,12.111288383));
#361=CARTESIAN_POINT('',(333.996499329,60.583572411,12.053312492));
#362=CARTESIAN_POINT('',(333.9916429,60.553223674,11.990722398));
#363=CARTESIAN_POINT('',(333.987457926,60.527194554,11.924289305));
#364=CARTESIAN_POINT('',(333.979087977,60.475136315,11.79142312));
#365=CARTESIAN_POINT('',(333.973389062,60.439844995,11.637948133));
#366=CARTESIAN_POINT('',(333.973389063,60.439844995,11.477661027));
#367=B_SPLINE_CURVE_WITH_KNOTS('',3,(#330,#331,#332,#333,#334,#335,#336,#337,#338,#339,#340,#341,#342,#343,#344,#345,#346,#347,#348,#349,#350,#351,#352,#353,#354,#355,
#356,#357,#358,#359,#360,#361,#362,#363,#364,#365,#366),.UNSPECIFIED.,.F.,.F.,(4,3,3,3,3,3,3,3,3,3,3,3,4),(0.008929685,0.010067146,0.011204607,0.01347953,0.014616992,0.015754453,0.016323184,0.016891914,0.01717628,0.017460645,0.017602828,0.01774501,0.018029376),.UNSPECIFIED.);
#368=EDGE_CURVE('',#286,#250,#367,.T.);
#369=ORIENTED_EDGE('',*,*,#368,.T.);
#370=ORIENTED_EDGE('',*,*,#256,.F.);
#371=CARTESIAN_POINT('',(342.91650601,78.824894688,11.477661028));
#372=DIRECTION('',(0.687436046,0.726244919,-0.));
#373=DIRECTION('',(0.726244919,-0.687436046,-0.));
#374=AXIS2_PLACEMENT_3D('',#371,#372,#373);
#375=CIRCLE('',#374,3.5);
#376=EDGE_CURVE('',#288,#194,#375,.T.);
#377=ORIENTED_EDGE('',*,*,#376,.F.);
#378=EDGE_LOOP('',(#329,#369,#370,#377));
#379=FACE_BOUND('',#378,.T.);
#380=ADVANCED_FACE('',(#379),#328,.T.);
#381=CARTESIAN_POINT('',(258.417528909,67.988322524,11.477661028));
#382=DIRECTION('',(0.,0.,1.));
#383=DIRECTION('',(1.,0.,-0.));
#384=AXIS2_PLACEMENT_3D('',#381,#382,#383);
#385=TOROIDAL_SURFACE('',#384,76.738409362,3.5);
#386=CARTESIAN_POINT('',(334.557795096,67.988322524,14.926173295));
#387=VERTEX_POINT('',#386);
#388=CARTESIAN_POINT('',(335.155938271,67.988322524,11.477661028));
#389=DIRECTION('',(-0.,1.,-0.));
#390=DIRECTION('',(1.,0.,0.));
#391=AXIS2_PLACEMENT_3D('',#388,#389,#390);
#392=CIRCLE('',#391,3.5);
#393=EDGE_CURVE('',#218,#387,#392,.T.);
#394=ORIENTED_EDGE('',*,*,#393,.T.);
#395=CARTESIAN_POINT('',(331.343083814,61.226070849,11.477661027));
#396=CARTESIAN_POINT('',(331.343083814,61.226070849,11.637948133));
#397=CARTESIAN_POINT('',(331.35768723,61.258700982,11.791422832));
#398=CARTESIAN_POINT('',(331.37925919,61.306812539,11.924289305));
#399=CARTESIAN_POINT('',(331.39004517,61.330868318,11.990722542));
#400=CARTESIAN_POINT('',(331.402640454,61.358905451,12.05331126));
#401=CARTESIAN_POINT('',(331.416056988,61.388778232,12.111288383));
#402=CARTESIAN_POINT('',(331.429473522,61.418651013,12.169265505));
#403=CARTESIAN_POINT('',(331.443831453,61.450587719,12.223334189));
#404=CARTESIAN_POINT('',(331.45885578,61.483975975,12.274662599));
#405=CARTESIAN_POINT('',(331.488904433,61.550752488,12.377319419));
#406=CARTESIAN_POINT('',(331.521667161,61.623465593,12.469239897));
#407=CARTESIAN_POINT('',(331.5551787,61.697619592,12.552974877));
#408=CARTESIAN_POINT('',(331.588690238,61.771773591,12.636709857));
#409=CARTESIAN_POINT('',(331.62322792,61.848032991,12.712880781));
#410=CARTESIAN_POINT('',(331.658462058,61.925648607,12.784231313));
#411=CARTESIAN_POINT('',(331.728930333,62.080879841,12.926932377));
#412=CARTESIAN_POINT('',(331.802185783,62.241430966,13.050695154));
#413=CARTESIAN_POINT('',(331.8771299,62.40500348,13.16405421));
#414=CARTESIAN_POINT('',(331.952074016,62.568575993,13.277413265));
#415=CARTESIAN_POINT('',(332.028625535,62.734991395,13.379716432));
#416=CARTESIAN_POINT('',(332.105698851,62.901660671,13.47391938));
#417=CARTESIAN_POINT('',(332.259845482,63.234999223,13.662325275));
#418=CARTESIAN_POINT('',(332.416993776,63.571766033,13.820166846));
#419=CARTESIAN_POINT('',(332.576641139,63.910892153,13.960096626));
#420=CARTESIAN_POINT('',(332.736288502,64.250018274,14.100026406));
#421=CARTESIAN_POINT('',(332.898462511,64.591566745,14.221348849));
#422=CARTESIAN_POINT('',(333.062986167,64.935218945,14.328434069));
#423=CARTESIAN_POINT('',(333.392033479,65.622523347,14.542604508));
#424=CARTESIAN_POINT('',(333.73052242,66.318140231,14.700648186));
#425=CARTESIAN_POINT('',(334.077977815,67.022117789,14.809516859));
#426=CARTESIAN_POINT('',(334.251705512,67.374106568,14.863951195));
#427=CARTESIAN_POINT('',(334.42763176,67.728235619,14.90574568));
#428=CARTESIAN_POINT('',(334.605936136,68.084599674,14.934185954));
#429=CARTESIAN_POINT('',(334.784240511,68.44096373,14.962626228));
#430=CARTESIAN_POINT('',(334.964908684,68.79960356,14.977661028));
#431=CARTESIAN_POINT('',(335.147006684,69.159096533,14.977661028));
#432=B_SPLINE_CURVE_WITH_KNOTS('',3,(#395,#396,#397,#398,#399,#400,#401,#402,#403,#404,#405,#406,#407,#408,#409,#410,#411,#412,#413,#414,#415,#416,#417,#418,#419,#420,
#421,#422,#423,#424,#425,#426,#427,#428,#429,#430,#431),.UNSPECIFIED.,.F.,.F.,(4,3,3,3,3,3,3,3,3,3,3,3,4),(0.008929685,0.00921405,0.009356233,0.009498415,0.009782781,0.010067146,0.010635877,0.011204607,0.012342069,0.01347953,0.015754453,0.016891914,0.018029376),.UNSPECIFIED.);
#433=EDGE_CURVE('',#387,#286,#432,.T.);
#434=ORIENTED_EDGE('',*,*,#433,.T.);
#435=ORIENTED_EDGE('',*,*,#319,.F.);
#436=CARTESIAN_POINT('',(333.956480236,81.503140462,11.477661028));
#437=DIRECTION('',(-0.17611543,0.984369522,-0.));
#438=DIRECTION('',(0.984369522,0.17611543,-0.));
#439=AXIS2_PLACEMENT_3D('',#436,#437,#438);
#440=CIRCLE('',#439,3.5);
#441=EDGE_CURVE('',#226,#306,#440,.T.);
#442=ORIENTED_EDGE('',*,*,#441,.F.);
#443=ORIENTED_EDGE('',*,*,#232,.F.);
#444=EDGE_LOOP('',(#394,#434,#435,#442,#443));
#445=FACE_BOUND('',#444,.T.);
#446=ADVANCED_FACE('',(#445),#385,.T.);
#447=CARTESIAN_POINT('',(339.112508429,82.425615305,11.477661028));
#448=DIRECTION('',(0.,0.,1.));
#449=DIRECTION('',(1.,0.,-0.));
#450=AXIS2_PLACEMENT_3D('',#447,#448,#449);
#451=TOROIDAL_SURFACE('',#450,5.23789906,3.5);
#452=CARTESIAN_POINT('',(344.350407489,82.425615305,11.477661028));
#453=DIRECTION('',(-0.,1.,-0.));
#454=DIRECTION('',(1.,0.,0.));
#455=AXIS2_PLACEMENT_3D('',#452,#453,#454);
#456=CIRCLE('',#455,3.5);
#457=EDGE_CURVE('',#297,#185,#456,.T.);
#458=ORIENTED_EDGE('',*,*,#457,.T.);
#459=ORIENTED_EDGE('',*,*,#191,.F.);
#460=CARTESIAN_POINT('',(339.112508429,82.425615305,11.477661028));
#461=DIRECTION('',(-0.,-0.,-1.));
#462=DIRECTION('',(1.,0.,-0.));
#463=AXIS2_PLACEMENT_3D('',#460,#461,#462);
#464=CIRCLE('',#463,8.73789906);
#465=EDGE_CURVE('',#226,#177,#464,.T.);
#466=ORIENTED_EDGE('',*,*,#465,.F.);
#467=ORIENTED_EDGE('',*,*,#441,.T.);
#468=ORIENTED_EDGE('',*,*,#312,.F.);
#469=EDGE_LOOP('',(#458,#459,#466,#467,#468));
#470=FACE_BOUND('',#469,.T.);
#471=ADVANCED_FACE('',(#470),#451,.T.);
#472=CARTESIAN_POINT('',(332.737103396,61.096805992,14.977661028));
#473=DIRECTION('',(0.,0.,-1.));
#474=DIRECTION('',(-1.,0.,0.));
#475=AXIS2_PLACEMENT_3D('',#472,#473,#474);
#476=CYLINDRICAL_SURFACE('',#475,1.4);
#477=CARTESIAN_POINT('',(331.337103396,61.096805992,11.477661028));
#478=VERTEX_POINT('',#477);
#479=CARTESIAN_POINT('',(331.337103396,61.096805992,8.977661028));
#480=DIRECTION('',(-0.,-0.,1.));
#481=VECTOR('',#480,2.5);
#482=LINE('',#479,#481);
#483=EDGE_CURVE('',#72,#478,#482,.T.);
#484=ORIENTED_EDGE('',*,*,#483,.T.);
#485=CARTESIAN_POINT('',(331.343083814,61.226070847,11.477661028));
#486=VERTEX_POINT('',#485);
#487=CARTESIAN_POINT('',(332.737103396,61.096805992,11.477661028));
#488=DIRECTION('',(-0.,-0.,1.));
#489=DIRECTION('',(-1.,0.,0.));
#490=AXIS2_PLACEMENT_3D('',#487,#488,#489);
#491=CIRCLE('',#490,1.4);
#492=EDGE_CURVE('',#486,#478,#491,.T.);
#493=ORIENTED_EDGE('',*,*,#492,.F.);
#494=CARTESIAN_POINT('',(331.343083476,61.226067211,8.977661028));
#495=DIRECTION('',(-0.,-0.,1.));
#496=VECTOR('',#495,2.5);
#497=LINE('',#494,#496);
#498=EDGE_CURVE('',#81,#486,#497,.T.);
#499=ORIENTED_EDGE('',*,*,#498,.F.);
#500=ORIENTED_EDGE('',*,*,#87,.F.);
#501=EDGE_LOOP('',(#484,#493,#499,#500));
#502=FACE_BOUND('',#501,.T.);
#503=ADVANCED_FACE('',(#502),#476,.T.);
#504=CARTESIAN_POINT('',(333.973389063,60.439844995,11.477661027));
#505=CARTESIAN_POINT('',(333.898232554,60.298413594,11.477661027));
#506=CARTESIAN_POINT('',(333.798588219,60.170036704,11.477661027));
#507=CARTESIAN_POINT('',(333.561856933,59.954250547,11.477661026));
#508=CARTESIAN_POINT('',(333.424824414,59.866890896,11.477661026));
#509=CARTESIAN_POINT('',(333.12928605,59.743349636,11.477661025));
#510=CARTESIAN_POINT('',(332.970848159,59.707196433,11.477661025));
#511=CARTESIAN_POINT('',(332.650972881,59.690309325,11.477661025));
#512=CARTESIAN_POINT('',(332.489609046,59.709579303,11.477661025));
#513=CARTESIAN_POINT('',(332.182705559,59.801315977,11.477661025));
#514=CARTESIAN_POINT('',(332.037236475,59.87376158,11.477661025));
#515=CARTESIAN_POINT('',(331.779100517,60.063422315,11.477661025));
#516=CARTESIAN_POINT('',(331.666492996,60.180593838,11.477661025));
#517=CARTESIAN_POINT('',(331.487232294,60.446057524,11.477661026));
#518=CARTESIAN_POINT('',(331.420620332,60.594288647,11.477661026));
#519=CARTESIAN_POINT('',(331.341142988,60.904592884,11.477661027));
#520=CARTESIAN_POINT('',(331.328295881,61.066594648,11.477661027));
#521=CARTESIAN_POINT('',(331.343083814,61.226070849,11.477661027));
#522=CARTESIAN_POINT('',(333.973389062,60.439844995,11.557804328));
#523=CARTESIAN_POINT('',(333.898232554,60.298413595,11.576084337));
#524=CARTESIAN_POINT('',(333.798588219,60.170036706,11.593724718));
#525=CARTESIAN_POINT('',(333.561856934,59.954250551,11.625684486));
#526=CARTESIAN_POINT('',(333.424824416,59.866890901,11.639996525));
#527=CARTESIAN_POINT('',(333.129286052,59.743349643,11.663628411));
#528=CARTESIAN_POINT('',(332.970848161,59.70719644,11.672942823));
#529=CARTESIAN_POINT('',(332.650972883,59.690309333,11.685490517));
#530=CARTESIAN_POINT('',(332.489609048,59.709579311,11.688720913));
#531=CARTESIAN_POINT('',(332.182705561,59.801315985,11.688720913));
#532=CARTESIAN_POINT('',(332.037236478,59.873761588,11.685490517));
#533=CARTESIAN_POINT('',(331.779100519,60.063422322,11.672942823));
#534=CARTESIAN_POINT('',(331.666492998,60.180593844,11.663628411));
#535=CARTESIAN_POINT('',(331.487232296,60.446057528,11.639996525));
#536=CARTESIAN_POINT('',(331.420620333,60.594288651,11.625684486));
#537=CARTESIAN_POINT('',(331.341142988,60.904592886,11.593724718));
#538=CARTESIAN_POINT('',(331.328295881,61.066594648,11.576084337));
#539=CARTESIAN_POINT('',(331.343083814,61.226070849,11.557804328));
#540=CARTESIAN_POINT('',(333.974744375,60.448237872,11.635668326));
#541=CARTESIAN_POINT('',(333.900194058,60.310766713,11.671454644));
#542=CARTESIAN_POINT('',(333.801324485,60.186262487,11.705981361));
#543=CARTESIAN_POINT('',(333.566321646,59.977506834,11.768527044));
#544=CARTESIAN_POINT('',(333.430241755,59.893302783,11.796531688));
#545=CARTESIAN_POINT('',(333.136580941,59.774925432,11.842769549));
#546=CARTESIAN_POINT('',(332.979066716,59.740778989,11.860992181));
#547=CARTESIAN_POINT('',(332.660792798,59.726496073,11.885539845));
#548=CARTESIAN_POINT('',(332.500105396,59.746362825,11.891859257));
#549=CARTESIAN_POINT('',(332.194117375,59.837825857,11.891859257));
#550=CARTESIAN_POINT('',(332.048886262,59.90940136,11.885539845));
#551=CARTESIAN_POINT('',(331.790659829,60.096006285,11.860992181));
#552=CARTESIAN_POINT('',(331.677723171,60.210993336,11.842769549));
#553=CARTESIAN_POINT('',(331.497198136,60.471109815,11.796531688));
#554=CARTESIAN_POINT('',(331.429650778,60.616180189,11.768527044));
#555=CARTESIAN_POINT('',(331.347760092,60.919658644,11.705981361));
#556=CARTESIAN_POINT('',(331.333435384,61.077997828,11.671454644));
#557=CARTESIAN_POINT('',(331.346556736,61.23383075,11.635668326));
#558=CARTESIAN_POINT('',(333.979757093,60.479327153,11.787514166));
#559=CARTESIAN_POINT('',(333.906834603,60.353763991,11.851779016));
#560=CARTESIAN_POINT('',(333.810170037,60.240868955,11.913632277));
#561=CARTESIAN_POINT('',(333.580253594,60.053136378,12.025526335));
#562=CARTESIAN_POINT('',(333.447051823,59.978339709,12.075542627));
#563=CARTESIAN_POINT('',(333.159176899,59.875312853,12.158062052));
#564=CARTESIAN_POINT('',(333.004566482,59.847105089,12.190547115));
#565=CARTESIAN_POINT('',(332.691429088,59.840477632,12.234297247));
#566=CARTESIAN_POINT('',(332.532970356,59.862059367,12.245552737));
#567=CARTESIAN_POINT('',(332.230136427,59.952579607,12.245552737));
#568=CARTESIAN_POINT('',(332.085827234,60.021498384,12.234297247));
#569=CARTESIAN_POINT('',(331.827693512,60.198884775,12.190547115));
#570=CARTESIAN_POINT('',(331.713925249,60.307313745,12.158062052));
#571=CARTESIAN_POINT('',(331.529812825,60.551422574,12.075542627));
#572=CARTESIAN_POINT('',(331.459508804,60.687049261,12.025526335));
#573=CARTESIAN_POINT('',(331.370332935,60.970161881,11.913632277));
#574=CARTESIAN_POINT('',(331.351480541,61.117586148,11.851779016));
#575=CARTESIAN_POINT('',(331.359427726,61.262571112,11.787514166));
#576=CARTESIAN_POINT('',(333.983276421,60.50117052,11.857850006));
#577=CARTESIAN_POINT('',(333.91127585,60.382983041,11.9325669));
#578=CARTESIAN_POINT('',(333.81592183,60.277262909,12.004367487));
#579=CARTESIAN_POINT('',(333.589106681,60.102500074,12.134140523));
#580=CARTESIAN_POINT('',(333.457693591,60.033494321,12.19208539));
#581=CARTESIAN_POINT('',(333.173464389,59.939897152,12.287639477));
#582=CARTESIAN_POINT('',(333.020708477,59.915325511,12.325228389));
#583=CARTESIAN_POINT('',(332.710894754,59.913362304,12.375844401));
#584=CARTESIAN_POINT('',(332.553902565,59.935971126,12.388860745));
#585=CARTESIAN_POINT('',(332.253199805,60.025854338,12.388860745));
#586=CARTESIAN_POINT('',(332.109552932,60.093109688,12.375844401));
#587=CARTESIAN_POINT('',(331.851637986,60.264772955,12.325228389));
#588=CARTESIAN_POINT('',(331.737424556,60.369144535,12.287639477));
#589=CARTESIAN_POINT('',(331.551184915,60.60336978,12.19208539));
#590=CARTESIAN_POINT('',(331.479198177,60.733173877,12.134140523));
#591=CARTESIAN_POINT('',(331.385497228,61.003742339,12.004367487));
#592=CARTESIAN_POINT('',(331.363802898,61.144449452,11.9325669));
#593=CARTESIAN_POINT('',(331.368473085,61.28276269,11.857850006));
#594=CARTESIAN_POINT('',(333.99164606,60.553227845,11.990716964));
#595=CARTESIAN_POINT('',(333.921133106,60.449125874,12.081059718));
#596=CARTESIAN_POINT('',(333.828116227,60.357053638,12.167595317));
#597=CARTESIAN_POINT('',(333.60709893,60.206881527,12.32371203));
#598=CARTESIAN_POINT('',(333.479142467,60.148811452,12.393261998));
#599=CARTESIAN_POINT('',(333.202123408,60.072953359,12.507838519));
#600=CARTESIAN_POINT('',(333.053115907,60.055180377,12.552842215));
#601=CARTESIAN_POINT('',(332.750163299,60.061856525,12.613423236));
#602=CARTESIAN_POINT('',(332.596278448,60.086304298,12.628988476));
#603=CARTESIAN_POINT('',(332.300276265,60.174782459,12.628988476));
#604=CARTESIAN_POINT('',(332.158217812,60.238795246,12.613423236));
#605=CARTESIAN_POINT('',(331.901297317,60.399471046,12.552842215));
#606=CARTESIAN_POINT('',(331.786486391,60.496102126,12.507838519));
#607=CARTESIAN_POINT('',(331.596539158,60.711541346,12.393261998));
#608=CARTESIAN_POINT('',(331.521440656,60.830306682,12.32371203));
#609=CARTESIAN_POINT('',(331.419091388,61.077136454,12.167595317));
#610=CARTESIAN_POINT('',(331.391861016,61.205151856,12.081059718));
#611=CARTESIAN_POINT('',(331.390044832,61.330873766,11.990716964));
#612=CARTESIAN_POINT('',(333.996520635,60.583594619,12.05326205));
#613=CARTESIAN_POINT('',(333.926591601,60.486287781,12.148848464));
#614=CARTESIAN_POINT('',(333.834621837,60.400772635,12.240241347));
#615=CARTESIAN_POINT('',(333.616343073,60.262375207,12.404951153));
#616=CARTESIAN_POINT('',(333.490075991,60.209519446,12.478236392));
#617=CARTESIAN_POINT('',(333.216661117,60.142085398,12.598898612));
#618=CARTESIAN_POINT('',(333.069565829,60.127520017,12.646252383));
#619=CARTESIAN_POINT('',(332.770180413,60.13823065,12.709985421));
#620=CARTESIAN_POINT('',(332.617947779,60.163504584,12.72635243));
#621=CARTESIAN_POINT('',(332.324528141,60.251210794,12.72635243));
#622=CARTESIAN_POINT('',(332.183397492,60.313626226,12.709985421));
#623=CARTESIAN_POINT('',(331.927244954,60.46897172,12.646252383));
#624=CARTESIAN_POINT('',(331.812272271,60.561871968,12.598898612));
#625=CARTESIAN_POINT('',(331.620714981,60.768291079,12.478236392));
#626=CARTESIAN_POINT('',(331.544167183,60.881770336,12.404951153));
#627=CARTESIAN_POINT('',(331.437645417,61.117254053,12.240241347));
#628=CARTESIAN_POINT('',(331.407691938,61.239213336,12.148848464));
#629=CARTESIAN_POINT('',(331.402634801,61.358934328,12.05326205));
#630=CARTESIAN_POINT('',(334.006876457,60.648262722,12.169220796));
#631=CARTESIAN_POINT('',(333.937769894,60.562974258,12.272321005));
#632=CARTESIAN_POINT('',(333.847536682,60.489008499,12.370563702));
#633=CARTESIAN_POINT('',(333.6340476,60.37127972,12.547276151));
#634=CARTESIAN_POINT('',(333.51082993,60.327537705,12.62571423));
#635=CARTESIAN_POINT('',(333.244052585,60.274765619,12.754724025));
#636=CARTESIAN_POINT('',(333.100540644,60.265744947,12.805272621));
#637=CARTESIAN_POINT('',(332.807950401,60.283352262,12.873282426));
#638=CARTESIAN_POINT('',(332.658924453,60.309977074,12.890731447));
#639=CARTESIAN_POINT('',(332.370655589,60.396143664,12.890731447));
#640=CARTESIAN_POINT('',(332.231464259,60.455670022,12.873282426));
#641=CARTESIAN_POINT('',(331.977207407,60.601521045,12.805272621));
#642=CARTESIAN_POINT('',(331.862187393,60.687819633,12.754724025));
#643=CARTESIAN_POINT('',(331.66813251,60.87833931,12.62571423));
#644=CARTESIAN_POINT('',(331.589132387,60.982526346,12.547276151));
#645=CARTESIAN_POINT('',(331.475271902,61.198103348,12.370563702));
#646=CARTESIAN_POINT('',(331.440431947,61.30945479,12.272321005));
#647=CARTESIAN_POINT('',(331.429466822,61.418677522,12.169220796));
#648=CARTESIAN_POINT('',(334.01240241,60.682841336,12.223286997));
#649=CARTESIAN_POINT('',(333.943551128,60.602894064,12.328722069));
#650=CARTESIAN_POINT('',(333.854029525,60.534035731,12.429017433));
#651=CARTESIAN_POINT('',(333.642642134,60.425409597,12.609245967));
#652=CARTESIAN_POINT('',(333.520812832,60.385660503,12.689148007));
#653=CARTESIAN_POINT('',(333.257125418,60.339279052,12.820495313));
#654=CARTESIAN_POINT('',(333.115312816,60.33265467,12.871917894));
#655=CARTESIAN_POINT('',(332.826000092,60.353200674,12.941091669));
#656=CARTESIAN_POINT('',(332.678549903,60.380367498,12.958830916));
#657=CARTESIAN_POINT('',(332.392878901,60.46575756,12.958830916));
#658=CARTESIAN_POINT('',(332.254707394,60.52396606,12.941091669));
#659=CARTESIAN_POINT('',(332.001577704,60.665561788,12.871917894));
#660=CARTESIAN_POINT('',(331.886663216,60.748924593,12.820495313));
#661=CARTESIAN_POINT('',(331.691684291,60.932406227,12.689148007));
#662=CARTESIAN_POINT('',(331.611653523,61.032493416,12.609245967));
#663=CARTESIAN_POINT('',(331.494554547,61.239307573,12.429017433));
#664=CARTESIAN_POINT('',(331.457506575,61.345998882,12.328722069));
#665=CARTESIAN_POINT('',(331.443823672,61.450616488,12.223286997));
#666=CARTESIAN_POINT('',(334.029691873,60.791307751,12.3772775));
#667=CARTESIAN_POINT('',(333.96131664,60.725734114,12.487547674));
#668=CARTESIAN_POINT('',(333.873611833,60.670563055,12.591937173));
#669=CARTESIAN_POINT('',(333.667888252,60.586246073,12.779007318));
#670=CARTESIAN_POINT('',(333.549901222,60.557112983,12.861659002));
#671=CARTESIAN_POINT('',(333.294899947,60.527646025,12.997320696));
#672=CARTESIAN_POINT('',(333.157925034,60.527316575,13.050309709));
#673=CARTESIAN_POINT('',(332.878055218,60.555482247,13.121555831));
#674=CARTESIAN_POINT('',(332.735203483,60.583972955,13.139801916));
#675=CARTESIAN_POINT('',(332.457254954,60.667054689,13.139801916));
#676=CARTESIAN_POINT('',(332.322201046,60.721632895,13.121555831));
#677=CARTESIAN_POINT('',(332.072783679,60.851676719,13.050309709));
#678=CARTESIAN_POINT('',(331.95845873,60.927122336,12.997320696));
#679=CARTESIAN_POINT('',(331.761458609,61.091697256,12.861659002));
#680=CARTESIAN_POINT('',(331.678813894,61.180801281,12.779007318));
#681=CARTESIAN_POINT('',(331.553109071,61.364185693,12.591937173));
#682=CARTESIAN_POINT('',(331.510068456,61.458437932,12.487547674));
#683=CARTESIAN_POINT('',(331.488895431,61.550778482,12.3772775));
#684=CARTESIAN_POINT('',(334.04218574,60.870055764,12.469239508));
#685=CARTESIAN_POINT('',(333.973758766,60.811921741,12.579921388));
#686=CARTESIAN_POINT('',(333.886858758,60.763752385,12.684367759));
#687=CARTESIAN_POINT('',(333.684089474,60.691747847,12.871201529));
#688=CARTESIAN_POINT('',(333.568249298,60.667922912,12.953562105));
#689=CARTESIAN_POINT('',(333.318287971,60.646801857,13.088611027));
#690=CARTESIAN_POINT('',(333.184202681,60.649508708,13.141279988));
#691=CARTESIAN_POINT('',(332.910125897,60.681201171,13.212072959));
#692=CARTESIAN_POINT('',(332.770173723,60.710182206,13.230186808));
#693=CARTESIAN_POINT('',(332.497283323,60.791752012,13.230186808));
#694=CARTESIAN_POINT('',(332.36438425,60.844329079,13.212072959));
#695=CARTESIAN_POINT('',(332.117874174,60.968245494,13.141279987));
#696=CARTESIAN_POINT('',(332.004298552,61.03956709,13.088611026));
#697=CARTESIAN_POINT('',(331.806931501,61.194399294,12.953562104));
#698=CARTESIAN_POINT('',(331.723168421,61.277887737,12.871201529));
#699=CARTESIAN_POINT('',(331.593176352,61.449358138,12.684367758));
#700=CARTESIAN_POINT('',(331.546966067,61.537315558,12.579921387));
#701=CARTESIAN_POINT('',(331.521667017,61.623465274,12.469239507));
#702=CARTESIAN_POINT('',(334.067546704,61.030817,12.636709519));
#703=CARTESIAN_POINT('',(333.998859675,60.984959586,12.746686486));
#704=CARTESIAN_POINT('',(333.913276995,60.948259554,12.849885602));
#705=CARTESIAN_POINT('',(333.715641864,60.896296893,13.033898997));
#706=CARTESIAN_POINT('',(333.603614003,60.88104064,13.114690369));
#707=CARTESIAN_POINT('',(333.362718331,60.873270444,13.246931335));
#708=CARTESIAN_POINT('',(333.233880479,60.880757405,13.298364471));
#709=CARTESIAN_POINT('',(332.970441627,60.917827298,13.367456677));
#710=CARTESIAN_POINT('',(332.835873388,60.947405588,13.38510715));
#711=CARTESIAN_POINT('',(332.572546319,61.026116814,13.38510715));
#712=CARTESIAN_POINT('',(332.443820242,61.075239959,13.367456677));
#713=CARTESIAN_POINT('',(332.203251996,61.188823078,13.298364471));
#714=CARTESIAN_POINT('',(332.091439762,61.253268955,13.246931336));
#715=CARTESIAN_POINT('',(331.894324456,61.391965231,13.11469037));
#716=CARTESIAN_POINT('',(331.809045933,61.466198433,13.033898997));
#717=CARTESIAN_POINT('',(331.672347074,61.618097034,12.849885603));
#718=CARTESIAN_POINT('',(331.620943794,61.695743608,12.746686487));
#719=CARTESIAN_POINT('',(331.588690091,61.771773266,12.63670952));
#720=CARTESIAN_POINT('',(334.080524787,61.113520786,12.712880467));
#721=CARTESIAN_POINT('',(334.011619553,61.072563164,12.82162514));
#722=CARTESIAN_POINT('',(333.926549124,61.040388667,12.92340255));
#723=CARTESIAN_POINT('',(333.73110981,60.996255416,13.104612878));
#724=CARTESIAN_POINT('',(333.620763619,60.984301742,13.184024762));
#725=CARTESIAN_POINT('',(333.383936794,60.981600995,13.313900742));
#726=CARTESIAN_POINT('',(333.257483653,60.990854204,13.364349765));
#727=CARTESIAN_POINT('',(332.998946358,61.029798847,13.432101895));
#728=CARTESIAN_POINT('',(332.866892213,61.059485745,13.44939714));
#729=CARTESIAN_POINT('',(332.608124037,61.13683427,13.44939714));
#730=CARTESIAN_POINT('',(332.481440043,61.184486918,13.432101894));
#731=CARTESIAN_POINT('',(332.24394047,61.293812903,13.364349764));
#732=CARTESIAN_POINT('',(332.133152466,61.355473563,13.31390074));
#733=CARTESIAN_POINT('',(331.936656507,61.48769904,13.18402476));
#734=CARTESIAN_POINT('',(331.850971379,61.558248534,13.104612875));
#735=CARTESIAN_POINT('',(331.71181145,61.702397012,12.923402547));
#736=CARTESIAN_POINT('',(331.658352834,61.775979295,12.821625137));
#737=CARTESIAN_POINT('',(331.623227772,61.848032665,12.712880464));
#738=CARTESIAN_POINT('',(334.11994524,61.366180016,12.926932105));
#739=CARTESIAN_POINT('',(334.050426114,61.337882914,13.031112588));
#740=CARTESIAN_POINT('',(333.966792674,61.317315752,13.127905574));
#741=CARTESIAN_POINT('',(333.777522543,61.293131357,13.299523697));
#742=CARTESIAN_POINT('',(333.671903533,61.289516192,13.374332841));
#743=CARTESIAN_POINT('',(333.446548947,61.299478951,13.496394823));
#744=CARTESIAN_POINT('',(333.32683438,61.313055814,13.543636297));
#745=CARTESIAN_POINT('',(333.082224818,61.356373334,13.607032427));
#746=CARTESIAN_POINT('',(332.957352612,61.386109887,13.623181184));
#747=CARTESIAN_POINT('',(332.711750095,61.459523058,13.623181185));
#748=CARTESIAN_POINT('',(332.591042676,61.503192833,13.607032428));
#749=CARTESIAN_POINT('',(332.362786366,61.601219885,13.543636299));
#750=CARTESIAN_POINT('',(332.255258781,61.655568087,13.496394827));
#751=CARTESIAN_POINT('',(332.061403587,61.770911532,13.374332846));
#752=CARTESIAN_POINT('',(331.975094125,61.831896132,13.299523702));
#753=CARTESIAN_POINT('',(331.8301437,61.95598256,13.127905581));
#754=CARTESIAN_POINT('',(331.771516381,62.019072956,13.031112595));
#755=CARTESIAN_POINT('',(331.728930185,62.080879515,12.926932112));
#756=CARTESIAN_POINT('',(334.146859982,61.540603334,13.050623713));
#757=CARTESIAN_POINT('',(334.076991382,61.518089677,13.150606035));
#758=CARTESIAN_POINT('',(333.994191016,61.502695231,13.243114721));
#759=CARTESIAN_POINT('',(333.808495947,61.487199973,13.406753036));
#760=CARTESIAN_POINT('',(333.705616464,61.487100367,13.477869299));
#761=CARTESIAN_POINT('',(333.486955449,61.502192158,13.593752943));
#762=CARTESIAN_POINT('',(333.371191818,61.517382277,13.638510862));
#763=CARTESIAN_POINT('',(333.134853807,61.561986756,13.698548433));
#764=CARTESIAN_POINT('',(333.014298765,61.591397445,13.713823184));
#765=CARTESIAN_POINT('',(332.776804683,61.662386919,13.713823184));
#766=CARTESIAN_POINT('',(332.659885076,61.703959896,13.698548433));
#767=CARTESIAN_POINT('',(332.437837198,61.796371772,13.638510862));
#768=CARTESIAN_POINT('',(332.332727107,61.847203128,13.593752943));
#769=CARTESIAN_POINT('',(332.14165273,61.954585547,13.477869299));
#770=CARTESIAN_POINT('',(332.055704109,62.011127856,13.406753036));
#771=CARTESIAN_POINT('',(331.908973803,62.125988548,13.243114721));
#772=CARTESIAN_POINT('',(331.848204178,62.184297572,13.150606035));
#773=CARTESIAN_POINT('',(331.802151949,62.241461182,13.050623713));
#774=CARTESIAN_POINT('',(334.201091959,61.896337853,13.277351908));
#775=CARTESIAN_POINT('',(334.130998739,61.883286468,13.368843368));
#776=CARTESIAN_POINT('',(334.050089135,61.876254027,13.452867824));
#777=CARTESIAN_POINT('',(333.871571155,61.874638071,13.600872949));
#778=CARTESIAN_POINT('',(333.773973942,61.880054588,13.664844413));
#779=CARTESIAN_POINT('',(333.56804818,61.902994044,13.768836336));
#780=CARTESIAN_POINT('',(333.459732484,61.920515505,13.808850331));
#781=CARTESIAN_POINT('',(333.238990046,61.966587451,13.862482549));
#782=CARTESIAN_POINT('',(333.126577073,61.995135039,13.87609744));
#783=CARTESIAN_POINT('',(332.904510755,62.061512993,13.87609744));
#784=CARTESIAN_POINT('',(332.794871263,62.099339219,13.862482549));
#785=CARTESIAN_POINT('',(332.585055354,62.181965683,13.808850331));
#786=CARTESIAN_POINT('',(332.484892037,62.226760787,13.768836336));
#787=CARTESIAN_POINT('',(332.300157135,62.320593905,13.664844413));
#788=CARTESIAN_POINT('',(332.215597105,62.3696261,13.600872949));
#789=CARTESIAN_POINT('',(332.067249773,62.46894553,13.452867824));
#790=CARTESIAN_POINT('',(332.003471782,62.519226612,13.368843368));
#791=CARTESIAN_POINT('',(331.952038998,62.568603396,13.277351908));
#792=CARTESIAN_POINT('',(334.228380278,62.077461258,13.37971625));
#793=CARTESIAN_POINT('',(334.158393319,62.067980891,13.466821549));
#794=CARTESIAN_POINT('',(334.078518993,62.06403198,13.546557876));
#795=CARTESIAN_POINT('',(333.903554634,62.067413743,13.686751993));
#796=CARTESIAN_POINT('',(333.808474196,62.074744206,13.747202126));
#797=CARTESIAN_POINT('',(333.608539854,62.100260211,13.845366954));
#798=CARTESIAN_POINT('',(333.503696904,62.118444339,13.883076288));
#799=CARTESIAN_POINT('',(333.290237197,62.164624495,13.933602203));
#800=CARTESIAN_POINT('',(333.181632129,62.192617987,13.946416025));
#801=CARTESIAN_POINT('',(332.966863152,62.256814689,13.946416025));
#802=CARTESIAN_POINT('',(332.860711004,62.293014384,13.933602203));
#803=CARTESIAN_POINT('',(332.656923794,62.371553712,13.883076288));
#804=CARTESIAN_POINT('',(332.559299894,62.413889052,13.845366953));
#805=CARTESIAN_POINT('',(332.378159609,62.502280253,13.747202125));
#806=CARTESIAN_POINT('',(332.294653156,62.548331287,13.686751992));
#807=CARTESIAN_POINT('',(332.146533824,62.641522631,13.546557874));
#808=CARTESIAN_POINT('',(332.081929081,62.688657852,13.466821548));
#809=CARTESIAN_POINT('',(332.028625394,62.734991088,13.379716249));
#810=CARTESIAN_POINT('',(334.309487693,62.622339324,13.662325131));
#811=CARTESIAN_POINT('',(334.240468727,62.621683023,13.736657387));
#812=CARTESIAN_POINT('',(334.164047063,62.625243602,13.804060196));
#813=CARTESIAN_POINT('',(333.999930591,62.640597497,13.921935668));
#814=CARTESIAN_POINT('',(333.912241511,62.652390163,13.972404342));
#815=CARTESIAN_POINT('',(333.729638401,62.683638129,14.05410748));
#816=CARTESIAN_POINT('',(333.6347307,62.703092271,14.085339187));
#817=CARTESIAN_POINT('',(333.442062851,62.748751479,14.127143411));
#818=CARTESIAN_POINT('',(333.344309358,62.774954929,14.137714521));
#819=CARTESIAN_POINT('',(333.150450874,62.832901266,14.137714521));
#820=CARTESIAN_POINT('',(333.054352579,62.86464215,14.127143412));
#821=CARTESIAN_POINT('',(332.86823245,62.932206645,14.085339188));
#822=CARTESIAN_POINT('',(332.778217067,62.968027954,14.054107481));
#823=CARTESIAN_POINT('',(332.608419391,63.042116282,13.972404344));
#824=CARTESIAN_POINT('',(332.528643024,63.080380796,13.92193567));
#825=CARTESIAN_POINT('',(332.383021943,63.157610709,13.804060198));
#826=CARTESIAN_POINT('',(332.317182374,63.196573505,13.73665739));
#827=CARTESIAN_POINT('',(332.259845349,63.234998938,13.662325134));
#828=CARTESIAN_POINT('',(334.362931426,62.99010453,13.820166733));
#829=CARTESIAN_POINT('',(334.295408039,62.992913341,13.88641345));
#830=CARTESIAN_POINT('',(334.221755984,62.999249246,13.946213498));
#831=CARTESIAN_POINT('',(334.06516686,63.018708343,14.050528898));
#832=CARTESIAN_POINT('',(333.982234014,63.031830989,14.09504148));
#833=CARTESIAN_POINT('',(333.810432419,63.064326193,14.166997345));
#834=CARTESIAN_POINT('',(333.721568292,63.083697863,14.194438718));
#835=CARTESIAN_POINT('',(333.541489404,63.127905263,14.231151963));
#836=CARTESIAN_POINT('',(333.450279481,63.152739798,14.240422859));
#837=CARTESIAN_POINT('',(333.269187814,63.206869998,14.240422858));
#838=CARTESIAN_POINT('',(333.179310935,63.23616421,14.231151961));
#839=CARTESIAN_POINT('',(333.004511427,63.298033689,14.194438715));
#840=CARTESIAN_POINT('',(332.919593499,63.3306073,14.166997341));
#841=CARTESIAN_POINT('',(332.758141003,63.397725243,14.095041474));
#842=CARTESIAN_POINT('',(332.681610787,63.432267781,14.050528892));
#843=CARTESIAN_POINT('',(332.540029391,63.501934982,13.94621349));
#844=CARTESIAN_POINT('',(332.474982042,63.537057786,13.886413442));
#845=CARTESIAN_POINT('',(332.41699365,63.571765763,13.820166724));
#846=CARTESIAN_POINT('',(334.468230121,63.732322471,14.100026309));
#847=CARTESIAN_POINT('',(334.40500168,63.740110466,14.151455385));
#848=CARTESIAN_POINT('',(334.337731804,63.750276892,14.197493555));
#849=CARTESIAN_POINT('',(334.197134133,63.775048309,14.277426277));
#850=CARTESIAN_POINT('',(334.123808401,63.789652912,14.311319703));
#851=CARTESIAN_POINT('',(333.973303609,63.822852944,14.36595937));
#852=CARTESIAN_POINT('',(333.896126744,63.841447872,14.386704843));
#853=CARTESIAN_POINT('',(333.74023608,63.882065283,14.414434684));
#854=CARTESIAN_POINT('',(333.661524548,63.904087167,14.421418664));
#855=CARTESIAN_POINT('',(333.504925584,63.950896241,14.421418665));
#856=CARTESIAN_POINT('',(333.427040428,63.975682751,14.414434686));
#857=CARTESIAN_POINT('',(333.274431487,64.027279111,14.386704846));
#858=CARTESIAN_POINT('',(333.199709926,64.054088217,14.365959374));
#859=CARTESIAN_POINT('',(333.055673937,64.108929517,14.311319709));
#860=CARTESIAN_POINT('',(332.986361618,64.136960924,14.277426283));
#861=CARTESIAN_POINT('',(332.855233125,64.19341131,14.197493563));
#862=CARTESIAN_POINT('',(332.793418887,64.221829481,14.151455394));
#863=CARTESIAN_POINT('',(332.736288389,64.250018036,14.100026318));
#864=CARTESIAN_POINT('',(334.520096676,64.106843013,14.221348774));
#865=CARTESIAN_POINT('',(334.459665626,64.116045562,14.266010551));
#866=CARTESIAN_POINT('',(334.396000077,64.127170905,14.305861534));
#867=CARTESIAN_POINT('',(334.263839963,64.152976379,14.374926985));
#868=CARTESIAN_POINT('',(334.195346838,64.167656223,14.404140714));
#869=CARTESIAN_POINT('',(334.055296231,64.2001896,14.451186483));
#870=CARTESIAN_POINT('',(333.983740272,64.218042775,14.469018021));
#871=CARTESIAN_POINT('',(333.83940608,64.256461525,14.492844593));
#872=CARTESIAN_POINT('',(333.766629416,64.27702668,14.498839373));
#873=CARTESIAN_POINT('',(333.621726777,64.3203396,14.498839373));
#874=CARTESIAN_POINT('',(333.549602377,64.343086894,14.492844593));
#875=CARTESIAN_POINT('',(333.4078608,64.390179195,14.469018021));
#876=CARTESIAN_POINT('',(333.338245166,64.414523692,14.451186483));
#877=CARTESIAN_POINT('',(333.203314323,64.464185157,14.404140713));
#878=CARTESIAN_POINT('',(333.138000586,64.489501589,14.374926984));
#879=CARTESIAN_POINT('',(333.013358085,64.540457113,14.305861534));
#880=CARTESIAN_POINT('',(332.954030684,64.566095654,14.266010551));
#881=CARTESIAN_POINT('',(332.898462405,64.591566522,14.221348774));
#882=CARTESIAN_POINT('',(334.622210313,64.86198031,14.435519235));
#883=CARTESIAN_POINT('',(334.568374091,64.872770906,14.467986907));
#884=CARTESIAN_POINT('',(334.512590802,64.88474534,14.49678152));
#885=CARTESIAN_POINT('',(334.398142206,64.910839808,14.546515433));
#886=CARTESIAN_POINT('',(334.339477494,64.9249597,14.567454489));
#887=CARTESIAN_POINT('',(334.220328719,64.955085893,14.601106969));
#888=CARTESIAN_POINT('',(334.159845273,64.971092033,14.613820229));
#889=CARTESIAN_POINT('',(334.038152868,65.004699205,14.630796419));
#890=CARTESIAN_POINT('',(333.976944537,65.022300062,14.635059268));
#891=CARTESIAN_POINT('',(333.85490863,65.058777876,14.635059268));
#892=CARTESIAN_POINT('',(333.794081683,65.077654645,14.630796419));
#893=CARTESIAN_POINT('',(333.673908304,65.116343695,14.613820229));
#894=CARTESIAN_POINT('',(333.614562495,65.136155777,14.60110697));
#895=CARTESIAN_POINT('',(333.498425814,65.176358878,14.567454489));
#896=CARTESIAN_POINT('',(333.441635546,65.196749691,14.546515433));
#897=CARTESIAN_POINT('',(333.331640595,65.237743755,14.496781521));
#898=CARTESIAN_POINT('',(333.278436489,65.258346798,14.467986908));
#899=CARTESIAN_POINT('',(333.227509731,65.278870956,14.435519235));
#900=CARTESIAN_POINT('',(334.672460438,65.242612167,14.528209659));
#901=CARTESIAN_POINT('',(334.622423249,65.253557189,14.555247336));
#902=CARTESIAN_POINT('',(334.570917779,65.265403615,14.579171172));
#903=CARTESIAN_POINT('',(334.465739926,65.290720724,14.620439472));
#904=CARTESIAN_POINT('',(334.412067925,65.304191314,14.637783791));
#905=CARTESIAN_POINT('',(334.303358842,65.332554437,14.665637884));
#906=CARTESIAN_POINT('',(334.248322154,65.347446866,14.676147561));
#907=CARTESIAN_POINT('',(334.137705348,65.378430706,14.690177768));
#908=CARTESIAN_POINT('',(334.082125629,65.394522003,14.693698249));
#909=CARTESIAN_POINT('',(333.971252293,65.427663207,14.693698249));
#910=CARTESIAN_POINT('',(333.915959076,65.444712994,14.690177768));
#911=CARTESIAN_POINT('',(333.806484125,65.479516892,14.676147561));
#912=CARTESIAN_POINT('',(333.752302787,65.497270877,14.665637884));
#913=CARTESIAN_POINT('',(333.645860837,65.533218657,14.637783791));
#914=CARTESIAN_POINT('',(333.593600612,65.551412322,14.620439473));
#915=CARTESIAN_POINT('',(333.491782251,65.587968554,14.579171172));
#916=CARTESIAN_POINT('',(333.442224485,65.60633099,14.555247336));
#917=CARTESIAN_POINT('',(333.394388826,65.62464119,14.52820966));
#918=CARTESIAN_POINT('',(334.771388558,66.009813851,14.688000203));
#919=CARTESIAN_POINT('',(334.729731346,66.020210655,14.705568346));
#920=CARTESIAN_POINT('',(334.687329105,66.03107564,14.721044603));
#921=CARTESIAN_POINT('',(334.601432712,66.053638089,14.747675077));
#922=CARTESIAN_POINT('',(334.557938674,66.065335524,14.758829263));
#923=CARTESIAN_POINT('',(334.470266155,66.089451963,14.776716018));
#924=CARTESIAN_POINT('',(334.426087789,66.101870934,14.783448566));
#925=CARTESIAN_POINT('',(334.337459782,66.127313503,14.792431996));
#926=CARTESIAN_POINT('',(334.293010255,66.140337067,14.794682867));
#927=CARTESIAN_POINT('',(334.204255344,66.166866842,14.794682867));
#928=CARTESIAN_POINT('',(334.159950075,66.180373018,14.792431996));
#929=CARTESIAN_POINT('',(334.071897896,66.207742011,14.783448566));
#930=CARTESIAN_POINT('',(334.028151101,66.221604794,14.776716017));
#931=CARTESIAN_POINT('',(333.941625439,66.249558021,14.758829263));
#932=CARTESIAN_POINT('',(333.898846685,66.263648429,14.747675077));
#933=CARTESIAN_POINT('',(333.814658606,66.291926014,14.721044603));
#934=CARTESIAN_POINT('',(333.773249392,66.306113153,14.705568346));
#935=CARTESIAN_POINT('',(333.732719926,66.32028281,14.688000202));
#936=CARTESIAN_POINT('',(334.820067561,66.396388048,14.755053394));
#937=CARTESIAN_POINT('',(334.782992356,66.406076391,14.768581619));
#938=CARTESIAN_POINT('',(334.745415905,66.4160825,14.780481195));
#939=CARTESIAN_POINT('',(334.669529773,66.43665812,14.800940183));
#940=CARTESIAN_POINT('',(334.631220152,66.447227615,14.809499579));
#941=CARTESIAN_POINT('',(334.554142051,66.468854008,14.823218581));
#942=CARTESIAN_POINT('',(334.515373632,66.479910888,14.828378178));
#943=CARTESIAN_POINT('',(334.437655433,66.502432726,14.835261647));
#944=CARTESIAN_POINT('',(334.398705715,66.513897667,14.836985514));
#945=CARTESIAN_POINT('',(334.320903647,66.537153522,14.836985514));
#946=CARTESIAN_POINT('',(334.28205136,66.548944417,14.835261647));
#947=CARTESIAN_POINT('',(334.204722222,66.572767855,14.828378178));
#948=CARTESIAN_POINT('',(334.166245434,66.584800379,14.823218581));
#949=CARTESIAN_POINT('',(334.089942804,66.609021097,14.809499579));
#950=CARTESIAN_POINT('',(334.052117024,66.621209273,14.800940183));
#951=CARTESIAN_POINT('',(333.977387485,66.645654258,14.780481195));
#952=CARTESIAN_POINT('',(333.940483787,66.657911048,14.768581619));
#953=CARTESIAN_POINT('',(333.904173496,66.6701584,14.755053394));
#954=CARTESIAN_POINT('',(334.915942404,67.175564598,14.863930729));
#955=CARTESIAN_POINT('',(334.888631987,67.183238127,14.870867021));
#956=CARTESIAN_POINT('',(334.861149664,67.191023611,14.876949395));
#957=CARTESIAN_POINT('',(334.805935042,67.206791323,14.887388818));
#958=CARTESIAN_POINT('',(334.778202749,67.214773549,14.891745866));
#959=CARTESIAN_POINT('',(334.722582529,67.23090717,14.898722144));
#960=CARTESIAN_POINT('',(334.694694609,67.239058564,14.901341372));
#961=CARTESIAN_POINT('',(334.638857787,67.255502603,14.90483451));
#962=CARTESIAN_POINT('',(334.61090889,67.263795248,14.90570842));
#963=CARTESIAN_POINT('',(334.555044881,67.280493586,14.90570842));
#964=CARTESIAN_POINT('',(334.527129776,67.288899279,14.90483451));
#965=CARTESIAN_POINT('',(334.47142805,67.305795282,14.901341372));
#966=CARTESIAN_POINT('',(334.443641435,67.314285592,14.898722144));
#967=CARTESIAN_POINT('',(334.388291136,67.331322224,14.891745866));
#968=CARTESIAN_POINT('',(334.360727456,67.339868545,14.887388818));
#969=CARTESIAN_POINT('',(334.305917026,67.356988476,14.876949395));
#970=CARTESIAN_POINT('',(334.278670282,67.365562084,14.870867021));
#971=CARTESIAN_POINT('',(334.251628684,67.374134943,14.863930729));
#972=CARTESIAN_POINT('',(334.963137127,67.568167363,14.905745635));
#973=CARTESIAN_POINT('',(334.941010337,67.574531718,14.910129655));
#974=CARTESIAN_POINT('',(334.918796794,67.580952888,14.913971419));
#975=CARTESIAN_POINT('',(334.874243611,67.593895106,14.920562781));
#976=CARTESIAN_POINT('',(334.851903973,67.600416153,14.923312379));
#977=CARTESIAN_POINT('',(334.807146249,67.613544179,14.927713931));
#978=CARTESIAN_POINT('',(334.784728165,67.620151158,14.929365885));
#979=CARTESIAN_POINT('',(334.739861348,67.633436937,14.931568857));
#980=CARTESIAN_POINT('',(334.717412617,67.640115738,14.932119875));
#981=CARTESIAN_POINT('',(334.672532364,67.653530917,14.932119878));
#982=CARTESIAN_POINT('',(334.650100844,67.660267294,14.931568863));
#983=CARTESIAN_POINT('',(334.605302835,67.673783272,14.929365898));
#984=CARTESIAN_POINT('',(334.582936349,67.680562872,14.927713947));
#985=CARTESIAN_POINT('',(334.538316111,67.694150857,14.923312402));
#986=CARTESIAN_POINT('',(334.516062361,67.700959241,14.920562807));
#987=CARTESIAN_POINT('',(334.47171508,67.714590305,14.913971451));
#988=CARTESIAN_POINT('',(334.449621552,67.721412983,14.91012969));
#989=CARTESIAN_POINT('',(334.427631725,67.728235548,14.905745673));
#990=CARTESIAN_POINT('',(335.056162178,68.359683446,14.962626264));
#991=CARTESIAN_POINT('',(335.044833026,68.363066361,14.963540984));
#992=CARTESIAN_POINT('',(335.033503268,68.366449968,14.964340585));
#993=CARTESIAN_POINT('',(335.010842961,68.373218341,14.965710583));
#994=CARTESIAN_POINT('',(334.999512413,68.376603107,14.966280981));
#995=CARTESIAN_POINT('',(334.976850892,68.383373615,14.967193319));
#996=CARTESIAN_POINT('',(334.965519918,68.386759358,14.967535259));
#997=CARTESIAN_POINT('',(334.942857875,68.39353168,14.967991128));
#998=CARTESIAN_POINT('',(334.931526805,68.396918259,14.968105057));
#999=CARTESIAN_POINT('',(334.908864883,68.403692146,14.968105054));
#1000=CARTESIAN_POINT('',(334.89753403,68.407079453,14.967991122));
#1001=CARTESIAN_POINT('',(334.874872866,68.413854714,14.967535246));
#1002=CARTESIAN_POINT('',(334.863542553,68.417242668,14.967193303));
#1003=CARTESIAN_POINT('',(334.840882821,68.424019158,14.966280959));
#1004=CARTESIAN_POINT('',(334.8295534,68.427407696,14.965710558));
#1005=CARTESIAN_POINT('',(334.806895855,68.434185305,14.964340553));
#1006=CARTESIAN_POINT('',(334.795567731,68.437574376,14.963540949));
#1007=CARTESIAN_POINT('',(334.784240493,68.440963694,14.962626226));
#1008=CARTESIAN_POINT('',(335.101948105,68.758641018,14.977661028));
#1009=CARTESIAN_POINT('',(335.101948105,68.758641018,14.977661028));
#1010=CARTESIAN_POINT('',(335.084818176,68.763761333,14.977661028));
#1011=CARTESIAN_POINT('',(335.084818176,68.763761333,14.977661028));
#1012=CARTESIAN_POINT('',(335.067688248,68.768881649,14.977661028));
#1013=CARTESIAN_POINT('',(335.067688248,68.768881649,14.977661028));
#1014=CARTESIAN_POINT('',(335.050558319,68.774001964,14.977661028));
#1015=CARTESIAN_POINT('',(335.050558319,68.774001964,14.977661028));
#1016=CARTESIAN_POINT('',(335.03342839,68.77912228,14.977661028));
#1017=CARTESIAN_POINT('',(335.03342839,68.77912228,14.977661028));
#1018=CARTESIAN_POINT('',(335.016298461,68.784242595,14.977661028));
#1019=CARTESIAN_POINT('',(335.016298461,68.784242595,14.977661028));
#1020=CARTESIAN_POINT('',(334.999168533,68.789362911,14.977661028));
#1021=CARTESIAN_POINT('',(334.999168533,68.789362911,14.977661028));
#1022=CARTESIAN_POINT('',(334.982038604,68.794483227,14.977661028));
#1023=CARTESIAN_POINT('',(334.982038604,68.794483227,14.977661028));
#1024=CARTESIAN_POINT('',(334.964908675,68.799603542,14.977661028));
#1025=CARTESIAN_POINT('',(334.964908675,68.799603542,14.977661028));
#1026=CARTESIAN_POINT('',(335.147006684,69.159096533,14.977661028));
#1027=CARTESIAN_POINT('',(335.147006684,69.159096533,14.977661028));
#1028=CARTESIAN_POINT('',(335.147006684,69.159096533,14.977661028));
#1029=CARTESIAN_POINT('',(335.147006684,69.159096533,14.977661028));
#1030=CARTESIAN_POINT('',(335.147006684,69.159096533,14.977661028));
#1031=CARTESIAN_POINT('',(335.147006684,69.159096533,14.977661028));
#1032=CARTESIAN_POINT('',(335.147006684,69.159096533,14.977661028));
#1033=CARTESIAN_POINT('',(335.147006684,69.159096533,14.977661028));
#1034=CARTESIAN_POINT('',(335.147006684,69.159096533,14.977661028));
#1035=CARTESIAN_POINT('',(335.147006684,69.159096533,14.977661028));
#1036=CARTESIAN_POINT('',(335.147006684,69.159096533,14.977661028));
#1037=CARTESIAN_POINT('',(335.147006684,69.159096533,14.977661028));
#1038=CARTESIAN_POINT('',(335.147006684,69.159096533,14.977661028));
#1039=CARTESIAN_POINT('',(335.147006684,69.159096533,14.977661028));
#1040=CARTESIAN_POINT('',(335.147006684,69.159096533,14.977661028));
#1041=CARTESIAN_POINT('',(335.147006684,69.159096533,14.977661028));
#1042=CARTESIAN_POINT('',(335.147006684,69.159096533,14.977661028));
#1043=CARTESIAN_POINT('',(335.147006684,69.159096533,14.977661028));
#1044=B_SPLINE_SURFACE_WITH_KNOTS('',3,3,((#504,#505,#506,#507,#508,#509,#510,#511,#512,#513,#514,#515,#516,#517,#518,#519,#520,#521),(#522,#523,#524,#525,#526,#527,#528,#529,#530,#531,#532,#533,#534,#535,#536,#537,#538,#539),(#540,#541,#542,#543,#544,#545,#546,#547,#548,#549,#550,#551,#552,#553,#554,#555,#556,#557),(#558,#559,#560,#561,#562,#563,#564,#565,#566,#567,#568,#569,#570,#571,#572,#573,#574,#575),(#576,#577,#578,#579,#580,#581,#582,#583,#584,#585,#586,#587,#588,#589,#590,#591,#592,#593),(#594,#595,#596,#597,#598,#599,#600,#601,#602,#603,#604,#605,#606,#607,#608,#609,#610,#611),(#612,#613,#614,#615,#616,#617,#618,#619,#620,#621,#622,#623,#624,#625,#626,#627,#628,#629),(#630,#631,#632,#633,#634,#635,#636,#637,#638,#639,#640,#641,#642,#643,#644,#645,#646,#647),(#648,#649,#650,#651,#652,#653,#654,#655,#656,#657,#658,#659,#660,#661,#662,#663,#664,#665),(#666,#667,#668,#669,#670,#671,#672,#673,#674,#675,#676,#677,#678,#679,#680,#681,#682,#683),(#684,#685,#686,#687,#688,#689,#690,#691,#692,#693,#694,#695,#696,#697,#698,#699,#700,#701),(#702,#703,#704,#705,#706,#707,#708,#709,#710,#711,#712,#713,#714,#715,#716,#717,#718,#719),(#720,#721,#722,#723,#724,#725,#726,#727,#728,#729,#730,#731,#732,#733,#734,#735,#736,#737),(#738,#739,#740,#741,#742,#743,#744,#745,#746,#747,#748,#749,#750,#751,#752,#753,#754,#755),(#756,#757,#758,#759,#760,#761,#762,#763,#764,#765,#766,#767,#768,#769,#770,#771,#772,#773),(#774,#775,#776,#777,#778,#779,#780,#781,#782,#783,#784,#785,#786,#787,#788,#789,#790,#791),(#792,#793,#794,#795,#796,#797,#798,#799,#800,#801,#802,#803,#804,#805,#806,#807,#808,#809),(#810,#811,#812,#813,#814,#815,#816,#817,#818,#819,#820,#821,#822,#823,#824,#825,#826,#827),(#828,#829,#830,#831,#832,#833,#834,#835,#836,#837,#838,#839,#840,#841,#842,#843,#844,#845),(#846,#847,#848,#849,#850,#851,#852,#853,#854,#855,#856,#857,#858,#859,#860,#861,#862,#863),(#864,#865,#866,#867,#868,#869,#870,#871,#872,#873,#874,#875,#876,#877,#878,#879,#880,#881),(#882,#883,#884,#885,#886,#887,#888,#889,#890,#891,#892,#893,#894,#895,#896,#897,#898,#899),(#900,#901,#902,#903,#904,#905,#906,#907,#908,#909,#910,#911,#912,#913,#914,#915,#916,#917),(#918,#919,#920,#921,#922,#923,#924,#925,#926,#927,#928,#929,#930,#931,#932,#933,#934,#935),(#936,#937,#938,#939,#940,#941,#942,#943,#944,#945,#946,#947,#948,#949,#950,#951,#952,#953),(#954,#955,#956,#957,#958,#959,#960,#961,#962,#963,#964,#965,#966,#967,#968,#969,#970,#971),
(#972,#973,#974,#975,#976,#977,#978,#979,#980,#981,#982,#983,#984,#985,#986,#987,#988,#989),(#990,#991,#992,#993,#994,#995,#996,#997,#998,#999,#1000,#1001,#1002,#1003,#1004,#1005,#1006,#1007),(#1008,#1009,#1010,#1011,#1012,#1013,#1014,#1015,#1016,#1017,#1018,#1019,#1020,#1021,#1022,#1023,#1024,#1025),(#1026,#1027,#1028,#1029,#1030,#1031,#1032,#1033,#1034,#1035,#1036,#1037,#1038,#1039,#1040,#1041,#1042,#1043)),.UNSPECIFIED.,.F.,.F.,.U.,(4,2,2,2,2,2,2,2,2,2,2,2,2,2,4),(4,2,2,2,2,2,2,2,4),(0.008929685,0.009071867,0.00921405,0.009356232,0.009498415,0.00978278,0.010067146,0.010635876,0.011204607,0.012342069,0.01347953,0.014616991,0.015754453,0.016891914,0.018029376),(0.,0.125,0.25,0.375,0.5,0.625,0.75,0.875,1.),.UNSPECIFIED.);
#1045=ORIENTED_EDGE('',*,*,#492,.T.);
#1046=CARTESIAN_POINT('',(332.737103396,61.096805992,11.477661028));
#1047=DIRECTION('',(-0.,-0.,1.));
#1048=DIRECTION('',(-1.,0.,0.));
#1049=AXIS2_PLACEMENT_3D('',#1046,#1047,#1048);
#1050=CIRCLE('',#1049,1.4);
#1051=EDGE_CURVE('',#478,#250,#1050,.T.);
#1052=ORIENTED_EDGE('',*,*,#1051,.T.);
#1053=ORIENTED_EDGE('',*,*,#368,.F.);
#1054=ORIENTED_EDGE('',*,*,#433,.F.);
#1055=CARTESIAN_POINT('',(331.343083814,61.226070849,11.477661027));
#1056=CARTESIAN_POINT('',(331.343083814,61.226070849,11.637948133));
#1057=CARTESIAN_POINT('',(331.35768723,61.258700982,11.791422832));
#1058=CARTESIAN_POINT('',(331.37925919,61.306812539,11.924289305));
#1059=CARTESIAN_POINT('',(331.39004517,61.330868318,11.990722542));
#1060=CARTESIAN_POINT('',(331.402640454,61.358905451,12.05331126));
#1061=CARTESIAN_POINT('',(331.416056988,61.388778232,12.111288383));
#1062=CARTESIAN_POINT('',(331.429473522,61.418651013,12.169265505));
#1063=CARTESIAN_POINT('',(331.443831453,61.450587719,12.223334189));
#1064=CARTESIAN_POINT('',(331.45885578,61.483975975,12.274662599));
#1065=CARTESIAN_POINT('',(331.488904433,61.550752488,12.377319419));
#1066=CARTESIAN_POINT('',(331.521667161,61.623465593,12.469239897));
#1067=CARTESIAN_POINT('',(331.5551787,61.697619592,12.552974877));
#1068=CARTESIAN_POINT('',(331.588690238,61.771773591,12.636709857));
#1069=CARTESIAN_POINT('',(331.62322792,61.848032991,12.712880781));
#1070=CARTESIAN_POINT('',(331.658462058,61.925648607,12.784231313));
#1071=CARTESIAN_POINT('',(331.728930333,62.080879841,12.926932377));
#1072=CARTESIAN_POINT('',(331.802185783,62.241430966,13.050695154));
#1073=CARTESIAN_POINT('',(331.8771299,62.40500348,13.16405421));
#1074=CARTESIAN_POINT('',(331.952074016,62.568575993,13.277413265));
#1075=CARTESIAN_POINT('',(332.028625535,62.734991395,13.379716432));
#1076=CARTESIAN_POINT('',(332.105698851,62.901660671,13.47391938));
#1077=CARTESIAN_POINT('',(332.259845482,63.234999223,13.662325275));
#1078=CARTESIAN_POINT('',(332.416993776,63.571766033,13.820166846));
#1079=CARTESIAN_POINT('',(332.576641139,63.910892153,13.960096626));
#1080=CARTESIAN_POINT('',(332.736288502,64.250018274,14.100026406));
#1081=CARTESIAN_POINT('',(332.898462511,64.591566745,14.221348849));
#1082=CARTESIAN_POINT('',(333.062986167,64.935218945,14.328434069));
#1083=CARTESIAN_POINT('',(333.392033479,65.622523347,14.542604508));
#1084=CARTESIAN_POINT('',(333.73052242,66.318140231,14.700648186));
#1085=CARTESIAN_POINT('',(334.077977815,67.022117789,14.809516859));
#1086=CARTESIAN_POINT('',(334.251705512,67.374106568,14.863951195));
#1087=CARTESIAN_POINT('',(334.42763176,67.728235619,14.90574568));
#1088=CARTESIAN_POINT('',(334.605936136,68.084599674,14.934185954));
#1089=CARTESIAN_POINT('',(334.784240511,68.44096373,14.962626228));
#1090=CARTESIAN_POINT('',(334.964908684,68.79960356,14.977661028));
#1091=CARTESIAN_POINT('',(335.147006684,69.159096533,14.977661028));
#1092=B_SPLINE_CURVE_WITH_KNOTS('',3,(#1055,#1056,#1057,#1058,#1059,#1060,#1061,#1062,#1063,#1064,#1065,#1066,#1067,#1068,#1069,#1070,#1071,#1072,#1073,#1074,#1075,#1076,#1077,#1078,#1079,#1080,
#1081,#1082,#1083,#1084,#1085,#1086,#1087,#1088,#1089,#1090,#1091),.UNSPECIFIED.,.F.,.F.,(4,3,3,3,3,3,3,3,3,3,3,3,4),(0.008929685,0.00921405,0.009356233,0.009498415,0.009782781,0.010067146,0.010635877,0.011204607,0.012342069,0.01347953,0.015754453,0.016891914,0.018029376),.UNSPECIFIED.);
#1093=EDGE_CURVE('',#486,#387,#1092,.T.);
#1094=ORIENTED_EDGE('',*,*,#1093,.F.);
#1095=EDGE_LOOP('',(#1045,#1052,#1053,#1054,#1094));
#1096=FACE_BOUND('',#1095,.T.);
#1097=ADVANCED_FACE('',(#1096),#1044,.T.);
#1098=CARTESIAN_POINT('',(339.112508429,82.425615305,6.277661028));
#1099=DIRECTION('',(0.,0.,1.));
#1100=DIRECTION('',(1.,0.,-0.));
#1101=AXIS2_PLACEMENT_3D('',#1098,#1099,#1100);
#1102=CYLINDRICAL_SURFACE('',#1101,1.75);
#1103=CARTESIAN_POINT('',(340.862508429,82.425615305,13.677661028));
#1104=VERTEX_POINT('',#1103);
#1105=CARTESIAN_POINT('',(340.862508429,82.425615305,13.677661028));
#1106=DIRECTION('',(-0.,-0.,-1.));
#1107=VECTOR('',#1106,4.7);
#1108=LINE('',#1105,#1107);
#1109=EDGE_CURVE('',#1104,#128,#1108,.T.);
#1110=ORIENTED_EDGE('',*,*,#1109,.F.);
#1111=CARTESIAN_POINT('',(339.112508429,82.425615305,13.677661028));
#1112=DIRECTION('',(-0.,0.,1.));
#1113=DIRECTION('',(1.,0.,0.));
#1114=AXIS2_PLACEMENT_3D('',#1111,#1112,#1113);
#1115=CIRCLE('',#1114,1.75);
#1116=EDGE_CURVE('',#1104,#1104,#1115,.T.);
#1117=ORIENTED_EDGE('',*,*,#1116,.T.);
#1118=ORIENTED_EDGE('',*,*,#1109,.T.);
#1119=ORIENTED_EDGE('',*,*,#134,.F.);
#1120=CARTESIAN_POINT('',(338.611325811,80.748917365,9.777661028));
#1121=VERTEX_POINT('',#1120);
#1122=CARTESIAN_POINT('',(339.112508429,82.425615305,9.777661028));
#1123=DIRECTION('',(-0.677488276,0.202508359,-0.707106781));
#1124=DIRECTION('',(-0.677488276,0.202508359,0.707106781));
#1125=AXIS2_PLACEMENT_3D('',#1122,#1123,#1124);
#1126=ELLIPSE('',#1125,2.474873734,1.75);
#1127=EDGE_CURVE('',#126,#1121,#1126,.T.);
#1128=ORIENTED_EDGE('',*,*,#1127,.T.);
#1129=CARTESIAN_POINT('',(339.112508429,82.425615305,9.777661028));
#1130=DIRECTION('',(0.677488276,-0.202508359,-0.707106781));
#1131=DIRECTION('',(0.677488276,-0.202508359,0.707106781));
#1132=AXIS2_PLACEMENT_3D('',#1129,#1130,#1131);
#1133=ELLIPSE('',#1132,2.474873734,1.75);
#1134=EDGE_CURVE('',#1121,#137,#1133,.T.);
#1135=ORIENTED_EDGE('',*,*,#1134,.T.);
#1136=ORIENTED_EDGE('',*,*,#143,.F.);
#1137=EDGE_LOOP('',(#1110,#1117,#1118,#1119,#1128,#1135,#1136));
#1138=FACE_BOUND('',#1137,.T.);
#1139=ADVANCED_FACE('',(#1138),#1102,.F.);
#1140=CARTESIAN_POINT('',(339.112508429,82.425615305,14.977661028));
#1141=DIRECTION('',(-0.,0.,1.));
#1142=DIRECTION('',(1.,0.,0.));
#1143=AXIS2_PLACEMENT_3D('',#1140,#1141,#1142);
#1144=CONICAL_SURFACE('',#1143,3.05,45.);
#1145=CARTESIAN_POINT('',(342.162508429,82.425615305,14.977661028));
#1146=DIRECTION('',(-0.707106781,-0.,-0.707106781));
#1147=VECTOR('',#1146,1.838477631);
#1148=LINE('',#1145,#1147);
#1149=EDGE_CURVE('',#275,#1104,#1148,.T.);
#1150=ORIENTED_EDGE('',*,*,#1149,.F.);
#1151=ORIENTED_EDGE('',*,*,#281,.F.);
#1152=ORIENTED_EDGE('',*,*,#1149,.T.);
#1153=ORIENTED_EDGE('',*,*,#1116,.F.);
#1154=EDGE_LOOP('',(#1150,#1151,#1152,#1153));
#1155=FACE_BOUND('',#1154,.T.);
#1156=ADVANCED_FACE('',(#1155),#1144,.F.);
#1157=CARTESIAN_POINT('',(339.112508429,82.425615305,9.777661028));
#1158=DIRECTION('',(0.,0.,-1.));
#1159=DIRECTION('',(-1.,0.,0.));
#1160=AXIS2_PLACEMENT_3D('',#1157,#1158,#1159);
#1161=CYLINDRICAL_SURFACE('',#1160,5.);
#1162=ORIENTED_EDGE('',*,*,#160,.F.);
#1163=CARTESIAN_POINT('',(337.680558092,77.635049761,9.777661028));
#1164=VERTEX_POINT('',#1163);
#1165=CARTESIAN_POINT('',(339.112508429,82.425615305,9.777661028));
#1166=DIRECTION('',(-0.677488276,0.202508359,0.707106781));
#1167=DIRECTION('',(-0.677488276,0.202508359,-0.707106781));
#1168=AXIS2_PLACEMENT_3D('',#1165,#1166,#1167);
#1169=ELLIPSE('',#1168,7.071067812,5.);
#1170=EDGE_CURVE('',#146,#1164,#1169,.T.);
#1171=ORIENTED_EDGE('',*,*,#1170,.T.);
#1172=CARTESIAN_POINT('',(339.112508429,82.425615305,9.777661028));
#1173=DIRECTION('',(0.677488276,-0.202508359,0.707106781));
#1174=DIRECTION('',(0.677488276,-0.202508359,-0.707106781));
#1175=AXIS2_PLACEMENT_3D('',#1172,#1173,#1174);
#1176=ELLIPSE('',#1175,7.071067812,5.);
#1177=EDGE_CURVE('',#1164,#154,#1176,.T.);
#1178=ORIENTED_EDGE('',*,*,#1177,.T.);
#1179=EDGE_LOOP('',(#1162,#1171,#1178));
#1180=FACE_BOUND('',#1179,.T.);
#1181=ADVANCED_FACE('',(#1180),#1161,.F.);
#1182=CARTESIAN_POINT('',(334.367836219,66.552394968,9.777661028));
#1183=DIRECTION('',(-0.677488276,0.202508359,-0.707106781));
#1184=DIRECTION('',(0.286390067,0.958113109,-0.));
#1185=AXIS2_PLACEMENT_3D('',#1182,#1183,#1184);
#1186=PLANE('',#1185);
#1187=CARTESIAN_POINT('',(338.611325811,80.748917365,9.777661028));
#1188=DIRECTION('',(-0.286390067,-0.958113109,0.));
#1189=VECTOR('',#1188,3.25);
#1190=LINE('',#1187,#1189);
#1191=EDGE_CURVE('',#1121,#1164,#1190,.T.);
#1192=ORIENTED_EDGE('',*,*,#1191,.F.);
#1193=ORIENTED_EDGE('',*,*,#1127,.F.);
#1194=ORIENTED_EDGE('',*,*,#166,.T.);
#1195=ORIENTED_EDGE('',*,*,#1177,.F.);
#1196=EDGE_LOOP('',(#1192,#1193,#1194,#1195));
#1197=FACE_BOUND('',#1196,.T.);
#1198=ADVANCED_FACE('',(#1197),#1186,.T.);
#1199=CARTESIAN_POINT('',(337.078059045,78.412792395,8.977661028));
#1200=DIRECTION('',(-0.677488276,0.202508359,0.707106781));
#1201=DIRECTION('',(-0.286390067,-0.958113109,0.));
#1202=AXIS2_PLACEMENT_3D('',#1199,#1200,#1201);
#1203=PLANE('',#1202);
#1204=ORIENTED_EDGE('',*,*,#1134,.F.);
#1205=ORIENTED_EDGE('',*,*,#1191,.T.);
#1206=ORIENTED_EDGE('',*,*,#1170,.F.);
#1207=ORIENTED_EDGE('',*,*,#151,.F.);
#1208=EDGE_LOOP('',(#1204,#1205,#1206,#1207));
#1209=FACE_BOUND('',#1208,.T.);
#1210=ADVANCED_FACE('',(#1209),#1203,.F.);
#1211=CARTESIAN_POINT('',(339.112508429,82.425615305,14.977661028));
#1212=DIRECTION('',(0.,0.,-1.));
#1213=DIRECTION('',(-1.,0.,0.));
#1214=AXIS2_PLACEMENT_3D('',#1211,#1212,#1213);
#1215=CYLINDRICAL_SURFACE('',#1214,8.73789906);
#1216=ORIENTED_EDGE('',*,*,#182,.F.);
#1217=ORIENTED_EDGE('',*,*,#114,.T.);
#1218=ORIENTED_EDGE('',*,*,#238,.F.);
#1219=ORIENTED_EDGE('',*,*,#465,.T.);
#1220=EDGE_LOOP('',(#1216,#1217,#1218,#1219));
#1221=FACE_BOUND('',#1220,.T.);
#1222=ADVANCED_FACE('',(#1221),#1215,.T.);
#1223=CARTESIAN_POINT('',(258.417528909,67.988322524,14.977661028));
#1224=DIRECTION('',(0.,0.,1.));
#1225=DIRECTION('',(1.,0.,-0.));
#1226=AXIS2_PLACEMENT_3D('',#1223,#1224,#1225);
#1227=CYLINDRICAL_SURFACE('',#1226,73.238409362);
#1228=ORIENTED_EDGE('',*,*,#223,.T.);
#1229=ORIENTED_EDGE('',*,*,#96,.F.);
#1230=ORIENTED_EDGE('',*,*,#498,.T.);
#1231=CARTESIAN_POINT('',(258.417528909,67.988322524,11.477661028));
#1232=DIRECTION('',(0.,0.,1.));
#1233=DIRECTION('',(1.,0.,-0.));
#1234=AXIS2_PLACEMENT_3D('',#1231,#1232,#1233);
#1235=CIRCLE('',#1234,73.238409362);
#1236=EDGE_CURVE('',#486,#218,#1235,.T.);
#1237=ORIENTED_EDGE('',*,*,#1236,.T.);
#1238=EDGE_LOOP('',(#1228,#1229,#1230,#1237));
#1239=FACE_BOUND('',#1238,.T.);
#1240=ADVANCED_FACE('',(#1239),#1227,.F.);
#1241=CARTESIAN_POINT('',(258.417528909,67.988322524,11.477661028));
#1242=DIRECTION('',(0.,0.,1.));
#1243=DIRECTION('',(1.,0.,-0.));
#1244=AXIS2_PLACEMENT_3D('',#1241,#1242,#1243);
#1245=TOROIDAL_SURFACE('',#1244,76.738409362,3.5);
#1246=ORIENTED_EDGE('',*,*,#393,.F.);
#1247=ORIENTED_EDGE('',*,*,#1236,.F.);
#1248=ORIENTED_EDGE('',*,*,#1093,.T.);
#1249=EDGE_LOOP('',(#1246,#1247,#1248));
#1250=FACE_BOUND('',#1249,.T.);
#1251=ADVANCED_FACE('',(#1250),#1245,.T.);
#1252=CARTESIAN_POINT('',(339.112508429,82.425615305,11.477661028));
#1253=DIRECTION('',(0.,0.,1.));
#1254=DIRECTION('',(1.,0.,-0.));
#1255=AXIS2_PLACEMENT_3D('',#1252,#1253,#1254);
#1256=TOROIDAL_SURFACE('',#1255,5.23789906,3.5);
#1257=ORIENTED_EDGE('',*,*,#457,.F.);
#1258=ORIENTED_EDGE('',*,*,#303,.F.);
#1259=ORIENTED_EDGE('',*,*,#376,.T.);
#1260=ORIENTED_EDGE('',*,*,#200,.F.);
#1261=EDGE_LOOP('',(#1257,#1258,#1259,#1260));
#1262=FACE_BOUND('',#1261,.T.);
#1263=ADVANCED_FACE('',(#1262),#1256,.T.);
#1264=CARTESIAN_POINT('',(332.737103396,61.096805992,14.977661028));
#1265=DIRECTION('',(0.,0.,-1.));
#1266=DIRECTION('',(-1.,0.,0.));
#1267=AXIS2_PLACEMENT_3D('',#1264,#1265,#1266);
#1268=CYLINDRICAL_SURFACE('',#1267,1.4);
#1269=ORIENTED_EDGE('',*,*,#483,.F.);
#1270=ORIENTED_EDGE('',*,*,#78,.F.);
#1271=ORIENTED_EDGE('',*,*,#262,.F.);
#1272=ORIENTED_EDGE('',*,*,#1051,.F.);
#1273=EDGE_LOOP('',(#1269,#1270,#1271,#1272));
#1274=FACE_BOUND('',#1273,.T.);
#1275=ADVANCED_FACE('',(#1274),#1268,.T.);
#1276=CLOSED_SHELL('',(#170,#211,#243,#268,#323,#380,#446,#471,#503,#1097,#1139,#1156,#1181,#1198,#1210,#1222,#1240,#1251,#1263,#1275));
#1277=MANIFOLD_SOLID_BREP('Schieber',#1276);
#1278=COLOUR_RGB('',0.494117647,0.494117647,0.525490224);
#1279=FILL_AREA_STYLE_COLOUR('',#1278);
#1280=FILL_AREA_STYLE('',(#1279));
#1281=SURFACE_STYLE_FILL_AREA(#1280);
#1282=SURFACE_SIDE_STYLE('',(#1281));
#1283=SURFACE_STYLE_USAGE(.BOTH.,#1282);
#1284=PRESENTATION_STYLE_ASSIGNMENT((#1283));
#54=STYLED_ITEM('',(#1284),#1277);
#35=SHAPE_REPRESENTATION('Schieber',(#15),#33);
#36=ADVANCED_BREP_SHAPE_REPRESENTATION('Schieber',(#1277),#33);
#1292=SHAPE_REPRESENTATION_RELATIONSHIP('','',#35,#36);
#1293=CARTESIAN_POINT('',(0.,0.,0.));
#1294=DIRECTION('',(0.,0.,1.));
#1295=DIRECTION('',(1.,0.,0.));
#1296=AXIS2_PLACEMENT_3D('',#1293,#1294,#1295);
#1298=MAPPED_ITEM('',#1297,#1296);
#1297=REPRESENTATION_MAP(#1296,#35);
#1299=APPLICATION_CONTEXT('Managed model based 3d engineering');
#1300=APPLICATION_PROTOCOL_DEFINITION('international standard','ap242_managed_model_based_3d_engineering',2014,#1299);
#1301=PRODUCT_CONTEXT('',#1299,'mechanical');
#1302=PRODUCT_DEFINITION_CONTEXT('part definition',#1299,'design');
#43=PRODUCT('Schieber','Schieber','',(#1301));
#1303=PRODUCT_RELATED_PRODUCT_CATEGORY('part','',(#43));
#1304=PRODUCT_DEFINITION_FORMATION_WITH_SPECIFIED_SOURCE('','',#43,.NOT_KNOWN.);
#44=PRODUCT_DEFINITION('design','',#1304,#1302);
#42=PRODUCT_DEFINITION_SHAPE('','',#44);
#1305=SHAPE_DEFINITION_REPRESENTATION(#42,#35);
#34=DRAUGHTING_MODEL('',(#1298),#33);
#16=SHAPE_REPRESENTATION('root',(#15,#48),#10);
#1306=CARTESIAN_POINT('',(0.,0.,0.));
#1307=DIRECTION('',(0.,0.,1.));
#1308=DIRECTION('',(1.,0.,0.));
#1309=AXIS2_PLACEMENT_3D('',#1306,#1307,#1308);
#1311=MAPPED_ITEM('',#1310,#1309);
#1310=REPRESENTATION_MAP(#1309,#16);
#24=PRODUCT('root','root','',(#1301));
#1312=PRODUCT_RELATED_PRODUCT_CATEGORY('part','',(#24));
#1313=PRODUCT_DEFINITION_FORMATION_WITH_SPECIFIED_SOURCE('','',#24,.NOT_KNOWN.);
#25=PRODUCT_DEFINITION('design','',#1313,#1302);
#23=PRODUCT_DEFINITION_SHAPE('','',#25);
#1314=SHAPE_DEFINITION_REPRESENTATION(#23,#16);
#11=DRAUGHTING_MODEL('',(#1311),#10);
#1315=DESCRIPTIVE_REPRESENTATION_ITEM('KEY','C:\\Users\\Ruben\\AppData\\Local\\Packages\\Shapr3D.Shapr3D_dvv5p1vgwv6mp\\TempState\\7ee0899e-c227-4d61-9b98-a4208f04008c.tmp');
#1316=PROPERTY_DEFINITION('KEY','',#25);
#1317=REPRESENTATION('',(#1315),#10);
#1318=PROPERTY_DEFINITION_REPRESENTATION(#1316,#1317);
#1319=GENERAL_PROPERTY('','KEY','');
#1320=GENERAL_PROPERTY_ASSOCIATION('','',#1319,#1316);
#1=MECHANICAL_DESIGN_GEOMETRIC_PRESENTATION_REPRESENTATION('',(#54),#10);
ENDSEC;
END-ISO-10303-21;
