G04*
G04 #@! TF.GenerationSoftware,Altium Limited,Altium Designer,25.8.1 (18)*
G04*
G04 Layer_Color=2752767*
%FSLAX44Y44*%
%MOMM*%
G71*
G04*
G04 #@! TF.SameCoordinates,B962B673-1AC8-49EC-9CCC-188C0FAC6781*
G04*
G04*
G04 #@! TF.FilePolarity,Positive*
G04*
G01*
G75*
%ADD13C,0.1270*%
%ADD68C,0.1693*%
%ADD69C,0.1016*%
D13*
X687070Y758190D02*
X681990Y768350D01*
X692150D01*
X687070Y758190D01*
X647070D02*
X641990Y768350D01*
X652150D01*
X647070Y758190D01*
X667070D02*
X661990Y768350D01*
X672150D01*
X667070Y758190D01*
X1106170Y480060D02*
X1108710Y482600D01*
X1111250D01*
X1108710Y485140D01*
X1111250Y487680D01*
X1108710D01*
X1106170Y490220D01*
X1103630Y487680D01*
X1101090D01*
X1103630Y485140D01*
X1101090Y482600D01*
X1103630D01*
X1106170Y480060D01*
X1093740Y222430D02*
Y219890D01*
X1098820D01*
Y222430D01*
X1101360D01*
Y227510D01*
X1098820D01*
Y230050D01*
X1093740D01*
Y227510D01*
X1091200D01*
Y222430D01*
X1093740D01*
X915940D02*
Y219890D01*
X921020D01*
Y222430D01*
X923560D01*
Y227510D01*
X921020D01*
Y230050D01*
X915940D01*
Y227510D01*
X913400D01*
Y222430D01*
X915940D01*
X917210Y71520D02*
Y68980D01*
X922290D01*
Y71520D01*
X924830D01*
Y76600D01*
X922290D01*
Y79140D01*
X917210D01*
Y76600D01*
X914670D01*
Y71520D01*
X917210D01*
X915940Y373780D02*
Y371240D01*
X921020D01*
Y373780D01*
X923560D01*
Y378860D01*
X921020D01*
Y381400D01*
X915940D01*
Y378860D01*
X913400D01*
Y373780D01*
X915940D01*
X122980Y711200D02*
X125520Y716280D01*
X122980Y721360D01*
X128060Y718820D01*
X133140Y721360D01*
X130600Y716280D01*
X133140Y711200D01*
X128060Y713740D01*
X122980Y711200D01*
X734330Y222430D02*
Y219890D01*
X739410D01*
Y222430D01*
X741950D01*
Y227510D01*
X739410D01*
Y230050D01*
X734330D01*
Y227510D01*
X731790D01*
Y222430D01*
X734330D01*
X122980Y457200D02*
X125520Y462280D01*
X122980Y467360D01*
X128060Y464820D01*
X133140Y467360D01*
X130600Y462280D01*
X133140Y457200D01*
X128060Y459740D01*
X122980Y457200D01*
X547370Y314960D02*
X552450Y320040D01*
X557530Y314960D01*
X552450Y309880D01*
X547370Y314960D01*
X1106170Y500060D02*
X1108710Y502600D01*
X1111250D01*
X1108710Y505140D01*
X1111250Y507680D01*
X1108710D01*
X1106170Y510220D01*
X1103630Y507680D01*
X1101090D01*
X1103630Y505140D01*
X1101090Y502600D01*
X1103630D01*
X1106170Y500060D01*
X951250Y716760D02*
Y726920D01*
X961410D01*
Y716760D01*
X951250D01*
X864850D02*
Y726920D01*
X875010D01*
Y716760D01*
X864850D01*
X951250Y754760D02*
Y764920D01*
X961410D01*
Y754760D01*
X951250D01*
X864850D02*
Y764920D01*
X875010D01*
Y754760D01*
X864850D01*
X792210Y71520D02*
Y68980D01*
X797290D01*
Y71520D01*
X799830D01*
Y76600D01*
X797290D01*
Y79140D01*
X792210D01*
Y76600D01*
X789670D01*
Y71520D01*
X792210D01*
X917210Y121520D02*
Y118980D01*
X922290D01*
Y121520D01*
X924830D01*
Y126600D01*
X922290D01*
Y129140D01*
X917210D01*
Y126600D01*
X914670D01*
Y121520D01*
X917210D01*
X792210D02*
Y118980D01*
X797290D01*
Y121520D01*
X799830D01*
Y126600D01*
X797290D01*
Y129140D01*
X792210D01*
Y126600D01*
X789670D01*
Y121520D01*
X792210D01*
X790940Y373780D02*
Y371240D01*
X796020D01*
Y373780D01*
X798560D01*
Y378860D01*
X796020D01*
Y381400D01*
X790940D01*
Y378860D01*
X788400D01*
Y373780D01*
X790940D01*
X915940Y423780D02*
Y421240D01*
X921020D01*
Y423780D01*
X923560D01*
Y428860D01*
X921020D01*
Y431400D01*
X915940D01*
Y428860D01*
X913400D01*
Y423780D01*
X915940D01*
X790940D02*
Y421240D01*
X796020D01*
Y423780D01*
X798560D01*
Y428860D01*
X796020D01*
Y431400D01*
X790940D01*
Y428860D01*
X788400D01*
Y423780D01*
X790940D01*
X968740Y222430D02*
Y219890D01*
X973820D01*
Y222430D01*
X976360D01*
Y227510D01*
X973820D01*
Y230050D01*
X968740D01*
Y227510D01*
X966200D01*
Y222430D01*
X968740D01*
X1093740Y272430D02*
Y269890D01*
X1098820D01*
Y272430D01*
X1101360D01*
Y277510D01*
X1098820D01*
Y280050D01*
X1093740D01*
Y277510D01*
X1091200D01*
Y272430D01*
X1093740D01*
X968740D02*
Y269890D01*
X973820D01*
Y272430D01*
X976360D01*
Y277510D01*
X973820D01*
Y280050D01*
X968740D01*
Y277510D01*
X966200D01*
Y272430D01*
X968740D01*
X790940Y222430D02*
Y219890D01*
X796020D01*
Y222430D01*
X798560D01*
Y227510D01*
X796020D01*
Y230050D01*
X790940D01*
Y227510D01*
X788400D01*
Y222430D01*
X790940D01*
X915940Y272430D02*
Y269890D01*
X921020D01*
Y272430D01*
X923560D01*
Y277510D01*
X921020D01*
Y280050D01*
X915940D01*
Y277510D01*
X913400D01*
Y272430D01*
X915940D01*
X790940D02*
Y269890D01*
X796020D01*
Y272430D01*
X798560D01*
Y277510D01*
X796020D01*
Y280050D01*
X790940D01*
Y277510D01*
X788400D01*
Y272430D01*
X790940D01*
X609330Y222430D02*
Y219890D01*
X614410D01*
Y222430D01*
X616950D01*
Y227510D01*
X614410D01*
Y230050D01*
X609330D01*
Y227510D01*
X606790D01*
Y222430D01*
X609330D01*
X734330Y272430D02*
Y269890D01*
X739410D01*
Y272430D01*
X741950D01*
Y277510D01*
X739410D01*
Y280050D01*
X734330D01*
Y277510D01*
X731790D01*
Y272430D01*
X734330D01*
X609330D02*
Y269890D01*
X614410D01*
Y272430D01*
X616950D01*
Y277510D01*
X614410D01*
Y280050D01*
X609330D01*
Y277510D01*
X606790D01*
Y272430D01*
X609330D01*
X547370Y289560D02*
X552450Y294640D01*
X557530Y289560D01*
X552450Y284480D01*
X547370Y289560D01*
Y264160D02*
X552450Y269240D01*
X557530Y264160D01*
X552450Y259080D01*
X547370Y264160D01*
Y238760D02*
X552450Y243840D01*
X557530Y238760D01*
X552450Y233680D01*
X547370Y238760D01*
Y213360D02*
X552450Y218440D01*
X557530Y213360D01*
X552450Y208280D01*
X547370Y213360D01*
Y187960D02*
X552450Y193040D01*
X557530Y187960D01*
X552450Y182880D01*
X547370Y187960D01*
Y161290D02*
X552450Y166370D01*
X557530Y161290D01*
X552450Y156210D01*
X547370Y161290D01*
Y137160D02*
X552450Y142240D01*
X557530Y137160D01*
X552450Y132080D01*
X547370Y137160D01*
X148380Y711200D02*
X150920Y716280D01*
X148380Y721360D01*
X153460Y718820D01*
X158540Y721360D01*
X156000Y716280D01*
X158540Y711200D01*
X153460Y713740D01*
X148380Y711200D01*
X224580D02*
X227120Y716280D01*
X224580Y721360D01*
X229660Y718820D01*
X234740Y721360D01*
X232200Y716280D01*
X234740Y711200D01*
X229660Y713740D01*
X224580Y711200D01*
X199180D02*
X201720Y716280D01*
X199180Y721360D01*
X204260Y718820D01*
X209340Y721360D01*
X206800Y716280D01*
X209340Y711200D01*
X204260Y713740D01*
X199180Y711200D01*
X249980D02*
X252520Y716280D01*
X249980Y721360D01*
X255060Y718820D01*
X260140Y721360D01*
X257600Y716280D01*
X260140Y711200D01*
X255060Y713740D01*
X249980Y711200D01*
X97580Y457200D02*
X100120Y462280D01*
X97580Y467360D01*
X102660Y464820D01*
X107740Y467360D01*
X105200Y462280D01*
X107740Y457200D01*
X102660Y459740D01*
X97580Y457200D01*
X148380D02*
X150920Y462280D01*
X148380Y467360D01*
X153460Y464820D01*
X158540Y467360D01*
X156000Y462280D01*
X158540Y457200D01*
X153460Y459740D01*
X148380Y457200D01*
X173780D02*
X176320Y462280D01*
X173780Y467360D01*
X178860Y464820D01*
X183940Y467360D01*
X181400Y462280D01*
X183940Y457200D01*
X178860Y459740D01*
X173780Y457200D01*
X199180D02*
X201720Y462280D01*
X199180Y467360D01*
X204260Y464820D01*
X209340Y467360D01*
X206800Y462280D01*
X209340Y457200D01*
X204260Y459740D01*
X199180Y457200D01*
X224580D02*
X227120Y462280D01*
X224580Y467360D01*
X229660Y464820D01*
X234740Y467360D01*
X232200Y462280D01*
X234740Y457200D01*
X229660Y459740D01*
X224580Y457200D01*
X249980D02*
X252520Y462280D01*
X249980Y467360D01*
X255060Y464820D01*
X260140Y467360D01*
X257600Y462280D01*
X260140Y457200D01*
X255060Y459740D01*
X249980Y457200D01*
X275380D02*
X277920Y462280D01*
X275380Y467360D01*
X280460Y464820D01*
X285540Y467360D01*
X283000Y462280D01*
X285540Y457200D01*
X280460Y459740D01*
X275380Y457200D01*
X300780D02*
X303320Y462280D01*
X300780Y467360D01*
X305860Y464820D01*
X310940Y467360D01*
X308400Y462280D01*
X310940Y457200D01*
X305860Y459740D01*
X300780Y457200D01*
X326180D02*
X328720Y462280D01*
X326180Y467360D01*
X331260Y464820D01*
X336340Y467360D01*
X333800Y462280D01*
X336340Y457200D01*
X331260Y459740D01*
X326180Y457200D01*
X351580D02*
X354120Y462280D01*
X351580Y467360D01*
X356660Y464820D01*
X361740Y467360D01*
X359200Y462280D01*
X361740Y457200D01*
X356660Y459740D01*
X351580Y457200D01*
X376980D02*
X379520Y462280D01*
X376980Y467360D01*
X382060Y464820D01*
X387140Y467360D01*
X384600Y462280D01*
X387140Y457200D01*
X382060Y459740D01*
X376980Y457200D01*
X402380D02*
X404920Y462280D01*
X402380Y467360D01*
X407460Y464820D01*
X412540Y467360D01*
X410000Y462280D01*
X412540Y457200D01*
X407460Y459740D01*
X402380Y457200D01*
X427780D02*
X430320Y462280D01*
X427780Y467360D01*
X432860Y464820D01*
X437940Y467360D01*
X435400Y462280D01*
X437940Y457200D01*
X432860Y459740D01*
X427780Y457200D01*
X453180D02*
X455720Y462280D01*
X453180Y467360D01*
X458260Y464820D01*
X463340Y467360D01*
X460800Y462280D01*
X463340Y457200D01*
X458260Y459740D01*
X453180Y457200D01*
X97580Y711200D02*
X100120Y716280D01*
X97580Y721360D01*
X102660Y718820D01*
X107740Y721360D01*
X105200Y716280D01*
X107740Y711200D01*
X102660Y713740D01*
X97580Y711200D01*
X173780D02*
X176320Y716280D01*
X173780Y721360D01*
X178860Y718820D01*
X183940Y721360D01*
X181400Y716280D01*
X183940Y711200D01*
X178860Y713740D01*
X173780Y711200D01*
X275380D02*
X277920Y716280D01*
X275380Y721360D01*
X280460Y718820D01*
X285540Y721360D01*
X283000Y716280D01*
X285540Y711200D01*
X280460Y713740D01*
X275380Y711200D01*
X300780D02*
X303320Y716280D01*
X300780Y721360D01*
X305860Y718820D01*
X310940Y721360D01*
X308400Y716280D01*
X310940Y711200D01*
X305860Y713740D01*
X300780Y711200D01*
X326180D02*
X328720Y716280D01*
X326180Y721360D01*
X331260Y718820D01*
X336340Y721360D01*
X333800Y716280D01*
X336340Y711200D01*
X331260Y713740D01*
X326180Y711200D01*
X351580D02*
X354120Y716280D01*
X351580Y721360D01*
X356660Y718820D01*
X361740Y721360D01*
X359200Y716280D01*
X361740Y711200D01*
X356660Y713740D01*
X351580Y711200D01*
X376980D02*
X379520Y716280D01*
X376980Y721360D01*
X382060Y718820D01*
X387140Y721360D01*
X384600Y716280D01*
X387140Y711200D01*
X382060Y713740D01*
X376980Y711200D01*
X402380D02*
X404920Y716280D01*
X402380Y721360D01*
X407460Y718820D01*
X412540Y721360D01*
X410000Y716280D01*
X412540Y711200D01*
X407460Y713740D01*
X402380Y711200D01*
X427780D02*
X430320Y716280D01*
X427780Y721360D01*
X432860Y718820D01*
X437940Y721360D01*
X435400Y716280D01*
X437940Y711200D01*
X432860Y713740D01*
X427780Y711200D01*
X453180D02*
X455720Y716280D01*
X453180Y721360D01*
X458260Y718820D01*
X463340Y721360D01*
X460800Y716280D01*
X463340Y711200D01*
X458260Y713740D01*
X453180Y711200D01*
X487480Y461400D02*
X490020D01*
X492560Y463940D01*
X495100Y461400D01*
X497640D01*
Y463940D01*
X495100Y466480D01*
X497640Y469020D01*
Y471560D01*
X495100D01*
X492560Y469020D01*
X490020Y471560D01*
X487480D01*
Y469020D01*
X490020Y466480D01*
X487480Y463940D01*
Y461400D01*
Y706500D02*
X490020D01*
X492560Y709040D01*
X495100Y706500D01*
X497640D01*
Y709040D01*
X495100Y711580D01*
X497640Y714120D01*
Y716660D01*
X495100D01*
X492560Y714120D01*
X490020Y716660D01*
X487480D01*
Y714120D01*
X490020Y711580D01*
X487480Y709040D01*
Y706500D01*
X17980D02*
X20520D01*
X23060Y709040D01*
X25600Y706500D01*
X28140D01*
Y709040D01*
X25600Y711580D01*
X28140Y714120D01*
Y716660D01*
X25600D01*
X23060Y714120D01*
X20520Y716660D01*
X17980D01*
Y714120D01*
X20520Y711580D01*
X17980Y709040D01*
Y706500D01*
Y461400D02*
X20520D01*
X23060Y463940D01*
X25600Y461400D01*
X28140D01*
Y463940D01*
X25600Y466480D01*
X28140Y469020D01*
Y471560D01*
X25600D01*
X23060Y469020D01*
X20520Y471560D01*
X17980D01*
Y469020D01*
X20520Y466480D01*
X17980Y463940D01*
Y461400D01*
X920750Y572770D02*
X915670Y582930D01*
X925830D01*
X920750Y572770D01*
Y574802D02*
X917702Y580898D01*
X923798D01*
X920750Y574802D01*
X972820Y585470D02*
X967740Y595630D01*
X977900D01*
X972820Y585470D01*
Y587502D02*
X969772Y593598D01*
X975868D01*
X972820Y587502D01*
X877952Y572962D02*
X872872Y583121D01*
X883032D01*
X877952Y572962D01*
Y574994D02*
X874904Y581090D01*
X881000D01*
X877952Y574994D01*
X890270Y633730D02*
X885190Y643890D01*
X895350D01*
X890270Y633730D01*
Y635762D02*
X887222Y641858D01*
X893318D01*
X890270Y635762D01*
X1090930Y751840D02*
Y762000D01*
X1101090D01*
Y751840D01*
X1090930D01*
X1092962Y753872D02*
Y759968D01*
X1099058D01*
Y753872D01*
X1092962D01*
X1090930Y24130D02*
Y34290D01*
X1101090D01*
Y24130D01*
X1090930D01*
X1092962Y26162D02*
Y32258D01*
X1099058D01*
Y26162D01*
X1092962D01*
X24826Y752379D02*
Y762539D01*
X34986D01*
Y752379D01*
X24826D01*
X26858Y754411D02*
Y760507D01*
X32954D01*
Y754411D01*
X26858D01*
X25400Y25400D02*
Y35560D01*
X35560D01*
Y25400D01*
X25400D01*
X27432Y27432D02*
Y33528D01*
X33528D01*
Y27432D01*
X27432D01*
D68*
X713650Y763270D02*
G03*
X713650Y763270I-5080J0D01*
G01*
X630650D02*
G03*
X630650Y763270I-5080J0D01*
G01*
X939800Y759460D02*
G03*
X939800Y759460I-5080J0D01*
G01*
X897890Y760730D02*
G03*
X897890Y760730I-5080J0D01*
G01*
X919480Y773430D02*
G03*
X919480Y773430I-5080J0D01*
G01*
X897890Y444500D02*
G03*
X897890Y444500I-5080J0D01*
G01*
X885957Y469971D02*
G03*
X885957Y469971I-5080J0D01*
G01*
X1062690Y579203D02*
G03*
X1062690Y579203I-5080J0D01*
G01*
X1111044Y577469D02*
G03*
X1111044Y577469I-5080J0D01*
G01*
X500039Y343223D02*
G03*
X500039Y343223I-5080J0D01*
G01*
X467360Y353060D02*
G03*
X467360Y353060I-5080J0D01*
G01*
X943610Y577850D02*
G03*
X943610Y577850I-5080J0D01*
G01*
X800100Y728980D02*
G03*
X800100Y728980I-5080J0D01*
G01*
X817880Y772160D02*
G03*
X817880Y772160I-5080J0D01*
G01*
X674370Y601980D02*
G03*
X674370Y601980I-5080J0D01*
G01*
X624840Y656590D02*
G03*
X624840Y656590I-5080J0D01*
G01*
X836930Y504190D02*
G03*
X836930Y504190I-5080J0D01*
G01*
X801370Y534670D02*
G03*
X801370Y534670I-5080J0D01*
G01*
X777240Y502920D02*
G03*
X777240Y502920I-5080J0D01*
G01*
X821690Y445770D02*
G03*
X821690Y445770I-5080J0D01*
G01*
X715010Y359410D02*
G03*
X715010Y359410I-5080J0D01*
G01*
X649613Y397468D02*
G03*
X649613Y397468I-5080J0D01*
G01*
X468630Y383540D02*
G03*
X468630Y383540I-5080J0D01*
G01*
X400050Y398780D02*
G03*
X400050Y398780I-5080J0D01*
G01*
X270510Y419100D02*
G03*
X270510Y419100I-5080J0D01*
G01*
X262890Y440690D02*
G03*
X262890Y440690I-5080J0D01*
G01*
X524097Y153260D02*
G03*
X524097Y153260I-5080J0D01*
G01*
X1048669Y739372D02*
G03*
X1048669Y739372I-5080J0D01*
G01*
X824635Y696234D02*
G03*
X824635Y696234I-5080J0D01*
G01*
X879820Y508002D02*
G03*
X879820Y508002I-5080J0D01*
G01*
X711776Y216043D02*
G03*
X711776Y216043I-5080J0D01*
G01*
X659859Y152796D02*
G03*
X659859Y152796I-5080J0D01*
G01*
X1063421Y19452D02*
G03*
X1063421Y19452I-5080J0D01*
G01*
X873760Y363220D02*
G03*
X873760Y363220I-5080J0D01*
G01*
X861060Y447040D02*
G03*
X861060Y447040I-5080J0D01*
G01*
X824230Y355600D02*
G03*
X824230Y355600I-5080J0D01*
G01*
X673100Y292100D02*
G03*
X673100Y292100I-5080J0D01*
G01*
X1037590Y208280D02*
G03*
X1037590Y208280I-5080J0D01*
G01*
X871220Y97790D02*
G03*
X871220Y97790I-5080J0D01*
G01*
X591820Y245110D02*
G03*
X591820Y245110I-5080J0D01*
G01*
X595630Y201930D02*
G03*
X595630Y201930I-5080J0D01*
G01*
X589280Y274320D02*
G03*
X589280Y274320I-5080J0D01*
G01*
X911860Y320040D02*
G03*
X911860Y320040I-5080J0D01*
G01*
X881380D02*
G03*
X881380Y320040I-5080J0D01*
G01*
X850900D02*
G03*
X850900Y320040I-5080J0D01*
G01*
X942340Y313690D02*
G03*
X942340Y313690I-5080J0D01*
G01*
X974090D02*
G03*
X974090Y313690I-5080J0D01*
G01*
X518160Y425450D02*
G03*
X518160Y425450I-5080J0D01*
G01*
X532130Y516890D02*
G03*
X532130Y516890I-5080J0D01*
G01*
Y621030D02*
G03*
X532130Y621030I-5080J0D01*
G01*
X824230Y637540D02*
G03*
X824230Y637540I-5080J0D01*
G01*
X825500Y669290D02*
G03*
X825500Y669290I-5080J0D01*
G01*
X798830Y638810D02*
G03*
X798830Y638810I-5080J0D01*
G01*
X925830D02*
G03*
X925830Y638810I-5080J0D01*
G01*
X836066Y591578D02*
G03*
X836066Y591578I-5080J0D01*
G01*
X624656Y119728D02*
G03*
X624656Y119728I-5080J0D01*
G01*
X874656Y219728D02*
G03*
X874656Y219728I-5080J0D01*
G01*
X1024656Y319728D02*
G03*
X1024656Y319728I-5080J0D01*
G01*
X199656Y69728D02*
G03*
X199656Y69728I-5080J0D01*
G01*
X328066Y223278D02*
G03*
X328066Y223278I-5080J0D01*
G01*
X274656Y319728D02*
G03*
X274656Y319728I-5080J0D01*
G01*
X224656Y519728D02*
G03*
X224656Y519728I-5080J0D01*
G01*
X230276Y326148D02*
G03*
X230276Y326148I-5080J0D01*
G01*
X349656Y769728D02*
G03*
X349656Y769728I-5080J0D01*
G01*
X949656Y169728D02*
G03*
X949656Y169728I-5080J0D01*
G01*
X1074656Y319728D02*
G03*
X1074656Y319728I-5080J0D01*
G01*
X849656Y469728D02*
G03*
X849656Y469728I-5080J0D01*
G01*
X974656Y419728D02*
G03*
X974656Y419728I-5080J0D01*
G01*
X774656D02*
G03*
X774656Y419728I-5080J0D01*
G01*
X899656Y269728D02*
G03*
X899656Y269728I-5080J0D01*
G01*
X99656D02*
G03*
X99656Y269728I-5080J0D01*
G01*
X374656Y419728D02*
G03*
X374656Y419728I-5080J0D01*
G01*
X724656D02*
G03*
X724656Y419728I-5080J0D01*
G01*
X949656Y69728D02*
G03*
X949656Y69728I-5080J0D01*
G01*
X574656Y619728D02*
G03*
X574656Y619728I-5080J0D01*
G01*
X799656Y469728D02*
G03*
X799656Y469728I-5080J0D01*
G01*
X699656Y169728D02*
G03*
X699656Y169728I-5080J0D01*
G01*
X299656Y269728D02*
G03*
X299656Y269728I-5080J0D01*
G01*
X974656Y119728D02*
G03*
X974656Y119728I-5080J0D01*
G01*
X1049656Y769728D02*
G03*
X1049656Y769728I-5080J0D01*
G01*
X298856Y435368D02*
G03*
X298856Y435368I-5080J0D01*
G01*
X599656Y769728D02*
G03*
X599656Y769728I-5080J0D01*
G01*
X335686Y411238D02*
G03*
X335686Y411238I-5080J0D01*
G01*
X1049656Y169728D02*
G03*
X1049656Y169728I-5080J0D01*
G01*
X224656Y119728D02*
G03*
X224656Y119728I-5080J0D01*
G01*
X800506Y601738D02*
G03*
X800506Y601738I-5080J0D01*
G01*
X49656Y169728D02*
G03*
X49656Y169728I-5080J0D01*
G01*
X1116736Y418858D02*
G03*
X1116736Y418858I-5080J0D01*
G01*
X149656Y269728D02*
G03*
X149656Y269728I-5080J0D01*
G01*
X874656Y119728D02*
G03*
X874656Y119728I-5080J0D01*
G01*
X999656Y269728D02*
G03*
X999656Y269728I-5080J0D01*
G01*
X24656Y319728D02*
G03*
X24656Y319728I-5080J0D01*
G01*
X949656Y369728D02*
G03*
X949656Y369728I-5080J0D01*
G01*
X773836Y55638D02*
G03*
X773836Y55638I-5080J0D01*
G01*
X799656Y169728D02*
G03*
X799656Y169728I-5080J0D01*
G01*
X274656Y19728D02*
G03*
X274656Y19728I-5080J0D01*
G01*
X124656Y119728D02*
G03*
X124656Y119728I-5080J0D01*
G01*
X99656Y169728D02*
G03*
X99656Y169728I-5080J0D01*
G01*
X499656Y769728D02*
G03*
X499656Y769728I-5080J0D01*
G01*
Y169728D02*
G03*
X499656Y169728I-5080J0D01*
G01*
X174656Y519728D02*
G03*
X174656Y519728I-5080J0D01*
G01*
X724656Y119728D02*
G03*
X724656Y119728I-5080J0D01*
G01*
X524656Y719728D02*
G03*
X524656Y719728I-5080J0D01*
G01*
Y119728D02*
G03*
X524656Y119728I-5080J0D01*
G01*
X24656D02*
G03*
X24656Y119728I-5080J0D01*
G01*
X174656Y19728D02*
G03*
X174656Y19728I-5080J0D01*
G01*
X749656Y469728D02*
G03*
X749656Y469728I-5080J0D01*
G01*
X174656Y119728D02*
G03*
X174656Y119728I-5080J0D01*
G01*
X299656Y569728D02*
G03*
X299656Y569728I-5080J0D01*
G01*
X824656Y719728D02*
G03*
X824656Y719728I-5080J0D01*
G01*
X720496Y732548D02*
G03*
X720496Y732548I-5080J0D01*
G01*
X149656Y69728D02*
G03*
X149656Y69728I-5080J0D01*
G01*
X249656Y569728D02*
G03*
X249656Y569728I-5080J0D01*
G01*
X74656Y319728D02*
G03*
X74656Y319728I-5080J0D01*
G01*
X424656Y419728D02*
G03*
X424656Y419728I-5080J0D01*
G01*
X74656Y19728D02*
G03*
X74656Y19728I-5080J0D01*
G01*
X749656Y169728D02*
G03*
X749656Y169728I-5080J0D01*
G01*
X1099656D02*
G03*
X1099656Y169728I-5080J0D01*
G01*
X199656D02*
G03*
X199656Y169728I-5080J0D01*
G01*
X758596Y694448D02*
G03*
X758596Y694448I-5080J0D01*
G01*
X424656Y619728D02*
G03*
X424656Y619728I-5080J0D01*
G01*
X624656D02*
G03*
X624656Y619728I-5080J0D01*
G01*
X674656Y319728D02*
G03*
X674656Y319728I-5080J0D01*
G01*
X724656D02*
G03*
X724656Y319728I-5080J0D01*
G01*
X399656Y769728D02*
G03*
X399656Y769728I-5080J0D01*
G01*
X49656Y369728D02*
G03*
X49656Y369728I-5080J0D01*
G01*
X399656Y169728D02*
G03*
X399656Y169728I-5080J0D01*
G01*
X599656D02*
G03*
X599656Y169728I-5080J0D01*
G01*
X424656Y319728D02*
G03*
X424656Y319728I-5080J0D01*
G01*
Y519728D02*
G03*
X424656Y519728I-5080J0D01*
G01*
X899656Y369728D02*
G03*
X899656Y369728I-5080J0D01*
G01*
X1095146Y467118D02*
G03*
X1095146Y467118I-5080J0D01*
G01*
X74656Y119728D02*
G03*
X74656Y119728I-5080J0D01*
G01*
X249656Y69728D02*
G03*
X249656Y69728I-5080J0D01*
G01*
X674656Y419728D02*
G03*
X674656Y419728I-5080J0D01*
G01*
X1024656D02*
G03*
X1024656Y419728I-5080J0D01*
G01*
X993546Y72148D02*
G03*
X993546Y72148I-5080J0D01*
G01*
X874656Y419728D02*
G03*
X874656Y419728I-5080J0D01*
G01*
X599656Y569728D02*
G03*
X599656Y569728I-5080J0D01*
G01*
X1049656Y69728D02*
G03*
X1049656Y69728I-5080J0D01*
G01*
X149656Y169728D02*
G03*
X149656Y169728I-5080J0D01*
G01*
X474656Y419728D02*
G03*
X474656Y419728I-5080J0D01*
G01*
X549656Y469728D02*
G03*
X549656Y469728I-5080J0D01*
G01*
X1099656Y69728D02*
G03*
X1099656Y69728I-5080J0D01*
G01*
X849656Y169728D02*
G03*
X849656Y169728I-5080J0D01*
G01*
X482390Y245081D02*
G03*
X482390Y245081I-5080J0D01*
G01*
X99656Y69728D02*
G03*
X99656Y69728I-5080J0D01*
G01*
X742086Y31508D02*
G03*
X742086Y31508I-5080J0D01*
G01*
X399656Y569728D02*
G03*
X399656Y569728I-5080J0D01*
G01*
X24656Y619728D02*
G03*
X24656Y619728I-5080J0D01*
G01*
X624656Y519728D02*
G03*
X624656Y519728I-5080J0D01*
G01*
X224656Y619728D02*
G03*
X224656Y619728I-5080J0D01*
G01*
X124656Y219728D02*
G03*
X124656Y219728I-5080J0D01*
G01*
X624656Y319728D02*
G03*
X624656Y319728I-5080J0D01*
G01*
X224656Y19728D02*
G03*
X224656Y19728I-5080J0D01*
G01*
X599656Y369728D02*
G03*
X599656Y369728I-5080J0D01*
G01*
X649656Y569728D02*
G03*
X649656Y569728I-5080J0D01*
G01*
X374656Y619728D02*
G03*
X374656Y619728I-5080J0D01*
G01*
X699656Y269728D02*
G03*
X699656Y269728I-5080J0D01*
G01*
X274656Y119728D02*
G03*
X274656Y119728I-5080J0D01*
G01*
X299656Y69728D02*
G03*
X299656Y69728I-5080J0D01*
G01*
X99656Y569728D02*
G03*
X99656Y569728I-5080J0D01*
G01*
X1074656Y119728D02*
G03*
X1074656Y119728I-5080J0D01*
G01*
X24656Y419728D02*
G03*
X24656Y419728I-5080J0D01*
G01*
Y219728D02*
G03*
X24656Y219728I-5080J0D01*
G01*
X49656Y69728D02*
G03*
X49656Y69728I-5080J0D01*
G01*
X1049656Y269728D02*
G03*
X1049656Y269728I-5080J0D01*
G01*
X525807Y245081D02*
G03*
X525807Y245081I-5080J0D01*
G01*
X674656Y119728D02*
G03*
X674656Y119728I-5080J0D01*
G01*
X349656Y569728D02*
G03*
X349656Y569728I-5080J0D01*
G01*
X849656Y269728D02*
G03*
X849656Y269728I-5080J0D01*
G01*
X1024656Y19728D02*
G03*
X1024656Y19728I-5080J0D01*
G01*
X999656Y169728D02*
G03*
X999656Y169728I-5080J0D01*
G01*
X856297Y32190D02*
G03*
X856297Y32190I-5080J0D01*
G01*
X199656Y369728D02*
G03*
X199656Y369728I-5080J0D01*
G01*
X1049656Y469728D02*
G03*
X1049656Y469728I-5080J0D01*
G01*
X774656Y319728D02*
G03*
X774656Y319728I-5080J0D01*
G01*
X324656Y19728D02*
G03*
X324656Y19728I-5080J0D01*
G01*
X758596Y599198D02*
G03*
X758596Y599198I-5080J0D01*
G01*
X624656Y419728D02*
G03*
X624656Y419728I-5080J0D01*
G01*
X324656Y619728D02*
G03*
X324656Y619728I-5080J0D01*
G01*
X758466Y661611D02*
G03*
X758466Y661611I-5080J0D01*
G01*
X49656Y269728D02*
G03*
X49656Y269728I-5080J0D01*
G01*
X274656Y619728D02*
G03*
X274656Y619728I-5080J0D01*
G01*
X374656Y519728D02*
G03*
X374656Y519728I-5080J0D01*
G01*
X749656Y369728D02*
G03*
X749656Y369728I-5080J0D01*
G01*
X799656Y669728D02*
G03*
X799656Y669728I-5080J0D01*
G01*
X899656Y69728D02*
G03*
X899656Y69728I-5080J0D01*
G01*
X124656Y619728D02*
G03*
X124656Y619728I-5080J0D01*
G01*
X474656Y119728D02*
G03*
X474656Y119728I-5080J0D01*
G01*
X74656Y219728D02*
G03*
X74656Y219728I-5080J0D01*
G01*
X1099656Y369728D02*
G03*
X1099656Y369728I-5080J0D01*
G01*
X124656Y19728D02*
G03*
X124656Y19728I-5080J0D01*
G01*
X399656Y369728D02*
G03*
X399656Y369728I-5080J0D01*
G01*
X624656Y719728D02*
G03*
X624656Y719728I-5080J0D01*
G01*
X774656Y219728D02*
G03*
X774656Y219728I-5080J0D01*
G01*
X574656Y719728D02*
G03*
X574656Y719728I-5080J0D01*
G01*
X174656Y219728D02*
G03*
X174656Y219728I-5080J0D01*
G01*
X1074656Y419728D02*
G03*
X1074656Y419728I-5080J0D01*
G01*
X132486Y426478D02*
G03*
X132486Y426478I-5080J0D01*
G01*
X758596Y572528D02*
G03*
X758596Y572528I-5080J0D01*
G01*
X349656Y69728D02*
G03*
X349656Y69728I-5080J0D01*
G01*
X449656Y769728D02*
G03*
X449656Y769728I-5080J0D01*
G01*
X199656Y569728D02*
G03*
X199656Y569728I-5080J0D01*
G01*
X549656D02*
G03*
X549656Y569728I-5080J0D01*
G01*
X149656D02*
G03*
X149656Y569728I-5080J0D01*
G01*
X799656D02*
G03*
X799656Y569728I-5080J0D01*
G01*
X549656Y769728D02*
G03*
X549656Y769728I-5080J0D01*
G01*
X1024656Y719728D02*
G03*
X1024656Y719728I-5080J0D01*
G01*
X758596Y628408D02*
G03*
X758596Y628408I-5080J0D01*
G01*
X274656Y519728D02*
G03*
X274656Y519728I-5080J0D01*
G01*
X174656Y619728D02*
G03*
X174656Y619728I-5080J0D01*
G01*
X649656Y269728D02*
G03*
X649656Y269728I-5080J0D01*
G01*
X374656Y219728D02*
G03*
X374656Y219728I-5080J0D01*
G01*
X1074656D02*
G03*
X1074656Y219728I-5080J0D01*
G01*
X649656Y69728D02*
G03*
X649656Y69728I-5080J0D01*
G01*
X674656Y219728D02*
G03*
X674656Y219728I-5080J0D01*
G01*
X1074656Y719728D02*
G03*
X1074656Y719728I-5080J0D01*
G01*
X299656Y769728D02*
G03*
X299656Y769728I-5080J0D01*
G01*
X249656Y169728D02*
G03*
X249656Y169728I-5080J0D01*
G01*
X174656Y419728D02*
G03*
X174656Y419728I-5080J0D01*
G01*
X24656Y519728D02*
G03*
X24656Y519728I-5080J0D01*
G01*
X124656D02*
G03*
X124656Y519728I-5080J0D01*
G01*
X574656Y119728D02*
G03*
X574656Y119728I-5080J0D01*
G01*
X800506Y708418D02*
G03*
X800506Y708418I-5080J0D01*
G01*
X1049656Y369728D02*
G03*
X1049656Y369728I-5080J0D01*
G01*
X849656Y69728D02*
G03*
X849656Y69728I-5080J0D01*
G01*
X574656Y519728D02*
G03*
X574656Y519728I-5080J0D01*
G01*
X941476Y35318D02*
G03*
X941476Y35318I-5080J0D01*
G01*
X499656Y369728D02*
G03*
X499656Y369728I-5080J0D01*
G01*
X324656Y519728D02*
G03*
X324656Y519728I-5080J0D01*
G01*
X999656Y369728D02*
G03*
X999656Y369728I-5080J0D01*
G01*
X691286Y79768D02*
G03*
X691286Y79768I-5080J0D01*
G01*
X824656Y319728D02*
G03*
X824656Y319728I-5080J0D01*
G01*
X374656Y19728D02*
G03*
X374656Y19728I-5080J0D01*
G01*
X429666Y125488D02*
G03*
X429666Y125488I-5080J0D01*
G01*
D69*
X937768Y759460D02*
G03*
X937768Y759460I-3048J0D01*
G01*
X895858Y760730D02*
G03*
X895858Y760730I-3048J0D01*
G01*
X917448Y773430D02*
G03*
X917448Y773430I-3048J0D01*
G01*
X895858Y444500D02*
G03*
X895858Y444500I-3048J0D01*
G01*
X883925Y469971D02*
G03*
X883925Y469971I-3048J0D01*
G01*
X1060658Y579203D02*
G03*
X1060658Y579203I-3048J0D01*
G01*
X1109012Y577469D02*
G03*
X1109012Y577469I-3048J0D01*
G01*
X498007Y343223D02*
G03*
X498007Y343223I-3048J0D01*
G01*
X465328Y353060D02*
G03*
X465328Y353060I-3048J0D01*
G01*
X941578Y577850D02*
G03*
X941578Y577850I-3048J0D01*
G01*
X798068Y728980D02*
G03*
X798068Y728980I-3048J0D01*
G01*
X815848Y772160D02*
G03*
X815848Y772160I-3048J0D01*
G01*
X672338Y601980D02*
G03*
X672338Y601980I-3048J0D01*
G01*
X622808Y656590D02*
G03*
X622808Y656590I-3048J0D01*
G01*
X834898Y504190D02*
G03*
X834898Y504190I-3048J0D01*
G01*
X799338Y534670D02*
G03*
X799338Y534670I-3048J0D01*
G01*
X775208Y502920D02*
G03*
X775208Y502920I-3048J0D01*
G01*
X819658Y445770D02*
G03*
X819658Y445770I-3048J0D01*
G01*
X712978Y359410D02*
G03*
X712978Y359410I-3048J0D01*
G01*
X647581Y397468D02*
G03*
X647581Y397468I-3048J0D01*
G01*
X466598Y383540D02*
G03*
X466598Y383540I-3048J0D01*
G01*
X398018Y398780D02*
G03*
X398018Y398780I-3048J0D01*
G01*
X268478Y419100D02*
G03*
X268478Y419100I-3048J0D01*
G01*
X260858Y440690D02*
G03*
X260858Y440690I-3048J0D01*
G01*
X522065Y153260D02*
G03*
X522065Y153260I-3048J0D01*
G01*
X1046637Y739372D02*
G03*
X1046637Y739372I-3048J0D01*
G01*
X822604Y696234D02*
G03*
X822604Y696234I-3048J0D01*
G01*
X877788Y508002D02*
G03*
X877788Y508002I-3048J0D01*
G01*
X709744Y216043D02*
G03*
X709744Y216043I-3048J0D01*
G01*
X657827Y152796D02*
G03*
X657827Y152796I-3048J0D01*
G01*
X1061389Y19452D02*
G03*
X1061389Y19452I-3048J0D01*
G01*
X871728Y363220D02*
G03*
X871728Y363220I-3048J0D01*
G01*
X859028Y447040D02*
G03*
X859028Y447040I-3048J0D01*
G01*
X822198Y355600D02*
G03*
X822198Y355600I-3048J0D01*
G01*
X671068Y292100D02*
G03*
X671068Y292100I-3048J0D01*
G01*
X1035558Y208280D02*
G03*
X1035558Y208280I-3048J0D01*
G01*
X869188Y97790D02*
G03*
X869188Y97790I-3048J0D01*
G01*
X589788Y245110D02*
G03*
X589788Y245110I-3048J0D01*
G01*
X593598Y201930D02*
G03*
X593598Y201930I-3048J0D01*
G01*
X587248Y274320D02*
G03*
X587248Y274320I-3048J0D01*
G01*
X909828Y320040D02*
G03*
X909828Y320040I-3048J0D01*
G01*
X879348D02*
G03*
X879348Y320040I-3048J0D01*
G01*
X848868D02*
G03*
X848868Y320040I-3048J0D01*
G01*
X940308Y313690D02*
G03*
X940308Y313690I-3048J0D01*
G01*
X972058D02*
G03*
X972058Y313690I-3048J0D01*
G01*
X516128Y425450D02*
G03*
X516128Y425450I-3048J0D01*
G01*
X530098Y516890D02*
G03*
X530098Y516890I-3048J0D01*
G01*
Y621030D02*
G03*
X530098Y621030I-3048J0D01*
G01*
X822198Y637540D02*
G03*
X822198Y637540I-3048J0D01*
G01*
X823468Y669290D02*
G03*
X823468Y669290I-3048J0D01*
G01*
X796798Y638810D02*
G03*
X796798Y638810I-3048J0D01*
G01*
X923798D02*
G03*
X923798Y638810I-3048J0D01*
G01*
X834034Y591578D02*
G03*
X834034Y591578I-3048J0D01*
G01*
X622624Y119728D02*
G03*
X622624Y119728I-3048J0D01*
G01*
X872624Y219728D02*
G03*
X872624Y219728I-3048J0D01*
G01*
X1022624Y319728D02*
G03*
X1022624Y319728I-3048J0D01*
G01*
X197624Y69728D02*
G03*
X197624Y69728I-3048J0D01*
G01*
X326034Y223278D02*
G03*
X326034Y223278I-3048J0D01*
G01*
X272624Y319728D02*
G03*
X272624Y319728I-3048J0D01*
G01*
X222624Y519728D02*
G03*
X222624Y519728I-3048J0D01*
G01*
X228244Y326148D02*
G03*
X228244Y326148I-3048J0D01*
G01*
X347624Y769728D02*
G03*
X347624Y769728I-3048J0D01*
G01*
X947624Y169728D02*
G03*
X947624Y169728I-3048J0D01*
G01*
X1072624Y319728D02*
G03*
X1072624Y319728I-3048J0D01*
G01*
X847624Y469728D02*
G03*
X847624Y469728I-3048J0D01*
G01*
X972624Y419728D02*
G03*
X972624Y419728I-3048J0D01*
G01*
X772624D02*
G03*
X772624Y419728I-3048J0D01*
G01*
X897624Y269728D02*
G03*
X897624Y269728I-3048J0D01*
G01*
X97624D02*
G03*
X97624Y269728I-3048J0D01*
G01*
X372624Y419728D02*
G03*
X372624Y419728I-3048J0D01*
G01*
X722624D02*
G03*
X722624Y419728I-3048J0D01*
G01*
X947624Y69728D02*
G03*
X947624Y69728I-3048J0D01*
G01*
X572624Y619728D02*
G03*
X572624Y619728I-3048J0D01*
G01*
X797624Y469728D02*
G03*
X797624Y469728I-3048J0D01*
G01*
X697624Y169728D02*
G03*
X697624Y169728I-3048J0D01*
G01*
X297624Y269728D02*
G03*
X297624Y269728I-3048J0D01*
G01*
X972624Y119728D02*
G03*
X972624Y119728I-3048J0D01*
G01*
X1047624Y769728D02*
G03*
X1047624Y769728I-3048J0D01*
G01*
X296824Y435368D02*
G03*
X296824Y435368I-3048J0D01*
G01*
X597624Y769728D02*
G03*
X597624Y769728I-3048J0D01*
G01*
X333654Y411238D02*
G03*
X333654Y411238I-3048J0D01*
G01*
X1047624Y169728D02*
G03*
X1047624Y169728I-3048J0D01*
G01*
X222624Y119728D02*
G03*
X222624Y119728I-3048J0D01*
G01*
X798474Y601738D02*
G03*
X798474Y601738I-3048J0D01*
G01*
X47624Y169728D02*
G03*
X47624Y169728I-3048J0D01*
G01*
X1114704Y418858D02*
G03*
X1114704Y418858I-3048J0D01*
G01*
X147624Y269728D02*
G03*
X147624Y269728I-3048J0D01*
G01*
X872624Y119728D02*
G03*
X872624Y119728I-3048J0D01*
G01*
X997624Y269728D02*
G03*
X997624Y269728I-3048J0D01*
G01*
X22624Y319728D02*
G03*
X22624Y319728I-3048J0D01*
G01*
X947624Y369728D02*
G03*
X947624Y369728I-3048J0D01*
G01*
X771804Y55638D02*
G03*
X771804Y55638I-3048J0D01*
G01*
X797624Y169728D02*
G03*
X797624Y169728I-3048J0D01*
G01*
X272624Y19728D02*
G03*
X272624Y19728I-3048J0D01*
G01*
X122624Y119728D02*
G03*
X122624Y119728I-3048J0D01*
G01*
X97624Y169728D02*
G03*
X97624Y169728I-3048J0D01*
G01*
X497624Y769728D02*
G03*
X497624Y769728I-3048J0D01*
G01*
Y169728D02*
G03*
X497624Y169728I-3048J0D01*
G01*
X172624Y519728D02*
G03*
X172624Y519728I-3048J0D01*
G01*
X722624Y119728D02*
G03*
X722624Y119728I-3048J0D01*
G01*
X522624Y719728D02*
G03*
X522624Y719728I-3048J0D01*
G01*
Y119728D02*
G03*
X522624Y119728I-3048J0D01*
G01*
X22624D02*
G03*
X22624Y119728I-3048J0D01*
G01*
X172624Y19728D02*
G03*
X172624Y19728I-3048J0D01*
G01*
X747624Y469728D02*
G03*
X747624Y469728I-3048J0D01*
G01*
X172624Y119728D02*
G03*
X172624Y119728I-3048J0D01*
G01*
X297624Y569728D02*
G03*
X297624Y569728I-3048J0D01*
G01*
X822624Y719728D02*
G03*
X822624Y719728I-3048J0D01*
G01*
X718464Y732548D02*
G03*
X718464Y732548I-3048J0D01*
G01*
X147624Y69728D02*
G03*
X147624Y69728I-3048J0D01*
G01*
X247624Y569728D02*
G03*
X247624Y569728I-3048J0D01*
G01*
X72624Y319728D02*
G03*
X72624Y319728I-3048J0D01*
G01*
X422624Y419728D02*
G03*
X422624Y419728I-3048J0D01*
G01*
X72624Y19728D02*
G03*
X72624Y19728I-3048J0D01*
G01*
X747624Y169728D02*
G03*
X747624Y169728I-3048J0D01*
G01*
X1097624D02*
G03*
X1097624Y169728I-3048J0D01*
G01*
X197624D02*
G03*
X197624Y169728I-3048J0D01*
G01*
X756564Y694448D02*
G03*
X756564Y694448I-3048J0D01*
G01*
X422624Y619728D02*
G03*
X422624Y619728I-3048J0D01*
G01*
X622624D02*
G03*
X622624Y619728I-3048J0D01*
G01*
X672624Y319728D02*
G03*
X672624Y319728I-3048J0D01*
G01*
X722624D02*
G03*
X722624Y319728I-3048J0D01*
G01*
X397624Y769728D02*
G03*
X397624Y769728I-3048J0D01*
G01*
X47624Y369728D02*
G03*
X47624Y369728I-3048J0D01*
G01*
X397624Y169728D02*
G03*
X397624Y169728I-3048J0D01*
G01*
X597624D02*
G03*
X597624Y169728I-3048J0D01*
G01*
X422624Y319728D02*
G03*
X422624Y319728I-3048J0D01*
G01*
Y519728D02*
G03*
X422624Y519728I-3048J0D01*
G01*
X897624Y369728D02*
G03*
X897624Y369728I-3048J0D01*
G01*
X1093114Y467118D02*
G03*
X1093114Y467118I-3048J0D01*
G01*
X72624Y119728D02*
G03*
X72624Y119728I-3048J0D01*
G01*
X247624Y69728D02*
G03*
X247624Y69728I-3048J0D01*
G01*
X672624Y419728D02*
G03*
X672624Y419728I-3048J0D01*
G01*
X1022624D02*
G03*
X1022624Y419728I-3048J0D01*
G01*
X991514Y72148D02*
G03*
X991514Y72148I-3048J0D01*
G01*
X872624Y419728D02*
G03*
X872624Y419728I-3048J0D01*
G01*
X597624Y569728D02*
G03*
X597624Y569728I-3048J0D01*
G01*
X1047624Y69728D02*
G03*
X1047624Y69728I-3048J0D01*
G01*
X147624Y169728D02*
G03*
X147624Y169728I-3048J0D01*
G01*
X472624Y419728D02*
G03*
X472624Y419728I-3048J0D01*
G01*
X547624Y469728D02*
G03*
X547624Y469728I-3048J0D01*
G01*
X1097624Y69728D02*
G03*
X1097624Y69728I-3048J0D01*
G01*
X847624Y169728D02*
G03*
X847624Y169728I-3048J0D01*
G01*
X480358Y245081D02*
G03*
X480358Y245081I-3048J0D01*
G01*
X97624Y69728D02*
G03*
X97624Y69728I-3048J0D01*
G01*
X740054Y31508D02*
G03*
X740054Y31508I-3048J0D01*
G01*
X397624Y569728D02*
G03*
X397624Y569728I-3048J0D01*
G01*
X22624Y619728D02*
G03*
X22624Y619728I-3048J0D01*
G01*
X622624Y519728D02*
G03*
X622624Y519728I-3048J0D01*
G01*
X222624Y619728D02*
G03*
X222624Y619728I-3048J0D01*
G01*
X122624Y219728D02*
G03*
X122624Y219728I-3048J0D01*
G01*
X622624Y319728D02*
G03*
X622624Y319728I-3048J0D01*
G01*
X222624Y19728D02*
G03*
X222624Y19728I-3048J0D01*
G01*
X597624Y369728D02*
G03*
X597624Y369728I-3048J0D01*
G01*
X647624Y569728D02*
G03*
X647624Y569728I-3048J0D01*
G01*
X372624Y619728D02*
G03*
X372624Y619728I-3048J0D01*
G01*
X697624Y269728D02*
G03*
X697624Y269728I-3048J0D01*
G01*
X272624Y119728D02*
G03*
X272624Y119728I-3048J0D01*
G01*
X297624Y69728D02*
G03*
X297624Y69728I-3048J0D01*
G01*
X97624Y569728D02*
G03*
X97624Y569728I-3048J0D01*
G01*
X1072624Y119728D02*
G03*
X1072624Y119728I-3048J0D01*
G01*
X22624Y419728D02*
G03*
X22624Y419728I-3048J0D01*
G01*
Y219728D02*
G03*
X22624Y219728I-3048J0D01*
G01*
X47624Y69728D02*
G03*
X47624Y69728I-3048J0D01*
G01*
X1047624Y269728D02*
G03*
X1047624Y269728I-3048J0D01*
G01*
X523775Y245081D02*
G03*
X523775Y245081I-3048J0D01*
G01*
X672624Y119728D02*
G03*
X672624Y119728I-3048J0D01*
G01*
X347624Y569728D02*
G03*
X347624Y569728I-3048J0D01*
G01*
X847624Y269728D02*
G03*
X847624Y269728I-3048J0D01*
G01*
X1022624Y19728D02*
G03*
X1022624Y19728I-3048J0D01*
G01*
X997624Y169728D02*
G03*
X997624Y169728I-3048J0D01*
G01*
X854265Y32190D02*
G03*
X854265Y32190I-3048J0D01*
G01*
X197624Y369728D02*
G03*
X197624Y369728I-3048J0D01*
G01*
X1047624Y469728D02*
G03*
X1047624Y469728I-3048J0D01*
G01*
X772624Y319728D02*
G03*
X772624Y319728I-3048J0D01*
G01*
X322624Y19728D02*
G03*
X322624Y19728I-3048J0D01*
G01*
X756564Y599198D02*
G03*
X756564Y599198I-3048J0D01*
G01*
X622624Y419728D02*
G03*
X622624Y419728I-3048J0D01*
G01*
X322624Y619728D02*
G03*
X322624Y619728I-3048J0D01*
G01*
X756434Y661611D02*
G03*
X756434Y661611I-3048J0D01*
G01*
X47624Y269728D02*
G03*
X47624Y269728I-3048J0D01*
G01*
X272624Y619728D02*
G03*
X272624Y619728I-3048J0D01*
G01*
X372624Y519728D02*
G03*
X372624Y519728I-3048J0D01*
G01*
X747624Y369728D02*
G03*
X747624Y369728I-3048J0D01*
G01*
X797624Y669728D02*
G03*
X797624Y669728I-3048J0D01*
G01*
X897624Y69728D02*
G03*
X897624Y69728I-3048J0D01*
G01*
X122624Y619728D02*
G03*
X122624Y619728I-3048J0D01*
G01*
X472624Y119728D02*
G03*
X472624Y119728I-3048J0D01*
G01*
X72624Y219728D02*
G03*
X72624Y219728I-3048J0D01*
G01*
X1097624Y369728D02*
G03*
X1097624Y369728I-3048J0D01*
G01*
X122624Y19728D02*
G03*
X122624Y19728I-3048J0D01*
G01*
X397624Y369728D02*
G03*
X397624Y369728I-3048J0D01*
G01*
X622624Y719728D02*
G03*
X622624Y719728I-3048J0D01*
G01*
X772624Y219728D02*
G03*
X772624Y219728I-3048J0D01*
G01*
X572624Y719728D02*
G03*
X572624Y719728I-3048J0D01*
G01*
X172624Y219728D02*
G03*
X172624Y219728I-3048J0D01*
G01*
X1072624Y419728D02*
G03*
X1072624Y419728I-3048J0D01*
G01*
X130454Y426478D02*
G03*
X130454Y426478I-3048J0D01*
G01*
X756564Y572528D02*
G03*
X756564Y572528I-3048J0D01*
G01*
X347624Y69728D02*
G03*
X347624Y69728I-3048J0D01*
G01*
X447624Y769728D02*
G03*
X447624Y769728I-3048J0D01*
G01*
X197624Y569728D02*
G03*
X197624Y569728I-3048J0D01*
G01*
X547624D02*
G03*
X547624Y569728I-3048J0D01*
G01*
X147624D02*
G03*
X147624Y569728I-3048J0D01*
G01*
X797624D02*
G03*
X797624Y569728I-3048J0D01*
G01*
X547624Y769728D02*
G03*
X547624Y769728I-3048J0D01*
G01*
X1022624Y719728D02*
G03*
X1022624Y719728I-3048J0D01*
G01*
X756564Y628408D02*
G03*
X756564Y628408I-3048J0D01*
G01*
X272624Y519728D02*
G03*
X272624Y519728I-3048J0D01*
G01*
X172624Y619728D02*
G03*
X172624Y619728I-3048J0D01*
G01*
X647624Y269728D02*
G03*
X647624Y269728I-3048J0D01*
G01*
X372624Y219728D02*
G03*
X372624Y219728I-3048J0D01*
G01*
X1072624D02*
G03*
X1072624Y219728I-3048J0D01*
G01*
X647624Y69728D02*
G03*
X647624Y69728I-3048J0D01*
G01*
X672624Y219728D02*
G03*
X672624Y219728I-3048J0D01*
G01*
X1072624Y719728D02*
G03*
X1072624Y719728I-3048J0D01*
G01*
X297624Y769728D02*
G03*
X297624Y769728I-3048J0D01*
G01*
X247624Y169728D02*
G03*
X247624Y169728I-3048J0D01*
G01*
X172624Y419728D02*
G03*
X172624Y419728I-3048J0D01*
G01*
X22624Y519728D02*
G03*
X22624Y519728I-3048J0D01*
G01*
X122624D02*
G03*
X122624Y519728I-3048J0D01*
G01*
X572624Y119728D02*
G03*
X572624Y119728I-3048J0D01*
G01*
X798474Y708418D02*
G03*
X798474Y708418I-3048J0D01*
G01*
X1047624Y369728D02*
G03*
X1047624Y369728I-3048J0D01*
G01*
X847624Y69728D02*
G03*
X847624Y69728I-3048J0D01*
G01*
X572624Y519728D02*
G03*
X572624Y519728I-3048J0D01*
G01*
X939444Y35318D02*
G03*
X939444Y35318I-3048J0D01*
G01*
X497624Y369728D02*
G03*
X497624Y369728I-3048J0D01*
G01*
X322624Y519728D02*
G03*
X322624Y519728I-3048J0D01*
G01*
X997624Y369728D02*
G03*
X997624Y369728I-3048J0D01*
G01*
X689254Y79768D02*
G03*
X689254Y79768I-3048J0D01*
G01*
X822624Y319728D02*
G03*
X822624Y319728I-3048J0D01*
G01*
X372624Y19728D02*
G03*
X372624Y19728I-3048J0D01*
G01*
X427634Y125488D02*
G03*
X427634Y125488I-3048J0D01*
G01*
M02*
