G04*
G04 #@! TF.GenerationSoftware,Altium Limited,Altium Designer,25.8.1 (18)*
G04*
G04 Layer_Physical_Order=2*
G04 Layer_Color=16711680*
%FSLAX44Y44*%
%MOMM*%
G71*
G04*
G04 #@! TF.SameCoordinates,B962B673-1AC8-49EC-9CCC-188C0FAC6781*
G04*
G04*
G04 #@! TF.FilePolarity,Positive*
G04*
G01*
G75*
%ADD20R,1.4000X0.9500*%
%ADD40C,1.8500*%
G04:AMPARAMS|DCode=44|XSize=1.1mm|YSize=1.7mm|CornerRadius=0.55mm|HoleSize=0mm|Usage=FLASHONLY|Rotation=180.000|XOffset=0mm|YOffset=0mm|HoleType=Round|Shape=RoundedRectangle|*
%AMROUNDEDRECTD44*
21,1,1.1000,0.6000,0,0,180.0*
21,1,0.0000,1.7000,0,0,180.0*
1,1,1.1000,0.0000,0.3000*
1,1,1.1000,0.0000,0.3000*
1,1,1.1000,0.0000,-0.3000*
1,1,1.1000,0.0000,-0.3000*
%
%ADD44ROUNDEDRECTD44*%
%ADD45R,1.8500X1.8500*%
%ADD53C,1.3080*%
%ADD54C,2.1000*%
%ADD55R,1.2000X1.2000*%
%ADD56C,2.0000*%
%ADD57C,1.6500*%
%ADD58C,1.2000*%
%ADD59R,2.0000X2.0000*%
%ADD60C,3.0000*%
%ADD61C,0.6000*%
%ADD62C,0.7000*%
%ADD63C,3.5000*%
G36*
X18415Y785455D02*
X1111885Y785356D01*
X1112375Y785454D01*
X1115507Y785041D01*
X1117415Y784251D01*
X1119695Y782728D01*
X1121818Y780605D01*
X1123485Y778109D01*
X1124634Y775335D01*
X1125220Y772391D01*
Y770890D01*
Y555454D01*
X1124893Y550679D01*
X1115710D01*
Y554080D01*
X1106170D01*
Y555350D01*
D01*
Y554080D01*
X1096630D01*
Y550679D01*
X1067450D01*
Y554080D01*
X1057910D01*
X1048370D01*
Y550679D01*
X1041400D01*
X1040620Y550524D01*
X1039958Y550082D01*
X1039516Y549420D01*
X1039361Y548640D01*
Y492760D01*
X1039516Y491980D01*
X1039958Y491318D01*
X1040620Y490876D01*
X1041400Y490721D01*
X1097630D01*
Y486410D01*
X1106170D01*
X1114710D01*
Y490721D01*
X1125220D01*
Y15240D01*
Y13989D01*
X1124968Y12722D01*
X1123922Y10196D01*
X1121713Y7317D01*
X1118834Y5108D01*
X1115482Y3720D01*
X1112053Y3268D01*
X1111885Y3302D01*
X24130Y3314D01*
X24005Y3289D01*
X20062Y3677D01*
X16150Y4864D01*
X12544Y6791D01*
X9384Y9384D01*
X6791Y12544D01*
X5092Y15723D01*
X4724Y16612D01*
X4523Y17273D01*
X3810Y20859D01*
Y22860D01*
X3314Y302802D01*
X3314Y454693D01*
X4131Y455298D01*
X9855Y455643D01*
X12223Y453275D01*
X15007Y451415D01*
X18101Y450133D01*
X21386Y449480D01*
X24734D01*
X28019Y450133D01*
X31112Y451415D01*
X33897Y453275D01*
X36265Y455643D01*
X38125Y458428D01*
X39407Y461521D01*
X40060Y464806D01*
Y468154D01*
X39407Y471439D01*
X38125Y474533D01*
X36265Y477317D01*
X33897Y479685D01*
X31112Y481545D01*
X28019Y482827D01*
X24734Y483480D01*
X21386D01*
X18101Y482827D01*
X15007Y481545D01*
X12223Y479685D01*
X9855Y477317D01*
X4131Y477662D01*
X3314Y478267D01*
Y699793D01*
X4131Y700398D01*
X9855Y700743D01*
X12223Y698375D01*
X15007Y696515D01*
X18101Y695233D01*
X21386Y694580D01*
X24734D01*
X28019Y695233D01*
X31112Y696515D01*
X33897Y698375D01*
X36265Y700743D01*
X38125Y703528D01*
X39407Y706621D01*
X40060Y709906D01*
Y713254D01*
X39407Y716539D01*
X38125Y719632D01*
X36265Y722417D01*
X33897Y724785D01*
X31112Y726645D01*
X28019Y727927D01*
X24734Y728580D01*
X21386D01*
X18101Y727927D01*
X15007Y726645D01*
X12223Y724785D01*
X9855Y722417D01*
X4131Y722762D01*
X3314Y723367D01*
Y770255D01*
X3241Y770619D01*
X3492Y773169D01*
X4708Y776104D01*
X6793Y779224D01*
X9446Y781877D01*
X12566Y783962D01*
X15501Y785178D01*
X18382Y785461D01*
X18415Y785455D01*
D02*
G37*
G36*
X1125790Y547742D02*
X1125783Y492760D01*
X1114170D01*
Y493140D01*
X1098170D01*
Y492760D01*
X1041400D01*
Y548640D01*
X1048910D01*
Y548600D01*
X1066910D01*
Y548640D01*
X1097170D01*
Y548600D01*
X1115170D01*
Y548640D01*
X1124893D01*
X1125790Y547742D01*
D02*
G37*
%LPC*%
G36*
X915670Y778900D02*
Y774700D01*
X919870D01*
X919097Y776568D01*
X917538Y778127D01*
X915670Y778900D01*
D02*
G37*
G36*
X913130D02*
X911262Y778127D01*
X909703Y776568D01*
X908930Y774700D01*
X913130D01*
Y778900D01*
D02*
G37*
G36*
X814070Y777630D02*
Y773430D01*
X818270D01*
X817497Y775298D01*
X815938Y776857D01*
X814070Y777630D01*
D02*
G37*
G36*
X811530D02*
X809662Y776857D01*
X808103Y775298D01*
X807330Y773430D01*
X811530D01*
Y777630D01*
D02*
G37*
G36*
X1045846Y775199D02*
Y770998D01*
X1050046D01*
X1049272Y772867D01*
X1047714Y774425D01*
X1045846Y775199D01*
D02*
G37*
G36*
X1043306D02*
X1041438Y774425D01*
X1039879Y772867D01*
X1039105Y770998D01*
X1043306D01*
Y775199D01*
D02*
G37*
G36*
X595846D02*
Y770998D01*
X600046D01*
X599272Y772867D01*
X597714Y774425D01*
X595846Y775199D01*
D02*
G37*
G36*
X593306D02*
X591438Y774425D01*
X589879Y772867D01*
X589105Y770998D01*
X593306D01*
Y775199D01*
D02*
G37*
G36*
X545846D02*
Y770998D01*
X550046D01*
X549272Y772867D01*
X547714Y774425D01*
X545846Y775199D01*
D02*
G37*
G36*
X543306D02*
X541438Y774425D01*
X539879Y772867D01*
X539105Y770998D01*
X543306D01*
Y775199D01*
D02*
G37*
G36*
X495846D02*
Y770998D01*
X500046D01*
X499272Y772867D01*
X497714Y774425D01*
X495846Y775199D01*
D02*
G37*
G36*
X493306D02*
X491438Y774425D01*
X489879Y772867D01*
X489105Y770998D01*
X493306D01*
Y775199D01*
D02*
G37*
G36*
X445846D02*
Y770998D01*
X450046D01*
X449272Y772867D01*
X447714Y774425D01*
X445846Y775199D01*
D02*
G37*
G36*
X443306D02*
X441438Y774425D01*
X439879Y772867D01*
X439105Y770998D01*
X443306D01*
Y775199D01*
D02*
G37*
G36*
X395846D02*
Y770998D01*
X400046D01*
X399272Y772867D01*
X397714Y774425D01*
X395846Y775199D01*
D02*
G37*
G36*
X393306D02*
X391438Y774425D01*
X389879Y772867D01*
X389105Y770998D01*
X393306D01*
Y775199D01*
D02*
G37*
G36*
X345846D02*
Y770998D01*
X350046D01*
X349272Y772867D01*
X347714Y774425D01*
X345846Y775199D01*
D02*
G37*
G36*
X343306D02*
X341438Y774425D01*
X339879Y772867D01*
X339105Y770998D01*
X343306D01*
Y775199D01*
D02*
G37*
G36*
X295846D02*
Y770998D01*
X300046D01*
X299272Y772867D01*
X297714Y774425D01*
X295846Y775199D01*
D02*
G37*
G36*
X293306D02*
X291438Y774425D01*
X289879Y772867D01*
X289105Y770998D01*
X293306D01*
Y775199D01*
D02*
G37*
G36*
X710216Y775770D02*
X706924D01*
X703745Y774918D01*
X700895Y773272D01*
X698568Y770945D01*
X698420Y770691D01*
X697451Y770223D01*
X692507Y769915D01*
X692499Y769919D01*
X692314Y770104D01*
X690366Y771228D01*
X688194Y771810D01*
X685946D01*
X683774Y771228D01*
X681826Y770104D01*
X680236Y768514D01*
X679858Y767859D01*
X678061Y767378D01*
X676079D01*
X674282Y767859D01*
X673904Y768514D01*
X672314Y770104D01*
X670366Y771228D01*
X668194Y771810D01*
X665946D01*
X663774Y771228D01*
X661826Y770104D01*
X660236Y768514D01*
X659858Y767859D01*
X658061Y767378D01*
X656079D01*
X654282Y767859D01*
X653904Y768514D01*
X652314Y770104D01*
X650366Y771228D01*
X648194Y771810D01*
X645946D01*
X643774Y771228D01*
X641826Y770104D01*
X641641Y769919D01*
X641633Y769915D01*
X636689Y770223D01*
X635720Y770691D01*
X635573Y770945D01*
X633245Y773272D01*
X630395Y774918D01*
X627216Y775770D01*
X623924D01*
X620745Y774918D01*
X617895Y773272D01*
X615568Y770945D01*
X613922Y768095D01*
X613070Y764916D01*
Y761624D01*
X613922Y758445D01*
X615568Y755595D01*
X617895Y753268D01*
X620745Y751622D01*
X623924Y750770D01*
X627216D01*
X630395Y751622D01*
X633245Y753268D01*
X635573Y755595D01*
X635720Y755850D01*
X636689Y756317D01*
X641633Y756625D01*
X641641Y756621D01*
X641826Y756436D01*
X643774Y755312D01*
X645946Y754730D01*
X648194D01*
X650366Y755312D01*
X652314Y756436D01*
X653904Y758026D01*
X654282Y758681D01*
X656079Y759162D01*
X658061D01*
X659858Y758681D01*
X660236Y758026D01*
X661826Y756436D01*
X663774Y755312D01*
X665946Y754730D01*
X668194D01*
X670366Y755312D01*
X672314Y756436D01*
X673904Y758026D01*
X674282Y758681D01*
X676079Y759162D01*
X678061D01*
X679858Y758681D01*
X680236Y758026D01*
X681826Y756436D01*
X683774Y755312D01*
X685946Y754730D01*
X688194D01*
X690366Y755312D01*
X692314Y756436D01*
X692499Y756621D01*
X692507Y756625D01*
X697451Y756317D01*
X698420Y755850D01*
X698568Y755595D01*
X700895Y753268D01*
X703745Y751622D01*
X706924Y750770D01*
X710216D01*
X713395Y751622D01*
X716245Y753268D01*
X718572Y755595D01*
X720218Y758445D01*
X721070Y761624D01*
Y764916D01*
X720218Y768095D01*
X718572Y770945D01*
X716245Y773272D01*
X713395Y774918D01*
X710216Y775770D01*
D02*
G37*
G36*
X919870Y772160D02*
X915670D01*
Y767960D01*
X917538Y768733D01*
X919097Y770292D01*
X919870Y772160D01*
D02*
G37*
G36*
X913130D02*
X908930D01*
X909703Y770292D01*
X911262Y768733D01*
X913130Y767960D01*
Y772160D01*
D02*
G37*
G36*
X818270Y770890D02*
X814070D01*
Y766690D01*
X815938Y767463D01*
X817497Y769022D01*
X818270Y770890D01*
D02*
G37*
G36*
X811530D02*
X807330D01*
X808103Y769022D01*
X809662Y767463D01*
X811530Y766690D01*
Y770890D01*
D02*
G37*
G36*
X1050046Y768458D02*
X1045846D01*
Y764258D01*
X1047714Y765032D01*
X1049272Y766590D01*
X1050046Y768458D01*
D02*
G37*
G36*
X1043306D02*
X1039105D01*
X1039879Y766590D01*
X1041438Y765032D01*
X1043306Y764258D01*
Y768458D01*
D02*
G37*
G36*
X600046D02*
X595846D01*
Y764258D01*
X597714Y765032D01*
X599272Y766590D01*
X600046Y768458D01*
D02*
G37*
G36*
X593306D02*
X589105D01*
X589879Y766590D01*
X591438Y765032D01*
X593306Y764258D01*
Y768458D01*
D02*
G37*
G36*
X550046D02*
X545846D01*
Y764258D01*
X547714Y765032D01*
X549272Y766590D01*
X550046Y768458D01*
D02*
G37*
G36*
X543306D02*
X539105D01*
X539879Y766590D01*
X541438Y765032D01*
X543306Y764258D01*
Y768458D01*
D02*
G37*
G36*
X500046D02*
X495846D01*
Y764258D01*
X497714Y765032D01*
X499272Y766590D01*
X500046Y768458D01*
D02*
G37*
G36*
X493306D02*
X489105D01*
X489879Y766590D01*
X491438Y765032D01*
X493306Y764258D01*
Y768458D01*
D02*
G37*
G36*
X450046D02*
X445846D01*
Y764258D01*
X447714Y765032D01*
X449272Y766590D01*
X450046Y768458D01*
D02*
G37*
G36*
X443306D02*
X439105D01*
X439879Y766590D01*
X441438Y765032D01*
X443306Y764258D01*
Y768458D01*
D02*
G37*
G36*
X400046D02*
X395846D01*
Y764258D01*
X397714Y765032D01*
X399272Y766590D01*
X400046Y768458D01*
D02*
G37*
G36*
X393306D02*
X389105D01*
X389879Y766590D01*
X391438Y765032D01*
X393306Y764258D01*
Y768458D01*
D02*
G37*
G36*
X350046D02*
X345846D01*
Y764258D01*
X347714Y765032D01*
X349272Y766590D01*
X350046Y768458D01*
D02*
G37*
G36*
X343306D02*
X339105D01*
X339879Y766590D01*
X341438Y765032D01*
X343306Y764258D01*
Y768458D01*
D02*
G37*
G36*
X300046D02*
X295846D01*
Y764258D01*
X297714Y765032D01*
X299272Y766590D01*
X300046Y768458D01*
D02*
G37*
G36*
X293306D02*
X289105D01*
X289879Y766590D01*
X291438Y765032D01*
X293306Y764258D01*
Y768458D01*
D02*
G37*
G36*
X894080Y766200D02*
Y762000D01*
X898280D01*
X897507Y763868D01*
X895948Y765427D01*
X894080Y766200D01*
D02*
G37*
G36*
X891540D02*
X889672Y765427D01*
X888113Y763868D01*
X887340Y762000D01*
X891540D01*
Y766200D01*
D02*
G37*
G36*
X935990Y764930D02*
Y760730D01*
X940190D01*
X939417Y762598D01*
X937858Y764157D01*
X935990Y764930D01*
D02*
G37*
G36*
X933450D02*
X931582Y764157D01*
X930023Y762598D01*
X929250Y760730D01*
X933450D01*
Y764930D01*
D02*
G37*
G36*
X31880Y777499D02*
X31176D01*
Y758729D01*
X49946D01*
Y759433D01*
X49176Y763304D01*
X47665Y766951D01*
X45472Y770234D01*
X42681Y773025D01*
X39399Y775218D01*
X35751Y776729D01*
X31880Y777499D01*
D02*
G37*
G36*
X28636D02*
X27932D01*
X24060Y776729D01*
X20413Y775218D01*
X17131Y773025D01*
X14340Y770234D01*
X12147Y766951D01*
X10636Y763304D01*
X9866Y759433D01*
Y758729D01*
X28636D01*
Y777499D01*
D02*
G37*
G36*
X1097984Y776960D02*
X1097280D01*
Y758190D01*
X1116050D01*
Y758894D01*
X1115280Y762766D01*
X1113769Y766413D01*
X1111576Y769695D01*
X1108785Y772486D01*
X1105502Y774679D01*
X1101855Y776190D01*
X1097984Y776960D01*
D02*
G37*
G36*
X1094740D02*
X1094036D01*
X1090164Y776190D01*
X1086517Y774679D01*
X1083235Y772486D01*
X1080444Y769695D01*
X1078251Y766413D01*
X1076740Y762766D01*
X1075970Y758894D01*
Y758190D01*
X1094740D01*
Y776960D01*
D02*
G37*
G36*
X898280Y759460D02*
X894080D01*
Y755260D01*
X895948Y756033D01*
X897507Y757592D01*
X898280Y759460D01*
D02*
G37*
G36*
X891540D02*
X887340D01*
X888113Y757592D01*
X889672Y756033D01*
X891540Y755260D01*
Y759460D01*
D02*
G37*
G36*
X940190Y758190D02*
X935990D01*
Y753990D01*
X937858Y754763D01*
X939417Y756322D01*
X940190Y758190D01*
D02*
G37*
G36*
X933450D02*
X929250D01*
X930023Y756322D01*
X931582Y754763D01*
X933450Y753990D01*
Y758190D01*
D02*
G37*
G36*
X956330Y770405D02*
X954372Y770147D01*
X952548Y769391D01*
X950981Y768189D01*
X949779Y766622D01*
X949023Y764798D01*
X948765Y762840D01*
Y756840D01*
X949023Y754882D01*
X949779Y753058D01*
X950981Y751491D01*
X952548Y750289D01*
X954372Y749533D01*
X956330Y749275D01*
X958288Y749533D01*
X960112Y750289D01*
X961679Y751491D01*
X962881Y753058D01*
X963637Y754882D01*
X963895Y756840D01*
Y762840D01*
X963637Y764798D01*
X962881Y766622D01*
X961679Y768189D01*
X960112Y769391D01*
X958288Y770147D01*
X956330Y770405D01*
D02*
G37*
G36*
X869930D02*
X867972Y770147D01*
X866148Y769391D01*
X864581Y768189D01*
X863379Y766622D01*
X862623Y764798D01*
X862365Y762840D01*
Y756840D01*
X862623Y754882D01*
X863379Y753058D01*
X864581Y751491D01*
X866148Y750289D01*
X867972Y749533D01*
X869930Y749275D01*
X871888Y749533D01*
X873712Y750289D01*
X875279Y751491D01*
X876481Y753058D01*
X877237Y754882D01*
X877495Y756840D01*
Y762840D01*
X877237Y764798D01*
X876481Y766622D01*
X875279Y768189D01*
X873712Y769391D01*
X871888Y770147D01*
X869930Y770405D01*
D02*
G37*
G36*
X1044859Y744842D02*
Y740642D01*
X1049059D01*
X1048285Y742510D01*
X1046727Y744068D01*
X1044859Y744842D01*
D02*
G37*
G36*
X1042319D02*
X1040450Y744068D01*
X1038892Y742510D01*
X1038118Y740642D01*
X1042319D01*
Y744842D01*
D02*
G37*
G36*
X49946Y756189D02*
X31176D01*
Y737419D01*
X31880D01*
X35751Y738189D01*
X39399Y739700D01*
X42681Y741893D01*
X45472Y744684D01*
X47665Y747966D01*
X49176Y751613D01*
X49946Y755485D01*
Y756189D01*
D02*
G37*
G36*
X28636D02*
X9866D01*
Y755485D01*
X10636Y751613D01*
X12147Y747966D01*
X14340Y744684D01*
X17131Y741893D01*
X20413Y739700D01*
X24060Y738189D01*
X27932Y737419D01*
X28636D01*
Y756189D01*
D02*
G37*
G36*
X1116050Y755650D02*
X1097280D01*
Y736880D01*
X1097984D01*
X1101855Y737650D01*
X1105502Y739161D01*
X1108785Y741354D01*
X1111576Y744145D01*
X1113769Y747428D01*
X1115280Y751075D01*
X1116050Y754946D01*
Y755650D01*
D02*
G37*
G36*
X1094740D02*
X1075970D01*
Y754946D01*
X1076740Y751075D01*
X1078251Y747428D01*
X1080444Y744145D01*
X1083235Y741354D01*
X1086517Y739161D01*
X1090164Y737650D01*
X1094036Y736880D01*
X1094740D01*
Y755650D01*
D02*
G37*
G36*
X1049059Y738102D02*
X1044859D01*
Y733901D01*
X1046727Y734675D01*
X1048285Y736234D01*
X1049059Y738102D01*
D02*
G37*
G36*
X1042319D02*
X1038118D01*
X1038892Y736234D01*
X1040450Y734675D01*
X1042319Y733901D01*
Y738102D01*
D02*
G37*
G36*
X716686Y738019D02*
Y733818D01*
X720886D01*
X720112Y735686D01*
X718554Y737245D01*
X716686Y738019D01*
D02*
G37*
G36*
X714146D02*
X712278Y737245D01*
X710719Y735686D01*
X709945Y733818D01*
X714146D01*
Y738019D01*
D02*
G37*
G36*
X796290Y734450D02*
Y730250D01*
X800490D01*
X799717Y732118D01*
X798158Y733677D01*
X796290Y734450D01*
D02*
G37*
G36*
X793750D02*
X791882Y733677D01*
X790323Y732118D01*
X789550Y730250D01*
X793750D01*
Y734450D01*
D02*
G37*
G36*
X720886Y731278D02*
X716686D01*
Y727078D01*
X718554Y727852D01*
X720112Y729410D01*
X720886Y731278D01*
D02*
G37*
G36*
X714146D02*
X709945D01*
X710719Y729410D01*
X712278Y727852D01*
X714146Y727078D01*
Y731278D01*
D02*
G37*
G36*
X126790Y728820D02*
X126409D01*
X123220Y727965D01*
X120360Y726314D01*
X118026Y723980D01*
X117935Y723823D01*
X112262Y723648D01*
X110028Y725882D01*
X107292Y727462D01*
X104240Y728280D01*
X101080D01*
X98028Y727462D01*
X95292Y725882D01*
X93058Y723648D01*
X91478Y720912D01*
X90660Y717860D01*
Y714700D01*
X91478Y711648D01*
X93058Y708912D01*
X95292Y706678D01*
X98028Y705098D01*
X101080Y704280D01*
X104240D01*
X107292Y705098D01*
X110028Y706678D01*
X112262Y708912D01*
X117935Y708737D01*
X118026Y708580D01*
X120360Y706245D01*
X123220Y704595D01*
X126409Y703740D01*
X126790D01*
Y716280D01*
Y728820D01*
D02*
G37*
G36*
X800490Y727710D02*
X796290D01*
Y723510D01*
X798158Y724283D01*
X799717Y725842D01*
X800490Y727710D01*
D02*
G37*
G36*
X793750D02*
X789550D01*
X790323Y725842D01*
X791882Y724283D01*
X793750Y723510D01*
Y727710D01*
D02*
G37*
G36*
X1070846Y725199D02*
Y720998D01*
X1075046D01*
X1074272Y722867D01*
X1072714Y724425D01*
X1070846Y725199D01*
D02*
G37*
G36*
X1068306D02*
X1066438Y724425D01*
X1064879Y722867D01*
X1064105Y720998D01*
X1068306D01*
Y725199D01*
D02*
G37*
G36*
X1020846D02*
Y720998D01*
X1025046D01*
X1024272Y722867D01*
X1022714Y724425D01*
X1020846Y725199D01*
D02*
G37*
G36*
X1018306D02*
X1016438Y724425D01*
X1014879Y722867D01*
X1014105Y720998D01*
X1018306D01*
Y725199D01*
D02*
G37*
G36*
X820846D02*
Y720998D01*
X825046D01*
X824272Y722867D01*
X822714Y724425D01*
X820846Y725199D01*
D02*
G37*
G36*
X818306D02*
X816438Y724425D01*
X814879Y722867D01*
X814105Y720998D01*
X818306D01*
Y725199D01*
D02*
G37*
G36*
X620846D02*
Y720998D01*
X625046D01*
X624272Y722867D01*
X622714Y724425D01*
X620846Y725199D01*
D02*
G37*
G36*
X618306D02*
X616438Y724425D01*
X614879Y722867D01*
X614105Y720998D01*
X618306D01*
Y725199D01*
D02*
G37*
G36*
X570846D02*
Y720998D01*
X575046D01*
X574272Y722867D01*
X572714Y724425D01*
X570846Y725199D01*
D02*
G37*
G36*
X568306D02*
X566438Y724425D01*
X564879Y722867D01*
X564105Y720998D01*
X568306D01*
Y725199D01*
D02*
G37*
G36*
X520846D02*
Y720998D01*
X525046D01*
X524272Y722867D01*
X522714Y724425D01*
X520846Y725199D01*
D02*
G37*
G36*
X518306D02*
X516438Y724425D01*
X514879Y722867D01*
X514105Y720998D01*
X518306D01*
Y725199D01*
D02*
G37*
G36*
X1075046Y718458D02*
X1070846D01*
Y714258D01*
X1072714Y715032D01*
X1074272Y716590D01*
X1075046Y718458D01*
D02*
G37*
G36*
X1068306D02*
X1064105D01*
X1064879Y716590D01*
X1066438Y715032D01*
X1068306Y714258D01*
Y718458D01*
D02*
G37*
G36*
X1025046D02*
X1020846D01*
Y714258D01*
X1022714Y715032D01*
X1024272Y716590D01*
X1025046Y718458D01*
D02*
G37*
G36*
X1018306D02*
X1014105D01*
X1014879Y716590D01*
X1016438Y715032D01*
X1018306Y714258D01*
Y718458D01*
D02*
G37*
G36*
X825046D02*
X820846D01*
Y714258D01*
X822714Y715032D01*
X824272Y716590D01*
X825046Y718458D01*
D02*
G37*
G36*
X818306D02*
X814105D01*
X814879Y716590D01*
X816438Y715032D01*
X818306Y714258D01*
Y718458D01*
D02*
G37*
G36*
X625046D02*
X620846D01*
Y714258D01*
X622714Y715032D01*
X624272Y716590D01*
X625046Y718458D01*
D02*
G37*
G36*
X618306D02*
X614105D01*
X614879Y716590D01*
X616438Y715032D01*
X618306Y714258D01*
Y718458D01*
D02*
G37*
G36*
X575046D02*
X570846D01*
Y714258D01*
X572714Y715032D01*
X574272Y716590D01*
X575046Y718458D01*
D02*
G37*
G36*
X568306D02*
X564105D01*
X564879Y716590D01*
X566438Y715032D01*
X568306Y714258D01*
Y718458D01*
D02*
G37*
G36*
X525046D02*
X520846D01*
Y714258D01*
X522714Y715032D01*
X524272Y716590D01*
X525046Y718458D01*
D02*
G37*
G36*
X518306D02*
X514105D01*
X514879Y716590D01*
X516438Y715032D01*
X518306Y714258D01*
Y718458D01*
D02*
G37*
G36*
X956330Y732405D02*
X954372Y732147D01*
X952548Y731391D01*
X950981Y730189D01*
X949779Y728622D01*
X949023Y726798D01*
X948765Y724840D01*
Y718840D01*
X949023Y716882D01*
X949779Y715058D01*
X950981Y713491D01*
X952548Y712289D01*
X954372Y711533D01*
X956330Y711275D01*
X958288Y711533D01*
X960112Y712289D01*
X961679Y713491D01*
X962881Y715058D01*
X963637Y716882D01*
X963895Y718840D01*
Y724840D01*
X963637Y726798D01*
X962881Y728622D01*
X961679Y730189D01*
X960112Y731391D01*
X958288Y732147D01*
X956330Y732405D01*
D02*
G37*
G36*
X869930D02*
X867972Y732147D01*
X866148Y731391D01*
X864581Y730189D01*
X863379Y728622D01*
X862623Y726798D01*
X862365Y724840D01*
Y718840D01*
X862623Y716882D01*
X863379Y715058D01*
X864581Y713491D01*
X866148Y712289D01*
X867972Y711533D01*
X869930Y711275D01*
X871888Y711533D01*
X873712Y712289D01*
X875279Y713491D01*
X876481Y715058D01*
X877237Y716882D01*
X877495Y718840D01*
Y724840D01*
X877237Y726798D01*
X876481Y728622D01*
X875279Y730189D01*
X873712Y731391D01*
X871888Y732147D01*
X869930Y732405D01*
D02*
G37*
G36*
X796696Y713889D02*
Y709688D01*
X800896D01*
X800122Y711556D01*
X798564Y713115D01*
X796696Y713889D01*
D02*
G37*
G36*
X794156D02*
X792288Y713115D01*
X790729Y711556D01*
X789955Y709688D01*
X794156D01*
Y713889D01*
D02*
G37*
G36*
X129711Y728820D02*
X129330D01*
Y716280D01*
Y703740D01*
X129711D01*
X132900Y704595D01*
X135760Y706245D01*
X138095Y708580D01*
X138185Y708737D01*
X143858Y708912D01*
X146092Y706678D01*
X148828Y705098D01*
X151880Y704280D01*
X155040D01*
X158092Y705098D01*
X160828Y706678D01*
X163062Y708912D01*
X163320Y709358D01*
X169000D01*
X169258Y708912D01*
X171492Y706678D01*
X174228Y705098D01*
X177280Y704280D01*
X180440D01*
X183492Y705098D01*
X186228Y706678D01*
X188462Y708912D01*
X188720Y709358D01*
X194400D01*
X194658Y708912D01*
X196892Y706678D01*
X199628Y705098D01*
X202680Y704280D01*
X205840D01*
X208892Y705098D01*
X211628Y706678D01*
X213862Y708912D01*
X214120Y709358D01*
X219800D01*
X220058Y708912D01*
X222292Y706678D01*
X225028Y705098D01*
X228080Y704280D01*
X231240D01*
X234292Y705098D01*
X237028Y706678D01*
X239262Y708912D01*
X239520Y709358D01*
X245200D01*
X245458Y708912D01*
X247692Y706678D01*
X250428Y705098D01*
X253480Y704280D01*
X256640D01*
X259692Y705098D01*
X262428Y706678D01*
X264662Y708912D01*
X264920Y709358D01*
X270600D01*
X270858Y708912D01*
X273092Y706678D01*
X275828Y705098D01*
X278880Y704280D01*
X282040D01*
X285092Y705098D01*
X287828Y706678D01*
X290062Y708912D01*
X290320Y709358D01*
X296000D01*
X296258Y708912D01*
X298492Y706678D01*
X301228Y705098D01*
X304280Y704280D01*
X307440D01*
X310492Y705098D01*
X313228Y706678D01*
X315462Y708912D01*
X315720Y709358D01*
X321400D01*
X321658Y708912D01*
X323892Y706678D01*
X326628Y705098D01*
X329680Y704280D01*
X332840D01*
X335892Y705098D01*
X338628Y706678D01*
X340862Y708912D01*
X341120Y709358D01*
X346800D01*
X347058Y708912D01*
X349292Y706678D01*
X352028Y705098D01*
X355080Y704280D01*
X358240D01*
X361292Y705098D01*
X364028Y706678D01*
X366262Y708912D01*
X366520Y709358D01*
X372200D01*
X372458Y708912D01*
X374692Y706678D01*
X377428Y705098D01*
X380480Y704280D01*
X383640D01*
X386692Y705098D01*
X389428Y706678D01*
X391662Y708912D01*
X391920Y709358D01*
X397600D01*
X397858Y708912D01*
X400092Y706678D01*
X402828Y705098D01*
X405880Y704280D01*
X409040D01*
X412092Y705098D01*
X414828Y706678D01*
X417062Y708912D01*
X417320Y709358D01*
X423000D01*
X423258Y708912D01*
X425492Y706678D01*
X428228Y705098D01*
X431280Y704280D01*
X434440D01*
X437492Y705098D01*
X440228Y706678D01*
X442462Y708912D01*
X442720Y709358D01*
X448400D01*
X448658Y708912D01*
X450892Y706678D01*
X453628Y705098D01*
X456680Y704280D01*
X459840D01*
X462892Y705098D01*
X465628Y706678D01*
X467862Y708912D01*
X469442Y711648D01*
X470260Y714700D01*
Y717860D01*
X469442Y720912D01*
X467862Y723648D01*
X465628Y725882D01*
X462892Y727462D01*
X459840Y728280D01*
X456680D01*
X453628Y727462D01*
X450892Y725882D01*
X448658Y723648D01*
X448400Y723202D01*
X442720D01*
X442462Y723648D01*
X440228Y725882D01*
X437492Y727462D01*
X434440Y728280D01*
X431280D01*
X428228Y727462D01*
X425492Y725882D01*
X423258Y723648D01*
X423000Y723202D01*
X417320D01*
X417062Y723648D01*
X414828Y725882D01*
X412092Y727462D01*
X409040Y728280D01*
X405880D01*
X402828Y727462D01*
X400092Y725882D01*
X397858Y723648D01*
X397600Y723202D01*
X391920D01*
X391662Y723648D01*
X389428Y725882D01*
X386692Y727462D01*
X383640Y728280D01*
X380480D01*
X377428Y727462D01*
X374692Y725882D01*
X372458Y723648D01*
X372200Y723202D01*
X366520D01*
X366262Y723648D01*
X364028Y725882D01*
X361292Y727462D01*
X358240Y728280D01*
X355080D01*
X352028Y727462D01*
X349292Y725882D01*
X347058Y723648D01*
X346800Y723202D01*
X341120D01*
X340862Y723648D01*
X338628Y725882D01*
X335892Y727462D01*
X332840Y728280D01*
X329680D01*
X326628Y727462D01*
X323892Y725882D01*
X321658Y723648D01*
X321400Y723202D01*
X315720D01*
X315462Y723648D01*
X313228Y725882D01*
X310492Y727462D01*
X307440Y728280D01*
X304280D01*
X301228Y727462D01*
X298492Y725882D01*
X296258Y723648D01*
X296000Y723202D01*
X290320D01*
X290062Y723648D01*
X287828Y725882D01*
X285092Y727462D01*
X282040Y728280D01*
X278880D01*
X275828Y727462D01*
X273092Y725882D01*
X270858Y723648D01*
X270600Y723202D01*
X264920D01*
X264662Y723648D01*
X262428Y725882D01*
X259692Y727462D01*
X256640Y728280D01*
X253480D01*
X250428Y727462D01*
X247692Y725882D01*
X245458Y723648D01*
X245200Y723202D01*
X239520D01*
X239262Y723648D01*
X237028Y725882D01*
X234292Y727462D01*
X231240Y728280D01*
X228080D01*
X225028Y727462D01*
X222292Y725882D01*
X220058Y723648D01*
X219800Y723202D01*
X214120D01*
X213862Y723648D01*
X211628Y725882D01*
X208892Y727462D01*
X205840Y728280D01*
X202680D01*
X199628Y727462D01*
X196892Y725882D01*
X194658Y723648D01*
X194400Y723202D01*
X188720D01*
X188462Y723648D01*
X186228Y725882D01*
X183492Y727462D01*
X180440Y728280D01*
X177280D01*
X174228Y727462D01*
X171492Y725882D01*
X169258Y723648D01*
X169000Y723202D01*
X163320D01*
X163062Y723648D01*
X160828Y725882D01*
X158092Y727462D01*
X155040Y728280D01*
X151880D01*
X148828Y727462D01*
X146092Y725882D01*
X143858Y723648D01*
X138185Y723823D01*
X138095Y723980D01*
X135760Y726314D01*
X132900Y727965D01*
X129711Y728820D01*
D02*
G37*
G36*
X800896Y707148D02*
X796696D01*
Y702948D01*
X798564Y703722D01*
X800122Y705280D01*
X800896Y707148D01*
D02*
G37*
G36*
X794156D02*
X789955D01*
X790729Y705280D01*
X792288Y703722D01*
X794156Y702948D01*
Y707148D01*
D02*
G37*
G36*
X820826Y701704D02*
Y697504D01*
X825026D01*
X824252Y699372D01*
X822694Y700930D01*
X820826Y701704D01*
D02*
G37*
G36*
X818286D02*
X816417Y700930D01*
X814859Y699372D01*
X814085Y697504D01*
X818286D01*
Y701704D01*
D02*
G37*
G36*
X754786Y699919D02*
Y695718D01*
X758986D01*
X758212Y697587D01*
X756654Y699145D01*
X754786Y699919D01*
D02*
G37*
G36*
X752246D02*
X750378Y699145D01*
X748819Y697587D01*
X748045Y695718D01*
X752246D01*
Y699919D01*
D02*
G37*
G36*
X494234Y728580D02*
X490886D01*
X487601Y727927D01*
X484507Y726645D01*
X481723Y724785D01*
X479355Y722417D01*
X477495Y719632D01*
X476213Y716539D01*
X475560Y713254D01*
Y709906D01*
X476213Y706621D01*
X477495Y703528D01*
X479355Y700743D01*
X481723Y698375D01*
X484507Y696515D01*
X487601Y695233D01*
X490886Y694580D01*
X494234D01*
X497519Y695233D01*
X500612Y696515D01*
X503397Y698375D01*
X505765Y700743D01*
X507625Y703528D01*
X508907Y706621D01*
X509560Y709906D01*
Y713254D01*
X508907Y716539D01*
X507625Y719632D01*
X505765Y722417D01*
X503397Y724785D01*
X500612Y726645D01*
X497519Y727927D01*
X494234Y728580D01*
D02*
G37*
G36*
X825026Y694964D02*
X820826D01*
Y690763D01*
X822694Y691537D01*
X824252Y693096D01*
X825026Y694964D01*
D02*
G37*
G36*
X818286D02*
X814085D01*
X814859Y693096D01*
X816417Y691537D01*
X818286Y690763D01*
Y694964D01*
D02*
G37*
G36*
X758986Y693178D02*
X754786D01*
Y688978D01*
X756654Y689752D01*
X758212Y691310D01*
X758986Y693178D01*
D02*
G37*
G36*
X752246D02*
X748045D01*
X748819Y691310D01*
X750378Y689752D01*
X752246Y688978D01*
Y693178D01*
D02*
G37*
G36*
X795846Y675199D02*
Y670998D01*
X800046D01*
X799272Y672867D01*
X797714Y674425D01*
X795846Y675199D01*
D02*
G37*
G36*
X793306D02*
X791438Y674425D01*
X789879Y672867D01*
X789105Y670998D01*
X793306D01*
Y675199D01*
D02*
G37*
G36*
X821690Y674760D02*
Y670560D01*
X825890D01*
X825117Y672428D01*
X823558Y673987D01*
X821690Y674760D01*
D02*
G37*
G36*
X819150D02*
X817282Y673987D01*
X815723Y672428D01*
X814950Y670560D01*
X819150D01*
Y674760D01*
D02*
G37*
G36*
X800046Y668458D02*
X795846D01*
Y664258D01*
X797714Y665032D01*
X799272Y666590D01*
X800046Y668458D01*
D02*
G37*
G36*
X793306D02*
X789105D01*
X789879Y666590D01*
X791438Y665032D01*
X793306Y664258D01*
Y668458D01*
D02*
G37*
G36*
X825890Y668020D02*
X821690D01*
Y663820D01*
X823558Y664593D01*
X825117Y666152D01*
X825890Y668020D01*
D02*
G37*
G36*
X819150D02*
X814950D01*
X815723Y666152D01*
X817282Y664593D01*
X819150Y663820D01*
Y668020D01*
D02*
G37*
G36*
X754656Y667081D02*
Y662881D01*
X758856D01*
X758082Y664749D01*
X756524Y666307D01*
X754656Y667081D01*
D02*
G37*
G36*
X752116D02*
X750248Y666307D01*
X748689Y664749D01*
X747915Y662881D01*
X752116D01*
Y667081D01*
D02*
G37*
G36*
X621030Y662060D02*
Y657860D01*
X625230D01*
X624457Y659728D01*
X622898Y661287D01*
X621030Y662060D01*
D02*
G37*
G36*
X618490D02*
X616622Y661287D01*
X615063Y659728D01*
X614290Y657860D01*
X618490D01*
Y662060D01*
D02*
G37*
G36*
X758856Y660341D02*
X754656D01*
Y656140D01*
X756524Y656914D01*
X758082Y658473D01*
X758856Y660341D01*
D02*
G37*
G36*
X752116D02*
X747915D01*
X748689Y658473D01*
X750248Y656914D01*
X752116Y656140D01*
Y660341D01*
D02*
G37*
G36*
X625230Y655320D02*
X621030D01*
Y651120D01*
X622898Y651893D01*
X624457Y653452D01*
X625230Y655320D01*
D02*
G37*
G36*
X618490D02*
X614290D01*
X615063Y653452D01*
X616622Y651893D01*
X618490Y651120D01*
Y655320D01*
D02*
G37*
G36*
X922020Y644280D02*
Y640080D01*
X926220D01*
X925447Y641948D01*
X923888Y643507D01*
X922020Y644280D01*
D02*
G37*
G36*
X919480D02*
X917612Y643507D01*
X916053Y641948D01*
X915280Y640080D01*
X919480D01*
Y644280D01*
D02*
G37*
G36*
X891540Y644822D02*
Y640080D01*
X896282D01*
X895390Y642231D01*
X893691Y643931D01*
X891540Y644822D01*
D02*
G37*
G36*
X889000D02*
X886849Y643931D01*
X885150Y642231D01*
X884258Y640080D01*
X889000D01*
Y644822D01*
D02*
G37*
G36*
X795020Y644280D02*
Y640080D01*
X799220D01*
X798447Y641948D01*
X796888Y643507D01*
X795020Y644280D01*
D02*
G37*
G36*
X792480D02*
X790612Y643507D01*
X789053Y641948D01*
X788280Y640080D01*
X792480D01*
Y644280D01*
D02*
G37*
G36*
X820420Y643010D02*
Y638810D01*
X824620D01*
X823847Y640678D01*
X822288Y642237D01*
X820420Y643010D01*
D02*
G37*
G36*
X817880D02*
X816012Y642237D01*
X814453Y640678D01*
X813680Y638810D01*
X817880D01*
Y643010D01*
D02*
G37*
G36*
X926220Y637540D02*
X922020D01*
Y633340D01*
X923888Y634113D01*
X925447Y635672D01*
X926220Y637540D01*
D02*
G37*
G36*
X919480D02*
X915280D01*
X916053Y635672D01*
X917612Y634113D01*
X919480Y633340D01*
Y637540D01*
D02*
G37*
G36*
X799220D02*
X795020D01*
Y633340D01*
X796888Y634113D01*
X798447Y635672D01*
X799220Y637540D01*
D02*
G37*
G36*
X792480D02*
X788280D01*
X789053Y635672D01*
X790612Y634113D01*
X792480Y633340D01*
Y637540D01*
D02*
G37*
G36*
X896282D02*
X891540D01*
Y632798D01*
X893691Y633689D01*
X895390Y635389D01*
X896282Y637540D01*
D02*
G37*
G36*
X889000D02*
X884258D01*
X885150Y635389D01*
X886849Y633689D01*
X889000Y632798D01*
Y637540D01*
D02*
G37*
G36*
X824620Y636270D02*
X820420D01*
Y632070D01*
X822288Y632843D01*
X823847Y634402D01*
X824620Y636270D01*
D02*
G37*
G36*
X817880D02*
X813680D01*
X814453Y634402D01*
X816012Y632843D01*
X817880Y632070D01*
Y636270D01*
D02*
G37*
G36*
X754786Y633879D02*
Y629678D01*
X758986D01*
X758212Y631547D01*
X756654Y633105D01*
X754786Y633879D01*
D02*
G37*
G36*
X752246D02*
X750378Y633105D01*
X748819Y631547D01*
X748045Y629678D01*
X752246D01*
Y633879D01*
D02*
G37*
G36*
X758986Y627138D02*
X754786D01*
Y622938D01*
X756654Y623712D01*
X758212Y625270D01*
X758986Y627138D01*
D02*
G37*
G36*
X752246D02*
X748045D01*
X748819Y625270D01*
X750378Y623712D01*
X752246Y622938D01*
Y627138D01*
D02*
G37*
G36*
X528320Y626500D02*
Y622300D01*
X532520D01*
X531747Y624168D01*
X530188Y625727D01*
X528320Y626500D01*
D02*
G37*
G36*
X525780D02*
X523912Y625727D01*
X522353Y624168D01*
X521580Y622300D01*
X525780D01*
Y626500D01*
D02*
G37*
G36*
X620846Y625199D02*
Y620998D01*
X625046D01*
X624272Y622867D01*
X622714Y624425D01*
X620846Y625199D01*
D02*
G37*
G36*
X618306D02*
X616438Y624425D01*
X614879Y622867D01*
X614105Y620998D01*
X618306D01*
Y625199D01*
D02*
G37*
G36*
X570846D02*
Y620998D01*
X575046D01*
X574272Y622867D01*
X572714Y624425D01*
X570846Y625199D01*
D02*
G37*
G36*
X568306D02*
X566438Y624425D01*
X564879Y622867D01*
X564105Y620998D01*
X568306D01*
Y625199D01*
D02*
G37*
G36*
X420846D02*
Y620998D01*
X425046D01*
X424272Y622867D01*
X422714Y624425D01*
X420846Y625199D01*
D02*
G37*
G36*
X418306D02*
X416438Y624425D01*
X414879Y622867D01*
X414105Y620998D01*
X418306D01*
Y625199D01*
D02*
G37*
G36*
X370846D02*
Y620998D01*
X375046D01*
X374272Y622867D01*
X372714Y624425D01*
X370846Y625199D01*
D02*
G37*
G36*
X368306D02*
X366438Y624425D01*
X364879Y622867D01*
X364105Y620998D01*
X368306D01*
Y625199D01*
D02*
G37*
G36*
X320846D02*
Y620998D01*
X325046D01*
X324272Y622867D01*
X322714Y624425D01*
X320846Y625199D01*
D02*
G37*
G36*
X318306D02*
X316438Y624425D01*
X314879Y622867D01*
X314105Y620998D01*
X318306D01*
Y625199D01*
D02*
G37*
G36*
X270846D02*
Y620998D01*
X275046D01*
X274272Y622867D01*
X272714Y624425D01*
X270846Y625199D01*
D02*
G37*
G36*
X268306D02*
X266438Y624425D01*
X264879Y622867D01*
X264105Y620998D01*
X268306D01*
Y625199D01*
D02*
G37*
G36*
X220846D02*
Y620998D01*
X225046D01*
X224272Y622867D01*
X222714Y624425D01*
X220846Y625199D01*
D02*
G37*
G36*
X218306D02*
X216438Y624425D01*
X214879Y622867D01*
X214105Y620998D01*
X218306D01*
Y625199D01*
D02*
G37*
G36*
X170846D02*
Y620998D01*
X175046D01*
X174272Y622867D01*
X172714Y624425D01*
X170846Y625199D01*
D02*
G37*
G36*
X168306D02*
X166438Y624425D01*
X164879Y622867D01*
X164105Y620998D01*
X168306D01*
Y625199D01*
D02*
G37*
G36*
X120846D02*
Y620998D01*
X125046D01*
X124272Y622867D01*
X122714Y624425D01*
X120846Y625199D01*
D02*
G37*
G36*
X118306D02*
X116438Y624425D01*
X114879Y622867D01*
X114105Y620998D01*
X118306D01*
Y625199D01*
D02*
G37*
G36*
X20846D02*
Y620998D01*
X25046D01*
X24272Y622867D01*
X22714Y624425D01*
X20846Y625199D01*
D02*
G37*
G36*
X18306D02*
X16438Y624425D01*
X14879Y622867D01*
X14105Y620998D01*
X18306D01*
Y625199D01*
D02*
G37*
G36*
X532520Y619760D02*
X528320D01*
Y615560D01*
X530188Y616333D01*
X531747Y617892D01*
X532520Y619760D01*
D02*
G37*
G36*
X525780D02*
X521580D01*
X522353Y617892D01*
X523912Y616333D01*
X525780Y615560D01*
Y619760D01*
D02*
G37*
G36*
X625046Y618458D02*
X620846D01*
Y614258D01*
X622714Y615032D01*
X624272Y616590D01*
X625046Y618458D01*
D02*
G37*
G36*
X618306D02*
X614105D01*
X614879Y616590D01*
X616438Y615032D01*
X618306Y614258D01*
Y618458D01*
D02*
G37*
G36*
X575046D02*
X570846D01*
Y614258D01*
X572714Y615032D01*
X574272Y616590D01*
X575046Y618458D01*
D02*
G37*
G36*
X568306D02*
X564105D01*
X564879Y616590D01*
X566438Y615032D01*
X568306Y614258D01*
Y618458D01*
D02*
G37*
G36*
X425046D02*
X420846D01*
Y614258D01*
X422714Y615032D01*
X424272Y616590D01*
X425046Y618458D01*
D02*
G37*
G36*
X418306D02*
X414105D01*
X414879Y616590D01*
X416438Y615032D01*
X418306Y614258D01*
Y618458D01*
D02*
G37*
G36*
X375046D02*
X370846D01*
Y614258D01*
X372714Y615032D01*
X374272Y616590D01*
X375046Y618458D01*
D02*
G37*
G36*
X368306D02*
X364105D01*
X364879Y616590D01*
X366438Y615032D01*
X368306Y614258D01*
Y618458D01*
D02*
G37*
G36*
X325046D02*
X320846D01*
Y614258D01*
X322714Y615032D01*
X324272Y616590D01*
X325046Y618458D01*
D02*
G37*
G36*
X318306D02*
X314105D01*
X314879Y616590D01*
X316438Y615032D01*
X318306Y614258D01*
Y618458D01*
D02*
G37*
G36*
X275046D02*
X270846D01*
Y614258D01*
X272714Y615032D01*
X274272Y616590D01*
X275046Y618458D01*
D02*
G37*
G36*
X268306D02*
X264105D01*
X264879Y616590D01*
X266438Y615032D01*
X268306Y614258D01*
Y618458D01*
D02*
G37*
G36*
X225046D02*
X220846D01*
Y614258D01*
X222714Y615032D01*
X224272Y616590D01*
X225046Y618458D01*
D02*
G37*
G36*
X218306D02*
X214105D01*
X214879Y616590D01*
X216438Y615032D01*
X218306Y614258D01*
Y618458D01*
D02*
G37*
G36*
X175046D02*
X170846D01*
Y614258D01*
X172714Y615032D01*
X174272Y616590D01*
X175046Y618458D01*
D02*
G37*
G36*
X168306D02*
X164105D01*
X164879Y616590D01*
X166438Y615032D01*
X168306Y614258D01*
Y618458D01*
D02*
G37*
G36*
X125046D02*
X120846D01*
Y614258D01*
X122714Y615032D01*
X124272Y616590D01*
X125046Y618458D01*
D02*
G37*
G36*
X118306D02*
X114105D01*
X114879Y616590D01*
X116438Y615032D01*
X118306Y614258D01*
Y618458D01*
D02*
G37*
G36*
X25046D02*
X20846D01*
Y614258D01*
X22714Y615032D01*
X24272Y616590D01*
X25046Y618458D01*
D02*
G37*
G36*
X18306D02*
X14105D01*
X14879Y616590D01*
X16438Y615032D01*
X18306Y614258D01*
Y618458D01*
D02*
G37*
G36*
X670560Y607450D02*
Y603250D01*
X674760D01*
X673987Y605118D01*
X672428Y606677D01*
X670560Y607450D01*
D02*
G37*
G36*
X668020D02*
X666152Y606677D01*
X664593Y605118D01*
X663820Y603250D01*
X668020D01*
Y607450D01*
D02*
G37*
G36*
X796696Y607209D02*
Y603008D01*
X800896D01*
X800122Y604877D01*
X798564Y606435D01*
X796696Y607209D01*
D02*
G37*
G36*
X794156D02*
X792288Y606435D01*
X790729Y604877D01*
X789955Y603008D01*
X794156D01*
Y607209D01*
D02*
G37*
G36*
X754786Y604669D02*
Y600468D01*
X758986D01*
X758212Y602337D01*
X756654Y603895D01*
X754786Y604669D01*
D02*
G37*
G36*
X752246D02*
X750378Y603895D01*
X748819Y602337D01*
X748045Y600468D01*
X752246D01*
Y604669D01*
D02*
G37*
G36*
X674760Y600710D02*
X670560D01*
Y596510D01*
X672428Y597283D01*
X673987Y598842D01*
X674760Y600710D01*
D02*
G37*
G36*
X668020D02*
X663820D01*
X664593Y598842D01*
X666152Y597283D01*
X668020Y596510D01*
Y600710D01*
D02*
G37*
G36*
X800896Y600468D02*
X796696D01*
Y596268D01*
X798564Y597042D01*
X800122Y598600D01*
X800896Y600468D01*
D02*
G37*
G36*
X794156D02*
X789955D01*
X790729Y598600D01*
X792288Y597042D01*
X794156Y596268D01*
Y600468D01*
D02*
G37*
G36*
X758986Y597928D02*
X754786D01*
Y593728D01*
X756654Y594502D01*
X758212Y596060D01*
X758986Y597928D01*
D02*
G37*
G36*
X752246D02*
X748045D01*
X748819Y596060D01*
X750378Y594502D01*
X752246Y593728D01*
Y597928D01*
D02*
G37*
G36*
X832256Y597049D02*
Y592848D01*
X836456D01*
X835682Y594716D01*
X834124Y596275D01*
X832256Y597049D01*
D02*
G37*
G36*
X829716D02*
X827848Y596275D01*
X826289Y594716D01*
X825515Y592848D01*
X829716D01*
Y597049D01*
D02*
G37*
G36*
X974090Y596562D02*
Y591820D01*
X978832D01*
X977941Y593971D01*
X976241Y595671D01*
X974090Y596562D01*
D02*
G37*
G36*
X971550D02*
X969399Y595671D01*
X967700Y593971D01*
X966808Y591820D01*
X971550D01*
Y596562D01*
D02*
G37*
G36*
X836456Y590308D02*
X832256D01*
Y586108D01*
X834124Y586882D01*
X835682Y588440D01*
X836456Y590308D01*
D02*
G37*
G36*
X829716D02*
X825515D01*
X826289Y588440D01*
X827848Y586882D01*
X829716Y586108D01*
Y590308D01*
D02*
G37*
G36*
X978832Y589280D02*
X974090D01*
Y584538D01*
X976241Y585429D01*
X977941Y587129D01*
X978832Y589280D01*
D02*
G37*
G36*
X971550D02*
X966808D01*
X967700Y587129D01*
X969399Y585429D01*
X971550Y584538D01*
Y589280D01*
D02*
G37*
G36*
X1058880Y584673D02*
Y580473D01*
X1063080D01*
X1062306Y582341D01*
X1060748Y583899D01*
X1058880Y584673D01*
D02*
G37*
G36*
X1056340D02*
X1054472Y583899D01*
X1052913Y582341D01*
X1052139Y580473D01*
X1056340D01*
Y584673D01*
D02*
G37*
G36*
X879222Y584053D02*
Y579311D01*
X883964D01*
X883073Y581463D01*
X881373Y583162D01*
X879222Y584053D01*
D02*
G37*
G36*
X876682D02*
X874531Y583162D01*
X872832Y581463D01*
X871940Y579311D01*
X876682D01*
Y584053D01*
D02*
G37*
G36*
X939800Y583320D02*
Y579120D01*
X944000D01*
X943227Y580988D01*
X941668Y582547D01*
X939800Y583320D01*
D02*
G37*
G36*
X937260D02*
X935392Y582547D01*
X933833Y580988D01*
X933060Y579120D01*
X937260D01*
Y583320D01*
D02*
G37*
G36*
X922020Y583862D02*
Y579120D01*
X926762D01*
X925871Y581271D01*
X924171Y582971D01*
X922020Y583862D01*
D02*
G37*
G36*
X919480D02*
X917329Y582971D01*
X915630Y581271D01*
X914738Y579120D01*
X919480D01*
Y583862D01*
D02*
G37*
G36*
X1107234Y582939D02*
Y578739D01*
X1111434D01*
X1110660Y580607D01*
X1109102Y582166D01*
X1107234Y582939D01*
D02*
G37*
G36*
X1104694D02*
X1102826Y582166D01*
X1101267Y580607D01*
X1100493Y578739D01*
X1104694D01*
Y582939D01*
D02*
G37*
G36*
X754786Y577999D02*
Y573798D01*
X758986D01*
X758212Y575667D01*
X756654Y577225D01*
X754786Y577999D01*
D02*
G37*
G36*
X752246D02*
X750378Y577225D01*
X748819Y575667D01*
X748045Y573798D01*
X752246D01*
Y577999D01*
D02*
G37*
G36*
X1063080Y577933D02*
X1058880D01*
Y573732D01*
X1060748Y574506D01*
X1062306Y576065D01*
X1063080Y577933D01*
D02*
G37*
G36*
X1056340D02*
X1052139D01*
X1052913Y576065D01*
X1054472Y574506D01*
X1056340Y573732D01*
Y577933D01*
D02*
G37*
G36*
X944000Y576580D02*
X939800D01*
Y572380D01*
X941668Y573153D01*
X943227Y574712D01*
X944000Y576580D01*
D02*
G37*
G36*
X937260D02*
X933060D01*
X933833Y574712D01*
X935392Y573153D01*
X937260Y572380D01*
Y576580D01*
D02*
G37*
G36*
X883964Y576772D02*
X879222D01*
Y572030D01*
X881373Y572921D01*
X883073Y574620D01*
X883964Y576772D01*
D02*
G37*
G36*
X876682D02*
X871940D01*
X872832Y574620D01*
X874531Y572921D01*
X876682Y572030D01*
Y576772D01*
D02*
G37*
G36*
X1111434Y576199D02*
X1107234D01*
Y571999D01*
X1109102Y572772D01*
X1110660Y574331D01*
X1111434Y576199D01*
D02*
G37*
G36*
X1104694D02*
X1100493D01*
X1101267Y574331D01*
X1102826Y572772D01*
X1104694Y571999D01*
Y576199D01*
D02*
G37*
G36*
X926762Y576580D02*
X922020D01*
Y571838D01*
X924171Y572729D01*
X925871Y574429D01*
X926762Y576580D01*
D02*
G37*
G36*
X919480D02*
X914738D01*
X915630Y574429D01*
X917329Y572729D01*
X919480Y571838D01*
Y576580D01*
D02*
G37*
G36*
X795846Y575199D02*
Y570998D01*
X800046D01*
X799272Y572867D01*
X797714Y574425D01*
X795846Y575199D01*
D02*
G37*
G36*
X793306D02*
X791438Y574425D01*
X789879Y572867D01*
X789105Y570998D01*
X793306D01*
Y575199D01*
D02*
G37*
G36*
X645846D02*
Y570998D01*
X650046D01*
X649272Y572867D01*
X647714Y574425D01*
X645846Y575199D01*
D02*
G37*
G36*
X643306D02*
X641438Y574425D01*
X639879Y572867D01*
X639105Y570998D01*
X643306D01*
Y575199D01*
D02*
G37*
G36*
X595846D02*
Y570998D01*
X600046D01*
X599272Y572867D01*
X597714Y574425D01*
X595846Y575199D01*
D02*
G37*
G36*
X593306D02*
X591438Y574425D01*
X589879Y572867D01*
X589105Y570998D01*
X593306D01*
Y575199D01*
D02*
G37*
G36*
X545846D02*
Y570998D01*
X550046D01*
X549272Y572867D01*
X547714Y574425D01*
X545846Y575199D01*
D02*
G37*
G36*
X543306D02*
X541438Y574425D01*
X539879Y572867D01*
X539105Y570998D01*
X543306D01*
Y575199D01*
D02*
G37*
G36*
X395846D02*
Y570998D01*
X400046D01*
X399272Y572867D01*
X397714Y574425D01*
X395846Y575199D01*
D02*
G37*
G36*
X393306D02*
X391438Y574425D01*
X389879Y572867D01*
X389105Y570998D01*
X393306D01*
Y575199D01*
D02*
G37*
G36*
X345846D02*
Y570998D01*
X350046D01*
X349272Y572867D01*
X347714Y574425D01*
X345846Y575199D01*
D02*
G37*
G36*
X343306D02*
X341438Y574425D01*
X339879Y572867D01*
X339105Y570998D01*
X343306D01*
Y575199D01*
D02*
G37*
G36*
X295846D02*
Y570998D01*
X300046D01*
X299272Y572867D01*
X297714Y574425D01*
X295846Y575199D01*
D02*
G37*
G36*
X293306D02*
X291438Y574425D01*
X289879Y572867D01*
X289105Y570998D01*
X293306D01*
Y575199D01*
D02*
G37*
G36*
X245846D02*
Y570998D01*
X250046D01*
X249272Y572867D01*
X247714Y574425D01*
X245846Y575199D01*
D02*
G37*
G36*
X243306D02*
X241438Y574425D01*
X239879Y572867D01*
X239105Y570998D01*
X243306D01*
Y575199D01*
D02*
G37*
G36*
X195846D02*
Y570998D01*
X200046D01*
X199272Y572867D01*
X197714Y574425D01*
X195846Y575199D01*
D02*
G37*
G36*
X193306D02*
X191438Y574425D01*
X189879Y572867D01*
X189105Y570998D01*
X193306D01*
Y575199D01*
D02*
G37*
G36*
X145846D02*
Y570998D01*
X150046D01*
X149272Y572867D01*
X147714Y574425D01*
X145846Y575199D01*
D02*
G37*
G36*
X143306D02*
X141438Y574425D01*
X139879Y572867D01*
X139105Y570998D01*
X143306D01*
Y575199D01*
D02*
G37*
G36*
X95846D02*
Y570998D01*
X100046D01*
X99272Y572867D01*
X97714Y574425D01*
X95846Y575199D01*
D02*
G37*
G36*
X93306D02*
X91438Y574425D01*
X89879Y572867D01*
X89105Y570998D01*
X93306D01*
Y575199D01*
D02*
G37*
G36*
X758986Y571258D02*
X754786D01*
Y567058D01*
X756654Y567832D01*
X758212Y569390D01*
X758986Y571258D01*
D02*
G37*
G36*
X752246D02*
X748045D01*
X748819Y569390D01*
X750378Y567832D01*
X752246Y567058D01*
Y571258D01*
D02*
G37*
G36*
X800046Y568458D02*
X795846D01*
Y564258D01*
X797714Y565032D01*
X799272Y566590D01*
X800046Y568458D01*
D02*
G37*
G36*
X793306D02*
X789105D01*
X789879Y566590D01*
X791438Y565032D01*
X793306Y564258D01*
Y568458D01*
D02*
G37*
G36*
X650046D02*
X645846D01*
Y564258D01*
X647714Y565032D01*
X649272Y566590D01*
X650046Y568458D01*
D02*
G37*
G36*
X643306D02*
X639105D01*
X639879Y566590D01*
X641438Y565032D01*
X643306Y564258D01*
Y568458D01*
D02*
G37*
G36*
X600046D02*
X595846D01*
Y564258D01*
X597714Y565032D01*
X599272Y566590D01*
X600046Y568458D01*
D02*
G37*
G36*
X593306D02*
X589105D01*
X589879Y566590D01*
X591438Y565032D01*
X593306Y564258D01*
Y568458D01*
D02*
G37*
G36*
X550046D02*
X545846D01*
Y564258D01*
X547714Y565032D01*
X549272Y566590D01*
X550046Y568458D01*
D02*
G37*
G36*
X543306D02*
X539105D01*
X539879Y566590D01*
X541438Y565032D01*
X543306Y564258D01*
Y568458D01*
D02*
G37*
G36*
X400046D02*
X395846D01*
Y564258D01*
X397714Y565032D01*
X399272Y566590D01*
X400046Y568458D01*
D02*
G37*
G36*
X393306D02*
X389105D01*
X389879Y566590D01*
X391438Y565032D01*
X393306Y564258D01*
Y568458D01*
D02*
G37*
G36*
X350046D02*
X345846D01*
Y564258D01*
X347714Y565032D01*
X349272Y566590D01*
X350046Y568458D01*
D02*
G37*
G36*
X343306D02*
X339105D01*
X339879Y566590D01*
X341438Y565032D01*
X343306Y564258D01*
Y568458D01*
D02*
G37*
G36*
X300046D02*
X295846D01*
Y564258D01*
X297714Y565032D01*
X299272Y566590D01*
X300046Y568458D01*
D02*
G37*
G36*
X293306D02*
X289105D01*
X289879Y566590D01*
X291438Y565032D01*
X293306Y564258D01*
Y568458D01*
D02*
G37*
G36*
X250046D02*
X245846D01*
Y564258D01*
X247714Y565032D01*
X249272Y566590D01*
X250046Y568458D01*
D02*
G37*
G36*
X243306D02*
X239105D01*
X239879Y566590D01*
X241438Y565032D01*
X243306Y564258D01*
Y568458D01*
D02*
G37*
G36*
X200046D02*
X195846D01*
Y564258D01*
X197714Y565032D01*
X199272Y566590D01*
X200046Y568458D01*
D02*
G37*
G36*
X193306D02*
X189105D01*
X189879Y566590D01*
X191438Y565032D01*
X193306Y564258D01*
Y568458D01*
D02*
G37*
G36*
X150046D02*
X145846D01*
Y564258D01*
X147714Y565032D01*
X149272Y566590D01*
X150046Y568458D01*
D02*
G37*
G36*
X143306D02*
X139105D01*
X139879Y566590D01*
X141438Y565032D01*
X143306Y564258D01*
Y568458D01*
D02*
G37*
G36*
X100046D02*
X95846D01*
Y564258D01*
X97714Y565032D01*
X99272Y566590D01*
X100046Y568458D01*
D02*
G37*
G36*
X93306D02*
X89105D01*
X89879Y566590D01*
X91438Y565032D01*
X93306Y564258D01*
Y568458D01*
D02*
G37*
G36*
X1115710Y562640D02*
X1107440D01*
Y556620D01*
X1115710D01*
Y562640D01*
D02*
G37*
G36*
X1067450D02*
X1059180D01*
Y556620D01*
X1067450D01*
Y562640D01*
D02*
G37*
G36*
X1056640D02*
X1048370D01*
Y556620D01*
X1056640D01*
Y562640D01*
D02*
G37*
G36*
X1104900D02*
X1096630D01*
Y556620D01*
X1104900D01*
Y562640D01*
D02*
G37*
G36*
X797560Y540140D02*
Y535940D01*
X801760D01*
X800987Y537808D01*
X799428Y539367D01*
X797560Y540140D01*
D02*
G37*
G36*
X795020D02*
X793152Y539367D01*
X791593Y537808D01*
X790820Y535940D01*
X795020D01*
Y540140D01*
D02*
G37*
G36*
X801760Y533400D02*
X797560D01*
Y529200D01*
X799428Y529973D01*
X800987Y531532D01*
X801760Y533400D01*
D02*
G37*
G36*
X795020D02*
X790820D01*
X791593Y531532D01*
X793152Y529973D01*
X795020Y529200D01*
Y533400D01*
D02*
G37*
G36*
X620846Y525199D02*
Y520998D01*
X625046D01*
X624272Y522867D01*
X622714Y524425D01*
X620846Y525199D01*
D02*
G37*
G36*
X618306D02*
X616438Y524425D01*
X614879Y522867D01*
X614105Y520998D01*
X618306D01*
Y525199D01*
D02*
G37*
G36*
X570846D02*
Y520998D01*
X575046D01*
X574272Y522867D01*
X572714Y524425D01*
X570846Y525199D01*
D02*
G37*
G36*
X568306D02*
X566438Y524425D01*
X564879Y522867D01*
X564105Y520998D01*
X568306D01*
Y525199D01*
D02*
G37*
G36*
X420846D02*
Y520998D01*
X425046D01*
X424272Y522867D01*
X422714Y524425D01*
X420846Y525199D01*
D02*
G37*
G36*
X418306D02*
X416438Y524425D01*
X414879Y522867D01*
X414105Y520998D01*
X418306D01*
Y525199D01*
D02*
G37*
G36*
X370846D02*
Y520998D01*
X375046D01*
X374272Y522867D01*
X372714Y524425D01*
X370846Y525199D01*
D02*
G37*
G36*
X368306D02*
X366438Y524425D01*
X364879Y522867D01*
X364105Y520998D01*
X368306D01*
Y525199D01*
D02*
G37*
G36*
X320846D02*
Y520998D01*
X325046D01*
X324272Y522867D01*
X322714Y524425D01*
X320846Y525199D01*
D02*
G37*
G36*
X318306D02*
X316438Y524425D01*
X314879Y522867D01*
X314105Y520998D01*
X318306D01*
Y525199D01*
D02*
G37*
G36*
X270846D02*
Y520998D01*
X275046D01*
X274272Y522867D01*
X272714Y524425D01*
X270846Y525199D01*
D02*
G37*
G36*
X268306D02*
X266438Y524425D01*
X264879Y522867D01*
X264105Y520998D01*
X268306D01*
Y525199D01*
D02*
G37*
G36*
X220846D02*
Y520998D01*
X225046D01*
X224272Y522867D01*
X222714Y524425D01*
X220846Y525199D01*
D02*
G37*
G36*
X218306D02*
X216438Y524425D01*
X214879Y522867D01*
X214105Y520998D01*
X218306D01*
Y525199D01*
D02*
G37*
G36*
X170846D02*
Y520998D01*
X175046D01*
X174272Y522867D01*
X172714Y524425D01*
X170846Y525199D01*
D02*
G37*
G36*
X168306D02*
X166438Y524425D01*
X164879Y522867D01*
X164105Y520998D01*
X168306D01*
Y525199D01*
D02*
G37*
G36*
X120846D02*
Y520998D01*
X125046D01*
X124272Y522867D01*
X122714Y524425D01*
X120846Y525199D01*
D02*
G37*
G36*
X118306D02*
X116438Y524425D01*
X114879Y522867D01*
X114105Y520998D01*
X118306D01*
Y525199D01*
D02*
G37*
G36*
X20846D02*
Y520998D01*
X25046D01*
X24272Y522867D01*
X22714Y524425D01*
X20846Y525199D01*
D02*
G37*
G36*
X18306D02*
X16438Y524425D01*
X14879Y522867D01*
X14105Y520998D01*
X18306D01*
Y525199D01*
D02*
G37*
G36*
X528320Y522360D02*
Y518160D01*
X532520D01*
X531747Y520028D01*
X530188Y521587D01*
X528320Y522360D01*
D02*
G37*
G36*
X525780D02*
X523912Y521587D01*
X522353Y520028D01*
X521580Y518160D01*
X525780D01*
Y522360D01*
D02*
G37*
G36*
X625046Y518458D02*
X620846D01*
Y514258D01*
X622714Y515032D01*
X624272Y516590D01*
X625046Y518458D01*
D02*
G37*
G36*
X618306D02*
X614105D01*
X614879Y516590D01*
X616438Y515032D01*
X618306Y514258D01*
Y518458D01*
D02*
G37*
G36*
X575046D02*
X570846D01*
Y514258D01*
X572714Y515032D01*
X574272Y516590D01*
X575046Y518458D01*
D02*
G37*
G36*
X568306D02*
X564105D01*
X564879Y516590D01*
X566438Y515032D01*
X568306Y514258D01*
Y518458D01*
D02*
G37*
G36*
X425046D02*
X420846D01*
Y514258D01*
X422714Y515032D01*
X424272Y516590D01*
X425046Y518458D01*
D02*
G37*
G36*
X418306D02*
X414105D01*
X414879Y516590D01*
X416438Y515032D01*
X418306Y514258D01*
Y518458D01*
D02*
G37*
G36*
X375046D02*
X370846D01*
Y514258D01*
X372714Y515032D01*
X374272Y516590D01*
X375046Y518458D01*
D02*
G37*
G36*
X368306D02*
X364105D01*
X364879Y516590D01*
X366438Y515032D01*
X368306Y514258D01*
Y518458D01*
D02*
G37*
G36*
X325046D02*
X320846D01*
Y514258D01*
X322714Y515032D01*
X324272Y516590D01*
X325046Y518458D01*
D02*
G37*
G36*
X318306D02*
X314105D01*
X314879Y516590D01*
X316438Y515032D01*
X318306Y514258D01*
Y518458D01*
D02*
G37*
G36*
X275046D02*
X270846D01*
Y514258D01*
X272714Y515032D01*
X274272Y516590D01*
X275046Y518458D01*
D02*
G37*
G36*
X268306D02*
X264105D01*
X264879Y516590D01*
X266438Y515032D01*
X268306Y514258D01*
Y518458D01*
D02*
G37*
G36*
X225046D02*
X220846D01*
Y514258D01*
X222714Y515032D01*
X224272Y516590D01*
X225046Y518458D01*
D02*
G37*
G36*
X218306D02*
X214105D01*
X214879Y516590D01*
X216438Y515032D01*
X218306Y514258D01*
Y518458D01*
D02*
G37*
G36*
X175046D02*
X170846D01*
Y514258D01*
X172714Y515032D01*
X174272Y516590D01*
X175046Y518458D01*
D02*
G37*
G36*
X168306D02*
X164105D01*
X164879Y516590D01*
X166438Y515032D01*
X168306Y514258D01*
Y518458D01*
D02*
G37*
G36*
X125046D02*
X120846D01*
Y514258D01*
X122714Y515032D01*
X124272Y516590D01*
X125046Y518458D01*
D02*
G37*
G36*
X118306D02*
X114105D01*
X114879Y516590D01*
X116438Y515032D01*
X118306Y514258D01*
Y518458D01*
D02*
G37*
G36*
X25046D02*
X20846D01*
Y514258D01*
X22714Y515032D01*
X24272Y516590D01*
X25046Y518458D01*
D02*
G37*
G36*
X18306D02*
X14105D01*
X14879Y516590D01*
X16438Y515032D01*
X18306Y514258D01*
Y518458D01*
D02*
G37*
G36*
X532520Y515620D02*
X528320D01*
Y511420D01*
X530188Y512193D01*
X531747Y513752D01*
X532520Y515620D01*
D02*
G37*
G36*
X525780D02*
X521580D01*
X522353Y513752D01*
X523912Y512193D01*
X525780Y511420D01*
Y515620D01*
D02*
G37*
G36*
X876010Y513472D02*
Y509272D01*
X880210D01*
X879436Y511140D01*
X877878Y512699D01*
X876010Y513472D01*
D02*
G37*
G36*
X873470D02*
X871602Y512699D01*
X870043Y511140D01*
X869269Y509272D01*
X873470D01*
Y513472D01*
D02*
G37*
G36*
X833120Y509660D02*
Y505460D01*
X837320D01*
X836547Y507328D01*
X834988Y508887D01*
X833120Y509660D01*
D02*
G37*
G36*
X830580D02*
X828712Y508887D01*
X827153Y507328D01*
X826380Y505460D01*
X830580D01*
Y509660D01*
D02*
G37*
G36*
X773430Y508390D02*
Y504190D01*
X777630D01*
X776857Y506058D01*
X775298Y507617D01*
X773430Y508390D01*
D02*
G37*
G36*
X770890D02*
X769022Y507617D01*
X767463Y506058D01*
X766690Y504190D01*
X770890D01*
Y508390D01*
D02*
G37*
G36*
X880210Y506732D02*
X876010D01*
Y502532D01*
X877878Y503305D01*
X879436Y504864D01*
X880210Y506732D01*
D02*
G37*
G36*
X873470D02*
X869269D01*
X870043Y504864D01*
X871602Y503305D01*
X873470Y502532D01*
Y506732D01*
D02*
G37*
G36*
X837320Y502920D02*
X833120D01*
Y498720D01*
X834988Y499493D01*
X836547Y501052D01*
X837320Y502920D01*
D02*
G37*
G36*
X830580D02*
X826380D01*
X827153Y501052D01*
X828712Y499493D01*
X830580Y498720D01*
Y502920D01*
D02*
G37*
G36*
X512560Y679119D02*
X447660D01*
X446880Y678964D01*
X446218Y678522D01*
X445776Y677860D01*
X445621Y677080D01*
Y500180D01*
X445776Y499400D01*
X446218Y498738D01*
X446880Y498296D01*
X447660Y498141D01*
X512560D01*
X513340Y498296D01*
X514002Y498738D01*
X514444Y499400D01*
X514599Y500180D01*
Y677080D01*
X514444Y677860D01*
X514002Y678522D01*
X513340Y678964D01*
X512560Y679119D01*
D02*
G37*
G36*
X777630Y501650D02*
X773430D01*
Y497450D01*
X775298Y498223D01*
X776857Y499782D01*
X777630Y501650D01*
D02*
G37*
G36*
X770890D02*
X766690D01*
X767463Y499782D01*
X769022Y498223D01*
X770890Y497450D01*
Y501650D01*
D02*
G37*
G36*
X1114710Y483870D02*
X1107440D01*
Y476600D01*
X1114710D01*
Y483870D01*
D02*
G37*
G36*
X1104900D02*
X1097630D01*
Y476600D01*
X1104900D01*
Y483870D01*
D02*
G37*
G36*
X126790Y474820D02*
X126409D01*
X123220Y473965D01*
X120360Y472314D01*
X119660Y471614D01*
X114660Y473685D01*
Y474280D01*
X90660D01*
Y450280D01*
X114660D01*
Y450875D01*
X119660Y452946D01*
X120360Y452245D01*
X123220Y450595D01*
X126409Y449740D01*
X126790D01*
Y462280D01*
Y474820D01*
D02*
G37*
G36*
X882147Y475442D02*
Y471241D01*
X886347D01*
X885574Y473110D01*
X884015Y474668D01*
X882147Y475442D01*
D02*
G37*
G36*
X879607D02*
X877739Y474668D01*
X876180Y473110D01*
X875407Y471241D01*
X879607D01*
Y475442D01*
D02*
G37*
G36*
X1045846Y475199D02*
Y470998D01*
X1050046D01*
X1049272Y472867D01*
X1047714Y474425D01*
X1045846Y475199D01*
D02*
G37*
G36*
X1043306D02*
X1041438Y474425D01*
X1039879Y472867D01*
X1039105Y470998D01*
X1043306D01*
Y475199D01*
D02*
G37*
G36*
X845846D02*
Y470998D01*
X850046D01*
X849272Y472867D01*
X847714Y474425D01*
X845846Y475199D01*
D02*
G37*
G36*
X843306D02*
X841438Y474425D01*
X839879Y472867D01*
X839105Y470998D01*
X843306D01*
Y475199D01*
D02*
G37*
G36*
X795846D02*
Y470998D01*
X800046D01*
X799272Y472867D01*
X797714Y474425D01*
X795846Y475199D01*
D02*
G37*
G36*
X793306D02*
X791438Y474425D01*
X789879Y472867D01*
X789105Y470998D01*
X793306D01*
Y475199D01*
D02*
G37*
G36*
X745846D02*
Y470998D01*
X750046D01*
X749272Y472867D01*
X747714Y474425D01*
X745846Y475199D01*
D02*
G37*
G36*
X743306D02*
X741438Y474425D01*
X739879Y472867D01*
X739105Y470998D01*
X743306D01*
Y475199D01*
D02*
G37*
G36*
X545846D02*
Y470998D01*
X550046D01*
X549272Y472867D01*
X547714Y474425D01*
X545846Y475199D01*
D02*
G37*
G36*
X543306D02*
X541438Y474425D01*
X539879Y472867D01*
X539105Y470998D01*
X543306D01*
Y475199D01*
D02*
G37*
G36*
X1091336Y472589D02*
Y468388D01*
X1095536D01*
X1094762Y470257D01*
X1093204Y471815D01*
X1091336Y472589D01*
D02*
G37*
G36*
X1088796D02*
X1086928Y471815D01*
X1085369Y470257D01*
X1084595Y468388D01*
X1088796D01*
Y472589D01*
D02*
G37*
G36*
X886347Y468701D02*
X882147D01*
Y464501D01*
X884015Y465275D01*
X885574Y466833D01*
X886347Y468701D01*
D02*
G37*
G36*
X879607D02*
X875407D01*
X876180Y466833D01*
X877739Y465275D01*
X879607Y464501D01*
Y468701D01*
D02*
G37*
G36*
X1050046Y468458D02*
X1045846D01*
Y464258D01*
X1047714Y465032D01*
X1049272Y466590D01*
X1050046Y468458D01*
D02*
G37*
G36*
X1043306D02*
X1039105D01*
X1039879Y466590D01*
X1041438Y465032D01*
X1043306Y464258D01*
Y468458D01*
D02*
G37*
G36*
X850046D02*
X845846D01*
Y464258D01*
X847714Y465032D01*
X849272Y466590D01*
X850046Y468458D01*
D02*
G37*
G36*
X843306D02*
X839105D01*
X839879Y466590D01*
X841438Y465032D01*
X843306Y464258D01*
Y468458D01*
D02*
G37*
G36*
X800046D02*
X795846D01*
Y464258D01*
X797714Y465032D01*
X799272Y466590D01*
X800046Y468458D01*
D02*
G37*
G36*
X793306D02*
X789105D01*
X789879Y466590D01*
X791438Y465032D01*
X793306Y464258D01*
Y468458D01*
D02*
G37*
G36*
X750046D02*
X745846D01*
Y464258D01*
X747714Y465032D01*
X749272Y466590D01*
X750046Y468458D01*
D02*
G37*
G36*
X743306D02*
X739105D01*
X739879Y466590D01*
X741438Y465032D01*
X743306Y464258D01*
Y468458D01*
D02*
G37*
G36*
X550046D02*
X545846D01*
Y464258D01*
X547714Y465032D01*
X549272Y466590D01*
X550046Y468458D01*
D02*
G37*
G36*
X543306D02*
X539105D01*
X539879Y466590D01*
X541438Y465032D01*
X543306Y464258D01*
Y468458D01*
D02*
G37*
G36*
X1095536Y465848D02*
X1091336D01*
Y461648D01*
X1093204Y462422D01*
X1094762Y463980D01*
X1095536Y465848D01*
D02*
G37*
G36*
X1088796D02*
X1084595D01*
X1085369Y463980D01*
X1086928Y462422D01*
X1088796Y461648D01*
Y465848D01*
D02*
G37*
G36*
X129711Y474820D02*
X129330D01*
Y462280D01*
Y449740D01*
X129711D01*
X132900Y450595D01*
X135760Y452245D01*
X138095Y454580D01*
X138185Y454737D01*
X143858Y454912D01*
X146092Y452678D01*
X148828Y451098D01*
X151880Y450280D01*
X155040D01*
X158092Y451098D01*
X160828Y452678D01*
X163062Y454912D01*
X163320Y455358D01*
X169000D01*
X169258Y454912D01*
X171492Y452678D01*
X174228Y451098D01*
X177280Y450280D01*
X180440D01*
X183492Y451098D01*
X186228Y452678D01*
X188462Y454912D01*
X188720Y455358D01*
X194400D01*
X194658Y454912D01*
X196892Y452678D01*
X199628Y451098D01*
X202680Y450280D01*
X205840D01*
X208892Y451098D01*
X211628Y452678D01*
X213862Y454912D01*
X214120Y455358D01*
X219800D01*
X220058Y454912D01*
X222292Y452678D01*
X225028Y451098D01*
X228080Y450280D01*
X231240D01*
X234292Y451098D01*
X237028Y452678D01*
X239262Y454912D01*
X239520Y455358D01*
X245200D01*
X245458Y454912D01*
X247692Y452678D01*
X250428Y451098D01*
X253480Y450280D01*
X254547Y445901D01*
X254565Y445280D01*
X253113Y443828D01*
X252340Y441960D01*
X263280D01*
X262507Y443828D01*
X260948Y445387D01*
X259671Y445916D01*
X259166Y448664D01*
X259412Y451023D01*
X259692Y451098D01*
X262428Y452678D01*
X264662Y454912D01*
X264920Y455358D01*
X270600D01*
X270858Y454912D01*
X273092Y452678D01*
X275828Y451098D01*
X278880Y450280D01*
X282040D01*
X285092Y451098D01*
X287828Y452678D01*
X290062Y454912D01*
X290320Y455358D01*
X296000D01*
X296258Y454912D01*
X298492Y452678D01*
X301228Y451098D01*
X304280Y450280D01*
X307440D01*
X310492Y451098D01*
X313228Y452678D01*
X315462Y454912D01*
X315720Y455358D01*
X321400D01*
X321658Y454912D01*
X323892Y452678D01*
X326628Y451098D01*
X329680Y450280D01*
X332840D01*
X335892Y451098D01*
X338628Y452678D01*
X340862Y454912D01*
X341120Y455358D01*
X346800D01*
X347058Y454912D01*
X349292Y452678D01*
X352028Y451098D01*
X355080Y450280D01*
X358240D01*
X361292Y451098D01*
X364028Y452678D01*
X366262Y454912D01*
X366520Y455358D01*
X372200D01*
X372458Y454912D01*
X374692Y452678D01*
X377428Y451098D01*
X380480Y450280D01*
X383640D01*
X386692Y451098D01*
X389428Y452678D01*
X391662Y454912D01*
X391920Y455358D01*
X397600D01*
X397858Y454912D01*
X400092Y452678D01*
X402828Y451098D01*
X405880Y450280D01*
X409040D01*
X412092Y451098D01*
X414828Y452678D01*
X417062Y454912D01*
X417320Y455358D01*
X423000D01*
X423258Y454912D01*
X425492Y452678D01*
X428228Y451098D01*
X431280Y450280D01*
X434440D01*
X437492Y451098D01*
X440228Y452678D01*
X442462Y454912D01*
X442720Y455358D01*
X448400D01*
X448658Y454912D01*
X450892Y452678D01*
X453628Y451098D01*
X456680Y450280D01*
X459840D01*
X462892Y451098D01*
X465628Y452678D01*
X467862Y454912D01*
X469442Y457648D01*
X470260Y460700D01*
Y463860D01*
X469442Y466912D01*
X467862Y469648D01*
X465628Y471882D01*
X462892Y473462D01*
X459840Y474280D01*
X456680D01*
X453628Y473462D01*
X450892Y471882D01*
X448658Y469648D01*
X448400Y469202D01*
X442720D01*
X442462Y469648D01*
X440228Y471882D01*
X437492Y473462D01*
X434440Y474280D01*
X431280D01*
X428228Y473462D01*
X425492Y471882D01*
X423258Y469648D01*
X423000Y469202D01*
X417320D01*
X417062Y469648D01*
X414828Y471882D01*
X412092Y473462D01*
X409040Y474280D01*
X405880D01*
X402828Y473462D01*
X400092Y471882D01*
X397858Y469648D01*
X397600Y469202D01*
X391920D01*
X391662Y469648D01*
X389428Y471882D01*
X386692Y473462D01*
X383640Y474280D01*
X380480D01*
X377428Y473462D01*
X374692Y471882D01*
X372458Y469648D01*
X372200Y469202D01*
X366520D01*
X366262Y469648D01*
X364028Y471882D01*
X361292Y473462D01*
X358240Y474280D01*
X355080D01*
X352028Y473462D01*
X349292Y471882D01*
X347058Y469648D01*
X346800Y469202D01*
X341120D01*
X340862Y469648D01*
X338628Y471882D01*
X335892Y473462D01*
X332840Y474280D01*
X329680D01*
X326628Y473462D01*
X323892Y471882D01*
X321658Y469648D01*
X321400Y469202D01*
X315720D01*
X315462Y469648D01*
X313228Y471882D01*
X310492Y473462D01*
X307440Y474280D01*
X304280D01*
X301228Y473462D01*
X298492Y471882D01*
X296258Y469648D01*
X296000Y469202D01*
X290320D01*
X290062Y469648D01*
X287828Y471882D01*
X285092Y473462D01*
X282040Y474280D01*
X278880D01*
X275828Y473462D01*
X273092Y471882D01*
X270858Y469648D01*
X270600Y469202D01*
X264920D01*
X264662Y469648D01*
X262428Y471882D01*
X259692Y473462D01*
X256640Y474280D01*
X253480D01*
X250428Y473462D01*
X247692Y471882D01*
X245458Y469648D01*
X245200Y469202D01*
X239520D01*
X239262Y469648D01*
X237028Y471882D01*
X234292Y473462D01*
X231240Y474280D01*
X228080D01*
X225028Y473462D01*
X222292Y471882D01*
X220058Y469648D01*
X219800Y469202D01*
X214120D01*
X213862Y469648D01*
X211628Y471882D01*
X208892Y473462D01*
X205840Y474280D01*
X202680D01*
X199628Y473462D01*
X196892Y471882D01*
X194658Y469648D01*
X194400Y469202D01*
X188720D01*
X188462Y469648D01*
X186228Y471882D01*
X183492Y473462D01*
X180440Y474280D01*
X177280D01*
X174228Y473462D01*
X171492Y471882D01*
X169258Y469648D01*
X169000Y469202D01*
X163320D01*
X163062Y469648D01*
X160828Y471882D01*
X158092Y473462D01*
X155040Y474280D01*
X151880D01*
X148828Y473462D01*
X146092Y471882D01*
X143858Y469648D01*
X138185Y469823D01*
X138095Y469980D01*
X135760Y472314D01*
X132900Y473965D01*
X129711Y474820D01*
D02*
G37*
G36*
X494234Y483480D02*
X490886D01*
X487601Y482827D01*
X484507Y481545D01*
X481723Y479685D01*
X479355Y477317D01*
X477495Y474533D01*
X476213Y471439D01*
X475560Y468154D01*
Y464806D01*
X476213Y461521D01*
X477495Y458428D01*
X479355Y455643D01*
X481723Y453275D01*
X484507Y451415D01*
X487601Y450133D01*
X490886Y449480D01*
X494234D01*
X497519Y450133D01*
X500612Y451415D01*
X503397Y453275D01*
X505765Y455643D01*
X507625Y458428D01*
X508907Y461521D01*
X509560Y464806D01*
Y468154D01*
X508907Y471439D01*
X507625Y474533D01*
X505765Y477317D01*
X503397Y479685D01*
X500612Y481545D01*
X497519Y482827D01*
X494234Y483480D01*
D02*
G37*
G36*
X857250Y452510D02*
Y448310D01*
X861450D01*
X860677Y450178D01*
X859118Y451737D01*
X857250Y452510D01*
D02*
G37*
G36*
X854710D02*
X852842Y451737D01*
X851283Y450178D01*
X850510Y448310D01*
X854710D01*
Y452510D01*
D02*
G37*
G36*
X817880Y451240D02*
Y447040D01*
X822080D01*
X821307Y448908D01*
X819748Y450467D01*
X817880Y451240D01*
D02*
G37*
G36*
X815340D02*
X813472Y450467D01*
X811913Y448908D01*
X811140Y447040D01*
X815340D01*
Y451240D01*
D02*
G37*
G36*
X894080Y449970D02*
Y445770D01*
X898280D01*
X897507Y447638D01*
X895948Y449197D01*
X894080Y449970D01*
D02*
G37*
G36*
X891540D02*
X889672Y449197D01*
X888113Y447638D01*
X887340Y445770D01*
X891540D01*
Y449970D01*
D02*
G37*
G36*
X861450Y445770D02*
X857250D01*
Y441570D01*
X859118Y442343D01*
X860677Y443902D01*
X861450Y445770D01*
D02*
G37*
G36*
X854710D02*
X850510D01*
X851283Y443902D01*
X852842Y442343D01*
X854710Y441570D01*
Y445770D01*
D02*
G37*
G36*
X822080Y444500D02*
X817880D01*
Y440300D01*
X819748Y441073D01*
X821307Y442632D01*
X822080Y444500D01*
D02*
G37*
G36*
X815340D02*
X811140D01*
X811913Y442632D01*
X813472Y441073D01*
X815340Y440300D01*
Y444500D01*
D02*
G37*
G36*
X898280Y443230D02*
X894080D01*
Y439030D01*
X895948Y439803D01*
X897507Y441362D01*
X898280Y443230D01*
D02*
G37*
G36*
X891540D02*
X887340D01*
X888113Y441362D01*
X889672Y439803D01*
X891540Y439030D01*
Y443230D01*
D02*
G37*
G36*
X295046Y440839D02*
Y436638D01*
X299246D01*
X298472Y438507D01*
X296914Y440065D01*
X295046Y440839D01*
D02*
G37*
G36*
X292506D02*
X290638Y440065D01*
X289079Y438507D01*
X288305Y436638D01*
X292506D01*
Y440839D01*
D02*
G37*
G36*
X263280Y439420D02*
X259080D01*
Y435220D01*
X260948Y435993D01*
X262507Y437552D01*
X263280Y439420D01*
D02*
G37*
G36*
X256540D02*
X252340D01*
X253113Y437552D01*
X254672Y435993D01*
X256540Y435220D01*
Y439420D01*
D02*
G37*
G36*
X299246Y434098D02*
X295046D01*
Y429898D01*
X296914Y430672D01*
X298472Y432230D01*
X299246Y434098D01*
D02*
G37*
G36*
X292506D02*
X288305D01*
X289079Y432230D01*
X290638Y430672D01*
X292506Y429898D01*
Y434098D01*
D02*
G37*
G36*
X128676Y431949D02*
Y427748D01*
X132876D01*
X132102Y429617D01*
X130544Y431175D01*
X128676Y431949D01*
D02*
G37*
G36*
X126136D02*
X124268Y431175D01*
X122709Y429617D01*
X121935Y427748D01*
X126136D01*
Y431949D01*
D02*
G37*
G36*
X514350Y430920D02*
Y426720D01*
X518550D01*
X517777Y428588D01*
X516218Y430147D01*
X514350Y430920D01*
D02*
G37*
G36*
X511810D02*
X509942Y430147D01*
X508383Y428588D01*
X507610Y426720D01*
X511810D01*
Y430920D01*
D02*
G37*
G36*
X132876Y425208D02*
X128676D01*
Y421008D01*
X130544Y421782D01*
X132102Y423340D01*
X132876Y425208D01*
D02*
G37*
G36*
X126136D02*
X121935D01*
X122709Y423340D01*
X124268Y421782D01*
X126136Y421008D01*
Y425208D01*
D02*
G37*
G36*
X1070846Y425199D02*
Y420998D01*
X1075046D01*
X1074272Y422867D01*
X1072714Y424425D01*
X1070846Y425199D01*
D02*
G37*
G36*
X1068306D02*
X1066438Y424425D01*
X1064879Y422867D01*
X1064105Y420998D01*
X1068306D01*
Y425199D01*
D02*
G37*
G36*
X1020846D02*
Y420998D01*
X1025046D01*
X1024272Y422867D01*
X1022714Y424425D01*
X1020846Y425199D01*
D02*
G37*
G36*
X1018306D02*
X1016438Y424425D01*
X1014879Y422867D01*
X1014105Y420998D01*
X1018306D01*
Y425199D01*
D02*
G37*
G36*
X970846D02*
Y420998D01*
X975046D01*
X974272Y422867D01*
X972714Y424425D01*
X970846Y425199D01*
D02*
G37*
G36*
X968306D02*
X966438Y424425D01*
X964879Y422867D01*
X964105Y420998D01*
X968306D01*
Y425199D01*
D02*
G37*
G36*
X870846D02*
Y420998D01*
X875046D01*
X874272Y422867D01*
X872714Y424425D01*
X870846Y425199D01*
D02*
G37*
G36*
X868306D02*
X866438Y424425D01*
X864879Y422867D01*
X864105Y420998D01*
X868306D01*
Y425199D01*
D02*
G37*
G36*
X770846D02*
Y420998D01*
X775046D01*
X774272Y422867D01*
X772714Y424425D01*
X770846Y425199D01*
D02*
G37*
G36*
X768306D02*
X766438Y424425D01*
X764879Y422867D01*
X764105Y420998D01*
X768306D01*
Y425199D01*
D02*
G37*
G36*
X720846D02*
Y420998D01*
X725046D01*
X724272Y422867D01*
X722714Y424425D01*
X720846Y425199D01*
D02*
G37*
G36*
X718306D02*
X716438Y424425D01*
X714879Y422867D01*
X714105Y420998D01*
X718306D01*
Y425199D01*
D02*
G37*
G36*
X670846D02*
Y420998D01*
X675046D01*
X674272Y422867D01*
X672714Y424425D01*
X670846Y425199D01*
D02*
G37*
G36*
X668306D02*
X666438Y424425D01*
X664879Y422867D01*
X664105Y420998D01*
X668306D01*
Y425199D01*
D02*
G37*
G36*
X620846D02*
Y420998D01*
X625046D01*
X624272Y422867D01*
X622714Y424425D01*
X620846Y425199D01*
D02*
G37*
G36*
X618306D02*
X616438Y424425D01*
X614879Y422867D01*
X614105Y420998D01*
X618306D01*
Y425199D01*
D02*
G37*
G36*
X470846D02*
Y420998D01*
X475046D01*
X474272Y422867D01*
X472714Y424425D01*
X470846Y425199D01*
D02*
G37*
G36*
X468306D02*
X466438Y424425D01*
X464879Y422867D01*
X464105Y420998D01*
X468306D01*
Y425199D01*
D02*
G37*
G36*
X420846D02*
Y420998D01*
X425046D01*
X424272Y422867D01*
X422714Y424425D01*
X420846Y425199D01*
D02*
G37*
G36*
X418306D02*
X416438Y424425D01*
X414879Y422867D01*
X414105Y420998D01*
X418306D01*
Y425199D01*
D02*
G37*
G36*
X370846D02*
Y420998D01*
X375046D01*
X374272Y422867D01*
X372714Y424425D01*
X370846Y425199D01*
D02*
G37*
G36*
X368306D02*
X366438Y424425D01*
X364879Y422867D01*
X364105Y420998D01*
X368306D01*
Y425199D01*
D02*
G37*
G36*
X170846D02*
Y420998D01*
X175046D01*
X174272Y422867D01*
X172714Y424425D01*
X170846Y425199D01*
D02*
G37*
G36*
X168306D02*
X166438Y424425D01*
X164879Y422867D01*
X164105Y420998D01*
X168306D01*
Y425199D01*
D02*
G37*
G36*
X20846D02*
Y420998D01*
X25046D01*
X24272Y422867D01*
X22714Y424425D01*
X20846Y425199D01*
D02*
G37*
G36*
X18306D02*
X16438Y424425D01*
X14879Y422867D01*
X14105Y420998D01*
X18306D01*
Y425199D01*
D02*
G37*
G36*
X266700Y424570D02*
Y420370D01*
X270900D01*
X270127Y422238D01*
X268568Y423797D01*
X266700Y424570D01*
D02*
G37*
G36*
X264160D02*
X262292Y423797D01*
X260733Y422238D01*
X259960Y420370D01*
X264160D01*
Y424570D01*
D02*
G37*
G36*
X1112926Y424329D02*
Y420128D01*
X1117126D01*
X1116352Y421996D01*
X1114794Y423555D01*
X1112926Y424329D01*
D02*
G37*
G36*
X1110386D02*
X1108518Y423555D01*
X1106959Y421996D01*
X1106185Y420128D01*
X1110386D01*
Y424329D01*
D02*
G37*
G36*
X518550Y424180D02*
X514350D01*
Y419980D01*
X516218Y420753D01*
X517777Y422312D01*
X518550Y424180D01*
D02*
G37*
G36*
X511810D02*
X507610D01*
X508383Y422312D01*
X509942Y420753D01*
X511810Y419980D01*
Y424180D01*
D02*
G37*
G36*
X919961Y437570D02*
X916999D01*
X914138Y436803D01*
X911572Y435322D01*
X909478Y433228D01*
X907997Y430662D01*
X907230Y427801D01*
Y424839D01*
X907997Y421978D01*
X909478Y419412D01*
X911572Y417318D01*
X914138Y415837D01*
X916999Y415070D01*
X919961D01*
X922822Y415837D01*
X925388Y417318D01*
X927482Y419412D01*
X928963Y421978D01*
X929730Y424839D01*
Y427801D01*
X928963Y430662D01*
X927482Y433228D01*
X925388Y435322D01*
X922822Y436803D01*
X919961Y437570D01*
D02*
G37*
G36*
X804730D02*
X782230D01*
Y415070D01*
X804730D01*
Y437570D01*
D02*
G37*
G36*
X1075046Y418458D02*
X1070846D01*
Y414258D01*
X1072714Y415032D01*
X1074272Y416590D01*
X1075046Y418458D01*
D02*
G37*
G36*
X1068306D02*
X1064105D01*
X1064879Y416590D01*
X1066438Y415032D01*
X1068306Y414258D01*
Y418458D01*
D02*
G37*
G36*
X1025046D02*
X1020846D01*
Y414258D01*
X1022714Y415032D01*
X1024272Y416590D01*
X1025046Y418458D01*
D02*
G37*
G36*
X1018306D02*
X1014105D01*
X1014879Y416590D01*
X1016438Y415032D01*
X1018306Y414258D01*
Y418458D01*
D02*
G37*
G36*
X975046D02*
X970846D01*
Y414258D01*
X972714Y415032D01*
X974272Y416590D01*
X975046Y418458D01*
D02*
G37*
G36*
X968306D02*
X964105D01*
X964879Y416590D01*
X966438Y415032D01*
X968306Y414258D01*
Y418458D01*
D02*
G37*
G36*
X875046D02*
X870846D01*
Y414258D01*
X872714Y415032D01*
X874272Y416590D01*
X875046Y418458D01*
D02*
G37*
G36*
X868306D02*
X864105D01*
X864879Y416590D01*
X866438Y415032D01*
X868306Y414258D01*
Y418458D01*
D02*
G37*
G36*
X775046D02*
X770846D01*
Y414258D01*
X772714Y415032D01*
X774272Y416590D01*
X775046Y418458D01*
D02*
G37*
G36*
X768306D02*
X764105D01*
X764879Y416590D01*
X766438Y415032D01*
X768306Y414258D01*
Y418458D01*
D02*
G37*
G36*
X725046D02*
X720846D01*
Y414258D01*
X722714Y415032D01*
X724272Y416590D01*
X725046Y418458D01*
D02*
G37*
G36*
X718306D02*
X714105D01*
X714879Y416590D01*
X716438Y415032D01*
X718306Y414258D01*
Y418458D01*
D02*
G37*
G36*
X675046D02*
X670846D01*
Y414258D01*
X672714Y415032D01*
X674272Y416590D01*
X675046Y418458D01*
D02*
G37*
G36*
X668306D02*
X664105D01*
X664879Y416590D01*
X666438Y415032D01*
X668306Y414258D01*
Y418458D01*
D02*
G37*
G36*
X625046D02*
X620846D01*
Y414258D01*
X622714Y415032D01*
X624272Y416590D01*
X625046Y418458D01*
D02*
G37*
G36*
X618306D02*
X614105D01*
X614879Y416590D01*
X616438Y415032D01*
X618306Y414258D01*
Y418458D01*
D02*
G37*
G36*
X475046D02*
X470846D01*
Y414258D01*
X472714Y415032D01*
X474272Y416590D01*
X475046Y418458D01*
D02*
G37*
G36*
X468306D02*
X464105D01*
X464879Y416590D01*
X466438Y415032D01*
X468306Y414258D01*
Y418458D01*
D02*
G37*
G36*
X425046D02*
X420846D01*
Y414258D01*
X422714Y415032D01*
X424272Y416590D01*
X425046Y418458D01*
D02*
G37*
G36*
X418306D02*
X414105D01*
X414879Y416590D01*
X416438Y415032D01*
X418306Y414258D01*
Y418458D01*
D02*
G37*
G36*
X375046D02*
X370846D01*
Y414258D01*
X372714Y415032D01*
X374272Y416590D01*
X375046Y418458D01*
D02*
G37*
G36*
X368306D02*
X364105D01*
X364879Y416590D01*
X366438Y415032D01*
X368306Y414258D01*
Y418458D01*
D02*
G37*
G36*
X175046D02*
X170846D01*
Y414258D01*
X172714Y415032D01*
X174272Y416590D01*
X175046Y418458D01*
D02*
G37*
G36*
X168306D02*
X164105D01*
X164879Y416590D01*
X166438Y415032D01*
X168306Y414258D01*
Y418458D01*
D02*
G37*
G36*
X25046D02*
X20846D01*
Y414258D01*
X22714Y415032D01*
X24272Y416590D01*
X25046Y418458D01*
D02*
G37*
G36*
X18306D02*
X14105D01*
X14879Y416590D01*
X16438Y415032D01*
X18306Y414258D01*
Y418458D01*
D02*
G37*
G36*
X270900Y417830D02*
X266700D01*
Y413630D01*
X268568Y414403D01*
X270127Y415962D01*
X270900Y417830D01*
D02*
G37*
G36*
X264160D02*
X259960D01*
X260733Y415962D01*
X262292Y414403D01*
X264160Y413630D01*
Y417830D01*
D02*
G37*
G36*
X1117126Y417588D02*
X1112926D01*
Y413388D01*
X1114794Y414162D01*
X1116352Y415720D01*
X1117126Y417588D01*
D02*
G37*
G36*
X1110386D02*
X1106185D01*
X1106959Y415720D01*
X1108518Y414162D01*
X1110386Y413388D01*
Y417588D01*
D02*
G37*
G36*
X331876Y416709D02*
Y412508D01*
X336076D01*
X335302Y414376D01*
X333744Y415935D01*
X331876Y416709D01*
D02*
G37*
G36*
X329336D02*
X327468Y415935D01*
X325909Y414376D01*
X325135Y412508D01*
X329336D01*
Y416709D01*
D02*
G37*
G36*
X336076Y409968D02*
X331876D01*
Y405768D01*
X333744Y406542D01*
X335302Y408100D01*
X336076Y409968D01*
D02*
G37*
G36*
X329336D02*
X325135D01*
X325909Y408100D01*
X327468Y406542D01*
X329336Y405768D01*
Y409968D01*
D02*
G37*
G36*
X396240Y404250D02*
Y400050D01*
X400440D01*
X399667Y401918D01*
X398108Y403477D01*
X396240Y404250D01*
D02*
G37*
G36*
X393700D02*
X391832Y403477D01*
X390273Y401918D01*
X389500Y400050D01*
X393700D01*
Y404250D01*
D02*
G37*
G36*
X645803Y402938D02*
Y398738D01*
X650004D01*
X649230Y400606D01*
X647672Y402164D01*
X645803Y402938D01*
D02*
G37*
G36*
X643263D02*
X641395Y402164D01*
X639837Y400606D01*
X639063Y398738D01*
X643263D01*
Y402938D01*
D02*
G37*
G36*
X400440Y397510D02*
X396240D01*
Y393310D01*
X398108Y394083D01*
X399667Y395642D01*
X400440Y397510D01*
D02*
G37*
G36*
X393700D02*
X389500D01*
X390273Y395642D01*
X391832Y394083D01*
X393700Y393310D01*
Y397510D01*
D02*
G37*
G36*
X650004Y396198D02*
X645803D01*
Y391997D01*
X647672Y392771D01*
X649230Y394329D01*
X650004Y396198D01*
D02*
G37*
G36*
X643263D02*
X639063D01*
X639837Y394329D01*
X641395Y392771D01*
X643263Y391997D01*
Y396198D01*
D02*
G37*
G36*
X464820Y389010D02*
Y384810D01*
X469020D01*
X468247Y386678D01*
X466688Y388237D01*
X464820Y389010D01*
D02*
G37*
G36*
X462280D02*
X460412Y388237D01*
X458853Y386678D01*
X458080Y384810D01*
X462280D01*
Y389010D01*
D02*
G37*
G36*
X469020Y382270D02*
X464820D01*
Y378070D01*
X466688Y378843D01*
X468247Y380402D01*
X469020Y382270D01*
D02*
G37*
G36*
X462280D02*
X458080D01*
X458853Y380402D01*
X460412Y378843D01*
X462280Y378070D01*
Y382270D01*
D02*
G37*
G36*
X920032Y388110D02*
X919750D01*
Y377590D01*
X930270D01*
Y377872D01*
X929466Y380871D01*
X927914Y383559D01*
X925719Y385754D01*
X923031Y387307D01*
X920032Y388110D01*
D02*
G37*
G36*
X917210D02*
X916928D01*
X913929Y387307D01*
X911241Y385754D01*
X909046Y383559D01*
X907494Y380871D01*
X906690Y377872D01*
Y377590D01*
X917210D01*
Y388110D01*
D02*
G37*
G36*
X1095846Y375199D02*
Y370998D01*
X1100046D01*
X1099272Y372867D01*
X1097714Y374425D01*
X1095846Y375199D01*
D02*
G37*
G36*
X1093306D02*
X1091438Y374425D01*
X1089879Y372867D01*
X1089105Y370998D01*
X1093306D01*
Y375199D01*
D02*
G37*
G36*
X1045846D02*
Y370998D01*
X1050046D01*
X1049272Y372867D01*
X1047714Y374425D01*
X1045846Y375199D01*
D02*
G37*
G36*
X1043306D02*
X1041438Y374425D01*
X1039879Y372867D01*
X1039105Y370998D01*
X1043306D01*
Y375199D01*
D02*
G37*
G36*
X995846D02*
Y370998D01*
X1000046D01*
X999272Y372867D01*
X997714Y374425D01*
X995846Y375199D01*
D02*
G37*
G36*
X993306D02*
X991438Y374425D01*
X989879Y372867D01*
X989105Y370998D01*
X993306D01*
Y375199D01*
D02*
G37*
G36*
X945846D02*
Y370998D01*
X950046D01*
X949272Y372867D01*
X947714Y374425D01*
X945846Y375199D01*
D02*
G37*
G36*
X943306D02*
X941438Y374425D01*
X939879Y372867D01*
X939105Y370998D01*
X943306D01*
Y375199D01*
D02*
G37*
G36*
X895846D02*
Y370998D01*
X900046D01*
X899272Y372867D01*
X897714Y374425D01*
X895846Y375199D01*
D02*
G37*
G36*
X893306D02*
X891438Y374425D01*
X889879Y372867D01*
X889105Y370998D01*
X893306D01*
Y375199D01*
D02*
G37*
G36*
X745846D02*
Y370998D01*
X750046D01*
X749272Y372867D01*
X747714Y374425D01*
X745846Y375199D01*
D02*
G37*
G36*
X743306D02*
X741438Y374425D01*
X739879Y372867D01*
X739105Y370998D01*
X743306D01*
Y375199D01*
D02*
G37*
G36*
X595846D02*
Y370998D01*
X600046D01*
X599272Y372867D01*
X597714Y374425D01*
X595846Y375199D01*
D02*
G37*
G36*
X593306D02*
X591438Y374425D01*
X589879Y372867D01*
X589105Y370998D01*
X593306D01*
Y375199D01*
D02*
G37*
G36*
X495846D02*
Y370998D01*
X500046D01*
X499272Y372867D01*
X497714Y374425D01*
X495846Y375199D01*
D02*
G37*
G36*
X493306D02*
X491438Y374425D01*
X489879Y372867D01*
X489105Y370998D01*
X493306D01*
Y375199D01*
D02*
G37*
G36*
X395846D02*
Y370998D01*
X400046D01*
X399272Y372867D01*
X397714Y374425D01*
X395846Y375199D01*
D02*
G37*
G36*
X393306D02*
X391438Y374425D01*
X389879Y372867D01*
X389105Y370998D01*
X393306D01*
Y375199D01*
D02*
G37*
G36*
X195846D02*
Y370998D01*
X200046D01*
X199272Y372867D01*
X197714Y374425D01*
X195846Y375199D01*
D02*
G37*
G36*
X193306D02*
X191438Y374425D01*
X189879Y372867D01*
X189105Y370998D01*
X193306D01*
Y375199D01*
D02*
G37*
G36*
X45846D02*
Y370998D01*
X50046D01*
X49272Y372867D01*
X47714Y374425D01*
X45846Y375199D01*
D02*
G37*
G36*
X43306D02*
X41438Y374425D01*
X39879Y372867D01*
X39105Y370998D01*
X43306D01*
Y375199D01*
D02*
G37*
G36*
X794961Y387570D02*
X791999D01*
X789138Y386803D01*
X786572Y385322D01*
X784478Y383228D01*
X782997Y380662D01*
X782230Y377801D01*
Y374839D01*
X782997Y371978D01*
X784478Y369412D01*
X786572Y367318D01*
X789138Y365837D01*
X791999Y365070D01*
X794961D01*
X797822Y365837D01*
X800388Y367318D01*
X802482Y369412D01*
X803963Y371978D01*
X804730Y374839D01*
Y377801D01*
X803963Y380662D01*
X802482Y383228D01*
X800388Y385322D01*
X797822Y386803D01*
X794961Y387570D01*
D02*
G37*
G36*
X930270Y375050D02*
X919750D01*
Y364530D01*
X920032D01*
X923031Y365334D01*
X925719Y366886D01*
X927914Y369081D01*
X929466Y371769D01*
X930270Y374768D01*
Y375050D01*
D02*
G37*
G36*
X917210D02*
X906690D01*
Y374768D01*
X907494Y371769D01*
X909046Y369081D01*
X911241Y366886D01*
X913929Y365334D01*
X916928Y364530D01*
X917210D01*
Y375050D01*
D02*
G37*
G36*
X869950Y368690D02*
Y364490D01*
X874150D01*
X873377Y366358D01*
X871818Y367917D01*
X869950Y368690D01*
D02*
G37*
G36*
X867410D02*
X865542Y367917D01*
X863983Y366358D01*
X863210Y364490D01*
X867410D01*
Y368690D01*
D02*
G37*
G36*
X1100046Y368458D02*
X1095846D01*
Y364258D01*
X1097714Y365032D01*
X1099272Y366590D01*
X1100046Y368458D01*
D02*
G37*
G36*
X1093306D02*
X1089105D01*
X1089879Y366590D01*
X1091438Y365032D01*
X1093306Y364258D01*
Y368458D01*
D02*
G37*
G36*
X1050046D02*
X1045846D01*
Y364258D01*
X1047714Y365032D01*
X1049272Y366590D01*
X1050046Y368458D01*
D02*
G37*
G36*
X1043306D02*
X1039105D01*
X1039879Y366590D01*
X1041438Y365032D01*
X1043306Y364258D01*
Y368458D01*
D02*
G37*
G36*
X1000046D02*
X995846D01*
Y364258D01*
X997714Y365032D01*
X999272Y366590D01*
X1000046Y368458D01*
D02*
G37*
G36*
X993306D02*
X989105D01*
X989879Y366590D01*
X991438Y365032D01*
X993306Y364258D01*
Y368458D01*
D02*
G37*
G36*
X950046D02*
X945846D01*
Y364258D01*
X947714Y365032D01*
X949272Y366590D01*
X950046Y368458D01*
D02*
G37*
G36*
X943306D02*
X939105D01*
X939879Y366590D01*
X941438Y365032D01*
X943306Y364258D01*
Y368458D01*
D02*
G37*
G36*
X900046D02*
X895846D01*
Y364258D01*
X897714Y365032D01*
X899272Y366590D01*
X900046Y368458D01*
D02*
G37*
G36*
X893306D02*
X889105D01*
X889879Y366590D01*
X891438Y365032D01*
X893306Y364258D01*
Y368458D01*
D02*
G37*
G36*
X750046D02*
X745846D01*
Y364258D01*
X747714Y365032D01*
X749272Y366590D01*
X750046Y368458D01*
D02*
G37*
G36*
X743306D02*
X739105D01*
X739879Y366590D01*
X741438Y365032D01*
X743306Y364258D01*
Y368458D01*
D02*
G37*
G36*
X600046D02*
X595846D01*
Y364258D01*
X597714Y365032D01*
X599272Y366590D01*
X600046Y368458D01*
D02*
G37*
G36*
X593306D02*
X589105D01*
X589879Y366590D01*
X591438Y365032D01*
X593306Y364258D01*
Y368458D01*
D02*
G37*
G36*
X500046D02*
X495846D01*
Y364258D01*
X497714Y365032D01*
X499272Y366590D01*
X500046Y368458D01*
D02*
G37*
G36*
X493306D02*
X489105D01*
X489879Y366590D01*
X491438Y365032D01*
X493306Y364258D01*
Y368458D01*
D02*
G37*
G36*
X400046D02*
X395846D01*
Y364258D01*
X397714Y365032D01*
X399272Y366590D01*
X400046Y368458D01*
D02*
G37*
G36*
X393306D02*
X389105D01*
X389879Y366590D01*
X391438Y365032D01*
X393306Y364258D01*
Y368458D01*
D02*
G37*
G36*
X200046D02*
X195846D01*
Y364258D01*
X197714Y365032D01*
X199272Y366590D01*
X200046Y368458D01*
D02*
G37*
G36*
X193306D02*
X189105D01*
X189879Y366590D01*
X191438Y365032D01*
X193306Y364258D01*
Y368458D01*
D02*
G37*
G36*
X50046D02*
X45846D01*
Y364258D01*
X47714Y365032D01*
X49272Y366590D01*
X50046Y368458D01*
D02*
G37*
G36*
X43306D02*
X39105D01*
X39879Y366590D01*
X41438Y365032D01*
X43306Y364258D01*
Y368458D01*
D02*
G37*
G36*
X711200Y364880D02*
Y360680D01*
X715400D01*
X714627Y362548D01*
X713068Y364107D01*
X711200Y364880D01*
D02*
G37*
G36*
X708660D02*
X706792Y364107D01*
X705233Y362548D01*
X704460Y360680D01*
X708660D01*
Y364880D01*
D02*
G37*
G36*
X874150Y361950D02*
X869950D01*
Y357750D01*
X871818Y358523D01*
X873377Y360082D01*
X874150Y361950D01*
D02*
G37*
G36*
X867410D02*
X863210D01*
X863983Y360082D01*
X865542Y358523D01*
X867410Y357750D01*
Y361950D01*
D02*
G37*
G36*
X820420Y361070D02*
Y356870D01*
X824620D01*
X823847Y358738D01*
X822288Y360297D01*
X820420Y361070D01*
D02*
G37*
G36*
X817880D02*
X816012Y360297D01*
X814453Y358738D01*
X813680Y356870D01*
X817880D01*
Y361070D01*
D02*
G37*
G36*
X463550Y358530D02*
Y354330D01*
X467750D01*
X466977Y356198D01*
X465418Y357757D01*
X463550Y358530D01*
D02*
G37*
G36*
X461010D02*
X459142Y357757D01*
X457583Y356198D01*
X456810Y354330D01*
X461010D01*
Y358530D01*
D02*
G37*
G36*
X715400Y358140D02*
X711200D01*
Y353940D01*
X713068Y354713D01*
X714627Y356272D01*
X715400Y358140D01*
D02*
G37*
G36*
X708660D02*
X704460D01*
X705233Y356272D01*
X706792Y354713D01*
X708660Y353940D01*
Y358140D01*
D02*
G37*
G36*
X824620Y354330D02*
X820420D01*
Y350130D01*
X822288Y350903D01*
X823847Y352462D01*
X824620Y354330D01*
D02*
G37*
G36*
X817880D02*
X813680D01*
X814453Y352462D01*
X816012Y350903D01*
X817880Y350130D01*
Y354330D01*
D02*
G37*
G36*
X467750Y351790D02*
X463550D01*
Y347590D01*
X465418Y348363D01*
X466977Y349922D01*
X467750Y351790D01*
D02*
G37*
G36*
X461010D02*
X456810D01*
X457583Y349922D01*
X459142Y348363D01*
X461010Y347590D01*
Y351790D01*
D02*
G37*
G36*
X496229Y348693D02*
Y344492D01*
X500429D01*
X499655Y346361D01*
X498097Y347919D01*
X496229Y348693D01*
D02*
G37*
G36*
X493689D02*
X491821Y347919D01*
X490262Y346361D01*
X489488Y344492D01*
X493689D01*
Y348693D01*
D02*
G37*
G36*
X500429Y341953D02*
X496229D01*
Y337752D01*
X498097Y338526D01*
X499655Y340084D01*
X500429Y341953D01*
D02*
G37*
G36*
X493689D02*
X489488D01*
X490262Y340084D01*
X491821Y338526D01*
X493689Y337752D01*
Y341953D01*
D02*
G37*
G36*
X226466Y331619D02*
Y327418D01*
X230666D01*
X229892Y329286D01*
X228334Y330845D01*
X226466Y331619D01*
D02*
G37*
G36*
X223926D02*
X222058Y330845D01*
X220499Y329286D01*
X219725Y327418D01*
X223926D01*
Y331619D01*
D02*
G37*
G36*
X908050Y325510D02*
Y321310D01*
X912250D01*
X911477Y323178D01*
X909918Y324737D01*
X908050Y325510D01*
D02*
G37*
G36*
X905510D02*
X903642Y324737D01*
X902083Y323178D01*
X901310Y321310D01*
X905510D01*
Y325510D01*
D02*
G37*
G36*
X877570D02*
Y321310D01*
X881770D01*
X880997Y323178D01*
X879438Y324737D01*
X877570Y325510D01*
D02*
G37*
G36*
X875030D02*
X873162Y324737D01*
X871603Y323178D01*
X870830Y321310D01*
X875030D01*
Y325510D01*
D02*
G37*
G36*
X847090D02*
Y321310D01*
X851290D01*
X850517Y323178D01*
X848958Y324737D01*
X847090Y325510D01*
D02*
G37*
G36*
X844550D02*
X842682Y324737D01*
X841123Y323178D01*
X840350Y321310D01*
X844550D01*
Y325510D01*
D02*
G37*
G36*
X1070846Y325199D02*
Y320998D01*
X1075046D01*
X1074272Y322867D01*
X1072714Y324425D01*
X1070846Y325199D01*
D02*
G37*
G36*
X1068306D02*
X1066438Y324425D01*
X1064879Y322867D01*
X1064105Y320998D01*
X1068306D01*
Y325199D01*
D02*
G37*
G36*
X1020846D02*
Y320998D01*
X1025046D01*
X1024272Y322867D01*
X1022714Y324425D01*
X1020846Y325199D01*
D02*
G37*
G36*
X1018306D02*
X1016438Y324425D01*
X1014879Y322867D01*
X1014105Y320998D01*
X1018306D01*
Y325199D01*
D02*
G37*
G36*
X820846D02*
Y320998D01*
X825046D01*
X824272Y322867D01*
X822714Y324425D01*
X820846Y325199D01*
D02*
G37*
G36*
X818306D02*
X816438Y324425D01*
X814879Y322867D01*
X814105Y320998D01*
X818306D01*
Y325199D01*
D02*
G37*
G36*
X770846D02*
Y320998D01*
X775046D01*
X774272Y322867D01*
X772714Y324425D01*
X770846Y325199D01*
D02*
G37*
G36*
X768306D02*
X766438Y324425D01*
X764879Y322867D01*
X764105Y320998D01*
X768306D01*
Y325199D01*
D02*
G37*
G36*
X720846D02*
Y320998D01*
X725046D01*
X724272Y322867D01*
X722714Y324425D01*
X720846Y325199D01*
D02*
G37*
G36*
X718306D02*
X716438Y324425D01*
X714879Y322867D01*
X714105Y320998D01*
X718306D01*
Y325199D01*
D02*
G37*
G36*
X670846D02*
Y320998D01*
X675046D01*
X674272Y322867D01*
X672714Y324425D01*
X670846Y325199D01*
D02*
G37*
G36*
X668306D02*
X666438Y324425D01*
X664879Y322867D01*
X664105Y320998D01*
X668306D01*
Y325199D01*
D02*
G37*
G36*
X620846D02*
Y320998D01*
X625046D01*
X624272Y322867D01*
X622714Y324425D01*
X620846Y325199D01*
D02*
G37*
G36*
X618306D02*
X616438Y324425D01*
X614879Y322867D01*
X614105Y320998D01*
X618306D01*
Y325199D01*
D02*
G37*
G36*
X420846D02*
Y320998D01*
X425046D01*
X424272Y322867D01*
X422714Y324425D01*
X420846Y325199D01*
D02*
G37*
G36*
X418306D02*
X416438Y324425D01*
X414879Y322867D01*
X414105Y320998D01*
X418306D01*
Y325199D01*
D02*
G37*
G36*
X270846D02*
Y320998D01*
X275046D01*
X274272Y322867D01*
X272714Y324425D01*
X270846Y325199D01*
D02*
G37*
G36*
X268306D02*
X266438Y324425D01*
X264879Y322867D01*
X264105Y320998D01*
X268306D01*
Y325199D01*
D02*
G37*
G36*
X70846D02*
Y320998D01*
X75046D01*
X74272Y322867D01*
X72714Y324425D01*
X70846Y325199D01*
D02*
G37*
G36*
X68306D02*
X66438Y324425D01*
X64879Y322867D01*
X64105Y320998D01*
X68306D01*
Y325199D01*
D02*
G37*
G36*
X20846D02*
Y320998D01*
X25046D01*
X24272Y322867D01*
X22714Y324425D01*
X20846Y325199D01*
D02*
G37*
G36*
X18306D02*
X16438Y324425D01*
X14879Y322867D01*
X14105Y320998D01*
X18306D01*
Y325199D01*
D02*
G37*
G36*
X230666Y324878D02*
X226466D01*
Y320678D01*
X228334Y321452D01*
X229892Y323010D01*
X230666Y324878D01*
D02*
G37*
G36*
X223926D02*
X219725D01*
X220499Y323010D01*
X222058Y321452D01*
X223926Y320678D01*
Y324878D01*
D02*
G37*
G36*
X553871Y325750D02*
X553720D01*
Y316230D01*
X563240D01*
Y316381D01*
X562505Y319125D01*
X561084Y321585D01*
X559075Y323594D01*
X556615Y325015D01*
X553871Y325750D01*
D02*
G37*
G36*
X551180D02*
X551030D01*
X548285Y325015D01*
X545825Y323594D01*
X543816Y321585D01*
X542395Y319125D01*
X541660Y316381D01*
Y316230D01*
X551180D01*
Y325750D01*
D02*
G37*
G36*
X970280Y319160D02*
Y314960D01*
X974480D01*
X973707Y316828D01*
X972148Y318387D01*
X970280Y319160D01*
D02*
G37*
G36*
X967740D02*
X965872Y318387D01*
X964313Y316828D01*
X963540Y314960D01*
X967740D01*
Y319160D01*
D02*
G37*
G36*
X938530D02*
Y314960D01*
X942730D01*
X941957Y316828D01*
X940398Y318387D01*
X938530Y319160D01*
D02*
G37*
G36*
X935990D02*
X934122Y318387D01*
X932563Y316828D01*
X931790Y314960D01*
X935990D01*
Y319160D01*
D02*
G37*
G36*
X912250Y318770D02*
X908050D01*
Y314570D01*
X909918Y315343D01*
X911477Y316902D01*
X912250Y318770D01*
D02*
G37*
G36*
X905510D02*
X901310D01*
X902083Y316902D01*
X903642Y315343D01*
X905510Y314570D01*
Y318770D01*
D02*
G37*
G36*
X881770D02*
X877570D01*
Y314570D01*
X879438Y315343D01*
X880997Y316902D01*
X881770Y318770D01*
D02*
G37*
G36*
X875030D02*
X870830D01*
X871603Y316902D01*
X873162Y315343D01*
X875030Y314570D01*
Y318770D01*
D02*
G37*
G36*
X851290D02*
X847090D01*
Y314570D01*
X848958Y315343D01*
X850517Y316902D01*
X851290Y318770D01*
D02*
G37*
G36*
X844550D02*
X840350D01*
X841123Y316902D01*
X842682Y315343D01*
X844550Y314570D01*
Y318770D01*
D02*
G37*
G36*
X1075046Y318458D02*
X1070846D01*
Y314258D01*
X1072714Y315032D01*
X1074272Y316590D01*
X1075046Y318458D01*
D02*
G37*
G36*
X1068306D02*
X1064105D01*
X1064879Y316590D01*
X1066438Y315032D01*
X1068306Y314258D01*
Y318458D01*
D02*
G37*
G36*
X1025046D02*
X1020846D01*
Y314258D01*
X1022714Y315032D01*
X1024272Y316590D01*
X1025046Y318458D01*
D02*
G37*
G36*
X1018306D02*
X1014105D01*
X1014879Y316590D01*
X1016438Y315032D01*
X1018306Y314258D01*
Y318458D01*
D02*
G37*
G36*
X825046D02*
X820846D01*
Y314258D01*
X822714Y315032D01*
X824272Y316590D01*
X825046Y318458D01*
D02*
G37*
G36*
X818306D02*
X814105D01*
X814879Y316590D01*
X816438Y315032D01*
X818306Y314258D01*
Y318458D01*
D02*
G37*
G36*
X775046D02*
X770846D01*
Y314258D01*
X772714Y315032D01*
X774272Y316590D01*
X775046Y318458D01*
D02*
G37*
G36*
X768306D02*
X764105D01*
X764879Y316590D01*
X766438Y315032D01*
X768306Y314258D01*
Y318458D01*
D02*
G37*
G36*
X725046D02*
X720846D01*
Y314258D01*
X722714Y315032D01*
X724272Y316590D01*
X725046Y318458D01*
D02*
G37*
G36*
X718306D02*
X714105D01*
X714879Y316590D01*
X716438Y315032D01*
X718306Y314258D01*
Y318458D01*
D02*
G37*
G36*
X675046D02*
X670846D01*
Y314258D01*
X672714Y315032D01*
X674272Y316590D01*
X675046Y318458D01*
D02*
G37*
G36*
X668306D02*
X664105D01*
X664879Y316590D01*
X666438Y315032D01*
X668306Y314258D01*
Y318458D01*
D02*
G37*
G36*
X625046D02*
X620846D01*
Y314258D01*
X622714Y315032D01*
X624272Y316590D01*
X625046Y318458D01*
D02*
G37*
G36*
X618306D02*
X614105D01*
X614879Y316590D01*
X616438Y315032D01*
X618306Y314258D01*
Y318458D01*
D02*
G37*
G36*
X425046D02*
X420846D01*
Y314258D01*
X422714Y315032D01*
X424272Y316590D01*
X425046Y318458D01*
D02*
G37*
G36*
X418306D02*
X414105D01*
X414879Y316590D01*
X416438Y315032D01*
X418306Y314258D01*
Y318458D01*
D02*
G37*
G36*
X275046D02*
X270846D01*
Y314258D01*
X272714Y315032D01*
X274272Y316590D01*
X275046Y318458D01*
D02*
G37*
G36*
X268306D02*
X264105D01*
X264879Y316590D01*
X266438Y315032D01*
X268306Y314258D01*
Y318458D01*
D02*
G37*
G36*
X75046D02*
X70846D01*
Y314258D01*
X72714Y315032D01*
X74272Y316590D01*
X75046Y318458D01*
D02*
G37*
G36*
X68306D02*
X64105D01*
X64879Y316590D01*
X66438Y315032D01*
X68306Y314258D01*
Y318458D01*
D02*
G37*
G36*
X25046D02*
X20846D01*
Y314258D01*
X22714Y315032D01*
X24272Y316590D01*
X25046Y318458D01*
D02*
G37*
G36*
X18306D02*
X14105D01*
X14879Y316590D01*
X16438Y315032D01*
X18306Y314258D01*
Y318458D01*
D02*
G37*
G36*
X974480Y312420D02*
X970280D01*
Y308220D01*
X972148Y308993D01*
X973707Y310552D01*
X974480Y312420D01*
D02*
G37*
G36*
X967740D02*
X963540D01*
X964313Y310552D01*
X965872Y308993D01*
X967740Y308220D01*
Y312420D01*
D02*
G37*
G36*
X942730D02*
X938530D01*
Y308220D01*
X940398Y308993D01*
X941957Y310552D01*
X942730Y312420D01*
D02*
G37*
G36*
X935990D02*
X931790D01*
X932563Y310552D01*
X934122Y308993D01*
X935990Y308220D01*
Y312420D01*
D02*
G37*
G36*
X669290Y297570D02*
Y293370D01*
X673490D01*
X672717Y295238D01*
X671158Y296797D01*
X669290Y297570D01*
D02*
G37*
G36*
X666750D02*
X664882Y296797D01*
X663323Y295238D01*
X662550Y293370D01*
X666750D01*
Y297570D01*
D02*
G37*
G36*
X673490Y290830D02*
X669290D01*
Y286630D01*
X671158Y287403D01*
X672717Y288962D01*
X673490Y290830D01*
D02*
G37*
G36*
X666750D02*
X662550D01*
X663323Y288962D01*
X664882Y287403D01*
X666750Y286630D01*
Y290830D01*
D02*
G37*
G36*
X585470Y279790D02*
Y275590D01*
X589670D01*
X588897Y277458D01*
X587338Y279017D01*
X585470Y279790D01*
D02*
G37*
G36*
X582930D02*
X581062Y279017D01*
X579503Y277458D01*
X578730Y275590D01*
X582930D01*
Y279790D01*
D02*
G37*
G36*
X1045846Y275199D02*
Y270998D01*
X1050046D01*
X1049272Y272866D01*
X1047714Y274425D01*
X1045846Y275199D01*
D02*
G37*
G36*
X1043306D02*
X1041438Y274425D01*
X1039879Y272866D01*
X1039105Y270998D01*
X1043306D01*
Y275199D01*
D02*
G37*
G36*
X995846D02*
Y270998D01*
X1000046D01*
X999272Y272866D01*
X997714Y274425D01*
X995846Y275199D01*
D02*
G37*
G36*
X993306D02*
X991438Y274425D01*
X989879Y272866D01*
X989105Y270998D01*
X993306D01*
Y275199D01*
D02*
G37*
G36*
X895846D02*
Y270998D01*
X900046D01*
X899272Y272866D01*
X897714Y274425D01*
X895846Y275199D01*
D02*
G37*
G36*
X893306D02*
X891438Y274425D01*
X889879Y272866D01*
X889105Y270998D01*
X893306D01*
Y275199D01*
D02*
G37*
G36*
X845846D02*
Y270998D01*
X850046D01*
X849272Y272866D01*
X847714Y274425D01*
X845846Y275199D01*
D02*
G37*
G36*
X843306D02*
X841438Y274425D01*
X839879Y272866D01*
X839105Y270998D01*
X843306D01*
Y275199D01*
D02*
G37*
G36*
X695846D02*
Y270998D01*
X700046D01*
X699272Y272866D01*
X697714Y274425D01*
X695846Y275199D01*
D02*
G37*
G36*
X693306D02*
X691438Y274425D01*
X689879Y272866D01*
X689105Y270998D01*
X693306D01*
Y275199D01*
D02*
G37*
G36*
X645846D02*
Y270998D01*
X650046D01*
X649272Y272866D01*
X647714Y274425D01*
X645846Y275199D01*
D02*
G37*
G36*
X643306D02*
X641438Y274425D01*
X639879Y272866D01*
X639105Y270998D01*
X643306D01*
Y275199D01*
D02*
G37*
G36*
X295846D02*
Y270998D01*
X300046D01*
X299272Y272866D01*
X297714Y274425D01*
X295846Y275199D01*
D02*
G37*
G36*
X293306D02*
X291438Y274425D01*
X289879Y272866D01*
X289105Y270998D01*
X293306D01*
Y275199D01*
D02*
G37*
G36*
X145846D02*
Y270998D01*
X150046D01*
X149272Y272866D01*
X147714Y274425D01*
X145846Y275199D01*
D02*
G37*
G36*
X143306D02*
X141438Y274425D01*
X139879Y272866D01*
X139105Y270998D01*
X143306D01*
Y275199D01*
D02*
G37*
G36*
X95846D02*
Y270998D01*
X100046D01*
X99272Y272866D01*
X97714Y274425D01*
X95846Y275199D01*
D02*
G37*
G36*
X93306D02*
X91438Y274425D01*
X89879Y272866D01*
X89105Y270998D01*
X93306D01*
Y275199D01*
D02*
G37*
G36*
X45846D02*
Y270998D01*
X50046D01*
X49272Y272866D01*
X47714Y274425D01*
X45846Y275199D01*
D02*
G37*
G36*
X43306D02*
X41438Y274425D01*
X39879Y272866D01*
X39105Y270998D01*
X43306D01*
Y275199D01*
D02*
G37*
G36*
X589670Y273050D02*
X585470D01*
Y268850D01*
X587338Y269623D01*
X588897Y271182D01*
X589670Y273050D01*
D02*
G37*
G36*
X582930D02*
X578730D01*
X579503Y271182D01*
X581062Y269623D01*
X582930Y268850D01*
Y273050D01*
D02*
G37*
G36*
X1050046Y268458D02*
X1045846D01*
Y264258D01*
X1047714Y265032D01*
X1049272Y266590D01*
X1050046Y268458D01*
D02*
G37*
G36*
X1043306D02*
X1039105D01*
X1039879Y266590D01*
X1041438Y265032D01*
X1043306Y264258D01*
Y268458D01*
D02*
G37*
G36*
X1000046D02*
X995846D01*
Y264258D01*
X997714Y265032D01*
X999272Y266590D01*
X1000046Y268458D01*
D02*
G37*
G36*
X993306D02*
X989105D01*
X989879Y266590D01*
X991438Y265032D01*
X993306Y264258D01*
Y268458D01*
D02*
G37*
G36*
X900046D02*
X895846D01*
Y264258D01*
X897714Y265032D01*
X899272Y266590D01*
X900046Y268458D01*
D02*
G37*
G36*
X893306D02*
X889105D01*
X889879Y266590D01*
X891438Y265032D01*
X893306Y264258D01*
Y268458D01*
D02*
G37*
G36*
X850046D02*
X845846D01*
Y264258D01*
X847714Y265032D01*
X849272Y266590D01*
X850046Y268458D01*
D02*
G37*
G36*
X843306D02*
X839105D01*
X839879Y266590D01*
X841438Y265032D01*
X843306Y264258D01*
Y268458D01*
D02*
G37*
G36*
X700046D02*
X695846D01*
Y264258D01*
X697714Y265032D01*
X699272Y266590D01*
X700046Y268458D01*
D02*
G37*
G36*
X693306D02*
X689105D01*
X689879Y266590D01*
X691438Y265032D01*
X693306Y264258D01*
Y268458D01*
D02*
G37*
G36*
X650046D02*
X645846D01*
Y264258D01*
X647714Y265032D01*
X649272Y266590D01*
X650046Y268458D01*
D02*
G37*
G36*
X643306D02*
X639105D01*
X639879Y266590D01*
X641438Y265032D01*
X643306Y264258D01*
Y268458D01*
D02*
G37*
G36*
X300046D02*
X295846D01*
Y264258D01*
X297714Y265032D01*
X299272Y266590D01*
X300046Y268458D01*
D02*
G37*
G36*
X293306D02*
X289105D01*
X289879Y266590D01*
X291438Y265032D01*
X293306Y264258D01*
Y268458D01*
D02*
G37*
G36*
X150046D02*
X145846D01*
Y264258D01*
X147714Y265032D01*
X149272Y266590D01*
X150046Y268458D01*
D02*
G37*
G36*
X143306D02*
X139105D01*
X139879Y266590D01*
X141438Y265032D01*
X143306Y264258D01*
Y268458D01*
D02*
G37*
G36*
X100046D02*
X95846D01*
Y264258D01*
X97714Y265032D01*
X99272Y266590D01*
X100046Y268458D01*
D02*
G37*
G36*
X93306D02*
X89105D01*
X89879Y266590D01*
X91438Y265032D01*
X93306Y264258D01*
Y268458D01*
D02*
G37*
G36*
X50046D02*
X45846D01*
Y264258D01*
X47714Y265032D01*
X49272Y266590D01*
X50046Y268458D01*
D02*
G37*
G36*
X43306D02*
X39105D01*
X39879Y266590D01*
X41438Y265032D01*
X43306Y264258D01*
Y268458D01*
D02*
G37*
G36*
X1097761Y286220D02*
X1094799D01*
X1091938Y285453D01*
X1089372Y283972D01*
X1087278Y281878D01*
X1085797Y279312D01*
X1085030Y276451D01*
Y273489D01*
X1085797Y270628D01*
X1087278Y268062D01*
X1089372Y265968D01*
X1091938Y264487D01*
X1094799Y263720D01*
X1097761D01*
X1100622Y264487D01*
X1103188Y265968D01*
X1105282Y268062D01*
X1106763Y270628D01*
X1107530Y273489D01*
Y276451D01*
X1106763Y279312D01*
X1105282Y281878D01*
X1103188Y283972D01*
X1100622Y285453D01*
X1097761Y286220D01*
D02*
G37*
G36*
X982530D02*
X960030D01*
Y263720D01*
X982530D01*
Y286220D01*
D02*
G37*
G36*
X919961D02*
X916999D01*
X914138Y285453D01*
X911572Y283972D01*
X909478Y281878D01*
X907997Y279312D01*
X907230Y276451D01*
Y273489D01*
X907997Y270628D01*
X909478Y268062D01*
X911572Y265968D01*
X914138Y264487D01*
X916999Y263720D01*
X919961D01*
X922822Y264487D01*
X925388Y265968D01*
X927482Y268062D01*
X928963Y270628D01*
X929730Y273489D01*
Y276451D01*
X928963Y279312D01*
X927482Y281878D01*
X925388Y283972D01*
X922822Y285453D01*
X919961Y286220D01*
D02*
G37*
G36*
X804730D02*
X782230D01*
Y263720D01*
X804730D01*
Y286220D01*
D02*
G37*
G36*
X738351D02*
X735389D01*
X732528Y285453D01*
X729962Y283972D01*
X727868Y281878D01*
X726387Y279312D01*
X725620Y276451D01*
Y273489D01*
X726387Y270628D01*
X727868Y268062D01*
X729962Y265968D01*
X732528Y264487D01*
X735389Y263720D01*
X738351D01*
X741212Y264487D01*
X743778Y265968D01*
X745872Y268062D01*
X747353Y270628D01*
X748120Y273489D01*
Y276451D01*
X747353Y279312D01*
X745872Y281878D01*
X743778Y283972D01*
X741212Y285453D01*
X738351Y286220D01*
D02*
G37*
G36*
X623120D02*
X600620D01*
Y263720D01*
X623120D01*
Y286220D01*
D02*
G37*
G36*
X588010Y250580D02*
Y246380D01*
X592210D01*
X591437Y248248D01*
X589878Y249807D01*
X588010Y250580D01*
D02*
G37*
G36*
X585470D02*
X583602Y249807D01*
X582043Y248248D01*
X581270Y246380D01*
X585470D01*
Y250580D01*
D02*
G37*
G36*
X521997Y250551D02*
Y246351D01*
X526198D01*
X525424Y248219D01*
X523866Y249778D01*
X521997Y250551D01*
D02*
G37*
G36*
X519458D02*
X517589Y249778D01*
X516031Y248219D01*
X515257Y246351D01*
X519458D01*
Y250551D01*
D02*
G37*
G36*
X478580D02*
Y246351D01*
X482781D01*
X482007Y248219D01*
X480448Y249778D01*
X478580Y250551D01*
D02*
G37*
G36*
X476040D02*
X474172Y249778D01*
X472614Y248219D01*
X471840Y246351D01*
X476040D01*
Y250551D01*
D02*
G37*
G36*
X592210Y243840D02*
X588010D01*
Y239640D01*
X589878Y240413D01*
X591437Y241972D01*
X592210Y243840D01*
D02*
G37*
G36*
X585470D02*
X581270D01*
X582043Y241972D01*
X583602Y240413D01*
X585470Y239640D01*
Y243840D01*
D02*
G37*
G36*
X526198Y243811D02*
X521997D01*
Y239611D01*
X523866Y240384D01*
X525424Y241943D01*
X526198Y243811D01*
D02*
G37*
G36*
X519458D02*
X515257D01*
X516031Y241943D01*
X517589Y240384D01*
X519458Y239611D01*
Y243811D01*
D02*
G37*
G36*
X482781D02*
X478580D01*
Y239611D01*
X480448Y240384D01*
X482007Y241943D01*
X482781Y243811D01*
D02*
G37*
G36*
X476040D02*
X471840D01*
X472614Y241943D01*
X474172Y240384D01*
X476040Y239611D01*
Y243811D01*
D02*
G37*
G36*
X1097832Y236760D02*
X1097550D01*
Y226240D01*
X1108070D01*
Y226522D01*
X1107266Y229521D01*
X1105714Y232209D01*
X1103519Y234404D01*
X1100831Y235956D01*
X1097832Y236760D01*
D02*
G37*
G36*
X1095010D02*
X1094728D01*
X1091729Y235956D01*
X1089041Y234404D01*
X1086846Y232209D01*
X1085294Y229521D01*
X1084490Y226522D01*
Y226240D01*
X1095010D01*
Y236760D01*
D02*
G37*
G36*
X920032D02*
X919750D01*
Y226240D01*
X930270D01*
Y226522D01*
X929466Y229521D01*
X927914Y232209D01*
X925719Y234404D01*
X923031Y235956D01*
X920032Y236760D01*
D02*
G37*
G36*
X917210D02*
X916928D01*
X913929Y235956D01*
X911241Y234404D01*
X909046Y232209D01*
X907494Y229521D01*
X906690Y226522D01*
Y226240D01*
X917210D01*
Y236760D01*
D02*
G37*
G36*
X738422D02*
X738140D01*
Y226240D01*
X748660D01*
Y226522D01*
X747857Y229521D01*
X746304Y232209D01*
X744109Y234404D01*
X741421Y235956D01*
X738422Y236760D01*
D02*
G37*
G36*
X735600D02*
X735318D01*
X732319Y235956D01*
X729631Y234404D01*
X727436Y232209D01*
X725883Y229521D01*
X725080Y226522D01*
Y226240D01*
X735600D01*
Y236760D01*
D02*
G37*
G36*
X324256Y228749D02*
Y224548D01*
X328456D01*
X327682Y226416D01*
X326124Y227975D01*
X324256Y228749D01*
D02*
G37*
G36*
X321716D02*
X319848Y227975D01*
X318289Y226416D01*
X317515Y224548D01*
X321716D01*
Y228749D01*
D02*
G37*
G36*
X1070846Y225199D02*
Y220998D01*
X1075046D01*
X1074272Y222866D01*
X1072714Y224425D01*
X1070846Y225199D01*
D02*
G37*
G36*
X1068306D02*
X1066438Y224425D01*
X1064879Y222866D01*
X1064105Y220998D01*
X1068306D01*
Y225199D01*
D02*
G37*
G36*
X870846D02*
Y220998D01*
X875046D01*
X874272Y222866D01*
X872714Y224425D01*
X870846Y225199D01*
D02*
G37*
G36*
X868306D02*
X866438Y224425D01*
X864879Y222866D01*
X864105Y220998D01*
X868306D01*
Y225199D01*
D02*
G37*
G36*
X770846D02*
Y220998D01*
X775046D01*
X774272Y222866D01*
X772714Y224425D01*
X770846Y225199D01*
D02*
G37*
G36*
X768306D02*
X766438Y224425D01*
X764879Y222866D01*
X764105Y220998D01*
X768306D01*
Y225199D01*
D02*
G37*
G36*
X670846D02*
Y220998D01*
X675046D01*
X674272Y222866D01*
X672714Y224425D01*
X670846Y225199D01*
D02*
G37*
G36*
X668306D02*
X666438Y224425D01*
X664879Y222866D01*
X664105Y220998D01*
X668306D01*
Y225199D01*
D02*
G37*
G36*
X370846D02*
Y220998D01*
X375046D01*
X374272Y222866D01*
X372714Y224425D01*
X370846Y225199D01*
D02*
G37*
G36*
X368306D02*
X366438Y224425D01*
X364879Y222866D01*
X364105Y220998D01*
X368306D01*
Y225199D01*
D02*
G37*
G36*
X170846D02*
Y220998D01*
X175046D01*
X174272Y222866D01*
X172714Y224425D01*
X170846Y225199D01*
D02*
G37*
G36*
X168306D02*
X166438Y224425D01*
X164879Y222866D01*
X164105Y220998D01*
X168306D01*
Y225199D01*
D02*
G37*
G36*
X120846D02*
Y220998D01*
X125046D01*
X124272Y222866D01*
X122714Y224425D01*
X120846Y225199D01*
D02*
G37*
G36*
X118306D02*
X116438Y224425D01*
X114879Y222866D01*
X114105Y220998D01*
X118306D01*
Y225199D01*
D02*
G37*
G36*
X70846D02*
Y220998D01*
X75046D01*
X74272Y222866D01*
X72714Y224425D01*
X70846Y225199D01*
D02*
G37*
G36*
X68306D02*
X66438Y224425D01*
X64879Y222866D01*
X64105Y220998D01*
X68306D01*
Y225199D01*
D02*
G37*
G36*
X20846D02*
Y220998D01*
X25046D01*
X24272Y222866D01*
X22714Y224425D01*
X20846Y225199D01*
D02*
G37*
G36*
X18306D02*
X16438Y224425D01*
X14879Y222866D01*
X14105Y220998D01*
X18306D01*
Y225199D01*
D02*
G37*
G36*
X328456Y222008D02*
X324256D01*
Y217808D01*
X326124Y218582D01*
X327682Y220140D01*
X328456Y222008D01*
D02*
G37*
G36*
X321716D02*
X317515D01*
X318289Y220140D01*
X319848Y218582D01*
X321716Y217808D01*
Y222008D01*
D02*
G37*
G36*
X707966Y221513D02*
Y217313D01*
X712167D01*
X711393Y219181D01*
X709834Y220739D01*
X707966Y221513D01*
D02*
G37*
G36*
X705426D02*
X703558Y220739D01*
X702000Y219181D01*
X701226Y217313D01*
X705426D01*
Y221513D01*
D02*
G37*
G36*
X1075046Y218458D02*
X1070846D01*
Y214258D01*
X1072714Y215032D01*
X1074272Y216590D01*
X1075046Y218458D01*
D02*
G37*
G36*
X1068306D02*
X1064105D01*
X1064879Y216590D01*
X1066438Y215032D01*
X1068306Y214258D01*
Y218458D01*
D02*
G37*
G36*
X875046D02*
X870846D01*
Y214258D01*
X872714Y215032D01*
X874272Y216590D01*
X875046Y218458D01*
D02*
G37*
G36*
X868306D02*
X864105D01*
X864879Y216590D01*
X866438Y215032D01*
X868306Y214258D01*
Y218458D01*
D02*
G37*
G36*
X775046D02*
X770846D01*
Y214258D01*
X772714Y215032D01*
X774272Y216590D01*
X775046Y218458D01*
D02*
G37*
G36*
X768306D02*
X764105D01*
X764879Y216590D01*
X766438Y215032D01*
X768306Y214258D01*
Y218458D01*
D02*
G37*
G36*
X675046D02*
X670846D01*
Y214258D01*
X672714Y215032D01*
X674272Y216590D01*
X675046Y218458D01*
D02*
G37*
G36*
X668306D02*
X664105D01*
X664879Y216590D01*
X666438Y215032D01*
X668306Y214258D01*
Y218458D01*
D02*
G37*
G36*
X375046D02*
X370846D01*
Y214258D01*
X372714Y215032D01*
X374272Y216590D01*
X375046Y218458D01*
D02*
G37*
G36*
X368306D02*
X364105D01*
X364879Y216590D01*
X366438Y215032D01*
X368306Y214258D01*
Y218458D01*
D02*
G37*
G36*
X175046D02*
X170846D01*
Y214258D01*
X172714Y215032D01*
X174272Y216590D01*
X175046Y218458D01*
D02*
G37*
G36*
X168306D02*
X164105D01*
X164879Y216590D01*
X166438Y215032D01*
X168306Y214258D01*
Y218458D01*
D02*
G37*
G36*
X125046D02*
X120846D01*
Y214258D01*
X122714Y215032D01*
X124272Y216590D01*
X125046Y218458D01*
D02*
G37*
G36*
X118306D02*
X114105D01*
X114879Y216590D01*
X116438Y215032D01*
X118306Y214258D01*
Y218458D01*
D02*
G37*
G36*
X75046D02*
X70846D01*
Y214258D01*
X72714Y215032D01*
X74272Y216590D01*
X75046Y218458D01*
D02*
G37*
G36*
X68306D02*
X64105D01*
X64879Y216590D01*
X66438Y215032D01*
X68306Y214258D01*
Y218458D01*
D02*
G37*
G36*
X25046D02*
X20846D01*
Y214258D01*
X22714Y215032D01*
X24272Y216590D01*
X25046Y218458D01*
D02*
G37*
G36*
X18306D02*
X14105D01*
X14879Y216590D01*
X16438Y215032D01*
X18306Y214258D01*
Y218458D01*
D02*
G37*
G36*
X972761Y236220D02*
X969799D01*
X966938Y235453D01*
X964372Y233972D01*
X962278Y231878D01*
X960797Y229312D01*
X960030Y226451D01*
Y223489D01*
X960797Y220628D01*
X962278Y218062D01*
X964372Y215968D01*
X966938Y214487D01*
X969799Y213720D01*
X972761D01*
X975622Y214487D01*
X978188Y215968D01*
X980282Y218062D01*
X981763Y220628D01*
X982530Y223489D01*
Y226451D01*
X981763Y229312D01*
X980282Y231878D01*
X978188Y233972D01*
X975622Y235453D01*
X972761Y236220D01*
D02*
G37*
G36*
X794961D02*
X791999D01*
X789138Y235453D01*
X786572Y233972D01*
X784478Y231878D01*
X782997Y229312D01*
X782230Y226451D01*
Y223489D01*
X782997Y220628D01*
X784478Y218062D01*
X786572Y215968D01*
X789138Y214487D01*
X791999Y213720D01*
X794961D01*
X797822Y214487D01*
X800388Y215968D01*
X802482Y218062D01*
X803963Y220628D01*
X804730Y223489D01*
Y226451D01*
X803963Y229312D01*
X802482Y231878D01*
X800388Y233972D01*
X797822Y235453D01*
X794961Y236220D01*
D02*
G37*
G36*
X613351D02*
X610389D01*
X607528Y235453D01*
X604962Y233972D01*
X602868Y231878D01*
X601387Y229312D01*
X600620Y226451D01*
Y223489D01*
X601387Y220628D01*
X602868Y218062D01*
X604962Y215968D01*
X607528Y214487D01*
X610389Y213720D01*
X613351D01*
X616212Y214487D01*
X618778Y215968D01*
X620872Y218062D01*
X622353Y220628D01*
X623120Y223489D01*
Y226451D01*
X622353Y229312D01*
X620872Y231878D01*
X618778Y233972D01*
X616212Y235453D01*
X613351Y236220D01*
D02*
G37*
G36*
X1108070Y223700D02*
X1097550D01*
Y213180D01*
X1097832D01*
X1100831Y213983D01*
X1103519Y215536D01*
X1105714Y217731D01*
X1107266Y220419D01*
X1108070Y223418D01*
Y223700D01*
D02*
G37*
G36*
X1095010D02*
X1084490D01*
Y223418D01*
X1085294Y220419D01*
X1086846Y217731D01*
X1089041Y215536D01*
X1091729Y213983D01*
X1094728Y213180D01*
X1095010D01*
Y223700D01*
D02*
G37*
G36*
X930270D02*
X919750D01*
Y213180D01*
X920032D01*
X923031Y213983D01*
X925719Y215536D01*
X927914Y217731D01*
X929466Y220419D01*
X930270Y223418D01*
Y223700D01*
D02*
G37*
G36*
X917210D02*
X906690D01*
Y223418D01*
X907494Y220419D01*
X909046Y217731D01*
X911241Y215536D01*
X913929Y213983D01*
X916928Y213180D01*
X917210D01*
Y223700D01*
D02*
G37*
G36*
X748660D02*
X738140D01*
Y213180D01*
X738422D01*
X741421Y213983D01*
X744109Y215536D01*
X746304Y217731D01*
X747857Y220419D01*
X748660Y223418D01*
Y223700D01*
D02*
G37*
G36*
X735600D02*
X725080D01*
Y223418D01*
X725883Y220419D01*
X727436Y217731D01*
X729631Y215536D01*
X732319Y213983D01*
X735318Y213180D01*
X735600D01*
Y223700D01*
D02*
G37*
G36*
X712167Y214773D02*
X707966D01*
Y210572D01*
X709834Y211346D01*
X711393Y212904D01*
X712167Y214773D01*
D02*
G37*
G36*
X705426D02*
X701226D01*
X702000Y212904D01*
X703558Y211346D01*
X705426Y210572D01*
Y214773D01*
D02*
G37*
G36*
X1033780Y213750D02*
Y209550D01*
X1037980D01*
X1037207Y211418D01*
X1035648Y212977D01*
X1033780Y213750D01*
D02*
G37*
G36*
X1031240D02*
X1029372Y212977D01*
X1027813Y211418D01*
X1027040Y209550D01*
X1031240D01*
Y213750D01*
D02*
G37*
G36*
X591820Y207400D02*
Y203200D01*
X596020D01*
X595247Y205068D01*
X593688Y206627D01*
X591820Y207400D01*
D02*
G37*
G36*
X589280D02*
X587412Y206627D01*
X585853Y205068D01*
X585080Y203200D01*
X589280D01*
Y207400D01*
D02*
G37*
G36*
X1037980Y207010D02*
X1033780D01*
Y202810D01*
X1035648Y203583D01*
X1037207Y205142D01*
X1037980Y207010D01*
D02*
G37*
G36*
X1031240D02*
X1027040D01*
X1027813Y205142D01*
X1029372Y203583D01*
X1031240Y202810D01*
Y207010D01*
D02*
G37*
G36*
X596020Y200660D02*
X591820D01*
Y196460D01*
X593688Y197233D01*
X595247Y198792D01*
X596020Y200660D01*
D02*
G37*
G36*
X589280D02*
X585080D01*
X585853Y198792D01*
X587412Y197233D01*
X589280Y196460D01*
Y200660D01*
D02*
G37*
G36*
X563240Y313690D02*
X552450D01*
X541660D01*
Y313540D01*
X542395Y310795D01*
X543816Y308335D01*
X545825Y306326D01*
X548285Y304905D01*
X549542Y304569D01*
X549542Y299392D01*
X548494Y299111D01*
X546156Y297762D01*
X544248Y295854D01*
X542898Y293516D01*
X542200Y290909D01*
Y288211D01*
X542898Y285604D01*
X544248Y283266D01*
X546156Y281358D01*
X548494Y280009D01*
X551101Y279310D01*
Y274410D01*
X548494Y273711D01*
X546156Y272362D01*
X544248Y270454D01*
X542898Y268116D01*
X542200Y265509D01*
Y262811D01*
X542898Y260204D01*
X544248Y257866D01*
X546156Y255958D01*
X548494Y254608D01*
X551101Y253910D01*
Y249010D01*
X548494Y248312D01*
X546156Y246962D01*
X544248Y245054D01*
X542898Y242716D01*
X542200Y240109D01*
Y237411D01*
X542898Y234804D01*
X544248Y232466D01*
X546156Y230558D01*
X548494Y229209D01*
X551101Y228510D01*
Y223610D01*
X548494Y222911D01*
X546156Y221562D01*
X544248Y219654D01*
X542898Y217316D01*
X542200Y214709D01*
Y212011D01*
X542898Y209404D01*
X544248Y207066D01*
X546156Y205158D01*
X548494Y203808D01*
X551101Y203110D01*
Y198210D01*
X548494Y197512D01*
X546156Y196162D01*
X544248Y194254D01*
X542898Y191916D01*
X542200Y189309D01*
Y186611D01*
X542898Y184004D01*
X544248Y181666D01*
X546156Y179758D01*
X548494Y178409D01*
X551101Y177710D01*
X553799D01*
X556406Y178409D01*
X558744Y179758D01*
X560652Y181666D01*
X562001Y184004D01*
X562700Y186611D01*
Y189309D01*
X562001Y191916D01*
X560652Y194254D01*
X558744Y196162D01*
X556406Y197512D01*
X553800Y198210D01*
Y203110D01*
X556406Y203808D01*
X558744Y205158D01*
X560652Y207066D01*
X562001Y209404D01*
X562700Y212011D01*
Y214709D01*
X562001Y217316D01*
X560652Y219654D01*
X558744Y221562D01*
X556406Y222911D01*
X553800Y223610D01*
Y228510D01*
X556406Y229209D01*
X558744Y230558D01*
X560652Y232466D01*
X562001Y234804D01*
X562700Y237411D01*
Y240109D01*
X562001Y242716D01*
X560652Y245054D01*
X558744Y246962D01*
X556406Y248312D01*
X553800Y249010D01*
Y253910D01*
X556406Y254608D01*
X558744Y255958D01*
X560652Y257866D01*
X562001Y260204D01*
X562700Y262811D01*
Y265509D01*
X562001Y268116D01*
X560652Y270454D01*
X558744Y272362D01*
X556406Y273711D01*
X553800Y274410D01*
Y279310D01*
X556406Y280009D01*
X558744Y281358D01*
X560652Y283266D01*
X562001Y285604D01*
X562700Y288211D01*
Y290909D01*
X562001Y293516D01*
X560652Y295854D01*
X558744Y297762D01*
X556406Y299111D01*
X555358Y299392D01*
X555358Y304569D01*
X556615Y304905D01*
X559075Y306326D01*
X561084Y308335D01*
X562505Y310795D01*
X563240Y313540D01*
Y313690D01*
D02*
G37*
G36*
X1095846Y175199D02*
Y170998D01*
X1100046D01*
X1099272Y172866D01*
X1097714Y174425D01*
X1095846Y175199D01*
D02*
G37*
G36*
X1093306D02*
X1091438Y174425D01*
X1089879Y172866D01*
X1089105Y170998D01*
X1093306D01*
Y175199D01*
D02*
G37*
G36*
X1045846D02*
Y170998D01*
X1050046D01*
X1049272Y172866D01*
X1047714Y174425D01*
X1045846Y175199D01*
D02*
G37*
G36*
X1043306D02*
X1041438Y174425D01*
X1039879Y172866D01*
X1039105Y170998D01*
X1043306D01*
Y175199D01*
D02*
G37*
G36*
X995846D02*
Y170998D01*
X1000046D01*
X999272Y172866D01*
X997714Y174425D01*
X995846Y175199D01*
D02*
G37*
G36*
X993306D02*
X991438Y174425D01*
X989879Y172866D01*
X989105Y170998D01*
X993306D01*
Y175199D01*
D02*
G37*
G36*
X945846D02*
Y170998D01*
X950046D01*
X949272Y172866D01*
X947714Y174425D01*
X945846Y175199D01*
D02*
G37*
G36*
X943306D02*
X941438Y174425D01*
X939879Y172866D01*
X939105Y170998D01*
X943306D01*
Y175199D01*
D02*
G37*
G36*
X845846D02*
Y170998D01*
X850046D01*
X849272Y172866D01*
X847714Y174425D01*
X845846Y175199D01*
D02*
G37*
G36*
X843306D02*
X841438Y174425D01*
X839879Y172866D01*
X839105Y170998D01*
X843306D01*
Y175199D01*
D02*
G37*
G36*
X795846D02*
Y170998D01*
X800046D01*
X799272Y172866D01*
X797714Y174425D01*
X795846Y175199D01*
D02*
G37*
G36*
X793306D02*
X791438Y174425D01*
X789879Y172866D01*
X789105Y170998D01*
X793306D01*
Y175199D01*
D02*
G37*
G36*
X745846D02*
Y170998D01*
X750046D01*
X749272Y172866D01*
X747714Y174425D01*
X745846Y175199D01*
D02*
G37*
G36*
X743306D02*
X741438Y174425D01*
X739879Y172866D01*
X739105Y170998D01*
X743306D01*
Y175199D01*
D02*
G37*
G36*
X695846D02*
Y170998D01*
X700046D01*
X699272Y172866D01*
X697714Y174425D01*
X695846Y175199D01*
D02*
G37*
G36*
X693306D02*
X691438Y174425D01*
X689879Y172866D01*
X689105Y170998D01*
X693306D01*
Y175199D01*
D02*
G37*
G36*
X595846D02*
Y170998D01*
X600046D01*
X599272Y172866D01*
X597714Y174425D01*
X595846Y175199D01*
D02*
G37*
G36*
X593306D02*
X591438Y174425D01*
X589879Y172866D01*
X589105Y170998D01*
X593306D01*
Y175199D01*
D02*
G37*
G36*
X495846D02*
Y170998D01*
X500046D01*
X499272Y172866D01*
X497714Y174425D01*
X495846Y175199D01*
D02*
G37*
G36*
X493306D02*
X491438Y174425D01*
X489879Y172866D01*
X489105Y170998D01*
X493306D01*
Y175199D01*
D02*
G37*
G36*
X395846D02*
Y170998D01*
X400046D01*
X399272Y172866D01*
X397714Y174425D01*
X395846Y175199D01*
D02*
G37*
G36*
X393306D02*
X391438Y174425D01*
X389879Y172866D01*
X389105Y170998D01*
X393306D01*
Y175199D01*
D02*
G37*
G36*
X245846D02*
Y170998D01*
X250046D01*
X249272Y172866D01*
X247714Y174425D01*
X245846Y175199D01*
D02*
G37*
G36*
X243306D02*
X241438Y174425D01*
X239879Y172866D01*
X239105Y170998D01*
X243306D01*
Y175199D01*
D02*
G37*
G36*
X195846D02*
Y170998D01*
X200046D01*
X199272Y172866D01*
X197714Y174425D01*
X195846Y175199D01*
D02*
G37*
G36*
X193306D02*
X191438Y174425D01*
X189879Y172866D01*
X189105Y170998D01*
X193306D01*
Y175199D01*
D02*
G37*
G36*
X145846D02*
Y170998D01*
X150046D01*
X149272Y172866D01*
X147714Y174425D01*
X145846Y175199D01*
D02*
G37*
G36*
X143306D02*
X141438Y174425D01*
X139879Y172866D01*
X139105Y170998D01*
X143306D01*
Y175199D01*
D02*
G37*
G36*
X95846D02*
Y170998D01*
X100046D01*
X99272Y172866D01*
X97714Y174425D01*
X95846Y175199D01*
D02*
G37*
G36*
X93306D02*
X91438Y174425D01*
X89879Y172866D01*
X89105Y170998D01*
X93306D01*
Y175199D01*
D02*
G37*
G36*
X45846D02*
Y170998D01*
X50046D01*
X49272Y172866D01*
X47714Y174425D01*
X45846Y175199D01*
D02*
G37*
G36*
X43306D02*
X41438Y174425D01*
X39879Y172866D01*
X39105Y170998D01*
X43306D01*
Y175199D01*
D02*
G37*
G36*
X1100046Y168458D02*
X1095846D01*
Y164258D01*
X1097714Y165032D01*
X1099272Y166590D01*
X1100046Y168458D01*
D02*
G37*
G36*
X1093306D02*
X1089105D01*
X1089879Y166590D01*
X1091438Y165032D01*
X1093306Y164258D01*
Y168458D01*
D02*
G37*
G36*
X1050046D02*
X1045846D01*
Y164258D01*
X1047714Y165032D01*
X1049272Y166590D01*
X1050046Y168458D01*
D02*
G37*
G36*
X1043306D02*
X1039105D01*
X1039879Y166590D01*
X1041438Y165032D01*
X1043306Y164258D01*
Y168458D01*
D02*
G37*
G36*
X1000046D02*
X995846D01*
Y164258D01*
X997714Y165032D01*
X999272Y166590D01*
X1000046Y168458D01*
D02*
G37*
G36*
X993306D02*
X989105D01*
X989879Y166590D01*
X991438Y165032D01*
X993306Y164258D01*
Y168458D01*
D02*
G37*
G36*
X950046D02*
X945846D01*
Y164258D01*
X947714Y165032D01*
X949272Y166590D01*
X950046Y168458D01*
D02*
G37*
G36*
X943306D02*
X939105D01*
X939879Y166590D01*
X941438Y165032D01*
X943306Y164258D01*
Y168458D01*
D02*
G37*
G36*
X850046D02*
X845846D01*
Y164258D01*
X847714Y165032D01*
X849272Y166590D01*
X850046Y168458D01*
D02*
G37*
G36*
X843306D02*
X839105D01*
X839879Y166590D01*
X841438Y165032D01*
X843306Y164258D01*
Y168458D01*
D02*
G37*
G36*
X800046D02*
X795846D01*
Y164258D01*
X797714Y165032D01*
X799272Y166590D01*
X800046Y168458D01*
D02*
G37*
G36*
X793306D02*
X789105D01*
X789879Y166590D01*
X791438Y165032D01*
X793306Y164258D01*
Y168458D01*
D02*
G37*
G36*
X750046D02*
X745846D01*
Y164258D01*
X747714Y165032D01*
X749272Y166590D01*
X750046Y168458D01*
D02*
G37*
G36*
X743306D02*
X739105D01*
X739879Y166590D01*
X741438Y165032D01*
X743306Y164258D01*
Y168458D01*
D02*
G37*
G36*
X700046D02*
X695846D01*
Y164258D01*
X697714Y165032D01*
X699272Y166590D01*
X700046Y168458D01*
D02*
G37*
G36*
X693306D02*
X689105D01*
X689879Y166590D01*
X691438Y165032D01*
X693306Y164258D01*
Y168458D01*
D02*
G37*
G36*
X600046D02*
X595846D01*
Y164258D01*
X597714Y165032D01*
X599272Y166590D01*
X600046Y168458D01*
D02*
G37*
G36*
X593306D02*
X589105D01*
X589879Y166590D01*
X591438Y165032D01*
X593306Y164258D01*
Y168458D01*
D02*
G37*
G36*
X500046D02*
X495846D01*
Y164258D01*
X497714Y165032D01*
X499272Y166590D01*
X500046Y168458D01*
D02*
G37*
G36*
X493306D02*
X489105D01*
X489879Y166590D01*
X491438Y165032D01*
X493306Y164258D01*
Y168458D01*
D02*
G37*
G36*
X400046D02*
X395846D01*
Y164258D01*
X397714Y165032D01*
X399272Y166590D01*
X400046Y168458D01*
D02*
G37*
G36*
X393306D02*
X389105D01*
X389879Y166590D01*
X391438Y165032D01*
X393306Y164258D01*
Y168458D01*
D02*
G37*
G36*
X250046D02*
X245846D01*
Y164258D01*
X247714Y165032D01*
X249272Y166590D01*
X250046Y168458D01*
D02*
G37*
G36*
X243306D02*
X239105D01*
X239879Y166590D01*
X241438Y165032D01*
X243306Y164258D01*
Y168458D01*
D02*
G37*
G36*
X200046D02*
X195846D01*
Y164258D01*
X197714Y165032D01*
X199272Y166590D01*
X200046Y168458D01*
D02*
G37*
G36*
X193306D02*
X189105D01*
X189879Y166590D01*
X191438Y165032D01*
X193306Y164258D01*
Y168458D01*
D02*
G37*
G36*
X150046D02*
X145846D01*
Y164258D01*
X147714Y165032D01*
X149272Y166590D01*
X150046Y168458D01*
D02*
G37*
G36*
X143306D02*
X139105D01*
X139879Y166590D01*
X141438Y165032D01*
X143306Y164258D01*
Y168458D01*
D02*
G37*
G36*
X100046D02*
X95846D01*
Y164258D01*
X97714Y165032D01*
X99272Y166590D01*
X100046Y168458D01*
D02*
G37*
G36*
X93306D02*
X89105D01*
X89879Y166590D01*
X91438Y165032D01*
X93306Y164258D01*
Y168458D01*
D02*
G37*
G36*
X50046D02*
X45846D01*
Y164258D01*
X47714Y165032D01*
X49272Y166590D01*
X50046Y168458D01*
D02*
G37*
G36*
X43306D02*
X39105D01*
X39879Y166590D01*
X41438Y165032D01*
X43306Y164258D01*
Y168458D01*
D02*
G37*
G36*
X520287Y158730D02*
Y154530D01*
X524488D01*
X523714Y156398D01*
X522155Y157957D01*
X520287Y158730D01*
D02*
G37*
G36*
X517747D02*
X515879Y157957D01*
X514321Y156398D01*
X513547Y154530D01*
X517747D01*
Y158730D01*
D02*
G37*
G36*
X656049Y158266D02*
Y154066D01*
X660249D01*
X659476Y155934D01*
X657917Y157493D01*
X656049Y158266D01*
D02*
G37*
G36*
X653509D02*
X651641Y157493D01*
X650082Y155934D01*
X649309Y154066D01*
X653509D01*
Y158266D01*
D02*
G37*
G36*
X524488Y151990D02*
X520287D01*
Y147790D01*
X522155Y148563D01*
X523714Y150122D01*
X524488Y151990D01*
D02*
G37*
G36*
X517747D02*
X513547D01*
X514321Y150122D01*
X515879Y148563D01*
X517747Y147790D01*
Y151990D01*
D02*
G37*
G36*
X660249Y151526D02*
X656049D01*
Y147325D01*
X657917Y148099D01*
X659476Y149658D01*
X660249Y151526D01*
D02*
G37*
G36*
X653509D02*
X649309D01*
X650082Y149658D01*
X651641Y148099D01*
X653509Y147325D01*
Y151526D01*
D02*
G37*
G36*
X553799Y171540D02*
X551101D01*
X548494Y170842D01*
X546156Y169492D01*
X544248Y167584D01*
X542898Y165246D01*
X542200Y162639D01*
Y159941D01*
X542898Y157334D01*
X544248Y154996D01*
X546156Y153088D01*
X548317Y151840D01*
X548494Y151054D01*
Y147395D01*
X548317Y146609D01*
X546156Y145362D01*
X544248Y143454D01*
X542898Y141116D01*
X542200Y138509D01*
Y135811D01*
X542898Y133204D01*
X544248Y130866D01*
X546156Y128958D01*
X548494Y127608D01*
X551101Y126910D01*
X553799D01*
X556406Y127608D01*
X558744Y128958D01*
X560652Y130866D01*
X562001Y133204D01*
X562700Y135811D01*
Y138509D01*
X562001Y141116D01*
X560652Y143454D01*
X558744Y145362D01*
X556583Y146609D01*
X556406Y147395D01*
Y151054D01*
X556583Y151840D01*
X558744Y153088D01*
X560652Y154996D01*
X562001Y157334D01*
X562700Y159941D01*
Y162639D01*
X562001Y165246D01*
X560652Y167584D01*
X558744Y169492D01*
X556406Y170842D01*
X553799Y171540D01*
D02*
G37*
G36*
X425856Y130959D02*
Y126758D01*
X430056D01*
X429282Y128626D01*
X427724Y130185D01*
X425856Y130959D01*
D02*
G37*
G36*
X423316D02*
X421448Y130185D01*
X419889Y128626D01*
X419115Y126758D01*
X423316D01*
Y130959D01*
D02*
G37*
G36*
X1070846Y125199D02*
Y120998D01*
X1075046D01*
X1074272Y122866D01*
X1072714Y124425D01*
X1070846Y125199D01*
D02*
G37*
G36*
X1068306D02*
X1066438Y124425D01*
X1064879Y122866D01*
X1064105Y120998D01*
X1068306D01*
Y125199D01*
D02*
G37*
G36*
X970846D02*
Y120998D01*
X975046D01*
X974272Y122866D01*
X972714Y124425D01*
X970846Y125199D01*
D02*
G37*
G36*
X968306D02*
X966438Y124425D01*
X964879Y122866D01*
X964105Y120998D01*
X968306D01*
Y125199D01*
D02*
G37*
G36*
X870846D02*
Y120998D01*
X875046D01*
X874272Y122866D01*
X872714Y124425D01*
X870846Y125199D01*
D02*
G37*
G36*
X868306D02*
X866438Y124425D01*
X864879Y122866D01*
X864105Y120998D01*
X868306D01*
Y125199D01*
D02*
G37*
G36*
X720846D02*
Y120998D01*
X725046D01*
X724272Y122866D01*
X722714Y124425D01*
X720846Y125199D01*
D02*
G37*
G36*
X718306D02*
X716438Y124425D01*
X714879Y122866D01*
X714105Y120998D01*
X718306D01*
Y125199D01*
D02*
G37*
G36*
X670846D02*
Y120998D01*
X675046D01*
X674272Y122866D01*
X672714Y124425D01*
X670846Y125199D01*
D02*
G37*
G36*
X668306D02*
X666438Y124425D01*
X664879Y122866D01*
X664105Y120998D01*
X668306D01*
Y125199D01*
D02*
G37*
G36*
X620846D02*
Y120998D01*
X625046D01*
X624272Y122866D01*
X622714Y124425D01*
X620846Y125199D01*
D02*
G37*
G36*
X618306D02*
X616438Y124425D01*
X614879Y122866D01*
X614105Y120998D01*
X618306D01*
Y125199D01*
D02*
G37*
G36*
X570846D02*
Y120998D01*
X575046D01*
X574272Y122866D01*
X572714Y124425D01*
X570846Y125199D01*
D02*
G37*
G36*
X568306D02*
X566438Y124425D01*
X564879Y122866D01*
X564105Y120998D01*
X568306D01*
Y125199D01*
D02*
G37*
G36*
X520846D02*
Y120998D01*
X525046D01*
X524272Y122866D01*
X522714Y124425D01*
X520846Y125199D01*
D02*
G37*
G36*
X518306D02*
X516438Y124425D01*
X514879Y122866D01*
X514105Y120998D01*
X518306D01*
Y125199D01*
D02*
G37*
G36*
X470846D02*
Y120998D01*
X475046D01*
X474272Y122866D01*
X472714Y124425D01*
X470846Y125199D01*
D02*
G37*
G36*
X468306D02*
X466438Y124425D01*
X464879Y122866D01*
X464105Y120998D01*
X468306D01*
Y125199D01*
D02*
G37*
G36*
X270846D02*
Y120998D01*
X275046D01*
X274272Y122866D01*
X272714Y124425D01*
X270846Y125199D01*
D02*
G37*
G36*
X268306D02*
X266438Y124425D01*
X264879Y122866D01*
X264105Y120998D01*
X268306D01*
Y125199D01*
D02*
G37*
G36*
X220846D02*
Y120998D01*
X225046D01*
X224272Y122866D01*
X222714Y124425D01*
X220846Y125199D01*
D02*
G37*
G36*
X218306D02*
X216438Y124425D01*
X214879Y122866D01*
X214105Y120998D01*
X218306D01*
Y125199D01*
D02*
G37*
G36*
X170846D02*
Y120998D01*
X175046D01*
X174272Y122866D01*
X172714Y124425D01*
X170846Y125199D01*
D02*
G37*
G36*
X168306D02*
X166438Y124425D01*
X164879Y122866D01*
X164105Y120998D01*
X168306D01*
Y125199D01*
D02*
G37*
G36*
X120846D02*
Y120998D01*
X125046D01*
X124272Y122866D01*
X122714Y124425D01*
X120846Y125199D01*
D02*
G37*
G36*
X118306D02*
X116438Y124425D01*
X114879Y122866D01*
X114105Y120998D01*
X118306D01*
Y125199D01*
D02*
G37*
G36*
X70846D02*
Y120998D01*
X75046D01*
X74272Y122866D01*
X72714Y124425D01*
X70846Y125199D01*
D02*
G37*
G36*
X68306D02*
X66438Y124425D01*
X64879Y122866D01*
X64105Y120998D01*
X68306D01*
Y125199D01*
D02*
G37*
G36*
X20846D02*
Y120998D01*
X25046D01*
X24272Y122866D01*
X22714Y124425D01*
X20846Y125199D01*
D02*
G37*
G36*
X18306D02*
X16438Y124425D01*
X14879Y122866D01*
X14105Y120998D01*
X18306D01*
Y125199D01*
D02*
G37*
G36*
X430056Y124218D02*
X425856D01*
Y120018D01*
X427724Y120792D01*
X429282Y122350D01*
X430056Y124218D01*
D02*
G37*
G36*
X423316D02*
X419115D01*
X419889Y122350D01*
X421448Y120792D01*
X423316Y120018D01*
Y124218D01*
D02*
G37*
G36*
X1075046Y118458D02*
X1070846D01*
Y114258D01*
X1072714Y115032D01*
X1074272Y116590D01*
X1075046Y118458D01*
D02*
G37*
G36*
X1068306D02*
X1064105D01*
X1064879Y116590D01*
X1066438Y115032D01*
X1068306Y114258D01*
Y118458D01*
D02*
G37*
G36*
X975046D02*
X970846D01*
Y114258D01*
X972714Y115032D01*
X974272Y116590D01*
X975046Y118458D01*
D02*
G37*
G36*
X968306D02*
X964105D01*
X964879Y116590D01*
X966438Y115032D01*
X968306Y114258D01*
Y118458D01*
D02*
G37*
G36*
X875046D02*
X870846D01*
Y114258D01*
X872714Y115032D01*
X874272Y116590D01*
X875046Y118458D01*
D02*
G37*
G36*
X868306D02*
X864105D01*
X864879Y116590D01*
X866438Y115032D01*
X868306Y114258D01*
Y118458D01*
D02*
G37*
G36*
X725046D02*
X720846D01*
Y114258D01*
X722714Y115032D01*
X724272Y116590D01*
X725046Y118458D01*
D02*
G37*
G36*
X718306D02*
X714105D01*
X714879Y116590D01*
X716438Y115032D01*
X718306Y114258D01*
Y118458D01*
D02*
G37*
G36*
X675046D02*
X670846D01*
Y114258D01*
X672714Y115032D01*
X674272Y116590D01*
X675046Y118458D01*
D02*
G37*
G36*
X668306D02*
X664105D01*
X664879Y116590D01*
X666438Y115032D01*
X668306Y114258D01*
Y118458D01*
D02*
G37*
G36*
X625046D02*
X620846D01*
Y114258D01*
X622714Y115032D01*
X624272Y116590D01*
X625046Y118458D01*
D02*
G37*
G36*
X618306D02*
X614105D01*
X614879Y116590D01*
X616438Y115032D01*
X618306Y114258D01*
Y118458D01*
D02*
G37*
G36*
X575046D02*
X570846D01*
Y114258D01*
X572714Y115032D01*
X574272Y116590D01*
X575046Y118458D01*
D02*
G37*
G36*
X568306D02*
X564105D01*
X564879Y116590D01*
X566438Y115032D01*
X568306Y114258D01*
Y118458D01*
D02*
G37*
G36*
X525046D02*
X520846D01*
Y114258D01*
X522714Y115032D01*
X524272Y116590D01*
X525046Y118458D01*
D02*
G37*
G36*
X518306D02*
X514105D01*
X514879Y116590D01*
X516438Y115032D01*
X518306Y114258D01*
Y118458D01*
D02*
G37*
G36*
X475046D02*
X470846D01*
Y114258D01*
X472714Y115032D01*
X474272Y116590D01*
X475046Y118458D01*
D02*
G37*
G36*
X468306D02*
X464105D01*
X464879Y116590D01*
X466438Y115032D01*
X468306Y114258D01*
Y118458D01*
D02*
G37*
G36*
X275046D02*
X270846D01*
Y114258D01*
X272714Y115032D01*
X274272Y116590D01*
X275046Y118458D01*
D02*
G37*
G36*
X268306D02*
X264105D01*
X264879Y116590D01*
X266438Y115032D01*
X268306Y114258D01*
Y118458D01*
D02*
G37*
G36*
X225046D02*
X220846D01*
Y114258D01*
X222714Y115032D01*
X224272Y116590D01*
X225046Y118458D01*
D02*
G37*
G36*
X218306D02*
X214105D01*
X214879Y116590D01*
X216438Y115032D01*
X218306Y114258D01*
Y118458D01*
D02*
G37*
G36*
X175046D02*
X170846D01*
Y114258D01*
X172714Y115032D01*
X174272Y116590D01*
X175046Y118458D01*
D02*
G37*
G36*
X168306D02*
X164105D01*
X164879Y116590D01*
X166438Y115032D01*
X168306Y114258D01*
Y118458D01*
D02*
G37*
G36*
X125046D02*
X120846D01*
Y114258D01*
X122714Y115032D01*
X124272Y116590D01*
X125046Y118458D01*
D02*
G37*
G36*
X118306D02*
X114105D01*
X114879Y116590D01*
X116438Y115032D01*
X118306Y114258D01*
Y118458D01*
D02*
G37*
G36*
X75046D02*
X70846D01*
Y114258D01*
X72714Y115032D01*
X74272Y116590D01*
X75046Y118458D01*
D02*
G37*
G36*
X68306D02*
X64105D01*
X64879Y116590D01*
X66438Y115032D01*
X68306Y114258D01*
Y118458D01*
D02*
G37*
G36*
X25046D02*
X20846D01*
Y114258D01*
X22714Y115032D01*
X24272Y116590D01*
X25046Y118458D01*
D02*
G37*
G36*
X18306D02*
X14105D01*
X14879Y116590D01*
X16438Y115032D01*
X18306Y114258D01*
Y118458D01*
D02*
G37*
G36*
X921231Y135310D02*
X918269D01*
X915408Y134543D01*
X912842Y133062D01*
X910748Y130968D01*
X909267Y128402D01*
X908500Y125541D01*
Y122579D01*
X909267Y119718D01*
X910748Y117152D01*
X912842Y115058D01*
X915408Y113577D01*
X918269Y112810D01*
X921231D01*
X924092Y113577D01*
X926658Y115058D01*
X928752Y117152D01*
X930233Y119718D01*
X931000Y122579D01*
Y125541D01*
X930233Y128402D01*
X928752Y130968D01*
X926658Y133062D01*
X924092Y134543D01*
X921231Y135310D01*
D02*
G37*
G36*
X806000D02*
X783500D01*
Y112810D01*
X806000D01*
Y135310D01*
D02*
G37*
G36*
X867410Y103260D02*
Y99060D01*
X871610D01*
X870837Y100928D01*
X869278Y102487D01*
X867410Y103260D01*
D02*
G37*
G36*
X864870D02*
X863002Y102487D01*
X861443Y100928D01*
X860670Y99060D01*
X864870D01*
Y103260D01*
D02*
G37*
G36*
X871610Y96520D02*
X867410D01*
Y92320D01*
X869278Y93093D01*
X870837Y94652D01*
X871610Y96520D01*
D02*
G37*
G36*
X864870D02*
X860670D01*
X861443Y94652D01*
X863002Y93093D01*
X864870Y92320D01*
Y96520D01*
D02*
G37*
G36*
X687476Y85239D02*
Y81038D01*
X691676D01*
X690902Y82907D01*
X689344Y84465D01*
X687476Y85239D01*
D02*
G37*
G36*
X684936D02*
X683068Y84465D01*
X681509Y82907D01*
X680735Y81038D01*
X684936D01*
Y85239D01*
D02*
G37*
G36*
X921302Y85850D02*
X921020D01*
Y75330D01*
X931540D01*
Y75612D01*
X930736Y78611D01*
X929184Y81299D01*
X926989Y83494D01*
X924301Y85047D01*
X921302Y85850D01*
D02*
G37*
G36*
X918480D02*
X918198D01*
X915199Y85047D01*
X912511Y83494D01*
X910316Y81299D01*
X908764Y78611D01*
X907960Y75612D01*
Y75330D01*
X918480D01*
Y85850D01*
D02*
G37*
G36*
X691676Y78498D02*
X687476D01*
Y74298D01*
X689344Y75072D01*
X690902Y76630D01*
X691676Y78498D01*
D02*
G37*
G36*
X684936D02*
X680735D01*
X681509Y76630D01*
X683068Y75072D01*
X684936Y74298D01*
Y78498D01*
D02*
G37*
G36*
X989736Y77619D02*
Y73418D01*
X993936D01*
X993162Y75286D01*
X991604Y76845D01*
X989736Y77619D01*
D02*
G37*
G36*
X987196D02*
X985328Y76845D01*
X983769Y75286D01*
X982995Y73418D01*
X987196D01*
Y77619D01*
D02*
G37*
G36*
X1095846Y75199D02*
Y70998D01*
X1100046D01*
X1099272Y72867D01*
X1097714Y74425D01*
X1095846Y75199D01*
D02*
G37*
G36*
X1093306D02*
X1091438Y74425D01*
X1089879Y72867D01*
X1089105Y70998D01*
X1093306D01*
Y75199D01*
D02*
G37*
G36*
X1045846D02*
Y70998D01*
X1050046D01*
X1049272Y72867D01*
X1047714Y74425D01*
X1045846Y75199D01*
D02*
G37*
G36*
X1043306D02*
X1041438Y74425D01*
X1039879Y72867D01*
X1039105Y70998D01*
X1043306D01*
Y75199D01*
D02*
G37*
G36*
X945846D02*
Y70998D01*
X950046D01*
X949272Y72867D01*
X947714Y74425D01*
X945846Y75199D01*
D02*
G37*
G36*
X943306D02*
X941438Y74425D01*
X939879Y72867D01*
X939105Y70998D01*
X943306D01*
Y75199D01*
D02*
G37*
G36*
X895846D02*
Y70998D01*
X900046D01*
X899272Y72867D01*
X897714Y74425D01*
X895846Y75199D01*
D02*
G37*
G36*
X893306D02*
X891438Y74425D01*
X889879Y72867D01*
X889105Y70998D01*
X893306D01*
Y75199D01*
D02*
G37*
G36*
X845846D02*
Y70998D01*
X850046D01*
X849272Y72867D01*
X847714Y74425D01*
X845846Y75199D01*
D02*
G37*
G36*
X843306D02*
X841438Y74425D01*
X839879Y72867D01*
X839105Y70998D01*
X843306D01*
Y75199D01*
D02*
G37*
G36*
X645846D02*
Y70998D01*
X650046D01*
X649272Y72867D01*
X647714Y74425D01*
X645846Y75199D01*
D02*
G37*
G36*
X643306D02*
X641438Y74425D01*
X639879Y72867D01*
X639105Y70998D01*
X643306D01*
Y75199D01*
D02*
G37*
G36*
X345846D02*
Y70998D01*
X350046D01*
X349272Y72867D01*
X347714Y74425D01*
X345846Y75199D01*
D02*
G37*
G36*
X343306D02*
X341438Y74425D01*
X339879Y72867D01*
X339105Y70998D01*
X343306D01*
Y75199D01*
D02*
G37*
G36*
X295846D02*
Y70998D01*
X300046D01*
X299272Y72867D01*
X297714Y74425D01*
X295846Y75199D01*
D02*
G37*
G36*
X293306D02*
X291438Y74425D01*
X289879Y72867D01*
X289105Y70998D01*
X293306D01*
Y75199D01*
D02*
G37*
G36*
X245846D02*
Y70998D01*
X250046D01*
X249272Y72867D01*
X247714Y74425D01*
X245846Y75199D01*
D02*
G37*
G36*
X243306D02*
X241438Y74425D01*
X239879Y72867D01*
X239105Y70998D01*
X243306D01*
Y75199D01*
D02*
G37*
G36*
X195846D02*
Y70998D01*
X200046D01*
X199272Y72867D01*
X197714Y74425D01*
X195846Y75199D01*
D02*
G37*
G36*
X193306D02*
X191438Y74425D01*
X189879Y72867D01*
X189105Y70998D01*
X193306D01*
Y75199D01*
D02*
G37*
G36*
X145846D02*
Y70998D01*
X150046D01*
X149272Y72867D01*
X147714Y74425D01*
X145846Y75199D01*
D02*
G37*
G36*
X143306D02*
X141438Y74425D01*
X139879Y72867D01*
X139105Y70998D01*
X143306D01*
Y75199D01*
D02*
G37*
G36*
X95846D02*
Y70998D01*
X100046D01*
X99272Y72867D01*
X97714Y74425D01*
X95846Y75199D01*
D02*
G37*
G36*
X93306D02*
X91438Y74425D01*
X89879Y72867D01*
X89105Y70998D01*
X93306D01*
Y75199D01*
D02*
G37*
G36*
X45846D02*
Y70998D01*
X50046D01*
X49272Y72867D01*
X47714Y74425D01*
X45846Y75199D01*
D02*
G37*
G36*
X43306D02*
X41438Y74425D01*
X39879Y72867D01*
X39105Y70998D01*
X43306D01*
Y75199D01*
D02*
G37*
G36*
X993936Y70878D02*
X989736D01*
Y66678D01*
X991604Y67452D01*
X993162Y69010D01*
X993936Y70878D01*
D02*
G37*
G36*
X987196D02*
X982995D01*
X983769Y69010D01*
X985328Y67452D01*
X987196Y66678D01*
Y70878D01*
D02*
G37*
G36*
X1100046Y68458D02*
X1095846D01*
Y64258D01*
X1097714Y65032D01*
X1099272Y66590D01*
X1100046Y68458D01*
D02*
G37*
G36*
X1093306D02*
X1089105D01*
X1089879Y66590D01*
X1091438Y65032D01*
X1093306Y64258D01*
Y68458D01*
D02*
G37*
G36*
X1050046D02*
X1045846D01*
Y64258D01*
X1047714Y65032D01*
X1049272Y66590D01*
X1050046Y68458D01*
D02*
G37*
G36*
X1043306D02*
X1039105D01*
X1039879Y66590D01*
X1041438Y65032D01*
X1043306Y64258D01*
Y68458D01*
D02*
G37*
G36*
X950046D02*
X945846D01*
Y64258D01*
X947714Y65032D01*
X949272Y66590D01*
X950046Y68458D01*
D02*
G37*
G36*
X943306D02*
X939105D01*
X939879Y66590D01*
X941438Y65032D01*
X943306Y64258D01*
Y68458D01*
D02*
G37*
G36*
X900046D02*
X895846D01*
Y64258D01*
X897714Y65032D01*
X899272Y66590D01*
X900046Y68458D01*
D02*
G37*
G36*
X893306D02*
X889105D01*
X889879Y66590D01*
X891438Y65032D01*
X893306Y64258D01*
Y68458D01*
D02*
G37*
G36*
X850046D02*
X845846D01*
Y64258D01*
X847714Y65032D01*
X849272Y66590D01*
X850046Y68458D01*
D02*
G37*
G36*
X843306D02*
X839105D01*
X839879Y66590D01*
X841438Y65032D01*
X843306Y64258D01*
Y68458D01*
D02*
G37*
G36*
X650046D02*
X645846D01*
Y64258D01*
X647714Y65032D01*
X649272Y66590D01*
X650046Y68458D01*
D02*
G37*
G36*
X643306D02*
X639105D01*
X639879Y66590D01*
X641438Y65032D01*
X643306Y64258D01*
Y68458D01*
D02*
G37*
G36*
X350046D02*
X345846D01*
Y64258D01*
X347714Y65032D01*
X349272Y66590D01*
X350046Y68458D01*
D02*
G37*
G36*
X343306D02*
X339105D01*
X339879Y66590D01*
X341438Y65032D01*
X343306Y64258D01*
Y68458D01*
D02*
G37*
G36*
X300046D02*
X295846D01*
Y64258D01*
X297714Y65032D01*
X299272Y66590D01*
X300046Y68458D01*
D02*
G37*
G36*
X293306D02*
X289105D01*
X289879Y66590D01*
X291438Y65032D01*
X293306Y64258D01*
Y68458D01*
D02*
G37*
G36*
X250046D02*
X245846D01*
Y64258D01*
X247714Y65032D01*
X249272Y66590D01*
X250046Y68458D01*
D02*
G37*
G36*
X243306D02*
X239105D01*
X239879Y66590D01*
X241438Y65032D01*
X243306Y64258D01*
Y68458D01*
D02*
G37*
G36*
X200046D02*
X195846D01*
Y64258D01*
X197714Y65032D01*
X199272Y66590D01*
X200046Y68458D01*
D02*
G37*
G36*
X193306D02*
X189105D01*
X189879Y66590D01*
X191438Y65032D01*
X193306Y64258D01*
Y68458D01*
D02*
G37*
G36*
X150046D02*
X145846D01*
Y64258D01*
X147714Y65032D01*
X149272Y66590D01*
X150046Y68458D01*
D02*
G37*
G36*
X143306D02*
X139105D01*
X139879Y66590D01*
X141438Y65032D01*
X143306Y64258D01*
Y68458D01*
D02*
G37*
G36*
X100046D02*
X95846D01*
Y64258D01*
X97714Y65032D01*
X99272Y66590D01*
X100046Y68458D01*
D02*
G37*
G36*
X93306D02*
X89105D01*
X89879Y66590D01*
X91438Y65032D01*
X93306Y64258D01*
Y68458D01*
D02*
G37*
G36*
X50046D02*
X45846D01*
Y64258D01*
X47714Y65032D01*
X49272Y66590D01*
X50046Y68458D01*
D02*
G37*
G36*
X43306D02*
X39105D01*
X39879Y66590D01*
X41438Y65032D01*
X43306Y64258D01*
Y68458D01*
D02*
G37*
G36*
X796231Y85310D02*
X793269D01*
X790408Y84543D01*
X787842Y83062D01*
X785748Y80968D01*
X784267Y78402D01*
X783500Y75541D01*
Y72579D01*
X784267Y69718D01*
X785748Y67152D01*
X787842Y65058D01*
X790408Y63577D01*
X793269Y62810D01*
X796231D01*
X799092Y63577D01*
X801658Y65058D01*
X803752Y67152D01*
X805233Y69718D01*
X806000Y72579D01*
Y75541D01*
X805233Y78402D01*
X803752Y80968D01*
X801658Y83062D01*
X799092Y84543D01*
X796231Y85310D01*
D02*
G37*
G36*
X931540Y72790D02*
X921020D01*
Y62270D01*
X921302D01*
X924301Y63074D01*
X926989Y64626D01*
X929184Y66821D01*
X930736Y69509D01*
X931540Y72508D01*
Y72790D01*
D02*
G37*
G36*
X918480D02*
X907960D01*
Y72508D01*
X908764Y69509D01*
X910316Y66821D01*
X912511Y64626D01*
X915199Y63074D01*
X918198Y62270D01*
X918480D01*
Y72790D01*
D02*
G37*
G36*
X770026Y61109D02*
Y56908D01*
X774226D01*
X773452Y58776D01*
X771894Y60335D01*
X770026Y61109D01*
D02*
G37*
G36*
X767486D02*
X765618Y60335D01*
X764059Y58776D01*
X763285Y56908D01*
X767486D01*
Y61109D01*
D02*
G37*
G36*
X774226Y54368D02*
X770026D01*
Y50168D01*
X771894Y50942D01*
X773452Y52500D01*
X774226Y54368D01*
D02*
G37*
G36*
X767486D02*
X763285D01*
X764059Y52500D01*
X765618Y50942D01*
X767486Y50168D01*
Y54368D01*
D02*
G37*
G36*
X937666Y40789D02*
Y36588D01*
X941866D01*
X941092Y38456D01*
X939534Y40015D01*
X937666Y40789D01*
D02*
G37*
G36*
X935126D02*
X933258Y40015D01*
X931699Y38456D01*
X930925Y36588D01*
X935126D01*
Y40789D01*
D02*
G37*
G36*
X852487Y37661D02*
Y33460D01*
X856688D01*
X855914Y35328D01*
X854355Y36887D01*
X852487Y37661D01*
D02*
G37*
G36*
X849947D02*
X848079Y36887D01*
X846521Y35328D01*
X845747Y33460D01*
X849947D01*
Y37661D01*
D02*
G37*
G36*
X738276Y36979D02*
Y32778D01*
X742476D01*
X741702Y34646D01*
X740144Y36205D01*
X738276Y36979D01*
D02*
G37*
G36*
X735736D02*
X733868Y36205D01*
X732309Y34646D01*
X731535Y32778D01*
X735736D01*
Y36979D01*
D02*
G37*
G36*
X32454Y50520D02*
X31750D01*
Y31750D01*
X50520D01*
Y32454D01*
X49750Y36326D01*
X48239Y39973D01*
X46046Y43255D01*
X43255Y46046D01*
X39973Y48239D01*
X36326Y49750D01*
X32454Y50520D01*
D02*
G37*
G36*
X29210D02*
X28506D01*
X24634Y49750D01*
X20988Y48239D01*
X17705Y46046D01*
X14914Y43255D01*
X12721Y39973D01*
X11210Y36326D01*
X10440Y32454D01*
Y31750D01*
X29210D01*
Y50520D01*
D02*
G37*
G36*
X1097984Y49250D02*
X1097280D01*
Y30480D01*
X1116050D01*
Y31184D01*
X1115280Y35055D01*
X1113769Y38702D01*
X1111576Y41985D01*
X1108785Y44776D01*
X1105502Y46969D01*
X1101855Y48480D01*
X1097984Y49250D01*
D02*
G37*
G36*
X1094740D02*
X1094036D01*
X1090164Y48480D01*
X1086517Y46969D01*
X1083235Y44776D01*
X1080444Y41985D01*
X1078251Y38702D01*
X1076740Y35055D01*
X1075970Y31184D01*
Y30480D01*
X1094740D01*
Y49250D01*
D02*
G37*
G36*
X941866Y34048D02*
X937666D01*
Y29848D01*
X939534Y30622D01*
X941092Y32180D01*
X941866Y34048D01*
D02*
G37*
G36*
X935126D02*
X930925D01*
X931699Y32180D01*
X933258Y30622D01*
X935126Y29848D01*
Y34048D01*
D02*
G37*
G36*
X856688Y30920D02*
X852487D01*
Y26720D01*
X854355Y27494D01*
X855914Y29052D01*
X856688Y30920D01*
D02*
G37*
G36*
X849947D02*
X845747D01*
X846521Y29052D01*
X848079Y27494D01*
X849947Y26720D01*
Y30920D01*
D02*
G37*
G36*
X742476Y30238D02*
X738276D01*
Y26038D01*
X740144Y26812D01*
X741702Y28370D01*
X742476Y30238D01*
D02*
G37*
G36*
X735736D02*
X731535D01*
X732309Y28370D01*
X733868Y26812D01*
X735736Y26038D01*
Y30238D01*
D02*
G37*
G36*
X1020846Y25199D02*
Y20998D01*
X1025046D01*
X1024272Y22866D01*
X1022714Y24425D01*
X1020846Y25199D01*
D02*
G37*
G36*
X1018306D02*
X1016438Y24425D01*
X1014879Y22866D01*
X1014105Y20998D01*
X1018306D01*
Y25199D01*
D02*
G37*
G36*
X370846D02*
Y20998D01*
X375046D01*
X374272Y22866D01*
X372714Y24425D01*
X370846Y25199D01*
D02*
G37*
G36*
X368306D02*
X366438Y24425D01*
X364879Y22866D01*
X364105Y20998D01*
X368306D01*
Y25199D01*
D02*
G37*
G36*
X320846D02*
Y20998D01*
X325046D01*
X324272Y22866D01*
X322714Y24425D01*
X320846Y25199D01*
D02*
G37*
G36*
X318306D02*
X316438Y24425D01*
X314879Y22866D01*
X314105Y20998D01*
X318306D01*
Y25199D01*
D02*
G37*
G36*
X270846D02*
Y20998D01*
X275046D01*
X274272Y22866D01*
X272714Y24425D01*
X270846Y25199D01*
D02*
G37*
G36*
X268306D02*
X266438Y24425D01*
X264879Y22866D01*
X264105Y20998D01*
X268306D01*
Y25199D01*
D02*
G37*
G36*
X220846D02*
Y20998D01*
X225046D01*
X224272Y22866D01*
X222714Y24425D01*
X220846Y25199D01*
D02*
G37*
G36*
X218306D02*
X216438Y24425D01*
X214879Y22866D01*
X214105Y20998D01*
X218306D01*
Y25199D01*
D02*
G37*
G36*
X170846D02*
Y20998D01*
X175046D01*
X174272Y22866D01*
X172714Y24425D01*
X170846Y25199D01*
D02*
G37*
G36*
X168306D02*
X166438Y24425D01*
X164879Y22866D01*
X164105Y20998D01*
X168306D01*
Y25199D01*
D02*
G37*
G36*
X120846D02*
Y20998D01*
X125046D01*
X124272Y22866D01*
X122714Y24425D01*
X120846Y25199D01*
D02*
G37*
G36*
X118306D02*
X116438Y24425D01*
X114879Y22866D01*
X114105Y20998D01*
X118306D01*
Y25199D01*
D02*
G37*
G36*
X70846D02*
Y20998D01*
X75046D01*
X74272Y22866D01*
X72714Y24425D01*
X70846Y25199D01*
D02*
G37*
G36*
X68306D02*
X66438Y24425D01*
X64879Y22866D01*
X64105Y20998D01*
X68306D01*
Y25199D01*
D02*
G37*
G36*
X1059611Y24922D02*
Y20722D01*
X1063812D01*
X1063038Y22590D01*
X1061479Y24149D01*
X1059611Y24922D01*
D02*
G37*
G36*
X1057071D02*
X1055203Y24149D01*
X1053645Y22590D01*
X1052871Y20722D01*
X1057071D01*
Y24922D01*
D02*
G37*
G36*
X1025046Y18458D02*
X1020846D01*
Y14258D01*
X1022714Y15032D01*
X1024272Y16590D01*
X1025046Y18458D01*
D02*
G37*
G36*
X1018306D02*
X1014105D01*
X1014879Y16590D01*
X1016438Y15032D01*
X1018306Y14258D01*
Y18458D01*
D02*
G37*
G36*
X375046D02*
X370846D01*
Y14258D01*
X372714Y15032D01*
X374272Y16590D01*
X375046Y18458D01*
D02*
G37*
G36*
X368306D02*
X364105D01*
X364879Y16590D01*
X366438Y15032D01*
X368306Y14258D01*
Y18458D01*
D02*
G37*
G36*
X325046D02*
X320846D01*
Y14258D01*
X322714Y15032D01*
X324272Y16590D01*
X325046Y18458D01*
D02*
G37*
G36*
X318306D02*
X314105D01*
X314879Y16590D01*
X316438Y15032D01*
X318306Y14258D01*
Y18458D01*
D02*
G37*
G36*
X275046D02*
X270846D01*
Y14258D01*
X272714Y15032D01*
X274272Y16590D01*
X275046Y18458D01*
D02*
G37*
G36*
X268306D02*
X264105D01*
X264879Y16590D01*
X266438Y15032D01*
X268306Y14258D01*
Y18458D01*
D02*
G37*
G36*
X225046D02*
X220846D01*
Y14258D01*
X222714Y15032D01*
X224272Y16590D01*
X225046Y18458D01*
D02*
G37*
G36*
X218306D02*
X214105D01*
X214879Y16590D01*
X216438Y15032D01*
X218306Y14258D01*
Y18458D01*
D02*
G37*
G36*
X175046D02*
X170846D01*
Y14258D01*
X172714Y15032D01*
X174272Y16590D01*
X175046Y18458D01*
D02*
G37*
G36*
X168306D02*
X164105D01*
X164879Y16590D01*
X166438Y15032D01*
X168306Y14258D01*
Y18458D01*
D02*
G37*
G36*
X125046D02*
X120846D01*
Y14258D01*
X122714Y15032D01*
X124272Y16590D01*
X125046Y18458D01*
D02*
G37*
G36*
X118306D02*
X114105D01*
X114879Y16590D01*
X116438Y15032D01*
X118306Y14258D01*
Y18458D01*
D02*
G37*
G36*
X75046D02*
X70846D01*
Y14258D01*
X72714Y15032D01*
X74272Y16590D01*
X75046Y18458D01*
D02*
G37*
G36*
X68306D02*
X64105D01*
X64879Y16590D01*
X66438Y15032D01*
X68306Y14258D01*
Y18458D01*
D02*
G37*
G36*
X1063812Y18182D02*
X1059611D01*
Y13982D01*
X1061479Y14755D01*
X1063038Y16314D01*
X1063812Y18182D01*
D02*
G37*
G36*
X1057071D02*
X1052871D01*
X1053645Y16314D01*
X1055203Y14755D01*
X1057071Y13982D01*
Y18182D01*
D02*
G37*
G36*
X50520Y29210D02*
X31750D01*
Y10440D01*
X32454D01*
X36326Y11210D01*
X39973Y12721D01*
X43255Y14914D01*
X46046Y17705D01*
X48239Y20988D01*
X49750Y24634D01*
X50520Y28506D01*
Y29210D01*
D02*
G37*
G36*
X29210D02*
X10440D01*
Y28506D01*
X11210Y24634D01*
X12721Y20988D01*
X14914Y17705D01*
X17705Y14914D01*
X20988Y12721D01*
X24634Y11210D01*
X28506Y10440D01*
X29210D01*
Y29210D01*
D02*
G37*
G36*
X1116050Y27940D02*
X1097280D01*
Y9170D01*
X1097984D01*
X1101855Y9940D01*
X1105502Y11451D01*
X1108785Y13644D01*
X1111576Y16435D01*
X1113769Y19718D01*
X1115280Y23365D01*
X1116050Y27236D01*
Y27940D01*
D02*
G37*
G36*
X1094740D02*
X1075970D01*
Y27236D01*
X1076740Y23365D01*
X1078251Y19718D01*
X1080444Y16435D01*
X1083235Y13644D01*
X1086517Y11451D01*
X1090164Y9940D01*
X1094036Y9170D01*
X1094740D01*
Y27940D01*
D02*
G37*
G36*
X1115710Y544140D02*
X1107440D01*
Y538120D01*
X1115710D01*
Y544140D01*
D02*
G37*
G36*
X1067450D02*
X1059180D01*
Y538120D01*
X1067450D01*
Y544140D01*
D02*
G37*
G36*
X1056640D02*
X1048370D01*
Y538120D01*
X1056640D01*
Y544140D01*
D02*
G37*
G36*
X1104900D02*
X1096630D01*
Y538120D01*
X1104900D01*
Y544140D01*
D02*
G37*
G36*
X1115710Y535580D02*
X1107440D01*
Y529560D01*
X1115710D01*
Y535580D01*
D02*
G37*
G36*
X1104900D02*
X1096630D01*
Y529560D01*
X1104900D01*
Y535580D01*
D02*
G37*
G36*
X1067450D02*
X1059180D01*
Y529560D01*
X1067450D01*
Y535580D01*
D02*
G37*
G36*
X1056640D02*
X1048370D01*
Y529560D01*
X1056640D01*
Y535580D01*
D02*
G37*
G36*
X1107440Y513641D02*
Y506410D01*
X1114671D01*
X1114128Y508436D01*
X1113004Y510384D01*
X1111414Y511974D01*
X1109466Y513098D01*
X1107440Y513641D01*
D02*
G37*
G36*
X1104900D02*
X1102874Y513098D01*
X1100926Y511974D01*
X1099336Y510384D01*
X1098212Y508436D01*
X1097669Y506410D01*
X1104900D01*
Y513641D01*
D02*
G37*
G36*
X1114671Y503870D02*
X1107440D01*
Y496639D01*
X1109466Y497182D01*
X1111414Y498306D01*
X1113004Y499896D01*
X1114128Y501844D01*
X1114671Y503870D01*
D02*
G37*
G36*
X1104900D02*
X1097669D01*
X1098212Y501844D01*
X1099336Y499896D01*
X1100926Y498306D01*
X1102874Y497182D01*
X1104900Y496639D01*
Y503870D01*
D02*
G37*
%LPD*%
D20*
X1057910Y555350D02*
D03*
X1106170D02*
D03*
X1057910Y536850D02*
D03*
X1106170D02*
D03*
D40*
X1096280Y224970D02*
D03*
X918480D02*
D03*
X919750Y74060D02*
D03*
X918480Y376320D02*
D03*
X736870Y224970D02*
D03*
X794750Y74060D02*
D03*
X919750Y124060D02*
D03*
X793480Y376320D02*
D03*
X918480Y426320D02*
D03*
X971280Y224970D02*
D03*
X1096280Y274970D02*
D03*
X793480Y224970D02*
D03*
X918480Y274970D02*
D03*
X611870Y224970D02*
D03*
X736870Y274970D02*
D03*
D44*
X956330Y721840D02*
D03*
X869930D02*
D03*
X956330Y759840D02*
D03*
X869930D02*
D03*
D45*
X794750Y124060D02*
D03*
X793480Y426320D02*
D03*
X971280Y274970D02*
D03*
X793480D02*
D03*
X611870D02*
D03*
D53*
X687070Y763270D02*
D03*
X647070D02*
D03*
X667070D02*
D03*
D54*
X708570D02*
D03*
X625570D02*
D03*
D55*
X1106170Y485140D02*
D03*
D56*
X128060Y716280D02*
D03*
Y462280D02*
D03*
X153460Y716280D02*
D03*
X229660D02*
D03*
X204260D02*
D03*
X255060D02*
D03*
X153460Y462280D02*
D03*
X178860D02*
D03*
X204260D02*
D03*
X229660D02*
D03*
X255060D02*
D03*
X280460D02*
D03*
X305860D02*
D03*
X331260D02*
D03*
X356660D02*
D03*
X382060D02*
D03*
X407460D02*
D03*
X432860D02*
D03*
X458260D02*
D03*
X102660Y716280D02*
D03*
X178860D02*
D03*
X280460D02*
D03*
X305860D02*
D03*
X331260D02*
D03*
X356660D02*
D03*
X382060D02*
D03*
X407460D02*
D03*
X432860D02*
D03*
X458260D02*
D03*
D57*
X552450Y314960D02*
D03*
Y289560D02*
D03*
Y264160D02*
D03*
Y238760D02*
D03*
Y213360D02*
D03*
Y187960D02*
D03*
Y161290D02*
D03*
Y137160D02*
D03*
D58*
X1106170Y505140D02*
D03*
D59*
X102660Y462280D02*
D03*
D60*
X492560Y466480D02*
D03*
Y711580D02*
D03*
X23060D02*
D03*
Y466480D02*
D03*
D61*
X934720Y759460D02*
D03*
X892810Y760730D02*
D03*
X914400Y773430D02*
D03*
X892810Y444500D02*
D03*
X880877Y469971D02*
D03*
X1057610Y579203D02*
D03*
X1105964Y577469D02*
D03*
X494959Y343223D02*
D03*
X462280Y353060D02*
D03*
X938530Y577850D02*
D03*
X795020Y728980D02*
D03*
X812800Y772160D02*
D03*
X669290Y601980D02*
D03*
X619760Y656590D02*
D03*
X831850Y504190D02*
D03*
X796290Y534670D02*
D03*
X772160Y502920D02*
D03*
X816610Y445770D02*
D03*
X709930Y359410D02*
D03*
X644533Y397468D02*
D03*
X463550Y383540D02*
D03*
X394970Y398780D02*
D03*
X265430Y419100D02*
D03*
X257810Y440690D02*
D03*
X519017Y153260D02*
D03*
X1043589Y739372D02*
D03*
X819556Y696234D02*
D03*
X874740Y508002D02*
D03*
X706696Y216043D02*
D03*
X654779Y152796D02*
D03*
X1058341Y19452D02*
D03*
X868680Y363220D02*
D03*
X855980Y447040D02*
D03*
X819150Y355600D02*
D03*
X668020Y292100D02*
D03*
X1032510Y208280D02*
D03*
X866140Y97790D02*
D03*
X586740Y245110D02*
D03*
X590550Y201930D02*
D03*
X584200Y274320D02*
D03*
X906780Y320040D02*
D03*
X876300D02*
D03*
X845820D02*
D03*
X937260Y313690D02*
D03*
X969010D02*
D03*
X513080Y425450D02*
D03*
X527050Y516890D02*
D03*
Y621030D02*
D03*
X819150Y637540D02*
D03*
X820420Y669290D02*
D03*
X793750Y638810D02*
D03*
X920750D02*
D03*
X830986Y591578D02*
D03*
X619576Y119728D02*
D03*
X869576Y219728D02*
D03*
X1019576Y319728D02*
D03*
X194576Y69728D02*
D03*
X322986Y223278D02*
D03*
X269576Y319728D02*
D03*
X219576Y519728D02*
D03*
X225196Y326148D02*
D03*
X344576Y769728D02*
D03*
X944576Y169728D02*
D03*
X1069576Y319728D02*
D03*
X844576Y469728D02*
D03*
X969576Y419728D02*
D03*
X769576D02*
D03*
X894576Y269728D02*
D03*
X94576D02*
D03*
X369576Y419728D02*
D03*
X719576D02*
D03*
X944576Y69728D02*
D03*
X569576Y619728D02*
D03*
X794576Y469728D02*
D03*
X694576Y169728D02*
D03*
X294576Y269728D02*
D03*
X969576Y119728D02*
D03*
X1044576Y769728D02*
D03*
X293776Y435368D02*
D03*
X594576Y769728D02*
D03*
X330606Y411238D02*
D03*
X1044576Y169728D02*
D03*
X219576Y119728D02*
D03*
X795426Y601738D02*
D03*
X44576Y169728D02*
D03*
X1111656Y418858D02*
D03*
X144576Y269728D02*
D03*
X869576Y119728D02*
D03*
X994576Y269728D02*
D03*
X19576Y319728D02*
D03*
X944576Y369728D02*
D03*
X768756Y55638D02*
D03*
X794576Y169728D02*
D03*
X269576Y19728D02*
D03*
X119576Y119728D02*
D03*
X94576Y169728D02*
D03*
X494576Y769728D02*
D03*
Y169728D02*
D03*
X169576Y519728D02*
D03*
X719576Y119728D02*
D03*
X519576Y719728D02*
D03*
Y119728D02*
D03*
X19576D02*
D03*
X169576Y19728D02*
D03*
X744576Y469728D02*
D03*
X169576Y119728D02*
D03*
X294576Y569728D02*
D03*
X819576Y719728D02*
D03*
X715416Y732548D02*
D03*
X144576Y69728D02*
D03*
X244576Y569728D02*
D03*
X69576Y319728D02*
D03*
X419576Y419728D02*
D03*
X69576Y19728D02*
D03*
X744576Y169728D02*
D03*
X1094576D02*
D03*
X194576D02*
D03*
X753516Y694448D02*
D03*
X419576Y619728D02*
D03*
X619576D02*
D03*
X669576Y319728D02*
D03*
X719576D02*
D03*
X394576Y769728D02*
D03*
X44576Y369728D02*
D03*
X394576Y169728D02*
D03*
X594576D02*
D03*
X419576Y319728D02*
D03*
Y519728D02*
D03*
X894576Y369728D02*
D03*
X1090066Y467118D02*
D03*
X69576Y119728D02*
D03*
X244576Y69728D02*
D03*
X669576Y419728D02*
D03*
X1019576D02*
D03*
X988466Y72148D02*
D03*
X869576Y419728D02*
D03*
X594576Y569728D02*
D03*
X1044576Y69728D02*
D03*
X144576Y169728D02*
D03*
X469576Y419728D02*
D03*
X544576Y469728D02*
D03*
X1094576Y69728D02*
D03*
X844576Y169728D02*
D03*
X477310Y245081D02*
D03*
X94576Y69728D02*
D03*
X737006Y31508D02*
D03*
X394576Y569728D02*
D03*
X19576Y619728D02*
D03*
X619576Y519728D02*
D03*
X219576Y619728D02*
D03*
X119576Y219728D02*
D03*
X619576Y319728D02*
D03*
X219576Y19728D02*
D03*
X594576Y369728D02*
D03*
X644576Y569728D02*
D03*
X369576Y619728D02*
D03*
X694576Y269728D02*
D03*
X269576Y119728D02*
D03*
X294576Y69728D02*
D03*
X94576Y569728D02*
D03*
X1069576Y119728D02*
D03*
X19576Y419728D02*
D03*
Y219728D02*
D03*
X44576Y69728D02*
D03*
X1044576Y269728D02*
D03*
X520728Y245081D02*
D03*
X669576Y119728D02*
D03*
X344576Y569728D02*
D03*
X844576Y269728D02*
D03*
X1019576Y19728D02*
D03*
X994576Y169728D02*
D03*
X851217Y32190D02*
D03*
X194576Y369728D02*
D03*
X1044576Y469728D02*
D03*
X769576Y319728D02*
D03*
X319576Y19728D02*
D03*
X753516Y599198D02*
D03*
X619576Y419728D02*
D03*
X319576Y619728D02*
D03*
X753386Y661611D02*
D03*
X44576Y269728D02*
D03*
X269576Y619728D02*
D03*
X369576Y519728D02*
D03*
X744576Y369728D02*
D03*
X794576Y669728D02*
D03*
X894576Y69728D02*
D03*
X119576Y619728D02*
D03*
X469576Y119728D02*
D03*
X69576Y219728D02*
D03*
X1094576Y369728D02*
D03*
X119576Y19728D02*
D03*
X394576Y369728D02*
D03*
X619576Y719728D02*
D03*
X769576Y219728D02*
D03*
X569576Y719728D02*
D03*
X169576Y219728D02*
D03*
X1069576Y419728D02*
D03*
X127406Y426478D02*
D03*
X753516Y572528D02*
D03*
X344576Y69728D02*
D03*
X444576Y769728D02*
D03*
X194576Y569728D02*
D03*
X544576D02*
D03*
X144576D02*
D03*
X794576D02*
D03*
X544576Y769728D02*
D03*
X1019576Y719728D02*
D03*
X753516Y628408D02*
D03*
X269576Y519728D02*
D03*
X169576Y619728D02*
D03*
X644576Y269728D02*
D03*
X369576Y219728D02*
D03*
X1069576D02*
D03*
X644576Y69728D02*
D03*
X669576Y219728D02*
D03*
X1069576Y719728D02*
D03*
X294576Y769728D02*
D03*
X244576Y169728D02*
D03*
X169576Y419728D02*
D03*
X19576Y519728D02*
D03*
X119576D02*
D03*
X569576Y119728D02*
D03*
X795426Y708418D02*
D03*
X1044576Y369728D02*
D03*
X844576Y69728D02*
D03*
X569576Y519728D02*
D03*
X936396Y35318D02*
D03*
X494576Y369728D02*
D03*
X319576Y519728D02*
D03*
X994576Y369728D02*
D03*
X686206Y79768D02*
D03*
X819576Y319728D02*
D03*
X369576Y19728D02*
D03*
X424586Y125488D02*
D03*
D62*
X920750Y577850D02*
D03*
X972820Y590550D02*
D03*
X877952Y578041D02*
D03*
X890270Y638810D02*
D03*
D63*
X1096010Y756920D02*
D03*
Y29210D02*
D03*
X29906Y757459D02*
D03*
X30480Y30480D02*
D03*
M02*
