G04*
G04 #@! TF.GenerationSoftware,Altium Limited,Altium Designer,25.8.1 (18)*
G04*
G04 Layer_Color=128*
%FSLAX44Y44*%
%MOMM*%
G71*
G04*
G04 #@! TF.SameCoordinates,B962B673-1AC8-49EC-9CCC-188C0FAC6781*
G04*
G04*
G04 #@! TF.FilePolarity,Positive*
G04*
G01*
G75*
%ADD13C,0.1270*%
D13*
X683070Y763270D02*
X691070D01*
X687070Y759270D02*
Y767270D01*
X643070Y763270D02*
X651070D01*
X647070Y759270D02*
Y767270D01*
X663070Y763270D02*
X671070D01*
X667070Y759270D02*
Y767270D01*
X701570Y763270D02*
X715570D01*
X708570Y756270D02*
Y770270D01*
X618570Y763270D02*
X632570D01*
X625570Y756270D02*
Y770270D01*
X1102670Y485140D02*
X1109670D01*
X1106170Y481640D02*
Y488640D01*
X1090280Y224970D02*
X1102280D01*
X1096280Y218970D02*
Y230970D01*
X912480Y224970D02*
X924480D01*
X918480Y218970D02*
Y230970D01*
X913750Y74060D02*
X925750D01*
X919750Y68060D02*
Y80060D01*
X912480Y376320D02*
X924480D01*
X918480Y370320D02*
Y382320D01*
X122960Y716280D02*
X133160D01*
X128060Y711180D02*
Y721380D01*
X730870Y224970D02*
X742870D01*
X736870Y218970D02*
Y230970D01*
X122960Y462280D02*
X133160D01*
X128060Y457180D02*
Y467380D01*
X546950Y314960D02*
X557950D01*
X552450Y309460D02*
Y320460D01*
X1102670Y505140D02*
X1109670D01*
X1106170Y501640D02*
Y508640D01*
X950330Y721840D02*
X962330D01*
X956330Y715840D02*
Y727840D01*
X863930Y721840D02*
X875930D01*
X869930Y715840D02*
Y727840D01*
X950330Y759840D02*
X962330D01*
X956330Y753840D02*
Y765840D01*
X863930Y759840D02*
X875930D01*
X869930Y753840D02*
Y765840D01*
X788750Y74060D02*
X800750D01*
X794750Y68060D02*
Y80060D01*
X913750Y124060D02*
X925750D01*
X919750Y118060D02*
Y130060D01*
X788750Y124060D02*
X800750D01*
X794750Y118060D02*
Y130060D01*
X787480Y376320D02*
X799480D01*
X793480Y370320D02*
Y382320D01*
X912480Y426320D02*
X924480D01*
X918480Y420320D02*
Y432320D01*
X787480Y426320D02*
X799480D01*
X793480Y420320D02*
Y432320D01*
X965280Y224970D02*
X977280D01*
X971280Y218970D02*
Y230970D01*
X1090280Y274970D02*
X1102280D01*
X1096280Y268970D02*
Y280970D01*
X965280Y274970D02*
X977280D01*
X971280Y268970D02*
Y280970D01*
X787480Y224970D02*
X799480D01*
X793480Y218970D02*
Y230970D01*
X912480Y274970D02*
X924480D01*
X918480Y268970D02*
Y280970D01*
X787480Y274970D02*
X799480D01*
X793480Y268970D02*
Y280970D01*
X605870Y224970D02*
X617870D01*
X611870Y218970D02*
Y230970D01*
X730870Y274970D02*
X742870D01*
X736870Y268970D02*
Y280970D01*
X605870Y274970D02*
X617870D01*
X611870Y268970D02*
Y280970D01*
X546950Y289560D02*
X557950D01*
X552450Y284060D02*
Y295060D01*
X546950Y264160D02*
X557950D01*
X552450Y258660D02*
Y269660D01*
X546950Y238760D02*
X557950D01*
X552450Y233260D02*
Y244260D01*
X546950Y213360D02*
X557950D01*
X552450Y207860D02*
Y218860D01*
X546950Y187960D02*
X557950D01*
X552450Y182460D02*
Y193460D01*
X546950Y161290D02*
X557950D01*
X552450Y155790D02*
Y166790D01*
X546950Y137160D02*
X557950D01*
X552450Y131660D02*
Y142660D01*
X148360Y716280D02*
X158560D01*
X153460Y711180D02*
Y721380D01*
X224560Y716280D02*
X234760D01*
X229660Y711180D02*
Y721380D01*
X199160Y716280D02*
X209360D01*
X204260Y711180D02*
Y721380D01*
X249960Y716280D02*
X260160D01*
X255060Y711180D02*
Y721380D01*
X97560Y462280D02*
X107760D01*
X102660Y457180D02*
Y467380D01*
X148360Y462280D02*
X158560D01*
X153460Y457180D02*
Y467380D01*
X173760Y462280D02*
X183960D01*
X178860Y457180D02*
Y467380D01*
X199160Y462280D02*
X209360D01*
X204260Y457180D02*
Y467380D01*
X224560Y462280D02*
X234760D01*
X229660Y457180D02*
Y467380D01*
X249960Y462280D02*
X260160D01*
X255060Y457180D02*
Y467380D01*
X275360Y462280D02*
X285560D01*
X280460Y457180D02*
Y467380D01*
X300760Y462280D02*
X310960D01*
X305860Y457180D02*
Y467380D01*
X326160Y462280D02*
X336360D01*
X331260Y457180D02*
Y467380D01*
X351560Y462280D02*
X361760D01*
X356660Y457180D02*
Y467380D01*
X376960Y462280D02*
X387160D01*
X382060Y457180D02*
Y467380D01*
X402360Y462280D02*
X412560D01*
X407460Y457180D02*
Y467380D01*
X427760Y462280D02*
X437960D01*
X432860Y457180D02*
Y467380D01*
X453160Y462280D02*
X463360D01*
X458260Y457180D02*
Y467380D01*
X97560Y716280D02*
X107760D01*
X102660Y711180D02*
Y721380D01*
X173760Y716280D02*
X183960D01*
X178860Y711180D02*
Y721380D01*
X275360Y716280D02*
X285560D01*
X280460Y711180D02*
Y721380D01*
X300760Y716280D02*
X310960D01*
X305860Y711180D02*
Y721380D01*
X326160Y716280D02*
X336360D01*
X331260Y711180D02*
Y721380D01*
X351560Y716280D02*
X361760D01*
X356660Y711180D02*
Y721380D01*
X376960Y716280D02*
X387160D01*
X382060Y711180D02*
Y721380D01*
X402360Y716280D02*
X412560D01*
X407460Y711180D02*
Y721380D01*
X427760Y716280D02*
X437960D01*
X432860Y711180D02*
Y721380D01*
X453160Y716280D02*
X463360D01*
X458260Y711180D02*
Y721380D01*
X477560Y466480D02*
X507560D01*
X492560Y451480D02*
Y481480D01*
X477560Y711580D02*
X507560D01*
X492560Y696580D02*
Y726580D01*
X8060Y711580D02*
X38060D01*
X23060Y696580D02*
Y726580D01*
X8060Y466480D02*
X38060D01*
X23060Y451480D02*
Y481480D01*
X932970Y759460D02*
X936470D01*
X934720Y757710D02*
Y761210D01*
X891060Y760730D02*
X894560D01*
X892810Y758980D02*
Y762480D01*
X912650Y773430D02*
X916150D01*
X914400Y771680D02*
Y775180D01*
X891060Y444500D02*
X894560D01*
X892810Y442750D02*
Y446250D01*
X879127Y469971D02*
X882627D01*
X880877Y468221D02*
Y471721D01*
X1055860Y579203D02*
X1059360D01*
X1057610Y577453D02*
Y580953D01*
X1104214Y577469D02*
X1107714D01*
X1105964Y575719D02*
Y579219D01*
X493209Y343223D02*
X496709D01*
X494959Y341473D02*
Y344972D01*
X460530Y353060D02*
X464030D01*
X462280Y351310D02*
Y354810D01*
X936780Y577850D02*
X940280D01*
X938530Y576100D02*
Y579600D01*
X793270Y728980D02*
X796770D01*
X795020Y727230D02*
Y730730D01*
X811050Y772160D02*
X814550D01*
X812800Y770410D02*
Y773910D01*
X667540Y601980D02*
X671040D01*
X669290Y600230D02*
Y603730D01*
X618010Y656590D02*
X621510D01*
X619760Y654840D02*
Y658340D01*
X830100Y504190D02*
X833600D01*
X831850Y502440D02*
Y505940D01*
X794540Y534670D02*
X798040D01*
X796290Y532920D02*
Y536420D01*
X770410Y502920D02*
X773910D01*
X772160Y501170D02*
Y504670D01*
X814860Y445770D02*
X818360D01*
X816610Y444020D02*
Y447520D01*
X708180Y359410D02*
X711680D01*
X709930Y357660D02*
Y361160D01*
X642783Y397468D02*
X646283D01*
X644533Y395718D02*
Y399218D01*
X461800Y383540D02*
X465300D01*
X463550Y381790D02*
Y385290D01*
X393220Y398780D02*
X396720D01*
X394970Y397030D02*
Y400530D01*
X263680Y419100D02*
X267180D01*
X265430Y417350D02*
Y420850D01*
X256060Y440690D02*
X259560D01*
X257810Y438940D02*
Y442440D01*
X517267Y153260D02*
X520767D01*
X519017Y151510D02*
Y155010D01*
X1041839Y739372D02*
X1045339D01*
X1043589Y737622D02*
Y741122D01*
X817805Y696234D02*
X821305D01*
X819556Y694484D02*
Y697984D01*
X872990Y508002D02*
X876490D01*
X874740Y506252D02*
Y509752D01*
X704946Y216043D02*
X708446D01*
X706696Y214293D02*
Y217793D01*
X653029Y152796D02*
X656529D01*
X654779Y151046D02*
Y154546D01*
X1056591Y19452D02*
X1060091D01*
X1058341Y17702D02*
Y21202D01*
X866930Y363220D02*
X870430D01*
X868680Y361470D02*
Y364970D01*
X854230Y447040D02*
X857730D01*
X855980Y445290D02*
Y448790D01*
X817400Y355600D02*
X820900D01*
X819150Y353850D02*
Y357350D01*
X666270Y292100D02*
X669770D01*
X668020Y290350D02*
Y293850D01*
X1030760Y208280D02*
X1034260D01*
X1032510Y206530D02*
Y210030D01*
X864390Y97790D02*
X867890D01*
X866140Y96040D02*
Y99540D01*
X584990Y245110D02*
X588490D01*
X586740Y243360D02*
Y246860D01*
X588800Y201930D02*
X592300D01*
X590550Y200180D02*
Y203680D01*
X582450Y274320D02*
X585950D01*
X584200Y272570D02*
Y276070D01*
X905030Y320040D02*
X908530D01*
X906780Y318290D02*
Y321790D01*
X874550Y320040D02*
X878050D01*
X876300Y318290D02*
Y321790D01*
X844070Y320040D02*
X847570D01*
X845820Y318290D02*
Y321790D01*
X935510Y313690D02*
X939010D01*
X937260Y311940D02*
Y315440D01*
X967260Y313690D02*
X970760D01*
X969010Y311940D02*
Y315440D01*
X511330Y425450D02*
X514830D01*
X513080Y423700D02*
Y427200D01*
X525300Y516890D02*
X528800D01*
X527050Y515140D02*
Y518640D01*
X525300Y621030D02*
X528800D01*
X527050Y619280D02*
Y622780D01*
X817400Y637540D02*
X820900D01*
X819150Y635790D02*
Y639290D01*
X818670Y669290D02*
X822170D01*
X820420Y667540D02*
Y671040D01*
X792000Y638810D02*
X795500D01*
X793750Y637060D02*
Y640560D01*
X919000Y638810D02*
X922500D01*
X920750Y637060D02*
Y640560D01*
X829236Y591578D02*
X832736D01*
X830986Y589828D02*
Y593328D01*
X617826Y119728D02*
X621326D01*
X619576Y117978D02*
Y121478D01*
X867826Y219728D02*
X871326D01*
X869576Y217978D02*
Y221478D01*
X1017826Y319728D02*
X1021326D01*
X1019576Y317978D02*
Y321478D01*
X192826Y69728D02*
X196326D01*
X194576Y67978D02*
Y71478D01*
X321236Y223278D02*
X324736D01*
X322986Y221528D02*
Y225028D01*
X267826Y319728D02*
X271326D01*
X269576Y317978D02*
Y321478D01*
X217826Y519728D02*
X221326D01*
X219576Y517978D02*
Y521478D01*
X223446Y326148D02*
X226946D01*
X225196Y324398D02*
Y327898D01*
X342826Y769728D02*
X346326D01*
X344576Y767978D02*
Y771478D01*
X942826Y169728D02*
X946326D01*
X944576Y167978D02*
Y171478D01*
X1067826Y319728D02*
X1071326D01*
X1069576Y317978D02*
Y321478D01*
X842826Y469728D02*
X846326D01*
X844576Y467978D02*
Y471478D01*
X967826Y419728D02*
X971326D01*
X969576Y417978D02*
Y421478D01*
X767826Y419728D02*
X771326D01*
X769576Y417978D02*
Y421478D01*
X892826Y269728D02*
X896326D01*
X894576Y267978D02*
Y271478D01*
X92826Y269728D02*
X96326D01*
X94576Y267978D02*
Y271478D01*
X367826Y419728D02*
X371326D01*
X369576Y417978D02*
Y421478D01*
X717826Y419728D02*
X721326D01*
X719576Y417978D02*
Y421478D01*
X942826Y69728D02*
X946326D01*
X944576Y67978D02*
Y71478D01*
X567826Y619728D02*
X571326D01*
X569576Y617978D02*
Y621478D01*
X792826Y469728D02*
X796326D01*
X794576Y467978D02*
Y471478D01*
X692826Y169728D02*
X696326D01*
X694576Y167978D02*
Y171478D01*
X292826Y269728D02*
X296326D01*
X294576Y267978D02*
Y271478D01*
X967826Y119728D02*
X971326D01*
X969576Y117978D02*
Y121478D01*
X1042826Y769728D02*
X1046326D01*
X1044576Y767978D02*
Y771478D01*
X292026Y435368D02*
X295526D01*
X293776Y433618D02*
Y437118D01*
X592826Y769728D02*
X596326D01*
X594576Y767978D02*
Y771478D01*
X328856Y411238D02*
X332356D01*
X330606Y409488D02*
Y412988D01*
X1042826Y169728D02*
X1046326D01*
X1044576Y167978D02*
Y171478D01*
X217826Y119728D02*
X221326D01*
X219576Y117978D02*
Y121478D01*
X793676Y601738D02*
X797176D01*
X795426Y599988D02*
Y603488D01*
X42826Y169728D02*
X46326D01*
X44576Y167978D02*
Y171478D01*
X1109906Y418858D02*
X1113406D01*
X1111656Y417108D02*
Y420608D01*
X142826Y269728D02*
X146326D01*
X144576Y267978D02*
Y271478D01*
X867826Y119728D02*
X871326D01*
X869576Y117978D02*
Y121478D01*
X992826Y269728D02*
X996326D01*
X994576Y267978D02*
Y271478D01*
X17826Y319728D02*
X21326D01*
X19576Y317978D02*
Y321478D01*
X942826Y369728D02*
X946326D01*
X944576Y367978D02*
Y371478D01*
X767006Y55638D02*
X770506D01*
X768756Y53888D02*
Y57388D01*
X792826Y169728D02*
X796326D01*
X794576Y167978D02*
Y171478D01*
X267826Y19728D02*
X271326D01*
X269576Y17978D02*
Y21478D01*
X117826Y119728D02*
X121326D01*
X119576Y117978D02*
Y121478D01*
X92826Y169728D02*
X96326D01*
X94576Y167978D02*
Y171478D01*
X492826Y769728D02*
X496326D01*
X494576Y767978D02*
Y771478D01*
X492826Y169728D02*
X496326D01*
X494576Y167978D02*
Y171478D01*
X167826Y519728D02*
X171326D01*
X169576Y517978D02*
Y521478D01*
X717826Y119728D02*
X721326D01*
X719576Y117978D02*
Y121478D01*
X517826Y719728D02*
X521326D01*
X519576Y717978D02*
Y721478D01*
X517826Y119728D02*
X521326D01*
X519576Y117978D02*
Y121478D01*
X17826Y119728D02*
X21326D01*
X19576Y117978D02*
Y121478D01*
X167826Y19728D02*
X171326D01*
X169576Y17978D02*
Y21478D01*
X742826Y469728D02*
X746326D01*
X744576Y467978D02*
Y471478D01*
X167826Y119728D02*
X171326D01*
X169576Y117978D02*
Y121478D01*
X292826Y569728D02*
X296326D01*
X294576Y567978D02*
Y571478D01*
X817826Y719728D02*
X821326D01*
X819576Y717978D02*
Y721478D01*
X713666Y732548D02*
X717166D01*
X715416Y730798D02*
Y734298D01*
X142826Y69728D02*
X146326D01*
X144576Y67978D02*
Y71478D01*
X242826Y569728D02*
X246326D01*
X244576Y567978D02*
Y571478D01*
X67826Y319728D02*
X71326D01*
X69576Y317978D02*
Y321478D01*
X417826Y419728D02*
X421326D01*
X419576Y417978D02*
Y421478D01*
X67826Y19728D02*
X71326D01*
X69576Y17978D02*
Y21478D01*
X742826Y169728D02*
X746326D01*
X744576Y167978D02*
Y171478D01*
X1092826Y169728D02*
X1096326D01*
X1094576Y167978D02*
Y171478D01*
X192826Y169728D02*
X196326D01*
X194576Y167978D02*
Y171478D01*
X751766Y694448D02*
X755266D01*
X753516Y692698D02*
Y696198D01*
X417826Y619728D02*
X421326D01*
X419576Y617978D02*
Y621478D01*
X617826Y619728D02*
X621326D01*
X619576Y617978D02*
Y621478D01*
X667826Y319728D02*
X671326D01*
X669576Y317978D02*
Y321478D01*
X717826Y319728D02*
X721326D01*
X719576Y317978D02*
Y321478D01*
X392826Y769728D02*
X396326D01*
X394576Y767978D02*
Y771478D01*
X42826Y369728D02*
X46326D01*
X44576Y367978D02*
Y371478D01*
X392826Y169728D02*
X396326D01*
X394576Y167978D02*
Y171478D01*
X592826Y169728D02*
X596326D01*
X594576Y167978D02*
Y171478D01*
X417826Y319728D02*
X421326D01*
X419576Y317978D02*
Y321478D01*
X417826Y519728D02*
X421326D01*
X419576Y517978D02*
Y521478D01*
X892826Y369728D02*
X896326D01*
X894576Y367978D02*
Y371478D01*
X1088316Y467118D02*
X1091816D01*
X1090066Y465368D02*
Y468868D01*
X67826Y119728D02*
X71326D01*
X69576Y117978D02*
Y121478D01*
X242826Y69728D02*
X246326D01*
X244576Y67978D02*
Y71478D01*
X667826Y419728D02*
X671326D01*
X669576Y417978D02*
Y421478D01*
X1017826Y419728D02*
X1021326D01*
X1019576Y417978D02*
Y421478D01*
X986716Y72148D02*
X990216D01*
X988466Y70398D02*
Y73898D01*
X867826Y419728D02*
X871326D01*
X869576Y417978D02*
Y421478D01*
X592826Y569728D02*
X596326D01*
X594576Y567978D02*
Y571478D01*
X1042826Y69728D02*
X1046326D01*
X1044576Y67978D02*
Y71478D01*
X142826Y169728D02*
X146326D01*
X144576Y167978D02*
Y171478D01*
X467826Y419728D02*
X471326D01*
X469576Y417978D02*
Y421478D01*
X542826Y469728D02*
X546326D01*
X544576Y467978D02*
Y471478D01*
X1092826Y69728D02*
X1096326D01*
X1094576Y67978D02*
Y71478D01*
X842826Y169728D02*
X846326D01*
X844576Y167978D02*
Y171478D01*
X475560Y245081D02*
X479060D01*
X477310Y243331D02*
Y246831D01*
X92826Y69728D02*
X96326D01*
X94576Y67978D02*
Y71478D01*
X735256Y31508D02*
X738756D01*
X737006Y29758D02*
Y33258D01*
X392826Y569728D02*
X396326D01*
X394576Y567978D02*
Y571478D01*
X17826Y619728D02*
X21326D01*
X19576Y617978D02*
Y621478D01*
X617826Y519728D02*
X621326D01*
X619576Y517978D02*
Y521478D01*
X217826Y619728D02*
X221326D01*
X219576Y617978D02*
Y621478D01*
X117826Y219728D02*
X121326D01*
X119576Y217978D02*
Y221478D01*
X617826Y319728D02*
X621326D01*
X619576Y317978D02*
Y321478D01*
X217826Y19728D02*
X221326D01*
X219576Y17978D02*
Y21478D01*
X592826Y369728D02*
X596326D01*
X594576Y367978D02*
Y371478D01*
X642826Y569728D02*
X646326D01*
X644576Y567978D02*
Y571478D01*
X367826Y619728D02*
X371326D01*
X369576Y617978D02*
Y621478D01*
X692826Y269728D02*
X696326D01*
X694576Y267978D02*
Y271478D01*
X267826Y119728D02*
X271326D01*
X269576Y117978D02*
Y121478D01*
X292826Y69728D02*
X296326D01*
X294576Y67978D02*
Y71478D01*
X92826Y569728D02*
X96326D01*
X94576Y567978D02*
Y571478D01*
X1067826Y119728D02*
X1071326D01*
X1069576Y117978D02*
Y121478D01*
X17826Y419728D02*
X21326D01*
X19576Y417978D02*
Y421478D01*
X17826Y219728D02*
X21326D01*
X19576Y217978D02*
Y221478D01*
X42826Y69728D02*
X46326D01*
X44576Y67978D02*
Y71478D01*
X1042826Y269728D02*
X1046326D01*
X1044576Y267978D02*
Y271478D01*
X518978Y245081D02*
X522477D01*
X520728Y243331D02*
Y246831D01*
X667826Y119728D02*
X671326D01*
X669576Y117978D02*
Y121478D01*
X342826Y569728D02*
X346326D01*
X344576Y567978D02*
Y571478D01*
X842826Y269728D02*
X846326D01*
X844576Y267978D02*
Y271478D01*
X1017826Y19728D02*
X1021326D01*
X1019576Y17978D02*
Y21478D01*
X992826Y169728D02*
X996326D01*
X994576Y167978D02*
Y171478D01*
X849467Y32190D02*
X852967D01*
X851217Y30440D02*
Y33940D01*
X192826Y369728D02*
X196326D01*
X194576Y367978D02*
Y371478D01*
X1042826Y469728D02*
X1046326D01*
X1044576Y467978D02*
Y471478D01*
X767826Y319728D02*
X771326D01*
X769576Y317978D02*
Y321478D01*
X317826Y19728D02*
X321326D01*
X319576Y17978D02*
Y21478D01*
X751766Y599198D02*
X755266D01*
X753516Y597448D02*
Y600948D01*
X617826Y419728D02*
X621326D01*
X619576Y417978D02*
Y421478D01*
X317826Y619728D02*
X321326D01*
X319576Y617978D02*
Y621478D01*
X751636Y661611D02*
X755136D01*
X753386Y659861D02*
Y663361D01*
X42826Y269728D02*
X46326D01*
X44576Y267978D02*
Y271478D01*
X267826Y619728D02*
X271326D01*
X269576Y617978D02*
Y621478D01*
X367826Y519728D02*
X371326D01*
X369576Y517978D02*
Y521478D01*
X742826Y369728D02*
X746326D01*
X744576Y367978D02*
Y371478D01*
X792826Y669728D02*
X796326D01*
X794576Y667978D02*
Y671478D01*
X892826Y69728D02*
X896326D01*
X894576Y67978D02*
Y71478D01*
X117826Y619728D02*
X121326D01*
X119576Y617978D02*
Y621478D01*
X467826Y119728D02*
X471326D01*
X469576Y117978D02*
Y121478D01*
X67826Y219728D02*
X71326D01*
X69576Y217978D02*
Y221478D01*
X1092826Y369728D02*
X1096326D01*
X1094576Y367978D02*
Y371478D01*
X117826Y19728D02*
X121326D01*
X119576Y17978D02*
Y21478D01*
X392826Y369728D02*
X396326D01*
X394576Y367978D02*
Y371478D01*
X617826Y719728D02*
X621326D01*
X619576Y717978D02*
Y721478D01*
X767826Y219728D02*
X771326D01*
X769576Y217978D02*
Y221478D01*
X567826Y719728D02*
X571326D01*
X569576Y717978D02*
Y721478D01*
X167826Y219728D02*
X171326D01*
X169576Y217978D02*
Y221478D01*
X1067826Y419728D02*
X1071326D01*
X1069576Y417978D02*
Y421478D01*
X125656Y426478D02*
X129156D01*
X127406Y424728D02*
Y428228D01*
X751766Y572528D02*
X755266D01*
X753516Y570778D02*
Y574278D01*
X342826Y69728D02*
X346326D01*
X344576Y67978D02*
Y71478D01*
X442826Y769728D02*
X446326D01*
X444576Y767978D02*
Y771478D01*
X192826Y569728D02*
X196326D01*
X194576Y567978D02*
Y571478D01*
X542826Y569728D02*
X546326D01*
X544576Y567978D02*
Y571478D01*
X142826Y569728D02*
X146326D01*
X144576Y567978D02*
Y571478D01*
X792826Y569728D02*
X796326D01*
X794576Y567978D02*
Y571478D01*
X542826Y769728D02*
X546326D01*
X544576Y767978D02*
Y771478D01*
X1017826Y719728D02*
X1021326D01*
X1019576Y717978D02*
Y721478D01*
X751766Y628408D02*
X755266D01*
X753516Y626658D02*
Y630158D01*
X267826Y519728D02*
X271326D01*
X269576Y517978D02*
Y521478D01*
X167826Y619728D02*
X171326D01*
X169576Y617978D02*
Y621478D01*
X642826Y269728D02*
X646326D01*
X644576Y267978D02*
Y271478D01*
X367826Y219728D02*
X371326D01*
X369576Y217978D02*
Y221478D01*
X1067826Y219728D02*
X1071326D01*
X1069576Y217978D02*
Y221478D01*
X642826Y69728D02*
X646326D01*
X644576Y67978D02*
Y71478D01*
X667826Y219728D02*
X671326D01*
X669576Y217978D02*
Y221478D01*
X1067826Y719728D02*
X1071326D01*
X1069576Y717978D02*
Y721478D01*
X292826Y769728D02*
X296326D01*
X294576Y767978D02*
Y771478D01*
X242826Y169728D02*
X246326D01*
X244576Y167978D02*
Y171478D01*
X167826Y419728D02*
X171326D01*
X169576Y417978D02*
Y421478D01*
X17826Y519728D02*
X21326D01*
X19576Y517978D02*
Y521478D01*
X117826Y519728D02*
X121326D01*
X119576Y517978D02*
Y521478D01*
X567826Y119728D02*
X571326D01*
X569576Y117978D02*
Y121478D01*
X793676Y708418D02*
X797176D01*
X795426Y706668D02*
Y710168D01*
X1042826Y369728D02*
X1046326D01*
X1044576Y367978D02*
Y371478D01*
X842826Y69728D02*
X846326D01*
X844576Y67978D02*
Y71478D01*
X567826Y519728D02*
X571326D01*
X569576Y517978D02*
Y521478D01*
X934646Y35318D02*
X938146D01*
X936396Y33568D02*
Y37068D01*
X492826Y369728D02*
X496326D01*
X494576Y367978D02*
Y371478D01*
X317826Y519728D02*
X321326D01*
X319576Y517978D02*
Y521478D01*
X992826Y369728D02*
X996326D01*
X994576Y367978D02*
Y371478D01*
X684456Y79768D02*
X687956D01*
X686206Y78018D02*
Y81518D01*
X817826Y319728D02*
X821326D01*
X819576Y317978D02*
Y321478D01*
X367826Y19728D02*
X371326D01*
X369576Y17978D02*
Y21478D01*
X422836Y125488D02*
X426336D01*
X424586Y123738D02*
Y127238D01*
X918500Y577850D02*
X923000D01*
X920750Y575600D02*
Y580100D01*
X970570Y590550D02*
X975070D01*
X972820Y588300D02*
Y592800D01*
X875702Y578041D02*
X880202D01*
X877952Y575792D02*
Y580291D01*
X888020Y638810D02*
X892520D01*
X890270Y636560D02*
Y641060D01*
X1080010Y756920D02*
X1112010D01*
X1096010Y740920D02*
Y772920D01*
X1080010Y29210D02*
X1112010D01*
X1096010Y13210D02*
Y45210D01*
X13906Y757459D02*
X45906D01*
X29906Y741459D02*
Y773459D01*
X14480Y30480D02*
X46480D01*
X30480Y14480D02*
Y46480D01*
M02*
