G04*
G04 #@! TF.GenerationSoftware,Altium Limited,Altium Designer,25.8.1 (18)*
G04*
G04 Layer_Color=16711935*
%FSLAX44Y44*%
%MOMM*%
G71*
G04*
G04 #@! TF.SameCoordinates,B962B673-1AC8-49EC-9CCC-188C0FAC6781*
G04*
G04*
G04 #@! TF.FilePolarity,Positive*
G04*
G01*
G75*
%ADD10C,0.2000*%
%ADD13C,0.1270*%
%ADD15C,0.0762*%
%ADD64C,0.0000*%
%ADD65C,0.0254*%
%ADD66C,0.1000*%
D10*
X959850Y636750D02*
G03*
X959850Y636750I-1000J0D01*
G01*
X955380Y465420D02*
G03*
X955380Y465420I-1000J0D01*
G01*
X844760Y524510D02*
G03*
X844760Y524510I-1000J0D01*
G01*
X103660Y440780D02*
G03*
X103660Y440780I-1000J0D01*
G01*
X964690Y476640D02*
Y493640D01*
X932690D02*
X964690D01*
X932690Y476640D02*
Y493640D01*
Y476640D02*
X964690D01*
X659520Y697990D02*
X676520D01*
X659520Y665990D02*
Y697990D01*
Y665990D02*
X676520D01*
Y697990D01*
X861570Y568570D02*
X893570D01*
Y551570D02*
Y568570D01*
X861570Y551570D02*
X893570D01*
X861570D02*
Y568570D01*
X940700Y662100D02*
Y684100D01*
X926200Y662100D02*
X940700D01*
X926200D02*
Y684100D01*
X940700D01*
X902070Y662100D02*
Y684100D01*
X916570D01*
Y662100D02*
Y684100D01*
X902070Y662100D02*
X916570D01*
X504620Y311520D02*
X526620D01*
X504620D02*
Y326020D01*
X526620D01*
Y311520D02*
Y326020D01*
X504620Y300620D02*
X526620D01*
Y286120D02*
Y300620D01*
X504620Y286120D02*
X526620D01*
X504620D02*
Y300620D01*
X639690Y456440D02*
Y488440D01*
X622690Y456440D02*
X639690D01*
X622690D02*
Y488440D01*
X639690D01*
X867180Y717090D02*
X959080D01*
X867180D02*
Y786590D01*
X959080D01*
Y717090D02*
Y786590D01*
X973250Y741310D02*
X995250D01*
Y726810D02*
Y741310D01*
X973250Y726810D02*
X995250D01*
X973250D02*
Y741310D01*
Y771790D02*
X995250D01*
Y757290D02*
Y771790D01*
X973250Y757290D02*
X995250D01*
X973250D02*
Y771790D01*
X862720Y662180D02*
Y694180D01*
X879720D01*
Y662180D02*
Y694180D01*
X862720Y662180D02*
X879720D01*
X838590D02*
Y694180D01*
X855590D01*
Y662180D02*
Y694180D01*
X838590Y662180D02*
X855590D01*
X705220Y461440D02*
Y483440D01*
X719720D01*
Y461440D02*
Y483440D01*
X705220Y461440D02*
X719720D01*
X665850D02*
Y483440D01*
X680350D01*
Y461440D02*
Y483440D01*
X665850Y461440D02*
X680350D01*
X643115Y526035D02*
Y561085D01*
X708165D01*
Y526035D02*
Y561085D01*
X643115Y526035D02*
X708165D01*
X726870Y512180D02*
X748870D01*
X726870D02*
Y526680D01*
X748870D01*
Y512180D02*
Y526680D01*
X726870Y538850D02*
X748870D01*
X726870D02*
Y553350D01*
X748870D01*
Y538850D02*
Y553350D01*
X729410Y766180D02*
X751410D01*
X729410D02*
Y780680D01*
X751410D01*
Y766180D02*
Y780680D01*
X729410Y755280D02*
X751410D01*
Y740780D02*
Y755280D01*
X729410Y740780D02*
X751410D01*
X729410D02*
Y755280D01*
X1013970Y681600D02*
X1045970D01*
Y664600D02*
Y681600D01*
X1013970Y664600D02*
X1045970D01*
X1013970D02*
Y681600D01*
X1015240Y606180D02*
X1047240D01*
X1015240D02*
Y623180D01*
X1047240D01*
Y606180D02*
Y623180D01*
X1015240Y634120D02*
X1047240D01*
X1015240D02*
Y651120D01*
X1047240D01*
Y634120D02*
Y651120D01*
X819660Y756530D02*
X851660D01*
Y739530D02*
Y756530D01*
X819660Y739530D02*
X851660D01*
X819660D02*
Y756530D01*
X797250Y39060D02*
Y159060D01*
Y39060D02*
X917250D01*
Y159060D01*
X797250D02*
X917250D01*
X795980Y341320D02*
Y461320D01*
Y341320D02*
X915980D01*
Y461320D01*
X795980D02*
X915980D01*
X973780Y189970D02*
Y309970D01*
Y189970D02*
X1093780D01*
Y309970D01*
X973780D02*
X1093780D01*
X795980Y189970D02*
Y309970D01*
Y189970D02*
X915980D01*
Y309970D01*
X795980D02*
X915980D01*
X614370Y189970D02*
Y309970D01*
Y189970D02*
X734370D01*
Y309970D01*
X614370D02*
X734370D01*
D13*
X950350Y652500D02*
Y681000D01*
X967350D01*
Y652500D02*
Y681000D01*
X950350Y652500D02*
X967350D01*
X970380Y448470D02*
Y468470D01*
Y448470D02*
X982880D01*
Y468470D01*
X970380D02*
X982880D01*
X859510Y516010D02*
Y533010D01*
Y516010D02*
X888010D01*
Y533010D01*
X859510D02*
X888010D01*
X3060Y446480D02*
Y557170D01*
Y624280D01*
Y731580D01*
Y446480D02*
X512560D01*
X3060Y731580D02*
X512560D01*
Y446480D02*
Y500180D01*
Y677080D01*
Y731580D01*
X447660Y500180D02*
X512560D01*
X321360D02*
X447660D01*
X321360D02*
Y677080D01*
X447660D01*
X512560D01*
X447660Y500180D02*
Y677080D01*
X3060Y624280D02*
X41960D01*
Y557170D02*
Y624280D01*
X3060Y557170D02*
X41960D01*
D15*
X935355Y529590D02*
Y542286D01*
X941703D01*
X943819Y540170D01*
Y535938D01*
X941703Y533822D01*
X935355D01*
X939587D02*
X943819Y529590D01*
X954399D02*
X950167D01*
X948051Y531706D01*
Y535938D01*
X950167Y538054D01*
X954399D01*
X956515Y535938D01*
Y533822D01*
X948051D01*
X962863Y529590D02*
Y540170D01*
Y535938D01*
X960747D01*
X964979D01*
X962863D01*
Y540170D01*
X964979Y542286D01*
X971327D02*
Y529590D01*
X977675D01*
X979791Y531706D01*
Y540170D01*
X977675Y542286D01*
X971327D01*
X990370Y529590D02*
X986139D01*
X984023Y531706D01*
Y535938D01*
X986139Y538054D01*
X990370D01*
X992486Y535938D01*
Y533822D01*
X984023D01*
X996719Y529590D02*
X1003066D01*
X1005182Y531706D01*
X1003066Y533822D01*
X998834D01*
X996719Y535938D01*
X998834Y538054D01*
X1005182D01*
X1017878Y529590D02*
X1009414D01*
X1017878Y538054D01*
Y540170D01*
X1015762Y542286D01*
X1011530D01*
X1009414Y540170D01*
X938276Y558585D02*
X946740Y550121D01*
X938276D02*
X946740Y558585D01*
X938276Y554353D02*
X946740D01*
X942508Y550121D02*
Y558585D01*
D64*
X954532Y561467D02*
G03*
X960628Y561467I3048J0D01*
G01*
D65*
X937641Y510413D02*
Y561467D01*
X977519D01*
Y510413D02*
Y561467D01*
X937641Y510413D02*
X977519D01*
Y557530D02*
X988568D01*
Y552450D02*
Y557530D01*
X977519Y552450D02*
X988568D01*
X977519D02*
Y557530D01*
Y544830D02*
X988568D01*
Y539750D02*
Y544830D01*
X977519Y539750D02*
X988568D01*
X977519D02*
Y544830D01*
Y532130D02*
X988568D01*
Y527050D02*
Y532130D01*
X977519Y527050D02*
X988568D01*
X977519D02*
Y532130D01*
Y519430D02*
X988568D01*
Y514350D02*
Y519430D01*
X977519Y514350D02*
X988568D01*
X977519D02*
Y519430D01*
X926592Y514350D02*
X937641D01*
X926592D02*
Y519430D01*
X937641D01*
Y514350D02*
Y519430D01*
X926592Y527050D02*
X937641D01*
X926592D02*
Y532130D01*
X937641D01*
Y527050D02*
Y532130D01*
X926592Y539750D02*
X937641D01*
X926592D02*
Y544830D01*
X937641D01*
Y539750D02*
Y544830D01*
X926592Y552450D02*
X937641D01*
X926592D02*
Y557530D01*
X937641D01*
Y552450D02*
Y557530D01*
D66*
X1072390Y607180D02*
X1104390D01*
X1072390Y622180D02*
X1104390D01*
Y607180D02*
Y622180D01*
X1072390Y607180D02*
Y622180D01*
Y665600D02*
Y680600D01*
X1104390Y665600D02*
Y680600D01*
X1072390D02*
X1104390D01*
X1072390Y665600D02*
X1104390D01*
X689100Y349370D02*
Y364370D01*
X657100Y349370D02*
Y364370D01*
Y349370D02*
X689100D01*
X657100Y364370D02*
X689100D01*
X652020Y631310D02*
X684020D01*
X652020Y646310D02*
X684020D01*
Y631310D02*
Y646310D01*
X652020Y631310D02*
Y646310D01*
X539750Y327660D02*
X565150D01*
X539750Y124460D02*
Y327660D01*
Y124460D02*
X565150D01*
Y327660D01*
M02*
