ISO-10303-21;
HEADER;

/* File generated by Shapr3D Version 26.0.10296.0 */

FILE_DESCRIPTION(('HOOPS Exchange Step'),'2;1');

FILE_NAME('C:\\Users\\Ruben\\AppData\\Local\\Packages\\Shapr3D.Shapr3D_dvv5p1vgwv6mp\\TempState\\export\\temp_export',
'2026-01-29T19:42:56+01:00',
('Ruben'),
('Shapr3D Limited'),
'HOOPS Exchange 2025.9',
'Shapr3D',
'Authorized');

FILE_SCHEMA( ('AP242_MANAGED_MODEL_BASED_3D_ENGINEERING_MIM_LF {1 0 10303 442 1 1 4}') );

ENDSEC;

DATA;
#3=(NAMED_UNIT(*)PLANE_ANGLE_UNIT()SI_UNIT($,.RADIAN.));
#4=PLANE_ANGLE_MEASURE_WITH_UNIT(PLANE_ANGLE_MEASURE(0.0174532925),#3);
#5=(CONVERSION_BASED_UNIT('DEGREE',#4)NAMED_UNIT(#6)PLANE_ANGLE_UNIT());
#6=DIMENSIONAL_EXPONENTS(0.,0.,0.,0.,0.,0.,0.);
#7=(NAMED_UNIT(*)SI_UNIT($,.STERADIAN.)SOLID_ANGLE_UNIT());
#8=(LENGTH_UNIT()NAMED_UNIT(*)SI_UNIT(.MILLI.,.METRE.));
#9=UNCERTAINTY_MEASURE_WITH_UNIT(LENGTH_MEASURE(1.000000E-03),#8,'DISTANCE_ACCURACY_VALUE','Maximum Tolerance applied to model');
#10=(GEOMETRIC_REPRESENTATION_CONTEXT(3)GLOBAL_UNCERTAINTY_ASSIGNED_CONTEXT((#9))GLOBAL_UNIT_ASSIGNED_CONTEXT((#8,#5,#7))REPRESENTATION_CONTEXT('','root'));
#12=CARTESIAN_POINT('',(0.,0.,0.));
#13=DIRECTION('',(0.,0.,1.));
#14=DIRECTION('',(1.,0.,0.));
#15=AXIS2_PLACEMENT_3D('',#12,#13,#14);
#26=(NAMED_UNIT(*)PLANE_ANGLE_UNIT()SI_UNIT($,.RADIAN.));
#27=PLANE_ANGLE_MEASURE_WITH_UNIT(PLANE_ANGLE_MEASURE(0.0174532925),#26);
#28=(CONVERSION_BASED_UNIT('DEGREE',#27)NAMED_UNIT(#29)PLANE_ANGLE_UNIT());
#29=DIMENSIONAL_EXPONENTS(0.,0.,0.,0.,0.,0.,0.);
#30=(NAMED_UNIT(*)SI_UNIT($,.STERADIAN.)SOLID_ANGLE_UNIT());
#31=(LENGTH_UNIT()NAMED_UNIT(*)SI_UNIT(.MILLI.,.METRE.));
#32=UNCERTAINTY_MEASURE_WITH_UNIT(LENGTH_MEASURE(1.000000E-03),#31,'DISTANCE_ACCURACY_VALUE','Maximum Tolerance applied to model');
#33=(GEOMETRIC_REPRESENTATION_CONTEXT(3)GLOBAL_UNCERTAINTY_ASSIGNED_CONTEXT((#32))GLOBAL_UNIT_ASSIGNED_CONTEXT((#31,#28,#30))REPRESENTATION_CONTEXT('','kleinkopffuss.step'));
#45=CARTESIAN_POINT('',(0.,0.,0.));
#46=DIRECTION('',(0.,0.,1.));
#47=DIRECTION('',(1.,0.,-0.));
#48=AXIS2_PLACEMENT_3D('',#45,#46,#47);
#49=ITEM_DEFINED_TRANSFORMATION('','',#48,#15);
#50=(REPRESENTATION_RELATIONSHIP('','',#35,#16)REPRESENTATION_RELATIONSHIP_WITH_TRANSFORMATION(#49)SHAPE_REPRESENTATION_RELATIONSHIP());
#51=NEXT_ASSEMBLY_USAGE_OCCURRENCE('kleinkopffuss.step_1','kleinkopffuss.step','kleinkopffuss.step',#25,#44,$);
#52=PRODUCT_DEFINITION_SHAPE('','',#51);
#53=CONTEXT_DEPENDENT_SHAPE_REPRESENTATION(#50,#52);
#54=(NAMED_UNIT(*)PLANE_ANGLE_UNIT()SI_UNIT($,.RADIAN.));
#55=PLANE_ANGLE_MEASURE_WITH_UNIT(PLANE_ANGLE_MEASURE(0.0174532925),#54);
#56=(CONVERSION_BASED_UNIT('DEGREE',#55)NAMED_UNIT(#57)PLANE_ANGLE_UNIT());
#57=DIMENSIONAL_EXPONENTS(0.,0.,0.,0.,0.,0.,0.);
#58=(NAMED_UNIT(*)SI_UNIT($,.STERADIAN.)SOLID_ANGLE_UNIT());
#59=(LENGTH_UNIT()NAMED_UNIT(*)SI_UNIT(.MILLI.,.METRE.));
#60=UNCERTAINTY_MEASURE_WITH_UNIT(LENGTH_MEASURE(1.000000E-05),#59,'DISTANCE_ACCURACY_VALUE','Maximum Tolerance applied to model');
#61=(GEOMETRIC_REPRESENTATION_CONTEXT(3)GLOBAL_UNCERTAINTY_ASSIGNED_CONTEXT((#60))GLOBAL_UNIT_ASSIGNED_CONTEXT((#59,#56,#58))REPRESENTATION_CONTEXT('','Kleinkopffu\S\_'));
#73=CARTESIAN_POINT('',(0.,0.,0.));
#74=DIRECTION('',(0.,0.,1.));
#75=DIRECTION('',(1.,0.,-0.));
#76=AXIS2_PLACEMENT_3D('',#73,#74,#75);
#77=ITEM_DEFINED_TRANSFORMATION('','',#76,#15);
#78=(REPRESENTATION_RELATIONSHIP('','',#63,#35)REPRESENTATION_RELATIONSHIP_WITH_TRANSFORMATION(#77)SHAPE_REPRESENTATION_RELATIONSHIP());
#79=NEXT_ASSEMBLY_USAGE_OCCURRENCE('Kleinkopffu\S\__2','Kleinkopffu\S\_','Kleinkopffu\S\_',#44,#72,$);
#80=PRODUCT_DEFINITION_SHAPE('','',#79);
#81=CONTEXT_DEPENDENT_SHAPE_REPRESENTATION(#78,#80);
#83=CARTESIAN_POINT('',(690.020722091,832.489106455,78.537743572));
#84=DIRECTION('',(0.,-0.,1.));
#85=DIRECTION('',(-1.,0.,0.));
#86=AXIS2_PLACEMENT_3D('',#83,#84,#85);
#87=CYLINDRICAL_SURFACE('',#86,2.);
#88=CARTESIAN_POINT('',(688.020722091,832.489106455,93.537743572));
#89=VERTEX_POINT('',#88);
#90=CARTESIAN_POINT('',(688.020722089,832.489106451,83.537743568));
#91=VERTEX_POINT('',#90);
#92=CARTESIAN_POINT('',(688.020722091,832.489106455,93.537743572));
#93=DIRECTION('',(-0.,0.,-1.));
#94=VECTOR('',#93,10.000000004);
#95=LINE('',#92,#94);
#96=EDGE_CURVE('',#89,#91,#95,.T.);
#97=ORIENTED_EDGE('',*,*,#96,.F.);
#98=CARTESIAN_POINT('',(690.020722091,832.489106455,93.537743572));
#99=DIRECTION('',(-0.,0.,-1.));
#100=DIRECTION('',(-1.,0.,0.));
#101=AXIS2_PLACEMENT_3D('',#98,#99,#100);
#102=CIRCLE('',#101,2.);
#103=EDGE_CURVE('',#89,#89,#102,.T.);
#104=ORIENTED_EDGE('',*,*,#103,.F.);
#105=ORIENTED_EDGE('',*,*,#96,.T.);
#106=CARTESIAN_POINT('',(689.020722089,830.757055644,84.537743568));
#107=VERTEX_POINT('',#106);
#108=CARTESIAN_POINT('',(689.020722089,830.757055644,84.537743568));
#109=CARTESIAN_POINT('',(690.349771418,829.989728656,84.537743568));
#110=CARTESIAN_POINT('',(691.434935651,831.074892888,83.055381657));
#111=CARTESIAN_POINT('',(692.520099884,832.160057121,81.573019746));
#112=CARTESIAN_POINT('',(691.752772896,833.48910645,80.805692758));
#113=CARTESIAN_POINT('',(690.985445908,834.818155779,80.03836577));
#114=CARTESIAN_POINT('',(689.503083998,834.420958103,81.123530004));
#115=CARTESIAN_POINT('',(688.020722089,834.023760427,82.208694238));
#116=CARTESIAN_POINT('',(688.020722089,832.489106451,83.537743568));
#117=(BOUNDED_CURVE()
B_SPLINE_CURVE(2,(#108,#109,#110,#111,#112,#113,#114,#115,#116),.UNSPECIFIED.,.F.,.F.)
B_SPLINE_CURVE_WITH_KNOTS((3,2,2,2,3),(0.000000008,75.000000008,150.000000008,225.000000008,300.000000008),.UNSPECIFIED.)
CURVE()
GEOMETRIC_REPRESENTATION_ITEM()
RATIONAL_B_SPLINE_CURVE((1.,0.79335334,1.,0.79335334,1.,0.79335334,1.,0.79335334,1.))
REPRESENTATION_ITEM(''));
#118=EDGE_CURVE('',#107,#91,#117,.T.);
#119=ORIENTED_EDGE('',*,*,#118,.F.);
#120=CARTESIAN_POINT('',(688.020722089,832.489106451,83.537743568));
#121=CARTESIAN_POINT('',(688.020722089,831.334405913,84.537743568));
#122=CARTESIAN_POINT('',(689.020722089,830.757055644,84.537743568));
#123=(BOUNDED_CURVE()
B_SPLINE_CURVE(2,(#120,#121,#122),.UNSPECIFIED.,.F.,.F.)
B_SPLINE_CURVE_WITH_KNOTS((3,3),(300.000000008,360.),.UNSPECIFIED.)
CURVE()
GEOMETRIC_REPRESENTATION_ITEM()
RATIONAL_B_SPLINE_CURVE((1.,0.866025404,1.))
REPRESENTATION_ITEM(''));
#124=EDGE_CURVE('',#91,#107,#123,.T.);
#125=ORIENTED_EDGE('',*,*,#124,.F.);
#126=EDGE_LOOP('',(#97,#104,#105,#119,#125));
#127=FACE_BOUND('',#126,.T.);
#128=ADVANCED_FACE('',(#127),#87,.F.);
#129=CARTESIAN_POINT('',(690.020722091,832.489106455,78.537743572));
#130=DIRECTION('',(0.,-0.,1.));
#131=DIRECTION('',(-1.,0.,0.));
#132=AXIS2_PLACEMENT_3D('',#129,#130,#131);
#133=CYLINDRICAL_SURFACE('',#132,4.);
#134=CARTESIAN_POINT('',(686.020722091,832.489106455,93.537743572));
#135=VERTEX_POINT('',#134);
#136=CARTESIAN_POINT('',(686.020722089,832.489106452,84.537743568));
#137=VERTEX_POINT('',#136);
#138=CARTESIAN_POINT('',(686.020722091,832.489106455,93.537743572));
#139=DIRECTION('',(-0.,0.,-1.));
#140=VECTOR('',#139,9.000000003);
#141=LINE('',#138,#140);
#142=EDGE_CURVE('',#135,#137,#141,.T.);
#143=ORIENTED_EDGE('',*,*,#142,.T.);
#144=CARTESIAN_POINT('',(688.020722089,829.025004838,86.537743568));
#145=VERTEX_POINT('',#144);
#146=CARTESIAN_POINT('',(686.020722089,832.489106452,84.537743568));
#147=CARTESIAN_POINT('',(686.02072209,830.179705376,86.537743568));
#148=CARTESIAN_POINT('',(688.020722089,829.025004838,86.537743568));
#149=(BOUNDED_CURVE()
B_SPLINE_CURVE(2,(#146,#147,#148),.UNSPECIFIED.,.F.,.F.)
B_SPLINE_CURVE_WITH_KNOTS((3,3),(300.000000012,360.),.UNSPECIFIED.)
CURVE()
GEOMETRIC_REPRESENTATION_ITEM()
RATIONAL_B_SPLINE_CURVE((1.,0.866025404,1.))
REPRESENTATION_ITEM(''));
#150=EDGE_CURVE('',#137,#145,#149,.T.);
#151=ORIENTED_EDGE('',*,*,#150,.T.);
#152=CARTESIAN_POINT('',(693.791412723,831.154231124,81.808434191));
#153=VERTEX_POINT('',#152);
#154=CARTESIAN_POINT('',(688.020722089,829.025004838,86.537743568));
#155=CARTESIAN_POINT('',(690.678820748,827.490350861,86.537743567));
#156=CARTESIAN_POINT('',(692.849149214,829.660679326,83.573019747));
#157=CARTESIAN_POINT('',(693.489295764,830.300825876,82.698563296));
#158=CARTESIAN_POINT('',(693.79141273,831.154231143,81.808434171));
#159=(BOUNDED_CURVE()
B_SPLINE_CURVE(2,(#154,#155,#156,#157,#158),.UNSPECIFIED.,.F.,.F.)
B_SPLINE_CURVE_WITH_KNOTS((3,2,3),(199.105800696,274.105800695,300.000000012),.UNSPECIFIED.)
CURVE()
GEOMETRIC_REPRESENTATION_ITEM()
RATIONAL_B_SPLINE_CURVE((1.,0.79335334,1.,0.928654003,0.906573271))
REPRESENTATION_ITEM(''));
#160=EDGE_CURVE('',#145,#153,#159,.T.);
#161=ORIENTED_EDGE('',*,*,#160,.T.);
#162=CARTESIAN_POINT('',(693.791412724,831.154231123,93.537743572));
#163=VERTEX_POINT('',#162);
#164=CARTESIAN_POINT('',(693.791412724,831.154231123,93.537743572));
#165=DIRECTION('',(-0.,0.,-1.));
#166=VECTOR('',#165,11.72930938);
#167=LINE('',#164,#166);
#168=EDGE_CURVE('',#163,#153,#167,.T.);
#169=ORIENTED_EDGE('',*,*,#168,.F.);
#170=CARTESIAN_POINT('',(690.020722091,832.489106455,93.537743572));
#171=DIRECTION('',(-0.,0.,-1.));
#172=DIRECTION('',(-1.,0.,0.));
#173=AXIS2_PLACEMENT_3D('',#170,#171,#172);
#174=CIRCLE('',#173,4.);
#175=EDGE_CURVE('',#163,#135,#174,.T.);
#176=ORIENTED_EDGE('',*,*,#175,.T.);
#177=EDGE_LOOP('',(#143,#151,#161,#169,#176));
#178=FACE_BOUND('',#177,.T.);
#179=ADVANCED_FACE('',(#178),#133,.T.);
#180=CARTESIAN_POINT('',(684.314704125,822.605993429,93.537743572));
#181=DIRECTION('',(0.,0.,-1.));
#182=DIRECTION('',(-1.,0.,0.));
#183=AXIS2_PLACEMENT_3D('',#180,#181,#182);
#184=PLANE('',#183);
#185=CARTESIAN_POINT('',(686.979340826,835.087182667,93.537743572));
#186=VERTEX_POINT('',#185);
#187=CARTESIAN_POINT('',(690.020722091,832.489106455,93.537743572));
#188=DIRECTION('',(-0.,0.,-1.));
#189=DIRECTION('',(-1.,0.,0.));
#190=AXIS2_PLACEMENT_3D('',#187,#188,#189);
#191=CIRCLE('',#190,4.);
#192=EDGE_CURVE('',#135,#186,#191,.T.);
#193=ORIENTED_EDGE('',*,*,#192,.F.);
#194=ORIENTED_EDGE('',*,*,#175,.F.);
#195=CARTESIAN_POINT('',(698.726740058,822.605993428,93.537743572));
#196=VERTEX_POINT('',#195);
#197=CARTESIAN_POINT('',(693.791412724,831.154231123,93.537743572));
#198=DIRECTION('',(0.5,-0.866025404,-0.));
#199=VECTOR('',#198,9.870654668);
#200=LINE('',#197,#199);
#201=EDGE_CURVE('',#163,#196,#200,.T.);
#202=ORIENTED_EDGE('',*,*,#201,.T.);
#203=CARTESIAN_POINT('',(691.520722091,810.124804191,93.537743572));
#204=VERTEX_POINT('',#203);
#205=CARTESIAN_POINT('',(698.726740058,822.605993428,93.537743572));
#206=DIRECTION('',(-0.5,-0.866025404,-0.));
#207=VECTOR('',#206,14.412035932);
#208=LINE('',#205,#207);
#209=EDGE_CURVE('',#196,#204,#208,.T.);
#210=ORIENTED_EDGE('',*,*,#209,.T.);
#211=CARTESIAN_POINT('',(681.650067424,810.124804191,93.537743572));
#212=VERTEX_POINT('',#211);
#213=CARTESIAN_POINT('',(691.520722091,810.124804191,93.537743572));
#214=DIRECTION('',(-1.,0.,0.));
#215=VECTOR('',#214,9.870654668);
#216=LINE('',#213,#215);
#217=EDGE_CURVE('',#204,#212,#216,.T.);
#218=ORIENTED_EDGE('',*,*,#217,.T.);
#219=CARTESIAN_POINT('',(674.837995526,814.057755735,93.537743572));
#220=VERTEX_POINT('',#219);
#221=CARTESIAN_POINT('',(678.608686159,812.722880403,93.537743572));
#222=DIRECTION('',(-0.,0.,-1.));
#223=DIRECTION('',(-1.,0.,0.));
#224=AXIS2_PLACEMENT_3D('',#221,#222,#223);
#225=CIRCLE('',#224,4.);
#226=EDGE_CURVE('',#220,#212,#225,.T.);
#227=ORIENTED_EDGE('',*,*,#226,.F.);
#228=CARTESIAN_POINT('',(669.902668193,822.605993429,93.537743572));
#229=VERTEX_POINT('',#228);
#230=CARTESIAN_POINT('',(674.837995526,814.057755735,93.537743572));
#231=DIRECTION('',(-0.5,0.866025404,0.));
#232=VECTOR('',#231,9.870654667);
#233=LINE('',#230,#232);
#234=EDGE_CURVE('',#220,#229,#233,.T.);
#235=ORIENTED_EDGE('',*,*,#234,.T.);
#236=CARTESIAN_POINT('',(677.108686159,835.087182667,93.537743572));
#237=VERTEX_POINT('',#236);
#238=CARTESIAN_POINT('',(669.902668193,822.605993429,93.537743572));
#239=DIRECTION('',(0.5,0.866025404,0.));
#240=VECTOR('',#239,14.412035932);
#241=LINE('',#238,#240);
#242=EDGE_CURVE('',#229,#237,#241,.T.);
#243=ORIENTED_EDGE('',*,*,#242,.T.);
#244=CARTESIAN_POINT('',(677.108686159,835.087182667,93.537743572));
#245=DIRECTION('',(1.,-0.,-0.));
#246=VECTOR('',#245,9.870654668);
#247=LINE('',#244,#246);
#248=EDGE_CURVE('',#237,#186,#247,.T.);
#249=ORIENTED_EDGE('',*,*,#248,.T.);
#250=EDGE_LOOP('',(#193,#194,#202,#210,#218,#227,#235,#243,#249));
#251=FACE_BOUND('',#250,.T.);
#252=ORIENTED_EDGE('',*,*,#103,.T.);
#253=EDGE_LOOP('',(#252));
#254=FACE_BOUND('',#253,.T.);
#255=CARTESIAN_POINT('',(675.95398562,808.12480419,93.537743572));
#256=VERTEX_POINT('',#255);
#257=CARTESIAN_POINT('',(667.593267117,822.605993429,93.537743572));
#258=VERTEX_POINT('',#257);
#259=CARTESIAN_POINT('',(675.95398562,808.12480419,93.537743572));
#260=DIRECTION('',(-0.5,0.866025404,0.));
#261=VECTOR('',#260,16.721437009);
#262=LINE('',#259,#261);
#263=EDGE_CURVE('',#256,#258,#262,.T.);
#264=ORIENTED_EDGE('',*,*,#263,.F.);
#265=CARTESIAN_POINT('',(692.67542263,808.124804191,93.537743572));
#266=VERTEX_POINT('',#265);
#267=CARTESIAN_POINT('',(692.67542263,808.124804191,93.537743572));
#268=DIRECTION('',(-1.,-0.,0.));
#269=VECTOR('',#268,16.721437011);
#270=LINE('',#267,#269);
#271=EDGE_CURVE('',#266,#256,#270,.T.);
#272=ORIENTED_EDGE('',*,*,#271,.F.);
#273=CARTESIAN_POINT('',(701.036141133,822.605993429,93.537743572));
#274=VERTEX_POINT('',#273);
#275=CARTESIAN_POINT('',(701.036141133,822.605993429,93.537743572));
#276=DIRECTION('',(-0.5,-0.866025404,-0.));
#277=VECTOR('',#276,16.721437009);
#278=LINE('',#275,#277);
#279=EDGE_CURVE('',#274,#266,#278,.T.);
#280=ORIENTED_EDGE('',*,*,#279,.F.);
#281=CARTESIAN_POINT('',(692.675422631,837.087182667,93.537743572));
#282=VERTEX_POINT('',#281);
#283=CARTESIAN_POINT('',(692.675422631,837.087182667,93.537743572));
#284=DIRECTION('',(0.5,-0.866025404,-0.));
#285=VECTOR('',#284,16.721437009);
#286=LINE('',#283,#285);
#287=EDGE_CURVE('',#282,#274,#286,.T.);
#288=ORIENTED_EDGE('',*,*,#287,.F.);
#289=CARTESIAN_POINT('',(675.95398562,837.087182667,93.537743572));
#290=VERTEX_POINT('',#289);
#291=CARTESIAN_POINT('',(675.95398562,837.087182667,93.537743572));
#292=DIRECTION('',(1.,-0.,-0.));
#293=VECTOR('',#292,16.72143701);
#294=LINE('',#291,#293);
#295=EDGE_CURVE('',#290,#282,#294,.T.);
#296=ORIENTED_EDGE('',*,*,#295,.F.);
#297=CARTESIAN_POINT('',(667.593267117,822.605993429,93.537743572));
#298=DIRECTION('',(0.5,0.866025404,0.));
#299=VECTOR('',#298,16.721437009);
#300=LINE('',#297,#299);
#301=EDGE_CURVE('',#258,#290,#300,.T.);
#302=ORIENTED_EDGE('',*,*,#301,.F.);
#303=EDGE_LOOP('',(#264,#272,#280,#288,#296,#302));
#304=FACE_BOUND('',#303,.T.);
#305=CARTESIAN_POINT('',(676.608686159,812.722880403,93.537743572));
#306=VERTEX_POINT('',#305);
#307=CARTESIAN_POINT('',(678.608686159,812.722880403,93.537743572));
#308=DIRECTION('',(-0.,0.,-1.));
#309=DIRECTION('',(-1.,0.,0.));
#310=AXIS2_PLACEMENT_3D('',#307,#308,#309);
#311=CIRCLE('',#310,2.);
#312=EDGE_CURVE('',#306,#306,#311,.T.);
#313=ORIENTED_EDGE('',*,*,#312,.T.);
#314=EDGE_LOOP('',(#313));
#315=FACE_BOUND('',#314,.T.);
#316=ADVANCED_FACE('',(#251,#254,#304,#315),#184,.F.);
#317=CARTESIAN_POINT('',(667.204900187,841.382486433,86.243761538));
#318=DIRECTION('',(0.353553391,0.612372436,0.707106781));
#319=DIRECTION('',(0.,-0.755928946,0.654653671));
#320=AXIS2_PLACEMENT_3D('',#317,#318,#319);
#321=PLANE('',#320);
#322=ORIENTED_EDGE('',*,*,#118,.T.);
#323=ORIENTED_EDGE('',*,*,#124,.T.);
#324=EDGE_LOOP('',(#322,#323));
#325=FACE_BOUND('',#324,.T.);
#326=CARTESIAN_POINT('',(686.979340828,835.087182667,81.808434193));
#327=VERTEX_POINT('',#326);
#328=CARTESIAN_POINT('',(686.979340827,835.087182665,81.808434195));
#329=CARTESIAN_POINT('',(686.020722089,833.964996546,83.259585252));
#330=CARTESIAN_POINT('',(686.020722089,832.489106452,84.537743568));
#331=(BOUNDED_CURVE()
B_SPLINE_CURVE(2,(#328,#329,#330),.UNSPECIFIED.,.F.,.F.)
B_SPLINE_CURVE_WITH_KNOTS((3,3),(0.000000015,40.397957986),.UNSPECIFIED.)
CURVE()
GEOMETRIC_REPRESENTATION_ITEM()
RATIONAL_B_SPLINE_CURVE((0.89729372,0.888691959,1.))
REPRESENTATION_ITEM(''));
#332=EDGE_CURVE('',#327,#137,#331,.T.);
#333=ORIENTED_EDGE('',*,*,#332,.F.);
#334=CARTESIAN_POINT('',(691.520722091,835.087182667,79.537743558));
#335=VERTEX_POINT('',#334);
#336=CARTESIAN_POINT('',(686.979340828,835.087182667,81.808434193));
#337=DIRECTION('',(0.894427191,0.,-0.447213596));
#338=VECTOR('',#337,5.07741861);
#339=LINE('',#336,#338);
#340=EDGE_CURVE('',#327,#335,#339,.T.);
#341=ORIENTED_EDGE('',*,*,#340,.T.);
#342=CARTESIAN_POINT('',(691.520722092,835.087182667,79.537743558));
#343=DIRECTION('',(0.447213595,-0.774596669,0.447213596));
#344=VECTOR('',#343,5.07741861);
#345=LINE('',#342,#344);
#346=EDGE_CURVE('',#335,#153,#345,.T.);
#347=ORIENTED_EDGE('',*,*,#346,.T.);
#348=ORIENTED_EDGE('',*,*,#160,.F.);
#349=ORIENTED_EDGE('',*,*,#150,.F.);
#350=EDGE_LOOP('',(#333,#341,#347,#348,#349));
#351=FACE_BOUND('',#350,.T.);
#352=ADVANCED_FACE('',(#325,#351),#321,.F.);
#353=CARTESIAN_POINT('',(684.314704125,822.605993429,9.437743572));
#354=DIRECTION('',(0.,-0.,1.));
#355=DIRECTION('',(-1.,0.,0.));
#356=AXIS2_PLACEMENT_3D('',#353,#354,#355);
#357=PLANE('',#356);
#358=CARTESIAN_POINT('',(707.005303048,861.907263618,9.437743572));
#359=VERTEX_POINT('',#358);
#360=CARTESIAN_POINT('',(661.624105204,861.907263617,9.437743571));
#361=VERTEX_POINT('',#360);
#362=CARTESIAN_POINT('',(707.005303048,861.907263618,9.437743572));
#363=DIRECTION('',(-1.,0.,0.));
#364=VECTOR('',#363,45.381197845);
#365=LINE('',#362,#364);
#366=EDGE_CURVE('',#359,#361,#365,.T.);
#367=ORIENTED_EDGE('',*,*,#366,.T.);
#368=CARTESIAN_POINT('',(638.933506278,822.60599343,9.437743572));
#369=VERTEX_POINT('',#368);
#370=CARTESIAN_POINT('',(661.624105202,861.907263618,9.437743572));
#371=DIRECTION('',(-0.5,-0.866025404,-0.));
#372=VECTOR('',#371,45.381197846);
#373=LINE('',#370,#372);
#374=EDGE_CURVE('',#361,#369,#373,.T.);
#375=ORIENTED_EDGE('',*,*,#374,.T.);
#376=CARTESIAN_POINT('',(661.624105204,783.30472324,9.437743571));
#377=VERTEX_POINT('',#376);
#378=CARTESIAN_POINT('',(638.933506278,822.60599343,9.437743572));
#379=DIRECTION('',(0.5,-0.866025404,-0.));
#380=VECTOR('',#379,45.381197848);
#381=LINE('',#378,#380);
#382=EDGE_CURVE('',#369,#377,#381,.T.);
#383=ORIENTED_EDGE('',*,*,#382,.T.);
#384=CARTESIAN_POINT('',(707.005303048,783.30472324,9.437743572));
#385=VERTEX_POINT('',#384);
#386=CARTESIAN_POINT('',(661.624105204,783.30472324,9.437743572));
#387=DIRECTION('',(1.,-0.,-0.));
#388=VECTOR('',#387,45.381197845);
#389=LINE('',#386,#388);
#390=EDGE_CURVE('',#377,#385,#389,.T.);
#391=ORIENTED_EDGE('',*,*,#390,.T.);
#392=CARTESIAN_POINT('',(729.695901973,822.60599343,9.437743572));
#393=VERTEX_POINT('',#392);
#394=CARTESIAN_POINT('',(707.005303048,783.30472324,9.437743572));
#395=DIRECTION('',(0.5,0.866025404,0.));
#396=VECTOR('',#395,45.381197848);
#397=LINE('',#394,#396);
#398=EDGE_CURVE('',#385,#393,#397,.T.);
#399=ORIENTED_EDGE('',*,*,#398,.T.);
#400=CARTESIAN_POINT('',(729.695901972,822.605993429,9.437743572));
#401=DIRECTION('',(-0.5,0.866025404,0.));
#402=VECTOR('',#401,45.381197846);
#403=LINE('',#400,#402);
#404=EDGE_CURVE('',#393,#359,#403,.T.);
#405=ORIENTED_EDGE('',*,*,#404,.T.);
#406=EDGE_LOOP('',(#367,#375,#383,#391,#399,#405));
#407=FACE_BOUND('',#406,.T.);
#408=CARTESIAN_POINT('',(692.67542263,808.124804191,9.437743572));
#409=VERTEX_POINT('',#408);
#410=CARTESIAN_POINT('',(675.95398562,808.124804191,9.437743572));
#411=VERTEX_POINT('',#410);
#412=CARTESIAN_POINT('',(692.67542263,808.124804191,9.437743572));
#413=DIRECTION('',(-1.,0.,0.));
#414=VECTOR('',#413,16.72143701);
#415=LINE('',#412,#414);
#416=EDGE_CURVE('',#409,#411,#415,.T.);
#417=ORIENTED_EDGE('',*,*,#416,.T.);
#418=CARTESIAN_POINT('',(667.593267116,822.605993429,9.437743572));
#419=VERTEX_POINT('',#418);
#420=CARTESIAN_POINT('',(675.953985621,808.124804191,9.437743572));
#421=DIRECTION('',(-0.5,0.866025404,0.));
#422=VECTOR('',#421,16.721437009);
#423=LINE('',#420,#422);
#424=EDGE_CURVE('',#411,#419,#423,.T.);
#425=ORIENTED_EDGE('',*,*,#424,.T.);
#426=CARTESIAN_POINT('',(675.953985621,837.087182667,9.437743572));
#427=VERTEX_POINT('',#426);
#428=CARTESIAN_POINT('',(667.593267116,822.605993429,9.437743572));
#429=DIRECTION('',(0.5,0.866025404,0.));
#430=VECTOR('',#429,16.72143701);
#431=LINE('',#428,#430);
#432=EDGE_CURVE('',#419,#427,#431,.T.);
#433=ORIENTED_EDGE('',*,*,#432,.T.);
#434=CARTESIAN_POINT('',(692.67542263,837.087182667,9.437743572));
#435=VERTEX_POINT('',#434);
#436=CARTESIAN_POINT('',(675.953985621,837.087182667,9.437743572));
#437=DIRECTION('',(1.,-0.,-0.));
#438=VECTOR('',#437,16.721437009);
#439=LINE('',#436,#438);
#440=EDGE_CURVE('',#427,#435,#439,.T.);
#441=ORIENTED_EDGE('',*,*,#440,.T.);
#442=CARTESIAN_POINT('',(701.036141134,822.605993429,9.437743572));
#443=VERTEX_POINT('',#442);
#444=CARTESIAN_POINT('',(692.67542263,837.087182667,9.437743572));
#445=DIRECTION('',(0.5,-0.866025404,-0.));
#446=VECTOR('',#445,16.721437009);
#447=LINE('',#444,#446);
#448=EDGE_CURVE('',#435,#443,#447,.T.);
#449=ORIENTED_EDGE('',*,*,#448,.T.);
#450=CARTESIAN_POINT('',(701.036141134,822.605993429,9.437743572));
#451=DIRECTION('',(-0.5,-0.866025404,-0.));
#452=VECTOR('',#451,16.721437009);
#453=LINE('',#450,#452);
#454=EDGE_CURVE('',#443,#409,#453,.T.);
#455=ORIENTED_EDGE('',*,*,#454,.T.);
#456=EDGE_LOOP('',(#417,#425,#433,#441,#449,#455));
#457=FACE_BOUND('',#456,.T.);
#458=ADVANCED_FACE('',(#407,#457),#357,.T.);
#459=CARTESIAN_POINT('',(684.314704125,822.605993429,1.437743572));
#460=DIRECTION('',(0.,-0.,1.));
#461=DIRECTION('',(-1.,0.,0.));
#462=AXIS2_PLACEMENT_3D('',#459,#460,#461);
#463=PLANE('',#462);
#464=CARTESIAN_POINT('',(658.448678719,864.407263619,1.437743572));
#465=VERTEX_POINT('',#464);
#466=CARTESIAN_POINT('',(635.180729531,824.105993427,1.437743572));
#467=VERTEX_POINT('',#466);
#468=CARTESIAN_POINT('',(658.448678719,864.407263619,1.437743572));
#469=DIRECTION('',(-0.5,-0.866025404,-0.));
#470=VECTOR('',#469,46.535898385);
#471=LINE('',#468,#470);
#472=EDGE_CURVE('',#465,#467,#471,.T.);
#473=ORIENTED_EDGE('',*,*,#472,.F.);
#474=CARTESIAN_POINT('',(661.046754933,865.907263618,1.437743572));
#475=VERTEX_POINT('',#474);
#476=CARTESIAN_POINT('',(661.046754933,862.907263618,1.437743572));
#477=DIRECTION('',(-0.,0.,-1.));
#478=DIRECTION('',(-1.,0.,0.));
#479=AXIS2_PLACEMENT_3D('',#476,#477,#478);
#480=CIRCLE('',#479,3.);
#481=EDGE_CURVE('',#465,#475,#480,.T.);
#482=ORIENTED_EDGE('',*,*,#481,.T.);
#483=CARTESIAN_POINT('',(707.582653318,865.907263618,1.437743572));
#484=VERTEX_POINT('',#483);
#485=CARTESIAN_POINT('',(707.582653318,865.907263618,1.437743572));
#486=DIRECTION('',(-1.,0.,0.));
#487=VECTOR('',#486,46.535898385);
#488=LINE('',#485,#487);
#489=EDGE_CURVE('',#484,#475,#488,.T.);
#490=ORIENTED_EDGE('',*,*,#489,.F.);
#491=CARTESIAN_POINT('',(710.180729531,864.407263619,1.437743572));
#492=VERTEX_POINT('',#491);
#493=CARTESIAN_POINT('',(707.582653318,862.907263618,1.437743572));
#494=DIRECTION('',(-0.,0.,-1.));
#495=DIRECTION('',(-1.,0.,0.));
#496=AXIS2_PLACEMENT_3D('',#493,#494,#495);
#497=CIRCLE('',#496,3.);
#498=EDGE_CURVE('',#484,#492,#497,.T.);
#499=ORIENTED_EDGE('',*,*,#498,.T.);
#500=CARTESIAN_POINT('',(733.448678719,824.105993427,1.437743572));
#501=VERTEX_POINT('',#500);
#502=CARTESIAN_POINT('',(733.448678719,824.105993427,1.437743572));
#503=DIRECTION('',(-0.5,0.866025404,0.));
#504=VECTOR('',#503,46.535898384);
#505=LINE('',#502,#504);
#506=EDGE_CURVE('',#501,#492,#505,.T.);
#507=ORIENTED_EDGE('',*,*,#506,.F.);
#508=CARTESIAN_POINT('',(733.448678719,821.10599343,1.437743572));
#509=VERTEX_POINT('',#508);
#510=CARTESIAN_POINT('',(730.85060251,822.605993429,1.437743572));
#511=DIRECTION('',(-0.,0.,-1.));
#512=DIRECTION('',(-1.,0.,0.));
#513=AXIS2_PLACEMENT_3D('',#510,#511,#512);
#514=CIRCLE('',#513,3.);
#515=EDGE_CURVE('',#501,#509,#514,.T.);
#516=ORIENTED_EDGE('',*,*,#515,.T.);
#517=CARTESIAN_POINT('',(710.180729531,780.804723239,1.437743572));
#518=VERTEX_POINT('',#517);
#519=CARTESIAN_POINT('',(710.180729531,780.804723239,1.437743572));
#520=DIRECTION('',(0.5,0.866025404,0.));
#521=VECTOR('',#520,46.535898384);
#522=LINE('',#519,#521);
#523=EDGE_CURVE('',#518,#509,#522,.T.);
#524=ORIENTED_EDGE('',*,*,#523,.F.);
#525=CARTESIAN_POINT('',(707.582653318,779.30472324,1.437743572));
#526=VERTEX_POINT('',#525);
#527=CARTESIAN_POINT('',(707.582653318,782.30472324,1.437743572));
#528=DIRECTION('',(-0.,0.,-1.));
#529=DIRECTION('',(-1.,0.,0.));
#530=AXIS2_PLACEMENT_3D('',#527,#528,#529);
#531=CIRCLE('',#530,3.);
#532=EDGE_CURVE('',#518,#526,#531,.T.);
#533=ORIENTED_EDGE('',*,*,#532,.T.);
#534=CARTESIAN_POINT('',(661.046754933,779.30472324,1.437743572));
#535=VERTEX_POINT('',#534);
#536=CARTESIAN_POINT('',(661.046754933,779.30472324,1.437743572));
#537=DIRECTION('',(1.,0.,-0.));
#538=VECTOR('',#537,46.535898385);
#539=LINE('',#536,#538);
#540=EDGE_CURVE('',#535,#526,#539,.T.);
#541=ORIENTED_EDGE('',*,*,#540,.F.);
#542=CARTESIAN_POINT('',(658.448678719,780.804723238,1.437743572));
#543=VERTEX_POINT('',#542);
#544=CARTESIAN_POINT('',(661.046754933,782.30472324,1.437743572));
#545=DIRECTION('',(-0.,0.,-1.));
#546=DIRECTION('',(-1.,0.,0.));
#547=AXIS2_PLACEMENT_3D('',#544,#545,#546);
#548=CIRCLE('',#547,3.);
#549=EDGE_CURVE('',#535,#543,#548,.T.);
#550=ORIENTED_EDGE('',*,*,#549,.T.);
#551=CARTESIAN_POINT('',(635.180729531,821.10599343,1.437743572));
#552=VERTEX_POINT('',#551);
#553=CARTESIAN_POINT('',(635.180729531,821.10599343,1.437743572));
#554=DIRECTION('',(0.5,-0.866025404,-0.));
#555=VECTOR('',#554,46.535898385);
#556=LINE('',#553,#555);
#557=EDGE_CURVE('',#552,#543,#556,.T.);
#558=ORIENTED_EDGE('',*,*,#557,.F.);
#559=CARTESIAN_POINT('',(634.77880574,822.605993429,1.437743572));
#560=VERTEX_POINT('',#559);
#561=CARTESIAN_POINT('',(637.77880574,822.605993429,1.437743572));
#562=DIRECTION('',(-0.,0.,-1.));
#563=DIRECTION('',(-1.,0.,0.));
#564=AXIS2_PLACEMENT_3D('',#561,#562,#563);
#565=CIRCLE('',#564,3.);
#566=EDGE_CURVE('',#552,#560,#565,.T.);
#567=ORIENTED_EDGE('',*,*,#566,.T.);
#568=CARTESIAN_POINT('',(637.77880574,822.605993429,1.437743572));
#569=DIRECTION('',(-0.,0.,-1.));
#570=DIRECTION('',(-1.,0.,0.));
#571=AXIS2_PLACEMENT_3D('',#568,#569,#570);
#572=CIRCLE('',#571,3.);
#573=EDGE_CURVE('',#560,#467,#572,.T.);
#574=ORIENTED_EDGE('',*,*,#573,.T.);
#575=EDGE_LOOP('',(#473,#482,#490,#499,#507,#516,#524,#533,#541,#550,#558,#567,#574));
#576=FACE_BOUND('',#575,.T.);
#577=CARTESIAN_POINT('',(677.108686159,810.124804191,1.437743572));
#578=VERTEX_POINT('',#577);
#579=CARTESIAN_POINT('',(669.902668194,822.605993429,1.437743572));
#580=VERTEX_POINT('',#579);
#581=CARTESIAN_POINT('',(677.108686158,810.124804191,1.437743572));
#582=DIRECTION('',(-0.5,0.866025404,0.));
#583=VECTOR('',#582,14.412035932);
#584=LINE('',#581,#583);
#585=EDGE_CURVE('',#578,#580,#584,.T.);
#586=ORIENTED_EDGE('',*,*,#585,.F.);
#587=CARTESIAN_POINT('',(691.520722092,810.124804191,1.437743572));
#588=VERTEX_POINT('',#587);
#589=CARTESIAN_POINT('',(691.520722092,810.124804191,1.437743572));
#590=DIRECTION('',(-1.,-0.,0.));
#591=VECTOR('',#590,14.412035933);
#592=LINE('',#589,#591);
#593=EDGE_CURVE('',#588,#578,#592,.T.);
#594=ORIENTED_EDGE('',*,*,#593,.F.);
#595=CARTESIAN_POINT('',(698.726740057,822.605993428,1.437743572));
#596=VERTEX_POINT('',#595);
#597=CARTESIAN_POINT('',(698.726740056,822.605993429,1.437743572));
#598=DIRECTION('',(-0.5,-0.866025404,-0.));
#599=VECTOR('',#598,14.412035932);
#600=LINE('',#597,#599);
#601=EDGE_CURVE('',#596,#588,#600,.T.);
#602=ORIENTED_EDGE('',*,*,#601,.F.);
#603=CARTESIAN_POINT('',(691.520722091,835.087182667,1.437743572));
#604=VERTEX_POINT('',#603);
#605=CARTESIAN_POINT('',(691.520722092,835.087182667,1.437743572));
#606=DIRECTION('',(0.5,-0.866025404,-0.));
#607=VECTOR('',#606,14.412035932);
#608=LINE('',#605,#607);
#609=EDGE_CURVE('',#604,#596,#608,.T.);
#610=ORIENTED_EDGE('',*,*,#609,.F.);
#611=CARTESIAN_POINT('',(677.108686158,835.087182667,1.437743572));
#612=VERTEX_POINT('',#611);
#613=CARTESIAN_POINT('',(677.108686158,835.087182667,1.437743572));
#614=DIRECTION('',(1.,-0.,-0.));
#615=VECTOR('',#614,14.412035933);
#616=LINE('',#613,#615);
#617=EDGE_CURVE('',#612,#604,#616,.T.);
#618=ORIENTED_EDGE('',*,*,#617,.F.);
#619=CARTESIAN_POINT('',(669.902668194,822.605993429,1.437743572));
#620=DIRECTION('',(0.5,0.866025404,0.));
#621=VECTOR('',#620,14.412035932);
#622=LINE('',#619,#621);
#623=EDGE_CURVE('',#580,#612,#622,.T.);
#624=ORIENTED_EDGE('',*,*,#623,.F.);
#625=EDGE_LOOP('',(#586,#594,#602,#610,#618,#624));
#626=FACE_BOUND('',#625,.T.);
#627=ADVANCED_FACE('',(#576,#626),#463,.F.);
#628=CARTESIAN_POINT('',(646.814704125,844.256628524,1.437743572));
#629=DIRECTION('',(-0.866025404,0.5,0.));
#630=DIRECTION('',(-0.5,-0.866025404,-0.));
#631=AXIS2_PLACEMENT_3D('',#628,#629,#630);
#632=PLANE('',#631);
#633=CARTESIAN_POINT('',(635.180729529,824.105993429,5.437743572));
#634=VERTEX_POINT('',#633);
#635=CARTESIAN_POINT('',(635.180729531,824.105993428,1.437743572));
#636=DIRECTION('',(0.,-0.,1.));
#637=VECTOR('',#636,4.000000001);
#638=LINE('',#635,#637);
#639=EDGE_CURVE('',#467,#634,#638,.T.);
#640=ORIENTED_EDGE('',*,*,#639,.T.);
#641=CARTESIAN_POINT('',(658.448678722,864.407263617,5.437743569));
#642=VERTEX_POINT('',#641);
#643=CARTESIAN_POINT('',(635.180729531,824.105993428,5.437743572));
#644=DIRECTION('',(0.5,0.866025404,0.));
#645=VECTOR('',#644,46.535898384);
#646=LINE('',#643,#645);
#647=EDGE_CURVE('',#634,#642,#646,.T.);
#648=ORIENTED_EDGE('',*,*,#647,.T.);
#649=CARTESIAN_POINT('',(658.448678719,864.407263619,5.437743569));
#650=DIRECTION('',(-0.,0.,-1.));
#651=VECTOR('',#650,3.999999998);
#652=LINE('',#649,#651);
#653=EDGE_CURVE('',#642,#465,#652,.T.);
#654=ORIENTED_EDGE('',*,*,#653,.T.);
#655=ORIENTED_EDGE('',*,*,#472,.T.);
#656=EDGE_LOOP('',(#640,#648,#654,#655));
#657=FACE_BOUND('',#656,.T.);
#658=ADVANCED_FACE('',(#657),#632,.T.);
#659=CARTESIAN_POINT('',(646.814704125,800.955358334,1.437743572));
#660=DIRECTION('',(-0.866025404,-0.5,-0.));
#661=DIRECTION('',(0.5,-0.866025404,-0.));
#662=AXIS2_PLACEMENT_3D('',#659,#660,#661);
#663=PLANE('',#662);
#664=CARTESIAN_POINT('',(658.448678722,780.80472324,5.437743569));
#665=VERTEX_POINT('',#664);
#666=CARTESIAN_POINT('',(658.448678719,780.804723238,1.437743572));
#667=DIRECTION('',(0.,-0.,1.));
#668=VECTOR('',#667,3.999999998);
#669=LINE('',#666,#668);
#670=EDGE_CURVE('',#543,#665,#669,.T.);
#671=ORIENTED_EDGE('',*,*,#670,.T.);
#672=CARTESIAN_POINT('',(635.180729529,821.105993429,5.437743572));
#673=VERTEX_POINT('',#672);
#674=CARTESIAN_POINT('',(658.448678719,780.804723238,5.437743572));
#675=DIRECTION('',(-0.5,0.866025404,0.));
#676=VECTOR('',#675,46.535898384);
#677=LINE('',#674,#676);
#678=EDGE_CURVE('',#665,#673,#677,.T.);
#679=ORIENTED_EDGE('',*,*,#678,.T.);
#680=CARTESIAN_POINT('',(635.180729531,821.10599343,5.437743572));
#681=DIRECTION('',(-0.,0.,-1.));
#682=VECTOR('',#681,4.000000001);
#683=LINE('',#680,#682);
#684=EDGE_CURVE('',#673,#552,#683,.T.);
#685=ORIENTED_EDGE('',*,*,#684,.T.);
#686=ORIENTED_EDGE('',*,*,#557,.T.);
#687=EDGE_LOOP('',(#671,#679,#685,#686));
#688=FACE_BOUND('',#687,.T.);
#689=ADVANCED_FACE('',(#688),#663,.T.);
#690=CARTESIAN_POINT('',(684.314704125,779.30472324,1.437743572));
#691=DIRECTION('',(0.,-1.,-0.));
#692=DIRECTION('',(1.,0.,0.));
#693=AXIS2_PLACEMENT_3D('',#690,#691,#692);
#694=PLANE('',#693);
#695=CARTESIAN_POINT('',(707.582653318,779.30472324,5.437743572));
#696=VERTEX_POINT('',#695);
#697=CARTESIAN_POINT('',(707.582653318,779.30472324,1.437743572));
#698=DIRECTION('',(0.,-0.,1.));
#699=VECTOR('',#698,4.);
#700=LINE('',#697,#699);
#701=EDGE_CURVE('',#526,#696,#700,.T.);
#702=ORIENTED_EDGE('',*,*,#701,.T.);
#703=CARTESIAN_POINT('',(661.046754933,779.30472324,5.437743572));
#704=VERTEX_POINT('',#703);
#705=CARTESIAN_POINT('',(707.582653318,779.30472324,5.437743572));
#706=DIRECTION('',(-1.,-0.,0.));
#707=VECTOR('',#706,46.535898385);
#708=LINE('',#705,#707);
#709=EDGE_CURVE('',#696,#704,#708,.T.);
#710=ORIENTED_EDGE('',*,*,#709,.T.);
#711=CARTESIAN_POINT('',(661.046754933,779.30472324,5.437743572));
#712=DIRECTION('',(-0.,0.,-1.));
#713=VECTOR('',#712,4.);
#714=LINE('',#711,#713);
#715=EDGE_CURVE('',#704,#535,#714,.T.);
#716=ORIENTED_EDGE('',*,*,#715,.T.);
#717=ORIENTED_EDGE('',*,*,#540,.T.);
#718=EDGE_LOOP('',(#702,#710,#716,#717));
#719=FACE_BOUND('',#718,.T.);
#720=ADVANCED_FACE('',(#719),#694,.T.);
#721=CARTESIAN_POINT('',(721.814704125,800.955358334,1.437743572));
#722=DIRECTION('',(0.866025404,-0.5,-0.));
#723=DIRECTION('',(0.5,0.866025404,0.));
#724=AXIS2_PLACEMENT_3D('',#721,#722,#723);
#725=PLANE('',#724);
#726=CARTESIAN_POINT('',(733.448678721,821.105993429,5.437743572));
#727=VERTEX_POINT('',#726);
#728=CARTESIAN_POINT('',(733.448678719,821.10599343,1.437743572));
#729=DIRECTION('',(0.,-0.,1.));
#730=VECTOR('',#729,4.000000001);
#731=LINE('',#728,#730);
#732=EDGE_CURVE('',#509,#727,#731,.T.);
#733=ORIENTED_EDGE('',*,*,#732,.T.);
#734=CARTESIAN_POINT('',(710.180729528,780.80472324,5.437743569));
#735=VERTEX_POINT('',#734);
#736=CARTESIAN_POINT('',(733.448678719,821.10599343,5.437743572));
#737=DIRECTION('',(-0.5,-0.866025404,-0.));
#738=VECTOR('',#737,46.535898384);
#739=LINE('',#736,#738);
#740=EDGE_CURVE('',#727,#735,#739,.T.);
#741=ORIENTED_EDGE('',*,*,#740,.T.);
#742=CARTESIAN_POINT('',(710.180729531,780.804723238,5.437743569));
#743=DIRECTION('',(-0.,0.,-1.));
#744=VECTOR('',#743,3.999999997);
#745=LINE('',#742,#744);
#746=EDGE_CURVE('',#735,#518,#745,.T.);
#747=ORIENTED_EDGE('',*,*,#746,.T.);
#748=ORIENTED_EDGE('',*,*,#523,.T.);
#749=EDGE_LOOP('',(#733,#741,#747,#748));
#750=FACE_BOUND('',#749,.T.);
#751=ADVANCED_FACE('',(#750),#725,.T.);
#752=CARTESIAN_POINT('',(721.814704125,844.256628524,1.437743572));
#753=DIRECTION('',(0.866025404,0.5,0.));
#754=DIRECTION('',(-0.5,0.866025404,0.));
#755=AXIS2_PLACEMENT_3D('',#752,#753,#754);
#756=PLANE('',#755);
#757=CARTESIAN_POINT('',(710.180729528,864.407263617,5.437743569));
#758=VERTEX_POINT('',#757);
#759=CARTESIAN_POINT('',(710.180729531,864.407263619,1.437743572));
#760=DIRECTION('',(0.,-0.,1.));
#761=VECTOR('',#760,3.999999997);
#762=LINE('',#759,#761);
#763=EDGE_CURVE('',#492,#758,#762,.T.);
#764=ORIENTED_EDGE('',*,*,#763,.T.);
#765=CARTESIAN_POINT('',(733.448678721,824.105993429,5.437743572));
#766=VERTEX_POINT('',#765);
#767=CARTESIAN_POINT('',(710.180729531,864.407263619,5.437743572));
#768=DIRECTION('',(0.5,-0.866025404,-0.));
#769=VECTOR('',#768,46.535898384);
#770=LINE('',#767,#769);
#771=EDGE_CURVE('',#758,#766,#770,.T.);
#772=ORIENTED_EDGE('',*,*,#771,.T.);
#773=CARTESIAN_POINT('',(733.448678719,824.105993428,5.437743572));
#774=DIRECTION('',(-0.,0.,-1.));
#775=VECTOR('',#774,4.000000001);
#776=LINE('',#773,#775);
#777=EDGE_CURVE('',#766,#501,#776,.T.);
#778=ORIENTED_EDGE('',*,*,#777,.T.);
#779=ORIENTED_EDGE('',*,*,#506,.T.);
#780=EDGE_LOOP('',(#764,#772,#778,#779));
#781=FACE_BOUND('',#780,.T.);
#782=ADVANCED_FACE('',(#781),#756,.T.);
#783=CARTESIAN_POINT('',(684.314704125,865.907263618,1.437743572));
#784=DIRECTION('',(0.,1.,0.));
#785=DIRECTION('',(0.,0.,-1.));
#786=AXIS2_PLACEMENT_3D('',#783,#784,#785);
#787=PLANE('',#786);
#788=CARTESIAN_POINT('',(661.046754933,865.907263618,5.437743572));
#789=VERTEX_POINT('',#788);
#790=CARTESIAN_POINT('',(661.046754933,865.907263618,1.437743572));
#791=DIRECTION('',(-0.,-0.,1.));
#792=VECTOR('',#791,4.);
#793=LINE('',#790,#792);
#794=EDGE_CURVE('',#475,#789,#793,.T.);
#795=ORIENTED_EDGE('',*,*,#794,.T.);
#796=CARTESIAN_POINT('',(707.582653318,865.907263618,5.437743572));
#797=VERTEX_POINT('',#796);
#798=CARTESIAN_POINT('',(661.046754933,865.907263618,5.437743572));
#799=DIRECTION('',(1.,-0.,-0.));
#800=VECTOR('',#799,46.535898385);
#801=LINE('',#798,#800);
#802=EDGE_CURVE('',#789,#797,#801,.T.);
#803=ORIENTED_EDGE('',*,*,#802,.T.);
#804=CARTESIAN_POINT('',(707.582653318,865.907263618,5.437743572));
#805=DIRECTION('',(0.,0.,-1.));
#806=VECTOR('',#805,4.);
#807=LINE('',#804,#806);
#808=EDGE_CURVE('',#797,#484,#807,.T.);
#809=ORIENTED_EDGE('',*,*,#808,.T.);
#810=ORIENTED_EDGE('',*,*,#489,.T.);
#811=EDGE_LOOP('',(#795,#803,#809,#810));
#812=FACE_BOUND('',#811,.T.);
#813=ADVANCED_FACE('',(#812),#787,.T.);
#814=CARTESIAN_POINT('',(661.046754933,862.907263618,1.437743572));
#815=DIRECTION('',(0.,-0.,1.));
#816=DIRECTION('',(-1.,0.,0.));
#817=AXIS2_PLACEMENT_3D('',#814,#815,#816);
#818=CYLINDRICAL_SURFACE('',#817,3.);
#819=ORIENTED_EDGE('',*,*,#653,.F.);
#820=CARTESIAN_POINT('',(659.546754935,865.505339828,5.839667358));
#821=VERTEX_POINT('',#820);
#822=CARTESIAN_POINT('',(658.448678726,864.407263615,5.437743567));
#823=CARTESIAN_POINT('',(658.850602514,865.103416038,5.437743567));
#824=CARTESIAN_POINT('',(659.546754937,865.505339827,5.839667356));
#825=(BOUNDED_CURVE()
B_SPLINE_CURVE(2,(#822,#823,#824),.UNSPECIFIED.,.F.,.F.)
B_SPLINE_CURVE_WITH_KNOTS((3,3),(179.999999978,209.999999983),.UNSPECIFIED.)
CURVE()
GEOMETRIC_REPRESENTATION_ITEM()
RATIONAL_B_SPLINE_CURVE((1.,0.965925826,1.))
REPRESENTATION_ITEM(''));
#826=EDGE_CURVE('',#642,#821,#825,.T.);
#827=ORIENTED_EDGE('',*,*,#826,.T.);
#828=CARTESIAN_POINT('',(659.546754933,865.505339829,5.839667361));
#829=CARTESIAN_POINT('',(660.242907356,865.907263618,5.437743572));
#830=CARTESIAN_POINT('',(661.046754933,865.907263618,5.437743572));
#831=(BOUNDED_CURVE()
B_SPLINE_CURVE(2,(#828,#829,#830),.UNSPECIFIED.,.F.,.F.)
B_SPLINE_CURVE_WITH_KNOTS((3,3),(149.999999997,180.),.UNSPECIFIED.)
CURVE()
GEOMETRIC_REPRESENTATION_ITEM()
RATIONAL_B_SPLINE_CURVE((1.,0.965925826,1.))
REPRESENTATION_ITEM(''));
#832=EDGE_CURVE('',#821,#789,#831,.T.);
#833=ORIENTED_EDGE('',*,*,#832,.T.);
#834=ORIENTED_EDGE('',*,*,#794,.F.);
#835=ORIENTED_EDGE('',*,*,#481,.F.);
#836=EDGE_LOOP('',(#819,#827,#833,#834,#835));
#837=FACE_BOUND('',#836,.T.);
#838=ADVANCED_FACE('',(#837),#818,.T.);
#839=CARTESIAN_POINT('',(637.77880574,822.605993429,1.437743572));
#840=DIRECTION('',(0.,-0.,1.));
#841=DIRECTION('',(-1.,0.,0.));
#842=AXIS2_PLACEMENT_3D('',#839,#840,#841);
#843=CYLINDRICAL_SURFACE('',#842,3.);
#844=CARTESIAN_POINT('',(634.778805739,822.605993429,5.839667363));
#845=VERTEX_POINT('',#844);
#846=CARTESIAN_POINT('',(634.77880574,822.605993429,5.839667363));
#847=DIRECTION('',(-0.,0.,-1.));
#848=VECTOR('',#847,4.401923792);
#849=LINE('',#846,#848);
#850=EDGE_CURVE('',#845,#560,#849,.T.);
#851=ORIENTED_EDGE('',*,*,#850,.T.);
#852=ORIENTED_EDGE('',*,*,#566,.F.);
#853=ORIENTED_EDGE('',*,*,#684,.F.);
#854=CARTESIAN_POINT('',(635.180729528,821.105993428,5.437743573));
#855=CARTESIAN_POINT('',(634.778805739,821.802145851,5.437743573));
#856=CARTESIAN_POINT('',(634.778805739,822.605993428,5.839667362));
#857=(BOUNDED_CURVE()
B_SPLINE_CURVE(2,(#854,#855,#856),.UNSPECIFIED.,.F.,.F.)
B_SPLINE_CURVE_WITH_KNOTS((3,3),(180.000000013,210.000000015),.UNSPECIFIED.)
CURVE()
GEOMETRIC_REPRESENTATION_ITEM()
RATIONAL_B_SPLINE_CURVE((1.,0.965925826,1.))
REPRESENTATION_ITEM(''));
#858=EDGE_CURVE('',#673,#845,#857,.T.);
#859=ORIENTED_EDGE('',*,*,#858,.T.);
#860=EDGE_LOOP('',(#851,#852,#853,#859));
#861=FACE_BOUND('',#860,.T.);
#862=ADVANCED_FACE('',(#861),#843,.T.);
#863=CARTESIAN_POINT('',(707.582653318,862.907263618,1.437743572));
#864=DIRECTION('',(0.,-0.,1.));
#865=DIRECTION('',(-1.,0.,0.));
#866=AXIS2_PLACEMENT_3D('',#863,#864,#865);
#867=CYLINDRICAL_SURFACE('',#866,3.);
#868=ORIENTED_EDGE('',*,*,#808,.F.);
#869=CARTESIAN_POINT('',(709.082653316,865.505339828,5.839667358));
#870=VERTEX_POINT('',#869);
#871=CARTESIAN_POINT('',(707.582653318,865.907263618,5.437743572));
#872=CARTESIAN_POINT('',(708.386500895,865.907263618,5.437743572));
#873=CARTESIAN_POINT('',(709.082653318,865.505339829,5.839667361));
#874=(BOUNDED_CURVE()
B_SPLINE_CURVE(2,(#871,#872,#873),.UNSPECIFIED.,.F.,.F.)
B_SPLINE_CURVE_WITH_KNOTS((3,3),(180.,210.000000003),.UNSPECIFIED.)
CURVE()
GEOMETRIC_REPRESENTATION_ITEM()
RATIONAL_B_SPLINE_CURVE((1.,0.965925826,1.))
REPRESENTATION_ITEM(''));
#875=EDGE_CURVE('',#797,#870,#874,.T.);
#876=ORIENTED_EDGE('',*,*,#875,.T.);
#877=CARTESIAN_POINT('',(709.082653314,865.505339826,5.839667355));
#878=CARTESIAN_POINT('',(709.778805736,865.103416038,5.437743566));
#879=CARTESIAN_POINT('',(710.180729525,864.407263615,5.437743567));
#880=(BOUNDED_CURVE()
B_SPLINE_CURVE(2,(#877,#878,#879),.UNSPECIFIED.,.F.,.F.)
B_SPLINE_CURVE_WITH_KNOTS((3,3),(150.000000017,180.000000013),.UNSPECIFIED.)
CURVE()
GEOMETRIC_REPRESENTATION_ITEM()
RATIONAL_B_SPLINE_CURVE((1.,0.965925826,1.))
REPRESENTATION_ITEM(''));
#881=EDGE_CURVE('',#870,#758,#880,.T.);
#882=ORIENTED_EDGE('',*,*,#881,.T.);
#883=ORIENTED_EDGE('',*,*,#763,.F.);
#884=ORIENTED_EDGE('',*,*,#498,.F.);
#885=EDGE_LOOP('',(#868,#876,#882,#883,#884));
#886=FACE_BOUND('',#885,.T.);
#887=ADVANCED_FACE('',(#886),#867,.T.);
#888=CARTESIAN_POINT('',(730.85060251,822.605993429,1.437743572));
#889=DIRECTION('',(0.,-0.,1.));
#890=DIRECTION('',(-1.,0.,0.));
#891=AXIS2_PLACEMENT_3D('',#888,#889,#890);
#892=CYLINDRICAL_SURFACE('',#891,3.);
#893=ORIENTED_EDGE('',*,*,#777,.F.);
#894=CARTESIAN_POINT('',(733.850602512,822.605993429,5.839667362));
#895=VERTEX_POINT('',#894);
#896=CARTESIAN_POINT('',(733.448678723,824.10599343,5.437743573));
#897=CARTESIAN_POINT('',(733.850602511,823.409841007,5.437743573));
#898=CARTESIAN_POINT('',(733.850602512,822.60599343,5.839667362));
#899=(BOUNDED_CURVE()
B_SPLINE_CURVE(2,(#896,#897,#898),.UNSPECIFIED.,.F.,.F.)
B_SPLINE_CURVE_WITH_KNOTS((3,3),(180.000000013,210.000000015),.UNSPECIFIED.)
CURVE()
GEOMETRIC_REPRESENTATION_ITEM()
RATIONAL_B_SPLINE_CURVE((1.,0.965925826,1.))
REPRESENTATION_ITEM(''));
#900=EDGE_CURVE('',#766,#895,#899,.T.);
#901=ORIENTED_EDGE('',*,*,#900,.T.);
#902=CARTESIAN_POINT('',(733.850602512,822.605993428,5.839667362));
#903=CARTESIAN_POINT('',(733.850602511,821.802145851,5.437743573));
#904=CARTESIAN_POINT('',(733.448678723,821.105993428,5.437743573));
#905=(BOUNDED_CURVE()
B_SPLINE_CURVE(2,(#902,#903,#904),.UNSPECIFIED.,.F.,.F.)
B_SPLINE_CURVE_WITH_KNOTS((3,3),(149.999999985,179.999999987),.UNSPECIFIED.)
CURVE()
GEOMETRIC_REPRESENTATION_ITEM()
RATIONAL_B_SPLINE_CURVE((1.,0.965925826,1.))
REPRESENTATION_ITEM(''));
#906=EDGE_CURVE('',#895,#727,#905,.T.);
#907=ORIENTED_EDGE('',*,*,#906,.T.);
#908=ORIENTED_EDGE('',*,*,#732,.F.);
#909=ORIENTED_EDGE('',*,*,#515,.F.);
#910=EDGE_LOOP('',(#893,#901,#907,#908,#909));
#911=FACE_BOUND('',#910,.T.);
#912=ADVANCED_FACE('',(#911),#892,.T.);
#913=CARTESIAN_POINT('',(707.582653318,782.30472324,1.437743572));
#914=DIRECTION('',(0.,-0.,1.));
#915=DIRECTION('',(-1.,0.,0.));
#916=AXIS2_PLACEMENT_3D('',#913,#914,#915);
#917=CYLINDRICAL_SURFACE('',#916,3.);
#918=ORIENTED_EDGE('',*,*,#746,.F.);
#919=CARTESIAN_POINT('',(709.082653318,779.706647028,5.83966736));
#920=VERTEX_POINT('',#919);
#921=CARTESIAN_POINT('',(710.180729525,780.804723242,5.437743567));
#922=CARTESIAN_POINT('',(709.778805736,780.108570819,5.437743566));
#923=CARTESIAN_POINT('',(709.082653313,779.706647031,5.839667355));
#924=(BOUNDED_CURVE()
B_SPLINE_CURVE(2,(#921,#922,#923),.UNSPECIFIED.,.F.,.F.)
B_SPLINE_CURVE_WITH_KNOTS((3,3),(179.999999987,209.999999995),.UNSPECIFIED.)
CURVE()
GEOMETRIC_REPRESENTATION_ITEM()
RATIONAL_B_SPLINE_CURVE((1.,0.965925826,1.))
REPRESENTATION_ITEM(''));
#925=EDGE_CURVE('',#735,#920,#924,.T.);
#926=ORIENTED_EDGE('',*,*,#925,.T.);
#927=CARTESIAN_POINT('',(709.082653318,779.706647028,5.83966736));
#928=CARTESIAN_POINT('',(708.386500895,779.30472324,5.437743572));
#929=CARTESIAN_POINT('',(707.582653318,779.30472324,5.437743572));
#930=(BOUNDED_CURVE()
B_SPLINE_CURVE(2,(#927,#928,#929),.UNSPECIFIED.,.F.,.F.)
B_SPLINE_CURVE_WITH_KNOTS((3,3),(150.000000002,180.),.UNSPECIFIED.)
CURVE()
GEOMETRIC_REPRESENTATION_ITEM()
RATIONAL_B_SPLINE_CURVE((1.,0.965925826,1.))
REPRESENTATION_ITEM(''));
#931=EDGE_CURVE('',#920,#696,#930,.T.);
#932=ORIENTED_EDGE('',*,*,#931,.T.);
#933=ORIENTED_EDGE('',*,*,#701,.F.);
#934=ORIENTED_EDGE('',*,*,#532,.F.);
#935=EDGE_LOOP('',(#918,#926,#932,#933,#934));
#936=FACE_BOUND('',#935,.T.);
#937=ADVANCED_FACE('',(#936),#917,.T.);
#938=CARTESIAN_POINT('',(661.046754933,782.30472324,1.437743572));
#939=DIRECTION('',(0.,-0.,1.));
#940=DIRECTION('',(-1.,0.,0.));
#941=AXIS2_PLACEMENT_3D('',#938,#939,#940);
#942=CYLINDRICAL_SURFACE('',#941,3.);
#943=ORIENTED_EDGE('',*,*,#715,.F.);
#944=CARTESIAN_POINT('',(659.546754938,779.70664703,5.839667356));
#945=VERTEX_POINT('',#944);
#946=CARTESIAN_POINT('',(661.046754933,779.30472324,5.437743572));
#947=CARTESIAN_POINT('',(660.242907356,779.30472324,5.437743572));
#948=CARTESIAN_POINT('',(659.546754933,779.706647028,5.83966736));
#949=(BOUNDED_CURVE()
B_SPLINE_CURVE(2,(#946,#947,#948),.UNSPECIFIED.,.F.,.F.)
B_SPLINE_CURVE_WITH_KNOTS((3,3),(180.,209.999999998),.UNSPECIFIED.)
CURVE()
GEOMETRIC_REPRESENTATION_ITEM()
RATIONAL_B_SPLINE_CURVE((1.,0.965925826,1.))
REPRESENTATION_ITEM(''));
#950=EDGE_CURVE('',#704,#945,#949,.T.);
#951=ORIENTED_EDGE('',*,*,#950,.T.);
#952=CARTESIAN_POINT('',(659.546754938,779.70664703,5.839667356));
#953=CARTESIAN_POINT('',(658.850602515,780.108570819,5.437743567));
#954=CARTESIAN_POINT('',(658.448678726,780.804723242,5.437743567));
#955=(BOUNDED_CURVE()
B_SPLINE_CURVE(2,(#952,#953,#954),.UNSPECIFIED.,.F.,.F.)
B_SPLINE_CURVE_WITH_KNOTS((3,3),(150.000000005,180.000000022),.UNSPECIFIED.)
CURVE()
GEOMETRIC_REPRESENTATION_ITEM()
RATIONAL_B_SPLINE_CURVE((1.,0.965925826,1.))
REPRESENTATION_ITEM(''));
#956=EDGE_CURVE('',#945,#665,#955,.T.);
#957=ORIENTED_EDGE('',*,*,#956,.T.);
#958=ORIENTED_EDGE('',*,*,#670,.F.);
#959=ORIENTED_EDGE('',*,*,#549,.F.);
#960=EDGE_LOOP('',(#943,#951,#957,#958,#959));
#961=FACE_BOUND('',#960,.T.);
#962=ADVANCED_FACE('',(#961),#942,.T.);
#963=CARTESIAN_POINT('',(718.35060251,802.955358334,9.437743572));
#964=DIRECTION('',(-0.612372436,0.353553391,-0.707106781));
#965=DIRECTION('',(0.5,0.866025404,0.));
#966=AXIS2_PLACEMENT_3D('',#963,#964,#965);
#967=PLANE('',#966);
#968=ORIENTED_EDGE('',*,*,#740,.F.);
#969=ORIENTED_EDGE('',*,*,#906,.F.);
#970=CARTESIAN_POINT('',(729.695901975,822.60599343,9.437743574));
#971=DIRECTION('',(0.755928946,-0.,-0.654653671));
#972=VECTOR('',#971,5.496152197);
#973=LINE('',#970,#972);
#974=EDGE_CURVE('',#393,#895,#973,.T.);
#975=ORIENTED_EDGE('',*,*,#974,.F.);
#976=ORIENTED_EDGE('',*,*,#398,.F.);
#977=CARTESIAN_POINT('',(709.082653318,779.706647028,5.83966736));
#978=DIRECTION('',(-0.377964473,0.654653671,0.654653671));
#979=VECTOR('',#978,5.496152199);
#980=LINE('',#977,#979);
#981=EDGE_CURVE('',#920,#385,#980,.T.);
#982=ORIENTED_EDGE('',*,*,#981,.F.);
#983=ORIENTED_EDGE('',*,*,#925,.F.);
#984=EDGE_LOOP('',(#968,#969,#975,#976,#982,#983));
#985=FACE_BOUND('',#984,.T.);
#986=ADVANCED_FACE('',(#985),#967,.F.);
#987=CARTESIAN_POINT('',(718.35060251,842.256628524,9.437743572));
#988=DIRECTION('',(-0.612372436,-0.353553391,-0.707106781));
#989=DIRECTION('',(-0.5,0.866025404,-0.));
#990=AXIS2_PLACEMENT_3D('',#987,#988,#989);
#991=PLANE('',#990);
#992=ORIENTED_EDGE('',*,*,#771,.F.);
#993=ORIENTED_EDGE('',*,*,#881,.F.);
#994=CARTESIAN_POINT('',(707.005303048,861.907263618,9.437743572));
#995=DIRECTION('',(0.377964473,0.654653671,-0.654653671));
#996=VECTOR('',#995,5.496152198);
#997=LINE('',#994,#996);
#998=EDGE_CURVE('',#359,#870,#997,.T.);
#999=ORIENTED_EDGE('',*,*,#998,.F.);
#1000=ORIENTED_EDGE('',*,*,#404,.F.);
#1001=ORIENTED_EDGE('',*,*,#974,.T.);
#1002=ORIENTED_EDGE('',*,*,#900,.F.);
#1003=EDGE_LOOP('',(#992,#993,#999,#1000,#1001,#1002));
#1004=FACE_BOUND('',#1003,.T.);
#1005=ADVANCED_FACE('',(#1004),#991,.F.);
#1006=CARTESIAN_POINT('',(684.314704125,783.30472324,9.437743572));
#1007=DIRECTION('',(0.,0.707106781,-0.707106781));
#1008=DIRECTION('',(1.,0.,0.));
#1009=AXIS2_PLACEMENT_3D('',#1006,#1007,#1008);
#1010=PLANE('',#1009);
#1011=ORIENTED_EDGE('',*,*,#981,.T.);
#1012=ORIENTED_EDGE('',*,*,#390,.F.);
#1013=CARTESIAN_POINT('',(659.546754938,779.70664703,5.839667356));
#1014=DIRECTION('',(0.377964473,0.654653671,0.654653671));
#1015=VECTOR('',#1014,5.496152199);
#1016=LINE('',#1013,#1015);
#1017=EDGE_CURVE('',#945,#377,#1016,.T.);
#1018=ORIENTED_EDGE('',*,*,#1017,.F.);
#1019=ORIENTED_EDGE('',*,*,#950,.F.);
#1020=ORIENTED_EDGE('',*,*,#709,.F.);
#1021=ORIENTED_EDGE('',*,*,#931,.F.);
#1022=EDGE_LOOP('',(#1011,#1012,#1018,#1019,#1020,#1021));
#1023=FACE_BOUND('',#1022,.T.);
#1024=ADVANCED_FACE('',(#1023),#1010,.F.);
#1025=CARTESIAN_POINT('',(684.314704125,861.907263618,9.437743572));
#1026=DIRECTION('',(0.,-0.707106781,-0.707106781));
#1027=DIRECTION('',(-1.,0.,0.));
#1028=AXIS2_PLACEMENT_3D('',#1025,#1026,#1027);
#1029=PLANE('',#1028);
#1030=ORIENTED_EDGE('',*,*,#802,.F.);
#1031=ORIENTED_EDGE('',*,*,#832,.F.);
#1032=CARTESIAN_POINT('',(661.624105205,861.907263616,9.437743569));
#1033=DIRECTION('',(-0.377964473,0.654653671,-0.654653671));
#1034=VECTOR('',#1033,5.496152199);
#1035=LINE('',#1032,#1034);
#1036=EDGE_CURVE('',#361,#821,#1035,.T.);
#1037=ORIENTED_EDGE('',*,*,#1036,.F.);
#1038=ORIENTED_EDGE('',*,*,#366,.F.);
#1039=ORIENTED_EDGE('',*,*,#998,.T.);
#1040=ORIENTED_EDGE('',*,*,#875,.F.);
#1041=EDGE_LOOP('',(#1030,#1031,#1037,#1038,#1039,#1040));
#1042=FACE_BOUND('',#1041,.T.);
#1043=ADVANCED_FACE('',(#1042),#1029,.F.);
#1044=CARTESIAN_POINT('',(650.27880574,802.955358334,9.437743572));
#1045=DIRECTION('',(0.612372436,0.353553391,-0.707106781));
#1046=DIRECTION('',(0.5,-0.866025404,-0.));
#1047=AXIS2_PLACEMENT_3D('',#1044,#1045,#1046);
#1048=PLANE('',#1047);
#1049=ORIENTED_EDGE('',*,*,#1017,.T.);
#1050=ORIENTED_EDGE('',*,*,#382,.F.);
#1051=CARTESIAN_POINT('',(634.778805739,822.60599343,5.839667363));
#1052=DIRECTION('',(0.755928946,0.,0.654653671));
#1053=VECTOR('',#1052,5.496152197);
#1054=LINE('',#1051,#1053);
#1055=EDGE_CURVE('',#845,#369,#1054,.T.);
#1056=ORIENTED_EDGE('',*,*,#1055,.F.);
#1057=ORIENTED_EDGE('',*,*,#858,.F.);
#1058=ORIENTED_EDGE('',*,*,#678,.F.);
#1059=ORIENTED_EDGE('',*,*,#956,.F.);
#1060=EDGE_LOOP('',(#1049,#1050,#1056,#1057,#1058,#1059));
#1061=FACE_BOUND('',#1060,.T.);
#1062=ADVANCED_FACE('',(#1061),#1048,.F.);
#1063=CARTESIAN_POINT('',(650.27880574,842.256628524,9.437743572));
#1064=DIRECTION('',(0.612372436,-0.353553391,-0.707106781));
#1065=DIRECTION('',(-0.5,-0.866025404,0.));
#1066=AXIS2_PLACEMENT_3D('',#1063,#1064,#1065);
#1067=PLANE('',#1066);
#1068=ORIENTED_EDGE('',*,*,#826,.F.);
#1069=ORIENTED_EDGE('',*,*,#647,.F.);
#1070=CARTESIAN_POINT('',(634.778805739,822.60599343,5.839667362));
#1071=CARTESIAN_POINT('',(634.778805739,823.409841007,5.437743573));
#1072=CARTESIAN_POINT('',(635.180729528,824.10599343,5.437743573));
#1073=(BOUNDED_CURVE()
B_SPLINE_CURVE(2,(#1070,#1071,#1072),.UNSPECIFIED.,.F.,.F.)
B_SPLINE_CURVE_WITH_KNOTS((3,3),(149.999999985,179.999999987),.UNSPECIFIED.)
CURVE()
GEOMETRIC_REPRESENTATION_ITEM()
RATIONAL_B_SPLINE_CURVE((1.,0.965925826,1.))
REPRESENTATION_ITEM(''));
#1074=EDGE_CURVE('',#845,#634,#1073,.T.);
#1075=ORIENTED_EDGE('',*,*,#1074,.F.);
#1076=ORIENTED_EDGE('',*,*,#1055,.T.);
#1077=ORIENTED_EDGE('',*,*,#374,.F.);
#1078=ORIENTED_EDGE('',*,*,#1036,.T.);
#1079=EDGE_LOOP('',(#1068,#1069,#1075,#1076,#1077,#1078));
#1080=FACE_BOUND('',#1079,.T.);
#1081=ADVANCED_FACE('',(#1080),#1067,.F.);
#1082=CARTESIAN_POINT('',(673.505677176,816.36539881,-586.462256428));
#1083=DIRECTION('',(0.866025404,0.5,0.));
#1084=DIRECTION('',(0.5,-0.866025404,-0.));
#1085=AXIS2_PLACEMENT_3D('',#1082,#1083,#1084);
#1086=PLANE('',#1085);
#1087=CARTESIAN_POINT('',(674.837995526,814.057755735,81.808434206));
#1088=VERTEX_POINT('',#1087);
#1089=CARTESIAN_POINT('',(674.837995526,814.057755735,81.808434206));
#1090=DIRECTION('',(0.,-0.,1.));
#1091=VECTOR('',#1090,11.729309366);
#1092=LINE('',#1089,#1091);
#1093=EDGE_CURVE('',#1088,#220,#1092,.T.);
#1094=ORIENTED_EDGE('',*,*,#1093,.F.);
#1095=CARTESIAN_POINT('',(677.108686159,810.124804191,79.537743572));
#1096=VERTEX_POINT('',#1095);
#1097=CARTESIAN_POINT('',(677.108686158,810.124804191,79.537743572));
#1098=DIRECTION('',(-0.447213595,0.774596669,0.447213596));
#1099=VECTOR('',#1098,5.077418611);
#1100=LINE('',#1097,#1099);
#1101=EDGE_CURVE('',#1096,#1088,#1100,.T.);
#1102=ORIENTED_EDGE('',*,*,#1101,.F.);
#1103=CARTESIAN_POINT('',(677.108686159,810.124804191,1.437743572));
#1104=DIRECTION('',(-0.,-0.,1.));
#1105=VECTOR('',#1104,78.1);
#1106=LINE('',#1103,#1105);
#1107=EDGE_CURVE('',#578,#1096,#1106,.T.);
#1108=ORIENTED_EDGE('',*,*,#1107,.F.);
#1109=ORIENTED_EDGE('',*,*,#585,.T.);
#1110=CARTESIAN_POINT('',(669.902668194,822.605993429,1.437743572));
#1111=DIRECTION('',(-0.,-0.,1.));
#1112=VECTOR('',#1111,92.1);
#1113=LINE('',#1110,#1112);
#1114=EDGE_CURVE('',#580,#229,#1113,.T.);
#1115=ORIENTED_EDGE('',*,*,#1114,.T.);
#1116=ORIENTED_EDGE('',*,*,#234,.F.);
#1117=EDGE_LOOP('',(#1094,#1102,#1108,#1109,#1115,#1116));
#1118=FACE_BOUND('',#1117,.T.);
#1119=ADVANCED_FACE('',(#1118),#1086,.T.);
#1120=CARTESIAN_POINT('',(673.505677176,828.846588048,-586.462256428));
#1121=DIRECTION('',(0.866025404,-0.5,-0.));
#1122=DIRECTION('',(-0.5,-0.866025404,-0.));
#1123=AXIS2_PLACEMENT_3D('',#1120,#1121,#1122);
#1124=PLANE('',#1123);
#1125=CARTESIAN_POINT('',(677.108686159,835.087182667,1.437743572));
#1126=DIRECTION('',(-0.,-0.,1.));
#1127=VECTOR('',#1126,92.1);
#1128=LINE('',#1125,#1127);
#1129=EDGE_CURVE('',#612,#237,#1128,.T.);
#1130=ORIENTED_EDGE('',*,*,#1129,.T.);
#1131=ORIENTED_EDGE('',*,*,#242,.F.);
#1132=ORIENTED_EDGE('',*,*,#1114,.F.);
#1133=ORIENTED_EDGE('',*,*,#623,.T.);
#1134=EDGE_LOOP('',(#1130,#1131,#1132,#1133));
#1135=FACE_BOUND('',#1134,.T.);
#1136=ADVANCED_FACE('',(#1135),#1124,.T.);
#1137=CARTESIAN_POINT('',(684.314704125,835.087182667,-586.462256428));
#1138=DIRECTION('',(0.,-1.,-0.));
#1139=DIRECTION('',(-1.,0.,0.));
#1140=AXIS2_PLACEMENT_3D('',#1137,#1138,#1139);
#1141=PLANE('',#1140);
#1142=ORIENTED_EDGE('',*,*,#340,.F.);
#1143=CARTESIAN_POINT('',(686.979340826,835.087182667,81.808434193));
#1144=DIRECTION('',(0.,-0.,1.));
#1145=VECTOR('',#1144,11.729309378);
#1146=LINE('',#1143,#1145);
#1147=EDGE_CURVE('',#327,#186,#1146,.T.);
#1148=ORIENTED_EDGE('',*,*,#1147,.T.);
#1149=ORIENTED_EDGE('',*,*,#248,.F.);
#1150=ORIENTED_EDGE('',*,*,#1129,.F.);
#1151=ORIENTED_EDGE('',*,*,#617,.T.);
#1152=CARTESIAN_POINT('',(691.520722091,835.087182667,1.437743572));
#1153=DIRECTION('',(-0.,-0.,1.));
#1154=VECTOR('',#1153,78.099999986);
#1155=LINE('',#1152,#1154);
#1156=EDGE_CURVE('',#604,#335,#1155,.T.);
#1157=ORIENTED_EDGE('',*,*,#1156,.T.);
#1158=EDGE_LOOP('',(#1142,#1148,#1149,#1150,#1151,#1157));
#1159=FACE_BOUND('',#1158,.T.);
#1160=ADVANCED_FACE('',(#1159),#1141,.T.);
#1161=CARTESIAN_POINT('',(695.123731074,828.846588048,-586.462256428));
#1162=DIRECTION('',(-0.866025404,-0.5,-0.));
#1163=DIRECTION('',(-0.5,0.866025404,0.));
#1164=AXIS2_PLACEMENT_3D('',#1161,#1162,#1163);
#1165=PLANE('',#1164);
#1166=ORIENTED_EDGE('',*,*,#201,.F.);
#1167=ORIENTED_EDGE('',*,*,#168,.T.);
#1168=ORIENTED_EDGE('',*,*,#346,.F.);
#1169=ORIENTED_EDGE('',*,*,#1156,.F.);
#1170=ORIENTED_EDGE('',*,*,#609,.T.);
#1171=CARTESIAN_POINT('',(698.726740057,822.605993428,1.437743572));
#1172=DIRECTION('',(-0.,-0.,1.));
#1173=VECTOR('',#1172,92.1);
#1174=LINE('',#1171,#1173);
#1175=EDGE_CURVE('',#596,#196,#1174,.T.);
#1176=ORIENTED_EDGE('',*,*,#1175,.T.);
#1177=EDGE_LOOP('',(#1166,#1167,#1168,#1169,#1170,#1176));
#1178=FACE_BOUND('',#1177,.T.);
#1179=ADVANCED_FACE('',(#1178),#1165,.T.);
#1180=CARTESIAN_POINT('',(695.123731074,816.36539881,-586.462256428));
#1181=DIRECTION('',(-0.866025404,0.5,0.));
#1182=DIRECTION('',(0.5,0.866025404,0.));
#1183=AXIS2_PLACEMENT_3D('',#1180,#1181,#1182);
#1184=PLANE('',#1183);
#1185=CARTESIAN_POINT('',(691.520722092,810.12480419,1.437743572));
#1186=DIRECTION('',(-0.,-0.,1.));
#1187=VECTOR('',#1186,92.1);
#1188=LINE('',#1185,#1187);
#1189=EDGE_CURVE('',#588,#204,#1188,.T.);
#1190=ORIENTED_EDGE('',*,*,#1189,.T.);
#1191=ORIENTED_EDGE('',*,*,#209,.F.);
#1192=ORIENTED_EDGE('',*,*,#1175,.F.);
#1193=ORIENTED_EDGE('',*,*,#601,.T.);
#1194=EDGE_LOOP('',(#1190,#1191,#1192,#1193));
#1195=FACE_BOUND('',#1194,.T.);
#1196=ADVANCED_FACE('',(#1195),#1184,.T.);
#1197=CARTESIAN_POINT('',(684.314704125,810.124804191,-586.462256428));
#1198=DIRECTION('',(0.,1.,0.));
#1199=DIRECTION('',(1.,0.,0.));
#1200=AXIS2_PLACEMENT_3D('',#1197,#1198,#1199);
#1201=PLANE('',#1200);
#1202=CARTESIAN_POINT('',(681.650067424,810.124804191,81.808434208));
#1203=VERTEX_POINT('',#1202);
#1204=CARTESIAN_POINT('',(681.650067424,810.124804191,93.537743572));
#1205=DIRECTION('',(-0.,0.,-1.));
#1206=VECTOR('',#1205,11.729309364);
#1207=LINE('',#1204,#1206);
#1208=EDGE_CURVE('',#212,#1203,#1207,.T.);
#1209=ORIENTED_EDGE('',*,*,#1208,.F.);
#1210=ORIENTED_EDGE('',*,*,#217,.F.);
#1211=ORIENTED_EDGE('',*,*,#1189,.F.);
#1212=ORIENTED_EDGE('',*,*,#593,.T.);
#1213=ORIENTED_EDGE('',*,*,#1107,.T.);
#1214=CARTESIAN_POINT('',(681.650067424,810.124804191,81.808434208));
#1215=DIRECTION('',(-0.894427191,0.,-0.447213596));
#1216=VECTOR('',#1215,5.077418612);
#1217=LINE('',#1214,#1216);
#1218=EDGE_CURVE('',#1203,#1096,#1217,.T.);
#1219=ORIENTED_EDGE('',*,*,#1218,.F.);
#1220=EDGE_LOOP('',(#1209,#1210,#1211,#1212,#1213,#1219));
#1221=FACE_BOUND('',#1220,.T.);
#1222=ADVANCED_FACE('',(#1221),#1201,.T.);
#1223=CARTESIAN_POINT('',(671.773626368,815.36539881,7.537743572));
#1224=DIRECTION('',(0.866025404,0.5,0.));
#1225=DIRECTION('',(0.5,-0.866025404,-0.));
#1226=AXIS2_PLACEMENT_3D('',#1223,#1224,#1225);
#1227=PLANE('',#1226);
#1228=ORIENTED_EDGE('',*,*,#424,.F.);
#1229=CARTESIAN_POINT('',(675.95398562,808.12480419,9.437743572));
#1230=DIRECTION('',(-0.,-0.,1.));
#1231=VECTOR('',#1230,84.1);
#1232=LINE('',#1229,#1231);
#1233=EDGE_CURVE('',#411,#256,#1232,.T.);
#1234=ORIENTED_EDGE('',*,*,#1233,.T.);
#1235=ORIENTED_EDGE('',*,*,#263,.T.);
#1236=CARTESIAN_POINT('',(667.593267117,822.605993428,9.437743572));
#1237=DIRECTION('',(-0.,-0.,1.));
#1238=VECTOR('',#1237,84.1);
#1239=LINE('',#1236,#1238);
#1240=EDGE_CURVE('',#419,#258,#1239,.T.);
#1241=ORIENTED_EDGE('',*,*,#1240,.F.);
#1242=EDGE_LOOP('',(#1228,#1234,#1235,#1241));
#1243=FACE_BOUND('',#1242,.T.);
#1244=ADVANCED_FACE('',(#1243),#1227,.F.);
#1245=CARTESIAN_POINT('',(671.773626368,829.846588048,7.537743572));
#1246=DIRECTION('',(0.866025404,-0.5,-0.));
#1247=DIRECTION('',(-0.5,-0.866025404,-0.));
#1248=AXIS2_PLACEMENT_3D('',#1245,#1246,#1247);
#1249=PLANE('',#1248);
#1250=ORIENTED_EDGE('',*,*,#432,.F.);
#1251=ORIENTED_EDGE('',*,*,#1240,.T.);
#1252=ORIENTED_EDGE('',*,*,#301,.T.);
#1253=CARTESIAN_POINT('',(675.953985621,837.087182667,9.437743572));
#1254=DIRECTION('',(-0.,-0.,1.));
#1255=VECTOR('',#1254,84.1);
#1256=LINE('',#1253,#1255);
#1257=EDGE_CURVE('',#427,#290,#1256,.T.);
#1258=ORIENTED_EDGE('',*,*,#1257,.F.);
#1259=EDGE_LOOP('',(#1250,#1251,#1252,#1258));
#1260=FACE_BOUND('',#1259,.T.);
#1261=ADVANCED_FACE('',(#1260),#1249,.F.);
#1262=CARTESIAN_POINT('',(684.314704125,837.087182667,7.537743572));
#1263=DIRECTION('',(0.,-1.,-0.));
#1264=DIRECTION('',(-1.,0.,0.));
#1265=AXIS2_PLACEMENT_3D('',#1262,#1263,#1264);
#1266=PLANE('',#1265);
#1267=ORIENTED_EDGE('',*,*,#440,.F.);
#1268=ORIENTED_EDGE('',*,*,#1257,.T.);
#1269=ORIENTED_EDGE('',*,*,#295,.T.);
#1270=CARTESIAN_POINT('',(692.675422631,837.087182667,9.437743572));
#1271=DIRECTION('',(-0.,-0.,1.));
#1272=VECTOR('',#1271,84.1);
#1273=LINE('',#1270,#1272);
#1274=EDGE_CURVE('',#435,#282,#1273,.T.);
#1275=ORIENTED_EDGE('',*,*,#1274,.F.);
#1276=EDGE_LOOP('',(#1267,#1268,#1269,#1275));
#1277=FACE_BOUND('',#1276,.T.);
#1278=ADVANCED_FACE('',(#1277),#1266,.F.);
#1279=CARTESIAN_POINT('',(696.855781882,829.846588048,7.537743572));
#1280=DIRECTION('',(-0.866025404,-0.5,-0.));
#1281=DIRECTION('',(-0.5,0.866025404,0.));
#1282=AXIS2_PLACEMENT_3D('',#1279,#1280,#1281);
#1283=PLANE('',#1282);
#1284=ORIENTED_EDGE('',*,*,#448,.F.);
#1285=ORIENTED_EDGE('',*,*,#1274,.T.);
#1286=ORIENTED_EDGE('',*,*,#287,.T.);
#1287=CARTESIAN_POINT('',(701.036141134,822.605993429,9.437743572));
#1288=DIRECTION('',(-0.,-0.,1.));
#1289=VECTOR('',#1288,84.1);
#1290=LINE('',#1287,#1289);
#1291=EDGE_CURVE('',#443,#274,#1290,.T.);
#1292=ORIENTED_EDGE('',*,*,#1291,.F.);
#1293=EDGE_LOOP('',(#1284,#1285,#1286,#1292));
#1294=FACE_BOUND('',#1293,.T.);
#1295=ADVANCED_FACE('',(#1294),#1283,.F.);
#1296=CARTESIAN_POINT('',(696.855781882,815.36539881,7.537743572));
#1297=DIRECTION('',(-0.866025404,0.5,0.));
#1298=DIRECTION('',(0.5,0.866025404,0.));
#1299=AXIS2_PLACEMENT_3D('',#1296,#1297,#1298);
#1300=PLANE('',#1299);
#1301=ORIENTED_EDGE('',*,*,#454,.F.);
#1302=ORIENTED_EDGE('',*,*,#1291,.T.);
#1303=ORIENTED_EDGE('',*,*,#279,.T.);
#1304=CARTESIAN_POINT('',(692.67542263,808.124804191,9.437743572));
#1305=DIRECTION('',(-0.,-0.,1.));
#1306=VECTOR('',#1305,84.1);
#1307=LINE('',#1304,#1306);
#1308=EDGE_CURVE('',#409,#266,#1307,.T.);
#1309=ORIENTED_EDGE('',*,*,#1308,.F.);
#1310=EDGE_LOOP('',(#1301,#1302,#1303,#1309));
#1311=FACE_BOUND('',#1310,.T.);
#1312=ADVANCED_FACE('',(#1311),#1300,.F.);
#1313=CARTESIAN_POINT('',(684.314704125,808.124804191,7.537743572));
#1314=DIRECTION('',(0.,1.,0.));
#1315=DIRECTION('',(1.,0.,0.));
#1316=AXIS2_PLACEMENT_3D('',#1313,#1314,#1315);
#1317=PLANE('',#1316);
#1318=ORIENTED_EDGE('',*,*,#416,.F.);
#1319=ORIENTED_EDGE('',*,*,#1308,.T.);
#1320=ORIENTED_EDGE('',*,*,#271,.T.);
#1321=ORIENTED_EDGE('',*,*,#1233,.F.);
#1322=EDGE_LOOP('',(#1318,#1319,#1320,#1321));
#1323=FACE_BOUND('',#1322,.T.);
#1324=ADVANCED_FACE('',(#1323),#1317,.F.);
#1325=CARTESIAN_POINT('',(678.608686159,812.722880403,78.537743572));
#1326=DIRECTION('',(0.,-0.,1.));
#1327=DIRECTION('',(-1.,0.,0.));
#1328=AXIS2_PLACEMENT_3D('',#1325,#1326,#1327);
#1329=CYLINDRICAL_SURFACE('',#1328,4.);
#1330=CARTESIAN_POINT('',(680.608686158,816.186982014,86.537743575));
#1331=VERTEX_POINT('',#1330);
#1332=CARTESIAN_POINT('',(674.83799557,814.057755858,81.808434334));
#1333=CARTESIAN_POINT('',(675.330527909,815.449037007,83.259585324));
#1334=CARTESIAN_POINT('',(676.608686158,816.186982015,84.537743573));
#1335=CARTESIAN_POINT('',(678.608686157,817.341682553,86.537743574));
#1336=CARTESIAN_POINT('',(680.608686158,816.186982014,86.537743575));
#1337=(BOUNDED_CURVE()
B_SPLINE_CURVE(2,(#1332,#1333,#1334,#1335,#1336),.UNSPECIFIED.,.F.,.F.)
B_SPLINE_CURVE_WITH_KNOTS((3,2,3),(259.706911305,299.999999986,359.999999985),.UNSPECIFIED.)
CURVE()
GEOMETRIC_REPRESENTATION_ITEM()
RATIONAL_B_SPLINE_CURVE((0.940898422,0.910029162,1.,0.866025404,1.))
REPRESENTATION_ITEM(''));
#1338=EDGE_CURVE('',#1088,#1331,#1337,.T.);
#1339=ORIENTED_EDGE('',*,*,#1338,.F.);
#1340=ORIENTED_EDGE('',*,*,#1093,.T.);
#1341=ORIENTED_EDGE('',*,*,#226,.T.);
#1342=ORIENTED_EDGE('',*,*,#1208,.T.);
#1343=CARTESIAN_POINT('',(680.608686158,816.186982014,86.537743575));
#1344=CARTESIAN_POINT('',(683.515412545,814.508782751,86.537743575));
#1345=CARTESIAN_POINT('',(682.367456641,811.354799827,83.232336285));
#1346=CARTESIAN_POINT('',(682.120001406,810.674922158,82.519817335));
#1347=CARTESIAN_POINT('',(681.650067419,810.124804185,81.8084342));
#1348=(BOUNDED_CURVE()
B_SPLINE_CURVE(2,(#1343,#1344,#1345,#1346,#1347),.UNSPECIFIED.,.F.,.F.)
B_SPLINE_CURVE_WITH_KNOTS((3,2,3),(0.,79.999999996,101.121164168),.UNSPECIFIED.)
CURVE()
GEOMETRIC_REPRESENTATION_ITEM()
RATIONAL_B_SPLINE_CURVE((1.,0.766044443,1.,0.938232328,0.909079785))
REPRESENTATION_ITEM(''));
#1349=EDGE_CURVE('',#1331,#1203,#1348,.T.);
#1350=ORIENTED_EDGE('',*,*,#1349,.F.);
#1351=EDGE_LOOP('',(#1339,#1340,#1341,#1342,#1350));
#1352=FACE_BOUND('',#1351,.T.);
#1353=ADVANCED_FACE('',(#1352),#1329,.T.);
#1354=CARTESIAN_POINT('',(678.608686159,812.722880403,78.537743572));
#1355=DIRECTION('',(0.,-0.,1.));
#1356=DIRECTION('',(-1.,0.,0.));
#1357=AXIS2_PLACEMENT_3D('',#1354,#1355,#1356);
#1358=CYLINDRICAL_SURFACE('',#1357,2.);
#1359=CARTESIAN_POINT('',(676.608686158,812.722880402,81.537743573));
#1360=VERTEX_POINT('',#1359);
#1361=CARTESIAN_POINT('',(676.608686159,812.722880403,93.537743572));
#1362=DIRECTION('',(-0.,0.,-1.));
#1363=VECTOR('',#1362,11.999999999);
#1364=LINE('',#1361,#1363);
#1365=EDGE_CURVE('',#306,#1360,#1364,.T.);
#1366=ORIENTED_EDGE('',*,*,#1365,.F.);
#1367=ORIENTED_EDGE('',*,*,#312,.F.);
#1368=ORIENTED_EDGE('',*,*,#1365,.T.);
#1369=CARTESIAN_POINT('',(679.608686158,814.454931208,84.537743575));
#1370=VERTEX_POINT('',#1369);
#1371=CARTESIAN_POINT('',(676.608686158,812.722880402,81.537743573));
#1372=CARTESIAN_POINT('',(676.608686158,813.87758094,82.537743573));
#1373=CARTESIAN_POINT('',(677.608686158,814.454931208,83.537743574));
#1374=CARTESIAN_POINT('',(678.608686158,815.032281477,84.537743574));
#1375=CARTESIAN_POINT('',(679.608686158,814.454931208,84.537743575));
#1376=(BOUNDED_CURVE()
B_SPLINE_CURVE(2,(#1371,#1372,#1373,#1374,#1375),.UNSPECIFIED.,.F.,.F.)
B_SPLINE_CURVE_WITH_KNOTS((3,2,3),(239.999999992,299.999999992,359.999999992),.UNSPECIFIED.)
CURVE()
GEOMETRIC_REPRESENTATION_ITEM()
RATIONAL_B_SPLINE_CURVE((1.,0.866025404,1.,0.866025404,1.))
REPRESENTATION_ITEM(''));
#1377=EDGE_CURVE('',#1360,#1370,#1376,.T.);
#1378=ORIENTED_EDGE('',*,*,#1377,.T.);
#1379=CARTESIAN_POINT('',(679.608686158,814.454931208,84.537743575));
#1380=CARTESIAN_POINT('',(681.062049352,813.615831576,84.537743575));
#1381=CARTESIAN_POINT('',(680.488071399,812.038840114,82.885039929));
#1382=CARTESIAN_POINT('',(679.914093447,810.461848652,81.232336284));
#1383=CARTESIAN_POINT('',(678.261389803,810.753264896,80.658358331));
#1384=CARTESIAN_POINT('',(676.608686158,811.04468114,80.084380378));
#1385=CARTESIAN_POINT('',(676.608686158,812.722880402,81.537743573));
#1386=(BOUNDED_CURVE()
B_SPLINE_CURVE(2,(#1379,#1380,#1381,#1382,#1383,#1384,#1385),.UNSPECIFIED.,.F.,.F.)
B_SPLINE_CURVE_WITH_KNOTS((3,2,2,3),(0.,79.999999997,159.999999995,239.999999992),.UNSPECIFIED.)
CURVE()
GEOMETRIC_REPRESENTATION_ITEM()
RATIONAL_B_SPLINE_CURVE((1.,0.766044443,1.,0.766044443,1.,0.766044443,1.))
REPRESENTATION_ITEM(''));
#1387=EDGE_CURVE('',#1370,#1360,#1386,.T.);
#1388=ORIENTED_EDGE('',*,*,#1387,.T.);
#1389=EDGE_LOOP('',(#1366,#1367,#1368,#1378,#1388));
#1390=FACE_BOUND('',#1389,.T.);
#1391=ADVANCED_FACE('',(#1390),#1358,.F.);
#1392=CARTESIAN_POINT('',(659.498882221,828.035271791,86.243761538));
#1393=DIRECTION('',(0.353553391,0.612372436,-0.707106781));
#1394=DIRECTION('',(-0.,0.755928946,0.654653671));
#1395=AXIS2_PLACEMENT_3D('',#1392,#1393,#1394);
#1396=PLANE('',#1395);
#1397=ORIENTED_EDGE('',*,*,#1377,.F.);
#1398=ORIENTED_EDGE('',*,*,#1387,.F.);
#1399=EDGE_LOOP('',(#1397,#1398));
#1400=FACE_BOUND('',#1399,.T.);
#1401=ORIENTED_EDGE('',*,*,#1218,.T.);
#1402=ORIENTED_EDGE('',*,*,#1101,.T.);
#1403=ORIENTED_EDGE('',*,*,#1338,.T.);
#1404=ORIENTED_EDGE('',*,*,#1349,.T.);
#1405=EDGE_LOOP('',(#1401,#1402,#1403,#1404));
#1406=FACE_BOUND('',#1405,.T.);
#1407=ADVANCED_FACE('',(#1400,#1406),#1396,.T.);
#1408=CARTESIAN_POINT('',(690.020722091,832.489106455,78.537743572));
#1409=DIRECTION('',(0.,-0.,1.));
#1410=DIRECTION('',(-1.,0.,0.));
#1411=AXIS2_PLACEMENT_3D('',#1408,#1409,#1410);
#1412=CYLINDRICAL_SURFACE('',#1411,4.);
#1413=ORIENTED_EDGE('',*,*,#142,.F.);
#1414=ORIENTED_EDGE('',*,*,#192,.T.);
#1415=ORIENTED_EDGE('',*,*,#1147,.F.);
#1416=ORIENTED_EDGE('',*,*,#332,.T.);
#1417=EDGE_LOOP('',(#1413,#1414,#1415,#1416));
#1418=FACE_BOUND('',#1417,.T.);
#1419=ADVANCED_FACE('',(#1418),#1412,.T.);
#1420=CARTESIAN_POINT('',(637.77880574,822.605993429,1.437743572));
#1421=DIRECTION('',(0.,-0.,1.));
#1422=DIRECTION('',(-1.,0.,0.));
#1423=AXIS2_PLACEMENT_3D('',#1420,#1421,#1422);
#1424=CYLINDRICAL_SURFACE('',#1423,3.);
#1425=ORIENTED_EDGE('',*,*,#850,.F.);
#1426=ORIENTED_EDGE('',*,*,#1074,.T.);
#1427=ORIENTED_EDGE('',*,*,#639,.F.);
#1428=ORIENTED_EDGE('',*,*,#573,.F.);
#1429=EDGE_LOOP('',(#1425,#1426,#1427,#1428));
#1430=FACE_BOUND('',#1429,.T.);
#1431=ADVANCED_FACE('',(#1430),#1424,.T.);
#1432=CLOSED_SHELL('',(#128,#179,#316,#352,#458,#627,#658,#689,#720,#751,#782,#813,#838,#862,#887,#912,#937,#962,#986,#1005,#1024,#1043,#1062,#1081,#1119,#1136,
#1160,#1179,#1196,#1222,#1244,#1261,#1278,#1295,#1312,#1324,#1353,#1391,#1407,#1419,#1431));
#1433=MANIFOLD_SOLID_BREP('Gewindehalter 1',#1432);
#1434=COLOUR_RGB('',0.627451003,0.627451003,0.643137276);
#1435=FILL_AREA_STYLE_COLOUR('',#1434);
#1436=FILL_AREA_STYLE('',(#1435));
#1437=SURFACE_STYLE_FILL_AREA(#1436);
#1438=SURFACE_SIDE_STYLE('',(#1437));
#1439=SURFACE_STYLE_USAGE(.BOTH.,#1438);
#1440=PRESENTATION_STYLE_ASSIGNMENT((#1439));
#82=STYLED_ITEM('',(#1440),#1433);
#63=SHAPE_REPRESENTATION('Kleinkopffu\S\_',(#15),#61);
#64=ADVANCED_BREP_SHAPE_REPRESENTATION('Kleinkopffu\S\_',(#1433),#61);
#1448=SHAPE_REPRESENTATION_RELATIONSHIP('','',#63,#64);
#1449=CARTESIAN_POINT('',(0.,0.,0.));
#1450=DIRECTION('',(0.,0.,1.));
#1451=DIRECTION('',(1.,0.,0.));
#1452=AXIS2_PLACEMENT_3D('',#1449,#1450,#1451);
#1454=MAPPED_ITEM('',#1453,#1452);
#1453=REPRESENTATION_MAP(#1452,#63);
#1455=APPLICATION_CONTEXT('Managed model based 3d engineering');
#1456=APPLICATION_PROTOCOL_DEFINITION('international standard','ap242_managed_model_based_3d_engineering',2014,#1455);
#1457=PRODUCT_CONTEXT('',#1455,'mechanical');
#1458=PRODUCT_DEFINITION_CONTEXT('part definition',#1455,'design');
#71=PRODUCT('Kleinkopffu\S\_','Kleinkopffu\S\_','',(#1457));
#1459=PRODUCT_RELATED_PRODUCT_CATEGORY('part','',(#71));
#1460=PRODUCT_DEFINITION_FORMATION_WITH_SPECIFIED_SOURCE('','',#71,.NOT_KNOWN.);
#72=PRODUCT_DEFINITION('design','',#1460,#1458);
#70=PRODUCT_DEFINITION_SHAPE('','',#72);
#1461=SHAPE_DEFINITION_REPRESENTATION(#70,#63);
#62=DRAUGHTING_MODEL('',(#1454),#61);
#35=SHAPE_REPRESENTATION('kleinkopffuss.step',(#15,#76),#33);
#1462=CARTESIAN_POINT('',(0.,0.,0.));
#1463=DIRECTION('',(0.,0.,1.));
#1464=DIRECTION('',(1.,0.,0.));
#1465=AXIS2_PLACEMENT_3D('',#1462,#1463,#1464);
#1467=MAPPED_ITEM('',#1466,#1465);
#1466=REPRESENTATION_MAP(#1465,#35);
#43=PRODUCT('kleinkopffuss.step','kleinkopffuss.step','',(#1457));
#1468=PRODUCT_RELATED_PRODUCT_CATEGORY('part','',(#43));
#1469=PRODUCT_DEFINITION_FORMATION_WITH_SPECIFIED_SOURCE('','',#43,.NOT_KNOWN.);
#44=PRODUCT_DEFINITION('design','',#1469,#1458);
#42=PRODUCT_DEFINITION_SHAPE('','',#44);
#1470=SHAPE_DEFINITION_REPRESENTATION(#42,#35);
#34=DRAUGHTING_MODEL('',(#1467),#33);
#16=SHAPE_REPRESENTATION('root',(#15,#48),#10);
#1471=CARTESIAN_POINT('',(0.,0.,0.));
#1472=DIRECTION('',(0.,0.,1.));
#1473=DIRECTION('',(1.,0.,0.));
#1474=AXIS2_PLACEMENT_3D('',#1471,#1472,#1473);
#1476=MAPPED_ITEM('',#1475,#1474);
#1475=REPRESENTATION_MAP(#1474,#16);
#24=PRODUCT('root','root','',(#1457));
#1477=PRODUCT_RELATED_PRODUCT_CATEGORY('part','',(#24));
#1478=PRODUCT_DEFINITION_FORMATION_WITH_SPECIFIED_SOURCE('','',#24,.NOT_KNOWN.);
#25=PRODUCT_DEFINITION('design','',#1478,#1458);
#23=PRODUCT_DEFINITION_SHAPE('','',#25);
#1479=SHAPE_DEFINITION_REPRESENTATION(#23,#16);
#11=DRAUGHTING_MODEL('',(#1476),#10);
#1480=DESCRIPTIVE_REPRESENTATION_ITEM('KEY','C:\\Users\\Ruben\\AppData\\Local\\Packages\\Shapr3D.Shapr3D_dvv5p1vgwv6mp\\TempState\\780b5b65-4975-4302-b55d-f07a0e8b7eab.tmp');
#1481=PROPERTY_DEFINITION('KEY','',#25);
#1482=REPRESENTATION('',(#1480),#10);
#1483=PROPERTY_DEFINITION_REPRESENTATION(#1481,#1482);
#1484=GENERAL_PROPERTY('','KEY','');
#1485=GENERAL_PROPERTY_ASSOCIATION('','',#1484,#1481);
#1=MECHANICAL_DESIGN_GEOMETRIC_PRESENTATION_REPRESENTATION('',(#82),#10);
ENDSEC;
END-ISO-10303-21;
