M48
;Layer_Color=9474304
;FILE_FORMAT=4:4
METRIC,LZ
;TYPE=PLATED
T01F00S00C0.3500
T02F00S00C0.7000
T04F00S00C1.0200
T05F00S00C1.3000
%
T01
X0011049Y0001651
X0012319
X0013589
X0014859
X0016129
X0017399
X0018669
X0019939
X0021209
X0022479
X0023749
X0025019
X0026289
X0027559
X0028829
X0030099
Y0002921
X0028829
X0027559
X0026289
X0025019
X0023749
X0022479
X0021209
X0019939
X0018669
X0017399
X0016129
X0014859
X0013589
X0012319
X0011049
X0031369Y0003321
X0032639
Y0004591
Y0005861
Y0007131
Y0008401
X0031369
Y0007131
Y0005861
Y0004591
X0009779Y0002921
Y0001651
X0008509
Y0002921
X0007239
Y0001651
X0005969
Y0002921
X0004699
Y0001651
X0003429
Y0002921
X0001778Y0003429
X0002413Y0004572
X0001143
X0001189Y0005961
X0002459
Y0007231
Y0008501
X0001189
Y0007231
Y0009771
X0002459
Y0011041
Y0012311
Y0013581
Y0014851
Y0016121
Y0017391
Y0018661
Y0019931
Y0021201
Y0022471
Y0023741
Y0025011
Y0026281
Y0027551
Y0028821
X0001189
Y0027551
Y0026281
Y0025011
Y0023741
Y0022471
Y0021201
Y0019931
Y0018661
Y0017391
Y0016121
Y0014851
Y0013581
Y0012311
Y0011041
X0003929Y0029591
X0005199
X0006469
X0007739
Y0030861
X0006469
X0005199
X0003929
X0010279
Y0029591
X0009779Y0028321
Y0027051
Y0025781
Y0024511
X0011049Y0025781
Y0027051
X0012319
X0013589
X0014859
X0016129
X0017399
Y0025781
Y0024511
Y0023241
X0016129Y0022733
Y0025781
Y0028321
X0017399
X0016629Y0029591
Y0030861
X0015359
Y0029591
X0014089
Y0030861
X0012819
Y0029591
X0011549
Y0030861
X0011049Y0028321
X0012319
X0013589
X0014859
X0019169Y0029591
X0020439
X0021709
X0022979
X0024249
X0025519
X0026789
X0028059
X0029329
Y0030861
X0028059
X0026789
X0025519
X0024249
X0022979
X0021709
X0020439
X0019169
X0031369Y0028721
X0032639
Y0027451
Y0026181
Y0024911
Y0023641
Y0022371
Y0021101
Y0019831
Y0018561
Y0017291
Y0016021
Y0014751
Y0013481
Y0012211
Y0010941
Y0009671
X0031369
Y0010941
Y0012211
Y0013481
Y0014751
Y0016021
Y0017291
Y0018561
Y0019831
Y0021101
Y0022371
Y0023641
Y0024911
Y0026181
Y0027451
X00110139Y00227653
T02
X0005334Y0018582
Y0023582
T04
X0012065Y0006858
X0014605
X0020447Y0006731
X0022987
X0025527
X0028067
X0009525Y0006858
X0006985
X0007112Y0009779
X0009652
Y0012954
X0007112
X0012192
X0014732
Y0009779
X0012192
X0020447Y0009906
X0022987
X0025527
X0028067
Y0012954
X0025527
X0022987
X0020447
T05
X00319727Y00017759
X0001778Y0001778
Y0030353
X0031369
M30
