G04*
G04 #@! TF.GenerationSoftware,Altium Limited,Altium Designer,25.8.1 (18)*
G04*
G04 Layer_Color=8388736*
%FSLAX44Y44*%
%MOMM*%
G71*
G04*
G04 #@! TF.SameCoordinates,E2A6C1CA-3EA7-4D45-89E3-1D4407BB6CBC*
G04*
G04*
G04 #@! TF.FilePolarity,Negative*
G04*
G01*
G75*
%ADD15R,1.9000X4.4000*%
%ADD16C,1.7532*%
%ADD17R,1.7532X1.7532*%
%ADD18R,1.2000X1.2000*%
%ADD19C,1.2000*%
%ADD20O,4.7032X2.4532*%
%ADD21O,2.4532X4.7032*%
%ADD22O,5.2032X2.7032*%
%ADD23C,0.8032*%
%ADD24C,1.7032*%
D15*
X247650Y176210D02*
D03*
Y263210D02*
D03*
D16*
X147320Y97790D02*
D03*
X121920D02*
D03*
X96520D02*
D03*
X95250Y68580D02*
D03*
X120650D02*
D03*
X146050D02*
D03*
X147320Y129540D02*
D03*
X121920D02*
D03*
X96520D02*
D03*
X229870D02*
D03*
X255270D02*
D03*
X280670D02*
D03*
X229870Y99060D02*
D03*
X255270D02*
D03*
X280670D02*
D03*
X229870Y67310D02*
D03*
X255270D02*
D03*
X280670D02*
D03*
D17*
X71120Y97790D02*
D03*
X69850Y68580D02*
D03*
X71120Y129540D02*
D03*
X204470D02*
D03*
Y99060D02*
D03*
Y67310D02*
D03*
D18*
X53340Y235820D02*
D03*
D19*
Y185820D02*
D03*
D20*
X135890Y243840D02*
D03*
D21*
X88890Y213840D02*
D03*
D22*
X135890Y183840D02*
D03*
D23*
X17780Y34290D02*
D03*
X24130Y45720D02*
D03*
X11430D02*
D03*
X24590Y288210D02*
D03*
Y275510D02*
D03*
Y262810D02*
D03*
Y250110D02*
D03*
Y237410D02*
D03*
Y224710D02*
D03*
Y212010D02*
D03*
Y199310D02*
D03*
Y186610D02*
D03*
Y173910D02*
D03*
Y161210D02*
D03*
Y148510D02*
D03*
Y135810D02*
D03*
Y123110D02*
D03*
Y110410D02*
D03*
Y97710D02*
D03*
Y85010D02*
D03*
Y72310D02*
D03*
Y59610D02*
D03*
X11890Y288210D02*
D03*
Y275510D02*
D03*
Y262810D02*
D03*
Y250110D02*
D03*
Y237410D02*
D03*
Y224710D02*
D03*
Y212010D02*
D03*
Y199310D02*
D03*
Y186610D02*
D03*
Y173910D02*
D03*
Y161210D02*
D03*
Y148510D02*
D03*
Y135810D02*
D03*
Y123110D02*
D03*
Y110410D02*
D03*
Y97710D02*
D03*
Y85010D02*
D03*
Y72310D02*
D03*
Y59610D02*
D03*
X173990Y232410D02*
D03*
Y245110D02*
D03*
Y257810D02*
D03*
Y270510D02*
D03*
Y283210D02*
D03*
X161290Y227330D02*
D03*
X110139Y227653D02*
D03*
X161290Y283210D02*
D03*
Y270510D02*
D03*
Y257810D02*
D03*
X148590Y283210D02*
D03*
Y270510D02*
D03*
X135890Y283210D02*
D03*
Y270510D02*
D03*
X123190Y283210D02*
D03*
Y270510D02*
D03*
X110490Y283210D02*
D03*
Y270510D02*
D03*
Y257810D02*
D03*
X97790Y283210D02*
D03*
Y270510D02*
D03*
Y257810D02*
D03*
Y245110D02*
D03*
X293290Y308610D02*
D03*
Y295910D02*
D03*
X280590Y308610D02*
D03*
Y295910D02*
D03*
X267890Y308610D02*
D03*
Y295910D02*
D03*
X255190Y308610D02*
D03*
Y295910D02*
D03*
X242490Y308610D02*
D03*
Y295910D02*
D03*
X229790Y308610D02*
D03*
Y295910D02*
D03*
X217090Y308610D02*
D03*
Y295910D02*
D03*
X204390Y308610D02*
D03*
Y295910D02*
D03*
X191690Y308610D02*
D03*
Y295910D02*
D03*
X166290Y308610D02*
D03*
Y295910D02*
D03*
X153590Y308610D02*
D03*
Y295910D02*
D03*
X140890Y308610D02*
D03*
Y295910D02*
D03*
X128190Y308610D02*
D03*
Y295910D02*
D03*
X115490Y308610D02*
D03*
Y295910D02*
D03*
X102790Y308610D02*
D03*
Y295910D02*
D03*
X77390Y308610D02*
D03*
Y295910D02*
D03*
X64690Y308610D02*
D03*
Y295910D02*
D03*
X51990Y308610D02*
D03*
Y295910D02*
D03*
X39290Y308610D02*
D03*
Y295910D02*
D03*
X326390Y287210D02*
D03*
Y274510D02*
D03*
Y261810D02*
D03*
Y249110D02*
D03*
Y236410D02*
D03*
Y223710D02*
D03*
Y211010D02*
D03*
Y198310D02*
D03*
Y185610D02*
D03*
Y172910D02*
D03*
Y160210D02*
D03*
Y147510D02*
D03*
Y134810D02*
D03*
Y122110D02*
D03*
Y109410D02*
D03*
Y96710D02*
D03*
Y84010D02*
D03*
Y71310D02*
D03*
Y58610D02*
D03*
Y45910D02*
D03*
Y33210D02*
D03*
X313690Y287210D02*
D03*
Y274510D02*
D03*
Y261810D02*
D03*
Y249110D02*
D03*
Y236410D02*
D03*
Y223710D02*
D03*
Y211010D02*
D03*
Y198310D02*
D03*
Y185610D02*
D03*
Y172910D02*
D03*
Y160210D02*
D03*
Y147510D02*
D03*
Y134810D02*
D03*
Y122110D02*
D03*
Y109410D02*
D03*
Y96710D02*
D03*
Y84010D02*
D03*
Y71310D02*
D03*
Y58610D02*
D03*
Y45910D02*
D03*
Y33210D02*
D03*
X300990Y29210D02*
D03*
Y16510D02*
D03*
X288290Y29210D02*
D03*
Y16510D02*
D03*
X275590Y29210D02*
D03*
Y16510D02*
D03*
X262890Y29210D02*
D03*
Y16510D02*
D03*
X250190Y29210D02*
D03*
Y16510D02*
D03*
X237490Y29210D02*
D03*
Y16510D02*
D03*
X224790Y29210D02*
D03*
Y16510D02*
D03*
X212090Y29210D02*
D03*
Y16510D02*
D03*
X199390Y29210D02*
D03*
Y16510D02*
D03*
X186690Y29210D02*
D03*
Y16510D02*
D03*
X173990Y29210D02*
D03*
Y16510D02*
D03*
X161290Y29210D02*
D03*
Y16510D02*
D03*
X148590Y29210D02*
D03*
Y16510D02*
D03*
X135890Y29210D02*
D03*
Y16510D02*
D03*
X123190Y29210D02*
D03*
Y16510D02*
D03*
X110490Y29210D02*
D03*
Y16510D02*
D03*
X97790Y29210D02*
D03*
Y16510D02*
D03*
X85090Y29210D02*
D03*
Y16510D02*
D03*
X72390Y29210D02*
D03*
Y16510D02*
D03*
X59690Y29210D02*
D03*
Y16510D02*
D03*
X46990Y29210D02*
D03*
Y16510D02*
D03*
X34290Y29210D02*
D03*
Y16510D02*
D03*
D24*
X319727Y17759D02*
D03*
X313690Y303530D02*
D03*
X17780Y17780D02*
D03*
Y303530D02*
D03*
M02*
