ISO-10303-21;
HEADER;

/* File generated by Shapr3D Version 5.1015.10234.0 */

FILE_DESCRIPTION(('HOOPS Exchange Step'),'2;1');

FILE_NAME('C:\\Users\\Ruben\\AppData\\Local\\Packages\\Shapr3D.Shapr3D_dvv5p1vgwv6mp\\TempState\\export\\temp_export',
'2026-01-19T00:55:57-23:00',
('Ruben'),
('Shapr3D Limited'),
'HOOPS Exchange 2025.7',
'Shapr3D',
'Authorized');

FILE_SCHEMA( ('AP242_MANAGED_MODEL_BASED_3D_ENGINEERING_MIM_LF {1 0 10303 442 1 1 4}') );

ENDSEC;

DATA;
#3=(NAMED_UNIT(*)PLANE_ANGLE_UNIT()SI_UNIT($,.RADIAN.));
#4=PLANE_ANGLE_MEASURE_WITH_UNIT(PLANE_ANGLE_MEASURE(0.0174532925),#3);
#5=(CONVERSION_BASED_UNIT('DEGREE',#4)NAMED_UNIT(#6)PLANE_ANGLE_UNIT());
#6=DIMENSIONAL_EXPONENTS(0.,0.,0.,0.,0.,0.,0.);
#7=(NAMED_UNIT(*)SI_UNIT($,.STERADIAN.)SOLID_ANGLE_UNIT());
#8=(LENGTH_UNIT()NAMED_UNIT(*)SI_UNIT(.MILLI.,.METRE.));
#9=UNCERTAINTY_MEASURE_WITH_UNIT(LENGTH_MEASURE(1.000000E-03),#8,'DISTANCE_ACCURACY_VALUE','Maximum Tolerance applied to model');
#10=(GEOMETRIC_REPRESENTATION_CONTEXT(3)GLOBAL_UNCERTAINTY_ASSIGNED_CONTEXT((#9))GLOBAL_UNIT_ASSIGNED_CONTEXT((#8,#5,#7))REPRESENTATION_CONTEXT('','root'));
#12=CARTESIAN_POINT('',(0.,0.,0.));
#13=DIRECTION('',(0.,0.,1.));
#14=DIRECTION('',(1.,0.,0.));
#15=AXIS2_PLACEMENT_3D('',#12,#13,#14);
#26=(NAMED_UNIT(*)PLANE_ANGLE_UNIT()SI_UNIT($,.RADIAN.));
#27=PLANE_ANGLE_MEASURE_WITH_UNIT(PLANE_ANGLE_MEASURE(0.0174532925),#26);
#28=(CONVERSION_BASED_UNIT('DEGREE',#27)NAMED_UNIT(#29)PLANE_ANGLE_UNIT());
#29=DIMENSIONAL_EXPONENTS(0.,0.,0.,0.,0.,0.,0.);
#30=(NAMED_UNIT(*)SI_UNIT($,.STERADIAN.)SOLID_ANGLE_UNIT());
#31=(LENGTH_UNIT()NAMED_UNIT(*)SI_UNIT(.MILLI.,.METRE.));
#32=UNCERTAINTY_MEASURE_WITH_UNIT(LENGTH_MEASURE(1.000000E-05),#31,'DISTANCE_ACCURACY_VALUE','Maximum Tolerance applied to model');
#33=(GEOMETRIC_REPRESENTATION_CONTEXT(3)GLOBAL_UNCERTAINTY_ASSIGNED_CONTEXT((#32))GLOBAL_UNIT_ASSIGNED_CONTEXT((#31,#28,#30))REPRESENTATION_CONTEXT('','Kugel 25mm'));
#45=CARTESIAN_POINT('',(0.,0.,0.));
#46=DIRECTION('',(0.,0.,1.));
#47=DIRECTION('',(1.,0.,-0.));
#48=AXIS2_PLACEMENT_3D('',#45,#46,#47);
#49=ITEM_DEFINED_TRANSFORMATION('','',#48,#15);
#50=(REPRESENTATION_RELATIONSHIP('','',#35,#16)REPRESENTATION_RELATIONSHIP_WITH_TRANSFORMATION(#49)SHAPE_REPRESENTATION_RELATIONSHIP());
#51=NEXT_ASSEMBLY_USAGE_OCCURRENCE('Kugel 25mm_1','Kugel 25mm','Kugel 25mm',#25,#44,$);
#52=PRODUCT_DEFINITION_SHAPE('','',#51);
#53=CONTEXT_DEPENDENT_SHAPE_REPRESENTATION(#50,#52);
#55=CARTESIAN_POINT('',(717.7091906,442.193429339,193.4));
#56=DIRECTION('',(-1.,0.,0.));
#57=DIRECTION('',(0.,-1.,0.));
#58=AXIS2_PLACEMENT_3D('',#55,#56,#57);
#59=SPHERICAL_SURFACE('',#58,12.5);
#60=CARTESIAN_POINT('',(730.2091906,442.193429339,193.4));
#61=VERTEX_POINT('',#60);
#62=CARTESIAN_POINT('',(705.2091906,442.193429339,193.4));
#63=VERTEX_POINT('',#62);
#64=CARTESIAN_POINT('',(730.2091906,442.193429339,193.4));
#65=CARTESIAN_POINT('',(730.2091906,441.784367796,193.4));
#66=CARTESIAN_POINT('',(730.189094726,441.375306885,193.4));
#67=CARTESIAN_POINT('',(730.148999683,440.968215085,193.4));
#68=CARTESIAN_POINT('',(730.108904641,440.561123285,193.4));
#69=CARTESIAN_POINT('',(730.048810553,440.156001855,193.4));
#70=CARTESIAN_POINT('',(729.969006605,439.754800314,193.4));
#71=CARTESIAN_POINT('',(729.889202657,439.353598773,193.4));
#72=CARTESIAN_POINT('',(729.789689095,438.956318364,193.4));
#73=CARTESIAN_POINT('',(729.670944796,438.564870874,193.4));
#74=CARTESIAN_POINT('',(729.552200498,438.173423383,193.4));
#75=CARTESIAN_POINT('',(729.414225832,437.787810022,193.4));
#76=CARTESIAN_POINT('',(729.257684756,437.409886435,193.4));
#77=CARTESIAN_POINT('',(729.101143681,437.031962847,193.4));
#78=CARTESIAN_POINT('',(728.926036681,436.661730203,193.4));
#79=CARTESIAN_POINT('',(728.733206404,436.300970129,193.4));
#80=CARTESIAN_POINT('',(728.540376127,435.940210055,193.4));
#81=CARTESIAN_POINT('',(728.329823171,435.588923669,193.4));
#82=CARTESIAN_POINT('',(728.102560754,435.248801427,193.4));
#83=CARTESIAN_POINT('',(727.875298337,434.908679184,193.4));
#84=CARTESIAN_POINT('',(727.631327163,434.579722136,193.4));
#85=CARTESIAN_POINT('',(727.371821267,434.263513287,193.4));
#86=CARTESIAN_POINT('',(727.112315371,433.947304438,193.4));
#87=CARTESIAN_POINT('',(726.837275556,433.643844766,193.4));
#88=CARTESIAN_POINT('',(726.548025365,433.354594574,193.4));
#89=CARTESIAN_POINT('',(726.258775173,433.065344383,193.4));
#90=CARTESIAN_POINT('',(725.955315501,432.790304568,193.4));
#91=CARTESIAN_POINT('',(725.639106652,432.530798672,193.4));
#92=CARTESIAN_POINT('',(725.322897803,432.271292776,193.4));
#93=CARTESIAN_POINT('',(724.993940755,432.027321602,193.4));
#94=CARTESIAN_POINT('',(724.653818513,431.800059185,193.4));
#95=CARTESIAN_POINT('',(724.31369627,431.572796768,193.4));
#96=CARTESIAN_POINT('',(723.962409884,431.362243812,193.4));
#97=CARTESIAN_POINT('',(723.60164981,431.169413535,193.4));
#98=CARTESIAN_POINT('',(723.240889737,430.976583258,193.4));
#99=CARTESIAN_POINT('',(722.870657092,430.801476258,193.4));
#100=CARTESIAN_POINT('',(722.492733504,430.644935183,193.4));
#101=CARTESIAN_POINT('',(722.114809917,430.488394107,193.4));
#102=CARTESIAN_POINT('',(721.729196556,430.350419441,193.4));
#103=CARTESIAN_POINT('',(721.337749065,430.231675143,193.4));
#104=CARTESIAN_POINT('',(720.946301575,430.112930845,193.4));
#105=CARTESIAN_POINT('',(720.549021166,430.013417282,193.4));
#106=CARTESIAN_POINT('',(720.147819625,429.933613334,193.4));
#107=CARTESIAN_POINT('',(719.746618084,429.853809386,193.4));
#108=CARTESIAN_POINT('',(719.341496654,429.793715299,193.4));
#109=CARTESIAN_POINT('',(718.934404854,429.753620256,193.4));
#110=CARTESIAN_POINT('',(718.527313054,429.713525213,193.4));
#111=CARTESIAN_POINT('',(718.118252143,429.693429339,193.4));
#112=CARTESIAN_POINT('',(717.7091906,429.693429339,193.4));
#113=CARTESIAN_POINT('',(717.300129056,429.693429339,193.4));
#114=CARTESIAN_POINT('',(716.891068146,429.713525213,193.4));
#115=CARTESIAN_POINT('',(716.483976346,429.753620256,193.4));
#116=CARTESIAN_POINT('',(716.076884545,429.793715299,193.4));
#117=CARTESIAN_POINT('',(715.671763115,429.853809386,193.4));
#118=CARTESIAN_POINT('',(715.270561575,429.933613334,193.4));
#119=CARTESIAN_POINT('',(714.869360034,430.013417282,193.4));
#120=CARTESIAN_POINT('',(714.472079625,430.112930845,193.4));
#121=CARTESIAN_POINT('',(714.080632134,430.231675143,193.4));
#122=CARTESIAN_POINT('',(713.689184643,430.350419441,193.4));
#123=CARTESIAN_POINT('',(713.303571283,430.488394107,193.4));
#124=CARTESIAN_POINT('',(712.925647695,430.644935183,193.4));
#125=CARTESIAN_POINT('',(712.547724108,430.801476258,193.4));
#126=CARTESIAN_POINT('',(712.177491463,430.976583258,193.4));
#127=CARTESIAN_POINT('',(711.816731389,431.169413535,193.4));
#128=CARTESIAN_POINT('',(711.455971316,431.362243812,193.4));
#129=CARTESIAN_POINT('',(711.10468493,431.572796768,193.4));
#130=CARTESIAN_POINT('',(710.764562687,431.800059185,193.4));
#131=CARTESIAN_POINT('',(710.424440444,432.027321602,193.4));
#132=CARTESIAN_POINT('',(710.095483397,432.271292776,193.4));
#133=CARTESIAN_POINT('',(709.779274548,432.530798672,193.4));
#134=CARTESIAN_POINT('',(709.463065699,432.790304568,193.4));
#135=CARTESIAN_POINT('',(709.159606026,433.065344383,193.4));
#136=CARTESIAN_POINT('',(708.870355835,433.354594574,193.4));
#137=CARTESIAN_POINT('',(708.581105644,433.643844766,193.4));
#138=CARTESIAN_POINT('',(708.306065829,433.947304438,193.4));
#139=CARTESIAN_POINT('',(708.046559933,434.263513287,193.4));
#140=CARTESIAN_POINT('',(707.787054037,434.579722136,193.4));
#141=CARTESIAN_POINT('',(707.543082863,434.908679184,193.4));
#142=CARTESIAN_POINT('',(707.315820446,435.248801427,193.4));
#143=CARTESIAN_POINT('',(707.088558029,435.588923669,193.4));
#144=CARTESIAN_POINT('',(706.878005072,435.940210055,193.4));
#145=CARTESIAN_POINT('',(706.685174795,436.300970129,193.4));
#146=CARTESIAN_POINT('',(706.492344519,436.661730203,193.4));
#147=CARTESIAN_POINT('',(706.317237519,437.031962847,193.4));
#148=CARTESIAN_POINT('',(706.160696443,437.409886435,193.4));
#149=CARTESIAN_POINT('',(706.004155368,437.787810022,193.4));
#150=CARTESIAN_POINT('',(705.866180701,438.173423383,193.4));
#151=CARTESIAN_POINT('',(705.747436403,438.564870874,193.4));
#152=CARTESIAN_POINT('',(705.628692105,438.956318364,193.4));
#153=CARTESIAN_POINT('',(705.529178543,439.353598773,193.4));
#154=CARTESIAN_POINT('',(705.449374595,439.754800314,193.4));
#155=CARTESIAN_POINT('',(705.369570647,440.156001855,193.4));
#156=CARTESIAN_POINT('',(705.309476559,440.561123285,193.4));
#157=CARTESIAN_POINT('',(705.269381516,440.968215085,193.4));
#158=CARTESIAN_POINT('',(705.229286474,441.375306885,193.4));
#159=CARTESIAN_POINT('',(705.2091906,441.784367796,193.4));
#160=CARTESIAN_POINT('',(705.2091906,442.193429339,193.4));
#161=B_SPLINE_CURVE_WITH_KNOTS('',3,(#64,#65,#66,#67,#68,#69,#70,#71,#72,#73,#74,#75,#76,#77,#78,#79,#80,#81,#82,#83,#84,#85,#86,#87,#88,#89,
#90,#91,#92,#93,#94,#95,#96,#97,#98,#99,#100,#101,#102,#103,#104,#105,#106,#107,#108,#109,#110,#111,#112,#113,#114,
#115,#116,#117,#118,#119,#120,#121,#122,#123,#124,#125,#126,#127,#128,#129,#130,#131,#132,#133,#134,#135,#136,#137,#138,#139,
#140,#141,#142,#143,#144,#145,#146,#147,#148,#149,#150,#151,#152,#153,#154,#155,#156,#157,#158,#159,#160),.UNSPECIFIED.,.F.,.F.,(4,3,3,3,3,3,3,3,3,3,3,3,3,3,3,3,3,3,3,3,3,3,3,3,3,3,
3,3,3,3,3,3,4),(0.,0.03125,0.0625,0.09375,0.125,0.15625,0.1875,0.21875,0.25,0.28125,0.3125,0.34375,0.375,0.40625,0.4375,0.46875,0.5,0.53125,0.5625,0.59375,0.625,0.65625,0.6875,0.71875,0.75,0.78125,
0.8125,0.84375,0.875,0.90625,0.9375,0.96875,1.),.UNSPECIFIED.);
#162=EDGE_CURVE('',#61,#63,#161,.T.);
#163=ORIENTED_EDGE('',*,*,#162,.T.);
#164=ORIENTED_EDGE('',*,*,#162,.F.);
#165=EDGE_LOOP('',(#163,#164));
#166=FACE_BOUND('',#165,.T.);
#167=ADVANCED_FACE('',(#166),#59,.T.);
#168=CLOSED_SHELL('',(#167));
#169=MANIFOLD_SOLID_BREP('K\S\vrper 62',#168);
#170=COLOUR_RGB('',0.627451003,0.627451003,0.643137276);
#171=FILL_AREA_STYLE_COLOUR('',#170);
#172=FILL_AREA_STYLE('',(#171));
#173=SURFACE_STYLE_FILL_AREA(#172);
#174=SURFACE_SIDE_STYLE('',(#173));
#175=SURFACE_STYLE_USAGE(.BOTH.,#174);
#176=PRESENTATION_STYLE_ASSIGNMENT((#175));
#54=STYLED_ITEM('',(#176),#169);
#35=SHAPE_REPRESENTATION('Kugel 25mm',(#15),#33);
#36=ADVANCED_BREP_SHAPE_REPRESENTATION('Kugel 25mm',(#169),#33);
#184=SHAPE_REPRESENTATION_RELATIONSHIP('','',#35,#36);
#185=CARTESIAN_POINT('',(0.,0.,0.));
#186=DIRECTION('',(0.,0.,1.));
#187=DIRECTION('',(1.,0.,0.));
#188=AXIS2_PLACEMENT_3D('',#185,#186,#187);
#190=MAPPED_ITEM('',#189,#188);
#189=REPRESENTATION_MAP(#188,#35);
#191=APPLICATION_CONTEXT('Managed model based 3d engineering');
#192=APPLICATION_PROTOCOL_DEFINITION('international standard','ap242_managed_model_based_3d_engineering',2014,#191);
#193=PRODUCT_CONTEXT('',#191,'mechanical');
#194=PRODUCT_DEFINITION_CONTEXT('part definition',#191,'design');
#43=PRODUCT('Kugel 25mm','Kugel 25mm','',(#193));
#195=PRODUCT_RELATED_PRODUCT_CATEGORY('part','',(#43));
#196=PRODUCT_DEFINITION_FORMATION_WITH_SPECIFIED_SOURCE('','',#43,.NOT_KNOWN.);
#44=PRODUCT_DEFINITION('design','',#196,#194);
#42=PRODUCT_DEFINITION_SHAPE('','',#44);
#197=SHAPE_DEFINITION_REPRESENTATION(#42,#35);
#34=DRAUGHTING_MODEL('',(#190),#33);
#16=SHAPE_REPRESENTATION('root',(#15,#48),#10);
#198=CARTESIAN_POINT('',(0.,0.,0.));
#199=DIRECTION('',(0.,0.,1.));
#200=DIRECTION('',(1.,0.,0.));
#201=AXIS2_PLACEMENT_3D('',#198,#199,#200);
#203=MAPPED_ITEM('',#202,#201);
#202=REPRESENTATION_MAP(#201,#16);
#24=PRODUCT('root','root','',(#193));
#204=PRODUCT_RELATED_PRODUCT_CATEGORY('part','',(#24));
#205=PRODUCT_DEFINITION_FORMATION_WITH_SPECIFIED_SOURCE('','',#24,.NOT_KNOWN.);
#25=PRODUCT_DEFINITION('design','',#205,#194);
#23=PRODUCT_DEFINITION_SHAPE('','',#25);
#206=SHAPE_DEFINITION_REPRESENTATION(#23,#16);
#11=DRAUGHTING_MODEL('',(#203),#10);
#207=DESCRIPTIVE_REPRESENTATION_ITEM('KEY','C:\\Users\\Ruben\\AppData\\Local\\Packages\\Shapr3D.Shapr3D_dvv5p1vgwv6mp\\TempState\\c4ea300d-e2cf-4f29-a54a-9f5387443be3.tmp');
#208=PROPERTY_DEFINITION('KEY','',#25);
#209=REPRESENTATION('',(#207),#10);
#210=PROPERTY_DEFINITION_REPRESENTATION(#208,#209);
#211=GENERAL_PROPERTY('','KEY','');
#212=GENERAL_PROPERTY_ASSOCIATION('','',#211,#208);
#1=MECHANICAL_DESIGN_GEOMETRIC_PRESENTATION_REPRESENTATION('',(#54),#10);
ENDSEC;
END-ISO-10303-21;
