G04*
G04 #@! TF.GenerationSoftware,Altium Limited,Altium Designer,25.8.1 (18)*
G04*
G04 Layer_Color=8421504*
%FSLAX44Y44*%
%MOMM*%
G71*
G04*
G04 #@! TF.SameCoordinates,B962B673-1AC8-49EC-9CCC-188C0FAC6781*
G04*
G04*
G04 #@! TF.FilePolarity,Positive*
G04*
G01*
G75*
%ADD17R,0.9500X1.4000*%
%ADD18R,1.0000X1.5000*%
%ADD19R,0.8000X1.2000*%
%ADD20R,1.4000X0.9500*%
%ADD21R,1.4605X0.5588*%
%ADD22R,1.5000X1.0000*%
%ADD23R,1.2000X1.5000*%
%ADD24R,0.8721X1.0043*%
%ADD25R,0.7300X1.2100*%
%ADD26R,1.3100X0.4900*%
%ADD27R,0.7600X1.2000*%
%ADD28R,0.7000X1.2000*%
%ADD29R,1.2100X0.7300*%
G04:AMPARAMS|DCode=30|XSize=1.0043mm|YSize=0.8721mm|CornerRadius=0.4361mm|HoleSize=0mm|Usage=FLASHONLY|Rotation=90.000|XOffset=0mm|YOffset=0mm|HoleType=Round|Shape=RoundedRectangle|*
%AMROUNDEDRECTD30*
21,1,1.0043,0.0000,0,0,90.0*
21,1,0.1322,0.8721,0,0,90.0*
1,1,0.8721,0.0000,0.0661*
1,1,0.8721,0.0000,-0.0661*
1,1,0.8721,0.0000,-0.0661*
1,1,0.8721,0.0000,0.0661*
%
%ADD30ROUNDEDRECTD30*%
G04:AMPARAMS|DCode=31|XSize=1.0043mm|YSize=3.1821mm|CornerRadius=0.4369mm|HoleSize=0mm|Usage=FLASHONLY|Rotation=90.000|XOffset=0mm|YOffset=0mm|HoleType=Round|Shape=RoundedRectangle|*
%AMROUNDEDRECTD31*
21,1,1.0043,2.3084,0,0,90.0*
21,1,0.1306,3.1821,0,0,90.0*
1,1,0.8737,1.1542,0.0653*
1,1,0.8737,1.1542,-0.0653*
1,1,0.8737,-1.1542,-0.0653*
1,1,0.8737,-1.1542,0.0653*
%
%ADD31ROUNDEDRECTD31*%
G36*
X969153Y534940D02*
X946007D01*
Y519922D01*
X969153D01*
Y534940D01*
D02*
G37*
G36*
Y551958D02*
X946007D01*
Y536940D01*
X969153D01*
Y551958D01*
D02*
G37*
D17*
X993500Y764540D02*
D03*
Y734060D02*
D03*
X749660Y773430D02*
D03*
Y748030D02*
D03*
X747120Y546100D02*
D03*
Y519430D02*
D03*
X506370Y318770D02*
D03*
Y293370D02*
D03*
X524870Y318770D02*
D03*
Y293370D02*
D03*
X975000Y734060D02*
D03*
Y764540D02*
D03*
X731160Y748030D02*
D03*
Y773430D02*
D03*
X728620Y519430D02*
D03*
Y546100D02*
D03*
D18*
X1045970Y673100D02*
D03*
X861570Y560070D02*
D03*
X819660Y748030D02*
D03*
X932690Y485140D02*
D03*
X964690D02*
D03*
X1015240Y614680D02*
D03*
X893570Y560070D02*
D03*
X1013970Y673100D02*
D03*
X851660Y748030D02*
D03*
X1047240Y614680D02*
D03*
Y642620D02*
D03*
X1015240D02*
D03*
D19*
X940630Y721840D02*
D03*
X885630D02*
D03*
D20*
X933450Y663850D02*
D03*
X909320D02*
D03*
X673100Y463190D02*
D03*
X712470D02*
D03*
X933450Y682350D02*
D03*
X909320D02*
D03*
X712470Y481690D02*
D03*
X673100D02*
D03*
D21*
X930339Y529590D02*
D03*
Y554990D02*
D03*
X984821Y542290D02*
D03*
Y529590D02*
D03*
Y516890D02*
D03*
X930339Y542290D02*
D03*
X984821Y554990D02*
D03*
X930339Y516890D02*
D03*
D22*
X847090Y662180D02*
D03*
X871220D02*
D03*
X668020Y665990D02*
D03*
Y697990D02*
D03*
X631190Y488440D02*
D03*
Y456440D02*
D03*
X871220Y694180D02*
D03*
X847090D02*
D03*
D23*
X654520Y638810D02*
D03*
X686600Y356870D02*
D03*
X681520Y638810D02*
D03*
X1101890Y614680D02*
D03*
X1074890D02*
D03*
Y673100D02*
D03*
X1101890D02*
D03*
X659600Y356870D02*
D03*
D24*
X652740Y510610D02*
D03*
D25*
X958850Y649950D02*
D03*
Y683550D02*
D03*
D26*
X985880Y458470D02*
D03*
X967380Y464970D02*
D03*
Y451970D02*
D03*
D27*
X928330Y721840D02*
D03*
X897930D02*
D03*
D28*
X918130D02*
D03*
X908130D02*
D03*
D29*
X856960Y524510D02*
D03*
X890560D02*
D03*
D30*
X675640Y510610D02*
D03*
X698540D02*
D03*
D31*
X675640Y576510D02*
D03*
M02*
