G04*
G04 #@! TF.GenerationSoftware,Altium Limited,Altium Designer,25.8.1 (18)*
G04*
G04 Layer_Color=32896*
%FSLAX44Y44*%
%MOMM*%
G71*
G04*
G04 #@! TF.SameCoordinates,A5A2E5E6-CB97-41B5-A399-A566C0A49CDD*
G04*
G04*
G04 #@! TF.FilePolarity,Positive*
G04*
G01*
G75*
%ADD10C,0.2000*%
%ADD11C,0.2500*%
%ADD14C,0.4000*%
%ADD15C,0.2540*%
D10*
X1043670Y465639D02*
X1119670D01*
Y475640D01*
X1043670Y465639D02*
Y524640D01*
X1043673Y524642D02*
X1119673D01*
X1119670Y514640D02*
Y524640D01*
X1098920Y545350D02*
Y546850D01*
X1113420Y545350D02*
Y546850D01*
X1065160Y545350D02*
Y546850D01*
X1050660Y545350D02*
Y546850D01*
D11*
X1125200Y484980D02*
G03*
X1125200Y484980I-1250J0D01*
G01*
D14*
X877243Y257647D02*
X882242Y262645D01*
X892239D01*
X897237Y257647D01*
Y252648D01*
X892239Y247650D01*
X882242D01*
X877243Y242652D01*
Y237653D01*
X882242Y232655D01*
X892239D01*
X897237Y237653D01*
X867247Y262645D02*
Y232655D01*
X857250Y242652D01*
X847253Y232655D01*
Y262645D01*
X817263D02*
X837256D01*
Y247650D01*
X827260Y252648D01*
X822261D01*
X817263Y247650D01*
Y237653D01*
X822261Y232655D01*
X832258D01*
X837256Y237653D01*
X1055043Y258917D02*
X1060042Y263915D01*
X1070039D01*
X1075037Y258917D01*
Y253918D01*
X1070039Y248920D01*
X1060042D01*
X1055043Y243922D01*
Y238923D01*
X1060042Y233925D01*
X1070039D01*
X1075037Y238923D01*
X1045047Y263915D02*
Y233925D01*
X1035050Y243922D01*
X1025053Y233925D01*
Y263915D01*
X1000061Y233925D02*
Y263915D01*
X1015057Y248920D01*
X995063D01*
X874704Y411317D02*
X879702Y416315D01*
X889699D01*
X894697Y411317D01*
Y406318D01*
X889699Y401320D01*
X879702D01*
X874704Y396322D01*
Y391323D01*
X879702Y386325D01*
X889699D01*
X894697Y391323D01*
X864707Y416315D02*
Y386325D01*
X854710Y396322D01*
X844713Y386325D01*
Y416315D01*
X834716Y411317D02*
X829718Y416315D01*
X819721D01*
X814723Y411317D01*
Y406318D01*
X819721Y401320D01*
X824720D01*
X819721D01*
X814723Y396322D01*
Y391323D01*
X819721Y386325D01*
X829718D01*
X834716Y391323D01*
X878513Y106517D02*
X883512Y111515D01*
X893509D01*
X898507Y106517D01*
Y101518D01*
X893509Y96520D01*
X883512D01*
X878513Y91522D01*
Y86523D01*
X883512Y81525D01*
X893509D01*
X898507Y86523D01*
X868517Y111515D02*
Y81525D01*
X858520Y91522D01*
X848523Y81525D01*
Y111515D01*
X818533Y81525D02*
X838527D01*
X818533Y101518D01*
Y106517D01*
X823531Y111515D01*
X833528D01*
X838527Y106517D01*
X689365Y258917D02*
X694363Y263915D01*
X704360D01*
X709359Y258917D01*
Y253918D01*
X704360Y248920D01*
X694363D01*
X689365Y243922D01*
Y238923D01*
X694363Y233925D01*
X704360D01*
X709359Y238923D01*
X679368Y263915D02*
Y233925D01*
X669372Y243922D01*
X659375Y233925D01*
Y263915D01*
X649378Y233925D02*
X639381D01*
X644380D01*
Y263915D01*
X649378Y258917D01*
D15*
X1115957Y443073D02*
Y458307D01*
X1108339D01*
X1105800Y455768D01*
Y450690D01*
X1108339Y448151D01*
X1115957D01*
X1100722Y443073D02*
X1095643D01*
X1098182D01*
Y458307D01*
X1100722Y455768D01*
X1040128Y542291D02*
X1042668Y539752D01*
Y534673D01*
X1040128Y532134D01*
X1029972D01*
X1027432Y534673D01*
Y539752D01*
X1029972Y542291D01*
X1040128Y547369D02*
X1042668Y549908D01*
Y554987D01*
X1040128Y557526D01*
X1037589D01*
X1035050Y554987D01*
X1032511Y557526D01*
X1029972D01*
X1027432Y554987D01*
Y549908D01*
X1029972Y547369D01*
X1032511D01*
X1035050Y549908D01*
X1037589Y547369D01*
X1040128D01*
X1035050Y549908D02*
Y554987D01*
X1088388Y542291D02*
X1090928Y539752D01*
Y534673D01*
X1088388Y532134D01*
X1078232D01*
X1075693Y534673D01*
Y539752D01*
X1078232Y542291D01*
X1075693Y554987D02*
X1090928D01*
X1083310Y547369D01*
Y557526D01*
M02*
