G04*
G04 #@! TF.GenerationSoftware,Altium Limited,Altium Designer,25.8.1 (18)*
G04*
G04 Layer_Color=16711935*
%FSLAX44Y44*%
%MOMM*%
G71*
G04*
G04 #@! TF.SameCoordinates,A5A2E5E6-CB97-41B5-A399-A566C0A49CDD*
G04*
G04*
G04 #@! TF.FilePolarity,Negative*
G04*
G01*
G75*
%ADD20R,1.4000X0.9500*%
%ADD37C,1.5112*%
%ADD38C,2.3032*%
%ADD39R,1.4032X1.4032*%
%ADD40C,1.8500*%
%ADD41C,2.2032*%
%ADD42C,1.8532*%
%ADD43C,1.4032*%
G04:AMPARAMS|DCode=44|XSize=1.1mm|YSize=1.7mm|CornerRadius=0.55mm|HoleSize=0mm|Usage=FLASHONLY|Rotation=180.000|XOffset=0mm|YOffset=0mm|HoleType=Round|Shape=RoundedRectangle|*
%AMROUNDEDRECTD44*
21,1,1.1000,0.6000,0,0,180.0*
21,1,0.0000,1.7000,0,0,180.0*
1,1,1.1000,0.0000,0.3000*
1,1,1.1000,0.0000,0.3000*
1,1,1.1000,0.0000,-0.3000*
1,1,1.1000,0.0000,-0.3000*
%
%ADD44ROUNDEDRECTD44*%
%ADD45R,1.8500X1.8500*%
%ADD46R,2.2032X2.2032*%
%ADD47C,3.2032*%
%ADD48C,0.9032*%
%ADD49C,3.7032*%
D20*
X1057910Y555350D02*
D03*
X1106170D02*
D03*
X1057910Y536850D02*
D03*
X1106170D02*
D03*
D37*
X687070Y763270D02*
D03*
X647070D02*
D03*
X667070D02*
D03*
D38*
X708570D02*
D03*
X625570D02*
D03*
D39*
X1106170Y485140D02*
D03*
D40*
X1096280Y224970D02*
D03*
X918480D02*
D03*
X919750Y74060D02*
D03*
X918480Y376320D02*
D03*
X736870Y224970D02*
D03*
X794750Y74060D02*
D03*
X919750Y124060D02*
D03*
X793480Y376320D02*
D03*
X918480Y426320D02*
D03*
X971280Y224970D02*
D03*
X1096280Y274970D02*
D03*
X793480Y224970D02*
D03*
X918480Y274970D02*
D03*
X611870Y224970D02*
D03*
X736870Y274970D02*
D03*
D41*
X128060Y716280D02*
D03*
Y462280D02*
D03*
X153460Y716280D02*
D03*
X229660D02*
D03*
X204260D02*
D03*
X255060D02*
D03*
X153460Y462280D02*
D03*
X178860D02*
D03*
X204260D02*
D03*
X229660D02*
D03*
X255060D02*
D03*
X280460D02*
D03*
X305860D02*
D03*
X331260D02*
D03*
X356660D02*
D03*
X382060D02*
D03*
X407460D02*
D03*
X432860D02*
D03*
X458260D02*
D03*
X102660Y716280D02*
D03*
X178860D02*
D03*
X280460D02*
D03*
X305860D02*
D03*
X331260D02*
D03*
X356660D02*
D03*
X382060D02*
D03*
X407460D02*
D03*
X432860D02*
D03*
X458260D02*
D03*
D42*
X552450Y314960D02*
D03*
Y289560D02*
D03*
Y264160D02*
D03*
Y238760D02*
D03*
Y213360D02*
D03*
Y187960D02*
D03*
Y161290D02*
D03*
Y137160D02*
D03*
D43*
X1106170Y505140D02*
D03*
D44*
X956330Y721840D02*
D03*
X869930D02*
D03*
X956330Y759840D02*
D03*
X869930D02*
D03*
D45*
X794750Y124060D02*
D03*
X793480Y426320D02*
D03*
X971280Y274970D02*
D03*
X793480D02*
D03*
X611870D02*
D03*
D46*
X102660Y462280D02*
D03*
D47*
X492560Y466480D02*
D03*
Y711580D02*
D03*
X23060D02*
D03*
Y466480D02*
D03*
D48*
X920750Y577850D02*
D03*
X972820Y590550D02*
D03*
X877952Y578041D02*
D03*
X890270Y638810D02*
D03*
D49*
X1096010Y756920D02*
D03*
Y29210D02*
D03*
X29906Y757459D02*
D03*
X30480Y30480D02*
D03*
M02*
