G04*
G04 #@! TF.GenerationSoftware,Altium Limited,Altium Designer,25.8.1 (18)*
G04*
G04 Layer_Color=65535*
%FSLAX44Y44*%
%MOMM*%
G71*
G04*
G04 #@! TF.SameCoordinates,A5A2E5E6-CB97-41B5-A399-A566C0A49CDD*
G04*
G04*
G04 #@! TF.FilePolarity,Positive*
G04*
G01*
G75*
%ADD10C,0.2000*%
%ADD11C,0.2500*%
%ADD12C,0.1524*%
%ADD13C,0.1270*%
%ADD14C,0.4000*%
%ADD15C,0.2540*%
%ADD16C,0.0762*%
D10*
X959850Y636750D02*
G03*
X959850Y636750I-1000J0D01*
G01*
X955380Y465420D02*
G03*
X955380Y465420I-1000J0D01*
G01*
X844760Y524510D02*
G03*
X844760Y524510I-1000J0D01*
G01*
X544450Y324060D02*
G03*
X544450Y324060I-1000J0D01*
G01*
X103660Y440780D02*
G03*
X103660Y440780I-1000J0D01*
G01*
X946520Y493640D02*
X961020D01*
X946520Y476640D02*
X961020D01*
X659520Y674740D02*
Y689240D01*
X676520Y674740D02*
Y689240D01*
X1084890Y607180D02*
X1091890D01*
X1084890Y622180D02*
X1091890D01*
X1084890Y680600D02*
X1091890D01*
X1084890Y665600D02*
X1091890D01*
X870320Y568570D02*
X884820D01*
X870320Y551570D02*
X884820D01*
X940700Y672350D02*
Y673850D01*
X926200Y672350D02*
Y673850D01*
X902070Y672350D02*
Y673850D01*
X916570Y672350D02*
Y673850D01*
X514870Y311520D02*
X516370D01*
X514870Y326020D02*
X516370D01*
X514870Y300620D02*
X516370D01*
X514870Y286120D02*
X516370D01*
X669600Y349370D02*
X676600D01*
X669600Y364370D02*
X676600D01*
X639690Y465190D02*
Y479690D01*
X622690Y465190D02*
Y479690D01*
X867180Y734090D02*
Y747590D01*
X959080Y734090D02*
Y747590D01*
X983500Y741310D02*
X985000D01*
X983500Y726810D02*
X985000D01*
X983500Y771790D02*
X985000D01*
X983500Y757290D02*
X985000D01*
X862720Y670930D02*
Y685430D01*
X879720Y670930D02*
Y685430D01*
X838590Y670930D02*
Y685430D01*
X855590Y670930D02*
Y685430D01*
X664520Y631310D02*
X671520D01*
X664520Y646310D02*
X671520D01*
X705220Y471690D02*
Y473190D01*
X719720Y471690D02*
Y473190D01*
X665850Y471690D02*
Y473190D01*
X680350Y471690D02*
Y473190D01*
X643115Y526035D02*
Y561085D01*
X708165D01*
Y526035D02*
Y561085D01*
X643115Y526035D02*
X708165D01*
X737120Y512180D02*
X738620D01*
X737120Y526680D02*
X738620D01*
X737120Y538850D02*
X738620D01*
X737120Y553350D02*
X738620D01*
X739660Y766180D02*
X741160D01*
X739660Y780680D02*
X741160D01*
X739660Y755280D02*
X741160D01*
X739660Y740780D02*
X741160D01*
X1022720Y681600D02*
X1037220D01*
X1022720Y664600D02*
X1037220D01*
X1023990Y606180D02*
X1038490D01*
X1023990Y623180D02*
X1038490D01*
X1023990Y634120D02*
X1038490D01*
X1023990Y651120D02*
X1038490D01*
X828410Y756530D02*
X842910D01*
X828410Y739530D02*
X842910D01*
X797250Y137060D02*
Y159060D01*
Y87060D02*
Y111060D01*
Y39060D02*
Y61060D01*
Y39060D02*
X917250D01*
Y137060D02*
Y159060D01*
Y87060D02*
Y111060D01*
Y39060D02*
Y61060D01*
X797250Y159060D02*
X917250D01*
X795980Y439320D02*
Y461320D01*
Y389320D02*
Y413320D01*
Y341320D02*
Y363320D01*
Y341320D02*
X915980D01*
Y439320D02*
Y461320D01*
Y389320D02*
Y413320D01*
Y341320D02*
Y363320D01*
X795980Y461320D02*
X915980D01*
X973780Y287970D02*
Y309970D01*
Y237970D02*
Y261970D01*
Y189970D02*
Y211970D01*
Y189970D02*
X1093780D01*
Y287970D02*
Y309970D01*
Y237970D02*
Y261970D01*
Y189970D02*
Y211970D01*
X973780Y309970D02*
X1093780D01*
X795980Y287970D02*
Y309970D01*
Y237970D02*
Y261970D01*
Y189970D02*
Y211970D01*
Y189970D02*
X915980D01*
Y287970D02*
Y309970D01*
Y237970D02*
Y261970D01*
Y189970D02*
Y211970D01*
X795980Y309970D02*
X915980D01*
X614370Y287970D02*
Y309970D01*
Y237970D02*
Y261970D01*
Y189970D02*
Y211970D01*
Y189970D02*
X734370D01*
Y287970D02*
Y309970D01*
Y237970D02*
Y261970D01*
Y189970D02*
Y211970D01*
X614370Y309970D02*
X734370D01*
X566150Y123460D02*
Y328660D01*
X538750Y123460D02*
X566150D01*
X538750D02*
Y328660D01*
X566150D01*
D11*
X941880Y709340D02*
G03*
X941880Y709340I-1250J0D01*
G01*
X641890Y510610D02*
G03*
X641890Y510610I-1250J0D01*
G01*
X779500Y124060D02*
G03*
X779500Y124060I-1250J0D01*
G01*
X778230Y426320D02*
G03*
X778230Y426320I-1250J0D01*
G01*
X956030Y274970D02*
G03*
X956030Y274970I-1250J0D01*
G01*
X778230D02*
G03*
X778230Y274970I-1250J0D01*
G01*
X596620D02*
G03*
X596620Y274970I-1250J0D01*
G01*
D12*
X978789Y561111D02*
Y562737D01*
X936371Y509143D02*
Y510769D01*
Y561111D02*
Y562737D01*
X978789D01*
Y509143D02*
Y510769D01*
X936371Y509143D02*
X978789D01*
D13*
X967350Y652500D02*
Y681000D01*
X950350Y652500D02*
Y681000D01*
X977130Y448470D02*
X982880D01*
Y464120D02*
Y468470D01*
Y448470D02*
Y452820D01*
X977130Y468470D02*
X982880D01*
X859510Y533010D02*
X888010D01*
X859510Y516010D02*
X888010D01*
X3060Y731580D02*
X512560D01*
Y446480D02*
Y731580D01*
X3060Y446480D02*
Y731580D01*
Y446480D02*
X512560D01*
X3060D02*
Y557170D01*
Y624280D01*
Y731580D01*
Y446480D02*
X512560D01*
X3060Y731580D02*
X512560D01*
Y446480D02*
Y500180D01*
Y677080D01*
Y731580D01*
D14*
X1063890Y607180D02*
Y622180D01*
Y665600D02*
Y680600D01*
X697600Y349370D02*
Y364370D01*
X643520Y631310D02*
Y646310D01*
D15*
X665481Y741677D02*
X660403D01*
X662942D01*
Y728982D01*
X660403Y726442D01*
X657863D01*
X655324Y728982D01*
X680716Y726442D02*
X670559D01*
X680716Y736599D01*
Y739138D01*
X678177Y741677D01*
X673098D01*
X670559Y739138D01*
X641350Y378457D02*
X651507D01*
X646428Y383536D02*
Y373379D01*
X656585Y383536D02*
X659124Y386075D01*
X664203D01*
X666742Y383536D01*
Y380997D01*
X664203Y378457D01*
X661663D01*
X664203D01*
X666742Y375918D01*
Y373379D01*
X664203Y370840D01*
X659124D01*
X656585Y373379D01*
X671820Y386075D02*
Y375918D01*
X676898Y370840D01*
X681977Y375918D01*
Y386075D01*
X687055Y383536D02*
X689594Y386075D01*
X694673D01*
X697212Y383536D01*
Y380997D01*
X694673Y378457D01*
X692134D01*
X694673D01*
X697212Y375918D01*
Y373379D01*
X694673Y370840D01*
X689594D01*
X687055Y373379D01*
X640080Y624835D02*
Y614678D01*
X645158Y609600D01*
X650237Y614678D01*
Y624835D01*
X657854Y609600D02*
X662933D01*
X665472Y612139D01*
Y617217D01*
X662933Y619757D01*
X657854D01*
X655315Y617217D01*
Y612139D01*
X657854Y609600D01*
X670550Y619757D02*
Y612139D01*
X673089Y609600D01*
X680707D01*
Y619757D01*
X688324Y622296D02*
Y619757D01*
X685785D01*
X690864D01*
X688324D01*
Y612139D01*
X690864Y609600D01*
X1070607Y702304D02*
X1068067Y704843D01*
X1062989D01*
X1060450Y702304D01*
Y692148D01*
X1062989Y689608D01*
X1068067D01*
X1070607Y692148D01*
X1075685Y704843D02*
Y689608D01*
Y697226D01*
X1078224Y699765D01*
X1083303D01*
X1085842Y697226D01*
Y689608D01*
X1090920Y699765D02*
Y689608D01*
Y694687D01*
X1093459Y697226D01*
X1095999Y699765D01*
X1098538D01*
X1111234Y684530D02*
X1113773D01*
X1116312Y687069D01*
Y699765D01*
X1108694D01*
X1106155Y697226D01*
Y692148D01*
X1108694Y689608D01*
X1116312D01*
X1074417Y600705D02*
X1064260D01*
Y593088D01*
X1069338D01*
X1064260D01*
Y585470D01*
X1079495Y595627D02*
Y588009D01*
X1082034Y585470D01*
X1089652D01*
Y595627D01*
X1094730Y585470D02*
X1099809D01*
X1097269D01*
Y600705D01*
X1094730D01*
X1107426Y585470D02*
X1112504D01*
X1109965D01*
Y600705D01*
X1107426D01*
X683266Y673102D02*
Y688337D01*
X690884D01*
X693423Y685798D01*
Y680720D01*
X690884Y678181D01*
X683266D01*
X688344D02*
X693423Y673102D01*
X698501D02*
X703580D01*
X701040D01*
Y688337D01*
X698501Y685798D01*
X711197D02*
X713736Y688337D01*
X718815D01*
X721354Y685798D01*
Y675642D01*
X718815Y673102D01*
X713736D01*
X711197Y675642D01*
Y685798D01*
X914398Y641347D02*
X916937Y643886D01*
Y648965D01*
X914398Y651504D01*
X904242D01*
X901702Y648965D01*
Y643886D01*
X904242Y641347D01*
X901702Y636269D02*
Y631190D01*
Y633730D01*
X916937D01*
X914398Y636269D01*
X901702Y615955D02*
X916937D01*
X909320Y623573D01*
Y613416D01*
X938528Y641347D02*
X941068Y643886D01*
Y648965D01*
X938528Y651504D01*
X928372D01*
X925833Y648965D01*
Y643886D01*
X928372Y641347D01*
X925833Y636269D02*
Y631190D01*
Y633730D01*
X941068D01*
X938528Y636269D01*
Y623573D02*
X941068Y621034D01*
Y615955D01*
X938528Y613416D01*
X935989D01*
X933450Y615955D01*
Y618494D01*
Y615955D01*
X930911Y613416D01*
X928372D01*
X925833Y615955D01*
Y621034D01*
X928372Y623573D01*
X467723Y323848D02*
X465184Y326387D01*
X460105D01*
X457566Y323848D01*
Y313692D01*
X460105Y311152D01*
X465184D01*
X467723Y313692D01*
X472801Y311152D02*
X477880D01*
X475340D01*
Y326387D01*
X472801Y323848D01*
X495654Y311152D02*
X485497D01*
X495654Y321309D01*
Y323848D01*
X493115Y326387D01*
X488036D01*
X485497Y323848D01*
X472442Y299718D02*
X469903Y302257D01*
X464824D01*
X462285Y299718D01*
Y289562D01*
X464824Y287022D01*
X469903D01*
X472442Y289562D01*
X477520Y287022D02*
X482599D01*
X480060D01*
Y302257D01*
X477520Y299718D01*
X490216Y287022D02*
X495295D01*
X492756D01*
Y302257D01*
X490216Y299718D01*
X772163Y777238D02*
X769624Y779778D01*
X764545D01*
X762006Y777238D01*
Y767082D01*
X764545Y764542D01*
X769624D01*
X772163Y767082D01*
X777241Y764542D02*
X782320D01*
X779780D01*
Y779778D01*
X777241Y777238D01*
X789937D02*
X792476Y779778D01*
X797555D01*
X800094Y777238D01*
Y767082D01*
X797555Y764542D01*
X792476D01*
X789937Y767082D01*
Y777238D01*
X775971Y751838D02*
X773432Y754378D01*
X768353D01*
X765814Y751838D01*
Y741682D01*
X768353Y739143D01*
X773432D01*
X775971Y741682D01*
X781049D02*
X783588Y739143D01*
X788667D01*
X791206Y741682D01*
Y751838D01*
X788667Y754378D01*
X783588D01*
X781049Y751838D01*
Y749299D01*
X783588Y746760D01*
X791206D01*
X558797Y102870D02*
Y107948D01*
Y105409D01*
X546102D01*
X543563Y107948D01*
Y110487D01*
X546102Y113027D01*
X543563Y97792D02*
Y92713D01*
Y95252D01*
X558797D01*
X556258Y97792D01*
X99062Y481334D02*
X111758D01*
X114298Y483873D01*
Y488952D01*
X111758Y491491D01*
X99062D01*
X101602Y496569D02*
X99062Y499108D01*
Y504187D01*
X101602Y506726D01*
X104141D01*
X106680Y504187D01*
Y501647D01*
Y504187D01*
X109219Y506726D01*
X111758D01*
X114298Y504187D01*
Y499108D01*
X111758Y496569D01*
X610874Y549907D02*
Y537212D01*
X613413Y534673D01*
X618492D01*
X621031Y537212D01*
Y549907D01*
X636266Y534673D02*
X626109D01*
X636266Y544829D01*
Y547368D01*
X633727Y549907D01*
X628648D01*
X626109Y547368D01*
X948693Y584198D02*
Y571502D01*
X951233Y568963D01*
X956311D01*
X958850Y571502D01*
Y584198D01*
X963928Y568963D02*
X969007D01*
X966468D01*
Y584198D01*
X963928Y581658D01*
X619764Y429772D02*
Y445008D01*
X627382D01*
X629921Y442468D01*
Y437390D01*
X627382Y434851D01*
X619764D01*
X624842D02*
X629921Y429772D01*
X634999Y432312D02*
X637538Y429772D01*
X642617D01*
X645156Y432312D01*
Y442468D01*
X642617Y445008D01*
X637538D01*
X634999Y442468D01*
Y439929D01*
X637538Y437390D01*
X645156D01*
X824234Y552453D02*
Y567687D01*
X831852D01*
X834391Y565148D01*
Y560070D01*
X831852Y557531D01*
X824234D01*
X829313D02*
X834391Y552453D01*
X839469Y565148D02*
X842008Y567687D01*
X847087D01*
X849626Y565148D01*
Y562609D01*
X847087Y560070D01*
X849626Y557531D01*
Y554992D01*
X847087Y552453D01*
X842008D01*
X839469Y554992D01*
Y557531D01*
X842008Y560070D01*
X839469Y562609D01*
Y565148D01*
X842008Y560070D02*
X847087D01*
X985524Y476253D02*
Y491488D01*
X993142D01*
X995681Y488948D01*
Y483870D01*
X993142Y481331D01*
X985524D01*
X990602D02*
X995681Y476253D01*
X1000759Y491488D02*
X1010916D01*
Y488948D01*
X1000759Y478792D01*
Y476253D01*
X975364Y666752D02*
Y681988D01*
X982982D01*
X985521Y679448D01*
Y674370D01*
X982982Y671831D01*
X975364D01*
X980443D02*
X985521Y666752D01*
X1000756Y681988D02*
X995677Y679448D01*
X990599Y674370D01*
Y669292D01*
X993138Y666752D01*
X998217D01*
X1000756Y669292D01*
Y671831D01*
X998217Y674370D01*
X990599D01*
X976634Y607062D02*
Y622298D01*
X984252D01*
X986791Y619758D01*
Y614680D01*
X984252Y612141D01*
X976634D01*
X981712D02*
X986791Y607062D01*
X1002026Y622298D02*
X991869D01*
Y614680D01*
X996947Y617219D01*
X999487D01*
X1002026Y614680D01*
Y609602D01*
X999487Y607062D01*
X994408D01*
X991869Y609602D01*
X979174Y633732D02*
Y648968D01*
X986792D01*
X989331Y646428D01*
Y641350D01*
X986792Y638811D01*
X979174D01*
X984252D02*
X989331Y633732D01*
X1002027D02*
Y648968D01*
X994409Y641350D01*
X1004566D01*
X822964Y717552D02*
Y732787D01*
X830582D01*
X833121Y730248D01*
Y725170D01*
X830582Y722631D01*
X822964D01*
X828043D02*
X833121Y717552D01*
X838199Y730248D02*
X840738Y732787D01*
X845817D01*
X848356Y730248D01*
Y727709D01*
X845817Y725170D01*
X843278D01*
X845817D01*
X848356Y722631D01*
Y720092D01*
X845817Y717552D01*
X840738D01*
X838199Y720092D01*
X839473Y650236D02*
X854707D01*
Y642618D01*
X852168Y640079D01*
X847090D01*
X844551Y642618D01*
Y650236D01*
Y645157D02*
X839473Y640079D01*
Y624844D02*
Y635001D01*
X849629Y624844D01*
X852168D01*
X854707Y627383D01*
Y632462D01*
X852168Y635001D01*
X863603Y647697D02*
X878838D01*
Y640079D01*
X876298Y637540D01*
X871220D01*
X868681Y640079D01*
Y647697D01*
Y642618D02*
X863603Y637540D01*
Y632462D02*
Y627383D01*
Y629922D01*
X878838D01*
X876298Y632462D01*
X1014730Y452122D02*
Y462278D01*
X1012191Y464818D01*
X1007113D01*
X1004573Y462278D01*
Y452122D01*
X1007113Y449582D01*
X1012191D01*
X1009652Y454661D02*
X1014730Y449582D01*
X1012191D02*
X1014730Y452122D01*
X1019808Y449582D02*
X1024887D01*
X1022348D01*
Y464818D01*
X1019808Y462278D01*
X910591Y760727D02*
X905512D01*
X908052D01*
Y748032D01*
X905512Y745492D01*
X902973D01*
X900434Y748032D01*
X915669Y758188D02*
X918208Y760727D01*
X923287D01*
X925826Y758188D01*
Y755649D01*
X923287Y753110D01*
X920748D01*
X923287D01*
X925826Y750571D01*
Y748032D01*
X923287Y745492D01*
X918208D01*
X915669Y748032D01*
X810962Y532762D02*
Y517527D01*
X818580D01*
X821119Y520066D01*
Y530223D01*
X818580Y532762D01*
X810962D01*
X836354Y517527D02*
X826197D01*
X836354Y527684D01*
Y530223D01*
X833815Y532762D01*
X828736D01*
X826197Y530223D01*
X967738Y628647D02*
X952503D01*
Y621029D01*
X955042Y618490D01*
X965198D01*
X967738Y621029D01*
Y628647D01*
X952503Y613412D02*
Y608333D01*
Y610872D01*
X967738D01*
X965198Y613412D01*
X709931Y447038D02*
X707392Y449577D01*
X702313D01*
X699774Y447038D01*
Y436882D01*
X702313Y434342D01*
X707392D01*
X709931Y436882D01*
X715009Y449577D02*
X725166D01*
Y447038D01*
X715009Y436882D01*
Y434342D01*
X670561Y449218D02*
X668022Y451758D01*
X662943D01*
X660404Y449218D01*
Y439062D01*
X662943Y436522D01*
X668022D01*
X670561Y439062D01*
X685796Y451758D02*
X680717Y449218D01*
X675639Y444140D01*
Y439062D01*
X678178Y436522D01*
X683257D01*
X685796Y439062D01*
Y441601D01*
X683257Y444140D01*
X675639D01*
X768351Y551178D02*
X765812Y553717D01*
X760733D01*
X758194Y551178D01*
Y541022D01*
X760733Y538483D01*
X765812D01*
X768351Y541022D01*
X783586Y553717D02*
X773429D01*
Y546100D01*
X778508Y548639D01*
X781047D01*
X783586Y546100D01*
Y541022D01*
X781047Y538483D01*
X775968D01*
X773429Y541022D01*
X769621Y524508D02*
X767082Y527048D01*
X762003D01*
X759464Y524508D01*
Y514352D01*
X762003Y511813D01*
X767082D01*
X769621Y514352D01*
X774699Y524508D02*
X777238Y527048D01*
X782317D01*
X784856Y524508D01*
Y521969D01*
X782317Y519430D01*
X779778D01*
X782317D01*
X784856Y516891D01*
Y514352D01*
X782317Y511813D01*
X777238D01*
X774699Y514352D01*
X1016001Y769618D02*
X1013462Y772158D01*
X1008383D01*
X1005844Y769618D01*
Y759462D01*
X1008383Y756923D01*
X1013462D01*
X1016001Y759462D01*
X1031236Y756923D02*
X1021079D01*
X1031236Y767079D01*
Y769618D01*
X1028697Y772158D01*
X1023618D01*
X1021079Y769618D01*
X1017270Y737868D02*
X1014731Y740407D01*
X1009652D01*
X1007113Y737868D01*
Y727712D01*
X1009652Y725173D01*
X1014731D01*
X1017270Y727712D01*
X1022348Y725173D02*
X1027427D01*
X1024888D01*
Y740407D01*
X1022348Y737868D01*
D16*
X923290Y571920D02*
X931754Y563456D01*
X923290D02*
X931754Y571920D01*
X923290Y567688D02*
X931754D01*
X927522Y563456D02*
Y571920D01*
M02*
