G04*
G04 #@! TF.GenerationSoftware,Altium Limited,Altium Designer,25.8.1 (18)*
G04*
G04 Layer_Color=32768*
%FSLAX44Y44*%
%MOMM*%
G71*
G04*
G04 #@! TF.SameCoordinates,B962B673-1AC8-49EC-9CCC-188C0FAC6781*
G04*
G04*
G04 #@! TF.FilePolarity,Positive*
G04*
G01*
G75*
%ADD10C,0.2000*%
%ADD12C,0.1524*%
%ADD66C,0.1000*%
%ADD67C,0.0500*%
G36*
X536750Y121460D02*
Y330660D01*
X568150D01*
Y121460D01*
X536750D01*
D02*
G37*
G36*
X935101Y511556D02*
X920496D01*
Y560324D01*
X935101D01*
Y564007D01*
X980059D01*
Y560324D01*
X994664D01*
Y511556D01*
X980059D01*
Y507873D01*
X935101D01*
Y511556D01*
D02*
G37*
D10*
X970690Y475640D02*
Y494640D01*
X926690D02*
X970690D01*
X926690Y475640D02*
Y494640D01*
Y475640D02*
X970690D01*
X658520Y703990D02*
X677520D01*
X658520Y659990D02*
Y703990D01*
Y659990D02*
X677520D01*
Y703990D01*
X855570Y569570D02*
X899570D01*
Y550570D02*
Y569570D01*
X855570Y550570D02*
X899570D01*
X855570D02*
Y569570D01*
X943950Y657100D02*
Y689100D01*
X922950Y657100D02*
X943950D01*
X922950D02*
Y689100D01*
X943950D01*
X898820Y657100D02*
Y689100D01*
X919820D01*
Y657100D02*
Y689100D01*
X898820Y657100D02*
X919820D01*
X499620Y308270D02*
X531620D01*
X499620D02*
Y329270D01*
X531620D01*
Y308270D02*
Y329270D01*
X499620Y303870D02*
X531620D01*
Y282870D02*
Y303870D01*
X499620Y282870D02*
X531620D01*
X499620D02*
Y303870D01*
X640690Y450440D02*
Y494440D01*
X621690Y450440D02*
X640690D01*
X621690D02*
Y494440D01*
X640690D01*
X863430Y712340D02*
X962830D01*
X863430D02*
Y787590D01*
X962830D01*
Y712340D02*
Y787590D01*
X968250Y744560D02*
X1000250D01*
Y723560D02*
Y744560D01*
X968250Y723560D02*
X1000250D01*
X968250D02*
Y744560D01*
Y775040D02*
X1000250D01*
Y754040D02*
Y775040D01*
X968250Y754040D02*
X1000250D01*
X968250D02*
Y775040D01*
X861720Y656180D02*
Y700180D01*
X880720D01*
Y656180D02*
Y700180D01*
X861720Y656180D02*
X880720D01*
X837590D02*
Y700180D01*
X856590D01*
Y656180D02*
Y700180D01*
X837590Y656180D02*
X856590D01*
X701970Y456440D02*
Y488440D01*
X722970D01*
Y456440D02*
Y488440D01*
X701970Y456440D02*
X722970D01*
X662600D02*
Y488440D01*
X683600D01*
Y456440D02*
Y488440D01*
X662600Y456440D02*
X683600D01*
X642115Y504589D02*
Y582532D01*
X709165D01*
Y504589D02*
Y582532D01*
X642115Y504589D02*
X709165D01*
X721870Y508930D02*
X753870D01*
X721870D02*
Y529930D01*
X753870D01*
Y508930D02*
Y529930D01*
X721870Y535600D02*
X753870D01*
X721870D02*
Y556600D01*
X753870D01*
Y535600D02*
Y556600D01*
X724410Y762930D02*
X756410D01*
X724410D02*
Y783930D01*
X756410D01*
Y762930D02*
Y783930D01*
X724410Y758530D02*
X756410D01*
Y737530D02*
Y758530D01*
X724410Y737530D02*
X756410D01*
X724410D02*
Y758530D01*
X1007970Y682600D02*
X1051970D01*
Y663600D02*
Y682600D01*
X1007970Y663600D02*
X1051970D01*
X1007970D02*
Y682600D01*
X1009240Y605180D02*
X1053240D01*
X1009240D02*
Y624180D01*
X1053240D01*
Y605180D02*
Y624180D01*
X1009240Y633120D02*
X1053240D01*
X1009240D02*
Y652120D01*
X1053240D01*
Y633120D02*
Y652120D01*
X813660Y757530D02*
X857660D01*
Y738530D02*
Y757530D01*
X813660Y738530D02*
X857660D01*
X813660D02*
Y757530D01*
X784500Y38060D02*
Y160060D01*
Y38060D02*
X930000D01*
Y160060D01*
X784500D02*
X930000D01*
X783230Y340320D02*
Y462320D01*
Y340320D02*
X928730D01*
Y462320D01*
X783230D02*
X928730D01*
X961030Y188970D02*
Y310970D01*
Y188970D02*
X1106530D01*
Y310970D01*
X961030D02*
X1106530D01*
X783230Y188970D02*
Y310970D01*
Y188970D02*
X928730D01*
Y310970D01*
X783230D02*
X928730D01*
X601620Y188970D02*
Y310970D01*
Y188970D02*
X747120D01*
Y310970D01*
X601620D02*
X747120D01*
D12*
X920496Y511556D02*
X935101D01*
Y507873D02*
Y511556D01*
Y507873D02*
X980059D01*
Y511556D01*
X994664D01*
Y560324D01*
X980059D02*
X994664D01*
X980059D02*
Y564007D01*
X935101D02*
X980059D01*
X935101Y560324D02*
Y564007D01*
X920496Y560324D02*
X935101D01*
X920496Y511556D02*
Y560324D01*
D66*
X1088390Y609680D02*
Y619680D01*
X1083390Y614680D02*
X1093390D01*
X1083390Y673100D02*
X1093390D01*
X1088390Y668100D02*
Y678100D01*
X668100Y356870D02*
X678100D01*
X673100Y351870D02*
Y361870D01*
X668020Y633810D02*
Y643810D01*
X663020Y638810D02*
X673020D01*
D67*
X947850Y641400D02*
Y692100D01*
X969850D01*
Y641400D02*
Y692100D01*
X947850Y641400D02*
X969850D01*
X1067890Y606180D02*
Y623180D01*
X1108890D01*
Y606180D02*
Y623180D01*
X1067890Y606180D02*
X1108890D01*
X1067890Y664600D02*
X1108890D01*
Y681600D01*
X1067890D02*
X1108890D01*
X1067890Y664600D02*
Y681600D01*
X652600Y365370D02*
X693600D01*
X652600Y348370D02*
Y365370D01*
Y348370D02*
X693600D01*
Y365370D01*
X958330Y445970D02*
Y470970D01*
Y445970D02*
X994930D01*
Y470970D01*
X958330D02*
X994930D01*
X647520Y630310D02*
Y647310D01*
X688520D01*
Y630310D02*
Y647310D01*
X647520Y630310D02*
X688520D01*
X848410Y513510D02*
Y535510D01*
Y513510D02*
X899110D01*
Y535510D01*
X848410D02*
X899110D01*
X560Y443980D02*
X515060D01*
Y734080D01*
X560D02*
X515060D01*
X560Y443980D02*
Y734080D01*
M02*
