G04*
G04 #@! TF.GenerationSoftware,Altium Limited,Altium Designer,25.8.1 (18)*
G04*
G04 Layer_Color=12632256*
%FSLAX44Y44*%
%MOMM*%
G71*
G04*
G04 #@! TF.SameCoordinates,27DAFD06-0CF5-458B-9C25-98997F81EB0F*
G04*
G04*
G04 #@! TF.FilePolarity,Positive*
G04*
G01*
G75*
%ADD40C,1.8500*%
G04:AMPARAMS|DCode=44|XSize=1.1mm|YSize=1.7mm|CornerRadius=0.55mm|HoleSize=0mm|Usage=FLASHONLY|Rotation=180.000|XOffset=0mm|YOffset=0mm|HoleType=Round|Shape=RoundedRectangle|*
%AMROUNDEDRECTD44*
21,1,1.1000,0.6000,0,0,180.0*
21,1,0.0000,1.7000,0,0,180.0*
1,1,1.1000,0.0000,0.3000*
1,1,1.1000,0.0000,0.3000*
1,1,1.1000,0.0000,-0.3000*
1,1,1.1000,0.0000,-0.3000*
%
%ADD44ROUNDEDRECTD44*%
%ADD45R,1.8500X1.8500*%
%ADD52C,1.3080*%
%ADD53C,2.1000*%
%ADD54R,1.2000X1.2000*%
%ADD55C,2.0000*%
%ADD56C,1.6500*%
%ADD57C,1.2000*%
%ADD59C,3.0000*%
D40*
X1096280Y224970D02*
D03*
X918480D02*
D03*
X919750Y74060D02*
D03*
X918480Y376320D02*
D03*
X736870Y224970D02*
D03*
X794750Y74060D02*
D03*
X919750Y124060D02*
D03*
X793480Y376320D02*
D03*
X918480Y426320D02*
D03*
X971280Y224970D02*
D03*
X1096280Y274970D02*
D03*
X793480Y224970D02*
D03*
X918480Y274970D02*
D03*
X611870Y224970D02*
D03*
X736870Y274970D02*
D03*
D44*
X956330Y721840D02*
D03*
X869930D02*
D03*
X956330Y759840D02*
D03*
X869930D02*
D03*
D45*
X794750Y124060D02*
D03*
X793480Y426320D02*
D03*
X971280Y274970D02*
D03*
X793480D02*
D03*
X611870D02*
D03*
D52*
X687070Y763270D02*
D03*
X647070D02*
D03*
X667070D02*
D03*
D53*
X708570D02*
D03*
X625570D02*
D03*
D54*
X1106170Y485140D02*
D03*
D55*
X128060Y716280D02*
D03*
Y462280D02*
D03*
X153460Y716280D02*
D03*
X229660D02*
D03*
X204260D02*
D03*
X255060D02*
D03*
X102660Y462280D02*
D03*
X153460D02*
D03*
X178860D02*
D03*
X204260D02*
D03*
X229660D02*
D03*
X255060D02*
D03*
X280460D02*
D03*
X305860D02*
D03*
X331260D02*
D03*
X356660D02*
D03*
X382060D02*
D03*
X407460D02*
D03*
X432860D02*
D03*
X458260D02*
D03*
X102660Y716280D02*
D03*
X178860D02*
D03*
X280460D02*
D03*
X305860D02*
D03*
X331260D02*
D03*
X356660D02*
D03*
X382060D02*
D03*
X407460D02*
D03*
X432860D02*
D03*
X458260D02*
D03*
D56*
X552450Y314960D02*
D03*
Y289560D02*
D03*
Y264160D02*
D03*
Y238760D02*
D03*
Y213360D02*
D03*
Y187960D02*
D03*
Y161290D02*
D03*
Y137160D02*
D03*
D57*
X1106170Y505140D02*
D03*
D59*
X492560Y466480D02*
D03*
Y711580D02*
D03*
X23060D02*
D03*
Y466480D02*
D03*
M02*
