G04*
G04 #@! TF.GenerationSoftware,Altium Limited,Altium Designer,26.1.1 (7)*
G04*
G04 Layer_Color=8421504*
%FSLAX44Y44*%
%MOMM*%
G71*
G04*
G04 #@! TF.SameCoordinates,836AC57B-FE3C-46D6-8C59-182D9EBDFD6B*
G04*
G04*
G04 #@! TF.FilePolarity,Positive*
G04*
G01*
G75*
%ADD18R,1.3300X1.3300*%
%ADD19R,2.0000X0.9000*%
%ADD20R,0.9000X2.0000*%
G04:AMPARAMS|DCode=21|XSize=1.04mm|YSize=1.77mm|CornerRadius=0.1mm|HoleSize=0mm|Usage=FLASHONLY|Rotation=270.000|XOffset=0mm|YOffset=0mm|HoleType=Round|Shape=RoundedRectangle|*
%AMROUNDEDRECTD21*
21,1,1.0400,1.5700,0,0,270.0*
21,1,0.8400,1.7700,0,0,270.0*
1,1,0.2000,-0.7850,-0.4200*
1,1,0.2000,-0.7850,0.4200*
1,1,0.2000,0.7850,0.4200*
1,1,0.2000,0.7850,-0.4200*
%
%ADD21ROUNDEDRECTD21*%
%ADD22R,1.2000X1.5000*%
%ADD23R,1.5000X1.3000*%
%ADD24R,1.3000X1.5000*%
G04:AMPARAMS|DCode=25|XSize=1.31mm|YSize=0.93mm|CornerRadius=0.0698mm|HoleSize=0mm|Usage=FLASHONLY|Rotation=0.000|XOffset=0mm|YOffset=0mm|HoleType=Round|Shape=RoundedRectangle|*
%AMROUNDEDRECTD25*
21,1,1.3100,0.7905,0,0,0.0*
21,1,1.1705,0.9300,0,0,0.0*
1,1,0.1395,0.5853,-0.3953*
1,1,0.1395,-0.5853,-0.3953*
1,1,0.1395,-0.5853,0.3953*
1,1,0.1395,0.5853,0.3953*
%
%ADD25ROUNDEDRECTD25*%
G04:AMPARAMS|DCode=26|XSize=1.97mm|YSize=0.6mm|CornerRadius=0.075mm|HoleSize=0mm|Usage=FLASHONLY|Rotation=90.000|XOffset=0mm|YOffset=0mm|HoleType=Round|Shape=RoundedRectangle|*
%AMROUNDEDRECTD26*
21,1,1.9700,0.4500,0,0,90.0*
21,1,1.8200,0.6000,0,0,90.0*
1,1,0.1500,0.2250,0.9100*
1,1,0.1500,0.2250,-0.9100*
1,1,0.1500,-0.2250,-0.9100*
1,1,0.1500,-0.2250,0.9100*
%
%ADD26ROUNDEDRECTD26*%
G04:AMPARAMS|DCode=27|XSize=1.04mm|YSize=1.77mm|CornerRadius=0.1mm|HoleSize=0mm|Usage=FLASHONLY|Rotation=0.000|XOffset=0mm|YOffset=0mm|HoleType=Round|Shape=RoundedRectangle|*
%AMROUNDEDRECTD27*
21,1,1.0400,1.5700,0,0,0.0*
21,1,0.8400,1.7700,0,0,0.0*
1,1,0.2000,0.4200,-0.7850*
1,1,0.2000,-0.4200,-0.7850*
1,1,0.2000,-0.4200,0.7850*
1,1,0.2000,0.4200,0.7850*
%
%ADD27ROUNDEDRECTD27*%
%ADD28R,0.6000X1.1500*%
G04:AMPARAMS|DCode=29|XSize=1.31mm|YSize=0.62mm|CornerRadius=0.0775mm|HoleSize=0mm|Usage=FLASHONLY|Rotation=180.000|XOffset=0mm|YOffset=0mm|HoleType=Round|Shape=RoundedRectangle|*
%AMROUNDEDRECTD29*
21,1,1.3100,0.4650,0,0,180.0*
21,1,1.1550,0.6200,0,0,180.0*
1,1,0.1550,-0.5775,0.2325*
1,1,0.1550,0.5775,0.2325*
1,1,0.1550,0.5775,-0.2325*
1,1,0.1550,-0.5775,-0.2325*
%
%ADD29ROUNDEDRECTD29*%
%ADD30R,3.3500X3.2000*%
%ADD31R,0.3000X1.1500*%
G04:AMPARAMS|DCode=32|XSize=1mm|YSize=0.65mm|CornerRadius=0.0813mm|HoleSize=0mm|Usage=FLASHONLY|Rotation=90.000|XOffset=0mm|YOffset=0mm|HoleType=Round|Shape=RoundedRectangle|*
%AMROUNDEDRECTD32*
21,1,1.0000,0.4875,0,0,90.0*
21,1,0.8375,0.6500,0,0,90.0*
1,1,0.1625,0.2438,0.4188*
1,1,0.1625,0.2438,-0.4188*
1,1,0.1625,-0.2438,-0.4188*
1,1,0.1625,-0.2438,0.4188*
%
%ADD32ROUNDEDRECTD32*%
G04:AMPARAMS|DCode=33|XSize=1mm|YSize=0.65mm|CornerRadius=0.0813mm|HoleSize=0mm|Usage=FLASHONLY|Rotation=180.000|XOffset=0mm|YOffset=0mm|HoleType=Round|Shape=RoundedRectangle|*
%AMROUNDEDRECTD33*
21,1,1.0000,0.4875,0,0,180.0*
21,1,0.8375,0.6500,0,0,180.0*
1,1,0.1625,-0.4188,0.2438*
1,1,0.1625,0.4188,0.2438*
1,1,0.1625,0.4188,-0.2438*
1,1,0.1625,-0.4188,-0.2438*
%
%ADD33ROUNDEDRECTD33*%
G04:AMPARAMS|DCode=34|XSize=1.31mm|YSize=3.24mm|CornerRadius=0.0983mm|HoleSize=0mm|Usage=FLASHONLY|Rotation=0.000|XOffset=0mm|YOffset=0mm|HoleType=Round|Shape=RoundedRectangle|*
%AMROUNDEDRECTD34*
21,1,1.3100,3.0435,0,0,0.0*
21,1,1.1135,3.2400,0,0,0.0*
1,1,0.1965,0.5568,-1.5218*
1,1,0.1965,-0.5568,-1.5218*
1,1,0.1965,-0.5568,1.5218*
1,1,0.1965,0.5568,1.5218*
%
%ADD34ROUNDEDRECTD34*%
G36*
X342270Y204870D02*
Y191370D01*
X320670D01*
Y204870D01*
X342270D01*
D02*
G37*
D18*
X545650Y487040D02*
D03*
X527300D02*
D03*
X508950D02*
D03*
X545650Y505390D02*
D03*
X527300D02*
D03*
X508950D02*
D03*
X545650Y523740D02*
D03*
X527300D02*
D03*
X508950D02*
D03*
D19*
X622300Y580390D02*
D03*
Y567690D02*
D03*
Y554990D02*
D03*
Y542290D02*
D03*
Y529590D02*
D03*
Y516890D02*
D03*
Y504190D02*
D03*
Y491490D02*
D03*
Y478790D02*
D03*
Y466090D02*
D03*
Y453390D02*
D03*
Y440690D02*
D03*
Y427990D02*
D03*
Y415290D02*
D03*
X452300D02*
D03*
Y427990D02*
D03*
Y440690D02*
D03*
Y453390D02*
D03*
Y466090D02*
D03*
Y478790D02*
D03*
Y491490D02*
D03*
Y504190D02*
D03*
Y516890D02*
D03*
Y529590D02*
D03*
Y542290D02*
D03*
Y554990D02*
D03*
Y567690D02*
D03*
Y580390D02*
D03*
D20*
X594450Y405290D02*
D03*
X581750D02*
D03*
X569050D02*
D03*
X556350D02*
D03*
X543650D02*
D03*
X530950D02*
D03*
X518250D02*
D03*
X505550D02*
D03*
X492850D02*
D03*
X480150D02*
D03*
D21*
X293370Y322420D02*
D03*
Y353220D02*
D03*
X386080Y275750D02*
D03*
X760730Y546260D02*
D03*
X924560Y119540D02*
D03*
X260350Y173830D02*
D03*
Y204630D02*
D03*
X243840Y409100D02*
D03*
Y378300D02*
D03*
X924560Y88740D02*
D03*
X386080Y244950D02*
D03*
X760730Y515460D02*
D03*
D22*
X1045680Y46990D02*
D03*
X1072680D02*
D03*
D23*
X455000Y304190D02*
D03*
Y323190D02*
D03*
X430000D02*
D03*
X894080Y561950D02*
D03*
Y542950D02*
D03*
X911860Y157480D02*
D03*
X937260Y156820D02*
D03*
X325120Y109880D02*
D03*
X287020Y207670D02*
D03*
X364490Y575310D02*
D03*
X386080D02*
D03*
X407670D02*
D03*
X894080Y490880D02*
D03*
Y509880D02*
D03*
X911860Y138480D02*
D03*
X937260Y137820D02*
D03*
X364490Y556310D02*
D03*
X386080D02*
D03*
X407670D02*
D03*
X430000Y304190D02*
D03*
X325120Y128880D02*
D03*
X287020Y188570D02*
D03*
Y169570D02*
D03*
Y226670D02*
D03*
D24*
X438810Y165100D02*
D03*
X518770Y229870D02*
D03*
Y251460D02*
D03*
X352450Y431800D02*
D03*
X361290Y270510D02*
D03*
X204520Y151130D02*
D03*
X203860Y129540D02*
D03*
X499770Y229870D02*
D03*
Y251460D02*
D03*
X457810Y165100D02*
D03*
X222860Y129540D02*
D03*
X223520Y151130D02*
D03*
X342290Y248920D02*
D03*
Y270510D02*
D03*
X371450Y431800D02*
D03*
X361290Y248920D02*
D03*
D25*
X498680Y323890D02*
D03*
Y300990D02*
D03*
Y278090D02*
D03*
D26*
X350520Y173370D02*
D03*
X325120D02*
D03*
X312420D02*
D03*
X337820D02*
D03*
X350520Y222870D02*
D03*
X337820D02*
D03*
X325120D02*
D03*
X312420D02*
D03*
D27*
X415450Y190500D02*
D03*
X871380Y486410D02*
D03*
X928210Y528320D02*
D03*
X959010D02*
D03*
X371950Y533400D02*
D03*
X599280Y326390D02*
D03*
X415450Y220980D02*
D03*
X384650Y190500D02*
D03*
Y220980D02*
D03*
X402750Y533400D02*
D03*
X630080Y326390D02*
D03*
X840580Y486410D02*
D03*
D28*
X796040Y517600D02*
D03*
X860040D02*
D03*
X804040D02*
D03*
X852040D02*
D03*
D29*
X388180Y325120D02*
D03*
Y337820D02*
D03*
Y350520D02*
D03*
Y363220D02*
D03*
Y375920D02*
D03*
Y388620D02*
D03*
Y401320D02*
D03*
Y414020D02*
D03*
X333180D02*
D03*
Y401320D02*
D03*
Y388620D02*
D03*
Y375920D02*
D03*
Y363220D02*
D03*
Y350520D02*
D03*
Y337820D02*
D03*
Y325120D02*
D03*
D30*
X459790Y95250D02*
D03*
X370790D02*
D03*
D31*
X825540Y517600D02*
D03*
X835540D02*
D03*
X820540D02*
D03*
X830540D02*
D03*
X845540D02*
D03*
X840540D02*
D03*
X810540D02*
D03*
X815540D02*
D03*
D32*
X281330Y385510D02*
D03*
X300330D02*
D03*
X290830Y409510D02*
D03*
D33*
X256410Y328320D02*
D03*
Y347320D02*
D03*
X232410Y337820D02*
D03*
D34*
X565580Y300990D02*
D03*
M02*
