G04*
G04 #@! TF.GenerationSoftware,Altium Limited,Altium Designer,26.1.1 (7)*
G04*
G04 Layer_Color=65535*
%FSLAX44Y44*%
%MOMM*%
G71*
G04*
G04 #@! TF.SameCoordinates,836AC57B-FE3C-46D6-8C59-182D9EBDFD6B*
G04*
G04*
G04 #@! TF.FilePolarity,Positive*
G04*
G01*
G75*
%ADD10C,0.2000*%
%ADD11C,0.5080*%
%ADD12C,0.3000*%
%ADD13C,0.1270*%
%ADD14C,0.1500*%
%ADD15C,0.4000*%
%ADD16C,0.1524*%
%ADD17C,0.2540*%
D10*
X438300Y580290D02*
G03*
X438300Y580290I-1000J0D01*
G01*
X389180Y312020D02*
G03*
X389180Y312020I-1000J0D01*
G01*
X309970Y158120D02*
G03*
X309970Y158120I-1000J0D01*
G01*
X282330Y373910D02*
G03*
X282330Y373910I-1000J0D01*
G01*
X269010Y328320D02*
G03*
X269010Y328320I-1000J0D01*
G01*
X483130Y323890D02*
G03*
X483130Y323890I-1000J0D01*
G01*
X26400Y355750D02*
G03*
X26400Y355750I-1000J0D01*
G01*
X959740Y472450D02*
G03*
X959740Y472450I-1000J0D01*
G01*
X861540Y505150D02*
G03*
X861540Y505150I-1000J0D01*
G01*
X1055680Y54490D02*
X1062680D01*
X1055680Y39490D02*
X1062680D01*
X360290Y145250D02*
X470290D01*
X360290Y45250D02*
X470290D01*
X981440Y119650D02*
Y477250D01*
X954040D02*
X981440D01*
X954040Y119650D02*
Y477250D01*
Y119650D02*
X981440D01*
X783340Y538650D02*
Y551150D01*
X872740Y538650D02*
Y551150D01*
X783340Y578350D02*
Y591150D01*
X872740Y578350D02*
Y591150D01*
D11*
X87122Y38100D02*
G03*
X94742Y38100I3810J0D01*
G01*
D02*
G03*
X87122Y38100I-3810J0D01*
G01*
D12*
X1051880Y104210D02*
G03*
X1051880Y104210I-1000J0D01*
G01*
X1053150Y411550D02*
G03*
X1053150Y411550I-1000J0D01*
G01*
D13*
X627300Y400290D02*
Y406790D01*
X602800Y400290D02*
X627300D01*
X447300D02*
X471800D01*
X447300D02*
Y406790D01*
X342930Y319570D02*
X378430D01*
X342930Y419570D02*
X378430D01*
X342930Y319570D02*
X378430D01*
X342930Y419570D02*
X378430D01*
X306280Y178120D02*
Y218120D01*
X356660Y178120D02*
Y218120D01*
X276330Y404010D02*
X283830D01*
X297830D02*
X305330D01*
Y395510D02*
Y404010D01*
X276330Y395510D02*
Y404010D01*
X237910Y323320D02*
Y330820D01*
Y344820D02*
Y352320D01*
X246410D01*
X237910Y323320D02*
X246410D01*
X514605Y333515D02*
X549655D01*
Y268465D02*
Y333515D01*
X514605Y268465D02*
X549655D01*
X514605D02*
Y333515D01*
X12700Y247650D02*
Y349250D01*
X38100Y247650D02*
Y349250D01*
X12700Y247650D02*
X38100D01*
X12700Y349250D02*
X38100D01*
X1060680Y122450D02*
X1083380D01*
X1041930Y131100D02*
Y176100D01*
X1060380Y182350D02*
X1083380D01*
X1101880Y128400D02*
Y176400D01*
X1061950Y429790D02*
X1084650D01*
X1043200Y438440D02*
Y483440D01*
X1061650Y489690D02*
X1084650D01*
X1103150Y435740D02*
Y483740D01*
D14*
X284570Y329870D02*
Y345770D01*
X302170Y329870D02*
Y345770D01*
X252640Y385750D02*
Y401650D01*
X235040Y385750D02*
Y401650D01*
X251550Y181280D02*
Y197180D01*
X269150Y181280D02*
Y197180D01*
X392100Y212180D02*
X408000D01*
X392100Y229780D02*
X408000D01*
X379400Y542200D02*
X395300D01*
X379400Y524600D02*
X395300D01*
X915760Y96190D02*
Y112090D01*
X933360Y96190D02*
Y112090D01*
X606730Y335190D02*
X622630D01*
X606730Y317590D02*
X622630D01*
X392100Y199300D02*
X408000D01*
X392100Y181700D02*
X408000D01*
X377280Y252400D02*
Y268300D01*
X394880Y252400D02*
Y268300D01*
X848030Y495210D02*
X863930D01*
X848030Y477610D02*
X863930D01*
X751930Y522910D02*
Y538810D01*
X769530Y522910D02*
Y538810D01*
X935660Y537120D02*
X951560D01*
X935660Y519520D02*
X951560D01*
D15*
X1083680Y39490D02*
Y54490D01*
D16*
X1016753Y242260D02*
Y282980D01*
X1136387Y324080D02*
Y364434D01*
X1058789Y242260D02*
X1094351D01*
X1108789D02*
X1136387D01*
Y282980D01*
X1016753Y242260D02*
X1044351D01*
X1016753Y324080D02*
Y364434D01*
X1136387D01*
D17*
X1041400Y82550D02*
Y97785D01*
X1049017D01*
X1051557Y95246D01*
Y90168D01*
X1049017Y87628D01*
X1041400D01*
X1046478D02*
X1051557Y82550D01*
X1064253D02*
X1059174D01*
X1056635Y85089D01*
Y90168D01*
X1059174Y92707D01*
X1064253D01*
X1066792Y90168D01*
Y87628D01*
X1056635D01*
X1071870Y82550D02*
X1079488D01*
X1082027Y85089D01*
X1079488Y87628D01*
X1074409D01*
X1071870Y90168D01*
X1074409Y92707D01*
X1082027D01*
X1094723Y82550D02*
X1089644D01*
X1087105Y85089D01*
Y90168D01*
X1089644Y92707D01*
X1094723D01*
X1097262Y90168D01*
Y87628D01*
X1087105D01*
X1104880Y95246D02*
Y92707D01*
X1102340D01*
X1107419D01*
X1104880D01*
Y85089D01*
X1107419Y82550D01*
X1047750Y524505D02*
Y509270D01*
X1055368D01*
X1057907Y511809D01*
Y514348D01*
X1055368Y516888D01*
X1047750D01*
X1055368D01*
X1057907Y519427D01*
Y521966D01*
X1055368Y524505D01*
X1047750D01*
X1070603D02*
X1065524D01*
X1062985Y521966D01*
Y511809D01*
X1065524Y509270D01*
X1070603D01*
X1073142Y511809D01*
Y521966D01*
X1070603Y524505D01*
X1085838D02*
X1080759D01*
X1078220Y521966D01*
Y511809D01*
X1080759Y509270D01*
X1085838D01*
X1088377Y511809D01*
Y521966D01*
X1085838Y524505D01*
X1093455D02*
X1103612D01*
X1098534D01*
Y509270D01*
X285872Y364031D02*
Y370029D01*
X288871D01*
X289871Y369029D01*
Y367030D01*
X288871Y366030D01*
X285872D01*
X287872D02*
X289871Y364031D01*
X291870D02*
X293870D01*
X292870D01*
Y370029D01*
X291870Y369029D01*
X300868Y364031D02*
X296869D01*
X300868Y368030D01*
Y369029D01*
X299868Y370029D01*
X297868D01*
X296869Y369029D01*
X236858Y420371D02*
Y427989D01*
X240666D01*
X241936Y426719D01*
Y424180D01*
X240666Y422910D01*
X236858D01*
X239397D02*
X241936Y420371D01*
X244475D02*
X247014D01*
X245745D01*
Y427989D01*
X244475Y426719D01*
X250823Y420371D02*
X253362D01*
X252093D01*
Y427989D01*
X250823Y426719D01*
X606428Y303531D02*
Y311149D01*
X610237D01*
X611506Y309879D01*
Y307340D01*
X610237Y306070D01*
X606428D01*
X608967D02*
X611506Y303531D01*
X614046D02*
X616585D01*
X615315D01*
Y311149D01*
X614046Y309879D01*
X620394D02*
X621663Y311149D01*
X624202D01*
X625472Y309879D01*
Y304801D01*
X624202Y303531D01*
X621663D01*
X620394Y304801D01*
Y309879D01*
X414022Y528321D02*
Y535939D01*
X417831D01*
X419100Y534669D01*
Y532130D01*
X417831Y530860D01*
X414022D01*
X416561D02*
X419100Y528321D01*
X421640Y529591D02*
X422909Y528321D01*
X425448D01*
X426718Y529591D01*
Y534669D01*
X425448Y535939D01*
X422909D01*
X421640Y534669D01*
Y533400D01*
X422909Y532130D01*
X426718D01*
X290830Y422911D02*
Y427989D01*
X289561Y429259D01*
X287022D01*
X285752Y427989D01*
Y422911D01*
X287022Y421641D01*
X289561D01*
X288291Y424180D02*
X290830Y421641D01*
X289561D02*
X290830Y422911D01*
X298448Y421641D02*
X293370D01*
X298448Y426720D01*
Y427989D01*
X297178Y429259D01*
X294639D01*
X293370Y427989D01*
X246950Y359411D02*
Y364489D01*
X245680Y365759D01*
X243141D01*
X241872Y364489D01*
Y359411D01*
X243141Y358141D01*
X245680D01*
X244411Y360680D02*
X246950Y358141D01*
X245680D02*
X246950Y359411D01*
X249489Y358141D02*
X252028D01*
X250759D01*
Y365759D01*
X249489Y364489D01*
X176532Y153669D02*
X175262Y154939D01*
X172723D01*
X171453Y153669D01*
Y148591D01*
X172723Y147321D01*
X175262D01*
X176532Y148591D01*
X184149Y147321D02*
X179071D01*
X184149Y152400D01*
Y153669D01*
X182880Y154939D01*
X180340D01*
X179071Y153669D01*
X186688D02*
X187958Y154939D01*
X190497D01*
X191767Y153669D01*
Y148591D01*
X190497Y147321D01*
X187958D01*
X186688Y148591D01*
Y153669D01*
X175896Y132079D02*
X174627Y133349D01*
X172088D01*
X170818Y132079D01*
Y127001D01*
X172088Y125731D01*
X174627D01*
X175896Y127001D01*
X178436Y125731D02*
X180975D01*
X179705D01*
Y133349D01*
X178436Y132079D01*
X184784Y127001D02*
X186053Y125731D01*
X188592D01*
X189862Y127001D01*
Y132079D01*
X188592Y133349D01*
X186053D01*
X184784Y132079D01*
Y130810D01*
X186053Y129540D01*
X189862D01*
X357506Y450849D02*
X356237Y452119D01*
X353698D01*
X352428Y450849D01*
Y445771D01*
X353698Y444501D01*
X356237D01*
X357506Y445771D01*
X360046Y444501D02*
X362585D01*
X361315D01*
Y452119D01*
X360046Y450849D01*
X371472Y452119D02*
X366394D01*
Y448310D01*
X368933Y449580D01*
X370202D01*
X371472Y448310D01*
Y445771D01*
X370202Y444501D01*
X367663D01*
X366394Y445771D01*
X426722Y186691D02*
Y194309D01*
X430531D01*
X431800Y193039D01*
Y190500D01*
X430531Y189230D01*
X426722D01*
X429261D02*
X431800Y186691D01*
X434340Y193039D02*
X435609Y194309D01*
X438148D01*
X439418Y193039D01*
Y191770D01*
X438148Y190500D01*
X439418Y189230D01*
Y187961D01*
X438148Y186691D01*
X435609D01*
X434340Y187961D01*
Y189230D01*
X435609Y190500D01*
X434340Y191770D01*
Y193039D01*
X435609Y190500D02*
X438148D01*
X426722Y218441D02*
Y226059D01*
X430531D01*
X431800Y224789D01*
Y222250D01*
X430531Y220980D01*
X426722D01*
X429261D02*
X431800Y218441D01*
X434340Y226059D02*
X439418D01*
Y224789D01*
X434340Y219711D01*
Y218441D01*
X379732Y285751D02*
Y293369D01*
X383541D01*
X384810Y292099D01*
Y289560D01*
X383541Y288290D01*
X379732D01*
X382271D02*
X384810Y285751D01*
X392428Y293369D02*
X389889Y292099D01*
X387350Y289560D01*
Y287021D01*
X388619Y285751D01*
X391158D01*
X392428Y287021D01*
Y288290D01*
X391158Y289560D01*
X387350D01*
X233682Y186691D02*
Y194309D01*
X237491D01*
X238760Y193039D01*
Y190500D01*
X237491Y189230D01*
X233682D01*
X236221D02*
X238760Y186691D01*
X246378Y194309D02*
X241300D01*
Y190500D01*
X243839Y191770D01*
X245108D01*
X246378Y190500D01*
Y187961D01*
X245108Y186691D01*
X242569D01*
X241300Y187961D01*
X970284Y520703D02*
Y535938D01*
X977902D01*
X980441Y533398D01*
Y528320D01*
X977902Y525781D01*
X970284D01*
X975362D02*
X980441Y520703D01*
X993137D02*
Y535938D01*
X985519Y528320D01*
X995676D01*
X850902Y464821D02*
Y472439D01*
X854711D01*
X855980Y471169D01*
Y468630D01*
X854711Y467360D01*
X850902D01*
X853441D02*
X855980Y464821D01*
X858520Y471169D02*
X859789Y472439D01*
X862328D01*
X863598Y471169D01*
Y469900D01*
X862328Y468630D01*
X861059D01*
X862328D01*
X863598Y467360D01*
Y466091D01*
X862328Y464821D01*
X859789D01*
X858520Y466091D01*
X755652Y556261D02*
Y563879D01*
X759461D01*
X760730Y562609D01*
Y560070D01*
X759461Y558800D01*
X755652D01*
X758191D02*
X760730Y556261D01*
X768348D02*
X763270D01*
X768348Y561340D01*
Y562609D01*
X767078Y563879D01*
X764539D01*
X763270Y562609D01*
X900432Y100331D02*
Y107949D01*
X904240D01*
X905510Y106679D01*
Y104140D01*
X904240Y102870D01*
X900432D01*
X902971D02*
X905510Y100331D01*
X908049D02*
X910588D01*
X909319D01*
Y107949D01*
X908049Y106679D01*
X482602Y144779D02*
Y137161D01*
X487680D01*
X495298D02*
X490220D01*
X495298Y142240D01*
Y143509D01*
X494028Y144779D01*
X491489D01*
X490220Y143509D01*
X913129Y184784D02*
X914399Y186053D01*
Y188592D01*
X913129Y189862D01*
X908051D01*
X906781Y188592D01*
Y186053D01*
X908051Y184784D01*
X906781Y182244D02*
Y179705D01*
Y180975D01*
X914399D01*
X913129Y182244D01*
X906781Y172088D02*
X914399D01*
X910590Y175896D01*
Y170818D01*
X941069Y186054D02*
X942339Y187323D01*
Y189862D01*
X941069Y191132D01*
X935991D01*
X934721Y189862D01*
Y187323D01*
X935991Y186054D01*
X934721Y183514D02*
Y180975D01*
Y182245D01*
X942339D01*
X941069Y183514D01*
Y177166D02*
X942339Y175897D01*
Y173358D01*
X941069Y172088D01*
X939800D01*
X938530Y173358D01*
Y174627D01*
Y173358D01*
X937260Y172088D01*
X935991D01*
X934721Y173358D01*
Y175897D01*
X935991Y177166D01*
X412116Y167639D02*
X410847Y168909D01*
X408308D01*
X407038Y167639D01*
Y162561D01*
X408308Y161291D01*
X410847D01*
X412116Y162561D01*
X414656Y161291D02*
X417195D01*
X415925D01*
Y168909D01*
X414656Y167639D01*
X426082Y161291D02*
X421004D01*
X426082Y166370D01*
Y167639D01*
X424812Y168909D01*
X422273D01*
X421004Y167639D01*
X268606Y156209D02*
X267336Y157479D01*
X264797D01*
X263528Y156209D01*
Y151131D01*
X264797Y149861D01*
X267336D01*
X268606Y151131D01*
X271145Y149861D02*
X273684D01*
X272415D01*
Y157479D01*
X271145Y156209D01*
X277493Y149861D02*
X280032D01*
X278763D01*
Y157479D01*
X277493Y156209D01*
X315596Y273049D02*
X314327Y274319D01*
X311788D01*
X310518Y273049D01*
Y267971D01*
X311788Y266701D01*
X314327D01*
X315596Y267971D01*
X318136Y266701D02*
X320675D01*
X319405D01*
Y274319D01*
X318136Y273049D01*
X324484D02*
X325753Y274319D01*
X328292D01*
X329562Y273049D01*
Y267971D01*
X328292Y266701D01*
X325753D01*
X324484Y267971D01*
Y273049D01*
X322580Y250189D02*
X321311Y251459D01*
X318772D01*
X317502Y250189D01*
Y245111D01*
X318772Y243841D01*
X321311D01*
X322580Y245111D01*
X325120D02*
X326389Y243841D01*
X328928D01*
X330198Y245111D01*
Y250189D01*
X328928Y251459D01*
X326389D01*
X325120Y250189D01*
Y248920D01*
X326389Y247650D01*
X330198D01*
X285750Y243839D02*
X284481Y245109D01*
X281942D01*
X280672Y243839D01*
Y238761D01*
X281942Y237491D01*
X284481D01*
X285750Y238761D01*
X288290Y243839D02*
X289559Y245109D01*
X292098D01*
X293368Y243839D01*
Y242570D01*
X292098Y241300D01*
X293368Y240030D01*
Y238761D01*
X292098Y237491D01*
X289559D01*
X288290Y238761D01*
Y240030D01*
X289559Y241300D01*
X288290Y242570D01*
Y243839D01*
X289559Y241300D02*
X292098D01*
X303530Y114299D02*
X302261Y115569D01*
X299722D01*
X298452Y114299D01*
Y109221D01*
X299722Y107951D01*
X302261D01*
X303530Y109221D01*
X306070Y115569D02*
X311148D01*
Y114299D01*
X306070Y109221D01*
Y107951D01*
X918211Y560068D02*
X915672Y562607D01*
X910593D01*
X908054Y560068D01*
Y549912D01*
X910593Y547373D01*
X915672D01*
X918211Y549912D01*
X933446Y562607D02*
X928367Y560068D01*
X923289Y554990D01*
Y549912D01*
X925828Y547373D01*
X930907D01*
X933446Y549912D01*
Y552451D01*
X930907Y554990D01*
X923289D01*
X916941Y505458D02*
X914402Y507998D01*
X909323D01*
X906784Y505458D01*
Y495302D01*
X909323Y492762D01*
X914402D01*
X916941Y495302D01*
X932176Y507998D02*
X922019D01*
Y500380D01*
X927097Y502919D01*
X929637D01*
X932176Y500380D01*
Y495302D01*
X929637Y492762D01*
X924558D01*
X922019Y495302D01*
X430000Y341629D02*
X428731Y342899D01*
X426192D01*
X424922Y341629D01*
Y336551D01*
X426192Y335281D01*
X428731D01*
X430000Y336551D01*
X436348Y335281D02*
Y342899D01*
X432540Y339090D01*
X437618D01*
X453730Y341629D02*
X452461Y342899D01*
X449922D01*
X448652Y341629D01*
Y336551D01*
X449922Y335281D01*
X452461D01*
X453730Y336551D01*
X456270Y341629D02*
X457539Y342899D01*
X460078D01*
X461348Y341629D01*
Y340360D01*
X460078Y339090D01*
X458809D01*
X460078D01*
X461348Y337820D01*
Y336551D01*
X460078Y335281D01*
X457539D01*
X456270Y336551D01*
X535940Y231139D02*
X534671Y232409D01*
X532132D01*
X530862Y231139D01*
Y226061D01*
X532132Y224791D01*
X534671D01*
X535940Y226061D01*
X543558Y224791D02*
X538480D01*
X543558Y229870D01*
Y231139D01*
X542288Y232409D01*
X539749D01*
X538480Y231139D01*
X537210Y253999D02*
X535940Y255269D01*
X533401D01*
X532132Y253999D01*
Y248921D01*
X533401Y247651D01*
X535940D01*
X537210Y248921D01*
X539749Y247651D02*
X542288D01*
X541019D01*
Y255269D01*
X539749Y253999D01*
X1043946Y34288D02*
Y19052D01*
X1051563D01*
X1054102Y21592D01*
Y31748D01*
X1051563Y34288D01*
X1043946D01*
X1069338Y31748D02*
X1066798Y34288D01*
X1061720D01*
X1059181Y31748D01*
Y29209D01*
X1061720Y26670D01*
X1066798D01*
X1069338Y24131D01*
Y21592D01*
X1066798Y19052D01*
X1061720D01*
X1059181Y21592D01*
X1074416Y19052D02*
X1079494D01*
X1076955D01*
Y34288D01*
X1074416Y31748D01*
X579122Y302259D02*
Y295911D01*
X580392Y294641D01*
X582931D01*
X584200Y295911D01*
Y302259D01*
X591818Y294641D02*
X586740D01*
X591818Y299720D01*
Y300989D01*
X590548Y302259D01*
X588009D01*
X586740Y300989D01*
X351079Y375838D02*
Y367508D01*
X352746Y365842D01*
X356078D01*
X357744Y367508D01*
Y375838D01*
X361076Y374172D02*
X362742Y375838D01*
X366074D01*
X367741Y374172D01*
Y372506D01*
X366074Y370840D01*
X364408D01*
X366074D01*
X367741Y369174D01*
Y367508D01*
X366074Y365842D01*
X362742D01*
X361076Y367508D01*
X360682Y229869D02*
Y223521D01*
X361952Y222251D01*
X364491D01*
X365760Y223521D01*
Y229869D01*
X372108Y222251D02*
Y229869D01*
X368300Y226060D01*
X373378D01*
M02*
