G04*
G04 #@! TF.GenerationSoftware,Altium Limited,Altium Designer,26.1.1 (7)*
G04*
G04 Layer_Physical_Order=2*
G04 Layer_Color=16711680*
%FSLAX44Y44*%
%MOMM*%
G71*
G04*
G04 #@! TF.SameCoordinates,836AC57B-FE3C-46D6-8C59-182D9EBDFD6B*
G04*
G04*
G04 #@! TF.FilePolarity,Positive*
G04*
G01*
G75*
%ADD17C,0.2540*%
%ADD72C,1.0000*%
%ADD73C,0.4000*%
%ADD74C,1.5748*%
%ADD75C,1.6500*%
%ADD76O,1.0000X2.1000*%
G04:AMPARAMS|DCode=77|XSize=1.8mm|YSize=1mm|CornerRadius=0.25mm|HoleSize=0mm|Usage=FLASHONLY|Rotation=270.000|XOffset=0mm|YOffset=0mm|HoleType=Round|Shape=RoundedRectangle|*
%AMROUNDEDRECTD77*
21,1,1.8000,0.5000,0,0,270.0*
21,1,1.3000,1.0000,0,0,270.0*
1,1,0.5000,-0.2500,-0.6500*
1,1,0.5000,-0.2500,0.6500*
1,1,0.5000,0.2500,0.6500*
1,1,0.5000,0.2500,-0.6500*
%
%ADD77ROUNDEDRECTD77*%
%ADD78C,1.6002*%
%ADD79C,1.4980*%
%ADD80C,1.3080*%
%ADD81C,2.1000*%
%ADD82C,1.4500*%
%ADD83R,1.4500X1.4500*%
%ADD84C,0.6500*%
%ADD85C,3.5560*%
%ADD86R,1.4980X1.4980*%
%ADD87C,0.6000*%
%ADD88C,0.7000*%
%ADD89C,1.0000*%
%ADD90C,0.5000*%
%ADD91C,1.2000*%
%ADD92C,5.0000*%
G36*
X1167121Y2549D02*
X2549D01*
Y589271D01*
X1167121D01*
Y2549D01*
D02*
G37*
%LPC*%
G36*
X480060Y585860D02*
Y581660D01*
X484260D01*
X483487Y583528D01*
X481928Y585087D01*
X480060Y585860D01*
D02*
G37*
G36*
X477520D02*
X475652Y585087D01*
X474093Y583528D01*
X473320Y581660D01*
X477520D01*
Y585860D01*
D02*
G37*
G36*
X585470Y584590D02*
Y580390D01*
X589670D01*
X588897Y582258D01*
X587338Y583817D01*
X585470Y584590D01*
D02*
G37*
G36*
X582930D02*
X581062Y583817D01*
X579503Y582258D01*
X578730Y580390D01*
X582930D01*
Y584590D01*
D02*
G37*
G36*
X533400D02*
Y580390D01*
X537600D01*
X536827Y582258D01*
X535268Y583817D01*
X533400Y584590D01*
D02*
G37*
G36*
X530860D02*
X528992Y583817D01*
X527433Y582258D01*
X526660Y580390D01*
X530860D01*
Y584590D01*
D02*
G37*
G36*
X930948Y581877D02*
Y577677D01*
X935148D01*
X934374Y579545D01*
X932816Y581104D01*
X930948Y581877D01*
D02*
G37*
G36*
X928408D02*
X926540Y581104D01*
X924981Y579545D01*
X924207Y577677D01*
X928408D01*
Y581877D01*
D02*
G37*
G36*
X484260Y579120D02*
X480060D01*
Y574920D01*
X481928Y575693D01*
X483487Y577252D01*
X484260Y579120D01*
D02*
G37*
G36*
X477520D02*
X473320D01*
X474093Y577252D01*
X475652Y575693D01*
X477520Y574920D01*
Y579120D01*
D02*
G37*
G36*
X589670Y577850D02*
X585470D01*
Y573650D01*
X587338Y574423D01*
X588897Y575982D01*
X589670Y577850D01*
D02*
G37*
G36*
X582930D02*
X578730D01*
X579503Y575982D01*
X581062Y574423D01*
X582930Y573650D01*
Y577850D01*
D02*
G37*
G36*
X537600D02*
X533400D01*
Y573650D01*
X535268Y574423D01*
X536827Y575982D01*
X537600Y577850D01*
D02*
G37*
G36*
X530860D02*
X526660D01*
X527433Y575982D01*
X528992Y574423D01*
X530860Y573650D01*
Y577850D01*
D02*
G37*
G36*
X1022388Y576797D02*
Y572597D01*
X1026588D01*
X1025814Y574465D01*
X1024256Y576023D01*
X1022388Y576797D01*
D02*
G37*
G36*
X1019848D02*
X1017980Y576023D01*
X1016421Y574465D01*
X1015647Y572597D01*
X1019848D01*
Y576797D01*
D02*
G37*
G36*
X935148Y575137D02*
X930948D01*
Y570937D01*
X932816Y571710D01*
X934374Y573269D01*
X935148Y575137D01*
D02*
G37*
G36*
X928408D02*
X924207D01*
X924981Y573269D01*
X926540Y571710D01*
X928408Y570937D01*
Y575137D01*
D02*
G37*
G36*
X717588Y574257D02*
Y570057D01*
X721788D01*
X721014Y571925D01*
X719456Y573484D01*
X717588Y574257D01*
D02*
G37*
G36*
X715048D02*
X713180Y573484D01*
X711621Y571925D01*
X710847Y570057D01*
X715048D01*
Y574257D01*
D02*
G37*
G36*
X873740Y576789D02*
X872510D01*
Y566420D01*
X878879D01*
Y571650D01*
X878487Y573616D01*
X877374Y575284D01*
X875706Y576398D01*
X873740Y576789D01*
D02*
G37*
G36*
X869970D02*
X868740D01*
X866774Y576398D01*
X865106Y575284D01*
X863992Y573616D01*
X863601Y571650D01*
Y566420D01*
X869970D01*
Y576789D01*
D02*
G37*
G36*
X787340D02*
X786110D01*
Y566420D01*
X792479D01*
Y571650D01*
X792088Y573616D01*
X790974Y575284D01*
X789306Y576398D01*
X787340Y576789D01*
D02*
G37*
G36*
X783570D02*
X782340D01*
X780374Y576398D01*
X778706Y575284D01*
X777592Y573616D01*
X777201Y571650D01*
Y566420D01*
X783570D01*
Y576789D01*
D02*
G37*
G36*
X1026588Y570057D02*
X1022388D01*
Y565857D01*
X1024256Y566630D01*
X1025814Y568189D01*
X1026588Y570057D01*
D02*
G37*
G36*
X1019848D02*
X1015647D01*
X1016421Y568189D01*
X1017980Y566630D01*
X1019848Y565857D01*
Y570057D01*
D02*
G37*
G36*
X721788Y567517D02*
X717588D01*
Y563316D01*
X719456Y564090D01*
X721014Y565649D01*
X721788Y567517D01*
D02*
G37*
G36*
X715048D02*
X710847D01*
X711621Y565649D01*
X713180Y564090D01*
X715048Y563316D01*
Y567517D01*
D02*
G37*
G36*
X107950Y565540D02*
Y561340D01*
X112150D01*
X111377Y563208D01*
X109818Y564767D01*
X107950Y565540D01*
D02*
G37*
G36*
X105410D02*
X103542Y564767D01*
X101983Y563208D01*
X101210Y561340D01*
X105410D01*
Y565540D01*
D02*
G37*
G36*
X156248Y565367D02*
Y561167D01*
X160448D01*
X159674Y563035D01*
X158116Y564594D01*
X156248Y565367D01*
D02*
G37*
G36*
X153708D02*
X151840Y564594D01*
X150281Y563035D01*
X149507Y561167D01*
X153708D01*
Y565367D01*
D02*
G37*
G36*
X259118Y564097D02*
Y559897D01*
X263318D01*
X262544Y561765D01*
X260986Y563324D01*
X259118Y564097D01*
D02*
G37*
G36*
X256578D02*
X254710Y563324D01*
X253151Y561765D01*
X252377Y559897D01*
X256578D01*
Y564097D01*
D02*
G37*
G36*
X200698D02*
Y559897D01*
X204898D01*
X204124Y561765D01*
X202566Y563324D01*
X200698Y564097D01*
D02*
G37*
G36*
X198158D02*
X196290Y563324D01*
X194731Y561765D01*
X193957Y559897D01*
X198158D01*
Y564097D01*
D02*
G37*
G36*
X311188Y562827D02*
Y558627D01*
X315388D01*
X314614Y560495D01*
X313056Y562053D01*
X311188Y562827D01*
D02*
G37*
G36*
X308648D02*
X306780Y562053D01*
X305221Y560495D01*
X304447Y558627D01*
X308648D01*
Y562827D01*
D02*
G37*
G36*
X645160Y560460D02*
Y556260D01*
X649360D01*
X648587Y558128D01*
X647028Y559687D01*
X645160Y560460D01*
D02*
G37*
G36*
X642620D02*
X640752Y559687D01*
X639193Y558128D01*
X638420Y556260D01*
X642620D01*
Y560460D01*
D02*
G37*
G36*
X532130Y559190D02*
Y554990D01*
X536330D01*
X535557Y556858D01*
X533998Y558417D01*
X532130Y559190D01*
D02*
G37*
G36*
X529590D02*
X527722Y558417D01*
X526163Y556858D01*
X525390Y554990D01*
X529590D01*
Y559190D01*
D02*
G37*
G36*
X481330D02*
Y554990D01*
X485530D01*
X484757Y556858D01*
X483198Y558417D01*
X481330Y559190D01*
D02*
G37*
G36*
X478790D02*
X476922Y558417D01*
X475363Y556858D01*
X474590Y554990D01*
X478790D01*
Y559190D01*
D02*
G37*
G36*
X952538Y559017D02*
Y554817D01*
X956738D01*
X955964Y556685D01*
X954406Y558243D01*
X952538Y559017D01*
D02*
G37*
G36*
X949998D02*
X948130Y558243D01*
X946571Y556685D01*
X945797Y554817D01*
X949998D01*
Y559017D01*
D02*
G37*
G36*
X112150Y558800D02*
X107950D01*
Y554600D01*
X109818Y555373D01*
X111377Y556932D01*
X112150Y558800D01*
D02*
G37*
G36*
X105410D02*
X101210D01*
X101983Y556932D01*
X103542Y555373D01*
X105410Y554600D01*
Y558800D01*
D02*
G37*
G36*
X160448Y558627D02*
X156248D01*
Y554426D01*
X158116Y555200D01*
X159674Y556759D01*
X160448Y558627D01*
D02*
G37*
G36*
X153708D02*
X149507D01*
X150281Y556759D01*
X151840Y555200D01*
X153708Y554426D01*
Y558627D01*
D02*
G37*
G36*
X1131198Y579990D02*
X1130300D01*
Y553720D01*
X1156570D01*
Y554618D01*
X1155892Y558899D01*
X1154552Y563022D01*
X1152584Y566884D01*
X1150036Y570391D01*
X1146971Y573456D01*
X1143464Y576004D01*
X1139602Y577972D01*
X1135479Y579312D01*
X1131198Y579990D01*
D02*
G37*
G36*
X1127760D02*
X1126862D01*
X1122581Y579312D01*
X1118458Y577972D01*
X1114596Y576004D01*
X1111089Y573456D01*
X1108024Y570391D01*
X1105476Y566884D01*
X1103508Y563022D01*
X1102168Y558899D01*
X1101490Y554618D01*
Y553720D01*
X1127760D01*
Y579990D01*
D02*
G37*
G36*
X585470Y557920D02*
Y553720D01*
X589670D01*
X588897Y555588D01*
X587338Y557147D01*
X585470Y557920D01*
D02*
G37*
G36*
X582930D02*
X581062Y557147D01*
X579503Y555588D01*
X578730Y553720D01*
X582930D01*
Y557920D01*
D02*
G37*
G36*
X37727Y579990D02*
X36830D01*
Y553720D01*
X63100D01*
Y554618D01*
X62422Y558899D01*
X61082Y563022D01*
X59114Y566884D01*
X56566Y570391D01*
X53501Y573456D01*
X49994Y576004D01*
X46132Y577972D01*
X42009Y579312D01*
X37727Y579990D01*
D02*
G37*
G36*
X34290D02*
X33393D01*
X29111Y579312D01*
X24988Y577972D01*
X21126Y576004D01*
X17619Y573456D01*
X14554Y570391D01*
X12006Y566884D01*
X10038Y563022D01*
X8698Y558899D01*
X8020Y554618D01*
Y553720D01*
X34290D01*
Y579990D01*
D02*
G37*
G36*
X878879Y563880D02*
X872510D01*
Y553511D01*
X873740D01*
X875706Y553902D01*
X877374Y555016D01*
X878487Y556684D01*
X878879Y558650D01*
Y563880D01*
D02*
G37*
G36*
X869970D02*
X863601D01*
Y558650D01*
X863992Y556684D01*
X865106Y555016D01*
X866774Y553902D01*
X868740Y553511D01*
X869970D01*
Y563880D01*
D02*
G37*
G36*
X792479Y563880D02*
X786110D01*
Y553511D01*
X787340D01*
X789306Y553902D01*
X790974Y555016D01*
X792088Y556684D01*
X792479Y558650D01*
Y563880D01*
D02*
G37*
G36*
X783570D02*
X777201D01*
Y558650D01*
X777592Y556684D01*
X778706Y555016D01*
X780374Y553902D01*
X782340Y553511D01*
X783570D01*
Y563880D01*
D02*
G37*
G36*
X263318Y557357D02*
X259118D01*
Y553157D01*
X260986Y553930D01*
X262544Y555489D01*
X263318Y557357D01*
D02*
G37*
G36*
X256578D02*
X252377D01*
X253151Y555489D01*
X254710Y553930D01*
X256578Y553157D01*
Y557357D01*
D02*
G37*
G36*
X204898D02*
X200698D01*
Y553157D01*
X202566Y553930D01*
X204124Y555489D01*
X204898Y557357D01*
D02*
G37*
G36*
X198158D02*
X193957D01*
X194731Y555489D01*
X196290Y553930D01*
X198158Y553157D01*
Y557357D01*
D02*
G37*
G36*
X315388Y556087D02*
X311188D01*
Y551886D01*
X313056Y552660D01*
X314614Y554219D01*
X315388Y556087D01*
D02*
G37*
G36*
X308648D02*
X304447D01*
X305221Y554219D01*
X306780Y552660D01*
X308648Y551886D01*
Y556087D01*
D02*
G37*
G36*
X649360Y553720D02*
X645160D01*
Y549520D01*
X647028Y550293D01*
X648587Y551852D01*
X649360Y553720D01*
D02*
G37*
G36*
X642620D02*
X638420D01*
X639193Y551852D01*
X640752Y550293D01*
X642620Y549520D01*
Y553720D01*
D02*
G37*
G36*
X536330Y552450D02*
X532130D01*
Y548250D01*
X533998Y549023D01*
X535557Y550582D01*
X536330Y552450D01*
D02*
G37*
G36*
X529590D02*
X525390D01*
X526163Y550582D01*
X527722Y549023D01*
X529590Y548250D01*
Y552450D01*
D02*
G37*
G36*
X485530D02*
X481330D01*
Y548250D01*
X483198Y549023D01*
X484757Y550582D01*
X485530Y552450D01*
D02*
G37*
G36*
X478790D02*
X474590D01*
X475363Y550582D01*
X476922Y549023D01*
X478790Y548250D01*
Y552450D01*
D02*
G37*
G36*
X956738Y552277D02*
X952538D01*
Y548077D01*
X954406Y548850D01*
X955964Y550409D01*
X956738Y552277D01*
D02*
G37*
G36*
X949998D02*
X945797D01*
X946571Y550409D01*
X948130Y548850D01*
X949998Y548077D01*
Y552277D01*
D02*
G37*
G36*
X1069378Y551397D02*
Y547197D01*
X1073578D01*
X1072804Y549065D01*
X1071246Y550624D01*
X1069378Y551397D01*
D02*
G37*
G36*
X1066838D02*
X1064970Y550624D01*
X1063411Y549065D01*
X1062637Y547197D01*
X1066838D01*
Y551397D01*
D02*
G37*
G36*
X589670Y551180D02*
X585470D01*
Y546980D01*
X587338Y547753D01*
X588897Y549312D01*
X589670Y551180D01*
D02*
G37*
G36*
X582930D02*
X578730D01*
X579503Y549312D01*
X581062Y547753D01*
X582930Y546980D01*
Y551180D01*
D02*
G37*
G36*
X734098Y547587D02*
Y543387D01*
X738298D01*
X737524Y545255D01*
X735966Y546814D01*
X734098Y547587D01*
D02*
G37*
G36*
X731558D02*
X729690Y546814D01*
X728131Y545255D01*
X727357Y543387D01*
X731558D01*
Y547587D01*
D02*
G37*
G36*
X1073578Y544657D02*
X1069378D01*
Y540457D01*
X1071246Y541230D01*
X1072804Y542789D01*
X1073578Y544657D01*
D02*
G37*
G36*
X1066838D02*
X1062637D01*
X1063411Y542789D01*
X1064970Y541230D01*
X1066838Y540457D01*
Y544657D01*
D02*
G37*
G36*
X738298Y540847D02*
X734098D01*
Y536646D01*
X735966Y537420D01*
X737524Y538979D01*
X738298Y540847D01*
D02*
G37*
G36*
X731558D02*
X727357D01*
X728131Y538979D01*
X729690Y537420D01*
X731558Y536646D01*
Y540847D01*
D02*
G37*
G36*
X1027468Y537427D02*
Y533227D01*
X1031668D01*
X1030894Y535095D01*
X1029336Y536654D01*
X1027468Y537427D01*
D02*
G37*
G36*
X1024928D02*
X1023060Y536654D01*
X1021501Y535095D01*
X1020727Y533227D01*
X1024928D01*
Y537427D01*
D02*
G37*
G36*
X869970Y536288D02*
X869272Y536196D01*
X867438Y535436D01*
X865862Y534228D01*
X864654Y532653D01*
X863894Y530818D01*
X863691Y529273D01*
X863690Y529268D01*
X861690Y529295D01*
X860967Y531041D01*
X859631Y532377D01*
X857885Y533100D01*
X855995D01*
X854249Y532377D01*
X852913Y531041D01*
X852190Y529295D01*
Y527405D01*
X852913Y525659D01*
X854249Y524323D01*
X855995Y523600D01*
X857885D01*
X859631Y524323D01*
X860967Y525659D01*
X861690Y527405D01*
X863635Y527272D01*
X863635Y527269D01*
Y524620D01*
X869970D01*
Y536288D01*
D02*
G37*
G36*
X1031668Y530687D02*
X1027468D01*
Y526487D01*
X1029336Y527260D01*
X1030894Y528819D01*
X1031668Y530687D01*
D02*
G37*
G36*
X1024928D02*
X1020727D01*
X1021501Y528819D01*
X1023060Y527260D01*
X1024928Y526487D01*
Y530687D01*
D02*
G37*
G36*
X507242Y530289D02*
X505091Y529398D01*
X503392Y527699D01*
X502501Y525548D01*
X507242D01*
Y530289D01*
D02*
G37*
G36*
X547398Y530045D02*
Y525303D01*
X552140D01*
X551249Y527454D01*
X549550Y529154D01*
X547398Y530045D01*
D02*
G37*
G36*
X1156570Y551180D02*
X1130300D01*
Y524910D01*
X1131198D01*
X1135479Y525588D01*
X1139602Y526928D01*
X1143464Y528896D01*
X1146971Y531444D01*
X1150036Y534509D01*
X1152584Y538016D01*
X1154552Y541878D01*
X1155892Y546001D01*
X1156570Y550283D01*
Y551180D01*
D02*
G37*
G36*
X1127760D02*
X1101490D01*
Y550283D01*
X1102168Y546001D01*
X1103508Y541878D01*
X1105476Y538016D01*
X1108024Y534509D01*
X1111089Y531444D01*
X1114596Y528896D01*
X1118458Y526928D01*
X1122581Y525588D01*
X1126862Y524910D01*
X1127760D01*
Y551180D01*
D02*
G37*
G36*
X63100D02*
X36830D01*
Y524910D01*
X37727D01*
X42009Y525588D01*
X46132Y526928D01*
X49994Y528896D01*
X53501Y531444D01*
X56566Y534509D01*
X59114Y538016D01*
X61082Y541878D01*
X62422Y546001D01*
X63100Y550283D01*
Y551180D01*
D02*
G37*
G36*
X34290D02*
X8020D01*
Y550283D01*
X8698Y546001D01*
X10038Y541878D01*
X12006Y538016D01*
X14554Y534509D01*
X17619Y531444D01*
X21126Y528896D01*
X24988Y526928D01*
X29111Y525588D01*
X33393Y524910D01*
X34290D01*
Y551180D01*
D02*
G37*
G36*
X872510Y536288D02*
Y524620D01*
X878845D01*
Y528850D01*
X878586Y530818D01*
X877826Y532653D01*
X876618Y534228D01*
X875042Y535436D01*
X873208Y536196D01*
X872510Y536288D01*
D02*
G37*
G36*
X783570Y536288D02*
X782872Y536196D01*
X781038Y535436D01*
X779462Y534228D01*
X778254Y532653D01*
X777494Y530818D01*
X777235Y528850D01*
Y524620D01*
X783570D01*
Y536288D01*
D02*
G37*
G36*
X786110Y536288D02*
Y524620D01*
X792445D01*
Y527269D01*
X792445Y527272D01*
X794390Y527405D01*
X795113Y525659D01*
X796449Y524323D01*
X798195Y523600D01*
X800085D01*
X801831Y524323D01*
X803167Y525659D01*
X803890Y527405D01*
Y529295D01*
X803167Y531041D01*
X801831Y532377D01*
X800085Y533100D01*
X798195D01*
X796449Y532377D01*
X795113Y531041D01*
X794390Y529295D01*
X792390Y529268D01*
X792389Y529273D01*
X792186Y530818D01*
X791426Y532653D01*
X790218Y534228D01*
X788643Y535436D01*
X786808Y536196D01*
X786110Y536288D01*
D02*
G37*
G36*
X585470Y527440D02*
Y523240D01*
X589670D01*
X588897Y525108D01*
X587338Y526667D01*
X585470Y527440D01*
D02*
G37*
G36*
X582930D02*
X581062Y526667D01*
X579503Y525108D01*
X578730Y523240D01*
X582930D01*
Y527440D01*
D02*
G37*
G36*
X107950Y521090D02*
Y516890D01*
X112150D01*
X111377Y518758D01*
X109818Y520317D01*
X107950Y521090D01*
D02*
G37*
G36*
X105410D02*
X103542Y520317D01*
X101983Y518758D01*
X101210Y516890D01*
X105410D01*
Y521090D01*
D02*
G37*
G36*
X589670Y520700D02*
X585470D01*
Y516500D01*
X587338Y517273D01*
X588897Y518832D01*
X589670Y520700D01*
D02*
G37*
G36*
X582930D02*
X578730D01*
X579503Y518832D01*
X581062Y517273D01*
X582930Y516500D01*
Y520700D01*
D02*
G37*
G36*
X170218Y519647D02*
Y515447D01*
X174418D01*
X173644Y517315D01*
X172086Y518873D01*
X170218Y519647D01*
D02*
G37*
G36*
X167678D02*
X165810Y518873D01*
X164251Y517315D01*
X163477Y515447D01*
X167678D01*
Y519647D01*
D02*
G37*
G36*
X427990Y518550D02*
Y514350D01*
X432190D01*
X431417Y516218D01*
X429858Y517777D01*
X427990Y518550D01*
D02*
G37*
G36*
X425450D02*
X423582Y517777D01*
X422023Y516218D01*
X421250Y514350D01*
X425450D01*
Y518550D01*
D02*
G37*
G36*
X66078Y517107D02*
Y512907D01*
X70278D01*
X69504Y514775D01*
X67946Y516334D01*
X66078Y517107D01*
D02*
G37*
G36*
X63538D02*
X61670Y516334D01*
X60111Y514775D01*
X59337Y512907D01*
X63538D01*
Y517107D01*
D02*
G37*
G36*
X29248D02*
Y512907D01*
X33448D01*
X32674Y514775D01*
X31116Y516334D01*
X29248Y517107D01*
D02*
G37*
G36*
X26708D02*
X24840Y516334D01*
X23281Y514775D01*
X22507Y512907D01*
X26708D01*
Y517107D01*
D02*
G37*
G36*
X783570Y522080D02*
X777235D01*
Y517850D01*
X777494Y515882D01*
X778254Y514048D01*
X779462Y512472D01*
X781038Y511264D01*
X782872Y510504D01*
X783570Y510412D01*
Y522080D01*
D02*
G37*
G36*
X878845Y522080D02*
X872510D01*
Y510412D01*
X873208Y510504D01*
X875042Y511264D01*
X876618Y512472D01*
X877826Y514048D01*
X878586Y515882D01*
X878845Y517850D01*
Y522080D01*
D02*
G37*
G36*
X869970D02*
X863635D01*
Y517850D01*
X863894Y515882D01*
X864654Y514048D01*
X865862Y512472D01*
X867438Y511264D01*
X869272Y510504D01*
X869970Y510412D01*
Y522080D01*
D02*
G37*
G36*
X792445Y522080D02*
X786110D01*
Y510412D01*
X786808Y510504D01*
X788643Y511264D01*
X790218Y512472D01*
X791426Y514048D01*
X792186Y515882D01*
X792445Y517850D01*
Y522080D01*
D02*
G37*
G36*
X112150Y514350D02*
X107950D01*
Y510150D01*
X109818Y510923D01*
X111377Y512482D01*
X112150Y514350D01*
D02*
G37*
G36*
X105410D02*
X101210D01*
X101983Y512482D01*
X103542Y510923D01*
X105410Y510150D01*
Y514350D01*
D02*
G37*
G36*
X339090Y538686D02*
X338664Y538630D01*
X338234D01*
X337819Y538519D01*
X337393Y538463D01*
X336996Y538298D01*
X336581Y538187D01*
X336209Y537972D01*
X335812Y537808D01*
X335471Y537546D01*
X335099Y537331D01*
X334795Y537027D01*
X334454Y536766D01*
X334193Y536425D01*
X333889Y536121D01*
X333674Y535749D01*
X333412Y535408D01*
X333248Y535011D01*
X333033Y534639D01*
X332922Y534224D01*
X332757Y533827D01*
X332701Y533401D01*
X332590Y532986D01*
Y532556D01*
X332534Y532130D01*
Y494030D01*
X332757Y492333D01*
X333412Y490752D01*
X334454Y489394D01*
X398574Y425274D01*
Y336550D01*
X398630Y336124D01*
Y335694D01*
X398741Y335279D01*
X398797Y334853D01*
X398962Y334456D01*
X399073Y334041D01*
X399288Y333669D01*
X399452Y333272D01*
X399714Y332931D01*
X399929Y332559D01*
X400233Y332255D01*
X400494Y331914D01*
X400835Y331653D01*
X401139Y331349D01*
X401511Y331134D01*
X401852Y330872D01*
X402249Y330708D01*
X402621Y330493D01*
X403036Y330382D01*
X403433Y330217D01*
X403859Y330161D01*
X404274Y330050D01*
X404704D01*
X405130Y329994D01*
X405556Y330050D01*
X405986D01*
X406401Y330161D01*
X406827Y330217D01*
X407224Y330382D01*
X407639Y330493D01*
X408011Y330708D01*
X408408Y330872D01*
X408749Y331134D01*
X409121Y331349D01*
X409425Y331653D01*
X409766Y331914D01*
X410027Y332255D01*
X410331Y332559D01*
X410546Y332931D01*
X410808Y333272D01*
X410972Y333669D01*
X411187Y334041D01*
X411298Y334456D01*
X411463Y334853D01*
X411519Y335279D01*
X411630Y335694D01*
Y336124D01*
X411686Y336550D01*
Y380321D01*
X413686Y381150D01*
X720633Y74203D01*
X720633Y74203D01*
X721549Y73591D01*
X722630Y73376D01*
X722630Y73376D01*
X1073150D01*
X1073150Y73376D01*
X1074231Y73591D01*
X1075147Y74203D01*
X1120867Y119923D01*
X1120867Y119923D01*
X1121479Y120839D01*
X1121694Y121920D01*
Y279400D01*
X1121694Y279400D01*
X1121479Y280481D01*
X1120867Y281397D01*
X1120867Y281397D01*
X1104394Y297870D01*
Y369451D01*
X1105237Y369677D01*
X1107404Y370927D01*
X1109173Y372696D01*
X1110424Y374863D01*
X1111071Y377279D01*
Y379781D01*
X1110424Y382197D01*
X1109173Y384364D01*
X1107404Y386133D01*
X1105237Y387383D01*
X1102821Y388031D01*
X1100319D01*
X1097903Y387383D01*
X1095736Y386133D01*
X1093967Y384364D01*
X1092717Y382197D01*
X1092069Y379781D01*
Y377279D01*
X1092717Y374863D01*
X1093967Y372696D01*
X1095736Y370927D01*
X1097903Y369677D01*
X1098746Y369451D01*
Y296700D01*
X1098746Y296700D01*
X1098961Y295619D01*
X1099573Y294703D01*
X1116046Y278230D01*
Y123090D01*
X1071980Y79024D01*
X723800D01*
X711920Y90904D01*
X711979Y91042D01*
X713099Y92553D01*
X713740Y92426D01*
X1036320D01*
X1036320Y92426D01*
X1037401Y92641D01*
X1038317Y93253D01*
X1051377Y106313D01*
X1051377Y106313D01*
X1051989Y107229D01*
X1052204Y108310D01*
Y110910D01*
X1058370D01*
Y128890D01*
X1040390D01*
Y110910D01*
X1045180D01*
X1045986Y108910D01*
X1035150Y98074D01*
X714910D01*
X426910Y386074D01*
Y386876D01*
X426301Y388346D01*
X425176Y389471D01*
X423706Y390080D01*
X422114D01*
X420644Y389471D01*
X419519Y388346D01*
X417081Y387688D01*
X416654Y387973D01*
Y469810D01*
X417176Y470332D01*
X419445Y469798D01*
X419568Y469068D01*
X419031Y468263D01*
X418816Y467182D01*
X418816Y467182D01*
Y401320D01*
X418816Y401320D01*
X419031Y400239D01*
X419643Y399323D01*
X652053Y166913D01*
X652969Y166301D01*
X654050Y166086D01*
X853440D01*
X853440Y166086D01*
X854521Y166301D01*
X855437Y166913D01*
X925287Y236763D01*
X925287Y236763D01*
X925899Y237679D01*
X926114Y238760D01*
Y326490D01*
X947320Y347696D01*
X963938D01*
X964201Y345696D01*
X963977Y345635D01*
X961753Y344352D01*
X959938Y342537D01*
X958654Y340313D01*
X957990Y337834D01*
Y335266D01*
X958654Y332787D01*
X959938Y330563D01*
X961753Y328748D01*
X963977Y327464D01*
X966456Y326800D01*
X969024D01*
X971503Y327464D01*
X973727Y328748D01*
X975542Y330563D01*
X976825Y332787D01*
X977490Y335266D01*
Y337834D01*
X976825Y340313D01*
X975542Y342537D01*
X973727Y344352D01*
X971503Y345635D01*
X971279Y345696D01*
X971542Y347696D01*
X1036320D01*
X1036320Y347696D01*
X1037401Y347911D01*
X1038317Y348523D01*
X1053567Y363773D01*
X1053567Y363773D01*
X1054179Y364689D01*
X1054394Y365770D01*
Y369451D01*
X1055237Y369677D01*
X1057404Y370927D01*
X1059173Y372696D01*
X1060424Y374863D01*
X1061071Y377279D01*
Y379781D01*
X1060424Y382197D01*
X1059173Y384364D01*
X1057404Y386133D01*
X1055237Y387383D01*
X1052821Y388031D01*
X1050319D01*
X1047903Y387383D01*
X1045736Y386133D01*
X1043967Y384364D01*
X1042717Y382197D01*
X1042069Y379781D01*
Y377279D01*
X1042717Y374863D01*
X1043967Y372696D01*
X1045736Y370927D01*
X1047903Y369677D01*
X1048746Y369451D01*
Y366940D01*
X1035150Y353344D01*
X975751D01*
X974923Y355344D01*
X975542Y355963D01*
X976825Y358187D01*
X977246Y359756D01*
X979800D01*
X979800Y359756D01*
X980881Y359971D01*
X981797Y360583D01*
X986247Y365033D01*
X986859Y365949D01*
X987074Y367030D01*
X987074Y367030D01*
Y391160D01*
X987074Y391160D01*
X986859Y392241D01*
X986247Y393157D01*
X986247Y393157D01*
X975677Y403727D01*
X975471Y403865D01*
X975023Y405905D01*
X975091Y406313D01*
X975542Y406763D01*
X976825Y408987D01*
X977490Y411466D01*
Y414034D01*
X976825Y416513D01*
X975542Y418737D01*
X973727Y420552D01*
X971503Y421836D01*
X969024Y422500D01*
X966456D01*
X963977Y421836D01*
X961753Y420552D01*
X959938Y418737D01*
X958654Y416513D01*
X958403Y415574D01*
X890170D01*
X826960Y478784D01*
Y479586D01*
X826351Y481056D01*
X825226Y482181D01*
X823756Y482790D01*
X822164D01*
X820694Y482181D01*
X819569Y481056D01*
X818960Y479586D01*
Y477994D01*
X819569Y476524D01*
X820694Y475399D01*
X822164Y474790D01*
X822966D01*
X834614Y463142D01*
X833848Y461294D01*
X719688D01*
X700195Y480787D01*
X699279Y481399D01*
X698198Y481614D01*
X698198Y481614D01*
X660693D01*
X660126Y482181D01*
X658656Y482790D01*
X657064D01*
X655594Y482181D01*
X654469Y481056D01*
X653860Y479586D01*
Y477994D01*
X654469Y476524D01*
X655594Y475399D01*
X657064Y474790D01*
X658656D01*
X660126Y475399D01*
X660693Y475966D01*
X697028D01*
X716521Y456473D01*
X717437Y455861D01*
X718518Y455646D01*
X718518Y455646D01*
X836397D01*
X892309Y399733D01*
X892309Y399733D01*
X893226Y399121D01*
X894307Y398906D01*
X965468D01*
X965731Y396906D01*
X963977Y396436D01*
X961753Y395152D01*
X959938Y393337D01*
X958654Y391113D01*
X958403Y390174D01*
X666817D01*
X663817Y393175D01*
X663936Y395389D01*
X665061Y396514D01*
X665670Y397984D01*
Y399576D01*
X665061Y401046D01*
X664494Y401613D01*
Y412870D01*
X666494Y413699D01*
X667024Y413169D01*
X668494Y412560D01*
X670086D01*
X671556Y413169D01*
X672681Y414294D01*
X673290Y415764D01*
Y417356D01*
X672681Y418826D01*
X672114Y419393D01*
Y440388D01*
X672114Y440388D01*
X671899Y441469D01*
X671287Y442385D01*
X671287Y442385D01*
X666400Y447272D01*
X666541Y447776D01*
X666750Y448111D01*
Y453390D01*
X661470D01*
X661136Y453181D01*
X660632Y453040D01*
X650524Y463148D01*
Y492860D01*
X657760Y500096D01*
X732715D01*
X733584Y499515D01*
X734665Y499300D01*
X809778D01*
X810344Y498733D01*
X811814Y498124D01*
X813406D01*
X814876Y498733D01*
X816001Y499859D01*
X816610Y501329D01*
Y502920D01*
X816001Y504390D01*
X814876Y505515D01*
X813406Y506124D01*
X811814D01*
X810344Y505515D01*
X809778Y504949D01*
X735819D01*
X734950Y505529D01*
X733869Y505744D01*
X733869Y505744D01*
X656590D01*
X656590Y505744D01*
X655509Y505529D01*
X654593Y504917D01*
X654593Y504917D01*
X646174Y496498D01*
X644313Y497119D01*
X644174Y497228D01*
Y500480D01*
X653950Y510256D01*
X737577D01*
X738144Y509689D01*
X739614Y509080D01*
X741206D01*
X742676Y509689D01*
X743801Y510814D01*
X744410Y512284D01*
Y513876D01*
X743801Y515346D01*
X742676Y516471D01*
X741206Y517080D01*
X739614D01*
X738144Y516471D01*
X737577Y515904D01*
X652780D01*
X651699Y515689D01*
X650783Y515077D01*
X639353Y503647D01*
X638741Y502731D01*
X638526Y501650D01*
X638526Y501650D01*
Y457200D01*
X638526Y457200D01*
X638741Y456119D01*
X639353Y455203D01*
X658846Y435710D01*
Y421028D01*
X658706Y420918D01*
X656846Y420298D01*
X654777Y422367D01*
X653861Y422979D01*
X652780Y423194D01*
X652780Y423194D01*
X637540D01*
X637540Y423194D01*
X636459Y422979D01*
X635543Y422367D01*
X635543Y422367D01*
X632813Y419637D01*
X632201Y418721D01*
X631986Y417640D01*
X631986Y417640D01*
Y394680D01*
X629926Y392620D01*
X629124D01*
X627654Y392011D01*
X625608Y392794D01*
X623581Y394821D01*
Y395623D01*
X622972Y397093D01*
X621847Y398218D01*
X620377Y398827D01*
X618786D01*
X617315Y398218D01*
X616190Y397093D01*
X615581Y395623D01*
Y394031D01*
X616190Y392561D01*
X617315Y391436D01*
X618786Y390827D01*
X619587D01*
X621826Y388588D01*
Y334367D01*
X621826Y334367D01*
X622041Y333286D01*
X622653Y332370D01*
X765250Y189773D01*
X765250Y189773D01*
X766166Y189161D01*
X767247Y188946D01*
X856493D01*
X857322Y186946D01*
X851000Y180624D01*
X756110D01*
X754774Y182624D01*
X754808Y182707D01*
X743867D01*
X743902Y182624D01*
X742565Y180624D01*
X660300D01*
X433354Y407570D01*
Y460820D01*
X433866D01*
X435336Y461429D01*
X436461Y462554D01*
X437070Y464024D01*
Y465616D01*
X436461Y467086D01*
X435336Y468211D01*
X433866Y468820D01*
X432274D01*
X430804Y468211D01*
X429679Y467086D01*
X429070Y465616D01*
Y464636D01*
X428533Y464099D01*
X427921Y463183D01*
X427706Y462102D01*
X427706Y462102D01*
Y406400D01*
X427706Y406400D01*
X427921Y405319D01*
X428533Y404403D01*
X657133Y175803D01*
X658049Y175191D01*
X659130Y174976D01*
X852170D01*
X852170Y174976D01*
X852811Y175103D01*
X853931Y173592D01*
X853989Y173454D01*
X852270Y171734D01*
X655220D01*
X424464Y402490D01*
Y465900D01*
X424976D01*
X426446Y466509D01*
X427571Y467634D01*
X428180Y469104D01*
Y470696D01*
X427571Y472166D01*
X426446Y473291D01*
X424976Y473900D01*
X424621D01*
X423159Y475395D01*
X423100Y475782D01*
Y477046D01*
X422491Y478516D01*
X421366Y479641D01*
X419896Y480250D01*
X418304D01*
X416834Y479641D01*
X415709Y478516D01*
X415100Y477046D01*
Y476244D01*
X411833Y472977D01*
X411221Y472061D01*
X411006Y470980D01*
X411006Y470980D01*
Y434214D01*
X409006Y433386D01*
X345646Y496746D01*
Y532130D01*
X345590Y532556D01*
Y532986D01*
X345479Y533401D01*
X345423Y533827D01*
X345258Y534224D01*
X345147Y534639D01*
X344932Y535011D01*
X344768Y535408D01*
X344506Y535749D01*
X344291Y536121D01*
X343987Y536425D01*
X343726Y536766D01*
X343385Y537027D01*
X343081Y537331D01*
X342709Y537546D01*
X342368Y537808D01*
X341971Y537972D01*
X341599Y538187D01*
X341184Y538298D01*
X340787Y538463D01*
X340361Y538519D01*
X339946Y538630D01*
X339516D01*
X339090Y538686D01*
D02*
G37*
G36*
X174418Y512907D02*
X170218D01*
Y508707D01*
X172086Y509480D01*
X173644Y511039D01*
X174418Y512907D01*
D02*
G37*
G36*
X167678D02*
X163477D01*
X164251Y511039D01*
X165810Y509480D01*
X167678Y508707D01*
Y512907D01*
D02*
G37*
G36*
X432190Y511810D02*
X427990D01*
Y507610D01*
X429858Y508383D01*
X431417Y509942D01*
X432190Y511810D01*
D02*
G37*
G36*
X425450D02*
X421250D01*
X422023Y509942D01*
X423582Y508383D01*
X425450Y507610D01*
Y511810D01*
D02*
G37*
G36*
X70278Y510367D02*
X66078D01*
Y506166D01*
X67946Y506940D01*
X69504Y508499D01*
X70278Y510367D01*
D02*
G37*
G36*
X63538D02*
X59337D01*
X60111Y508499D01*
X61670Y506940D01*
X63538Y506166D01*
Y510367D01*
D02*
G37*
G36*
X33448D02*
X29248D01*
Y506166D01*
X31116Y506940D01*
X32674Y508499D01*
X33448Y510367D01*
D02*
G37*
G36*
X26708D02*
X22507D01*
X23281Y508499D01*
X24840Y506940D01*
X26708Y506166D01*
Y510367D01*
D02*
G37*
G36*
X826296Y506920D02*
X824704D01*
X823234Y506311D01*
X822109Y505186D01*
X821500Y503716D01*
Y502124D01*
X822109Y500654D01*
X823234Y499529D01*
X824704Y498920D01*
X826296D01*
X827766Y499529D01*
X828891Y500654D01*
X829500Y502124D01*
Y503716D01*
X828891Y505186D01*
X827766Y506311D01*
X826296Y506920D01*
D02*
G37*
G36*
X420115Y502080D02*
Y497880D01*
X424315D01*
X423541Y499748D01*
X421983Y501306D01*
X420115Y502080D01*
D02*
G37*
G36*
X417575D02*
X415706Y501306D01*
X414148Y499748D01*
X413374Y497880D01*
X417575D01*
Y502080D01*
D02*
G37*
G36*
X582930Y499500D02*
Y495300D01*
X587130D01*
X586357Y497168D01*
X584798Y498727D01*
X582930Y499500D01*
D02*
G37*
G36*
X580390D02*
X578522Y498727D01*
X576963Y497168D01*
X576190Y495300D01*
X580390D01*
Y499500D01*
D02*
G37*
G36*
X1140498Y499327D02*
Y495127D01*
X1144698D01*
X1143924Y496995D01*
X1142366Y498554D01*
X1140498Y499327D01*
D02*
G37*
G36*
X1137958D02*
X1136090Y498554D01*
X1134531Y496995D01*
X1133757Y495127D01*
X1137958D01*
Y499327D01*
D02*
G37*
G36*
X967778D02*
Y495127D01*
X971978D01*
X971204Y496995D01*
X969646Y498554D01*
X967778Y499327D01*
D02*
G37*
G36*
X965238D02*
X963370Y498554D01*
X961811Y496995D01*
X961037Y495127D01*
X965238D01*
Y499327D01*
D02*
G37*
G36*
X1016038Y498057D02*
Y493857D01*
X1020238D01*
X1019464Y495725D01*
X1017906Y497284D01*
X1016038Y498057D01*
D02*
G37*
G36*
X1013498D02*
X1011630Y497284D01*
X1010071Y495725D01*
X1009297Y493857D01*
X1013498D01*
Y498057D01*
D02*
G37*
G36*
X1096971Y502270D02*
X1096920D01*
Y493510D01*
X1105680D01*
Y493560D01*
X1104996Y496111D01*
X1103676Y498399D01*
X1101809Y500266D01*
X1099521Y501586D01*
X1096971Y502270D01*
D02*
G37*
G36*
X1094380D02*
X1094330D01*
X1091779Y501586D01*
X1089491Y500266D01*
X1087624Y498399D01*
X1086303Y496111D01*
X1085620Y493560D01*
Y493510D01*
X1094380D01*
Y502270D01*
D02*
G37*
G36*
X424315Y495340D02*
X420115D01*
Y491139D01*
X421983Y491913D01*
X423541Y493472D01*
X424315Y495340D01*
D02*
G37*
G36*
X417575D02*
X413374D01*
X414148Y493472D01*
X415706Y491913D01*
X417575Y491139D01*
Y495340D01*
D02*
G37*
G36*
X248920Y493150D02*
Y488950D01*
X253120D01*
X252347Y490818D01*
X250788Y492377D01*
X248920Y493150D01*
D02*
G37*
G36*
X246380D02*
X244512Y492377D01*
X242953Y490818D01*
X242180Y488950D01*
X246380D01*
Y493150D01*
D02*
G37*
G36*
X587130Y492760D02*
X582930D01*
Y488560D01*
X584798Y489333D01*
X586357Y490892D01*
X587130Y492760D01*
D02*
G37*
G36*
X580390D02*
X576190D01*
X576963Y490892D01*
X578522Y489333D01*
X580390Y488560D01*
Y492760D01*
D02*
G37*
G36*
X1144698Y492587D02*
X1140498D01*
Y488386D01*
X1142366Y489160D01*
X1143924Y490719D01*
X1144698Y492587D01*
D02*
G37*
G36*
X1137958D02*
X1133757D01*
X1134531Y490719D01*
X1136090Y489160D01*
X1137958Y488386D01*
Y492587D01*
D02*
G37*
G36*
X971978D02*
X967778D01*
Y488386D01*
X969646Y489160D01*
X971204Y490719D01*
X971978Y492587D01*
D02*
G37*
G36*
X965238D02*
X961037D01*
X961811Y490719D01*
X963370Y489160D01*
X965238Y488386D01*
Y492587D01*
D02*
G37*
G36*
X288290Y491880D02*
Y487680D01*
X292490D01*
X291717Y489548D01*
X290158Y491107D01*
X288290Y491880D01*
D02*
G37*
G36*
X285750D02*
X283882Y491107D01*
X282323Y489548D01*
X281550Y487680D01*
X285750D01*
Y491880D01*
D02*
G37*
G36*
X1020238Y491317D02*
X1016038D01*
Y487117D01*
X1017906Y487890D01*
X1019464Y489449D01*
X1020238Y491317D01*
D02*
G37*
G36*
X1013498D02*
X1009297D01*
X1010071Y489449D01*
X1011630Y487890D01*
X1013498Y487117D01*
Y491317D01*
D02*
G37*
G36*
X321310Y490610D02*
Y486410D01*
X325510D01*
X324737Y488278D01*
X323178Y489837D01*
X321310Y490610D01*
D02*
G37*
G36*
X318770D02*
X316902Y489837D01*
X315343Y488278D01*
X314570Y486410D01*
X318770D01*
Y490610D01*
D02*
G37*
G36*
X1051834Y501230D02*
X1049466D01*
X1047180Y500617D01*
X1045130Y499434D01*
X1043456Y497760D01*
X1042273Y495710D01*
X1041660Y493424D01*
Y491056D01*
X1042273Y488770D01*
X1043456Y486720D01*
X1045130Y485046D01*
X1047180Y483863D01*
X1049466Y483250D01*
X1051834D01*
X1054120Y483863D01*
X1056170Y485046D01*
X1057844Y486720D01*
X1059027Y488770D01*
X1059640Y491056D01*
Y493424D01*
X1059027Y495710D01*
X1057844Y497760D01*
X1056170Y499434D01*
X1054120Y500617D01*
X1051834Y501230D01*
D02*
G37*
G36*
X1105680Y490970D02*
X1096920D01*
Y482210D01*
X1096971D01*
X1099521Y482893D01*
X1101809Y484214D01*
X1103676Y486082D01*
X1104996Y488369D01*
X1105680Y490919D01*
Y490970D01*
D02*
G37*
G36*
X1094380D02*
X1085620D01*
Y490919D01*
X1086303Y488369D01*
X1087624Y486082D01*
X1089491Y484214D01*
X1091779Y482893D01*
X1094330Y482210D01*
X1094380D01*
Y490970D01*
D02*
G37*
G36*
X253120Y486410D02*
X248920D01*
Y482210D01*
X250788Y482983D01*
X252347Y484542D01*
X253120Y486410D01*
D02*
G37*
G36*
X246380D02*
X242180D01*
X242953Y484542D01*
X244512Y482983D01*
X246380Y482210D01*
Y486410D01*
D02*
G37*
G36*
X507261Y485973D02*
X502520D01*
X503411Y483821D01*
X505110Y482122D01*
X507261Y481231D01*
Y485973D01*
D02*
G37*
G36*
X552113Y485727D02*
X547371D01*
Y480985D01*
X549523Y481876D01*
X551222Y483575D01*
X552113Y485727D01*
D02*
G37*
G36*
X509782Y530289D02*
Y524278D01*
X508512D01*
Y523008D01*
X502501D01*
X503392Y520857D01*
X505091Y519157D01*
X505101Y517137D01*
X504562Y515835D01*
X508950D01*
Y513295D01*
X504562D01*
X505101Y511993D01*
X505633Y511462D01*
X505417Y510379D01*
X503718Y508680D01*
X502827Y506529D01*
X508839D01*
Y503989D01*
X502827D01*
X503718Y501838D01*
X505417Y500138D01*
X505589Y499275D01*
X505101Y498787D01*
X504562Y497485D01*
X508950D01*
Y494945D01*
X504562D01*
X505101Y493643D01*
X505321Y493424D01*
X505110Y492363D01*
X503411Y490664D01*
X502520Y488513D01*
X508531D01*
Y487243D01*
X509801D01*
Y481231D01*
X511953Y482122D01*
X513652Y483821D01*
X515553Y483191D01*
X516855Y482652D01*
Y487040D01*
X519395D01*
Y482652D01*
X520697Y483191D01*
X521517Y484012D01*
X521858Y483944D01*
X523557Y482245D01*
X525708Y481354D01*
Y487366D01*
X528248D01*
Y481354D01*
X530400Y482245D01*
X531318Y483163D01*
X532100Y483944D01*
X533903Y483191D01*
X535205Y482652D01*
Y487040D01*
X537745D01*
Y482652D01*
X539047Y483191D01*
X540981Y483575D01*
X542680Y481876D01*
X544831Y480985D01*
Y486997D01*
X546101D01*
Y488267D01*
X552113D01*
X551222Y490418D01*
X549523Y492117D01*
X549266Y493410D01*
X549499Y493643D01*
X550038Y494945D01*
X545650D01*
Y497485D01*
X550038D01*
X549499Y498787D01*
X549371Y498914D01*
X549653Y500331D01*
X551352Y502030D01*
X552243Y504181D01*
X546232D01*
Y506721D01*
X552243D01*
X551352Y508873D01*
X549653Y510572D01*
X549392Y511886D01*
X549499Y511993D01*
X550038Y513295D01*
X545650D01*
Y515835D01*
X550038D01*
X549499Y517137D01*
X549247Y517389D01*
X549550Y518913D01*
X551249Y520612D01*
X552140Y522763D01*
X546129D01*
Y524033D01*
X544859D01*
Y530045D01*
X542707Y529154D01*
X541008Y527454D01*
X539047Y527589D01*
X537745Y528128D01*
Y523740D01*
X535205D01*
Y528128D01*
X533903Y527589D01*
X533351Y527037D01*
X532482Y527210D01*
X530783Y528909D01*
X528631Y529800D01*
Y523788D01*
X526091D01*
Y529800D01*
X523940Y528909D01*
X522241Y527210D01*
X521269Y527016D01*
X520697Y527589D01*
X519395Y528128D01*
Y523740D01*
X516855D01*
Y528128D01*
X515553Y527589D01*
X513633Y527699D01*
X513342Y527990D01*
X511934Y529398D01*
X509782Y530289D01*
D02*
G37*
G36*
X292490Y485140D02*
X288290D01*
Y480940D01*
X290158Y481713D01*
X291717Y483272D01*
X292490Y485140D01*
D02*
G37*
G36*
X285750D02*
X281550D01*
X282323Y483272D01*
X283882Y481713D01*
X285750Y480940D01*
Y485140D01*
D02*
G37*
G36*
X325510Y483870D02*
X321310D01*
Y479670D01*
X323178Y480443D01*
X324737Y482002D01*
X325510Y483870D01*
D02*
G37*
G36*
X318770D02*
X314570D01*
X315343Y482002D01*
X316902Y480443D01*
X318770Y479670D01*
Y483870D01*
D02*
G37*
G36*
X30518Y476467D02*
Y472267D01*
X34718D01*
X33944Y474135D01*
X32386Y475694D01*
X30518Y476467D01*
D02*
G37*
G36*
X27978D02*
X26110Y475694D01*
X24551Y474135D01*
X23777Y472267D01*
X27978D01*
Y476467D01*
D02*
G37*
G36*
X107950Y475370D02*
Y471170D01*
X112150D01*
X111377Y473038D01*
X109818Y474597D01*
X107950Y475370D01*
D02*
G37*
G36*
X105410D02*
X103542Y474597D01*
X101983Y473038D01*
X101210Y471170D01*
X105410D01*
Y475370D01*
D02*
G37*
G36*
X1141768Y473927D02*
Y469727D01*
X1145968D01*
X1145194Y471595D01*
X1143636Y473153D01*
X1141768Y473927D01*
D02*
G37*
G36*
X1139228D02*
X1137360Y473153D01*
X1135801Y471595D01*
X1135027Y469727D01*
X1139228D01*
Y473927D01*
D02*
G37*
G36*
X168948D02*
Y469727D01*
X173148D01*
X172374Y471595D01*
X170816Y473153D01*
X168948Y473927D01*
D02*
G37*
G36*
X166408D02*
X164540Y473153D01*
X162981Y471595D01*
X162207Y469727D01*
X166408D01*
Y473927D01*
D02*
G37*
G36*
X67348D02*
Y469727D01*
X71548D01*
X70774Y471595D01*
X69216Y473153D01*
X67348Y473927D01*
D02*
G37*
G36*
X64808D02*
X62940Y473153D01*
X61381Y471595D01*
X60607Y469727D01*
X64808D01*
Y473927D01*
D02*
G37*
G36*
X486410Y471560D02*
Y467360D01*
X490610D01*
X489837Y469228D01*
X488278Y470787D01*
X486410Y471560D01*
D02*
G37*
G36*
X483870D02*
X482002Y470787D01*
X480443Y469228D01*
X479670Y467360D01*
X483870D01*
Y471560D01*
D02*
G37*
G36*
X658656Y494220D02*
X657064D01*
X655594Y493611D01*
X654469Y492486D01*
X653860Y491016D01*
Y489424D01*
X654469Y487954D01*
X655594Y486829D01*
X657064Y486220D01*
X658656D01*
X660126Y486829D01*
X660693Y487396D01*
X725270D01*
X743493Y469173D01*
X743493Y469173D01*
X744409Y468561D01*
X745490Y468346D01*
X768057D01*
X768624Y467779D01*
X770094Y467170D01*
X771686D01*
X773156Y467779D01*
X774281Y468904D01*
X774890Y470374D01*
Y471966D01*
X774281Y473436D01*
X773156Y474561D01*
X771686Y475170D01*
X770094D01*
X768624Y474561D01*
X768057Y473994D01*
X746660D01*
X728437Y492217D01*
X727521Y492829D01*
X726440Y493044D01*
X726440Y493044D01*
X660693D01*
X660126Y493611D01*
X658656Y494220D01*
D02*
G37*
G36*
X34718Y469727D02*
X30518D01*
Y465527D01*
X32386Y466300D01*
X33944Y467859D01*
X34718Y469727D01*
D02*
G37*
G36*
X27978D02*
X23777D01*
X24551Y467859D01*
X26110Y466300D01*
X27978Y465527D01*
Y469727D01*
D02*
G37*
G36*
X112150Y468630D02*
X107950D01*
Y464430D01*
X109818Y465203D01*
X111377Y466762D01*
X112150Y468630D01*
D02*
G37*
G36*
X105410D02*
X101210D01*
X101983Y466762D01*
X103542Y465203D01*
X105410Y464430D01*
Y468630D01*
D02*
G37*
G36*
X577850Y467750D02*
Y463550D01*
X582050D01*
X581277Y465418D01*
X579718Y466977D01*
X577850Y467750D01*
D02*
G37*
G36*
X575310D02*
X573442Y466977D01*
X571883Y465418D01*
X571110Y463550D01*
X575310D01*
Y467750D01*
D02*
G37*
G36*
X1145968Y467187D02*
X1141768D01*
Y462986D01*
X1143636Y463760D01*
X1145194Y465319D01*
X1145968Y467187D01*
D02*
G37*
G36*
X1139228D02*
X1135027D01*
X1135801Y465319D01*
X1137360Y463760D01*
X1139228Y462986D01*
Y467187D01*
D02*
G37*
G36*
X173148D02*
X168948D01*
Y462986D01*
X170816Y463760D01*
X172374Y465319D01*
X173148Y467187D01*
D02*
G37*
G36*
X166408D02*
X162207D01*
X162981Y465319D01*
X164540Y463760D01*
X166408Y462986D01*
Y467187D01*
D02*
G37*
G36*
X71548D02*
X67348D01*
Y462986D01*
X69216Y463760D01*
X70774Y465319D01*
X71548Y467187D01*
D02*
G37*
G36*
X64808D02*
X60607D01*
X61381Y465319D01*
X62940Y463760D01*
X64808Y462986D01*
Y467187D01*
D02*
G37*
G36*
X530860Y466480D02*
Y462280D01*
X535060D01*
X534287Y464148D01*
X532728Y465707D01*
X530860Y466480D01*
D02*
G37*
G36*
X528320D02*
X526452Y465707D01*
X524893Y464148D01*
X524120Y462280D01*
X528320D01*
Y466480D01*
D02*
G37*
G36*
X490610Y464820D02*
X486410D01*
Y460620D01*
X488278Y461393D01*
X489837Y462952D01*
X490610Y464820D01*
D02*
G37*
G36*
X483870D02*
X479670D01*
X480443Y462952D01*
X482002Y461393D01*
X483870Y460620D01*
Y464820D01*
D02*
G37*
G36*
X1010958Y461227D02*
Y457027D01*
X1015158D01*
X1014384Y458895D01*
X1012826Y460453D01*
X1010958Y461227D01*
D02*
G37*
G36*
X1008418D02*
X1006550Y460453D01*
X1004991Y458895D01*
X1004217Y457027D01*
X1008418D01*
Y461227D01*
D02*
G37*
G36*
X582050Y461010D02*
X577850D01*
Y456810D01*
X579718Y457583D01*
X581277Y459142D01*
X582050Y461010D01*
D02*
G37*
G36*
X575310D02*
X571110D01*
X571883Y459142D01*
X573442Y457583D01*
X575310Y456810D01*
Y461010D01*
D02*
G37*
G36*
X669290Y460130D02*
Y455930D01*
X673490D01*
X672717Y457798D01*
X671158Y459357D01*
X669290Y460130D01*
D02*
G37*
G36*
X666750D02*
X664882Y459357D01*
X663323Y457798D01*
X662550Y455930D01*
X666750D01*
Y460130D01*
D02*
G37*
G36*
X321348Y459957D02*
Y455757D01*
X325548D01*
X324774Y457625D01*
X323216Y459184D01*
X321348Y459957D01*
D02*
G37*
G36*
X318808D02*
X316940Y459184D01*
X315381Y457625D01*
X314607Y455757D01*
X318808D01*
Y459957D01*
D02*
G37*
G36*
X287058D02*
Y455757D01*
X291258D01*
X290484Y457625D01*
X288926Y459184D01*
X287058Y459957D01*
D02*
G37*
G36*
X284518D02*
X282650Y459184D01*
X281091Y457625D01*
X280317Y455757D01*
X284518D01*
Y459957D01*
D02*
G37*
G36*
X535060Y459740D02*
X530860D01*
Y455540D01*
X532728Y456313D01*
X534287Y457872D01*
X535060Y459740D01*
D02*
G37*
G36*
X528320D02*
X524120D01*
X524893Y457872D01*
X526452Y456313D01*
X528320Y455540D01*
Y459740D01*
D02*
G37*
G36*
X248920Y458860D02*
Y454660D01*
X253120D01*
X252347Y456528D01*
X250788Y458087D01*
X248920Y458860D01*
D02*
G37*
G36*
X246380D02*
X244512Y458087D01*
X242953Y456528D01*
X242180Y454660D01*
X246380D01*
Y458860D01*
D02*
G37*
G36*
X969024Y473300D02*
X966456D01*
X963977Y472635D01*
X961753Y471352D01*
X959938Y469537D01*
X958654Y467313D01*
X957990Y464834D01*
Y462266D01*
X958654Y459787D01*
X959938Y457563D01*
X961753Y455748D01*
X963977Y454464D01*
X966456Y453800D01*
X969024D01*
X971503Y454464D01*
X973727Y455748D01*
X975542Y457563D01*
X976825Y459787D01*
X977490Y462266D01*
Y464834D01*
X976825Y467313D01*
X975542Y469537D01*
X973727Y471352D01*
X971503Y472635D01*
X969024Y473300D01*
D02*
G37*
G36*
X1015158Y454487D02*
X1010958D01*
Y450286D01*
X1012826Y451060D01*
X1014384Y452619D01*
X1015158Y454487D01*
D02*
G37*
G36*
X1008418D02*
X1004217D01*
X1004991Y452619D01*
X1006550Y451060D01*
X1008418Y450286D01*
Y454487D01*
D02*
G37*
G36*
X673490Y453390D02*
X669290D01*
Y449190D01*
X671158Y449963D01*
X672717Y451522D01*
X673490Y453390D01*
D02*
G37*
G36*
X325548Y453217D02*
X321348D01*
Y449016D01*
X323216Y449790D01*
X324774Y451349D01*
X325548Y453217D01*
D02*
G37*
G36*
X318808D02*
X314607D01*
X315381Y451349D01*
X316940Y449790D01*
X318808Y449016D01*
Y453217D01*
D02*
G37*
G36*
X291258D02*
X287058D01*
Y449016D01*
X288926Y449790D01*
X290484Y451349D01*
X291258Y453217D01*
D02*
G37*
G36*
X284518D02*
X280317D01*
X281091Y451349D01*
X282650Y449790D01*
X284518Y449016D01*
Y453217D01*
D02*
G37*
G36*
X253120Y452120D02*
X248920D01*
Y447920D01*
X250788Y448693D01*
X252347Y450252D01*
X253120Y452120D01*
D02*
G37*
G36*
X246380D02*
X242180D01*
X242953Y450252D01*
X244512Y448693D01*
X246380Y447920D01*
Y452120D01*
D02*
G37*
G36*
X658656Y470090D02*
X657064D01*
X655594Y469481D01*
X654469Y468356D01*
X653860Y466886D01*
Y465294D01*
X654469Y463824D01*
X655594Y462699D01*
X657064Y462090D01*
X658656D01*
X660126Y462699D01*
X660693Y463266D01*
X687508D01*
X705731Y445043D01*
X705731Y445043D01*
X706647Y444431D01*
X707728Y444216D01*
X742657D01*
X743224Y443649D01*
X744694Y443040D01*
X746286D01*
X747756Y443649D01*
X748881Y444774D01*
X749490Y446244D01*
Y447836D01*
X748881Y449306D01*
X747756Y450431D01*
X746286Y451040D01*
X744694D01*
X743224Y450431D01*
X742657Y449864D01*
X708898D01*
X690675Y468087D01*
X689759Y468699D01*
X688678Y468914D01*
X688678Y468914D01*
X660693D01*
X660126Y469481D01*
X658656Y470090D01*
D02*
G37*
G36*
X643890Y443620D02*
Y439420D01*
X648090D01*
X647317Y441288D01*
X645758Y442847D01*
X643890Y443620D01*
D02*
G37*
G36*
X641350D02*
X639482Y442847D01*
X637923Y441288D01*
X637150Y439420D01*
X641350D01*
Y443620D01*
D02*
G37*
G36*
X487680Y442350D02*
Y438150D01*
X491880D01*
X491107Y440018D01*
X489548Y441577D01*
X487680Y442350D01*
D02*
G37*
G36*
X485140D02*
X483272Y441577D01*
X481713Y440018D01*
X480940Y438150D01*
X485140D01*
Y442350D01*
D02*
G37*
G36*
X1140498Y442177D02*
Y437977D01*
X1144698D01*
X1143924Y439845D01*
X1142366Y441404D01*
X1140498Y442177D01*
D02*
G37*
G36*
X1137958D02*
X1136090Y441404D01*
X1134531Y439845D01*
X1133757Y437977D01*
X1137958D01*
Y442177D01*
D02*
G37*
G36*
X530860Y441080D02*
Y436880D01*
X535060D01*
X534287Y438748D01*
X532728Y440307D01*
X530860Y441080D01*
D02*
G37*
G36*
X528320D02*
X526452Y440307D01*
X524893Y438748D01*
X524120Y436880D01*
X528320D01*
Y441080D01*
D02*
G37*
G36*
X820458Y439637D02*
Y435437D01*
X824658D01*
X823884Y437305D01*
X822326Y438863D01*
X820458Y439637D01*
D02*
G37*
G36*
X817918D02*
X816050Y438863D01*
X814491Y437305D01*
X813717Y435437D01*
X817918D01*
Y439637D01*
D02*
G37*
G36*
X577850Y438540D02*
Y434340D01*
X582050D01*
X581277Y436208D01*
X579718Y437767D01*
X577850Y438540D01*
D02*
G37*
G36*
X575310D02*
X573442Y437767D01*
X571883Y436208D01*
X571110Y434340D01*
X575310D01*
Y438540D01*
D02*
G37*
G36*
X648090Y436880D02*
X643890D01*
Y432680D01*
X645758Y433453D01*
X647317Y435012D01*
X648090Y436880D01*
D02*
G37*
G36*
X641350D02*
X637150D01*
X637923Y435012D01*
X639482Y433453D01*
X641350Y432680D01*
Y436880D01*
D02*
G37*
G36*
X491880Y435610D02*
X487680D01*
Y431410D01*
X489548Y432183D01*
X491107Y433742D01*
X491880Y435610D01*
D02*
G37*
G36*
X485140D02*
X480940D01*
X481713Y433742D01*
X483272Y432183D01*
X485140Y431410D01*
Y435610D01*
D02*
G37*
G36*
X1144698Y435437D02*
X1140498D01*
Y431236D01*
X1142366Y432010D01*
X1143924Y433569D01*
X1144698Y435437D01*
D02*
G37*
G36*
X1137958D02*
X1133757D01*
X1134531Y433569D01*
X1136090Y432010D01*
X1137958Y431236D01*
Y435437D01*
D02*
G37*
G36*
X535060Y434340D02*
X530860D01*
Y430140D01*
X532728Y430913D01*
X534287Y432472D01*
X535060Y434340D01*
D02*
G37*
G36*
X528320D02*
X524120D01*
X524893Y432472D01*
X526452Y430913D01*
X528320Y430140D01*
Y434340D01*
D02*
G37*
G36*
X27978Y433287D02*
Y429087D01*
X32178D01*
X31404Y430955D01*
X29846Y432514D01*
X27978Y433287D01*
D02*
G37*
G36*
X25438D02*
X23570Y432514D01*
X22011Y430955D01*
X21237Y429087D01*
X25438D01*
Y433287D01*
D02*
G37*
G36*
X824658Y432897D02*
X820458D01*
Y428697D01*
X822326Y429470D01*
X823884Y431029D01*
X824658Y432897D01*
D02*
G37*
G36*
X817918D02*
X813717D01*
X814491Y431029D01*
X816050Y429470D01*
X817918Y428697D01*
Y432897D01*
D02*
G37*
G36*
X969024Y447900D02*
X966456D01*
X963977Y447235D01*
X961753Y445952D01*
X959938Y444137D01*
X958654Y441913D01*
X957990Y439434D01*
Y436866D01*
X958654Y434387D01*
X959938Y432163D01*
X961753Y430348D01*
X963977Y429064D01*
X966456Y428400D01*
X969024D01*
X971503Y429064D01*
X973727Y430348D01*
X975542Y432163D01*
X976825Y434387D01*
X977490Y436866D01*
Y439434D01*
X976825Y441913D01*
X975542Y444137D01*
X973727Y445952D01*
X971503Y447235D01*
X969024Y447900D01*
D02*
G37*
G36*
X316230Y432190D02*
Y427990D01*
X320430D01*
X319657Y429858D01*
X318098Y431417D01*
X316230Y432190D01*
D02*
G37*
G36*
X313690D02*
X311822Y431417D01*
X310263Y429858D01*
X309490Y427990D01*
X313690D01*
Y432190D01*
D02*
G37*
G36*
X582050Y431800D02*
X577850D01*
Y427600D01*
X579718Y428373D01*
X581277Y429932D01*
X582050Y431800D01*
D02*
G37*
G36*
X575310D02*
X571110D01*
X571883Y429932D01*
X573442Y428373D01*
X575310Y427600D01*
Y431800D01*
D02*
G37*
G36*
X106680Y430920D02*
Y426720D01*
X110880D01*
X110107Y428588D01*
X108548Y430147D01*
X106680Y430920D01*
D02*
G37*
G36*
X104140D02*
X102272Y430147D01*
X100713Y428588D01*
X99940Y426720D01*
X104140D01*
Y430920D01*
D02*
G37*
G36*
X734098Y430747D02*
Y426547D01*
X738298D01*
X737524Y428415D01*
X735966Y429973D01*
X734098Y430747D01*
D02*
G37*
G36*
X731558D02*
X729690Y429973D01*
X728131Y428415D01*
X727357Y426547D01*
X731558D01*
Y430747D01*
D02*
G37*
G36*
X168025Y428352D02*
Y424151D01*
X172226D01*
X171452Y426020D01*
X169894Y427578D01*
X168025Y428352D01*
D02*
G37*
G36*
X165485D02*
X163617Y427578D01*
X162059Y426020D01*
X161285Y424151D01*
X165485D01*
Y428352D01*
D02*
G37*
G36*
X67348Y428207D02*
Y424007D01*
X71548D01*
X70774Y425875D01*
X69216Y427434D01*
X67348Y428207D01*
D02*
G37*
G36*
X64808D02*
X62940Y427434D01*
X61381Y425875D01*
X60607Y424007D01*
X64808D01*
Y428207D01*
D02*
G37*
G36*
X32178Y426547D02*
X27978D01*
Y422346D01*
X29846Y423120D01*
X31404Y424679D01*
X32178Y426547D01*
D02*
G37*
G36*
X25438D02*
X21237D01*
X22011Y424679D01*
X23570Y423120D01*
X25438Y422346D01*
Y426547D01*
D02*
G37*
G36*
X320430Y425450D02*
X316230D01*
Y421250D01*
X318098Y422023D01*
X319657Y423582D01*
X320430Y425450D01*
D02*
G37*
G36*
X313690D02*
X309490D01*
X310263Y423582D01*
X311822Y422023D01*
X313690Y421250D01*
Y425450D01*
D02*
G37*
G36*
X110880Y424180D02*
X106680D01*
Y419980D01*
X108548Y420753D01*
X110107Y422312D01*
X110880Y424180D01*
D02*
G37*
G36*
X104140D02*
X99940D01*
X100713Y422312D01*
X102272Y420753D01*
X104140Y419980D01*
Y424180D01*
D02*
G37*
G36*
X738298Y424007D02*
X734098D01*
Y419807D01*
X735966Y420580D01*
X737524Y422139D01*
X738298Y424007D01*
D02*
G37*
G36*
X731558D02*
X727357D01*
X728131Y422139D01*
X729690Y420580D01*
X731558Y419807D01*
Y424007D01*
D02*
G37*
G36*
X1096834Y436230D02*
X1094466D01*
X1092180Y435617D01*
X1090130Y434434D01*
X1088456Y432760D01*
X1087273Y430710D01*
X1086660Y428424D01*
Y426056D01*
X1087273Y423770D01*
X1088456Y421720D01*
X1090130Y420046D01*
X1092180Y418863D01*
X1094466Y418250D01*
X1096834D01*
X1099120Y418863D01*
X1101170Y420046D01*
X1102844Y421720D01*
X1104027Y423770D01*
X1104640Y426056D01*
Y428424D01*
X1104027Y430710D01*
X1102844Y432760D01*
X1101170Y434434D01*
X1099120Y435617D01*
X1096834Y436230D01*
D02*
G37*
G36*
X1059640D02*
X1041660D01*
Y418250D01*
X1059640D01*
Y436230D01*
D02*
G37*
G36*
X172226Y421612D02*
X168025D01*
Y417411D01*
X169894Y418185D01*
X171452Y419743D01*
X172226Y421612D01*
D02*
G37*
G36*
X165485D02*
X161285D01*
X162059Y419743D01*
X163617Y418185D01*
X165485Y417411D01*
Y421612D01*
D02*
G37*
G36*
X71548Y421467D02*
X67348D01*
Y417267D01*
X69216Y418040D01*
X70774Y419599D01*
X71548Y421467D01*
D02*
G37*
G36*
X64808D02*
X60607D01*
X61381Y419599D01*
X62940Y418040D01*
X64808Y417267D01*
Y421467D01*
D02*
G37*
G36*
X316230Y414410D02*
Y410210D01*
X320430D01*
X319657Y412078D01*
X318098Y413637D01*
X316230Y414410D01*
D02*
G37*
G36*
X313690D02*
X311822Y413637D01*
X310263Y412078D01*
X309490Y410210D01*
X313690D01*
Y414410D01*
D02*
G37*
G36*
X1140498Y411697D02*
Y407497D01*
X1144698D01*
X1143924Y409365D01*
X1142366Y410924D01*
X1140498Y411697D01*
D02*
G37*
G36*
X1137958D02*
X1136090Y410924D01*
X1134531Y409365D01*
X1133757Y407497D01*
X1137958D01*
Y411697D01*
D02*
G37*
G36*
X754418Y410427D02*
Y406227D01*
X758618D01*
X757844Y408095D01*
X756286Y409654D01*
X754418Y410427D01*
D02*
G37*
G36*
X751878D02*
X750010Y409654D01*
X748451Y408095D01*
X747677Y406227D01*
X751878D01*
Y410427D01*
D02*
G37*
G36*
X831850Y408060D02*
Y403860D01*
X836050D01*
X835277Y405728D01*
X833718Y407287D01*
X831850Y408060D01*
D02*
G37*
G36*
X829310D02*
X827442Y407287D01*
X825883Y405728D01*
X825110Y403860D01*
X829310D01*
Y408060D01*
D02*
G37*
G36*
X320430Y407670D02*
X316230D01*
Y403470D01*
X318098Y404243D01*
X319657Y405802D01*
X320430Y407670D01*
D02*
G37*
G36*
X313690D02*
X309490D01*
X310263Y405802D01*
X311822Y404243D01*
X313690Y403470D01*
Y407670D01*
D02*
G37*
G36*
X1144698Y404957D02*
X1140498D01*
Y400756D01*
X1142366Y401530D01*
X1143924Y403089D01*
X1144698Y404957D01*
D02*
G37*
G36*
X1137958D02*
X1133757D01*
X1134531Y403089D01*
X1136090Y401530D01*
X1137958Y400756D01*
Y404957D01*
D02*
G37*
G36*
X1022388Y404077D02*
Y399877D01*
X1026588D01*
X1025814Y401745D01*
X1024256Y403303D01*
X1022388Y404077D01*
D02*
G37*
G36*
X1019848D02*
X1017980Y403303D01*
X1016421Y401745D01*
X1015647Y399877D01*
X1019848D01*
Y404077D01*
D02*
G37*
G36*
X758618Y403687D02*
X754418D01*
Y399487D01*
X756286Y400260D01*
X757844Y401819D01*
X758618Y403687D01*
D02*
G37*
G36*
X751878D02*
X747677D01*
X748451Y401819D01*
X750010Y400260D01*
X751878Y399487D01*
Y403687D01*
D02*
G37*
G36*
X836050Y401320D02*
X831850D01*
Y397120D01*
X833718Y397893D01*
X835277Y399452D01*
X836050Y401320D01*
D02*
G37*
G36*
X829310D02*
X825110D01*
X825883Y399452D01*
X827442Y397893D01*
X829310Y397120D01*
Y401320D01*
D02*
G37*
G36*
X1026588Y397337D02*
X1022388D01*
Y393136D01*
X1024256Y393910D01*
X1025814Y395469D01*
X1026588Y397337D01*
D02*
G37*
G36*
X1019848D02*
X1015647D01*
X1016421Y395469D01*
X1017980Y393910D01*
X1019848Y393136D01*
Y397337D01*
D02*
G37*
G36*
X26708Y387567D02*
Y383367D01*
X30908D01*
X30134Y385235D01*
X28576Y386794D01*
X26708Y387567D01*
D02*
G37*
G36*
X24168D02*
X22300Y386794D01*
X20741Y385235D01*
X19967Y383367D01*
X24168D01*
Y387567D01*
D02*
G37*
G36*
X106680Y386470D02*
Y382270D01*
X110880D01*
X110107Y384138D01*
X108548Y385697D01*
X106680Y386470D01*
D02*
G37*
G36*
X104140D02*
X102272Y385697D01*
X100713Y384138D01*
X99940Y382270D01*
X104140D01*
Y386470D01*
D02*
G37*
G36*
X1140498Y385027D02*
Y380827D01*
X1144698D01*
X1143924Y382695D01*
X1142366Y384254D01*
X1140498Y385027D01*
D02*
G37*
G36*
X1137958D02*
X1136090Y384254D01*
X1134531Y382695D01*
X1133757Y380827D01*
X1137958D01*
Y385027D01*
D02*
G37*
G36*
X1077958Y389071D02*
X1077840D01*
Y379800D01*
X1087111D01*
Y379918D01*
X1086393Y382599D01*
X1085005Y385002D01*
X1083042Y386965D01*
X1080639Y388353D01*
X1077958Y389071D01*
D02*
G37*
G36*
X1075300D02*
X1075182D01*
X1072501Y388353D01*
X1070098Y386965D01*
X1068135Y385002D01*
X1066747Y382599D01*
X1066029Y379918D01*
Y379800D01*
X1075300D01*
Y389071D01*
D02*
G37*
G36*
X167678Y383757D02*
Y379557D01*
X171878D01*
X171104Y381425D01*
X169546Y382984D01*
X167678Y383757D01*
D02*
G37*
G36*
X165138D02*
X163270Y382984D01*
X161711Y381425D01*
X160937Y379557D01*
X165138D01*
Y383757D01*
D02*
G37*
G36*
X66078D02*
Y379557D01*
X70278D01*
X69504Y381425D01*
X67946Y382984D01*
X66078Y383757D01*
D02*
G37*
G36*
X63538D02*
X61670Y382984D01*
X60111Y381425D01*
X59337Y379557D01*
X63538D01*
Y383757D01*
D02*
G37*
G36*
X30908Y380827D02*
X26708D01*
Y376627D01*
X28576Y377400D01*
X30134Y378959D01*
X30908Y380827D01*
D02*
G37*
G36*
X24168D02*
X19967D01*
X20741Y378959D01*
X22300Y377400D01*
X24168Y376627D01*
Y380827D01*
D02*
G37*
G36*
X110880Y379730D02*
X106680D01*
Y375530D01*
X108548Y376303D01*
X110107Y377862D01*
X110880Y379730D01*
D02*
G37*
G36*
X104140D02*
X99940D01*
X100713Y377862D01*
X102272Y376303D01*
X104140Y375530D01*
Y379730D01*
D02*
G37*
G36*
X1144698Y378287D02*
X1140498D01*
Y374086D01*
X1142366Y374860D01*
X1143924Y376419D01*
X1144698Y378287D01*
D02*
G37*
G36*
X1137958D02*
X1133757D01*
X1134531Y376419D01*
X1136090Y374860D01*
X1137958Y374086D01*
Y378287D01*
D02*
G37*
G36*
X171878Y377017D02*
X167678D01*
Y372817D01*
X169546Y373590D01*
X171104Y375149D01*
X171878Y377017D01*
D02*
G37*
G36*
X165138D02*
X160937D01*
X161711Y375149D01*
X163270Y373590D01*
X165138Y372817D01*
Y377017D01*
D02*
G37*
G36*
X70278D02*
X66078D01*
Y372817D01*
X67946Y373590D01*
X69504Y375149D01*
X70278Y377017D01*
D02*
G37*
G36*
X63538D02*
X59337D01*
X60111Y375149D01*
X61670Y373590D01*
X63538Y372817D01*
Y377017D01*
D02*
G37*
G36*
X1087111Y377260D02*
X1077840D01*
Y367989D01*
X1077958D01*
X1080639Y368707D01*
X1083042Y370095D01*
X1085005Y372058D01*
X1086393Y374461D01*
X1087111Y377142D01*
Y377260D01*
D02*
G37*
G36*
X1075300D02*
X1066029D01*
Y377142D01*
X1066747Y374461D01*
X1068135Y372058D01*
X1070098Y370095D01*
X1072501Y368707D01*
X1075182Y367989D01*
X1075300D01*
Y377260D01*
D02*
G37*
G36*
X1120178Y346927D02*
Y342727D01*
X1124378D01*
X1123604Y344595D01*
X1122046Y346153D01*
X1120178Y346927D01*
D02*
G37*
G36*
X1117638D02*
X1115770Y346153D01*
X1114211Y344595D01*
X1113437Y342727D01*
X1117638D01*
Y346927D01*
D02*
G37*
G36*
X1051598D02*
Y342727D01*
X1055798D01*
X1055024Y344595D01*
X1053466Y346153D01*
X1051598Y346927D01*
D02*
G37*
G36*
X1049058D02*
X1047190Y346153D01*
X1045631Y344595D01*
X1044857Y342727D01*
X1049058D01*
Y346927D01*
D02*
G37*
G36*
X443230Y345830D02*
Y341630D01*
X447430D01*
X446657Y343498D01*
X445098Y345057D01*
X443230Y345830D01*
D02*
G37*
G36*
X440690D02*
X438822Y345057D01*
X437263Y343498D01*
X436490Y341630D01*
X440690D01*
Y345830D01*
D02*
G37*
G36*
X1082078Y343117D02*
Y338917D01*
X1086278D01*
X1085504Y340785D01*
X1083946Y342343D01*
X1082078Y343117D01*
D02*
G37*
G36*
X1079538D02*
X1077670Y342343D01*
X1076111Y340785D01*
X1075337Y338917D01*
X1079538D01*
Y343117D01*
D02*
G37*
G36*
X1124378Y340187D02*
X1120178D01*
Y335987D01*
X1122046Y336760D01*
X1123604Y338319D01*
X1124378Y340187D01*
D02*
G37*
G36*
X1117638D02*
X1113437D01*
X1114211Y338319D01*
X1115770Y336760D01*
X1117638Y335987D01*
Y340187D01*
D02*
G37*
G36*
X1055798D02*
X1051598D01*
Y335987D01*
X1053466Y336760D01*
X1055024Y338319D01*
X1055798Y340187D01*
D02*
G37*
G36*
X1049058D02*
X1044857D01*
X1045631Y338319D01*
X1047190Y336760D01*
X1049058Y335987D01*
Y340187D01*
D02*
G37*
G36*
X447430Y339090D02*
X443230D01*
Y334890D01*
X445098Y335663D01*
X446657Y337222D01*
X447430Y339090D01*
D02*
G37*
G36*
X440690D02*
X436490D01*
X437263Y337222D01*
X438822Y335663D01*
X440690Y334890D01*
Y339090D01*
D02*
G37*
G36*
X1086278Y336377D02*
X1082078D01*
Y332177D01*
X1083946Y332950D01*
X1085504Y334509D01*
X1086278Y336377D01*
D02*
G37*
G36*
X1079538D02*
X1075337D01*
X1076111Y334509D01*
X1077670Y332950D01*
X1079538Y332177D01*
Y336377D01*
D02*
G37*
G36*
X105410Y334400D02*
Y330200D01*
X109610D01*
X108837Y332068D01*
X107278Y333627D01*
X105410Y334400D01*
D02*
G37*
G36*
X102870D02*
X101002Y333627D01*
X99443Y332068D01*
X98670Y330200D01*
X102870D01*
Y334400D01*
D02*
G37*
G36*
X167678Y334227D02*
Y330027D01*
X171878D01*
X171104Y331895D01*
X169546Y333453D01*
X167678Y334227D01*
D02*
G37*
G36*
X165138D02*
X163270Y333453D01*
X161711Y331895D01*
X160937Y330027D01*
X165138D01*
Y334227D01*
D02*
G37*
G36*
X62268Y332957D02*
Y328757D01*
X66468D01*
X65694Y330625D01*
X64136Y332183D01*
X62268Y332957D01*
D02*
G37*
G36*
X59728D02*
X57860Y332183D01*
X56301Y330625D01*
X55527Y328757D01*
X59728D01*
Y332957D01*
D02*
G37*
G36*
X34150Y345300D02*
X16650D01*
Y327800D01*
X34150D01*
Y345300D01*
D02*
G37*
G36*
X938530Y331860D02*
Y327660D01*
X942730D01*
X941957Y329528D01*
X940398Y331087D01*
X938530Y331860D01*
D02*
G37*
G36*
X935990D02*
X934122Y331087D01*
X932563Y329528D01*
X931790Y327660D01*
X935990D01*
Y331860D01*
D02*
G37*
G36*
X109610Y327660D02*
X105410D01*
Y323460D01*
X107278Y324233D01*
X108837Y325792D01*
X109610Y327660D01*
D02*
G37*
G36*
X102870D02*
X98670D01*
X99443Y325792D01*
X101002Y324233D01*
X102870Y323460D01*
Y327660D01*
D02*
G37*
G36*
X171878Y327487D02*
X167678D01*
Y323287D01*
X169546Y324060D01*
X171104Y325619D01*
X171878Y327487D01*
D02*
G37*
G36*
X165138D02*
X160937D01*
X161711Y325619D01*
X163270Y324060D01*
X165138Y323287D01*
Y327487D01*
D02*
G37*
G36*
X66468Y326217D02*
X62268D01*
Y322016D01*
X64136Y322790D01*
X65694Y324349D01*
X66468Y326217D01*
D02*
G37*
G36*
X59728D02*
X55527D01*
X56301Y324349D01*
X57860Y322790D01*
X59728Y322016D01*
Y326217D01*
D02*
G37*
G36*
X942730Y325120D02*
X938530D01*
Y320920D01*
X940398Y321693D01*
X941957Y323252D01*
X942730Y325120D01*
D02*
G37*
G36*
X935990D02*
X931790D01*
X932563Y323252D01*
X934122Y321693D01*
X935990Y320920D01*
Y325120D01*
D02*
G37*
G36*
X221018Y312637D02*
Y308437D01*
X225218D01*
X224444Y310305D01*
X222886Y311863D01*
X221018Y312637D01*
D02*
G37*
G36*
X218478D02*
X216610Y311863D01*
X215051Y310305D01*
X214277Y308437D01*
X218478D01*
Y312637D01*
D02*
G37*
G36*
X262928Y311367D02*
Y307167D01*
X267128D01*
X266354Y309035D01*
X264796Y310593D01*
X262928Y311367D01*
D02*
G37*
G36*
X260388D02*
X258520Y310593D01*
X256961Y309035D01*
X256187Y307167D01*
X260388D01*
Y311367D01*
D02*
G37*
G36*
X302298Y310097D02*
Y305897D01*
X306498D01*
X305724Y307765D01*
X304166Y309324D01*
X302298Y310097D01*
D02*
G37*
G36*
X299758D02*
X297890Y309324D01*
X296331Y307765D01*
X295557Y305897D01*
X299758D01*
Y310097D01*
D02*
G37*
G36*
X1075728Y307557D02*
Y303357D01*
X1079928D01*
X1079154Y305225D01*
X1077596Y306784D01*
X1075728Y307557D01*
D02*
G37*
G36*
X1073188D02*
X1071320Y306784D01*
X1069761Y305225D01*
X1068987Y303357D01*
X1073188D01*
Y307557D01*
D02*
G37*
G36*
X26552Y319900D02*
X24248D01*
X22023Y319304D01*
X20027Y318152D01*
X18398Y316523D01*
X17246Y314527D01*
X16650Y312302D01*
Y309998D01*
X17246Y307773D01*
X18398Y305777D01*
X20027Y304148D01*
X22023Y302996D01*
X24248Y302400D01*
X26552D01*
X28777Y302996D01*
X30773Y304148D01*
X32402Y305777D01*
X33554Y307773D01*
X34150Y309998D01*
Y312302D01*
X33554Y314527D01*
X32402Y316523D01*
X30773Y318152D01*
X28777Y319304D01*
X26552Y319900D01*
D02*
G37*
G36*
X225218Y305897D02*
X221018D01*
Y301696D01*
X222886Y302470D01*
X224444Y304029D01*
X225218Y305897D01*
D02*
G37*
G36*
X218478D02*
X214277D01*
X215051Y304029D01*
X216610Y302470D01*
X218478Y301696D01*
Y305897D01*
D02*
G37*
G36*
X969024Y320900D02*
X966456D01*
X963977Y320235D01*
X961753Y318952D01*
X959938Y317137D01*
X958654Y314913D01*
X957990Y312434D01*
Y309866D01*
X958654Y307387D01*
X959938Y305163D01*
X961753Y303348D01*
X963977Y302064D01*
X966456Y301400D01*
X969024D01*
X971503Y302064D01*
X973727Y303348D01*
X975542Y305163D01*
X976825Y307387D01*
X977490Y309866D01*
Y312434D01*
X976825Y314913D01*
X975542Y317137D01*
X973727Y318952D01*
X971503Y320235D01*
X969024Y320900D01*
D02*
G37*
G36*
X267128Y304627D02*
X262928D01*
Y300427D01*
X264796Y301200D01*
X266354Y302759D01*
X267128Y304627D01*
D02*
G37*
G36*
X260388D02*
X256187D01*
X256961Y302759D01*
X258520Y301200D01*
X260388Y300427D01*
Y304627D01*
D02*
G37*
G36*
X306498Y303357D02*
X302298D01*
Y299156D01*
X304166Y299930D01*
X305724Y301489D01*
X306498Y303357D01*
D02*
G37*
G36*
X299758D02*
X295557D01*
X296331Y301489D01*
X297890Y299930D01*
X299758Y299156D01*
Y303357D01*
D02*
G37*
G36*
X1079928Y300817D02*
X1075728D01*
Y296616D01*
X1077596Y297390D01*
X1079154Y298949D01*
X1079928Y300817D01*
D02*
G37*
G36*
X1073188D02*
X1068987D01*
X1069761Y298949D01*
X1071320Y297390D01*
X1073188Y296616D01*
Y300817D01*
D02*
G37*
G36*
X935990Y298840D02*
Y294640D01*
X940190D01*
X939417Y296508D01*
X937858Y298067D01*
X935990Y298840D01*
D02*
G37*
G36*
X933450D02*
X931582Y298067D01*
X930023Y296508D01*
X929250Y294640D01*
X933450D01*
Y298840D01*
D02*
G37*
G36*
X940190Y292100D02*
X935990D01*
Y287900D01*
X937858Y288673D01*
X939417Y290232D01*
X940190Y292100D01*
D02*
G37*
G36*
X933450D02*
X929250D01*
X930023Y290232D01*
X931582Y288673D01*
X933450Y287900D01*
Y292100D01*
D02*
G37*
G36*
X1133469Y322810D02*
X1129671D01*
X1125946Y322069D01*
X1122438Y320616D01*
X1119280Y318506D01*
X1116594Y315820D01*
X1114484Y312663D01*
X1113031Y309154D01*
X1112290Y305429D01*
Y301631D01*
X1113031Y297906D01*
X1114484Y294398D01*
X1116594Y291240D01*
X1119280Y288554D01*
X1122438Y286444D01*
X1125946Y284991D01*
X1129671Y284250D01*
X1133469D01*
X1137194Y284991D01*
X1140703Y286444D01*
X1143860Y288554D01*
X1146546Y291240D01*
X1148656Y294398D01*
X1150109Y297906D01*
X1150850Y301631D01*
Y305429D01*
X1150109Y309154D01*
X1148656Y312663D01*
X1146546Y315820D01*
X1143860Y318506D01*
X1140703Y320616D01*
X1137194Y322069D01*
X1133469Y322810D01*
D02*
G37*
G36*
X1023469D02*
X1019671D01*
X1015946Y322069D01*
X1012438Y320616D01*
X1009280Y318506D01*
X1006594Y315820D01*
X1004484Y312663D01*
X1003031Y309154D01*
X1002290Y305429D01*
Y301631D01*
X1003031Y297906D01*
X1004484Y294398D01*
X1006594Y291240D01*
X1009280Y288554D01*
X1012438Y286444D01*
X1015946Y284991D01*
X1019671Y284250D01*
X1023469D01*
X1027194Y284991D01*
X1030703Y286444D01*
X1033860Y288554D01*
X1036546Y291240D01*
X1038656Y294398D01*
X1040109Y297906D01*
X1040850Y301631D01*
Y305429D01*
X1040109Y309154D01*
X1038656Y312663D01*
X1036546Y315820D01*
X1033860Y318506D01*
X1030703Y320616D01*
X1027194Y322069D01*
X1023469Y322810D01*
D02*
G37*
G36*
X656628Y287237D02*
Y283037D01*
X660828D01*
X660054Y284905D01*
X658496Y286464D01*
X656628Y287237D01*
D02*
G37*
G36*
X654088D02*
X652220Y286464D01*
X650661Y284905D01*
X649887Y283037D01*
X654088D01*
Y287237D01*
D02*
G37*
G36*
X26552Y294500D02*
X24248D01*
X22023Y293904D01*
X20027Y292752D01*
X18398Y291123D01*
X17246Y289127D01*
X16650Y286902D01*
Y284598D01*
X17246Y282373D01*
X18398Y280377D01*
X20027Y278748D01*
X22023Y277596D01*
X24248Y277000D01*
X26552D01*
X28777Y277596D01*
X30773Y278748D01*
X32402Y280377D01*
X33554Y282373D01*
X34150Y284598D01*
Y286902D01*
X33554Y289127D01*
X32402Y291123D01*
X30773Y292752D01*
X28777Y293904D01*
X26552Y294500D01*
D02*
G37*
G36*
X660828Y280497D02*
X656628D01*
Y276297D01*
X658496Y277070D01*
X660054Y278629D01*
X660828Y280497D01*
D02*
G37*
G36*
X654088D02*
X649887D01*
X650661Y278629D01*
X652220Y277070D01*
X654088Y276297D01*
Y280497D01*
D02*
G37*
G36*
X969024Y295500D02*
X966456D01*
X963977Y294835D01*
X961753Y293552D01*
X959938Y291737D01*
X958654Y289513D01*
X957990Y287034D01*
Y284466D01*
X958654Y281987D01*
X959938Y279763D01*
X961753Y277948D01*
X963977Y276665D01*
X966456Y276000D01*
X969024D01*
X971503Y276665D01*
X973727Y277948D01*
X975542Y279763D01*
X976825Y281987D01*
X977490Y284466D01*
Y287034D01*
X976825Y289513D01*
X975542Y291737D01*
X973727Y293552D01*
X971503Y294835D01*
X969024Y295500D01*
D02*
G37*
G36*
X60998Y279617D02*
Y275417D01*
X65198D01*
X64424Y277285D01*
X62866Y278843D01*
X60998Y279617D01*
D02*
G37*
G36*
X58458D02*
X56590Y278843D01*
X55031Y277285D01*
X54257Y275417D01*
X58458D01*
Y279617D01*
D02*
G37*
G36*
X105410Y278520D02*
Y274320D01*
X109610D01*
X108837Y276188D01*
X107278Y277747D01*
X105410Y278520D01*
D02*
G37*
G36*
X102870D02*
X101002Y277747D01*
X99443Y276188D01*
X98670Y274320D01*
X102870D01*
Y278520D01*
D02*
G37*
G36*
X166408Y275807D02*
Y271607D01*
X170608D01*
X169834Y273475D01*
X168276Y275033D01*
X166408Y275807D01*
D02*
G37*
G36*
X163868D02*
X162000Y275033D01*
X160441Y273475D01*
X159667Y271607D01*
X163868D01*
Y275807D01*
D02*
G37*
G36*
X221018Y273267D02*
Y269067D01*
X225218D01*
X224444Y270935D01*
X222886Y272493D01*
X221018Y273267D01*
D02*
G37*
G36*
X218478D02*
X216610Y272493D01*
X215051Y270935D01*
X214277Y269067D01*
X218478D01*
Y273267D01*
D02*
G37*
G36*
X65198Y272877D02*
X60998D01*
Y268676D01*
X62866Y269450D01*
X64424Y271009D01*
X65198Y272877D01*
D02*
G37*
G36*
X58458D02*
X54257D01*
X55031Y271009D01*
X56590Y269450D01*
X58458Y268676D01*
Y272877D01*
D02*
G37*
G36*
X262928Y271997D02*
Y267797D01*
X267128D01*
X266354Y269665D01*
X264796Y271224D01*
X262928Y271997D01*
D02*
G37*
G36*
X260388D02*
X258520Y271224D01*
X256961Y269665D01*
X256187Y267797D01*
X260388D01*
Y271997D01*
D02*
G37*
G36*
X109610Y271780D02*
X105410D01*
Y267580D01*
X107278Y268353D01*
X108837Y269912D01*
X109610Y271780D01*
D02*
G37*
G36*
X102870D02*
X98670D01*
X99443Y269912D01*
X101002Y268353D01*
X102870Y267580D01*
Y271780D01*
D02*
G37*
G36*
X301028Y270727D02*
Y266527D01*
X305228D01*
X304454Y268395D01*
X302896Y269953D01*
X301028Y270727D01*
D02*
G37*
G36*
X298488D02*
X296620Y269953D01*
X295061Y268395D01*
X294287Y266527D01*
X298488D01*
Y270727D01*
D02*
G37*
G36*
X170608Y269067D02*
X166408D01*
Y264867D01*
X168276Y265640D01*
X169834Y267199D01*
X170608Y269067D01*
D02*
G37*
G36*
X163868D02*
X159667D01*
X160441Y267199D01*
X162000Y265640D01*
X163868Y264867D01*
Y269067D01*
D02*
G37*
G36*
X225218Y266527D02*
X221018D01*
Y262327D01*
X222886Y263100D01*
X224444Y264659D01*
X225218Y266527D01*
D02*
G37*
G36*
X218478D02*
X214277D01*
X215051Y264659D01*
X216610Y263100D01*
X218478Y262327D01*
Y266527D01*
D02*
G37*
G36*
X1050328Y265647D02*
Y261447D01*
X1054528D01*
X1053754Y263315D01*
X1052196Y264874D01*
X1050328Y265647D01*
D02*
G37*
G36*
X1047788D02*
X1045920Y264874D01*
X1044361Y263315D01*
X1043587Y261447D01*
X1047788D01*
Y265647D01*
D02*
G37*
G36*
X267128Y265257D02*
X262928D01*
Y261056D01*
X264796Y261830D01*
X266354Y263389D01*
X267128Y265257D01*
D02*
G37*
G36*
X260388D02*
X256187D01*
X256961Y263389D01*
X258520Y261830D01*
X260388Y261056D01*
Y265257D01*
D02*
G37*
G36*
X1102398Y264377D02*
Y260177D01*
X1106598D01*
X1105824Y262045D01*
X1104266Y263603D01*
X1102398Y264377D01*
D02*
G37*
G36*
X1099858D02*
X1097990Y263603D01*
X1096431Y262045D01*
X1095657Y260177D01*
X1099858D01*
Y264377D01*
D02*
G37*
G36*
X305228Y263987D02*
X301028D01*
Y259786D01*
X302896Y260560D01*
X304454Y262119D01*
X305228Y263987D01*
D02*
G37*
G36*
X298488D02*
X294287D01*
X295061Y262119D01*
X296620Y260560D01*
X298488Y259786D01*
Y263987D01*
D02*
G37*
G36*
X1054528Y258907D02*
X1050328D01*
Y254706D01*
X1052196Y255480D01*
X1053754Y257039D01*
X1054528Y258907D01*
D02*
G37*
G36*
X1047788D02*
X1043587D01*
X1044361Y257039D01*
X1045920Y255480D01*
X1047788Y254706D01*
Y258907D01*
D02*
G37*
G36*
X1106598Y257637D02*
X1102398D01*
Y253437D01*
X1104266Y254210D01*
X1105824Y255769D01*
X1106598Y257637D01*
D02*
G37*
G36*
X1099858D02*
X1095657D01*
X1096431Y255769D01*
X1097990Y254210D01*
X1099858Y253437D01*
Y257637D01*
D02*
G37*
G36*
X26552Y269100D02*
X24248D01*
X22023Y268504D01*
X20027Y267352D01*
X18398Y265723D01*
X17246Y263727D01*
X16650Y261502D01*
Y259198D01*
X17246Y256973D01*
X18398Y254977D01*
X20027Y253348D01*
X22023Y252196D01*
X24248Y251600D01*
X26552D01*
X28777Y252196D01*
X30773Y253348D01*
X32402Y254977D01*
X33554Y256973D01*
X34150Y259198D01*
Y261502D01*
X33554Y263727D01*
X32402Y265723D01*
X30773Y267352D01*
X28777Y268504D01*
X26552Y269100D01*
D02*
G37*
G36*
X969024Y270100D02*
X966456D01*
X963977Y269436D01*
X961753Y268152D01*
X959938Y266337D01*
X958654Y264113D01*
X957990Y261634D01*
Y259066D01*
X958654Y256587D01*
X959938Y254363D01*
X961753Y252548D01*
X963977Y251264D01*
X966456Y250600D01*
X969024D01*
X971503Y251264D01*
X973727Y252548D01*
X975542Y254363D01*
X976825Y256587D01*
X977490Y259066D01*
Y261634D01*
X976825Y264113D01*
X975542Y266337D01*
X973727Y268152D01*
X971503Y269436D01*
X969024Y270100D01*
D02*
G37*
G36*
X62230Y245500D02*
Y241300D01*
X66430D01*
X65657Y243168D01*
X64098Y244727D01*
X62230Y245500D01*
D02*
G37*
G36*
X59690D02*
X57822Y244727D01*
X56263Y243168D01*
X55490Y241300D01*
X59690D01*
Y245500D01*
D02*
G37*
G36*
X105410Y241690D02*
Y237490D01*
X109610D01*
X108837Y239358D01*
X107278Y240917D01*
X105410Y241690D01*
D02*
G37*
G36*
X102870D02*
X101002Y240917D01*
X99443Y239358D01*
X98670Y237490D01*
X102870D01*
Y241690D01*
D02*
G37*
G36*
X652818Y241517D02*
Y237317D01*
X657018D01*
X656244Y239185D01*
X654686Y240744D01*
X652818Y241517D01*
D02*
G37*
G36*
X650278D02*
X648410Y240744D01*
X646851Y239185D01*
X646077Y237317D01*
X650278D01*
Y241517D01*
D02*
G37*
G36*
X165100Y240420D02*
Y236220D01*
X169300D01*
X168527Y238088D01*
X166968Y239647D01*
X165100Y240420D01*
D02*
G37*
G36*
X162560D02*
X160692Y239647D01*
X159133Y238088D01*
X158360Y236220D01*
X162560D01*
Y240420D01*
D02*
G37*
G36*
X1052958Y244071D02*
X1052840D01*
Y234800D01*
X1062111D01*
Y234918D01*
X1061393Y237599D01*
X1060005Y240002D01*
X1058042Y241965D01*
X1055639Y243353D01*
X1052958Y244071D01*
D02*
G37*
G36*
X1050300D02*
X1050182D01*
X1047501Y243353D01*
X1045098Y241965D01*
X1043135Y240002D01*
X1041747Y237599D01*
X1041029Y234918D01*
Y234800D01*
X1050300D01*
Y244071D01*
D02*
G37*
G36*
X66430Y238760D02*
X62230D01*
Y234560D01*
X64098Y235333D01*
X65657Y236892D01*
X66430Y238760D01*
D02*
G37*
G36*
X59690D02*
X55490D01*
X56263Y236892D01*
X57822Y235333D01*
X59690Y234560D01*
Y238760D01*
D02*
G37*
G36*
X220980Y237880D02*
Y233680D01*
X225180D01*
X224407Y235548D01*
X222848Y237107D01*
X220980Y237880D01*
D02*
G37*
G36*
X218440D02*
X216572Y237107D01*
X215013Y235548D01*
X214240Y233680D01*
X218440D01*
Y237880D01*
D02*
G37*
G36*
X109610Y234950D02*
X105410D01*
Y230750D01*
X107278Y231523D01*
X108837Y233082D01*
X109610Y234950D01*
D02*
G37*
G36*
X102870D02*
X98670D01*
X99443Y233082D01*
X101002Y231523D01*
X102870Y230750D01*
Y234950D01*
D02*
G37*
G36*
X657018Y234777D02*
X652818D01*
Y230576D01*
X654686Y231350D01*
X656244Y232909D01*
X657018Y234777D01*
D02*
G37*
G36*
X650278D02*
X646077D01*
X646851Y232909D01*
X648410Y231350D01*
X650278Y230576D01*
Y234777D01*
D02*
G37*
G36*
X169300Y233680D02*
X165100D01*
Y229480D01*
X166968Y230253D01*
X168527Y231812D01*
X169300Y233680D01*
D02*
G37*
G36*
X162560D02*
X158360D01*
X159133Y231812D01*
X160692Y230253D01*
X162560Y229480D01*
Y233680D01*
D02*
G37*
G36*
X995718Y231357D02*
Y227157D01*
X999918D01*
X999144Y229025D01*
X997586Y230583D01*
X995718Y231357D01*
D02*
G37*
G36*
X993178D02*
X991310Y230583D01*
X989751Y229025D01*
X988977Y227157D01*
X993178D01*
Y231357D01*
D02*
G37*
G36*
X225180Y231140D02*
X220980D01*
Y226940D01*
X222848Y227713D01*
X224407Y229272D01*
X225180Y231140D01*
D02*
G37*
G36*
X218440D02*
X214240D01*
X215013Y229272D01*
X216572Y227713D01*
X218440Y226940D01*
Y231140D01*
D02*
G37*
G36*
X711238Y230087D02*
Y225887D01*
X715438D01*
X714664Y227755D01*
X713106Y229314D01*
X711238Y230087D01*
D02*
G37*
G36*
X708698D02*
X706830Y229314D01*
X705271Y227755D01*
X704497Y225887D01*
X708698D01*
Y230087D01*
D02*
G37*
G36*
X969024Y244700D02*
X966456D01*
X963977Y244035D01*
X961753Y242752D01*
X959938Y240937D01*
X958654Y238713D01*
X957990Y236234D01*
Y233666D01*
X958654Y231187D01*
X959938Y228963D01*
X961753Y227148D01*
X963977Y225865D01*
X966456Y225200D01*
X969024D01*
X971503Y225865D01*
X973727Y227148D01*
X975542Y228963D01*
X976825Y231187D01*
X977490Y233666D01*
Y236234D01*
X976825Y238713D01*
X975542Y240937D01*
X973727Y242752D01*
X971503Y244035D01*
X969024Y244700D01*
D02*
G37*
G36*
X1102821Y243031D02*
X1100319D01*
X1097903Y242383D01*
X1095736Y241133D01*
X1093967Y239364D01*
X1092717Y237197D01*
X1092069Y234781D01*
Y232279D01*
X1092717Y229863D01*
X1093967Y227696D01*
X1095736Y225927D01*
X1097903Y224676D01*
X1100319Y224029D01*
X1102821D01*
X1105237Y224676D01*
X1107404Y225927D01*
X1109173Y227696D01*
X1110424Y229863D01*
X1111071Y232279D01*
Y234781D01*
X1110424Y237197D01*
X1109173Y239364D01*
X1107404Y241133D01*
X1105237Y242383D01*
X1102821Y243031D01*
D02*
G37*
G36*
X1062111Y232260D02*
X1052840D01*
Y222989D01*
X1052958D01*
X1055639Y223707D01*
X1058042Y225095D01*
X1060005Y227058D01*
X1061393Y229461D01*
X1062111Y232142D01*
Y232260D01*
D02*
G37*
G36*
X1050300D02*
X1041029D01*
Y232142D01*
X1041747Y229461D01*
X1043135Y227058D01*
X1045098Y225095D01*
X1047501Y223707D01*
X1050182Y222989D01*
X1050300D01*
Y232260D01*
D02*
G37*
G36*
X999918Y224617D02*
X995718D01*
Y220417D01*
X997586Y221190D01*
X999144Y222749D01*
X999918Y224617D01*
D02*
G37*
G36*
X993178D02*
X988977D01*
X989751Y222749D01*
X991310Y221190D01*
X993178Y220417D01*
Y224617D01*
D02*
G37*
G36*
X715438Y223347D02*
X711238D01*
Y219146D01*
X713106Y219920D01*
X714664Y221479D01*
X715438Y223347D01*
D02*
G37*
G36*
X708698D02*
X704497D01*
X705271Y221479D01*
X706830Y219920D01*
X708698Y219146D01*
Y223347D01*
D02*
G37*
G36*
X1137958Y218657D02*
Y214457D01*
X1142158D01*
X1141384Y216325D01*
X1139826Y217883D01*
X1137958Y218657D01*
D02*
G37*
G36*
X1135418D02*
X1133550Y217883D01*
X1131991Y216325D01*
X1131217Y214457D01*
X1135418D01*
Y218657D01*
D02*
G37*
G36*
X680758Y212307D02*
Y208107D01*
X684958D01*
X684184Y209975D01*
X682626Y211534D01*
X680758Y212307D01*
D02*
G37*
G36*
X678218D02*
X676350Y211534D01*
X674791Y209975D01*
X674017Y208107D01*
X678218D01*
Y212307D01*
D02*
G37*
G36*
X66078D02*
Y208107D01*
X70278D01*
X69504Y209975D01*
X67946Y211534D01*
X66078Y212307D01*
D02*
G37*
G36*
X63538D02*
X61670Y211534D01*
X60111Y209975D01*
X59337Y208107D01*
X63538D01*
Y212307D01*
D02*
G37*
G36*
X29248D02*
Y208107D01*
X33448D01*
X32674Y209975D01*
X31116Y211534D01*
X29248Y212307D01*
D02*
G37*
G36*
X26708D02*
X24840Y211534D01*
X23281Y209975D01*
X22507Y208107D01*
X26708D01*
Y212307D01*
D02*
G37*
G36*
X1142158Y211917D02*
X1137958D01*
Y207717D01*
X1139826Y208490D01*
X1141384Y210049D01*
X1142158Y211917D01*
D02*
G37*
G36*
X1135418D02*
X1131217D01*
X1131991Y210049D01*
X1133550Y208490D01*
X1135418Y207717D01*
Y211917D01*
D02*
G37*
G36*
X105410Y211210D02*
Y207010D01*
X109610D01*
X108837Y208878D01*
X107278Y210437D01*
X105410Y211210D01*
D02*
G37*
G36*
X102870D02*
X101002Y210437D01*
X99443Y208878D01*
X98670Y207010D01*
X102870D01*
Y211210D01*
D02*
G37*
G36*
X165138Y208497D02*
Y204297D01*
X169338D01*
X168564Y206165D01*
X167006Y207724D01*
X165138Y208497D01*
D02*
G37*
G36*
X162598D02*
X160730Y207724D01*
X159171Y206165D01*
X158397Y204297D01*
X162598D01*
Y208497D01*
D02*
G37*
G36*
X218478Y205957D02*
Y201757D01*
X222678D01*
X221904Y203625D01*
X220346Y205184D01*
X218478Y205957D01*
D02*
G37*
G36*
X215938D02*
X214070Y205184D01*
X212511Y203625D01*
X211737Y201757D01*
X215938D01*
Y205957D01*
D02*
G37*
G36*
X684958Y205567D02*
X680758D01*
Y201367D01*
X682626Y202140D01*
X684184Y203699D01*
X684958Y205567D01*
D02*
G37*
G36*
X678218D02*
X674017D01*
X674791Y203699D01*
X676350Y202140D01*
X678218Y201367D01*
Y205567D01*
D02*
G37*
G36*
X70278D02*
X66078D01*
Y201367D01*
X67946Y202140D01*
X69504Y203699D01*
X70278Y205567D01*
D02*
G37*
G36*
X63538D02*
X59337D01*
X60111Y203699D01*
X61670Y202140D01*
X63538Y201367D01*
Y205567D01*
D02*
G37*
G36*
X33448D02*
X29248D01*
Y201367D01*
X31116Y202140D01*
X32674Y203699D01*
X33448Y205567D01*
D02*
G37*
G36*
X26708D02*
X22507D01*
X23281Y203699D01*
X24840Y202140D01*
X26708Y201367D01*
Y205567D01*
D02*
G37*
G36*
X109610Y204470D02*
X105410D01*
Y200270D01*
X107278Y201043D01*
X108837Y202602D01*
X109610Y204470D01*
D02*
G37*
G36*
X102870D02*
X98670D01*
X99443Y202602D01*
X101002Y201043D01*
X102870Y200270D01*
Y204470D01*
D02*
G37*
G36*
X969024Y219300D02*
X966456D01*
X963977Y218636D01*
X961753Y217352D01*
X959938Y215537D01*
X958654Y213313D01*
X957990Y210834D01*
Y208266D01*
X958654Y205787D01*
X959938Y203563D01*
X961753Y201748D01*
X963977Y200464D01*
X966456Y199800D01*
X969024D01*
X971503Y200464D01*
X973727Y201748D01*
X975542Y203563D01*
X976825Y205787D01*
X977490Y208266D01*
Y210834D01*
X976825Y213313D01*
X975542Y215537D01*
X973727Y217352D01*
X971503Y218636D01*
X969024Y219300D01*
D02*
G37*
G36*
X332740Y206621D02*
Y199390D01*
X339971D01*
X339428Y201416D01*
X338304Y203364D01*
X336714Y204954D01*
X334766Y206078D01*
X332740Y206621D01*
D02*
G37*
G36*
X330200D02*
X328174Y206078D01*
X326226Y204954D01*
X324636Y203364D01*
X323512Y201416D01*
X322969Y199390D01*
X330200D01*
Y206621D01*
D02*
G37*
G36*
X995718Y203417D02*
Y199217D01*
X999918D01*
X999144Y201085D01*
X997586Y202644D01*
X995718Y203417D01*
D02*
G37*
G36*
X993178D02*
X991310Y202644D01*
X989751Y201085D01*
X988977Y199217D01*
X993178D01*
Y203417D01*
D02*
G37*
G36*
X542290Y202320D02*
Y198120D01*
X546490D01*
X545717Y199988D01*
X544158Y201547D01*
X542290Y202320D01*
D02*
G37*
G36*
X539750D02*
X537882Y201547D01*
X536323Y199988D01*
X535550Y198120D01*
X539750D01*
Y202320D01*
D02*
G37*
G36*
X169338Y201757D02*
X165138D01*
Y197556D01*
X167006Y198330D01*
X168564Y199889D01*
X169338Y201757D01*
D02*
G37*
G36*
X162598D02*
X158397D01*
X159171Y199889D01*
X160730Y198330D01*
X162598Y197556D01*
Y201757D01*
D02*
G37*
G36*
X222678Y199217D02*
X218478D01*
Y195016D01*
X220346Y195790D01*
X221904Y197349D01*
X222678Y199217D01*
D02*
G37*
G36*
X215938D02*
X211737D01*
X212511Y197349D01*
X214070Y195790D01*
X215938Y195016D01*
Y199217D01*
D02*
G37*
G36*
X999918Y196677D02*
X995718D01*
Y192477D01*
X997586Y193250D01*
X999144Y194809D01*
X999918Y196677D01*
D02*
G37*
G36*
X993178D02*
X988977D01*
X989751Y194809D01*
X991310Y193250D01*
X993178Y192477D01*
Y196677D01*
D02*
G37*
G36*
X546490Y195580D02*
X542290D01*
Y191380D01*
X544158Y192153D01*
X545717Y193712D01*
X546490Y195580D01*
D02*
G37*
G36*
X539750D02*
X535550D01*
X536323Y193712D01*
X537882Y192153D01*
X539750Y191380D01*
Y195580D01*
D02*
G37*
G36*
X339971Y196850D02*
X332740D01*
Y189619D01*
X334766Y190162D01*
X336714Y191286D01*
X338304Y192876D01*
X339428Y194824D01*
X339971Y196850D01*
D02*
G37*
G36*
X330200D02*
X322969D01*
X323512Y194824D01*
X324636Y192876D01*
X326226Y191286D01*
X328174Y190162D01*
X330200Y189619D01*
Y196850D01*
D02*
G37*
G36*
X1095701Y194930D02*
X1095650D01*
Y186170D01*
X1104410D01*
Y186220D01*
X1103727Y188771D01*
X1102406Y191059D01*
X1100539Y192926D01*
X1098251Y194247D01*
X1095701Y194930D01*
D02*
G37*
G36*
X1093110D02*
X1093059D01*
X1090509Y194247D01*
X1088221Y192926D01*
X1086354Y191059D01*
X1085033Y188771D01*
X1084350Y186220D01*
Y186170D01*
X1093110D01*
Y194930D01*
D02*
G37*
G36*
X750608Y189447D02*
Y185247D01*
X754808D01*
X754034Y187115D01*
X752476Y188673D01*
X750608Y189447D01*
D02*
G37*
G36*
X748068D02*
X746200Y188673D01*
X744641Y187115D01*
X743867Y185247D01*
X748068D01*
Y189447D01*
D02*
G37*
G36*
X1021118Y180557D02*
Y176357D01*
X1025318D01*
X1024544Y178225D01*
X1022986Y179783D01*
X1021118Y180557D01*
D02*
G37*
G36*
X1018578D02*
X1016710Y179783D01*
X1015151Y178225D01*
X1014377Y176357D01*
X1018578D01*
Y180557D01*
D02*
G37*
G36*
X542328D02*
Y176357D01*
X546528D01*
X545754Y178225D01*
X544196Y179783D01*
X542328Y180557D01*
D02*
G37*
G36*
X539788D02*
X537920Y179783D01*
X536361Y178225D01*
X535587Y176357D01*
X539788D01*
Y180557D01*
D02*
G37*
G36*
X1050564Y193890D02*
X1048196D01*
X1045910Y193277D01*
X1043860Y192094D01*
X1042186Y190420D01*
X1041003Y188370D01*
X1040390Y186084D01*
Y183716D01*
X1041003Y181430D01*
X1042186Y179380D01*
X1043860Y177706D01*
X1045910Y176523D01*
X1048196Y175910D01*
X1050564D01*
X1052850Y176523D01*
X1054900Y177706D01*
X1056574Y179380D01*
X1057757Y181430D01*
X1058370Y183716D01*
Y186084D01*
X1057757Y188370D01*
X1056574Y190420D01*
X1054900Y192094D01*
X1052850Y193277D01*
X1050564Y193890D01*
D02*
G37*
G36*
X1104410Y183630D02*
X1095650D01*
Y174870D01*
X1095701D01*
X1098251Y175553D01*
X1100539Y176874D01*
X1102406Y178741D01*
X1103727Y181029D01*
X1104410Y183580D01*
Y183630D01*
D02*
G37*
G36*
X1093110D02*
X1084350D01*
Y183580D01*
X1085033Y181029D01*
X1086354Y178741D01*
X1088221Y176874D01*
X1090509Y175553D01*
X1093059Y174870D01*
X1093110D01*
Y183630D01*
D02*
G37*
G36*
X969024Y193900D02*
X966456D01*
X963977Y193235D01*
X961753Y191952D01*
X959938Y190137D01*
X958654Y187913D01*
X957990Y185434D01*
Y182866D01*
X958654Y180387D01*
X959938Y178163D01*
X961753Y176348D01*
X963977Y175065D01*
X966456Y174400D01*
X969024D01*
X971503Y175065D01*
X973727Y176348D01*
X975542Y178163D01*
X976825Y180387D01*
X977490Y182866D01*
Y185434D01*
X976825Y187913D01*
X975542Y190137D01*
X973727Y191952D01*
X971503Y193235D01*
X969024Y193900D01*
D02*
G37*
G36*
X1139228Y174207D02*
Y170007D01*
X1143428D01*
X1142654Y171875D01*
X1141096Y173433D01*
X1139228Y174207D01*
D02*
G37*
G36*
X1136688D02*
X1134820Y173433D01*
X1133261Y171875D01*
X1132487Y170007D01*
X1136688D01*
Y174207D01*
D02*
G37*
G36*
X1025318Y173817D02*
X1021118D01*
Y169617D01*
X1022986Y170390D01*
X1024544Y171949D01*
X1025318Y173817D01*
D02*
G37*
G36*
X1018578D02*
X1014377D01*
X1015151Y171949D01*
X1016710Y170390D01*
X1018578Y169617D01*
Y173817D01*
D02*
G37*
G36*
X546528D02*
X542328D01*
Y169617D01*
X544196Y170390D01*
X545754Y171949D01*
X546528Y173817D01*
D02*
G37*
G36*
X539788D02*
X535587D01*
X536361Y171949D01*
X537920Y170390D01*
X539788Y169617D01*
Y173817D01*
D02*
G37*
G36*
X1143428Y167467D02*
X1139228D01*
Y163267D01*
X1141096Y164040D01*
X1142654Y165599D01*
X1143428Y167467D01*
D02*
G37*
G36*
X1136688D02*
X1132487D01*
X1133261Y165599D01*
X1134820Y164040D01*
X1136688Y163267D01*
Y167467D01*
D02*
G37*
G36*
X969161Y169540D02*
X969010D01*
Y160020D01*
X978530D01*
Y160170D01*
X977795Y162915D01*
X976374Y165375D01*
X974365Y167384D01*
X971905Y168805D01*
X969161Y169540D01*
D02*
G37*
G36*
X966470D02*
X966320D01*
X963575Y168805D01*
X961115Y167384D01*
X959106Y165375D01*
X957685Y162915D01*
X956950Y160170D01*
Y160020D01*
X966470D01*
Y169540D01*
D02*
G37*
G36*
X339886Y157670D02*
X338294D01*
X336824Y157061D01*
X336257Y156494D01*
X289853D01*
X289286Y157061D01*
X287816Y157670D01*
X286224D01*
X284754Y157061D01*
X283629Y155936D01*
X283020Y154466D01*
Y152874D01*
X283629Y151404D01*
X284754Y150279D01*
X286224Y149670D01*
X287816D01*
X289286Y150279D01*
X289853Y150846D01*
X336257D01*
X336824Y150279D01*
X338294Y149670D01*
X339886D01*
X341356Y150279D01*
X342481Y151404D01*
X343090Y152874D01*
Y154466D01*
X342481Y155936D01*
X341356Y157061D01*
X339886Y157670D01*
D02*
G37*
G36*
X379768Y160237D02*
Y156037D01*
X383968D01*
X383194Y157905D01*
X381636Y159464D01*
X379768Y160237D01*
D02*
G37*
G36*
X377228D02*
X375360Y159464D01*
X373801Y157905D01*
X373027Y156037D01*
X377228D01*
Y160237D01*
D02*
G37*
G36*
X541020Y159140D02*
Y154940D01*
X545220D01*
X544447Y156808D01*
X542888Y158367D01*
X541020Y159140D01*
D02*
G37*
G36*
X538480D02*
X536612Y158367D01*
X535053Y156808D01*
X534280Y154940D01*
X538480D01*
Y159140D01*
D02*
G37*
G36*
X105410Y154060D02*
Y149860D01*
X109610D01*
X108837Y151728D01*
X107278Y153287D01*
X105410Y154060D01*
D02*
G37*
G36*
X102870D02*
X101002Y153287D01*
X99443Y151728D01*
X98670Y149860D01*
X102870D01*
Y154060D01*
D02*
G37*
G36*
X29248Y153887D02*
Y149687D01*
X33448D01*
X32674Y151555D01*
X31116Y153113D01*
X29248Y153887D01*
D02*
G37*
G36*
X26708D02*
X24840Y153113D01*
X23281Y151555D01*
X22507Y149687D01*
X26708D01*
Y153887D01*
D02*
G37*
G36*
X383968Y153497D02*
X379768D01*
Y149297D01*
X381636Y150070D01*
X383194Y151629D01*
X383968Y153497D01*
D02*
G37*
G36*
X377228D02*
X373027D01*
X373801Y151629D01*
X375360Y150070D01*
X377228Y149297D01*
Y153497D01*
D02*
G37*
G36*
X66585Y152596D02*
Y148396D01*
X70785D01*
X70011Y150264D01*
X68453Y151822D01*
X66585Y152596D01*
D02*
G37*
G36*
X64045D02*
X62177Y151822D01*
X60618Y150264D01*
X59844Y148396D01*
X64045D01*
Y152596D01*
D02*
G37*
G36*
X545220Y152400D02*
X541020D01*
Y148200D01*
X542888Y148973D01*
X544447Y150532D01*
X545220Y152400D01*
D02*
G37*
G36*
X538480D02*
X534280D01*
X535053Y150532D01*
X536612Y148973D01*
X538480Y148200D01*
Y152400D01*
D02*
G37*
G36*
X978530Y157480D02*
X969010D01*
Y147960D01*
X969161D01*
X971905Y148695D01*
X974365Y150116D01*
X976374Y152125D01*
X977795Y154585D01*
X978530Y157330D01*
Y157480D01*
D02*
G37*
G36*
X966470D02*
X956950D01*
Y157330D01*
X957685Y154585D01*
X959106Y152125D01*
X961115Y150116D01*
X963575Y148695D01*
X966320Y147960D01*
X966470D01*
Y157480D01*
D02*
G37*
G36*
X165138Y151347D02*
Y147147D01*
X169338D01*
X168564Y149015D01*
X167006Y150574D01*
X165138Y151347D01*
D02*
G37*
G36*
X162598D02*
X160730Y150574D01*
X159171Y149015D01*
X158397Y147147D01*
X162598D01*
Y151347D01*
D02*
G37*
G36*
X1021118Y150077D02*
Y145877D01*
X1025318D01*
X1024544Y147745D01*
X1022986Y149304D01*
X1021118Y150077D01*
D02*
G37*
G36*
X1018578D02*
X1016710Y149304D01*
X1015151Y147745D01*
X1014377Y145877D01*
X1018578D01*
Y150077D01*
D02*
G37*
G36*
X109610Y147320D02*
X105410D01*
Y143120D01*
X107278Y143893D01*
X108837Y145452D01*
X109610Y147320D01*
D02*
G37*
G36*
X102870D02*
X98670D01*
X99443Y145452D01*
X101002Y143893D01*
X102870Y143120D01*
Y147320D01*
D02*
G37*
G36*
X33448Y147147D02*
X29248D01*
Y142947D01*
X31116Y143720D01*
X32674Y145279D01*
X33448Y147147D01*
D02*
G37*
G36*
X26708D02*
X22507D01*
X23281Y145279D01*
X24840Y143720D01*
X26708Y142947D01*
Y147147D01*
D02*
G37*
G36*
X70785Y145856D02*
X66585D01*
Y141655D01*
X68453Y142429D01*
X70011Y143987D01*
X70785Y145856D01*
D02*
G37*
G36*
X64045D02*
X59844D01*
X60618Y143987D01*
X62177Y142429D01*
X64045Y141655D01*
Y145856D01*
D02*
G37*
G36*
X169338Y144607D02*
X165138D01*
Y140407D01*
X167006Y141180D01*
X168564Y142739D01*
X169338Y144607D01*
D02*
G37*
G36*
X162598D02*
X158397D01*
X159171Y142739D01*
X160730Y141180D01*
X162598Y140407D01*
Y144607D01*
D02*
G37*
G36*
X1025318Y143337D02*
X1021118D01*
Y139136D01*
X1022986Y139910D01*
X1024544Y141469D01*
X1025318Y143337D01*
D02*
G37*
G36*
X1018578D02*
X1014377D01*
X1015151Y141469D01*
X1016710Y139910D01*
X1018578Y139136D01*
Y143337D01*
D02*
G37*
G36*
X379768Y133567D02*
Y129367D01*
X383968D01*
X383194Y131235D01*
X381636Y132794D01*
X379768Y133567D01*
D02*
G37*
G36*
X377228D02*
X375360Y132794D01*
X373801Y131235D01*
X373027Y129367D01*
X377228D01*
Y133567D01*
D02*
G37*
G36*
X1139228Y128487D02*
Y124287D01*
X1143428D01*
X1142654Y126155D01*
X1141096Y127713D01*
X1139228Y128487D01*
D02*
G37*
G36*
X1136688D02*
X1134820Y127713D01*
X1133261Y126155D01*
X1132487Y124287D01*
X1136688D01*
Y128487D01*
D02*
G37*
G36*
X969024Y143100D02*
X966456D01*
X963977Y142436D01*
X961753Y141152D01*
X959938Y139337D01*
X958654Y137113D01*
X957990Y134634D01*
Y132066D01*
X958654Y129587D01*
X959938Y127363D01*
X961753Y125548D01*
X963977Y124264D01*
X966456Y123600D01*
X969024D01*
X971503Y124264D01*
X973727Y125548D01*
X975542Y127363D01*
X976825Y129587D01*
X977490Y132066D01*
Y134634D01*
X976825Y137113D01*
X975542Y139337D01*
X973727Y141152D01*
X971503Y142436D01*
X969024Y143100D01*
D02*
G37*
G36*
X383968Y126827D02*
X379768D01*
Y122626D01*
X381636Y123400D01*
X383194Y124959D01*
X383968Y126827D01*
D02*
G37*
G36*
X377228D02*
X373027D01*
X373801Y124959D01*
X375360Y123400D01*
X377228Y122626D01*
Y126827D01*
D02*
G37*
G36*
X1143428Y121747D02*
X1139228D01*
Y117547D01*
X1141096Y118320D01*
X1142654Y119879D01*
X1143428Y121747D01*
D02*
G37*
G36*
X1136688D02*
X1132487D01*
X1133261Y119879D01*
X1134820Y118320D01*
X1136688Y117547D01*
Y121747D01*
D02*
G37*
G36*
X541020Y118500D02*
Y114300D01*
X545220D01*
X544447Y116168D01*
X542888Y117727D01*
X541020Y118500D01*
D02*
G37*
G36*
X538480D02*
X536612Y117727D01*
X535053Y116168D01*
X534280Y114300D01*
X538480D01*
Y118500D01*
D02*
G37*
G36*
X1095564Y128890D02*
X1093196D01*
X1090910Y128277D01*
X1088860Y127094D01*
X1087186Y125420D01*
X1086003Y123370D01*
X1085390Y121084D01*
Y118716D01*
X1086003Y116430D01*
X1087186Y114380D01*
X1088860Y112706D01*
X1090910Y111523D01*
X1093196Y110910D01*
X1095564D01*
X1097850Y111523D01*
X1099900Y112706D01*
X1101574Y114380D01*
X1102757Y116430D01*
X1103370Y118716D01*
Y121084D01*
X1102757Y123370D01*
X1101574Y125420D01*
X1099900Y127094D01*
X1097850Y128277D01*
X1095564Y128890D01*
D02*
G37*
G36*
X1021118Y114517D02*
Y110317D01*
X1025318D01*
X1024544Y112185D01*
X1022986Y113743D01*
X1021118Y114517D01*
D02*
G37*
G36*
X1018578D02*
X1016710Y113743D01*
X1015151Y112185D01*
X1014377Y110317D01*
X1018578D01*
Y114517D01*
D02*
G37*
G36*
X545220Y111760D02*
X541020D01*
Y107560D01*
X542888Y108333D01*
X544447Y109892D01*
X545220Y111760D01*
D02*
G37*
G36*
X538480D02*
X534280D01*
X535053Y109892D01*
X536612Y108333D01*
X538480Y107560D01*
Y111760D01*
D02*
G37*
G36*
X1025318Y107777D02*
X1021118D01*
Y103576D01*
X1022986Y104350D01*
X1024544Y105909D01*
X1025318Y107777D01*
D02*
G37*
G36*
X1018578D02*
X1014377D01*
X1015151Y105909D01*
X1016710Y104350D01*
X1018578Y103576D01*
Y107777D01*
D02*
G37*
G36*
X30518Y92927D02*
Y88727D01*
X34718D01*
X33944Y90595D01*
X32386Y92154D01*
X30518Y92927D01*
D02*
G37*
G36*
X27978D02*
X26110Y92154D01*
X24551Y90595D01*
X23777Y88727D01*
X27978D01*
Y92927D01*
D02*
G37*
G36*
X104140Y91830D02*
Y87630D01*
X108340D01*
X107567Y89498D01*
X106008Y91057D01*
X104140Y91830D01*
D02*
G37*
G36*
X101600D02*
X99732Y91057D01*
X98173Y89498D01*
X97400Y87630D01*
X101600D01*
Y91830D01*
D02*
G37*
G36*
X67348Y91657D02*
Y87457D01*
X71548D01*
X70774Y89325D01*
X69216Y90884D01*
X67348Y91657D01*
D02*
G37*
G36*
X64808D02*
X62940Y90884D01*
X61381Y89325D01*
X60607Y87457D01*
X64808D01*
Y91657D01*
D02*
G37*
G36*
X163868Y90387D02*
Y86187D01*
X168068D01*
X167294Y88055D01*
X165736Y89614D01*
X163868Y90387D01*
D02*
G37*
G36*
X161328D02*
X159460Y89614D01*
X157901Y88055D01*
X157127Y86187D01*
X161328D01*
Y90387D01*
D02*
G37*
G36*
X1137958Y89117D02*
Y84917D01*
X1142158D01*
X1141384Y86785D01*
X1139826Y88343D01*
X1137958Y89117D01*
D02*
G37*
G36*
X1135418D02*
X1133550Y88343D01*
X1131991Y86785D01*
X1131217Y84917D01*
X1135418D01*
Y89117D01*
D02*
G37*
G36*
X539788D02*
Y84917D01*
X543988D01*
X543214Y86785D01*
X541656Y88343D01*
X539788Y89117D01*
D02*
G37*
G36*
X537248D02*
X535380Y88343D01*
X533821Y86785D01*
X533047Y84917D01*
X537248D01*
Y89117D01*
D02*
G37*
G36*
X290868Y87847D02*
Y83647D01*
X295068D01*
X294294Y85515D01*
X292736Y87073D01*
X290868Y87847D01*
D02*
G37*
G36*
X288328D02*
X286460Y87073D01*
X284901Y85515D01*
X284127Y83647D01*
X288328D01*
Y87847D01*
D02*
G37*
G36*
X256578D02*
Y83647D01*
X260778D01*
X260004Y85515D01*
X258446Y87073D01*
X256578Y87847D01*
D02*
G37*
G36*
X254038D02*
X252170Y87073D01*
X250611Y85515D01*
X249837Y83647D01*
X254038D01*
Y87847D01*
D02*
G37*
G36*
X34718Y86187D02*
X30518D01*
Y81987D01*
X32386Y82760D01*
X33944Y84319D01*
X34718Y86187D01*
D02*
G37*
G36*
X27978D02*
X23777D01*
X24551Y84319D01*
X26110Y82760D01*
X27978Y81987D01*
Y86187D01*
D02*
G37*
G36*
X326428Y85307D02*
Y81107D01*
X330628D01*
X329854Y82975D01*
X328296Y84534D01*
X326428Y85307D01*
D02*
G37*
G36*
X323888D02*
X322020Y84534D01*
X320461Y82975D01*
X319687Y81107D01*
X323888D01*
Y85307D01*
D02*
G37*
G36*
X108340Y85090D02*
X104140D01*
Y80890D01*
X106008Y81663D01*
X107567Y83222D01*
X108340Y85090D01*
D02*
G37*
G36*
X101600D02*
X97400D01*
X98173Y83222D01*
X99732Y81663D01*
X101600Y80890D01*
Y85090D01*
D02*
G37*
G36*
X71548Y84917D02*
X67348D01*
Y80716D01*
X69216Y81490D01*
X70774Y83049D01*
X71548Y84917D01*
D02*
G37*
G36*
X64808D02*
X60607D01*
X61381Y83049D01*
X62940Y81490D01*
X64808Y80716D01*
Y84917D01*
D02*
G37*
G36*
X168068Y83647D02*
X163868D01*
Y79447D01*
X165736Y80220D01*
X167294Y81779D01*
X168068Y83647D01*
D02*
G37*
G36*
X161328D02*
X157127D01*
X157901Y81779D01*
X159460Y80220D01*
X161328Y79447D01*
Y83647D01*
D02*
G37*
G36*
X1142158Y82377D02*
X1137958D01*
Y78176D01*
X1139826Y78950D01*
X1141384Y80509D01*
X1142158Y82377D01*
D02*
G37*
G36*
X1135418D02*
X1131217D01*
X1131991Y80509D01*
X1133550Y78950D01*
X1135418Y78176D01*
Y82377D01*
D02*
G37*
G36*
X543988D02*
X539788D01*
Y78176D01*
X541656Y78950D01*
X543214Y80509D01*
X543988Y82377D01*
D02*
G37*
G36*
X537248D02*
X533047D01*
X533821Y80509D01*
X535380Y78950D01*
X537248Y78176D01*
Y82377D01*
D02*
G37*
G36*
X295068Y81107D02*
X290868D01*
Y76906D01*
X292736Y77680D01*
X294294Y79239D01*
X295068Y81107D01*
D02*
G37*
G36*
X288328D02*
X284127D01*
X284901Y79239D01*
X286460Y77680D01*
X288328Y76906D01*
Y81107D01*
D02*
G37*
G36*
X260778D02*
X256578D01*
Y76906D01*
X258446Y77680D01*
X260004Y79239D01*
X260778Y81107D01*
D02*
G37*
G36*
X254038D02*
X249837D01*
X250611Y79239D01*
X252170Y77680D01*
X254038Y76906D01*
Y81107D01*
D02*
G37*
G36*
X330628Y78567D02*
X326428D01*
Y74366D01*
X328296Y75140D01*
X329854Y76699D01*
X330628Y78567D01*
D02*
G37*
G36*
X323888D02*
X319687D01*
X320461Y76699D01*
X322020Y75140D01*
X323888Y74366D01*
Y78567D01*
D02*
G37*
G36*
X998258Y67527D02*
Y63327D01*
X1002458D01*
X1001684Y65195D01*
X1000126Y66754D01*
X998258Y67527D01*
D02*
G37*
G36*
X995718D02*
X993850Y66754D01*
X992291Y65195D01*
X991517Y63327D01*
X995718D01*
Y67527D01*
D02*
G37*
G36*
X961428D02*
Y63327D01*
X965628D01*
X964854Y65195D01*
X963296Y66754D01*
X961428Y67527D01*
D02*
G37*
G36*
X958888D02*
X957020Y66754D01*
X955461Y65195D01*
X954687Y63327D01*
X958888D01*
Y67527D01*
D02*
G37*
G36*
X538480Y61350D02*
Y57150D01*
X542680D01*
X541907Y59018D01*
X540348Y60577D01*
X538480Y61350D01*
D02*
G37*
G36*
X535940D02*
X534072Y60577D01*
X532513Y59018D01*
X531740Y57150D01*
X535940D01*
Y61350D01*
D02*
G37*
G36*
X1002458Y60787D02*
X998258D01*
Y56586D01*
X1000126Y57360D01*
X1001684Y58919D01*
X1002458Y60787D01*
D02*
G37*
G36*
X995718D02*
X991517D01*
X992291Y58919D01*
X993850Y57360D01*
X995718Y56586D01*
Y60787D01*
D02*
G37*
G36*
X965628D02*
X961428D01*
Y56586D01*
X963296Y57360D01*
X964854Y58919D01*
X965628Y60787D01*
D02*
G37*
G36*
X958888D02*
X954687D01*
X955461Y58919D01*
X957020Y57360D01*
X958888Y56586D01*
Y60787D01*
D02*
G37*
G36*
X580428Y58637D02*
Y54437D01*
X584628D01*
X583854Y56305D01*
X582296Y57863D01*
X580428Y58637D01*
D02*
G37*
G36*
X577888D02*
X576020Y57863D01*
X574461Y56305D01*
X573687Y54437D01*
X577888D01*
Y58637D01*
D02*
G37*
G36*
X628688Y56097D02*
Y51897D01*
X632888D01*
X632114Y53765D01*
X630556Y55324D01*
X628688Y56097D01*
D02*
G37*
G36*
X626148D02*
X624280Y55324D01*
X622721Y53765D01*
X621947Y51897D01*
X626148D01*
Y56097D01*
D02*
G37*
G36*
X759498Y54827D02*
Y50627D01*
X763698D01*
X762924Y52495D01*
X761366Y54054D01*
X759498Y54827D01*
D02*
G37*
G36*
X756958D02*
X755090Y54054D01*
X753531Y52495D01*
X752757Y50627D01*
X756958D01*
Y54827D01*
D02*
G37*
G36*
X692188D02*
Y50627D01*
X696388D01*
X695614Y52495D01*
X694056Y54054D01*
X692188Y54827D01*
D02*
G37*
G36*
X689648D02*
X687780Y54054D01*
X686221Y52495D01*
X685447Y50627D01*
X689648D01*
Y54827D01*
D02*
G37*
G36*
X542680Y54610D02*
X538480D01*
Y50410D01*
X540348Y51183D01*
X541907Y52742D01*
X542680Y54610D01*
D02*
G37*
G36*
X535940D02*
X531740D01*
X532513Y52742D01*
X534072Y51183D01*
X535940Y50410D01*
Y54610D01*
D02*
G37*
G36*
X829348Y53557D02*
Y49357D01*
X833548D01*
X832774Y51225D01*
X831216Y52783D01*
X829348Y53557D01*
D02*
G37*
G36*
X826808D02*
X824940Y52783D01*
X823381Y51225D01*
X822607Y49357D01*
X826808D01*
Y53557D01*
D02*
G37*
G36*
X584628Y51897D02*
X580428D01*
Y47696D01*
X582296Y48470D01*
X583854Y50029D01*
X584628Y51897D01*
D02*
G37*
G36*
X577888D02*
X573687D01*
X574461Y50029D01*
X576020Y48470D01*
X577888Y47696D01*
Y51897D01*
D02*
G37*
G36*
X887768Y51017D02*
Y46817D01*
X891968D01*
X891194Y48685D01*
X889636Y50244D01*
X887768Y51017D01*
D02*
G37*
G36*
X885228D02*
X883360Y50244D01*
X881801Y48685D01*
X881027Y46817D01*
X885228D01*
Y51017D01*
D02*
G37*
G36*
X632888Y49357D02*
X628688D01*
Y45156D01*
X630556Y45930D01*
X632114Y47489D01*
X632888Y49357D01*
D02*
G37*
G36*
X626148D02*
X621947D01*
X622721Y47489D01*
X624280Y45930D01*
X626148Y45156D01*
Y49357D01*
D02*
G37*
G36*
X763698Y48087D02*
X759498D01*
Y43886D01*
X761366Y44660D01*
X762924Y46219D01*
X763698Y48087D01*
D02*
G37*
G36*
X756958D02*
X752757D01*
X753531Y46219D01*
X755090Y44660D01*
X756958Y43886D01*
Y48087D01*
D02*
G37*
G36*
X696388D02*
X692188D01*
Y43886D01*
X694056Y44660D01*
X695614Y46219D01*
X696388Y48087D01*
D02*
G37*
G36*
X689648D02*
X685447D01*
X686221Y46219D01*
X687780Y44660D01*
X689648Y43886D01*
Y48087D01*
D02*
G37*
G36*
X833548Y46817D02*
X829348D01*
Y42617D01*
X831216Y43390D01*
X832774Y44949D01*
X833548Y46817D01*
D02*
G37*
G36*
X826808D02*
X822607D01*
X823381Y44949D01*
X824940Y43390D01*
X826808Y42617D01*
Y46817D01*
D02*
G37*
G36*
X1131198Y66910D02*
X1130300D01*
Y40640D01*
X1156570D01*
Y41537D01*
X1155892Y45819D01*
X1154552Y49942D01*
X1152584Y53804D01*
X1150036Y57311D01*
X1146971Y60376D01*
X1143464Y62924D01*
X1139602Y64892D01*
X1135479Y66232D01*
X1131198Y66910D01*
D02*
G37*
G36*
X1127760D02*
X1126862D01*
X1122581Y66232D01*
X1118458Y64892D01*
X1114596Y62924D01*
X1111089Y60376D01*
X1108024Y57311D01*
X1105476Y53804D01*
X1103508Y49942D01*
X1102168Y45819D01*
X1101490Y41537D01*
Y40640D01*
X1127760D01*
Y66910D01*
D02*
G37*
G36*
X37727D02*
X36830D01*
Y40640D01*
X63100D01*
Y41537D01*
X62422Y45819D01*
X61082Y49942D01*
X59114Y53804D01*
X56566Y57311D01*
X53501Y60376D01*
X49994Y62924D01*
X46132Y64892D01*
X42009Y66232D01*
X37727Y66910D01*
D02*
G37*
G36*
X34290D02*
X33393D01*
X29111Y66232D01*
X24988Y64892D01*
X21126Y62924D01*
X17619Y60376D01*
X14554Y57311D01*
X12006Y53804D01*
X10038Y49942D01*
X8698Y45819D01*
X8020Y41537D01*
Y40640D01*
X34290D01*
Y66910D01*
D02*
G37*
G36*
X891968Y44277D02*
X887768D01*
Y40076D01*
X889636Y40850D01*
X891194Y42409D01*
X891968Y44277D01*
D02*
G37*
G36*
X885228D02*
X881027D01*
X881801Y42409D01*
X883360Y40850D01*
X885228Y40076D01*
Y44277D01*
D02*
G37*
G36*
X123291Y48514D02*
X123190D01*
Y39370D01*
X132334D01*
Y39471D01*
X131624Y42120D01*
X130253Y44494D01*
X128314Y46433D01*
X125940Y47804D01*
X123291Y48514D01*
D02*
G37*
G36*
X120650D02*
X120549D01*
X117900Y47804D01*
X115526Y46433D01*
X113587Y44494D01*
X112216Y42120D01*
X111506Y39471D01*
Y39370D01*
X120650D01*
Y48514D01*
D02*
G37*
G36*
X148554Y47474D02*
X146086D01*
X143702Y46835D01*
X141564Y45601D01*
X139819Y43856D01*
X138585Y41718D01*
X137946Y39334D01*
Y36866D01*
X138585Y34482D01*
X139819Y32344D01*
X141564Y30599D01*
X143702Y29365D01*
X146086Y28726D01*
X148554D01*
X150938Y29365D01*
X153076Y30599D01*
X154821Y32344D01*
X156055Y34482D01*
X156694Y36866D01*
Y39334D01*
X156055Y41718D01*
X154821Y43856D01*
X153076Y45601D01*
X150938Y46835D01*
X148554Y47474D01*
D02*
G37*
G36*
X132334Y36830D02*
X123190D01*
Y27686D01*
X123291D01*
X125940Y28396D01*
X128314Y29767D01*
X130253Y31706D01*
X131624Y34080D01*
X132334Y36729D01*
Y36830D01*
D02*
G37*
G36*
X120650D02*
X111506D01*
Y36729D01*
X112216Y34080D01*
X113587Y31706D01*
X115526Y29767D01*
X117900Y28396D01*
X120549Y27686D01*
X120650D01*
Y36830D01*
D02*
G37*
G36*
X292950Y33590D02*
X289790D01*
X286738Y32772D01*
X284002Y31192D01*
X281768Y28958D01*
X280188Y26222D01*
X279605Y24049D01*
X277535D01*
X277362Y24693D01*
X276304Y26527D01*
X274807Y28024D01*
X272973Y29082D01*
X270928Y29630D01*
X268811D01*
X266767Y29082D01*
X264933Y28024D01*
X263436Y26527D01*
X262378Y24693D01*
X261830Y22648D01*
Y20531D01*
X262378Y18487D01*
X263436Y16653D01*
X264933Y15156D01*
X266767Y14098D01*
X268811Y13550D01*
X270928D01*
X272973Y14098D01*
X274807Y15156D01*
X276304Y16653D01*
X277362Y18487D01*
X277535Y19131D01*
X279605D01*
X280188Y16958D01*
X281768Y14222D01*
X284002Y11988D01*
X286738Y10408D01*
X289790Y9590D01*
X292950D01*
X296002Y10408D01*
X298738Y11988D01*
X300972Y14222D01*
X302552Y16958D01*
X303370Y20010D01*
Y23170D01*
X302552Y26222D01*
X300972Y28958D01*
X298738Y31192D01*
X296002Y32772D01*
X292950Y33590D01*
D02*
G37*
G36*
X408978Y28157D02*
Y23957D01*
X413178D01*
X412404Y25825D01*
X410846Y27383D01*
X408978Y28157D01*
D02*
G37*
G36*
X406438D02*
X404570Y27383D01*
X403011Y25825D01*
X402237Y23957D01*
X406438D01*
Y28157D01*
D02*
G37*
G36*
X457238Y26887D02*
Y22687D01*
X461438D01*
X460664Y24555D01*
X459106Y26114D01*
X457238Y26887D01*
D02*
G37*
G36*
X454698D02*
X452830Y26114D01*
X451271Y24555D01*
X450497Y22687D01*
X454698D01*
Y26887D01*
D02*
G37*
G36*
X355638D02*
Y22687D01*
X359838D01*
X359064Y24555D01*
X357506Y26114D01*
X355638Y26887D01*
D02*
G37*
G36*
X353098D02*
X351230Y26114D01*
X349671Y24555D01*
X348897Y22687D01*
X353098D01*
Y26887D01*
D02*
G37*
G36*
X536595Y26476D02*
Y22276D01*
X540796D01*
X540022Y24144D01*
X538464Y25702D01*
X536595Y26476D01*
D02*
G37*
G36*
X534055D02*
X532187Y25702D01*
X530629Y24144D01*
X529855Y22276D01*
X534055D01*
Y26476D01*
D02*
G37*
G36*
X491528Y25617D02*
Y21417D01*
X495728D01*
X494954Y23285D01*
X493396Y24843D01*
X491528Y25617D01*
D02*
G37*
G36*
X488988D02*
X487120Y24843D01*
X485561Y23285D01*
X484787Y21417D01*
X488988D01*
Y25617D01*
D02*
G37*
G36*
X323888D02*
Y21417D01*
X328088D01*
X327314Y23285D01*
X325756Y24843D01*
X323888Y25617D01*
D02*
G37*
G36*
X321348D02*
X319480Y24843D01*
X317921Y23285D01*
X317147Y21417D01*
X321348D01*
Y25617D01*
D02*
G37*
G36*
X579158Y24347D02*
Y20147D01*
X583358D01*
X582584Y22015D01*
X581026Y23574D01*
X579158Y24347D01*
D02*
G37*
G36*
X576618D02*
X574750Y23574D01*
X573191Y22015D01*
X572417Y20147D01*
X576618D01*
Y24347D01*
D02*
G37*
G36*
X413178Y21417D02*
X408978D01*
Y17217D01*
X410846Y17990D01*
X412404Y19549D01*
X413178Y21417D01*
D02*
G37*
G36*
X406438D02*
X402237D01*
X403011Y19549D01*
X404570Y17990D01*
X406438Y17217D01*
Y21417D01*
D02*
G37*
G36*
X461438Y20147D02*
X457238D01*
Y15947D01*
X459106Y16720D01*
X460664Y18279D01*
X461438Y20147D01*
D02*
G37*
G36*
X454698D02*
X450497D01*
X451271Y18279D01*
X452830Y16720D01*
X454698Y15947D01*
Y20147D01*
D02*
G37*
G36*
X359838D02*
X355638D01*
Y15947D01*
X357506Y16720D01*
X359064Y18279D01*
X359838Y20147D01*
D02*
G37*
G36*
X353098D02*
X348897D01*
X349671Y18279D01*
X351230Y16720D01*
X353098Y15947D01*
Y20147D01*
D02*
G37*
G36*
X540796Y19736D02*
X536595D01*
Y15535D01*
X538464Y16309D01*
X540022Y17867D01*
X540796Y19736D01*
D02*
G37*
G36*
X534055D02*
X529855D01*
X530629Y17867D01*
X532187Y16309D01*
X534055Y15535D01*
Y19736D01*
D02*
G37*
G36*
X495728Y18877D02*
X491528D01*
Y14677D01*
X493396Y15450D01*
X494954Y17009D01*
X495728Y18877D01*
D02*
G37*
G36*
X488988D02*
X484787D01*
X485561Y17009D01*
X487120Y15450D01*
X488988Y14677D01*
Y18877D01*
D02*
G37*
G36*
X328088D02*
X323888D01*
Y14677D01*
X325756Y15450D01*
X327314Y17009D01*
X328088Y18877D01*
D02*
G37*
G36*
X321348D02*
X317147D01*
X317921Y17009D01*
X319480Y15450D01*
X321348Y14677D01*
Y18877D01*
D02*
G37*
G36*
X250928Y29630D02*
X248811D01*
X246767Y29082D01*
X244933Y28024D01*
X243436Y26527D01*
X242378Y24693D01*
X241830Y22648D01*
Y20531D01*
X242378Y18487D01*
X243436Y16653D01*
X244933Y15156D01*
X246767Y14098D01*
X248811Y13550D01*
X250928D01*
X252973Y14098D01*
X254807Y15156D01*
X256304Y16653D01*
X257362Y18487D01*
X257910Y20531D01*
Y22648D01*
X257362Y24693D01*
X256304Y26527D01*
X254807Y28024D01*
X252973Y29082D01*
X250928Y29630D01*
D02*
G37*
G36*
X209950Y33590D02*
X206790D01*
X203738Y32772D01*
X201002Y31192D01*
X198768Y28958D01*
X197188Y26222D01*
X196370Y23170D01*
Y20010D01*
X197188Y16958D01*
X198768Y14222D01*
X201002Y11988D01*
X203738Y10408D01*
X206790Y9590D01*
X209950D01*
X213002Y10408D01*
X215738Y11988D01*
X217972Y14222D01*
X219552Y16958D01*
X220135Y19131D01*
X222205D01*
X222378Y18487D01*
X223436Y16653D01*
X224933Y15156D01*
X226767Y14098D01*
X228811Y13550D01*
X230928D01*
X232973Y14098D01*
X234807Y15156D01*
X236304Y16653D01*
X237362Y18487D01*
X237910Y20531D01*
Y22648D01*
X237362Y24693D01*
X236304Y26527D01*
X234807Y28024D01*
X232973Y29082D01*
X230928Y29630D01*
X228811D01*
X226767Y29082D01*
X224933Y28024D01*
X223436Y26527D01*
X222378Y24693D01*
X222205Y24049D01*
X220135D01*
X219552Y26222D01*
X217972Y28958D01*
X215738Y31192D01*
X213002Y32772D01*
X209950Y33590D01*
D02*
G37*
G36*
X583358Y17607D02*
X579158D01*
Y13406D01*
X581026Y14180D01*
X582584Y15739D01*
X583358Y17607D01*
D02*
G37*
G36*
X576618D02*
X572417D01*
X573191Y15739D01*
X574750Y14180D01*
X576618Y13406D01*
Y17607D01*
D02*
G37*
G36*
X1156570Y38100D02*
X1130300D01*
Y11830D01*
X1131198D01*
X1135479Y12508D01*
X1139602Y13848D01*
X1143464Y15816D01*
X1146971Y18364D01*
X1150036Y21429D01*
X1152584Y24936D01*
X1154552Y28798D01*
X1155892Y32921D01*
X1156570Y37202D01*
Y38100D01*
D02*
G37*
G36*
X1127760D02*
X1101490D01*
Y37202D01*
X1102168Y32921D01*
X1103508Y28798D01*
X1105476Y24936D01*
X1108024Y21429D01*
X1111089Y18364D01*
X1114596Y15816D01*
X1118458Y13848D01*
X1122581Y12508D01*
X1126862Y11830D01*
X1127760D01*
Y38100D01*
D02*
G37*
G36*
X63100D02*
X36830D01*
Y11830D01*
X37727D01*
X42009Y12508D01*
X46132Y13848D01*
X49994Y15816D01*
X53501Y18364D01*
X56566Y21429D01*
X59114Y24936D01*
X61082Y28798D01*
X62422Y32921D01*
X63100Y37202D01*
Y38100D01*
D02*
G37*
G36*
X34290D02*
X8020D01*
Y37202D01*
X8698Y32921D01*
X10038Y28798D01*
X12006Y24936D01*
X14554Y21429D01*
X17619Y18364D01*
X21126Y15816D01*
X24988Y13848D01*
X29111Y12508D01*
X33393Y11830D01*
X34290D01*
Y38100D01*
D02*
G37*
%LPD*%
G36*
X652496Y416660D02*
Y397677D01*
X652496Y397677D01*
X652683Y396572D01*
X651316Y395353D01*
X650191Y394228D01*
X649582Y392758D01*
Y391166D01*
X650191Y389696D01*
X651316Y388571D01*
X652786Y387962D01*
X654056D01*
X744248Y297770D01*
X743115Y296075D01*
X742988Y296127D01*
Y291927D01*
X747188D01*
X747136Y292054D01*
X748831Y293187D01*
X831660Y210358D01*
Y210024D01*
X832269Y208554D01*
X833394Y207429D01*
X834864Y206820D01*
X836456D01*
X837926Y207429D01*
X839051Y208554D01*
X839660Y210024D01*
Y211616D01*
X839051Y213086D01*
X837926Y214211D01*
X836456Y214820D01*
X835186D01*
X667480Y382526D01*
X668309Y384526D01*
X958403D01*
X958654Y383587D01*
X959938Y381363D01*
X961753Y379548D01*
X963977Y378265D01*
X966456Y377600D01*
X969024D01*
X971503Y378265D01*
X973727Y379548D01*
X975542Y381363D01*
X976825Y383587D01*
X977490Y386066D01*
Y388634D01*
X976825Y391113D01*
X975940Y392648D01*
X977540Y393876D01*
X981426Y389990D01*
Y368200D01*
X978794Y365568D01*
X977648Y365653D01*
X976786Y365781D01*
X975542Y367937D01*
X973727Y369752D01*
X971503Y371035D01*
X969024Y371700D01*
X966456D01*
X963977Y371035D01*
X961753Y369752D01*
X959938Y367937D01*
X958654Y365713D01*
X957990Y363234D01*
Y360666D01*
X958654Y358187D01*
X959938Y355963D01*
X960557Y355344D01*
X959729Y353344D01*
X946150D01*
X945069Y353129D01*
X944153Y352517D01*
X944153Y352517D01*
X921293Y329657D01*
X920681Y328741D01*
X920466Y327660D01*
X920466Y327660D01*
Y250070D01*
X918466Y249241D01*
X917936Y249771D01*
X916466Y250380D01*
X914874D01*
X913404Y249771D01*
X912279Y248646D01*
X911670Y247176D01*
Y245584D01*
X912279Y244114D01*
X912246Y241870D01*
X908024Y237648D01*
X905809Y237767D01*
X904684Y238892D01*
X903214Y239501D01*
X901623D01*
X900153Y238892D01*
X899027Y237767D01*
X898419Y236297D01*
Y235496D01*
X895613Y232690D01*
X895613Y232690D01*
X857517Y194594D01*
X768417D01*
X699016Y263995D01*
X700149Y265690D01*
X700694Y265465D01*
Y269665D01*
X696494D01*
X696720Y269120D01*
X695024Y267987D01*
X627474Y335537D01*
Y383139D01*
X629124Y384620D01*
X630716D01*
X632186Y385229D01*
X633311Y386354D01*
X633920Y387824D01*
Y388626D01*
X636807Y391513D01*
X636807Y391513D01*
X637419Y392429D01*
X637634Y393510D01*
Y408539D01*
X639284Y410020D01*
X640052D01*
X641701Y408372D01*
Y330869D01*
X641701Y330869D01*
X641916Y329788D01*
X642528Y328872D01*
X644970Y326429D01*
Y325594D01*
X645579Y324124D01*
X646704Y322999D01*
X648174Y322390D01*
X649766D01*
X651236Y322999D01*
X652361Y324124D01*
X652970Y325594D01*
Y327186D01*
X652361Y328656D01*
X651236Y329781D01*
X649766Y330390D01*
X648998D01*
X647349Y332038D01*
Y409541D01*
X647134Y410622D01*
X646522Y411538D01*
X646522Y411539D01*
X644080Y413980D01*
Y414816D01*
X643778Y415546D01*
X644724Y417354D01*
X644949Y417546D01*
X651610D01*
X652496Y416660D01*
D02*
G37*
%LPC*%
G36*
X868718Y373597D02*
Y369397D01*
X872918D01*
X872144Y371265D01*
X870586Y372823D01*
X868718Y373597D01*
D02*
G37*
G36*
X866178D02*
X864310Y372823D01*
X862751Y371265D01*
X861977Y369397D01*
X866178D01*
Y373597D01*
D02*
G37*
G36*
X933488Y372327D02*
Y368127D01*
X937688D01*
X936914Y369995D01*
X935356Y371553D01*
X933488Y372327D01*
D02*
G37*
G36*
X930948D02*
X929080Y371553D01*
X927521Y369995D01*
X926747Y368127D01*
X930948D01*
Y372327D01*
D02*
G37*
G36*
X872918Y366857D02*
X868718D01*
Y362657D01*
X870586Y363430D01*
X872144Y364989D01*
X872918Y366857D01*
D02*
G37*
G36*
X866178D02*
X861977D01*
X862751Y364989D01*
X864310Y363430D01*
X866178Y362657D01*
Y366857D01*
D02*
G37*
G36*
X937688Y365587D02*
X933488D01*
Y361386D01*
X935356Y362160D01*
X936914Y363719D01*
X937688Y365587D01*
D02*
G37*
G36*
X930948D02*
X926747D01*
X927521Y363719D01*
X929080Y362160D01*
X930948Y361386D01*
Y365587D01*
D02*
G37*
G36*
X731558Y364707D02*
Y360507D01*
X735758D01*
X734984Y362375D01*
X733426Y363933D01*
X731558Y364707D01*
D02*
G37*
G36*
X729018D02*
X727150Y363933D01*
X725591Y362375D01*
X724817Y360507D01*
X729018D01*
Y364707D01*
D02*
G37*
G36*
X762038Y362167D02*
Y357967D01*
X766238D01*
X765464Y359835D01*
X763906Y361394D01*
X762038Y362167D01*
D02*
G37*
G36*
X759498D02*
X757630Y361394D01*
X756071Y359835D01*
X755297Y357967D01*
X759498D01*
Y362167D01*
D02*
G37*
G36*
X735758Y357967D02*
X731558D01*
Y353767D01*
X733426Y354540D01*
X734984Y356099D01*
X735758Y357967D01*
D02*
G37*
G36*
X729018D02*
X724817D01*
X725591Y356099D01*
X727150Y354540D01*
X729018Y353767D01*
Y357967D01*
D02*
G37*
G36*
X766238Y355427D02*
X762038D01*
Y351227D01*
X763906Y352000D01*
X765464Y353559D01*
X766238Y355427D01*
D02*
G37*
G36*
X759498D02*
X755297D01*
X756071Y353559D01*
X757630Y352000D01*
X759498Y351227D01*
Y355427D01*
D02*
G37*
G36*
X867448Y341847D02*
Y337647D01*
X871648D01*
X870874Y339515D01*
X869316Y341073D01*
X867448Y341847D01*
D02*
G37*
G36*
X864908D02*
X863040Y341073D01*
X861481Y339515D01*
X860707Y337647D01*
X864908D01*
Y341847D01*
D02*
G37*
G36*
X751878Y336767D02*
Y332567D01*
X756078D01*
X755304Y334435D01*
X753746Y335993D01*
X751878Y336767D01*
D02*
G37*
G36*
X749338D02*
X747470Y335993D01*
X745911Y334435D01*
X745137Y332567D01*
X749338D01*
Y336767D01*
D02*
G37*
G36*
X871648Y335107D02*
X867448D01*
Y330906D01*
X869316Y331680D01*
X870874Y333239D01*
X871648Y335107D01*
D02*
G37*
G36*
X864908D02*
X860707D01*
X861481Y333239D01*
X863040Y331680D01*
X864908Y330906D01*
Y335107D01*
D02*
G37*
G36*
X756078Y330027D02*
X751878D01*
Y325826D01*
X753746Y326600D01*
X755304Y328159D01*
X756078Y330027D01*
D02*
G37*
G36*
X749338D02*
X745137D01*
X745911Y328159D01*
X747470Y326600D01*
X749338Y325826D01*
Y330027D01*
D02*
G37*
G36*
X787438Y313907D02*
Y309707D01*
X791638D01*
X790864Y311575D01*
X789306Y313134D01*
X787438Y313907D01*
D02*
G37*
G36*
X784898D02*
X783030Y313134D01*
X781471Y311575D01*
X780697Y309707D01*
X784898D01*
Y313907D01*
D02*
G37*
G36*
X697268D02*
Y309707D01*
X701468D01*
X700694Y311575D01*
X699136Y313134D01*
X697268Y313907D01*
D02*
G37*
G36*
X694728D02*
X692860Y313134D01*
X691301Y311575D01*
X690527Y309707D01*
X694728D01*
Y313907D01*
D02*
G37*
G36*
X864908Y307557D02*
Y303357D01*
X869108D01*
X868334Y305225D01*
X866776Y306784D01*
X864908Y307557D01*
D02*
G37*
G36*
X862368D02*
X860500Y306784D01*
X858941Y305225D01*
X858167Y303357D01*
X862368D01*
Y307557D01*
D02*
G37*
G36*
X791638Y307167D02*
X787438D01*
Y302966D01*
X789306Y303740D01*
X790864Y305299D01*
X791638Y307167D01*
D02*
G37*
G36*
X784898D02*
X780697D01*
X781471Y305299D01*
X783030Y303740D01*
X784898Y302966D01*
Y307167D01*
D02*
G37*
G36*
X701468D02*
X697268D01*
Y302966D01*
X699136Y303740D01*
X700694Y305299D01*
X701468Y307167D01*
D02*
G37*
G36*
X694728D02*
X690527D01*
X691301Y305299D01*
X692860Y303740D01*
X694728Y302966D01*
Y307167D01*
D02*
G37*
G36*
X869108Y300817D02*
X864908D01*
Y296616D01*
X866776Y297390D01*
X868334Y298949D01*
X869108Y300817D01*
D02*
G37*
G36*
X862368D02*
X858167D01*
X858941Y298949D01*
X860500Y297390D01*
X862368Y296616D01*
Y300817D01*
D02*
G37*
G36*
X740448Y296127D02*
X738580Y295354D01*
X737021Y293795D01*
X736247Y291927D01*
X740448D01*
Y296127D01*
D02*
G37*
G36*
X747188Y289387D02*
X742988D01*
Y285187D01*
X744856Y285960D01*
X746414Y287519D01*
X747188Y289387D01*
D02*
G37*
G36*
X740448D02*
X736247D01*
X737021Y287519D01*
X738580Y285960D01*
X740448Y285187D01*
Y289387D01*
D02*
G37*
G36*
X703234Y276406D02*
Y272205D01*
X707435D01*
X706661Y274073D01*
X705102Y275632D01*
X703234Y276406D01*
D02*
G37*
G36*
X700694D02*
X698826Y275632D01*
X697268Y274073D01*
X696494Y272205D01*
X700694D01*
Y276406D01*
D02*
G37*
G36*
X707435Y269665D02*
X703234D01*
Y265465D01*
X705102Y266238D01*
X706661Y267797D01*
X707435Y269665D01*
D02*
G37*
G36*
X863638Y269457D02*
Y265257D01*
X867838D01*
X867064Y267125D01*
X865506Y268683D01*
X863638Y269457D01*
D02*
G37*
G36*
X861098D02*
X859230Y268683D01*
X857671Y267125D01*
X856897Y265257D01*
X861098D01*
Y269457D01*
D02*
G37*
G36*
X867838Y262717D02*
X863638D01*
Y258517D01*
X865506Y259290D01*
X867064Y260849D01*
X867838Y262717D01*
D02*
G37*
G36*
X861098D02*
X856897D01*
X857671Y260849D01*
X859230Y259290D01*
X861098Y258517D01*
Y262717D01*
D02*
G37*
G36*
X763308Y249137D02*
Y244937D01*
X767508D01*
X766734Y246805D01*
X765176Y248363D01*
X763308Y249137D01*
D02*
G37*
G36*
X760768D02*
X758900Y248363D01*
X757341Y246805D01*
X756567Y244937D01*
X760768D01*
Y249137D01*
D02*
G37*
G36*
X767508Y242397D02*
X763308D01*
Y238197D01*
X765176Y238970D01*
X766734Y240529D01*
X767508Y242397D01*
D02*
G37*
G36*
X760768D02*
X756567D01*
X757341Y240529D01*
X758900Y238970D01*
X760768Y238197D01*
Y242397D01*
D02*
G37*
G36*
X765848Y214847D02*
Y210647D01*
X770048D01*
X769274Y212515D01*
X767716Y214074D01*
X765848Y214847D01*
D02*
G37*
G36*
X763308D02*
X761440Y214074D01*
X759881Y212515D01*
X759107Y210647D01*
X763308D01*
Y214847D01*
D02*
G37*
G36*
X770048Y208107D02*
X765848D01*
Y203906D01*
X767716Y204680D01*
X769274Y206239D01*
X770048Y208107D01*
D02*
G37*
G36*
X763308D02*
X759107D01*
X759881Y206239D01*
X761440Y204680D01*
X763308Y203906D01*
Y208107D01*
D02*
G37*
%LPD*%
D17*
X1101570Y296700D02*
Y378530D01*
X413830Y385000D02*
Y470980D01*
Y385000D02*
X722630Y76200D01*
X413830Y470980D02*
X419100Y476250D01*
X656590Y502920D02*
X733869D01*
X734665Y502124D02*
X812610D01*
X733869Y502920D02*
X734665Y502124D01*
X647700Y494030D02*
X656590Y502920D01*
X640080Y413986D02*
Y414020D01*
X644525Y330869D02*
Y409541D01*
X648970Y326390D02*
Y326424D01*
X640080Y413986D02*
X644525Y409541D01*
Y330869D02*
X648970Y326424D01*
X722630Y76200D02*
X1073150D01*
X1118870Y121920D02*
Y279400D01*
X1073150Y76200D02*
X1118870Y121920D01*
X1101570Y296700D02*
X1118870Y279400D01*
X745490Y471170D02*
X770890D01*
X718518Y458470D02*
X837567D01*
X894307Y401730D01*
X698198Y478790D02*
X718518Y458470D01*
X669290Y416560D02*
Y440388D01*
X647700Y461978D02*
X669290Y440388D01*
X647700Y461978D02*
Y494030D01*
X726440Y490220D02*
X745490Y471170D01*
X657860Y478790D02*
X698198D01*
X657860Y466090D02*
X688678D01*
X707728Y447040D01*
X657860Y490220D02*
X726440D01*
X430530Y462102D02*
X433070Y464642D01*
X430530Y406400D02*
Y462102D01*
X433070Y464642D02*
Y464820D01*
X424180Y469722D02*
Y469900D01*
X421640Y467182D02*
X424180Y469722D01*
X421640Y401320D02*
Y467182D01*
X897610Y230693D02*
Y230693D01*
X858687Y191770D02*
X897610Y230693D01*
X767247Y191770D02*
X858687D01*
X897610Y230693D02*
X902419Y235501D01*
X659130Y177800D02*
X852170D01*
X915543Y241173D02*
Y246253D01*
X852170Y177800D02*
X915543Y241173D01*
Y246253D02*
X915670Y246380D01*
X652780Y513080D02*
X740410D01*
X641350Y501650D02*
X652780Y513080D01*
X641350Y457200D02*
Y501650D01*
Y457200D02*
X661670Y436880D01*
Y398780D02*
Y436880D01*
X655320Y397677D02*
Y417830D01*
X652780Y420370D02*
X655320Y417830D01*
X637540Y420370D02*
X652780D01*
X707728Y447040D02*
X745490D01*
X946150Y350520D02*
X1036320D01*
X1051570Y365770D01*
X923290Y327660D02*
X946150Y350520D01*
X967740Y361950D02*
X968370Y362580D01*
X979800D01*
X984250Y367030D01*
Y391160D01*
X973680Y401730D02*
X984250Y391160D01*
X894307Y401730D02*
X973680D01*
X713740Y95250D02*
X1036320D01*
X422910Y386080D02*
X713740Y95250D01*
X430530Y406400D02*
X659130Y177800D01*
X654050Y168910D02*
X853440D01*
X923290Y238760D02*
Y327660D01*
X853440Y168910D02*
X923290Y238760D01*
X421640Y401320D02*
X654050Y168910D01*
X1051570Y365770D02*
Y378530D01*
X889000Y412750D02*
X967740D01*
X822960Y478790D02*
X889000Y412750D01*
X619581Y394827D02*
X624650Y389758D01*
Y334367D02*
Y389758D01*
Y334367D02*
X767247Y191770D01*
X634810Y393510D02*
Y417640D01*
X637540Y420370D01*
X655320Y397677D02*
X665647Y387350D01*
X967740D01*
X629920Y388620D02*
X634810Y393510D01*
X653582Y391962D02*
X654050D01*
X835192Y210820D02*
X835660D01*
X654050Y391962D02*
X835192Y210820D01*
X1036320Y95250D02*
X1049380Y108310D01*
Y119900D01*
X287020Y153670D02*
X339090D01*
D72*
Y494030D02*
X405130Y427990D01*
Y336550D02*
Y427990D01*
X339090Y494030D02*
Y532130D01*
D73*
X536475Y487040D02*
D03*
X518125D02*
D03*
X545650Y496215D02*
D03*
X527300D02*
D03*
X508950D02*
D03*
X536475Y505390D02*
D03*
X518125D02*
D03*
X545650Y514565D02*
D03*
X527300D02*
D03*
X508950D02*
D03*
X536475Y523740D02*
D03*
X518125D02*
D03*
D74*
X121920Y38100D02*
D03*
X147320D02*
D03*
D75*
X967740Y158750D02*
D03*
Y133350D02*
D03*
Y311150D02*
D03*
Y184150D02*
D03*
Y209550D02*
D03*
Y234950D02*
D03*
Y260350D02*
D03*
Y285750D02*
D03*
Y336550D02*
D03*
Y361950D02*
D03*
Y463550D02*
D03*
Y438150D02*
D03*
Y412750D02*
D03*
Y387350D02*
D03*
D76*
X784840Y523350D02*
D03*
X871240D02*
D03*
D77*
X784840Y565150D02*
D03*
X871240D02*
D03*
D78*
X1051570Y233530D02*
D03*
X1076570Y378530D02*
D03*
X1101570Y233530D02*
D03*
X1051570Y378530D02*
D03*
X1101570D02*
D03*
D79*
X1094380Y184900D02*
D03*
X1095650Y492240D02*
D03*
X1094380Y119900D02*
D03*
X1049380Y184900D02*
D03*
X1095650Y427240D02*
D03*
X1050650Y492240D02*
D03*
D80*
X229870Y21590D02*
D03*
X269870D02*
D03*
X249870D02*
D03*
D81*
X208370D02*
D03*
X291370D02*
D03*
D82*
X25400Y260350D02*
D03*
Y311150D02*
D03*
Y285750D02*
D03*
D83*
Y336550D02*
D03*
D84*
X856940Y528350D02*
D03*
X799140D02*
D03*
D85*
X1021570Y303530D02*
D03*
X1131570D02*
D03*
D86*
X1049380Y119900D02*
D03*
X1050650Y427240D02*
D03*
D87*
X934720Y293370D02*
D03*
X937260Y326390D02*
D03*
X830580Y402590D02*
D03*
X643890Y554990D02*
D03*
X581660Y494030D02*
D03*
X584200Y521970D02*
D03*
Y579120D02*
D03*
X478790Y580390D02*
D03*
X532130Y579120D02*
D03*
X584200Y552450D02*
D03*
X530860Y553720D02*
D03*
X480060D02*
D03*
X485140Y466090D02*
D03*
X576580Y462280D02*
D03*
X529590Y461010D02*
D03*
X576580Y433070D02*
D03*
X529590Y435610D02*
D03*
X486410Y436880D02*
D03*
X418845Y496610D02*
D03*
X426720Y513080D02*
D03*
X219710Y232410D02*
D03*
X163830Y234950D02*
D03*
X60960Y240030D02*
D03*
X104140Y236220D02*
D03*
X320040Y485140D02*
D03*
X314960Y408940D02*
D03*
Y426720D02*
D03*
X642620Y438150D02*
D03*
X668020Y454660D02*
D03*
X154978Y559897D02*
D03*
X732828Y542117D02*
D03*
X1014768Y492587D02*
D03*
X1026198Y531957D02*
D03*
X1118908Y341457D02*
D03*
X1080808Y337647D02*
D03*
X764578Y209377D02*
D03*
X750608Y331297D02*
D03*
X655358Y281767D02*
D03*
X66078Y86187D02*
D03*
X65315Y147126D02*
D03*
X64808Y206837D02*
D03*
X59728Y274147D02*
D03*
X60998Y327487D02*
D03*
X64808Y378287D02*
D03*
X66078Y422737D02*
D03*
Y468457D02*
D03*
X64808Y511637D02*
D03*
X320078Y454487D02*
D03*
X285788D02*
D03*
X322618Y20147D02*
D03*
X325158Y79837D02*
D03*
X289598Y82377D02*
D03*
X255308D02*
D03*
X162598Y84917D02*
D03*
X163868Y145877D02*
D03*
X577888Y18877D02*
D03*
X535326Y21006D02*
D03*
X490258Y20147D02*
D03*
X862368Y263987D02*
D03*
X863638Y302087D02*
D03*
X866178Y336377D02*
D03*
X867448Y368127D02*
D03*
X168948Y514177D02*
D03*
X167678Y468457D02*
D03*
X166755Y422882D02*
D03*
X166408Y378287D02*
D03*
X217208Y200487D02*
D03*
X301028Y304627D02*
D03*
X261658Y305897D02*
D03*
X219748Y307167D02*
D03*
X299758Y265257D02*
D03*
X261658Y266527D02*
D03*
X219748Y267797D02*
D03*
X163868Y203027D02*
D03*
X165138Y270337D02*
D03*
X166408Y328757D02*
D03*
X996988Y62057D02*
D03*
X960158D02*
D03*
X886498Y45547D02*
D03*
X538518Y83647D02*
D03*
X541058Y175087D02*
D03*
X27978Y511637D02*
D03*
X29248Y470997D02*
D03*
X26708Y427817D02*
D03*
X25438Y382097D02*
D03*
X27978Y206837D02*
D03*
X29248Y87457D02*
D03*
X27978Y148417D02*
D03*
X455968Y21417D02*
D03*
X407708Y22687D02*
D03*
X354368Y21417D02*
D03*
X579158Y53167D02*
D03*
X1021118Y398607D02*
D03*
X1009688Y455757D02*
D03*
X1068108Y545927D02*
D03*
X1021118Y571327D02*
D03*
X730288Y359237D02*
D03*
X741718Y290657D02*
D03*
X701964Y270935D02*
D03*
X749338Y183977D02*
D03*
X378498Y128097D02*
D03*
Y154767D02*
D03*
X309918Y557357D02*
D03*
X257848Y558627D02*
D03*
X199428D02*
D03*
X828078Y48087D02*
D03*
X758228Y49357D02*
D03*
X690918D02*
D03*
X627418Y50627D02*
D03*
X1019848Y109047D02*
D03*
Y144607D02*
D03*
Y175087D02*
D03*
X1136688Y83647D02*
D03*
X1137958Y123017D02*
D03*
Y168737D02*
D03*
X1136688Y213187D02*
D03*
X1139228Y379557D02*
D03*
Y406227D02*
D03*
Y436707D02*
D03*
X1140498Y468457D02*
D03*
X1139228Y493857D02*
D03*
X1101128Y258907D02*
D03*
X1049058Y260177D02*
D03*
X1050328Y341457D02*
D03*
X1074458Y302087D02*
D03*
X994448Y197947D02*
D03*
Y225887D02*
D03*
X966508Y493857D02*
D03*
X951268Y553547D02*
D03*
X929678Y576407D02*
D03*
X716318Y568787D02*
D03*
X819188Y434167D02*
D03*
X732828Y425277D02*
D03*
X753148Y404957D02*
D03*
X932218Y366857D02*
D03*
X762038Y243667D02*
D03*
X679488Y206837D02*
D03*
X651548Y236047D02*
D03*
X709968Y224617D02*
D03*
X786168Y308437D02*
D03*
X695998D02*
D03*
X760768Y356697D02*
D03*
X537210Y55880D02*
D03*
X539750Y113030D02*
D03*
Y153670D02*
D03*
X541020Y196850D02*
D03*
X287020Y486410D02*
D03*
X247650Y453390D02*
D03*
Y487680D02*
D03*
X106680Y560070D02*
D03*
X102870Y86360D02*
D03*
X104140Y148590D02*
D03*
Y205740D02*
D03*
Y273050D02*
D03*
Y328930D02*
D03*
X105410Y381000D02*
D03*
Y425450D02*
D03*
X106680Y469900D02*
D03*
Y515620D02*
D03*
X441960Y340360D02*
D03*
D88*
X546232Y505451D02*
D03*
X527271Y505067D02*
D03*
X546101Y486997D02*
D03*
X526978Y487366D02*
D03*
X508531Y487243D02*
D03*
X508839Y505259D02*
D03*
X546129Y524033D02*
D03*
X527361Y523788D02*
D03*
X508512Y524278D02*
D03*
D89*
X405130Y336550D02*
D03*
X339090Y532130D02*
D03*
D90*
X812610Y502124D02*
D03*
X648970Y326390D02*
D03*
X825500Y502920D02*
D03*
X657860Y466090D02*
D03*
Y478790D02*
D03*
Y490220D02*
D03*
X433070Y464820D02*
D03*
X424180Y469900D02*
D03*
X902419Y235501D02*
D03*
X915670Y246380D02*
D03*
X669290Y416560D02*
D03*
X740410Y513080D02*
D03*
X770890Y471170D02*
D03*
X422910Y386080D02*
D03*
X419100Y476250D02*
D03*
X822960Y478790D02*
D03*
X619581Y394827D02*
D03*
X640080Y414020D02*
D03*
X629920Y388620D02*
D03*
X653582Y391962D02*
D03*
X661670Y398780D02*
D03*
X745490Y447040D02*
D03*
X835660Y210820D02*
D03*
X339090Y153670D02*
D03*
X287020D02*
D03*
D91*
X331470Y198120D02*
D03*
D92*
X1129030Y552450D02*
D03*
Y39370D02*
D03*
X35560D02*
D03*
Y552450D02*
D03*
M02*
