G04*
G04 #@! TF.GenerationSoftware,Altium Limited,Altium Designer,26.1.1 (7)*
G04*
G04 Layer_Color=16711935*
%FSLAX44Y44*%
%MOMM*%
G71*
G04*
G04 #@! TF.SameCoordinates,836AC57B-FE3C-46D6-8C59-182D9EBDFD6B*
G04*
G04*
G04 #@! TF.FilePolarity,Negative*
G04*
G01*
G75*
%ADD53C,0.6032*%
%ADD54C,1.7780*%
%ADD55C,1.8532*%
%ADD56O,1.2032X2.3032*%
G04:AMPARAMS|DCode=57|XSize=2.0032mm|YSize=1.2032mm|CornerRadius=0.3516mm|HoleSize=0mm|Usage=FLASHONLY|Rotation=270.000|XOffset=0mm|YOffset=0mm|HoleType=Round|Shape=RoundedRectangle|*
%AMROUNDEDRECTD57*
21,1,2.0032,0.5000,0,0,270.0*
21,1,1.3000,1.2032,0,0,270.0*
1,1,0.7032,-0.2500,-0.6500*
1,1,0.7032,-0.2500,0.6500*
1,1,0.7032,0.2500,0.6500*
1,1,0.7032,0.2500,-0.6500*
%
%ADD57ROUNDEDRECTD57*%
%ADD58C,1.8034*%
%ADD59C,1.7012*%
%ADD60C,1.5112*%
%ADD61C,2.3032*%
%ADD62C,1.6532*%
%ADD63R,1.6532X1.6532*%
%ADD64C,0.8532*%
%ADD65R,1.7012X1.7012*%
%ADD66C,0.9032*%
%ADD67C,1.2032*%
%ADD68C,0.7032*%
%ADD69C,1.4032*%
%ADD70C,5.2032*%
D53*
X536475Y487040D02*
D03*
X518125D02*
D03*
X545650Y496215D02*
D03*
X527300D02*
D03*
X508950D02*
D03*
X536475Y505390D02*
D03*
X518125D02*
D03*
X545650Y514565D02*
D03*
X527300D02*
D03*
X508950D02*
D03*
X536475Y523740D02*
D03*
X518125D02*
D03*
D54*
X121920Y38100D02*
D03*
X147320D02*
D03*
D55*
X967740Y158750D02*
D03*
Y133350D02*
D03*
Y311150D02*
D03*
Y184150D02*
D03*
Y209550D02*
D03*
Y234950D02*
D03*
Y260350D02*
D03*
Y285750D02*
D03*
Y336550D02*
D03*
Y361950D02*
D03*
Y463550D02*
D03*
Y438150D02*
D03*
Y412750D02*
D03*
Y387350D02*
D03*
D56*
X784840Y523350D02*
D03*
X871240D02*
D03*
D57*
X784840Y565150D02*
D03*
X871240D02*
D03*
D58*
X1051570Y233530D02*
D03*
X1076570Y378530D02*
D03*
X1101570Y233530D02*
D03*
X1051570Y378530D02*
D03*
X1101570D02*
D03*
D59*
X1094380Y184900D02*
D03*
X1095650Y492240D02*
D03*
X1094380Y119900D02*
D03*
X1049380Y184900D02*
D03*
X1095650Y427240D02*
D03*
X1050650Y492240D02*
D03*
D60*
X229870Y21590D02*
D03*
X269870D02*
D03*
X249870D02*
D03*
D61*
X208370D02*
D03*
X291370D02*
D03*
D62*
X25400Y260350D02*
D03*
Y311150D02*
D03*
Y285750D02*
D03*
D63*
Y336550D02*
D03*
D64*
X856940Y528350D02*
D03*
X799140D02*
D03*
D65*
X1049380Y119900D02*
D03*
X1050650Y427240D02*
D03*
D66*
X546232Y505451D02*
D03*
X527271Y505067D02*
D03*
X546101Y486997D02*
D03*
X526978Y487366D02*
D03*
X508531Y487243D02*
D03*
X508839Y505259D02*
D03*
X546129Y524033D02*
D03*
X527361Y523788D02*
D03*
X508512Y524278D02*
D03*
D67*
X405130Y336550D02*
D03*
X339090Y532130D02*
D03*
D68*
X812610Y502124D02*
D03*
X648970Y326390D02*
D03*
X825500Y502920D02*
D03*
X657860Y466090D02*
D03*
Y478790D02*
D03*
Y490220D02*
D03*
X433070Y464820D02*
D03*
X424180Y469900D02*
D03*
X902419Y235501D02*
D03*
X915670Y246380D02*
D03*
X669290Y416560D02*
D03*
X740410Y513080D02*
D03*
X770890Y471170D02*
D03*
X422910Y386080D02*
D03*
X419100Y476250D02*
D03*
X822960Y478790D02*
D03*
X619581Y394827D02*
D03*
X640080Y414020D02*
D03*
X629920Y388620D02*
D03*
X653582Y391962D02*
D03*
X661670Y398780D02*
D03*
X745490Y447040D02*
D03*
X835660Y210820D02*
D03*
X339090Y153670D02*
D03*
X287020D02*
D03*
D69*
X331470Y198120D02*
D03*
D70*
X1129030Y552450D02*
D03*
Y39370D02*
D03*
X35560D02*
D03*
Y552450D02*
D03*
M02*
