G04*
G04 #@! TF.GenerationSoftware,Altium Limited,Altium Designer,26.1.1 (7)*
G04*
G04 Layer_Color=65535*
%FSLAX44Y44*%
%MOMM*%
G71*
G04*
G04 #@! TF.SameCoordinates,C46A1F52-4DC3-4CE0-AD52-BD274313AA9A*
G04*
G04*
G04 #@! TF.FilePolarity,Positive*
G04*
G01*
G75*
%ADD10C,0.2000*%
%ADD11C,0.5080*%
%ADD12C,0.3000*%
%ADD13C,0.1270*%
%ADD14C,0.1500*%
%ADD15C,0.4000*%
%ADD16C,0.1524*%
%ADD17C,0.2540*%
D10*
X583140Y67310D02*
G03*
X583140Y67310I-1000J0D01*
G01*
X536460Y104140D02*
G03*
X536460Y104140I-1000J0D01*
G01*
X309970Y158120D02*
G03*
X309970Y158120I-1000J0D01*
G01*
X700020Y85400D02*
G03*
X700020Y85400I-1000J0D01*
G01*
X613940Y161330D02*
G03*
X613940Y161330I-1000J0D01*
G01*
X452270Y515520D02*
G03*
X452270Y515520I-1000J0D01*
G01*
X389180Y312020D02*
G03*
X389180Y312020I-1000J0D01*
G01*
X282330Y373910D02*
G03*
X282330Y373910I-1000J0D01*
G01*
X269010Y328320D02*
G03*
X269010Y328320I-1000J0D01*
G01*
X26400Y355750D02*
G03*
X26400Y355750I-1000J0D01*
G01*
X959740Y472450D02*
G03*
X959740Y472450I-1000J0D01*
G01*
X686820Y-600D02*
Y12200D01*
X776220Y-600D02*
Y12200D01*
X686820Y39400D02*
Y51900D01*
X776220Y39400D02*
Y51900D01*
X1055680Y54490D02*
X1062680D01*
X1055680Y39490D02*
X1062680D01*
X356480Y154140D02*
X466480D01*
X356480Y54140D02*
X466480D01*
X981440Y119650D02*
Y477250D01*
X954040D02*
X981440D01*
X954040Y119650D02*
Y477250D01*
Y119650D02*
X981440D01*
D11*
X87122Y38100D02*
G03*
X94742Y38100I3810J0D01*
G01*
D02*
G03*
X87122Y38100I-3810J0D01*
G01*
D12*
X1051880Y104210D02*
G03*
X1051880Y104210I-1000J0D01*
G01*
X1053150Y411550D02*
G03*
X1053150Y411550I-1000J0D01*
G01*
D13*
X597890Y58810D02*
X626390D01*
X597890Y75810D02*
X626390D01*
X491210Y112640D02*
X519710D01*
X491210Y95640D02*
X519710D01*
X356660Y178120D02*
Y218120D01*
X306280Y178120D02*
Y218120D01*
X645415Y170955D02*
X680465D01*
Y105905D02*
Y170955D01*
X645415Y105905D02*
X680465D01*
X645415D02*
Y170955D01*
X641270Y335520D02*
Y342020D01*
X616770Y335520D02*
X641270D01*
X461270D02*
X485770D01*
X461270D02*
Y342020D01*
X342930Y319570D02*
X378430D01*
X342930Y419570D02*
X378430D01*
X342930Y319570D02*
X378430D01*
X342930Y419570D02*
X378430D01*
X276330Y404010D02*
X283830D01*
X297830D02*
X305330D01*
Y395510D02*
Y404010D01*
X276330Y395510D02*
Y404010D01*
X237910Y323320D02*
Y330820D01*
Y344820D02*
Y352320D01*
X246410D01*
X237910Y323320D02*
X246410D01*
X12700Y247650D02*
Y349250D01*
X38100Y247650D02*
Y349250D01*
X12700Y247650D02*
X38100D01*
X12700Y349250D02*
X38100D01*
X1060680Y122450D02*
X1083380D01*
X1041930Y131100D02*
Y176100D01*
X1060380Y182350D02*
X1083380D01*
X1101880Y128400D02*
Y176400D01*
X1061950Y429790D02*
X1084650D01*
X1043200Y438440D02*
Y483440D01*
X1061650Y489690D02*
X1084650D01*
X1103150Y435740D02*
Y483740D01*
D14*
X802310Y83910D02*
X818210D01*
X802310Y101510D02*
X818210D01*
X648640Y100240D02*
X664540D01*
X648640Y82640D02*
X664540D01*
X830670Y39040D02*
Y54940D01*
X848270Y39040D02*
Y54940D01*
X284570Y329870D02*
Y345770D01*
X302170Y329870D02*
Y345770D01*
X252640Y385750D02*
Y401650D01*
X235040Y385750D02*
Y401650D01*
X251550Y181280D02*
Y197180D01*
X269150Y181280D02*
Y197180D01*
X392100Y212180D02*
X408000D01*
X392100Y229780D02*
X408000D01*
X399720Y477430D02*
X415620D01*
X399720Y459830D02*
X415620D01*
X915760Y94920D02*
Y110820D01*
X933360Y94920D02*
Y110820D01*
X482690Y163500D02*
Y179400D01*
X500290Y163500D02*
Y179400D01*
X392100Y199300D02*
X408000D01*
X392100Y181700D02*
X408000D01*
X281610Y247740D02*
X297510D01*
X281610Y265340D02*
X297510D01*
D15*
X1083680Y39490D02*
Y54490D01*
D16*
X1016753Y242260D02*
Y282980D01*
X1136387Y324080D02*
Y364434D01*
X1058789Y242260D02*
X1094351D01*
X1108789D02*
X1136387D01*
Y282980D01*
X1016753Y242260D02*
X1044351D01*
X1016753Y324080D02*
Y364434D01*
X1136387D01*
D17*
X605792Y52069D02*
Y44451D01*
X609600D01*
X610870Y45721D01*
Y50799D01*
X609600Y52069D01*
X605792D01*
X613409Y44451D02*
X615948D01*
X614679D01*
Y52069D01*
X613409Y50799D01*
X500025Y90129D02*
Y85131D01*
X502524D01*
X503357Y85964D01*
Y89296D01*
X502524Y90129D01*
X500025D01*
X508355Y85131D02*
X505023D01*
X508355Y88463D01*
Y89296D01*
X507522Y90129D01*
X505856D01*
X505023Y89296D01*
X260962Y306069D02*
X259692Y307339D01*
X257153D01*
X255883Y306069D01*
Y300991D01*
X257153Y299721D01*
X259692D01*
X260962Y300991D01*
X268579Y299721D02*
X263501D01*
X268579Y304800D01*
Y306069D01*
X267310Y307339D01*
X264770D01*
X263501Y306069D01*
X276197Y299721D02*
X271118D01*
X276197Y304800D01*
Y306069D01*
X274927Y307339D01*
X272388D01*
X271118Y306069D01*
X262891Y283209D02*
X261622Y284479D01*
X259083D01*
X257813Y283209D01*
Y278131D01*
X259083Y276861D01*
X261622D01*
X262891Y278131D01*
X270509Y276861D02*
X265430D01*
X270509Y281940D01*
Y283209D01*
X269239Y284479D01*
X266700D01*
X265430Y283209D01*
X273048Y276861D02*
X275587D01*
X274317D01*
Y284479D01*
X273048Y283209D01*
X1054098Y33015D02*
X1049019D01*
X1046480Y30476D01*
Y20319D01*
X1049019Y17780D01*
X1054098D01*
X1056637Y20319D01*
Y30476D01*
X1054098Y33015D01*
X1061715Y17780D02*
Y33015D01*
X1071872Y17780D01*
Y33015D01*
X1041400Y82550D02*
Y97785D01*
X1049017D01*
X1051557Y95246D01*
Y90168D01*
X1049017Y87628D01*
X1041400D01*
X1046478D02*
X1051557Y82550D01*
X1064253D02*
X1059174D01*
X1056635Y85089D01*
Y90168D01*
X1059174Y92707D01*
X1064253D01*
X1066792Y90168D01*
Y87628D01*
X1056635D01*
X1071870Y82550D02*
X1079488D01*
X1082027Y85089D01*
X1079488Y87628D01*
X1074409D01*
X1071870Y90168D01*
X1074409Y92707D01*
X1082027D01*
X1094723Y82550D02*
X1089644D01*
X1087105Y85089D01*
Y90168D01*
X1089644Y92707D01*
X1094723D01*
X1097262Y90168D01*
Y87628D01*
X1087105D01*
X1104880Y95246D02*
Y92707D01*
X1102340D01*
X1107419D01*
X1104880D01*
Y85089D01*
X1107419Y82550D01*
X1047750Y524505D02*
Y509270D01*
X1055368D01*
X1057907Y511809D01*
Y514348D01*
X1055368Y516888D01*
X1047750D01*
X1055368D01*
X1057907Y519427D01*
Y521966D01*
X1055368Y524505D01*
X1047750D01*
X1070603D02*
X1065524D01*
X1062985Y521966D01*
Y511809D01*
X1065524Y509270D01*
X1070603D01*
X1073142Y511809D01*
Y521966D01*
X1070603Y524505D01*
X1085838D02*
X1080759D01*
X1078220Y521966D01*
Y511809D01*
X1080759Y509270D01*
X1085838D01*
X1088377Y511809D01*
Y521966D01*
X1085838Y524505D01*
X1093455D02*
X1103612D01*
X1098534D01*
Y509270D01*
X285872Y364031D02*
Y370029D01*
X288871D01*
X289871Y369029D01*
Y367030D01*
X288871Y366030D01*
X285872D01*
X287872D02*
X289871Y364031D01*
X291870D02*
X293870D01*
X292870D01*
Y370029D01*
X291870Y369029D01*
X300868Y364031D02*
X296869D01*
X300868Y368030D01*
Y369029D01*
X299868Y370029D01*
X297868D01*
X296869Y369029D01*
X236858Y420371D02*
Y427989D01*
X240666D01*
X241936Y426719D01*
Y424180D01*
X240666Y422910D01*
X236858D01*
X239397D02*
X241936Y420371D01*
X244475D02*
X247014D01*
X245745D01*
Y427989D01*
X244475Y426719D01*
X250823Y420371D02*
X253362D01*
X252093D01*
Y427989D01*
X250823Y426719D01*
X480698Y196851D02*
Y204469D01*
X484507D01*
X485776Y203199D01*
Y200660D01*
X484507Y199390D01*
X480698D01*
X483237D02*
X485776Y196851D01*
X488316D02*
X490855D01*
X489585D01*
Y204469D01*
X488316Y203199D01*
X494664D02*
X495933Y204469D01*
X498472D01*
X499742Y203199D01*
Y198121D01*
X498472Y196851D01*
X495933D01*
X494664Y198121D01*
Y203199D01*
X434342Y463551D02*
Y471169D01*
X438151D01*
X439420Y469899D01*
Y467360D01*
X438151Y466090D01*
X434342D01*
X436881D02*
X439420Y463551D01*
X441960Y464821D02*
X443229Y463551D01*
X445768D01*
X447038Y464821D01*
Y469899D01*
X445768Y471169D01*
X443229D01*
X441960Y469899D01*
Y468630D01*
X443229Y467360D01*
X447038D01*
X290830Y422911D02*
Y427989D01*
X289561Y429259D01*
X287022D01*
X285752Y427989D01*
Y422911D01*
X287022Y421641D01*
X289561D01*
X288291Y424180D02*
X290830Y421641D01*
X289561D02*
X290830Y422911D01*
X298448Y421641D02*
X293370D01*
X298448Y426720D01*
Y427989D01*
X297178Y429259D01*
X294639D01*
X293370Y427989D01*
X246950Y359411D02*
Y364489D01*
X245680Y365759D01*
X243141D01*
X241872Y364489D01*
Y359411D01*
X243141Y358141D01*
X245680D01*
X244411Y360680D02*
X246950Y358141D01*
X245680D02*
X246950Y359411D01*
X249489Y358141D02*
X252028D01*
X250759D01*
Y365759D01*
X249489Y364489D01*
X176532Y153669D02*
X175262Y154939D01*
X172723D01*
X171453Y153669D01*
Y148591D01*
X172723Y147321D01*
X175262D01*
X176532Y148591D01*
X184149Y147321D02*
X179071D01*
X184149Y152400D01*
Y153669D01*
X182880Y154939D01*
X180340D01*
X179071Y153669D01*
X186688D02*
X187958Y154939D01*
X190497D01*
X191767Y153669D01*
Y148591D01*
X190497Y147321D01*
X187958D01*
X186688Y148591D01*
Y153669D01*
X175896Y132079D02*
X174627Y133349D01*
X172088D01*
X170818Y132079D01*
Y127001D01*
X172088Y125731D01*
X174627D01*
X175896Y127001D01*
X178436Y125731D02*
X180975D01*
X179705D01*
Y133349D01*
X178436Y132079D01*
X184784Y127001D02*
X186053Y125731D01*
X188592D01*
X189862Y127001D01*
Y132079D01*
X188592Y133349D01*
X186053D01*
X184784Y132079D01*
Y130810D01*
X186053Y129540D01*
X189862D01*
X328065Y434381D02*
X326795Y435651D01*
X324256D01*
X322986Y434381D01*
Y429303D01*
X324256Y428033D01*
X326795D01*
X328065Y429303D01*
X330604Y428033D02*
X333143D01*
X331873D01*
Y435651D01*
X330604Y434381D01*
X342030Y435651D02*
X336952D01*
Y431842D01*
X339491Y433112D01*
X340760D01*
X342030Y431842D01*
Y429303D01*
X340760Y428033D01*
X338221D01*
X336952Y429303D01*
X426722Y186691D02*
Y194309D01*
X430531D01*
X431800Y193039D01*
Y190500D01*
X430531Y189230D01*
X426722D01*
X429261D02*
X431800Y186691D01*
X434340Y193039D02*
X435609Y194309D01*
X438148D01*
X439418Y193039D01*
Y191770D01*
X438148Y190500D01*
X439418Y189230D01*
Y187961D01*
X438148Y186691D01*
X435609D01*
X434340Y187961D01*
Y189230D01*
X435609Y190500D01*
X434340Y191770D01*
Y193039D01*
X435609Y190500D02*
X438148D01*
X426722Y218441D02*
Y226059D01*
X430531D01*
X431800Y224789D01*
Y222250D01*
X430531Y220980D01*
X426722D01*
X429261D02*
X431800Y218441D01*
X434340Y226059D02*
X439418D01*
Y224789D01*
X434340Y219711D01*
Y218441D01*
X264159Y250192D02*
X256541D01*
Y254001D01*
X257811Y255270D01*
X260350D01*
X261619Y254001D01*
Y250192D01*
Y252731D02*
X264159Y255270D01*
X256541Y262888D02*
X257811Y260349D01*
X260350Y257810D01*
X262889D01*
X264159Y259079D01*
Y261618D01*
X262889Y262888D01*
X261619D01*
X260350Y261618D01*
Y257810D01*
X233682Y186691D02*
Y194309D01*
X237491D01*
X238760Y193039D01*
Y190500D01*
X237491Y189230D01*
X233682D01*
X236221D02*
X238760Y186691D01*
X246378Y194309D02*
X241300D01*
Y190500D01*
X243839Y191770D01*
X245108D01*
X246378Y190500D01*
Y187961D01*
X245108Y186691D01*
X242569D01*
X241300Y187961D01*
X854712Y43181D02*
Y50799D01*
X858521D01*
X859790Y49529D01*
Y46990D01*
X858521Y45720D01*
X854712D01*
X857251D02*
X859790Y43181D01*
X866138D02*
Y50799D01*
X862330Y46990D01*
X867408D01*
X615952Y88901D02*
Y96519D01*
X619761D01*
X621030Y95249D01*
Y92710D01*
X619761Y91440D01*
X615952D01*
X618491D02*
X621030Y88901D01*
X623570Y95249D02*
X624839Y96519D01*
X627378D01*
X628648Y95249D01*
Y93980D01*
X627378Y92710D01*
X626109D01*
X627378D01*
X628648Y91440D01*
Y90171D01*
X627378Y88901D01*
X624839D01*
X623570Y90171D01*
X804596Y106198D02*
Y113815D01*
X808405D01*
X809675Y112546D01*
Y110007D01*
X808405Y108737D01*
X804596D01*
X807136D02*
X809675Y106198D01*
X817292D02*
X812214D01*
X817292Y111276D01*
Y112546D01*
X816023Y113815D01*
X813484D01*
X812214Y112546D01*
X900432Y99061D02*
Y106679D01*
X904240D01*
X905510Y105409D01*
Y102870D01*
X904240Y101600D01*
X900432D01*
X902971D02*
X905510Y99061D01*
X908049D02*
X910588D01*
X909319D01*
Y106679D01*
X908049Y105409D01*
X406402Y170179D02*
Y162561D01*
X411480D01*
X419098D02*
X414020D01*
X419098Y167640D01*
Y168909D01*
X417828Y170179D01*
X415289D01*
X414020Y168909D01*
X913129Y184784D02*
X914399Y186053D01*
Y188592D01*
X913129Y189862D01*
X908051D01*
X906781Y188592D01*
Y186053D01*
X908051Y184784D01*
X906781Y182244D02*
Y179705D01*
Y180975D01*
X914399D01*
X913129Y182244D01*
X906781Y172088D02*
X914399D01*
X910590Y175896D01*
Y170818D01*
X941069Y186054D02*
X942339Y187323D01*
Y189862D01*
X941069Y191132D01*
X935991D01*
X934721Y189862D01*
Y187323D01*
X935991Y186054D01*
X934721Y183514D02*
Y180975D01*
Y182245D01*
X942339D01*
X941069Y183514D01*
Y177166D02*
X942339Y175897D01*
Y173358D01*
X941069Y172088D01*
X939800D01*
X938530Y173358D01*
Y174627D01*
Y173358D01*
X937260Y172088D01*
X935991D01*
X934721Y173358D01*
Y175897D01*
X935991Y177166D01*
X405766Y39369D02*
X404497Y40639D01*
X401958D01*
X400688Y39369D01*
Y34291D01*
X401958Y33021D01*
X404497D01*
X405766Y34291D01*
X408306Y33021D02*
X410845D01*
X409575D01*
Y40639D01*
X408306Y39369D01*
X419732Y33021D02*
X414654D01*
X419732Y38100D01*
Y39369D01*
X418462Y40639D01*
X415923D01*
X414654Y39369D01*
X283341Y155868D02*
X282072Y157138D01*
X279533D01*
X278263Y155868D01*
Y150790D01*
X279533Y149520D01*
X282072D01*
X283341Y150790D01*
X285881Y149520D02*
X288420D01*
X287150D01*
Y157138D01*
X285881Y155868D01*
X292228Y149520D02*
X294768D01*
X293498D01*
Y157138D01*
X292228Y155868D01*
X379096Y271779D02*
X377827Y273049D01*
X375288D01*
X374018Y271779D01*
Y266701D01*
X375288Y265431D01*
X377827D01*
X379096Y266701D01*
X381636Y265431D02*
X384175D01*
X382905D01*
Y273049D01*
X381636Y271779D01*
X387984D02*
X389253Y273049D01*
X391792D01*
X393062Y271779D01*
Y266701D01*
X391792Y265431D01*
X389253D01*
X387984Y266701D01*
Y271779D01*
X379730Y251459D02*
X378461Y252729D01*
X375922D01*
X374652Y251459D01*
Y246381D01*
X375922Y245111D01*
X378461D01*
X379730Y246381D01*
X382270D02*
X383539Y245111D01*
X386078D01*
X387348Y246381D01*
Y251459D01*
X386078Y252729D01*
X383539D01*
X382270Y251459D01*
Y250190D01*
X383539Y248920D01*
X387348D01*
X264160Y226059D02*
X262891Y227329D01*
X260352D01*
X259082Y226059D01*
Y220981D01*
X260352Y219711D01*
X262891D01*
X264160Y220981D01*
X266700Y226059D02*
X267969Y227329D01*
X270508D01*
X271778Y226059D01*
Y224790D01*
X270508Y223520D01*
X271778Y222250D01*
Y220981D01*
X270508Y219711D01*
X267969D01*
X266700Y220981D01*
Y222250D01*
X267969Y223520D01*
X266700Y224790D01*
Y226059D01*
X267969Y223520D02*
X270508D01*
X299720Y114299D02*
X298451Y115569D01*
X295912D01*
X294642Y114299D01*
Y109221D01*
X295912Y107951D01*
X298451D01*
X299720Y109221D01*
X302260Y115569D02*
X307338D01*
Y114299D01*
X302260Y109221D01*
Y107951D01*
X805180Y74929D02*
X803911Y76199D01*
X801372D01*
X800102Y74929D01*
Y69851D01*
X801372Y68581D01*
X803911D01*
X805180Y69851D01*
X812798Y76199D02*
X810259Y74929D01*
X807720Y72390D01*
Y69851D01*
X808989Y68581D01*
X811528D01*
X812798Y69851D01*
Y71120D01*
X811528Y72390D01*
X807720D01*
X806450Y20319D02*
X805181Y21589D01*
X802642D01*
X801372Y20319D01*
Y15241D01*
X802642Y13971D01*
X805181D01*
X806450Y15241D01*
X814068Y21589D02*
X808990D01*
Y17780D01*
X811529Y19050D01*
X812798D01*
X814068Y17780D01*
Y15241D01*
X812798Y13971D01*
X810259D01*
X808990Y15241D01*
X515620Y198119D02*
X514351Y199389D01*
X511812D01*
X510542Y198119D01*
Y193041D01*
X511812Y191771D01*
X514351D01*
X515620Y193041D01*
X521968Y191771D02*
Y199389D01*
X518160Y195580D01*
X523238D01*
X541020Y197509D02*
X539751Y198779D01*
X537212D01*
X535942Y197509D01*
Y192431D01*
X537212Y191161D01*
X539751D01*
X541020Y192431D01*
X543560Y197509D02*
X544829Y198779D01*
X547368D01*
X548638Y197509D01*
Y196240D01*
X547368Y194970D01*
X546099D01*
X547368D01*
X548638Y193700D01*
Y192431D01*
X547368Y191161D01*
X544829D01*
X543560Y192431D01*
X552449Y77470D02*
X553719Y78739D01*
Y81278D01*
X552449Y82548D01*
X547371D01*
X546101Y81278D01*
Y78739D01*
X547371Y77470D01*
X546101Y69852D02*
Y74930D01*
X551180Y69852D01*
X552449D01*
X553719Y71122D01*
Y73661D01*
X552449Y74930D01*
X591819Y92710D02*
X593089Y93980D01*
Y96519D01*
X591819Y97788D01*
X586741D01*
X585471Y96519D01*
Y93980D01*
X586741Y92710D01*
X585471Y90171D02*
Y87632D01*
Y88901D01*
X593089D01*
X591819Y90171D01*
X709932Y139699D02*
Y133351D01*
X711202Y132081D01*
X713741D01*
X715010Y133351D01*
Y139699D01*
X722628Y132081D02*
X717550D01*
X722628Y137160D01*
Y138429D01*
X721358Y139699D01*
X718819D01*
X717550Y138429D01*
X351079Y375838D02*
Y367508D01*
X352746Y365842D01*
X356078D01*
X357744Y367508D01*
Y375838D01*
X361076Y374172D02*
X362742Y375838D01*
X366074D01*
X367741Y374172D01*
Y372506D01*
X366074Y370840D01*
X364408D01*
X366074D01*
X367741Y369174D01*
Y367508D01*
X366074Y365842D01*
X362742D01*
X361076Y367508D01*
X360682Y229869D02*
Y223521D01*
X361952Y222251D01*
X364491D01*
X365760Y223521D01*
Y229869D01*
X372108Y222251D02*
Y229869D01*
X368300Y226060D01*
X373378D01*
M02*
