G04*
G04 #@! TF.GenerationSoftware,Altium Limited,Altium Designer,26.1.1 (7)*
G04*
G04 Layer_Color=8388736*
%FSLAX44Y44*%
%MOMM*%
G71*
G04*
G04 #@! TF.SameCoordinates,C46A1F52-4DC3-4CE0-AD52-BD274313AA9A*
G04*
G04*
G04 #@! TF.FilePolarity,Negative*
G04*
G01*
G75*
%ADD36R,1.4132X0.9332*%
%ADD37R,0.8032X1.3532*%
%ADD38R,1.5032X1.7032*%
G04:AMPARAMS|DCode=39|XSize=2.1732mm|YSize=0.8032mm|CornerRadius=0.1766mm|HoleSize=0mm|Usage=FLASHONLY|Rotation=90.000|XOffset=0mm|YOffset=0mm|HoleType=Round|Shape=RoundedRectangle|*
%AMROUNDEDRECTD39*
21,1,2.1732,0.4500,0,0,90.0*
21,1,1.8200,0.8032,0,0,90.0*
1,1,0.3532,0.2250,0.9100*
1,1,0.3532,0.2250,-0.9100*
1,1,0.3532,-0.2250,-0.9100*
1,1,0.3532,-0.2250,0.9100*
%
%ADD39ROUNDEDRECTD39*%
%ADD40R,3.5032X2.6132*%
%ADD41R,1.7032X1.5032*%
G04:AMPARAMS|DCode=42|XSize=1.2432mm|YSize=1.9732mm|CornerRadius=0.2016mm|HoleSize=0mm|Usage=FLASHONLY|Rotation=270.000|XOffset=0mm|YOffset=0mm|HoleType=Round|Shape=RoundedRectangle|*
%AMROUNDEDRECTD42*
21,1,1.2432,1.5700,0,0,270.0*
21,1,0.8400,1.9732,0,0,270.0*
1,1,0.4032,-0.7850,-0.4200*
1,1,0.4032,-0.7850,0.4200*
1,1,0.4032,0.7850,0.4200*
1,1,0.4032,0.7850,-0.4200*
%
%ADD42ROUNDEDRECTD42*%
%ADD43R,1.5332X1.5332*%
%ADD44R,2.2032X1.1032*%
%ADD45R,1.1032X2.2032*%
%ADD46R,1.4032X1.7032*%
G04:AMPARAMS|DCode=47|XSize=1.2432mm|YSize=1.9732mm|CornerRadius=0.2016mm|HoleSize=0mm|Usage=FLASHONLY|Rotation=0.000|XOffset=0mm|YOffset=0mm|HoleType=Round|Shape=RoundedRectangle|*
%AMROUNDEDRECTD47*
21,1,1.2432,1.5700,0,0,0.0*
21,1,0.8400,1.9732,0,0,0.0*
1,1,0.4032,0.4200,-0.7850*
1,1,0.4032,-0.4200,-0.7850*
1,1,0.4032,-0.4200,0.7850*
1,1,0.4032,0.4200,0.7850*
%
%ADD47ROUNDEDRECTD47*%
G04:AMPARAMS|DCode=48|XSize=1.5132mm|YSize=0.8232mm|CornerRadius=0.1791mm|HoleSize=0mm|Usage=FLASHONLY|Rotation=180.000|XOffset=0mm|YOffset=0mm|HoleType=Round|Shape=RoundedRectangle|*
%AMROUNDEDRECTD48*
21,1,1.5132,0.4650,0,0,180.0*
21,1,1.1550,0.8232,0,0,180.0*
1,1,0.3582,-0.5775,0.2325*
1,1,0.3582,0.5775,0.2325*
1,1,0.3582,0.5775,-0.2325*
1,1,0.3582,-0.5775,-0.2325*
%
%ADD48ROUNDEDRECTD48*%
G04:AMPARAMS|DCode=49|XSize=1.5132mm|YSize=1.1332mm|CornerRadius=0.1714mm|HoleSize=0mm|Usage=FLASHONLY|Rotation=0.000|XOffset=0mm|YOffset=0mm|HoleType=Round|Shape=RoundedRectangle|*
%AMROUNDEDRECTD49*
21,1,1.5132,0.7905,0,0,0.0*
21,1,1.1705,1.1332,0,0,0.0*
1,1,0.3427,0.5853,-0.3953*
1,1,0.3427,-0.5853,-0.3953*
1,1,0.3427,-0.5853,0.3953*
1,1,0.3427,0.5853,0.3953*
%
%ADD49ROUNDEDRECTD49*%
%ADD50R,0.5032X1.3532*%
G04:AMPARAMS|DCode=51|XSize=1.5132mm|YSize=3.4432mm|CornerRadius=0.1999mm|HoleSize=0mm|Usage=FLASHONLY|Rotation=0.000|XOffset=0mm|YOffset=0mm|HoleType=Round|Shape=RoundedRectangle|*
%AMROUNDEDRECTD51*
21,1,1.5132,3.0435,0,0,0.0*
21,1,1.1135,3.4432,0,0,0.0*
1,1,0.3997,0.5568,-1.5218*
1,1,0.3997,-0.5568,-1.5218*
1,1,0.3997,-0.5568,1.5218*
1,1,0.3997,0.5568,1.5218*
%
%ADD51ROUNDEDRECTD51*%
%ADD52R,3.5532X3.4032*%
G04:AMPARAMS|DCode=53|XSize=1.204mm|YSize=0.854mm|CornerRadius=0.1833mm|HoleSize=0mm|Usage=FLASHONLY|Rotation=180.000|XOffset=0mm|YOffset=0mm|HoleType=Round|Shape=RoundedRectangle|*
%AMROUNDEDRECTD53*
21,1,1.2040,0.4875,0,0,180.0*
21,1,0.8375,0.8540,0,0,180.0*
1,1,0.3665,-0.4188,0.2438*
1,1,0.3665,0.4188,0.2438*
1,1,0.3665,0.4188,-0.2438*
1,1,0.3665,-0.4188,-0.2438*
%
%ADD53ROUNDEDRECTD53*%
G04:AMPARAMS|DCode=54|XSize=1.204mm|YSize=0.854mm|CornerRadius=0.1833mm|HoleSize=0mm|Usage=FLASHONLY|Rotation=90.000|XOffset=0mm|YOffset=0mm|HoleType=Round|Shape=RoundedRectangle|*
%AMROUNDEDRECTD54*
21,1,1.2040,0.4875,0,0,90.0*
21,1,0.8375,0.8540,0,0,90.0*
1,1,0.3665,0.2438,0.4188*
1,1,0.3665,0.2438,-0.4188*
1,1,0.3665,-0.2438,-0.4188*
1,1,0.3665,-0.2438,0.4188*
%
%ADD54ROUNDEDRECTD54*%
%ADD55C,1.5112*%
%ADD56C,0.6032*%
%ADD57C,1.7780*%
%ADD58C,1.8532*%
%ADD59O,1.2032X2.3032*%
G04:AMPARAMS|DCode=60|XSize=2.0032mm|YSize=1.2032mm|CornerRadius=0.3516mm|HoleSize=0mm|Usage=FLASHONLY|Rotation=90.000|XOffset=0mm|YOffset=0mm|HoleType=Round|Shape=RoundedRectangle|*
%AMROUNDEDRECTD60*
21,1,2.0032,0.5000,0,0,90.0*
21,1,1.3000,1.2032,0,0,90.0*
1,1,0.7032,0.2500,0.6500*
1,1,0.7032,0.2500,-0.6500*
1,1,0.7032,-0.2500,-0.6500*
1,1,0.7032,-0.2500,0.6500*
%
%ADD60ROUNDEDRECTD60*%
%ADD61C,1.8034*%
%ADD62C,1.7012*%
%ADD63C,0.8532*%
%ADD64R,1.7012X1.7012*%
%ADD65C,2.3032*%
%ADD66C,1.6532*%
%ADD67R,1.6532X1.6532*%
%ADD68C,5.2032*%
%ADD69C,0.9032*%
D36*
X595340Y67310D02*
D03*
X628940D02*
D03*
X522260Y104140D02*
D03*
X488660D02*
D03*
D37*
X755520Y72950D02*
D03*
X707520D02*
D03*
X763520D02*
D03*
X699520D02*
D03*
D38*
X306680Y303530D02*
D03*
X287680D02*
D03*
X306070Y280670D02*
D03*
X287070D02*
D03*
X223520Y151130D02*
D03*
X222860Y129540D02*
D03*
X436270Y39370D02*
D03*
X815950Y55880D02*
D03*
X796950D02*
D03*
X352450Y431800D02*
D03*
X342290Y270510D02*
D03*
X204520Y151130D02*
D03*
X203860Y129540D02*
D03*
X815950Y34290D02*
D03*
X796950D02*
D03*
X455270Y39370D02*
D03*
X361290Y248920D02*
D03*
Y270510D02*
D03*
X371450Y431800D02*
D03*
X342290Y248920D02*
D03*
D39*
X312420Y222870D02*
D03*
X325120D02*
D03*
X337820D02*
D03*
X350520D02*
D03*
X337820Y173370D02*
D03*
X312420D02*
D03*
X325120D02*
D03*
X350520D02*
D03*
D40*
X331470Y198120D02*
D03*
D41*
X321310Y128880D02*
D03*
X549910Y95910D02*
D03*
X572770D02*
D03*
X911860Y157480D02*
D03*
X937260Y156820D02*
D03*
X321310Y109880D02*
D03*
X287020Y207670D02*
D03*
X349250Y511150D02*
D03*
X370840D02*
D03*
X392430D02*
D03*
X515620Y179680D02*
D03*
X542290Y179070D02*
D03*
X549910Y114910D02*
D03*
X572770D02*
D03*
X911860Y138480D02*
D03*
X937260Y137820D02*
D03*
X349250Y492150D02*
D03*
X370840D02*
D03*
X392430D02*
D03*
X515620Y160680D02*
D03*
X542290Y160070D02*
D03*
X287020Y188570D02*
D03*
Y169570D02*
D03*
Y226670D02*
D03*
D42*
X260350Y173830D02*
D03*
X839470Y62390D02*
D03*
Y31590D02*
D03*
X924560Y118270D02*
D03*
X491490Y156050D02*
D03*
X293370Y322420D02*
D03*
Y353220D02*
D03*
X260350Y204630D02*
D03*
X243840Y409100D02*
D03*
Y378300D02*
D03*
X924560Y87470D02*
D03*
X491490Y186850D02*
D03*
D43*
X559620Y422270D02*
D03*
X541270D02*
D03*
X522920D02*
D03*
X559620Y440620D02*
D03*
X541270D02*
D03*
X522920D02*
D03*
X559620Y458970D02*
D03*
X541270D02*
D03*
X522920D02*
D03*
D44*
X636270Y515620D02*
D03*
X466270D02*
D03*
Y502920D02*
D03*
X636270Y477520D02*
D03*
X466270Y426720D02*
D03*
Y490220D02*
D03*
X636270Y502920D02*
D03*
Y490220D02*
D03*
Y464820D02*
D03*
Y452120D02*
D03*
Y439420D02*
D03*
Y426720D02*
D03*
Y414020D02*
D03*
Y401320D02*
D03*
Y388620D02*
D03*
Y375920D02*
D03*
Y363220D02*
D03*
Y350520D02*
D03*
X466270D02*
D03*
Y363220D02*
D03*
Y375920D02*
D03*
Y388620D02*
D03*
Y401320D02*
D03*
Y414020D02*
D03*
Y439420D02*
D03*
Y452120D02*
D03*
Y464820D02*
D03*
Y477520D02*
D03*
D45*
X494120Y340520D02*
D03*
X608420D02*
D03*
X595720D02*
D03*
X583020D02*
D03*
X570320D02*
D03*
X557620D02*
D03*
X544920D02*
D03*
X532220D02*
D03*
X519520D02*
D03*
X506820D02*
D03*
D46*
X1072680Y46990D02*
D03*
X1045680D02*
D03*
D47*
X415450Y190500D02*
D03*
X274160Y256540D02*
D03*
X641190Y91440D02*
D03*
X825660Y92710D02*
D03*
X794860D02*
D03*
X671990Y91440D02*
D03*
X415450Y220980D02*
D03*
X392270Y468630D02*
D03*
X423070D02*
D03*
X384650Y190500D02*
D03*
Y220980D02*
D03*
X304960Y256540D02*
D03*
D48*
X388180Y325120D02*
D03*
Y388620D02*
D03*
Y375920D02*
D03*
X333180Y325120D02*
D03*
X388180Y350520D02*
D03*
Y337820D02*
D03*
Y363220D02*
D03*
Y401320D02*
D03*
Y414020D02*
D03*
X333180D02*
D03*
Y401320D02*
D03*
Y388620D02*
D03*
Y375920D02*
D03*
Y363220D02*
D03*
Y350520D02*
D03*
Y337820D02*
D03*
D49*
X629490Y161330D02*
D03*
Y138430D02*
D03*
Y115530D02*
D03*
D50*
X744020Y72950D02*
D03*
X749020D02*
D03*
X719020D02*
D03*
X714020D02*
D03*
X729020D02*
D03*
X739020D02*
D03*
X724020D02*
D03*
X734020D02*
D03*
D51*
X696390Y138430D02*
D03*
D52*
X455980Y104140D02*
D03*
X366980D02*
D03*
D53*
X232410Y337820D02*
D03*
X256410Y328320D02*
D03*
Y347320D02*
D03*
D54*
X281330Y385510D02*
D03*
X300330D02*
D03*
X290830Y409510D02*
D03*
D55*
X229870Y21590D02*
D03*
X269870D02*
D03*
X249870D02*
D03*
D56*
X550445Y422270D02*
D03*
X532095D02*
D03*
X559620Y431445D02*
D03*
X541270D02*
D03*
X522920D02*
D03*
X550445Y440620D02*
D03*
X532095D02*
D03*
X559620Y449795D02*
D03*
X541270D02*
D03*
X522920D02*
D03*
X550445Y458970D02*
D03*
X532095D02*
D03*
D57*
X121920Y38100D02*
D03*
X147320D02*
D03*
D58*
X967740Y158750D02*
D03*
Y133350D02*
D03*
Y311150D02*
D03*
Y184150D02*
D03*
Y209550D02*
D03*
Y234950D02*
D03*
Y260350D02*
D03*
Y285750D02*
D03*
Y336550D02*
D03*
Y361950D02*
D03*
Y463550D02*
D03*
Y438150D02*
D03*
Y412750D02*
D03*
Y387350D02*
D03*
D59*
X774720Y67200D02*
D03*
X688320D02*
D03*
D60*
X774720Y25400D02*
D03*
X688320D02*
D03*
D61*
X1051570Y233530D02*
D03*
X1076570Y378530D02*
D03*
X1101570D02*
D03*
Y233530D02*
D03*
X1051570Y378530D02*
D03*
D62*
X1094380Y184900D02*
D03*
X1095650Y492240D02*
D03*
X1094380Y119900D02*
D03*
X1049380Y184900D02*
D03*
X1095650Y427240D02*
D03*
X1050650Y492240D02*
D03*
D63*
X760420Y62200D02*
D03*
X702620D02*
D03*
D64*
X1049380Y119900D02*
D03*
X1050650Y427240D02*
D03*
D65*
X208370Y21590D02*
D03*
X291370D02*
D03*
D66*
X25400Y260350D02*
D03*
Y311150D02*
D03*
Y285750D02*
D03*
D67*
Y336550D02*
D03*
D68*
X1129030Y39370D02*
D03*
Y552450D02*
D03*
X35560Y39370D02*
D03*
Y552450D02*
D03*
D69*
X541241Y440297D02*
D03*
X522809Y440489D02*
D03*
X560202Y440681D02*
D03*
X522501Y422473D02*
D03*
X560071Y422227D02*
D03*
X540948Y422596D02*
D03*
X522482Y459508D02*
D03*
X541331Y459018D02*
D03*
X560098Y459263D02*
D03*
M02*
