G04*
G04 #@! TF.GenerationSoftware,Altium Limited,Altium Designer,26.1.1 (7)*
G04*
G04 Layer_Color=8421504*
%FSLAX44Y44*%
%MOMM*%
G71*
G04*
G04 #@! TF.SameCoordinates,C46A1F52-4DC3-4CE0-AD52-BD274313AA9A*
G04*
G04*
G04 #@! TF.FilePolarity,Positive*
G04*
G01*
G75*
%ADD18R,1.2100X0.7300*%
%ADD19R,0.6000X1.1500*%
%ADD20R,1.3000X1.5000*%
G04:AMPARAMS|DCode=21|XSize=1.97mm|YSize=0.6mm|CornerRadius=0.075mm|HoleSize=0mm|Usage=FLASHONLY|Rotation=90.000|XOffset=0mm|YOffset=0mm|HoleType=Round|Shape=RoundedRectangle|*
%AMROUNDEDRECTD21*
21,1,1.9700,0.4500,0,0,90.0*
21,1,1.8200,0.6000,0,0,90.0*
1,1,0.1500,0.2250,0.9100*
1,1,0.1500,0.2250,-0.9100*
1,1,0.1500,-0.2250,-0.9100*
1,1,0.1500,-0.2250,0.9100*
%
%ADD21ROUNDEDRECTD21*%
%ADD22R,1.5000X1.3000*%
G04:AMPARAMS|DCode=23|XSize=1.04mm|YSize=1.77mm|CornerRadius=0.1mm|HoleSize=0mm|Usage=FLASHONLY|Rotation=270.000|XOffset=0mm|YOffset=0mm|HoleType=Round|Shape=RoundedRectangle|*
%AMROUNDEDRECTD23*
21,1,1.0400,1.5700,0,0,270.0*
21,1,0.8400,1.7700,0,0,270.0*
1,1,0.2000,-0.7850,-0.4200*
1,1,0.2000,-0.7850,0.4200*
1,1,0.2000,0.7850,0.4200*
1,1,0.2000,0.7850,-0.4200*
%
%ADD23ROUNDEDRECTD23*%
%ADD24R,1.3300X1.3300*%
%ADD25R,2.0000X0.9000*%
%ADD26R,0.9000X2.0000*%
%ADD27R,1.2000X1.5000*%
G04:AMPARAMS|DCode=28|XSize=1.04mm|YSize=1.77mm|CornerRadius=0.1mm|HoleSize=0mm|Usage=FLASHONLY|Rotation=0.000|XOffset=0mm|YOffset=0mm|HoleType=Round|Shape=RoundedRectangle|*
%AMROUNDEDRECTD28*
21,1,1.0400,1.5700,0,0,0.0*
21,1,0.8400,1.7700,0,0,0.0*
1,1,0.2000,0.4200,-0.7850*
1,1,0.2000,-0.4200,-0.7850*
1,1,0.2000,-0.4200,0.7850*
1,1,0.2000,0.4200,0.7850*
%
%ADD28ROUNDEDRECTD28*%
G04:AMPARAMS|DCode=29|XSize=1.31mm|YSize=0.62mm|CornerRadius=0.0775mm|HoleSize=0mm|Usage=FLASHONLY|Rotation=180.000|XOffset=0mm|YOffset=0mm|HoleType=Round|Shape=RoundedRectangle|*
%AMROUNDEDRECTD29*
21,1,1.3100,0.4650,0,0,180.0*
21,1,1.1550,0.6200,0,0,180.0*
1,1,0.1550,-0.5775,0.2325*
1,1,0.1550,0.5775,0.2325*
1,1,0.1550,0.5775,-0.2325*
1,1,0.1550,-0.5775,-0.2325*
%
%ADD29ROUNDEDRECTD29*%
G04:AMPARAMS|DCode=30|XSize=1.31mm|YSize=0.93mm|CornerRadius=0.0698mm|HoleSize=0mm|Usage=FLASHONLY|Rotation=0.000|XOffset=0mm|YOffset=0mm|HoleType=Round|Shape=RoundedRectangle|*
%AMROUNDEDRECTD30*
21,1,1.3100,0.7905,0,0,0.0*
21,1,1.1705,0.9300,0,0,0.0*
1,1,0.1395,0.5853,-0.3953*
1,1,0.1395,-0.5853,-0.3953*
1,1,0.1395,-0.5853,0.3953*
1,1,0.1395,0.5853,0.3953*
%
%ADD30ROUNDEDRECTD30*%
%ADD31R,0.3000X1.1500*%
G04:AMPARAMS|DCode=32|XSize=1.31mm|YSize=3.24mm|CornerRadius=0.0983mm|HoleSize=0mm|Usage=FLASHONLY|Rotation=0.000|XOffset=0mm|YOffset=0mm|HoleType=Round|Shape=RoundedRectangle|*
%AMROUNDEDRECTD32*
21,1,1.3100,3.0435,0,0,0.0*
21,1,1.1135,3.2400,0,0,0.0*
1,1,0.1965,0.5568,-1.5218*
1,1,0.1965,-0.5568,-1.5218*
1,1,0.1965,-0.5568,1.5218*
1,1,0.1965,0.5568,1.5218*
%
%ADD32ROUNDEDRECTD32*%
%ADD33R,3.3500X3.2000*%
G04:AMPARAMS|DCode=34|XSize=1mm|YSize=0.65mm|CornerRadius=0.0813mm|HoleSize=0mm|Usage=FLASHONLY|Rotation=180.000|XOffset=0mm|YOffset=0mm|HoleType=Round|Shape=RoundedRectangle|*
%AMROUNDEDRECTD34*
21,1,1.0000,0.4875,0,0,180.0*
21,1,0.8375,0.6500,0,0,180.0*
1,1,0.1625,-0.4188,0.2438*
1,1,0.1625,0.4188,0.2438*
1,1,0.1625,0.4188,-0.2438*
1,1,0.1625,-0.4188,-0.2438*
%
%ADD34ROUNDEDRECTD34*%
G04:AMPARAMS|DCode=35|XSize=1mm|YSize=0.65mm|CornerRadius=0.0813mm|HoleSize=0mm|Usage=FLASHONLY|Rotation=90.000|XOffset=0mm|YOffset=0mm|HoleType=Round|Shape=RoundedRectangle|*
%AMROUNDEDRECTD35*
21,1,1.0000,0.4875,0,0,90.0*
21,1,0.8375,0.6500,0,0,90.0*
1,1,0.1625,0.2438,0.4188*
1,1,0.1625,0.2438,-0.4188*
1,1,0.1625,-0.2438,-0.4188*
1,1,0.1625,-0.2438,0.4188*
%
%ADD35ROUNDEDRECTD35*%
G36*
X342270Y204870D02*
Y191370D01*
X320670D01*
Y204870D01*
X342270D01*
D02*
G37*
D18*
X595340Y67310D02*
D03*
X628940D02*
D03*
X522260Y104140D02*
D03*
X488660D02*
D03*
D19*
X755520Y72950D02*
D03*
X707520D02*
D03*
X763520D02*
D03*
X699520D02*
D03*
D20*
X306680Y303530D02*
D03*
X287680D02*
D03*
X306070Y280670D02*
D03*
X287070D02*
D03*
X223520Y151130D02*
D03*
X222860Y129540D02*
D03*
X436270Y39370D02*
D03*
X815950Y55880D02*
D03*
X796950D02*
D03*
X352450Y431800D02*
D03*
X342290Y270510D02*
D03*
X204520Y151130D02*
D03*
X203860Y129540D02*
D03*
X815950Y34290D02*
D03*
X796950D02*
D03*
X455270Y39370D02*
D03*
X361290Y248920D02*
D03*
Y270510D02*
D03*
X371450Y431800D02*
D03*
X342290Y248920D02*
D03*
D21*
X312420Y222870D02*
D03*
X325120D02*
D03*
X337820D02*
D03*
X350520D02*
D03*
X337820Y173370D02*
D03*
X312420D02*
D03*
X325120D02*
D03*
X350520D02*
D03*
D22*
X321310Y128880D02*
D03*
X549910Y95910D02*
D03*
X572770D02*
D03*
X911860Y157480D02*
D03*
X937260Y156820D02*
D03*
X321310Y109880D02*
D03*
X287020Y207670D02*
D03*
X349250Y511150D02*
D03*
X370840D02*
D03*
X392430D02*
D03*
X515620Y179680D02*
D03*
X542290Y179070D02*
D03*
X549910Y114910D02*
D03*
X572770D02*
D03*
X911860Y138480D02*
D03*
X937260Y137820D02*
D03*
X349250Y492150D02*
D03*
X370840D02*
D03*
X392430D02*
D03*
X515620Y160680D02*
D03*
X542290Y160070D02*
D03*
X287020Y188570D02*
D03*
Y169570D02*
D03*
Y226670D02*
D03*
D23*
X260350Y173830D02*
D03*
X839470Y62390D02*
D03*
Y31590D02*
D03*
X924560Y118270D02*
D03*
X491490Y156050D02*
D03*
X293370Y322420D02*
D03*
Y353220D02*
D03*
X260350Y204630D02*
D03*
X243840Y409100D02*
D03*
Y378300D02*
D03*
X924560Y87470D02*
D03*
X491490Y186850D02*
D03*
D24*
X559620Y422270D02*
D03*
X541270D02*
D03*
X522920D02*
D03*
X559620Y440620D02*
D03*
X541270D02*
D03*
X522920D02*
D03*
X559620Y458970D02*
D03*
X541270D02*
D03*
X522920D02*
D03*
D25*
X636270Y515620D02*
D03*
X466270D02*
D03*
Y502920D02*
D03*
X636270Y477520D02*
D03*
X466270Y426720D02*
D03*
Y490220D02*
D03*
X636270Y502920D02*
D03*
Y490220D02*
D03*
Y464820D02*
D03*
Y452120D02*
D03*
Y439420D02*
D03*
Y426720D02*
D03*
Y414020D02*
D03*
Y401320D02*
D03*
Y388620D02*
D03*
Y375920D02*
D03*
Y363220D02*
D03*
Y350520D02*
D03*
X466270D02*
D03*
Y363220D02*
D03*
Y375920D02*
D03*
Y388620D02*
D03*
Y401320D02*
D03*
Y414020D02*
D03*
Y439420D02*
D03*
Y452120D02*
D03*
Y464820D02*
D03*
Y477520D02*
D03*
D26*
X494120Y340520D02*
D03*
X608420D02*
D03*
X595720D02*
D03*
X583020D02*
D03*
X570320D02*
D03*
X557620D02*
D03*
X544920D02*
D03*
X532220D02*
D03*
X519520D02*
D03*
X506820D02*
D03*
D27*
X1072680Y46990D02*
D03*
X1045680D02*
D03*
D28*
X415450Y190500D02*
D03*
X274160Y256540D02*
D03*
X641190Y91440D02*
D03*
X825660Y92710D02*
D03*
X794860D02*
D03*
X671990Y91440D02*
D03*
X415450Y220980D02*
D03*
X392270Y468630D02*
D03*
X423070D02*
D03*
X384650Y190500D02*
D03*
Y220980D02*
D03*
X304960Y256540D02*
D03*
D29*
X388180Y325120D02*
D03*
Y388620D02*
D03*
Y375920D02*
D03*
X333180Y325120D02*
D03*
X388180Y350520D02*
D03*
Y337820D02*
D03*
Y363220D02*
D03*
Y401320D02*
D03*
Y414020D02*
D03*
X333180D02*
D03*
Y401320D02*
D03*
Y388620D02*
D03*
Y375920D02*
D03*
Y363220D02*
D03*
Y350520D02*
D03*
Y337820D02*
D03*
D30*
X629490Y161330D02*
D03*
Y138430D02*
D03*
Y115530D02*
D03*
D31*
X744020Y72950D02*
D03*
X749020D02*
D03*
X719020D02*
D03*
X714020D02*
D03*
X729020D02*
D03*
X739020D02*
D03*
X724020D02*
D03*
X734020D02*
D03*
D32*
X696390Y138430D02*
D03*
D33*
X455980Y104140D02*
D03*
X366980D02*
D03*
D34*
X232410Y337820D02*
D03*
X256410Y328320D02*
D03*
Y347320D02*
D03*
D35*
X281330Y385510D02*
D03*
X300330D02*
D03*
X290830Y409510D02*
D03*
M02*
