M48
;Layer_Color=9474304
;FILE_FORMAT=4:4
METRIC,LZ
;TYPE=PLATED
T01F00S00C0.3000
T02F00S00C0.3500
T03F00S00C0.5000
T04F00S00C0.6000
T06F00S00C0.8000
T07F00S00C0.9900
T08F00S00C1.0668
T09F00S00C1.0922
T10F00S00C1.1000
T11F00S00C1.4000
T12F00S00C3.0480
T13F00S00C4.5000
;TYPE=NON_PLATED
T14F00S00C0.6500
%
T01
X0066421Y0025908
X0069977
X0073279
X0078359
X0083312Y0025654
X0082804Y0015494
X0080645Y0014478
X0086868Y0017018
X0066294Y0029464
X00632324Y00321302
X00627849Y00328641
X00661582Y00363485
X0065405Y0037211
X00678936Y00378676
X00667352Y00394368
X0065659Y0042672
X0055962Y00431445
X00550445Y0044062
Y0042227
X00532095
X0054127Y00431445
X00532095Y0044062
X0054127Y00449795
X00532095Y0045897
X00550445
X0055962Y00449795
X0052292
Y00431445
X004445Y0042291
Y0040894
Y003937
X00434038Y0035198
X0036957Y0030988
X0034163Y0029972
X00361154Y0038627
X0036068Y0040005
X00360932Y00413183
X0030861Y0042926
X0032766Y0051181
X00336719Y0015801
X00314355
X0039624Y0016637
T02
X000833Y0004346
Y0009346
X000333
X001333
X001833
X002833
X0032766Y0009144
X003333Y0004346
X0033274Y0001651
X0038354
X003833Y0004346
X0043307Y0001651
X004826
X004833Y0004346
X005333
X005833
X006333
X0070993Y0004064
Y000254
Y0001143
X0072898
Y000254
Y0004064
X0074676
Y000254
Y0001143
X007833Y0004346
X008333
X008833
X0088265Y0001905
Y0006858
X008833Y0009346
X0073535
X009833
X0098298Y0006731
X0098171Y0001778
X010333Y0009346
X010833
X011333
Y0014346
Y0019346
Y0024346
X010833
Y0029346
Y0034346
X010333
Y0039346
Y0044346
Y0049346
X009833
X009333
Y0044346
Y0034346
Y0029346
X011333Y0034346
Y0039346
Y0044346
Y0049346
X010833Y0044346
Y0014346
X0087249Y0014605
X008333Y0014346
Y0019346
X007833
X007333
X006833
X0062103Y0018796
X0056896Y0016129
X005333Y0019346
X005833Y0024346
Y0039346
Y0044346
Y0049346
X005333
Y0039346
X0065913Y0044323
X007333Y0044346
Y0049346
X007833
X008333
Y0044346
X008833
Y0049346
X007833Y0044346
Y0034346
X008333
Y0029346
X008833
Y0034346
X007333
Y0029346
X007833
X006833Y0049346
X004833
Y0044346
Y0039346
Y0034346
X00445673Y00376368
X00422164Y0041363
X0041656Y0044069
X0044323Y0045593
X0043561Y0048768
X0036957Y004699
X0032639Y0049276
X002833Y0049346
Y0044346
X002333
X001833
Y0049346
X002333
X001333
Y0044346
Y0039346
Y0034346
X001833
Y0039346
X002333
X0023114Y0036068
X0026543Y0036703
X002833Y0034346
X003175Y0037338
Y003937
X0036449Y0029083
X004333Y0029346
X004572Y0027051
X004833Y0024346
X0039878Y0025273
X004064Y0032893
X0036703Y0020066
X002333Y0024346
X001833
X001333
Y0029346
X001833
X002333
X001833Y0019346
X001333
Y0014346
X001833
X000833
X000333
Y0019346
X000833
Y0024346
Y0029346
Y0034346
Y0039346
X000333
Y0044346
Y0049346
X000833
Y0044346
X000333Y0024346
X000833Y0054346
X001333
X001833
X002333
X002833
X007833
X008333
X008833
X009333
X009833
X010333
X010833
T03
X0046609Y001778
X0034925Y0046482
T04
X00540948Y00422596
X00541241Y00440297
X00541331Y00459018
X00560098Y00459263
X00560202Y00440681
X00560071Y00422227
X00522501Y00422473
X00522809Y00440489
X00522482Y00459508
T06
X0022987Y0002159
X0024987
X0026987
T07
X0104938Y001199
X0109438
Y001849
X0104938
X0105065Y0042724
X0109565
Y0049224
X0105065
T08
X0012192Y000381
X0014732
T09
X0105157Y0023353
X0110157
Y0037853
X0107657
X0105157
T10
X0096774Y0013335
Y0015875
Y0018415
Y0020955
Y0023495
Y0026035
Y0028575
Y0031115
Y0033655
Y0036195
Y0038735
Y0041275
Y0043815
Y0046355
X000254Y0033655
Y0031115
Y0028575
Y0026035
T11
X0020837Y0002159
X0029137
T12
X0102157Y0030353
X0113157
T13
X0003556Y0003937
X0112903
X0003556Y0055245
X0112903
T14
X0070262Y000622
X0076042
M30
