G04*
G04 #@! TF.GenerationSoftware,Altium Limited,Altium Designer,25.8.1 (18)*
G04*
G04 Layer_Color=8388736*
%FSLAX44Y44*%
%MOMM*%
G71*
G04*
G04 #@! TF.SameCoordinates,5923BA5B-ABCF-4B3D-8C2E-468CF12D829E*
G04*
G04*
G04 #@! TF.FilePolarity,Negative*
G04*
G01*
G75*
%ADD23R,1.3500X0.9500*%
%ADD24R,0.9500X1.3500*%
%ADD26R,4.4000X1.9000*%
G04:AMPARAMS|DCode=27|XSize=1.5132mm|YSize=3.4432mm|CornerRadius=0.1999mm|HoleSize=0mm|Usage=FLASHONLY|Rotation=90.000|XOffset=0mm|YOffset=0mm|HoleType=Round|Shape=RoundedRectangle|*
%AMROUNDEDRECTD27*
21,1,1.5132,3.0435,0,0,90.0*
21,1,1.1135,3.4432,0,0,90.0*
1,1,0.3997,1.5218,0.5568*
1,1,0.3997,1.5218,-0.5568*
1,1,0.3997,-1.5218,-0.5568*
1,1,0.3997,-1.5218,0.5568*
%
%ADD27ROUNDEDRECTD27*%
G04:AMPARAMS|DCode=28|XSize=1.5132mm|YSize=1.1332mm|CornerRadius=0.1714mm|HoleSize=0mm|Usage=FLASHONLY|Rotation=90.000|XOffset=0mm|YOffset=0mm|HoleType=Round|Shape=RoundedRectangle|*
%AMROUNDEDRECTD28*
21,1,1.5132,0.7905,0,0,90.0*
21,1,1.1705,1.1332,0,0,90.0*
1,1,0.3427,0.3953,0.5853*
1,1,0.3427,0.3953,-0.5853*
1,1,0.3427,-0.3953,-0.5853*
1,1,0.3427,-0.3953,0.5853*
%
%ADD28ROUNDEDRECTD28*%
%ADD29R,1.4032X1.7032*%
G04:AMPARAMS|DCode=30|XSize=1.2432mm|YSize=1.9732mm|CornerRadius=0.2016mm|HoleSize=0mm|Usage=FLASHONLY|Rotation=270.000|XOffset=0mm|YOffset=0mm|HoleType=Round|Shape=RoundedRectangle|*
%AMROUNDEDRECTD30*
21,1,1.2432,1.5700,0,0,270.0*
21,1,0.8400,1.9732,0,0,270.0*
1,1,0.4032,-0.7850,-0.4200*
1,1,0.4032,-0.7850,0.4200*
1,1,0.4032,0.7850,0.4200*
1,1,0.4032,0.7850,-0.4200*
%
%ADD30ROUNDEDRECTD30*%
%ADD31R,1.7032X1.5032*%
%ADD32C,1.7018*%
%ADD33O,2.4532X4.7032*%
%ADD34O,4.7032X2.4532*%
%ADD35O,5.2032X2.7032*%
%ADD36C,3.2032*%
D23*
X181610Y296030D02*
D03*
Y311030D02*
D03*
X156210Y296030D02*
D03*
Y311030D02*
D03*
X279400Y293490D02*
D03*
Y308490D02*
D03*
X252730Y293490D02*
D03*
Y308490D02*
D03*
D24*
X224670Y375920D02*
D03*
X209670D02*
D03*
X224670Y350520D02*
D03*
X209670D02*
D03*
X335160Y375920D02*
D03*
X320160D02*
D03*
X335160Y350520D02*
D03*
X320160D02*
D03*
D26*
X278450Y488950D02*
D03*
X191450D02*
D03*
D27*
X276860Y403020D02*
D03*
X165100D02*
D03*
D28*
X299760Y336120D02*
D03*
X276860D02*
D03*
X253960D02*
D03*
X188000D02*
D03*
X165100D02*
D03*
X142200D02*
D03*
D29*
X288760Y168340D02*
D03*
X315760D02*
D03*
X175730D02*
D03*
X202730D02*
D03*
D30*
X328930Y276700D02*
D03*
X215900Y277970D02*
D03*
Y308770D02*
D03*
X328930Y307500D02*
D03*
D31*
X307340Y572160D02*
D03*
Y591160D02*
D03*
D32*
X396240Y57150D02*
D03*
Y92150D02*
D03*
Y127150D02*
D03*
Y162150D02*
D03*
Y197150D02*
D03*
Y232150D02*
D03*
X86360Y459890D02*
D03*
Y424890D02*
D03*
Y389890D02*
D03*
Y354890D02*
D03*
Y319890D02*
D03*
Y284890D02*
D03*
Y57150D02*
D03*
Y92150D02*
D03*
Y127150D02*
D03*
Y162150D02*
D03*
Y197150D02*
D03*
Y232150D02*
D03*
X396240Y688080D02*
D03*
Y653080D02*
D03*
Y618080D02*
D03*
Y583080D02*
D03*
Y548080D02*
D03*
Y513080D02*
D03*
Y287990D02*
D03*
Y322990D02*
D03*
Y357990D02*
D03*
Y392990D02*
D03*
Y427990D02*
D03*
Y462990D02*
D03*
X329940Y85090D02*
D03*
X294940D02*
D03*
X259940D02*
D03*
X224940D02*
D03*
X189940D02*
D03*
X154940D02*
D03*
X86360Y512930D02*
D03*
Y547930D02*
D03*
Y582930D02*
D03*
Y617930D02*
D03*
Y652930D02*
D03*
Y687930D02*
D03*
D33*
X195570Y601190D02*
D03*
D34*
X242570Y631190D02*
D03*
D35*
Y571190D02*
D03*
D36*
X22860Y721330D02*
D03*
X456598Y22156D02*
D03*
X456600Y721328D02*
D03*
X22860Y22160D02*
D03*
M02*
