G04*
G04 #@! TF.GenerationSoftware,Altium Limited,Altium Designer,25.8.1 (18)*
G04*
G04 Layer_Color=65535*
%FSLAX44Y44*%
%MOMM*%
G71*
G04*
G04 #@! TF.SameCoordinates,5923BA5B-ABCF-4B3D-8C2E-468CF12D829E*
G04*
G04*
G04 #@! TF.FilePolarity,Positive*
G04*
G01*
G75*
%ADD10C,0.2000*%
%ADD11C,0.5080*%
%ADD12C,0.4000*%
%ADD13C,0.2500*%
%ADD14C,0.1270*%
%ADD15C,0.1524*%
%ADD16C,0.1500*%
%ADD17C,0.2540*%
%ADD18C,0.3000*%
D10*
X254960Y319570D02*
G03*
X254960Y319570I-1000J0D01*
G01*
X143200D02*
G03*
X143200Y319570I-1000J0D01*
G01*
X453390Y698500D02*
X471170D01*
X453390Y269240D02*
X471170D01*
X12700D02*
X30480D01*
X12700Y697230D02*
X30480D01*
X462280Y269240D02*
Y462280D01*
Y516890D02*
Y698500D01*
X21590Y515620D02*
Y697230D01*
Y269240D02*
Y463550D01*
X298760Y175840D02*
X305760D01*
X298760Y160840D02*
X305760D01*
X185730Y175840D02*
X192730D01*
X185730Y160840D02*
X192730D01*
X170860Y292530D02*
Y314530D01*
X192437Y292477D02*
Y314477D01*
X145460Y292530D02*
Y314530D01*
X167037Y292477D02*
Y314477D01*
X206170Y365170D02*
X228170D01*
X206223Y386747D02*
X228223D01*
X206170Y339770D02*
X228170D01*
X206223Y361347D02*
X228223D01*
X268650Y289990D02*
Y311990D01*
X290227Y289937D02*
Y311937D01*
X241980Y289990D02*
Y311990D01*
X263557Y289937D02*
Y311937D01*
X316660Y365170D02*
X338660D01*
X316713Y386747D02*
X338713D01*
X316660Y339770D02*
X338660D01*
X316713Y361347D02*
X338713D01*
X287450Y446450D02*
Y475700D01*
Y502200D02*
Y531450D01*
X277450Y436450D02*
X287450Y446450D01*
X277450Y541450D02*
X287450Y531450D01*
X182450Y436450D02*
X277450D01*
X182450Y541450D02*
X277450D01*
X182450Y502200D02*
Y541450D01*
Y436450D02*
Y475700D01*
D11*
X379730Y57655D02*
G03*
X379730Y57655I-3810J0D01*
G01*
X110490Y459385D02*
G03*
X110490Y459385I-3810J0D01*
G01*
Y231645D02*
G03*
X110490Y231645I-3810J0D01*
G01*
X379730Y513585D02*
G03*
X379730Y513585I-3810J0D01*
G01*
Y288495D02*
G03*
X379730Y288495I-3810J0D01*
G01*
X159255Y105410D02*
G03*
X159255Y105410I-3810J0D01*
G01*
X110490Y687425D02*
G03*
X110490Y687425I-3810J0D01*
G01*
D12*
X244570Y551190D02*
G03*
X244570Y551190I-2000J0D01*
G01*
X277760Y160840D02*
Y175840D01*
X164730Y160840D02*
Y175840D01*
D13*
X165200Y488950D02*
G03*
X165200Y488950I-1250J0D01*
G01*
D14*
X244335Y352045D02*
X309385D01*
Y387095D01*
X244335D02*
X309385D01*
X244335Y352045D02*
Y387095D01*
X197570Y564190D02*
X217070D01*
X197570Y626690D02*
Y708190D01*
X269070Y564190D02*
X287570D01*
X197570D02*
Y575690D01*
X287570Y564190D02*
Y708190D01*
X197570D02*
X287570D01*
X132575Y352045D02*
X197625D01*
Y387095D01*
X132575D02*
X197625D01*
X132575Y352045D02*
Y387095D01*
D15*
X443972Y37335D02*
Y251965D01*
X364470D02*
X443972D01*
X364470Y37335D02*
Y251965D01*
Y37335D02*
X443972D01*
X38628Y265075D02*
Y479705D01*
Y265075D02*
X118130D01*
Y479705D01*
X38628D02*
X118130D01*
X38628Y251965D02*
X118130D01*
Y37335D02*
Y251965D01*
X38628Y37335D02*
X118130D01*
X38628D02*
Y251965D01*
X364470Y493265D02*
X443972D01*
X364470D02*
Y707895D01*
X443972D01*
Y493265D02*
Y707895D01*
Y268175D02*
Y482805D01*
X364470D02*
X443972D01*
X364470Y268175D02*
Y482805D01*
Y268175D02*
X443972D01*
X135125Y37358D02*
Y116860D01*
X349755D01*
Y37358D02*
Y116860D01*
X135125Y37358D02*
X349755D01*
X38628Y707745D02*
X118130D01*
Y493115D02*
Y707745D01*
X38628Y493115D02*
X118130D01*
X38628D02*
Y707745D01*
D16*
X207100Y285420D02*
Y301320D01*
X224700Y285420D02*
Y301320D01*
X320130Y284150D02*
Y300050D01*
X337730Y284150D02*
Y300050D01*
D17*
X194310Y716280D02*
Y731515D01*
X199388Y726437D01*
X204467Y731515D01*
Y716280D01*
X209545D02*
Y726437D01*
X214623Y731515D01*
X219702Y726437D01*
Y716280D01*
Y723897D01*
X209545D01*
X224780Y731515D02*
X234937Y716280D01*
Y731515D02*
X224780Y716280D01*
X255250D02*
X260329D01*
X257789D01*
Y731515D01*
X255250Y728976D01*
X278103Y731515D02*
X267946D01*
Y723897D01*
X273025Y726437D01*
X275564D01*
X278103Y723897D01*
Y718819D01*
X275564Y716280D01*
X270485D01*
X267946Y718819D01*
X283181Y731515D02*
Y721358D01*
X288260Y716280D01*
X293338Y721358D01*
Y731515D01*
X13975Y469810D02*
X24132D01*
X29210Y474888D01*
X24132Y479967D01*
X13975D01*
X29210Y485045D02*
Y490123D01*
Y487584D01*
X19053D01*
Y485045D01*
X29210Y497741D02*
X19053D01*
Y505359D01*
X21593Y507898D01*
X29210D01*
X457204Y469810D02*
X454665Y472349D01*
Y477427D01*
X457204Y479967D01*
X459743D01*
X462282Y477427D01*
Y474888D01*
Y477427D01*
X464822Y479967D01*
X467361D01*
X469900Y477427D01*
Y472349D01*
X467361Y469810D01*
X454665Y485045D02*
X464822D01*
X469900Y490123D01*
X464822Y495202D01*
X454665D01*
X457204Y500280D02*
X454665Y502819D01*
Y507898D01*
X457204Y510437D01*
X459743D01*
X462282Y507898D01*
Y505359D01*
Y507898D01*
X464822Y510437D01*
X467361D01*
X469900Y507898D01*
Y502819D01*
X467361Y500280D01*
X176527Y196845D02*
X166370D01*
Y189228D01*
X171448Y191767D01*
X173988D01*
X176527Y189228D01*
Y184149D01*
X173988Y181610D01*
X168909D01*
X166370Y184149D01*
X181605Y196845D02*
Y186688D01*
X186683Y181610D01*
X191762Y186688D01*
Y196845D01*
X196840Y194306D02*
X199379Y196845D01*
X204458D01*
X206997Y194306D01*
Y184149D01*
X204458Y181610D01*
X199379D01*
X196840Y184149D01*
Y194306D01*
X280670D02*
X283209Y196845D01*
X288288D01*
X290827Y194306D01*
Y191767D01*
X288288Y189228D01*
X285748D01*
X288288D01*
X290827Y186688D01*
Y184149D01*
X288288Y181610D01*
X283209D01*
X280670Y184149D01*
X295905Y196845D02*
Y186688D01*
X300983Y181610D01*
X306062Y186688D01*
Y196845D01*
X311140Y194306D02*
X313679Y196845D01*
X318758D01*
X321297Y194306D01*
Y191767D01*
X318758Y189228D01*
X316218D01*
X318758D01*
X321297Y186688D01*
Y184149D01*
X318758Y181610D01*
X313679D01*
X311140Y184149D01*
X302263Y618488D02*
X299724Y621027D01*
X294645D01*
X292106Y618488D01*
Y608332D01*
X294645Y605793D01*
X299724D01*
X302263Y608332D01*
X307341Y605793D02*
X312420D01*
X309880D01*
Y621027D01*
X307341Y618488D01*
X320037D02*
X322576Y621027D01*
X327655D01*
X330194Y618488D01*
Y608332D01*
X327655Y605793D01*
X322576D01*
X320037Y608332D01*
Y618488D01*
X139701Y494028D02*
X137162Y496567D01*
X132083D01*
X129544Y494028D01*
Y483872D01*
X132083Y481333D01*
X137162D01*
X139701Y483872D01*
X144779D02*
X147318Y481333D01*
X152397D01*
X154936Y483872D01*
Y494028D01*
X152397Y496567D01*
X147318D01*
X144779Y494028D01*
Y491489D01*
X147318Y488950D01*
X154936D01*
X204474Y252733D02*
Y267967D01*
X212092D01*
X214631Y265428D01*
Y260350D01*
X212092Y257811D01*
X204474D01*
X209552D02*
X214631Y252733D01*
X229866D02*
X219709D01*
X229866Y262889D01*
Y265428D01*
X227327Y267967D01*
X222248D01*
X219709Y265428D01*
X320043Y247652D02*
Y262887D01*
X327661D01*
X330200Y260348D01*
Y255270D01*
X327661Y252731D01*
X320043D01*
X325122D02*
X330200Y247652D01*
X335278D02*
X340357D01*
X337818D01*
Y262887D01*
X335278Y260348D01*
X187958Y274319D02*
X190497Y276858D01*
Y281937D01*
X187958Y284476D01*
X177802D01*
X175263Y281937D01*
Y276858D01*
X177802Y274319D01*
X187958Y269241D02*
X190497Y266702D01*
Y261623D01*
X187958Y259084D01*
X185419D01*
X182880Y261623D01*
X180341Y259084D01*
X177802D01*
X175263Y261623D01*
Y266702D01*
X177802Y269241D01*
X180341D01*
X182880Y266702D01*
X185419Y269241D01*
X187958D01*
X182880Y266702D02*
Y261623D01*
X161288Y275589D02*
X163827Y278128D01*
Y283207D01*
X161288Y285746D01*
X151132D01*
X148593Y283207D01*
Y278128D01*
X151132Y275589D01*
X163827Y270511D02*
Y260354D01*
X161288D01*
X151132Y270511D01*
X148593D01*
X214631Y403858D02*
X212092Y406398D01*
X207013D01*
X204474Y403858D01*
Y393702D01*
X207013Y391162D01*
X212092D01*
X214631Y393702D01*
X229866Y406398D02*
X224788Y403858D01*
X219709Y398780D01*
Y393702D01*
X222248Y391162D01*
X227327D01*
X229866Y393702D01*
Y396241D01*
X227327Y398780D01*
X219709D01*
X214631Y332738D02*
X212092Y335277D01*
X207013D01*
X204474Y332738D01*
Y322582D01*
X207013Y320042D01*
X212092D01*
X214631Y322582D01*
X229866Y335277D02*
X219709D01*
Y327660D01*
X224788Y330199D01*
X227327D01*
X229866Y327660D01*
Y322582D01*
X227327Y320042D01*
X222248D01*
X219709Y322582D01*
X257808Y271899D02*
X260347Y274438D01*
Y279517D01*
X257808Y282056D01*
X247652D01*
X245112Y279517D01*
Y274438D01*
X247652Y271899D01*
X245112Y259203D02*
X260347D01*
X252730Y266821D01*
Y256664D01*
X284478Y271899D02*
X287017Y274438D01*
Y279517D01*
X284478Y282056D01*
X274322D01*
X271782Y279517D01*
Y274438D01*
X274322Y271899D01*
X284478Y266821D02*
X287017Y264282D01*
Y259203D01*
X284478Y256664D01*
X281939D01*
X279400Y259203D01*
Y261742D01*
Y259203D01*
X276861Y256664D01*
X274322D01*
X271782Y259203D01*
Y264282D01*
X274322Y266821D01*
X326391Y403858D02*
X323852Y406398D01*
X318773D01*
X316234Y403858D01*
Y393702D01*
X318773Y391162D01*
X323852D01*
X326391Y393702D01*
X341626Y391162D02*
X331469D01*
X341626Y401319D01*
Y403858D01*
X339087Y406398D01*
X334008D01*
X331469Y403858D01*
X153674Y430527D02*
Y417832D01*
X156213Y415293D01*
X161292D01*
X163831Y417832D01*
Y430527D01*
X179066Y415293D02*
X168909D01*
X179066Y425449D01*
Y427988D01*
X176527Y430527D01*
X171448D01*
X168909Y427988D01*
X327660Y332738D02*
X325121Y335277D01*
X320042D01*
X317503Y332738D01*
Y322582D01*
X320042Y320042D01*
X325121D01*
X327660Y322582D01*
X332738Y320042D02*
X337817D01*
X335278D01*
Y335277D01*
X332738Y332738D01*
X267973Y430527D02*
Y417832D01*
X270513Y415293D01*
X275591D01*
X278130Y417832D01*
Y430527D01*
X283208Y415293D02*
X288287D01*
X285748D01*
Y430527D01*
X283208Y427988D01*
D18*
X455319Y138249D02*
X451986Y134917D01*
Y128252D01*
X455319Y124920D01*
X468648D01*
X471980Y128252D01*
Y134917D01*
X468648Y138249D01*
X461983D01*
Y131585D01*
X471980Y144914D02*
X451986D01*
X471980Y158243D01*
X451986D01*
Y164907D02*
X471980D01*
Y174904D01*
X468648Y178236D01*
X455319D01*
X451986Y174904D01*
Y164907D01*
X14629Y130629D02*
X11296Y127297D01*
Y120632D01*
X14629Y117300D01*
X27958D01*
X31290Y120632D01*
Y127297D01*
X27958Y130629D01*
X21293D01*
Y123965D01*
X31290Y137294D02*
X11296D01*
X31290Y150623D01*
X11296D01*
Y157287D02*
X31290D01*
Y167284D01*
X27958Y170616D01*
X14629D01*
X11296Y167284D01*
Y157287D01*
X228419Y30614D02*
X215090D01*
Y20617D01*
X221754Y23949D01*
X225087D01*
X228419Y20617D01*
Y13952D01*
X225087Y10620D01*
X218422D01*
X215090Y13952D01*
X235084Y30614D02*
Y17284D01*
X241748Y10620D01*
X248413Y17284D01*
Y30614D01*
X255077Y27281D02*
X258409Y30614D01*
X265074D01*
X268406Y27281D01*
Y13952D01*
X265074Y10620D01*
X258409D01*
X255077Y13952D01*
Y27281D01*
M02*
