G04*
G04 #@! TF.GenerationSoftware,Altium Limited,Altium Designer,25.8.1 (18)*
G04*
G04 Layer_Color=8421504*
%FSLAX44Y44*%
%MOMM*%
G71*
G04*
G04 #@! TF.SameCoordinates,5923BA5B-ABCF-4B3D-8C2E-468CF12D829E*
G04*
G04*
G04 #@! TF.FilePolarity,Positive*
G04*
G01*
G75*
G04:AMPARAMS|DCode=19|XSize=1.31mm|YSize=3.24mm|CornerRadius=0.0983mm|HoleSize=0mm|Usage=FLASHONLY|Rotation=90.000|XOffset=0mm|YOffset=0mm|HoleType=Round|Shape=RoundedRectangle|*
%AMROUNDEDRECTD19*
21,1,1.3100,3.0435,0,0,90.0*
21,1,1.1135,3.2400,0,0,90.0*
1,1,0.1965,1.5218,0.5568*
1,1,0.1965,1.5218,-0.5568*
1,1,0.1965,-1.5218,-0.5568*
1,1,0.1965,-1.5218,0.5568*
%
%ADD19ROUNDEDRECTD19*%
G04:AMPARAMS|DCode=20|XSize=1.31mm|YSize=0.93mm|CornerRadius=0.0698mm|HoleSize=0mm|Usage=FLASHONLY|Rotation=90.000|XOffset=0mm|YOffset=0mm|HoleType=Round|Shape=RoundedRectangle|*
%AMROUNDEDRECTD20*
21,1,1.3100,0.7905,0,0,90.0*
21,1,1.1705,0.9300,0,0,90.0*
1,1,0.1395,0.3953,0.5853*
1,1,0.1395,0.3953,-0.5853*
1,1,0.1395,-0.3953,-0.5853*
1,1,0.1395,-0.3953,0.5853*
%
%ADD20ROUNDEDRECTD20*%
%ADD21R,1.2000X1.5000*%
G04:AMPARAMS|DCode=22|XSize=1.04mm|YSize=1.77mm|CornerRadius=0.1mm|HoleSize=0mm|Usage=FLASHONLY|Rotation=270.000|XOffset=0mm|YOffset=0mm|HoleType=Round|Shape=RoundedRectangle|*
%AMROUNDEDRECTD22*
21,1,1.0400,1.5700,0,0,270.0*
21,1,0.8400,1.7700,0,0,270.0*
1,1,0.2000,-0.7850,-0.4200*
1,1,0.2000,-0.7850,0.4200*
1,1,0.2000,0.7850,0.4200*
1,1,0.2000,0.7850,-0.4200*
%
%ADD22ROUNDEDRECTD22*%
%ADD23R,1.3500X0.9500*%
%ADD24R,0.9500X1.3500*%
%ADD25R,1.5000X1.3000*%
%ADD26R,4.4000X1.9000*%
D19*
X276860Y403020D02*
D03*
X165100D02*
D03*
D20*
X299760Y336120D02*
D03*
X276860D02*
D03*
X253960D02*
D03*
X188000D02*
D03*
X165100D02*
D03*
X142200D02*
D03*
D21*
X288760Y168340D02*
D03*
X315760D02*
D03*
X175730D02*
D03*
X202730D02*
D03*
D22*
X328930Y276700D02*
D03*
X215900Y277970D02*
D03*
Y308770D02*
D03*
X328930Y307500D02*
D03*
D23*
X181610Y296030D02*
D03*
Y311030D02*
D03*
X156210Y296030D02*
D03*
Y311030D02*
D03*
X279400Y293490D02*
D03*
Y308490D02*
D03*
X252730Y293490D02*
D03*
Y308490D02*
D03*
D24*
X224670Y375920D02*
D03*
X209670D02*
D03*
X224670Y350520D02*
D03*
X209670D02*
D03*
X335160Y375920D02*
D03*
X320160D02*
D03*
X335160Y350520D02*
D03*
X320160D02*
D03*
D25*
X307340Y572160D02*
D03*
Y591160D02*
D03*
D26*
X278450Y488950D02*
D03*
X191450D02*
D03*
M02*
