G04*
G04 #@! TF.GenerationSoftware,Altium Limited,Altium Designer,25.8.1 (18)*
G04*
G04 Layer_Physical_Order=2*
G04 Layer_Color=16711680*
%FSLAX44Y44*%
%MOMM*%
G71*
G04*
G04 #@! TF.SameCoordinates,5923BA5B-ABCF-4B3D-8C2E-468CF12D829E*
G04*
G04*
G04 #@! TF.FilePolarity,Positive*
G04*
G01*
G75*
%ADD32C,1.7018*%
%ADD38O,2.2500X4.5000*%
%ADD39O,4.5000X2.2500*%
%ADD40O,5.0000X2.5000*%
%ADD41C,0.6000*%
%ADD42C,3.0000*%
G36*
X20320Y740401D02*
X458951D01*
X461946Y740106D01*
X465289Y739092D01*
X468369Y737446D01*
X471069Y735229D01*
X473285Y732529D01*
X474932Y729449D01*
X475946Y726106D01*
X476286Y722656D01*
X476281Y722630D01*
X476241Y22299D01*
X475905Y18887D01*
X474746Y15066D01*
X472864Y11545D01*
X470331Y8459D01*
X467245Y5926D01*
X463724Y4044D01*
X459903Y2885D01*
X455998Y2500D01*
X455930Y2514D01*
X22860Y2549D01*
X21590Y2549D01*
X20364Y2656D01*
X17873Y2901D01*
X14298Y3986D01*
X11004Y5746D01*
X8116Y8116D01*
X5746Y11004D01*
X3986Y14298D01*
X2901Y17873D01*
X2540Y21544D01*
X2549Y21590D01*
Y722630D01*
X2544Y722655D01*
X2883Y726098D01*
X3895Y729434D01*
X5538Y732507D01*
X7749Y735201D01*
X10443Y737412D01*
X13516Y739055D01*
X16852Y740067D01*
X20294Y740406D01*
X20320Y740401D01*
D02*
G37*
%LPC*%
G36*
X416560Y728100D02*
Y723900D01*
X420760D01*
X419987Y725768D01*
X418428Y727327D01*
X416560Y728100D01*
D02*
G37*
G36*
X414020D02*
X412152Y727327D01*
X410593Y725768D01*
X409820Y723900D01*
X414020D01*
Y728100D01*
D02*
G37*
G36*
X378460D02*
Y723900D01*
X382660D01*
X381887Y725768D01*
X380328Y727327D01*
X378460Y728100D01*
D02*
G37*
G36*
X375920D02*
X374052Y727327D01*
X372493Y725768D01*
X371720Y723900D01*
X375920D01*
Y728100D01*
D02*
G37*
G36*
X330200D02*
Y723900D01*
X334400D01*
X333627Y725768D01*
X332068Y727327D01*
X330200Y728100D01*
D02*
G37*
G36*
X327660D02*
X325792Y727327D01*
X324233Y725768D01*
X323460Y723900D01*
X327660D01*
Y728100D01*
D02*
G37*
G36*
X138430D02*
Y723900D01*
X142630D01*
X141857Y725768D01*
X140298Y727327D01*
X138430Y728100D01*
D02*
G37*
G36*
X135890D02*
X134022Y727327D01*
X132463Y725768D01*
X131690Y723900D01*
X135890D01*
Y728100D01*
D02*
G37*
G36*
X86360D02*
Y723900D01*
X90560D01*
X89787Y725768D01*
X88228Y727327D01*
X86360Y728100D01*
D02*
G37*
G36*
X83820D02*
X81952Y727327D01*
X80393Y725768D01*
X79620Y723900D01*
X83820D01*
Y728100D01*
D02*
G37*
G36*
X24588Y738870D02*
X24130D01*
Y722600D01*
X40400D01*
Y723057D01*
X39726Y726446D01*
X38404Y729638D01*
X36484Y732511D01*
X34041Y734954D01*
X31168Y736874D01*
X27976Y738196D01*
X24588Y738870D01*
D02*
G37*
G36*
X21590D02*
X21133D01*
X17744Y738196D01*
X14552Y736874D01*
X11679Y734954D01*
X9236Y732511D01*
X7316Y729638D01*
X5994Y726446D01*
X5320Y723057D01*
Y722600D01*
X21590D01*
Y738870D01*
D02*
G37*
G36*
X458327Y738868D02*
X457870D01*
Y722598D01*
X474140D01*
Y723056D01*
X473466Y726444D01*
X472144Y729637D01*
X470224Y732509D01*
X467781Y734952D01*
X464908Y736872D01*
X461716Y738194D01*
X458327Y738868D01*
D02*
G37*
G36*
X455330D02*
X454873D01*
X451484Y738194D01*
X448292Y736872D01*
X445419Y734952D01*
X442976Y732509D01*
X441056Y729637D01*
X439734Y726444D01*
X439060Y723056D01*
Y722598D01*
X455330D01*
Y738868D01*
D02*
G37*
G36*
X420760Y721360D02*
X416560D01*
Y717160D01*
X418428Y717933D01*
X419987Y719492D01*
X420760Y721360D01*
D02*
G37*
G36*
X414020D02*
X409820D01*
X410593Y719492D01*
X412152Y717933D01*
X414020Y717160D01*
Y721360D01*
D02*
G37*
G36*
X382660D02*
X378460D01*
Y717160D01*
X380328Y717933D01*
X381887Y719492D01*
X382660Y721360D01*
D02*
G37*
G36*
X375920D02*
X371720D01*
X372493Y719492D01*
X374052Y717933D01*
X375920Y717160D01*
Y721360D01*
D02*
G37*
G36*
X334400D02*
X330200D01*
Y717160D01*
X332068Y717933D01*
X333627Y719492D01*
X334400Y721360D01*
D02*
G37*
G36*
X327660D02*
X323460D01*
X324233Y719492D01*
X325792Y717933D01*
X327660Y717160D01*
Y721360D01*
D02*
G37*
G36*
X142630D02*
X138430D01*
Y717160D01*
X140298Y717933D01*
X141857Y719492D01*
X142630Y721360D01*
D02*
G37*
G36*
X135890D02*
X131690D01*
X132463Y719492D01*
X134022Y717933D01*
X135890Y717160D01*
Y721360D01*
D02*
G37*
G36*
X90560D02*
X86360D01*
Y717160D01*
X88228Y717933D01*
X89787Y719492D01*
X90560Y721360D01*
D02*
G37*
G36*
X83820D02*
X79620D01*
X80393Y719492D01*
X81952Y717933D01*
X83820Y717160D01*
Y721360D01*
D02*
G37*
G36*
X40400Y720060D02*
X24130D01*
Y703790D01*
X24588D01*
X27976Y704464D01*
X31168Y705786D01*
X34041Y707706D01*
X36484Y710149D01*
X38404Y713022D01*
X39726Y716214D01*
X40400Y719603D01*
Y720060D01*
D02*
G37*
G36*
X21590D02*
X5320D01*
Y719603D01*
X5994Y716214D01*
X7316Y713022D01*
X9236Y710149D01*
X11679Y707706D01*
X14552Y705786D01*
X17744Y704464D01*
X21133Y703790D01*
X21590D01*
Y720060D01*
D02*
G37*
G36*
X474140Y720058D02*
X457870D01*
Y703788D01*
X458327D01*
X461716Y704462D01*
X464908Y705785D01*
X467781Y707704D01*
X470224Y710147D01*
X472144Y713020D01*
X473466Y716212D01*
X474140Y719601D01*
Y720058D01*
D02*
G37*
G36*
X455330D02*
X439060D01*
Y719601D01*
X439734Y716212D01*
X441056Y713020D01*
X442976Y710147D01*
X445419Y707704D01*
X448292Y705785D01*
X451484Y704462D01*
X454873Y703788D01*
X455330D01*
Y720058D01*
D02*
G37*
G36*
X280670Y706510D02*
Y702310D01*
X284870D01*
X284097Y704178D01*
X282538Y705737D01*
X280670Y706510D01*
D02*
G37*
G36*
X278130D02*
X276262Y705737D01*
X274703Y704178D01*
X273930Y702310D01*
X278130D01*
Y706510D01*
D02*
G37*
G36*
X207010D02*
Y702310D01*
X211210D01*
X210437Y704178D01*
X208878Y705737D01*
X207010Y706510D01*
D02*
G37*
G36*
X204470D02*
X202602Y705737D01*
X201043Y704178D01*
X200270Y702310D01*
X204470D01*
Y706510D01*
D02*
G37*
G36*
X284870Y699770D02*
X280670D01*
Y695570D01*
X282538Y696343D01*
X284097Y697902D01*
X284870Y699770D01*
D02*
G37*
G36*
X278130D02*
X273930D01*
X274703Y697902D01*
X276262Y696343D01*
X278130Y695570D01*
Y699770D01*
D02*
G37*
G36*
X211210D02*
X207010D01*
Y695570D01*
X208878Y696343D01*
X210437Y697902D01*
X211210Y699770D01*
D02*
G37*
G36*
X204470D02*
X200270D01*
X201043Y697902D01*
X202602Y696343D01*
X204470Y695570D01*
Y699770D01*
D02*
G37*
G36*
X332740Y698890D02*
Y694690D01*
X336940D01*
X336167Y696558D01*
X334608Y698117D01*
X332740Y698890D01*
D02*
G37*
G36*
X330200D02*
X328332Y698117D01*
X326773Y696558D01*
X326000Y694690D01*
X330200D01*
Y698890D01*
D02*
G37*
G36*
X156210Y695080D02*
Y690880D01*
X160410D01*
X159637Y692748D01*
X158078Y694307D01*
X156210Y695080D01*
D02*
G37*
G36*
X153670D02*
X151802Y694307D01*
X150243Y692748D01*
X149470Y690880D01*
X153670D01*
Y695080D01*
D02*
G37*
G36*
X207010Y693810D02*
Y689610D01*
X211210D01*
X210437Y691478D01*
X208878Y693037D01*
X207010Y693810D01*
D02*
G37*
G36*
X204470D02*
X202602Y693037D01*
X201043Y691478D01*
X200270Y689610D01*
X204470D01*
Y693810D01*
D02*
G37*
G36*
X280670Y692540D02*
Y688340D01*
X284870D01*
X284097Y690208D01*
X282538Y691767D01*
X280670Y692540D01*
D02*
G37*
G36*
X278130D02*
X276262Y691767D01*
X274703Y690208D01*
X273930Y688340D01*
X278130D01*
Y692540D01*
D02*
G37*
G36*
X336940Y692150D02*
X332740D01*
Y687950D01*
X334608Y688723D01*
X336167Y690282D01*
X336940Y692150D01*
D02*
G37*
G36*
X330200D02*
X326000D01*
X326773Y690282D01*
X328332Y688723D01*
X330200Y687950D01*
Y692150D01*
D02*
G37*
G36*
X160410Y688340D02*
X156210D01*
Y684140D01*
X158078Y684913D01*
X159637Y686472D01*
X160410Y688340D01*
D02*
G37*
G36*
X153670D02*
X149470D01*
X150243Y686472D01*
X151802Y684913D01*
X153670Y684140D01*
Y688340D01*
D02*
G37*
G36*
X211210Y687070D02*
X207010D01*
Y682870D01*
X208878Y683643D01*
X210437Y685202D01*
X211210Y687070D01*
D02*
G37*
G36*
X204470D02*
X200270D01*
X201043Y685202D01*
X202602Y683643D01*
X204470Y682870D01*
Y687070D01*
D02*
G37*
G36*
X284870Y685800D02*
X280670D01*
Y681600D01*
X282538Y682373D01*
X284097Y683932D01*
X284870Y685800D01*
D02*
G37*
G36*
X278130D02*
X273930D01*
X274703Y683932D01*
X276262Y682373D01*
X278130Y681600D01*
Y685800D01*
D02*
G37*
G36*
X397558Y698089D02*
X394922D01*
X392377Y697407D01*
X390094Y696089D01*
X388231Y694226D01*
X386913Y691943D01*
X386231Y689398D01*
Y686762D01*
X386913Y684217D01*
X388231Y681934D01*
X390094Y680071D01*
X392377Y678753D01*
X394922Y678071D01*
X397558D01*
X400103Y678753D01*
X402386Y680071D01*
X404249Y681934D01*
X405567Y684217D01*
X406249Y686762D01*
Y689398D01*
X405567Y691943D01*
X404249Y694226D01*
X402386Y696089D01*
X400103Y697407D01*
X397558Y698089D01*
D02*
G37*
G36*
X87678Y697939D02*
X85042D01*
X82497Y697257D01*
X80214Y695939D01*
X78351Y694076D01*
X77033Y691793D01*
X76351Y689248D01*
Y686612D01*
X77033Y684067D01*
X78351Y681784D01*
X80214Y679921D01*
X82497Y678603D01*
X85042Y677921D01*
X87678D01*
X90223Y678603D01*
X92506Y679921D01*
X94369Y681784D01*
X95687Y684067D01*
X96369Y686612D01*
Y689248D01*
X95687Y691793D01*
X94369Y694076D01*
X92506Y695939D01*
X90223Y697257D01*
X87678Y697939D01*
D02*
G37*
G36*
X280670Y679840D02*
Y675640D01*
X284870D01*
X284097Y677508D01*
X282538Y679067D01*
X280670Y679840D01*
D02*
G37*
G36*
X278130D02*
X276262Y679067D01*
X274703Y677508D01*
X273930Y675640D01*
X278130D01*
Y679840D01*
D02*
G37*
G36*
X264160D02*
Y675640D01*
X268360D01*
X267587Y677508D01*
X266028Y679067D01*
X264160Y679840D01*
D02*
G37*
G36*
X261620D02*
X259752Y679067D01*
X258193Y677508D01*
X257420Y675640D01*
X261620D01*
Y679840D01*
D02*
G37*
G36*
X243840D02*
Y675640D01*
X248040D01*
X247267Y677508D01*
X245708Y679067D01*
X243840Y679840D01*
D02*
G37*
G36*
X241300D02*
X239432Y679067D01*
X237873Y677508D01*
X237100Y675640D01*
X241300D01*
Y679840D01*
D02*
G37*
G36*
X223520D02*
Y675640D01*
X227720D01*
X226947Y677508D01*
X225388Y679067D01*
X223520Y679840D01*
D02*
G37*
G36*
X220980D02*
X219112Y679067D01*
X217553Y677508D01*
X216780Y675640D01*
X220980D01*
Y679840D01*
D02*
G37*
G36*
X207010D02*
Y675640D01*
X211210D01*
X210437Y677508D01*
X208878Y679067D01*
X207010Y679840D01*
D02*
G37*
G36*
X204470D02*
X202602Y679067D01*
X201043Y677508D01*
X200270Y675640D01*
X204470D01*
Y679840D01*
D02*
G37*
G36*
X52070Y676030D02*
Y671830D01*
X56270D01*
X55497Y673698D01*
X53938Y675257D01*
X52070Y676030D01*
D02*
G37*
G36*
X49530D02*
X47662Y675257D01*
X46103Y673698D01*
X45330Y671830D01*
X49530D01*
Y676030D01*
D02*
G37*
G36*
X439387Y674857D02*
Y670656D01*
X443587D01*
X442814Y672524D01*
X441255Y674083D01*
X439387Y674857D01*
D02*
G37*
G36*
X436847D02*
X434979Y674083D01*
X433420Y672524D01*
X432647Y670656D01*
X436847D01*
Y674857D01*
D02*
G37*
G36*
X284870Y673100D02*
X280670D01*
Y668900D01*
X282538Y669673D01*
X284097Y671232D01*
X284870Y673100D01*
D02*
G37*
G36*
X278130D02*
X273930D01*
X274703Y671232D01*
X276262Y669673D01*
X278130Y668900D01*
Y673100D01*
D02*
G37*
G36*
X268360D02*
X264160D01*
Y668900D01*
X266028Y669673D01*
X267587Y671232D01*
X268360Y673100D01*
D02*
G37*
G36*
X261620D02*
X257420D01*
X258193Y671232D01*
X259752Y669673D01*
X261620Y668900D01*
Y673100D01*
D02*
G37*
G36*
X248040D02*
X243840D01*
Y668900D01*
X245708Y669673D01*
X247267Y671232D01*
X248040Y673100D01*
D02*
G37*
G36*
X241300D02*
X237100D01*
X237873Y671232D01*
X239432Y669673D01*
X241300Y668900D01*
Y673100D01*
D02*
G37*
G36*
X227720D02*
X223520D01*
Y668900D01*
X225388Y669673D01*
X226947Y671232D01*
X227720Y673100D01*
D02*
G37*
G36*
X220980D02*
X216780D01*
X217553Y671232D01*
X219112Y669673D01*
X220980Y668900D01*
Y673100D01*
D02*
G37*
G36*
X211210D02*
X207010D01*
Y668900D01*
X208878Y669673D01*
X210437Y671232D01*
X211210Y673100D01*
D02*
G37*
G36*
X204470D02*
X200270D01*
X201043Y671232D01*
X202602Y669673D01*
X204470Y668900D01*
Y673100D01*
D02*
G37*
G36*
X332740Y672220D02*
Y668020D01*
X336940D01*
X336167Y669888D01*
X334608Y671447D01*
X332740Y672220D01*
D02*
G37*
G36*
X330200D02*
X328332Y671447D01*
X326773Y669888D01*
X326000Y668020D01*
X330200D01*
Y672220D01*
D02*
G37*
G36*
X56270Y669290D02*
X52070D01*
Y665090D01*
X53938Y665863D01*
X55497Y667422D01*
X56270Y669290D01*
D02*
G37*
G36*
X49530D02*
X45330D01*
X46103Y667422D01*
X47662Y665863D01*
X49530Y665090D01*
Y669290D01*
D02*
G37*
G36*
X443587Y668116D02*
X439387D01*
Y663916D01*
X441255Y664690D01*
X442814Y666248D01*
X443587Y668116D01*
D02*
G37*
G36*
X436847D02*
X432647D01*
X433420Y666248D01*
X434979Y664690D01*
X436847Y663916D01*
Y668116D01*
D02*
G37*
G36*
X156210Y667140D02*
Y662940D01*
X160410D01*
X159637Y664808D01*
X158078Y666367D01*
X156210Y667140D01*
D02*
G37*
G36*
X153670D02*
X151802Y666367D01*
X150243Y664808D01*
X149470Y662940D01*
X153670D01*
Y667140D01*
D02*
G37*
G36*
X336940Y665480D02*
X332740D01*
Y661280D01*
X334608Y662053D01*
X336167Y663612D01*
X336940Y665480D01*
D02*
G37*
G36*
X330200D02*
X326000D01*
X326773Y663612D01*
X328332Y662053D01*
X330200Y661280D01*
Y665480D01*
D02*
G37*
G36*
X223520Y664600D02*
Y660400D01*
X227720D01*
X226947Y662268D01*
X225388Y663827D01*
X223520Y664600D01*
D02*
G37*
G36*
X220980D02*
X219112Y663827D01*
X217553Y662268D01*
X216780Y660400D01*
X220980D01*
Y664600D01*
D02*
G37*
G36*
X207010D02*
Y660400D01*
X211210D01*
X210437Y662268D01*
X208878Y663827D01*
X207010Y664600D01*
D02*
G37*
G36*
X204470D02*
X202602Y663827D01*
X201043Y662268D01*
X200270Y660400D01*
X204470D01*
Y664600D01*
D02*
G37*
G36*
X243840Y663330D02*
Y659130D01*
X248040D01*
X247267Y660998D01*
X245708Y662557D01*
X243840Y663330D01*
D02*
G37*
G36*
X241300D02*
X239432Y662557D01*
X237873Y660998D01*
X237100Y659130D01*
X241300D01*
Y663330D01*
D02*
G37*
G36*
X264436Y662488D02*
Y658288D01*
X268637D01*
X267863Y660156D01*
X266305Y661714D01*
X264436Y662488D01*
D02*
G37*
G36*
X261896D02*
X260028Y661714D01*
X258470Y660156D01*
X257696Y658288D01*
X261896D01*
Y662488D01*
D02*
G37*
G36*
X280670Y662060D02*
Y657860D01*
X284870D01*
X284097Y659728D01*
X282538Y661287D01*
X280670Y662060D01*
D02*
G37*
G36*
X278130D02*
X276262Y661287D01*
X274703Y659728D01*
X273930Y657860D01*
X278130D01*
Y662060D01*
D02*
G37*
G36*
X160410Y660400D02*
X156210D01*
Y656200D01*
X158078Y656973D01*
X159637Y658532D01*
X160410Y660400D01*
D02*
G37*
G36*
X153670D02*
X149470D01*
X150243Y658532D01*
X151802Y656973D01*
X153670Y656200D01*
Y660400D01*
D02*
G37*
G36*
X227720Y657860D02*
X223520D01*
Y653660D01*
X225388Y654433D01*
X226947Y655992D01*
X227720Y657860D01*
D02*
G37*
G36*
X220980D02*
X216780D01*
X217553Y655992D01*
X219112Y654433D01*
X220980Y653660D01*
Y657860D01*
D02*
G37*
G36*
X211210D02*
X207010D01*
Y653660D01*
X208878Y654433D01*
X210437Y655992D01*
X211210Y657860D01*
D02*
G37*
G36*
X204470D02*
X200270D01*
X201043Y655992D01*
X202602Y654433D01*
X204470Y653660D01*
Y657860D01*
D02*
G37*
G36*
X248040Y656590D02*
X243840D01*
Y652390D01*
X245708Y653163D01*
X247267Y654722D01*
X248040Y656590D01*
D02*
G37*
G36*
X241300D02*
X237100D01*
X237873Y654722D01*
X239432Y653163D01*
X241300Y652390D01*
Y656590D01*
D02*
G37*
G36*
X268637Y655748D02*
X264436D01*
Y651547D01*
X266305Y652321D01*
X267863Y653879D01*
X268637Y655748D01*
D02*
G37*
G36*
X261896D02*
X257696D01*
X258470Y653879D01*
X260028Y652321D01*
X261896Y651547D01*
Y655748D01*
D02*
G37*
G36*
X284870Y655320D02*
X280670D01*
Y651120D01*
X282538Y651893D01*
X284097Y653452D01*
X284870Y655320D01*
D02*
G37*
G36*
X278130D02*
X273930D01*
X274703Y653452D01*
X276262Y651893D01*
X278130Y651120D01*
Y655320D01*
D02*
G37*
G36*
X332740Y648090D02*
Y643890D01*
X336940D01*
X336167Y645758D01*
X334608Y647317D01*
X332740Y648090D01*
D02*
G37*
G36*
X330200D02*
X328332Y647317D01*
X326773Y645758D01*
X326000Y643890D01*
X330200D01*
Y648090D01*
D02*
G37*
G36*
X207010D02*
Y643890D01*
X211210D01*
X210437Y645758D01*
X208878Y647317D01*
X207010Y648090D01*
D02*
G37*
G36*
X204470D02*
X202602Y647317D01*
X201043Y645758D01*
X200270Y643890D01*
X204470D01*
Y648090D01*
D02*
G37*
G36*
X397558Y663089D02*
X394922D01*
X392377Y662407D01*
X390094Y661089D01*
X388231Y659226D01*
X386913Y656943D01*
X386231Y654398D01*
Y651762D01*
X386913Y649217D01*
X388231Y646934D01*
X390094Y645071D01*
X392377Y643753D01*
X394922Y643071D01*
X397558D01*
X400103Y643753D01*
X402386Y645071D01*
X404249Y646934D01*
X405567Y649217D01*
X406249Y651762D01*
Y654398D01*
X405567Y656943D01*
X404249Y659226D01*
X402386Y661089D01*
X400103Y662407D01*
X397558Y663089D01*
D02*
G37*
G36*
X87678Y662939D02*
X85042D01*
X82497Y662257D01*
X80214Y660939D01*
X78351Y659076D01*
X77033Y656793D01*
X76351Y654248D01*
Y651612D01*
X77033Y649067D01*
X78351Y646784D01*
X80214Y644921D01*
X82497Y643603D01*
X85042Y642921D01*
X87678D01*
X90223Y643603D01*
X92506Y644921D01*
X94369Y646784D01*
X95687Y649067D01*
X96369Y651612D01*
Y654248D01*
X95687Y656793D01*
X94369Y659076D01*
X92506Y660939D01*
X90223Y662257D01*
X87678Y662939D01*
D02*
G37*
G36*
X280670Y646820D02*
Y642620D01*
X284870D01*
X284097Y644488D01*
X282538Y646047D01*
X280670Y646820D01*
D02*
G37*
G36*
X278130D02*
X276262Y646047D01*
X274703Y644488D01*
X273930Y642620D01*
X278130D01*
Y646820D01*
D02*
G37*
G36*
X336940Y641350D02*
X332740D01*
Y637150D01*
X334608Y637923D01*
X336167Y639482D01*
X336940Y641350D01*
D02*
G37*
G36*
X330200D02*
X326000D01*
X326773Y639482D01*
X328332Y637923D01*
X330200Y637150D01*
Y641350D01*
D02*
G37*
G36*
X211210D02*
X207010D01*
Y637150D01*
X208878Y637923D01*
X210437Y639482D01*
X211210Y641350D01*
D02*
G37*
G36*
X204470D02*
X200270D01*
X201043Y639482D01*
X202602Y637923D01*
X204470Y637150D01*
Y641350D01*
D02*
G37*
G36*
X156210Y640470D02*
Y636270D01*
X160410D01*
X159637Y638138D01*
X158078Y639697D01*
X156210Y640470D01*
D02*
G37*
G36*
X153670D02*
X151802Y639697D01*
X150243Y638138D01*
X149470Y636270D01*
X153670D01*
Y640470D01*
D02*
G37*
G36*
X52070D02*
Y636270D01*
X56270D01*
X55497Y638138D01*
X53938Y639697D01*
X52070Y640470D01*
D02*
G37*
G36*
X49530D02*
X47662Y639697D01*
X46103Y638138D01*
X45330Y636270D01*
X49530D01*
Y640470D01*
D02*
G37*
G36*
X284870Y640080D02*
X280670D01*
Y635880D01*
X282538Y636653D01*
X284097Y638212D01*
X284870Y640080D01*
D02*
G37*
G36*
X278130D02*
X273930D01*
X274703Y638212D01*
X276262Y636653D01*
X278130Y635880D01*
Y640080D01*
D02*
G37*
G36*
X439420Y639200D02*
Y635000D01*
X443620D01*
X442847Y636868D01*
X441288Y638427D01*
X439420Y639200D01*
D02*
G37*
G36*
X436880D02*
X435012Y638427D01*
X433453Y636868D01*
X432680Y635000D01*
X436880D01*
Y639200D01*
D02*
G37*
G36*
X253820Y645099D02*
X243840D01*
Y632460D01*
X267562D01*
X267255Y634790D01*
X265866Y638144D01*
X263655Y641025D01*
X260774Y643235D01*
X257420Y644625D01*
X253820Y645099D01*
D02*
G37*
G36*
X241300D02*
X231320D01*
X227720Y644625D01*
X224366Y643235D01*
X221485Y641025D01*
X219274Y638144D01*
X217885Y634790D01*
X217578Y632460D01*
X241300D01*
Y645099D01*
D02*
G37*
G36*
X160410Y633730D02*
X156210D01*
Y629530D01*
X158078Y630303D01*
X159637Y631862D01*
X160410Y633730D01*
D02*
G37*
G36*
X153670D02*
X149470D01*
X150243Y631862D01*
X151802Y630303D01*
X153670Y629530D01*
Y633730D01*
D02*
G37*
G36*
X56270D02*
X52070D01*
Y629530D01*
X53938Y630303D01*
X55497Y631862D01*
X56270Y633730D01*
D02*
G37*
G36*
X49530D02*
X45330D01*
X46103Y631862D01*
X47662Y630303D01*
X49530Y629530D01*
Y633730D01*
D02*
G37*
G36*
X443620Y632460D02*
X439420D01*
Y628260D01*
X441288Y629033D01*
X442847Y630592D01*
X443620Y632460D01*
D02*
G37*
G36*
X436880D02*
X432680D01*
X433453Y630592D01*
X435012Y629033D01*
X436880Y628260D01*
Y632460D01*
D02*
G37*
G36*
X267562Y629920D02*
X243840D01*
Y617281D01*
X253820D01*
X257420Y617755D01*
X260774Y619145D01*
X263655Y621355D01*
X265866Y624235D01*
X267255Y627590D01*
X267562Y629920D01*
D02*
G37*
G36*
X241300D02*
X217578D01*
X217885Y627590D01*
X219274Y624235D01*
X221485Y621355D01*
X224366Y619145D01*
X227720Y617755D01*
X231320Y617281D01*
X241300D01*
Y629920D01*
D02*
G37*
G36*
X156210Y615070D02*
Y610870D01*
X160410D01*
X159637Y612738D01*
X158078Y614297D01*
X156210Y615070D01*
D02*
G37*
G36*
X153670D02*
X151802Y614297D01*
X150243Y612738D01*
X149470Y610870D01*
X153670D01*
Y615070D01*
D02*
G37*
G36*
X262890Y612530D02*
Y608330D01*
X267090D01*
X266317Y610198D01*
X264758Y611757D01*
X262890Y612530D01*
D02*
G37*
G36*
X260350D02*
X258482Y611757D01*
X256923Y610198D01*
X256150Y608330D01*
X260350D01*
Y612530D01*
D02*
G37*
G36*
X243840D02*
Y608330D01*
X248040D01*
X247267Y610198D01*
X245708Y611757D01*
X243840Y612530D01*
D02*
G37*
G36*
X241300D02*
X239432Y611757D01*
X237873Y610198D01*
X237100Y608330D01*
X241300D01*
Y612530D01*
D02*
G37*
G36*
X223520D02*
Y608330D01*
X227720D01*
X226947Y610198D01*
X225388Y611757D01*
X223520Y612530D01*
D02*
G37*
G36*
X220980D02*
X219112Y611757D01*
X217553Y610198D01*
X216780Y608330D01*
X220980D01*
Y612530D01*
D02*
G37*
G36*
X397558Y628089D02*
X394922D01*
X392377Y627407D01*
X390094Y626089D01*
X388231Y624226D01*
X386913Y621943D01*
X386231Y619398D01*
Y616762D01*
X386913Y614217D01*
X388231Y611934D01*
X390094Y610071D01*
X392377Y608753D01*
X394922Y608071D01*
X397558D01*
X400103Y608753D01*
X402386Y610071D01*
X404249Y611934D01*
X405567Y614217D01*
X406249Y616762D01*
Y619398D01*
X405567Y621943D01*
X404249Y624226D01*
X402386Y626089D01*
X400103Y627407D01*
X397558Y628089D01*
D02*
G37*
G36*
X87678Y627939D02*
X85042D01*
X82497Y627257D01*
X80214Y625939D01*
X78351Y624076D01*
X77033Y621793D01*
X76351Y619248D01*
Y616612D01*
X77033Y614067D01*
X78351Y611784D01*
X80214Y609921D01*
X82497Y608603D01*
X85042Y607921D01*
X87678D01*
X90223Y608603D01*
X92506Y609921D01*
X94369Y611784D01*
X95687Y614067D01*
X96369Y616612D01*
Y619248D01*
X95687Y621793D01*
X94369Y624076D01*
X92506Y625939D01*
X90223Y627257D01*
X87678Y627939D01*
D02*
G37*
G36*
X160410Y608330D02*
X156210D01*
Y604130D01*
X158078Y604903D01*
X159637Y606462D01*
X160410Y608330D01*
D02*
G37*
G36*
X153670D02*
X149470D01*
X150243Y606462D01*
X151802Y604903D01*
X153670Y604130D01*
Y608330D01*
D02*
G37*
G36*
X52070Y606180D02*
Y601980D01*
X56270D01*
X55497Y603848D01*
X53938Y605407D01*
X52070Y606180D01*
D02*
G37*
G36*
X49530D02*
X47662Y605407D01*
X46103Y603848D01*
X45330Y601980D01*
X49530D01*
Y606180D01*
D02*
G37*
G36*
X267090Y605790D02*
X262890D01*
Y601590D01*
X264758Y602363D01*
X266317Y603922D01*
X267090Y605790D01*
D02*
G37*
G36*
X260350D02*
X256150D01*
X256923Y603922D01*
X258482Y602363D01*
X260350Y601590D01*
Y605790D01*
D02*
G37*
G36*
X248040D02*
X243840D01*
Y601590D01*
X245708Y602363D01*
X247267Y603922D01*
X248040Y605790D01*
D02*
G37*
G36*
X241300D02*
X237100D01*
X237873Y603922D01*
X239432Y602363D01*
X241300Y601590D01*
Y605790D01*
D02*
G37*
G36*
X227720D02*
X223520D01*
Y601590D01*
X225388Y602363D01*
X226947Y603922D01*
X227720Y605790D01*
D02*
G37*
G36*
X220980D02*
X216780D01*
X217553Y603922D01*
X219112Y602363D01*
X220980Y601590D01*
Y605790D01*
D02*
G37*
G36*
X440142Y603697D02*
Y599497D01*
X444343D01*
X443569Y601365D01*
X442010Y602924D01*
X440142Y603697D01*
D02*
G37*
G36*
X437602D02*
X435734Y602924D01*
X434176Y601365D01*
X433402Y599497D01*
X437602D01*
Y603697D01*
D02*
G37*
G36*
X56270Y599440D02*
X52070D01*
Y595240D01*
X53938Y596013D01*
X55497Y597572D01*
X56270Y599440D01*
D02*
G37*
G36*
X49530D02*
X45330D01*
X46103Y597572D01*
X47662Y596013D01*
X49530Y595240D01*
Y599440D01*
D02*
G37*
G36*
X349250Y597290D02*
Y593090D01*
X353450D01*
X352677Y594958D01*
X351118Y596517D01*
X349250Y597290D01*
D02*
G37*
G36*
X346710D02*
X344842Y596517D01*
X343283Y594958D01*
X342510Y593090D01*
X346710D01*
Y597290D01*
D02*
G37*
G36*
X444343Y596957D02*
X440142D01*
Y592757D01*
X442010Y593530D01*
X443569Y595089D01*
X444343Y596957D01*
D02*
G37*
G36*
X437602D02*
X433402D01*
X434176Y595089D01*
X435734Y593530D01*
X437602Y592757D01*
Y596957D01*
D02*
G37*
G36*
X353450Y590550D02*
X349250D01*
Y586350D01*
X351118Y587123D01*
X352677Y588682D01*
X353450Y590550D01*
D02*
G37*
G36*
X346710D02*
X342510D01*
X343283Y588682D01*
X344842Y587123D01*
X346710Y586350D01*
Y590550D01*
D02*
G37*
G36*
X195570Y625300D02*
X192242Y624862D01*
X189140Y623577D01*
X186477Y621533D01*
X184433Y618870D01*
X183148Y615768D01*
X182710Y612440D01*
Y589940D01*
X183148Y586612D01*
X184433Y583510D01*
X186477Y580847D01*
X189140Y578803D01*
X192242Y577518D01*
X195570Y577080D01*
X198898Y577518D01*
X202000Y578803D01*
X204663Y580847D01*
X206707Y583510D01*
X207992Y586612D01*
X208430Y589940D01*
Y612440D01*
X207992Y615768D01*
X206707Y618870D01*
X204663Y621533D01*
X202000Y623577D01*
X198898Y624862D01*
X195570Y625300D01*
D02*
G37*
G36*
X397558Y593089D02*
X394922D01*
X392377Y592407D01*
X390094Y591089D01*
X388231Y589226D01*
X386913Y586943D01*
X386231Y584398D01*
Y581762D01*
X386913Y579217D01*
X388231Y576934D01*
X390094Y575071D01*
X392377Y573753D01*
X394922Y573071D01*
X397558D01*
X400103Y573753D01*
X402386Y575071D01*
X404249Y576934D01*
X405567Y579217D01*
X406249Y581762D01*
Y584398D01*
X405567Y586943D01*
X404249Y589226D01*
X402386Y591089D01*
X400103Y592407D01*
X397558Y593089D01*
D02*
G37*
G36*
X87678Y592939D02*
X85042D01*
X82497Y592257D01*
X80214Y590939D01*
X78351Y589076D01*
X77033Y586793D01*
X76351Y584248D01*
Y581612D01*
X77033Y579067D01*
X78351Y576784D01*
X80214Y574921D01*
X82497Y573603D01*
X85042Y572921D01*
X87678D01*
X90223Y573603D01*
X92506Y574921D01*
X94369Y576784D01*
X95687Y579067D01*
X96369Y581612D01*
Y584248D01*
X95687Y586793D01*
X94369Y589076D01*
X92506Y590939D01*
X90223Y592257D01*
X87678Y592939D01*
D02*
G37*
G36*
X52070Y570620D02*
Y566420D01*
X56270D01*
X55497Y568288D01*
X53938Y569847D01*
X52070Y570620D01*
D02*
G37*
G36*
X49530D02*
X47662Y569847D01*
X46103Y568288D01*
X45330Y566420D01*
X49530D01*
Y570620D01*
D02*
G37*
G36*
X440690Y569350D02*
Y565150D01*
X444890D01*
X444117Y567018D01*
X442558Y568577D01*
X440690Y569350D01*
D02*
G37*
G36*
X438150D02*
X436282Y568577D01*
X434723Y567018D01*
X433950Y565150D01*
X438150D01*
Y569350D01*
D02*
G37*
G36*
X56270Y563880D02*
X52070D01*
Y559680D01*
X53938Y560453D01*
X55497Y562012D01*
X56270Y563880D01*
D02*
G37*
G36*
X49530D02*
X45330D01*
X46103Y562012D01*
X47662Y560453D01*
X49530Y559680D01*
Y563880D01*
D02*
G37*
G36*
X444890Y562610D02*
X440690D01*
Y558410D01*
X442558Y559183D01*
X444117Y560742D01*
X444890Y562610D01*
D02*
G37*
G36*
X438150D02*
X433950D01*
X434723Y560742D01*
X436282Y559183D01*
X438150Y558410D01*
Y562610D01*
D02*
G37*
G36*
X255070Y585311D02*
X230070D01*
X226415Y584830D01*
X223010Y583419D01*
X220085Y581175D01*
X217841Y578250D01*
X216430Y574845D01*
X215949Y571190D01*
X216430Y567535D01*
X217841Y564130D01*
X220085Y561205D01*
X223010Y558961D01*
X226415Y557550D01*
X230070Y557069D01*
X255070D01*
X258725Y557550D01*
X262130Y558961D01*
X265055Y561205D01*
X267299Y564130D01*
X268710Y567535D01*
X269191Y571190D01*
X268710Y574845D01*
X267299Y578250D01*
X265055Y581175D01*
X262130Y583419D01*
X258725Y584830D01*
X255070Y585311D01*
D02*
G37*
G36*
X349250Y559190D02*
Y554990D01*
X353450D01*
X352677Y556858D01*
X351118Y558417D01*
X349250Y559190D01*
D02*
G37*
G36*
X346710D02*
X344842Y558417D01*
X343283Y556858D01*
X342510Y554990D01*
X346710D01*
Y559190D01*
D02*
G37*
G36*
X353450Y552450D02*
X349250D01*
Y548250D01*
X351118Y549023D01*
X352677Y550582D01*
X353450Y552450D01*
D02*
G37*
G36*
X346710D02*
X342510D01*
X343283Y550582D01*
X344842Y549023D01*
X346710Y548250D01*
Y552450D01*
D02*
G37*
G36*
X397558Y558089D02*
X394922D01*
X392377Y557407D01*
X390094Y556089D01*
X388231Y554226D01*
X386913Y551943D01*
X386231Y549398D01*
Y546762D01*
X386913Y544217D01*
X388231Y541934D01*
X390094Y540071D01*
X392377Y538753D01*
X394922Y538071D01*
X397558D01*
X400103Y538753D01*
X402386Y540071D01*
X404249Y541934D01*
X405567Y544217D01*
X406249Y546762D01*
Y549398D01*
X405567Y551943D01*
X404249Y554226D01*
X402386Y556089D01*
X400103Y557407D01*
X397558Y558089D01*
D02*
G37*
G36*
X87678Y557939D02*
X85042D01*
X82497Y557257D01*
X80214Y555939D01*
X78351Y554076D01*
X77033Y551793D01*
X76351Y549248D01*
Y546612D01*
X77033Y544067D01*
X78351Y541784D01*
X80214Y539921D01*
X82497Y538603D01*
X85042Y537921D01*
X87678D01*
X90223Y538603D01*
X92506Y539921D01*
X94369Y541784D01*
X95687Y544067D01*
X96369Y546612D01*
Y549248D01*
X95687Y551793D01*
X94369Y554076D01*
X92506Y555939D01*
X90223Y557257D01*
X87678Y557939D01*
D02*
G37*
G36*
X440690Y535060D02*
Y530860D01*
X444890D01*
X444117Y532728D01*
X442558Y534287D01*
X440690Y535060D01*
D02*
G37*
G36*
X438150D02*
X436282Y534287D01*
X434723Y532728D01*
X433950Y530860D01*
X438150D01*
Y535060D01*
D02*
G37*
G36*
X349250Y533790D02*
Y529590D01*
X353450D01*
X352677Y531458D01*
X351118Y533017D01*
X349250Y533790D01*
D02*
G37*
G36*
X346710D02*
X344842Y533017D01*
X343283Y531458D01*
X342510Y529590D01*
X346710D01*
Y533790D01*
D02*
G37*
G36*
X52070D02*
Y529590D01*
X56270D01*
X55497Y531458D01*
X53938Y533017D01*
X52070Y533790D01*
D02*
G37*
G36*
X49530D02*
X47662Y533017D01*
X46103Y531458D01*
X45330Y529590D01*
X49530D01*
Y533790D01*
D02*
G37*
G36*
X444890Y528320D02*
X440690D01*
Y524120D01*
X442558Y524893D01*
X444117Y526452D01*
X444890Y528320D01*
D02*
G37*
G36*
X438150D02*
X433950D01*
X434723Y526452D01*
X436282Y524893D01*
X438150Y524120D01*
Y528320D01*
D02*
G37*
G36*
X353450Y527050D02*
X349250D01*
Y522850D01*
X351118Y523623D01*
X352677Y525182D01*
X353450Y527050D01*
D02*
G37*
G36*
X346710D02*
X342510D01*
X343283Y525182D01*
X344842Y523623D01*
X346710Y522850D01*
Y527050D01*
D02*
G37*
G36*
X56270D02*
X52070D01*
Y522850D01*
X53938Y523623D01*
X55497Y525182D01*
X56270Y527050D01*
D02*
G37*
G36*
X49530D02*
X45330D01*
X46103Y525182D01*
X47662Y523623D01*
X49530Y522850D01*
Y527050D01*
D02*
G37*
G36*
X153670Y509660D02*
Y505460D01*
X157870D01*
X157097Y507328D01*
X155538Y508887D01*
X153670Y509660D01*
D02*
G37*
G36*
X151130D02*
X149262Y508887D01*
X147703Y507328D01*
X146930Y505460D01*
X151130D01*
Y509660D01*
D02*
G37*
G36*
X125730D02*
Y505460D01*
X129930D01*
X129157Y507328D01*
X127598Y508887D01*
X125730Y509660D01*
D02*
G37*
G36*
X123190D02*
X121322Y508887D01*
X119763Y507328D01*
X118990Y505460D01*
X123190D01*
Y509660D01*
D02*
G37*
G36*
X397558Y523089D02*
X394922D01*
X392377Y522407D01*
X390094Y521089D01*
X388231Y519226D01*
X386913Y516943D01*
X386231Y514398D01*
Y511762D01*
X386913Y509217D01*
X388231Y506934D01*
X390094Y505071D01*
X392377Y503753D01*
X394922Y503071D01*
X397558D01*
X400103Y503753D01*
X402386Y505071D01*
X404249Y506934D01*
X405567Y509217D01*
X406249Y511762D01*
Y514398D01*
X405567Y516943D01*
X404249Y519226D01*
X402386Y521089D01*
X400103Y522407D01*
X397558Y523089D01*
D02*
G37*
G36*
X87678Y522939D02*
X85042D01*
X82497Y522257D01*
X80214Y520939D01*
X78351Y519076D01*
X77033Y516793D01*
X76351Y514248D01*
Y511612D01*
X77033Y509067D01*
X78351Y506784D01*
X80214Y504921D01*
X82497Y503603D01*
X85042Y502921D01*
X87678D01*
X90223Y503603D01*
X92506Y504921D01*
X94369Y506784D01*
X95687Y509067D01*
X96369Y511612D01*
Y514248D01*
X95687Y516793D01*
X94369Y519076D01*
X92506Y520939D01*
X90223Y522257D01*
X87678Y522939D01*
D02*
G37*
G36*
X349250Y504580D02*
Y500380D01*
X353450D01*
X352677Y502248D01*
X351118Y503807D01*
X349250Y504580D01*
D02*
G37*
G36*
X346710D02*
X344842Y503807D01*
X343283Y502248D01*
X342510Y500380D01*
X346710D01*
Y504580D01*
D02*
G37*
G36*
X157870Y502920D02*
X153670D01*
Y498720D01*
X155538Y499493D01*
X157097Y501052D01*
X157870Y502920D01*
D02*
G37*
G36*
X151130D02*
X146930D01*
X147703Y501052D01*
X149262Y499493D01*
X151130Y498720D01*
Y502920D01*
D02*
G37*
G36*
X129930D02*
X125730D01*
Y498720D01*
X127598Y499493D01*
X129157Y501052D01*
X129930Y502920D01*
D02*
G37*
G36*
X123190D02*
X118990D01*
X119763Y501052D01*
X121322Y499493D01*
X123190Y498720D01*
Y502920D01*
D02*
G37*
G36*
X353450Y497840D02*
X349250D01*
Y493640D01*
X351118Y494413D01*
X352677Y495972D01*
X353450Y497840D01*
D02*
G37*
G36*
X346710D02*
X342510D01*
X343283Y495972D01*
X344842Y494413D01*
X346710Y493640D01*
Y497840D01*
D02*
G37*
G36*
X349250Y470290D02*
Y466090D01*
X353450D01*
X352677Y467958D01*
X351118Y469517D01*
X349250Y470290D01*
D02*
G37*
G36*
X346710D02*
X344842Y469517D01*
X343283Y467958D01*
X342510Y466090D01*
X346710D01*
Y470290D01*
D02*
G37*
G36*
X203200D02*
Y466090D01*
X207400D01*
X206627Y467958D01*
X205068Y469517D01*
X203200Y470290D01*
D02*
G37*
G36*
X200660D02*
X198792Y469517D01*
X197233Y467958D01*
X196460Y466090D01*
X200660D01*
Y470290D01*
D02*
G37*
G36*
X173990D02*
Y466090D01*
X178190D01*
X177417Y467958D01*
X175858Y469517D01*
X173990Y470290D01*
D02*
G37*
G36*
X171450D02*
X169582Y469517D01*
X168023Y467958D01*
X167250Y466090D01*
X171450D01*
Y470290D01*
D02*
G37*
G36*
X148590D02*
Y466090D01*
X152790D01*
X152017Y467958D01*
X150458Y469517D01*
X148590Y470290D01*
D02*
G37*
G36*
X146050D02*
X144182Y469517D01*
X142623Y467958D01*
X141850Y466090D01*
X146050D01*
Y470290D01*
D02*
G37*
G36*
X124460D02*
Y466090D01*
X128660D01*
X127887Y467958D01*
X126328Y469517D01*
X124460Y470290D01*
D02*
G37*
G36*
X121920D02*
X120052Y469517D01*
X118493Y467958D01*
X117720Y466090D01*
X121920D01*
Y470290D01*
D02*
G37*
G36*
X353450Y463550D02*
X349250D01*
Y459350D01*
X351118Y460123D01*
X352677Y461682D01*
X353450Y463550D01*
D02*
G37*
G36*
X346710D02*
X342510D01*
X343283Y461682D01*
X344842Y460123D01*
X346710Y459350D01*
Y463550D01*
D02*
G37*
G36*
X207400D02*
X203200D01*
Y459350D01*
X205068Y460123D01*
X206627Y461682D01*
X207400Y463550D01*
D02*
G37*
G36*
X200660D02*
X196460D01*
X197233Y461682D01*
X198792Y460123D01*
X200660Y459350D01*
Y463550D01*
D02*
G37*
G36*
X178190D02*
X173990D01*
Y459350D01*
X175858Y460123D01*
X177417Y461682D01*
X178190Y463550D01*
D02*
G37*
G36*
X171450D02*
X167250D01*
X168023Y461682D01*
X169582Y460123D01*
X171450Y459350D01*
Y463550D01*
D02*
G37*
G36*
X152790D02*
X148590D01*
Y459350D01*
X150458Y460123D01*
X152017Y461682D01*
X152790Y463550D01*
D02*
G37*
G36*
X146050D02*
X141850D01*
X142623Y461682D01*
X144182Y460123D01*
X146050Y459350D01*
Y463550D01*
D02*
G37*
G36*
X128660D02*
X124460D01*
Y459350D01*
X126328Y460123D01*
X127887Y461682D01*
X128660Y463550D01*
D02*
G37*
G36*
X121920D02*
X117720D01*
X118493Y461682D01*
X120052Y460123D01*
X121920Y459350D01*
Y463550D01*
D02*
G37*
G36*
X397558Y472999D02*
X394922D01*
X392377Y472317D01*
X390094Y470999D01*
X388231Y469136D01*
X386913Y466853D01*
X386231Y464308D01*
Y461672D01*
X386913Y459127D01*
X388231Y456844D01*
X390094Y454981D01*
X392377Y453663D01*
X394922Y452981D01*
X397558D01*
X400103Y453663D01*
X402386Y454981D01*
X404249Y456844D01*
X405567Y459127D01*
X406249Y461672D01*
Y464308D01*
X405567Y466853D01*
X404249Y469136D01*
X402386Y470999D01*
X400103Y472317D01*
X397558Y472999D01*
D02*
G37*
G36*
X87678Y469899D02*
X85042D01*
X82497Y469217D01*
X80214Y467899D01*
X78351Y466036D01*
X77033Y463753D01*
X76351Y461208D01*
Y458572D01*
X77033Y456027D01*
X78351Y453744D01*
X80214Y451881D01*
X82497Y450563D01*
X85042Y449881D01*
X87678D01*
X90223Y450563D01*
X92506Y451881D01*
X94369Y453744D01*
X95687Y456027D01*
X96369Y458572D01*
Y461208D01*
X95687Y463753D01*
X94369Y466036D01*
X92506Y467899D01*
X90223Y469217D01*
X87678Y469899D01*
D02*
G37*
G36*
X203200Y452510D02*
Y448310D01*
X207400D01*
X206627Y450178D01*
X205068Y451737D01*
X203200Y452510D01*
D02*
G37*
G36*
X200660D02*
X198792Y451737D01*
X197233Y450178D01*
X196460Y448310D01*
X200660D01*
Y452510D01*
D02*
G37*
G36*
X440690Y449970D02*
Y445770D01*
X444890D01*
X444117Y447638D01*
X442558Y449197D01*
X440690Y449970D01*
D02*
G37*
G36*
X438150D02*
X436282Y449197D01*
X434723Y447638D01*
X433950Y445770D01*
X438150D01*
Y449970D01*
D02*
G37*
G36*
X52070Y447430D02*
Y443230D01*
X56270D01*
X55497Y445098D01*
X53938Y446657D01*
X52070Y447430D01*
D02*
G37*
G36*
X49530D02*
X47662Y446657D01*
X46103Y445098D01*
X45330Y443230D01*
X49530D01*
Y447430D01*
D02*
G37*
G36*
X207400Y445770D02*
X203200D01*
Y441570D01*
X205068Y442343D01*
X206627Y443902D01*
X207400Y445770D01*
D02*
G37*
G36*
X200660D02*
X196460D01*
X197233Y443902D01*
X198792Y442343D01*
X200660Y441570D01*
Y445770D01*
D02*
G37*
G36*
X444890Y443230D02*
X440690D01*
Y439030D01*
X442558Y439803D01*
X444117Y441362D01*
X444890Y443230D01*
D02*
G37*
G36*
X438150D02*
X433950D01*
X434723Y441362D01*
X436282Y439803D01*
X438150Y439030D01*
Y443230D01*
D02*
G37*
G36*
X56270Y440690D02*
X52070D01*
Y436490D01*
X53938Y437263D01*
X55497Y438822D01*
X56270Y440690D01*
D02*
G37*
G36*
X49530D02*
X45330D01*
X46103Y438822D01*
X47662Y437263D01*
X49530Y436490D01*
Y440690D01*
D02*
G37*
G36*
X123190Y433460D02*
Y429260D01*
X127390D01*
X126617Y431128D01*
X125058Y432687D01*
X123190Y433460D01*
D02*
G37*
G36*
X120650D02*
X118782Y432687D01*
X117223Y431128D01*
X116450Y429260D01*
X120650D01*
Y433460D01*
D02*
G37*
G36*
X148590Y432190D02*
Y427990D01*
X152790D01*
X152017Y429858D01*
X150458Y431417D01*
X148590Y432190D01*
D02*
G37*
G36*
X146050D02*
X144182Y431417D01*
X142623Y429858D01*
X141850Y427990D01*
X146050D01*
Y432190D01*
D02*
G37*
G36*
X349250Y427110D02*
Y422910D01*
X353450D01*
X352677Y424778D01*
X351118Y426337D01*
X349250Y427110D01*
D02*
G37*
G36*
X346710D02*
X344842Y426337D01*
X343283Y424778D01*
X342510Y422910D01*
X346710D01*
Y427110D01*
D02*
G37*
G36*
X127390Y426720D02*
X123190D01*
Y422520D01*
X125058Y423293D01*
X126617Y424852D01*
X127390Y426720D01*
D02*
G37*
G36*
X120650D02*
X116450D01*
X117223Y424852D01*
X118782Y423293D01*
X120650Y422520D01*
Y426720D01*
D02*
G37*
G36*
X152790Y425450D02*
X148590D01*
Y421250D01*
X150458Y422023D01*
X152017Y423582D01*
X152790Y425450D01*
D02*
G37*
G36*
X146050D02*
X141850D01*
X142623Y423582D01*
X144182Y422023D01*
X146050Y421250D01*
Y425450D01*
D02*
G37*
G36*
X397558Y437999D02*
X394922D01*
X392377Y437317D01*
X390094Y435999D01*
X388231Y434136D01*
X386913Y431853D01*
X386231Y429308D01*
Y426672D01*
X386913Y424127D01*
X388231Y421844D01*
X390094Y419981D01*
X392377Y418663D01*
X394922Y417981D01*
X397558D01*
X400103Y418663D01*
X402386Y419981D01*
X404249Y421844D01*
X405567Y424127D01*
X406249Y426672D01*
Y429308D01*
X405567Y431853D01*
X404249Y434136D01*
X402386Y435999D01*
X400103Y437317D01*
X397558Y437999D01*
D02*
G37*
G36*
X353450Y420370D02*
X349250D01*
Y416170D01*
X351118Y416943D01*
X352677Y418502D01*
X353450Y420370D01*
D02*
G37*
G36*
X346710D02*
X342510D01*
X343283Y418502D01*
X344842Y416943D01*
X346710Y416170D01*
Y420370D01*
D02*
G37*
G36*
X87678Y434899D02*
X85042D01*
X82497Y434217D01*
X80214Y432899D01*
X78351Y431036D01*
X77033Y428753D01*
X76351Y426208D01*
Y423572D01*
X77033Y421027D01*
X78351Y418744D01*
X80214Y416881D01*
X82497Y415563D01*
X85042Y414881D01*
X87678D01*
X90223Y415563D01*
X92506Y416881D01*
X94369Y418744D01*
X95687Y421027D01*
X96369Y423572D01*
Y426208D01*
X95687Y428753D01*
X94369Y431036D01*
X92506Y432899D01*
X90223Y434217D01*
X87678Y434899D01*
D02*
G37*
G36*
X441960Y414410D02*
Y410210D01*
X446160D01*
X445387Y412078D01*
X443828Y413637D01*
X441960Y414410D01*
D02*
G37*
G36*
X439420D02*
X437552Y413637D01*
X435993Y412078D01*
X435220Y410210D01*
X439420D01*
Y414410D01*
D02*
G37*
G36*
X52070Y411870D02*
Y407670D01*
X56270D01*
X55497Y409538D01*
X53938Y411097D01*
X52070Y411870D01*
D02*
G37*
G36*
X49530D02*
X47662Y411097D01*
X46103Y409538D01*
X45330Y407670D01*
X49530D01*
Y411870D01*
D02*
G37*
G36*
X134620Y409330D02*
Y405130D01*
X138820D01*
X138047Y406998D01*
X136488Y408557D01*
X134620Y409330D01*
D02*
G37*
G36*
X132080D02*
X130212Y408557D01*
X128653Y406998D01*
X127880Y405130D01*
X132080D01*
Y409330D01*
D02*
G37*
G36*
X446160Y407670D02*
X441960D01*
Y403470D01*
X443828Y404243D01*
X445387Y405802D01*
X446160Y407670D01*
D02*
G37*
G36*
X439420D02*
X435220D01*
X435993Y405802D01*
X437552Y404243D01*
X439420Y403470D01*
Y407670D01*
D02*
G37*
G36*
X56270Y405130D02*
X52070D01*
Y400930D01*
X53938Y401703D01*
X55497Y403262D01*
X56270Y405130D01*
D02*
G37*
G36*
X49530D02*
X45330D01*
X46103Y403262D01*
X47662Y401703D01*
X49530Y400930D01*
Y405130D01*
D02*
G37*
G36*
X138820Y402590D02*
X134620D01*
Y398390D01*
X136488Y399163D01*
X138047Y400722D01*
X138820Y402590D01*
D02*
G37*
G36*
X132080D02*
X127880D01*
X128653Y400722D01*
X130212Y399163D01*
X132080Y398390D01*
Y402590D01*
D02*
G37*
G36*
X397558Y402999D02*
X394922D01*
X392377Y402317D01*
X390094Y400999D01*
X388231Y399136D01*
X386913Y396853D01*
X386231Y394308D01*
Y391672D01*
X386913Y389127D01*
X388231Y386844D01*
X390094Y384981D01*
X392377Y383663D01*
X394922Y382981D01*
X397558D01*
X400103Y383663D01*
X402386Y384981D01*
X404249Y386844D01*
X405567Y389127D01*
X406249Y391672D01*
Y394308D01*
X405567Y396853D01*
X404249Y399136D01*
X402386Y400999D01*
X400103Y402317D01*
X397558Y402999D01*
D02*
G37*
G36*
X266700Y385200D02*
Y381000D01*
X270900D01*
X270127Y382868D01*
X268568Y384427D01*
X266700Y385200D01*
D02*
G37*
G36*
X264160D02*
X262292Y384427D01*
X260733Y382868D01*
X259960Y381000D01*
X264160D01*
Y385200D01*
D02*
G37*
G36*
X157480D02*
Y381000D01*
X161680D01*
X160907Y382868D01*
X159348Y384427D01*
X157480Y385200D01*
D02*
G37*
G36*
X154940D02*
X153072Y384427D01*
X151513Y382868D01*
X150740Y381000D01*
X154940D01*
Y385200D01*
D02*
G37*
G36*
X87678Y399899D02*
X85042D01*
X82497Y399217D01*
X80214Y397899D01*
X78351Y396036D01*
X77033Y393753D01*
X76351Y391208D01*
Y388572D01*
X77033Y386027D01*
X78351Y383744D01*
X80214Y381881D01*
X82497Y380563D01*
X85042Y379881D01*
X87678D01*
X90223Y380563D01*
X92506Y381881D01*
X94369Y383744D01*
X95687Y386027D01*
X96369Y388572D01*
Y391208D01*
X95687Y393753D01*
X94369Y396036D01*
X92506Y397899D01*
X90223Y399217D01*
X87678Y399899D01*
D02*
G37*
G36*
X355600Y382660D02*
Y378460D01*
X359800D01*
X359027Y380328D01*
X357468Y381887D01*
X355600Y382660D01*
D02*
G37*
G36*
X353060D02*
X351192Y381887D01*
X349633Y380328D01*
X348860Y378460D01*
X353060D01*
Y382660D01*
D02*
G37*
G36*
X242570Y381390D02*
Y377190D01*
X246770D01*
X245997Y379058D01*
X244438Y380617D01*
X242570Y381390D01*
D02*
G37*
G36*
X240030D02*
X238162Y380617D01*
X236603Y379058D01*
X235830Y377190D01*
X240030D01*
Y381390D01*
D02*
G37*
G36*
X441960Y380120D02*
Y375920D01*
X446160D01*
X445387Y377788D01*
X443828Y379347D01*
X441960Y380120D01*
D02*
G37*
G36*
X439420D02*
X437552Y379347D01*
X435993Y377788D01*
X435220Y375920D01*
X439420D01*
Y380120D01*
D02*
G37*
G36*
X270900Y378460D02*
X266700D01*
Y374260D01*
X268568Y375033D01*
X270127Y376592D01*
X270900Y378460D01*
D02*
G37*
G36*
X264160D02*
X259960D01*
X260733Y376592D01*
X262292Y375033D01*
X264160Y374260D01*
Y378460D01*
D02*
G37*
G36*
X161680D02*
X157480D01*
Y374260D01*
X159348Y375033D01*
X160907Y376592D01*
X161680Y378460D01*
D02*
G37*
G36*
X154940D02*
X150740D01*
X151513Y376592D01*
X153072Y375033D01*
X154940Y374260D01*
Y378460D01*
D02*
G37*
G36*
X52070Y377580D02*
Y373380D01*
X56270D01*
X55497Y375248D01*
X53938Y376807D01*
X52070Y377580D01*
D02*
G37*
G36*
X49530D02*
X47662Y376807D01*
X46103Y375248D01*
X45330Y373380D01*
X49530D01*
Y377580D01*
D02*
G37*
G36*
X359800Y375920D02*
X355600D01*
Y371720D01*
X357468Y372493D01*
X359027Y374052D01*
X359800Y375920D01*
D02*
G37*
G36*
X353060D02*
X348860D01*
X349633Y374052D01*
X351192Y372493D01*
X353060Y371720D01*
Y375920D01*
D02*
G37*
G36*
X246770Y374650D02*
X242570D01*
Y370450D01*
X244438Y371223D01*
X245997Y372782D01*
X246770Y374650D01*
D02*
G37*
G36*
X240030D02*
X235830D01*
X236603Y372782D01*
X238162Y371223D01*
X240030Y370450D01*
Y374650D01*
D02*
G37*
G36*
X446160Y373380D02*
X441960D01*
Y369180D01*
X443828Y369953D01*
X445387Y371512D01*
X446160Y373380D01*
D02*
G37*
G36*
X439420D02*
X435220D01*
X435993Y371512D01*
X437552Y369953D01*
X439420Y369180D01*
Y373380D01*
D02*
G37*
G36*
X56270Y370840D02*
X52070D01*
Y366640D01*
X53938Y367413D01*
X55497Y368972D01*
X56270Y370840D01*
D02*
G37*
G36*
X49530D02*
X45330D01*
X46103Y368972D01*
X47662Y367413D01*
X49530Y366640D01*
Y370840D01*
D02*
G37*
G36*
X143510Y369960D02*
Y365760D01*
X147710D01*
X146937Y367628D01*
X145378Y369187D01*
X143510Y369960D01*
D02*
G37*
G36*
X140970D02*
X139102Y369187D01*
X137543Y367628D01*
X136770Y365760D01*
X140970D01*
Y369960D01*
D02*
G37*
G36*
X170180Y368690D02*
Y364490D01*
X174380D01*
X173607Y366358D01*
X172048Y367917D01*
X170180Y368690D01*
D02*
G37*
G36*
X167640D02*
X165772Y367917D01*
X164213Y366358D01*
X163440Y364490D01*
X167640D01*
Y368690D01*
D02*
G37*
G36*
X278130Y367420D02*
Y363220D01*
X282330D01*
X281557Y365088D01*
X279998Y366647D01*
X278130Y367420D01*
D02*
G37*
G36*
X275590D02*
X273722Y366647D01*
X272163Y365088D01*
X271390Y363220D01*
X275590D01*
Y367420D01*
D02*
G37*
G36*
X254000Y366150D02*
Y361950D01*
X258200D01*
X257427Y363818D01*
X255868Y365377D01*
X254000Y366150D01*
D02*
G37*
G36*
X251460D02*
X249592Y365377D01*
X248033Y363818D01*
X247260Y361950D01*
X251460D01*
Y366150D01*
D02*
G37*
G36*
X147710Y363220D02*
X143510D01*
Y359020D01*
X145378Y359793D01*
X146937Y361352D01*
X147710Y363220D01*
D02*
G37*
G36*
X140970D02*
X136770D01*
X137543Y361352D01*
X139102Y359793D01*
X140970Y359020D01*
Y363220D01*
D02*
G37*
G36*
X174380Y361950D02*
X170180D01*
Y357750D01*
X172048Y358523D01*
X173607Y360082D01*
X174380Y361950D01*
D02*
G37*
G36*
X167640D02*
X163440D01*
X164213Y360082D01*
X165772Y358523D01*
X167640Y357750D01*
Y361950D01*
D02*
G37*
G36*
X282330Y360680D02*
X278130D01*
Y356480D01*
X279998Y357253D01*
X281557Y358812D01*
X282330Y360680D01*
D02*
G37*
G36*
X275590D02*
X271390D01*
X272163Y358812D01*
X273722Y357253D01*
X275590Y356480D01*
Y360680D01*
D02*
G37*
G36*
X258200Y359410D02*
X254000D01*
Y355210D01*
X255868Y355983D01*
X257427Y357542D01*
X258200Y359410D01*
D02*
G37*
G36*
X251460D02*
X247260D01*
X248033Y357542D01*
X249592Y355983D01*
X251460Y355210D01*
Y359410D01*
D02*
G37*
G36*
X355600Y355990D02*
Y351790D01*
X359800D01*
X359027Y353658D01*
X357468Y355217D01*
X355600Y355990D01*
D02*
G37*
G36*
X353060D02*
X351192Y355217D01*
X349633Y353658D01*
X348860Y351790D01*
X353060D01*
Y355990D01*
D02*
G37*
G36*
X242570D02*
Y351790D01*
X246770D01*
X245997Y353658D01*
X244438Y355217D01*
X242570Y355990D01*
D02*
G37*
G36*
X240030D02*
X238162Y355217D01*
X236603Y353658D01*
X235830Y351790D01*
X240030D01*
Y355990D01*
D02*
G37*
G36*
X397558Y367999D02*
X394922D01*
X392377Y367317D01*
X390094Y365999D01*
X388231Y364136D01*
X386913Y361853D01*
X386231Y359308D01*
Y356672D01*
X386913Y354127D01*
X388231Y351844D01*
X390094Y349981D01*
X392377Y348663D01*
X394922Y347981D01*
X397558D01*
X400103Y348663D01*
X402386Y349981D01*
X404249Y351844D01*
X405567Y354127D01*
X406249Y356672D01*
Y359308D01*
X405567Y361853D01*
X404249Y364136D01*
X402386Y365999D01*
X400103Y367317D01*
X397558Y367999D01*
D02*
G37*
G36*
X359800Y349250D02*
X355600D01*
Y345050D01*
X357468Y345823D01*
X359027Y347382D01*
X359800Y349250D01*
D02*
G37*
G36*
X353060D02*
X348860D01*
X349633Y347382D01*
X351192Y345823D01*
X353060Y345050D01*
Y349250D01*
D02*
G37*
G36*
X246770D02*
X242570D01*
Y345050D01*
X244438Y345823D01*
X245997Y347382D01*
X246770Y349250D01*
D02*
G37*
G36*
X240030D02*
X235830D01*
X236603Y347382D01*
X238162Y345823D01*
X240030Y345050D01*
Y349250D01*
D02*
G37*
G36*
X87678Y364899D02*
X85042D01*
X82497Y364217D01*
X80214Y362899D01*
X78351Y361036D01*
X77033Y358753D01*
X76351Y356208D01*
Y353572D01*
X77033Y351027D01*
X78351Y348744D01*
X80214Y346881D01*
X82497Y345563D01*
X85042Y344881D01*
X87678D01*
X90223Y345563D01*
X92506Y346881D01*
X94369Y348744D01*
X95687Y351027D01*
X96369Y353572D01*
Y356208D01*
X95687Y358753D01*
X94369Y361036D01*
X92506Y362899D01*
X90223Y364217D01*
X87678Y364899D01*
D02*
G37*
G36*
X441960Y343290D02*
Y339090D01*
X446160D01*
X445387Y340958D01*
X443828Y342517D01*
X441960Y343290D01*
D02*
G37*
G36*
X439420D02*
X437552Y342517D01*
X435993Y340958D01*
X435220Y339090D01*
X439420D01*
Y343290D01*
D02*
G37*
G36*
X53340Y340750D02*
Y336550D01*
X57540D01*
X56767Y338418D01*
X55208Y339977D01*
X53340Y340750D01*
D02*
G37*
G36*
X50800D02*
X48932Y339977D01*
X47373Y338418D01*
X46600Y336550D01*
X50800D01*
Y340750D01*
D02*
G37*
G36*
X446160Y336550D02*
X441960D01*
Y332350D01*
X443828Y333123D01*
X445387Y334682D01*
X446160Y336550D01*
D02*
G37*
G36*
X439420D02*
X435220D01*
X435993Y334682D01*
X437552Y333123D01*
X439420Y332350D01*
Y336550D01*
D02*
G37*
G36*
X57540Y334010D02*
X53340D01*
Y329810D01*
X55208Y330583D01*
X56767Y332142D01*
X57540Y334010D01*
D02*
G37*
G36*
X50800D02*
X46600D01*
X47373Y332142D01*
X48932Y330583D01*
X50800Y329810D01*
Y334010D01*
D02*
G37*
G36*
X397558Y332999D02*
X394922D01*
X392377Y332317D01*
X390094Y330999D01*
X388231Y329136D01*
X386913Y326853D01*
X386231Y324308D01*
Y321672D01*
X386913Y319127D01*
X388231Y316844D01*
X390094Y314981D01*
X392377Y313663D01*
X394922Y312981D01*
X397558D01*
X400103Y313663D01*
X402386Y314981D01*
X404249Y316844D01*
X405567Y319127D01*
X406249Y321672D01*
Y324308D01*
X405567Y326853D01*
X404249Y329136D01*
X402386Y330999D01*
X400103Y332317D01*
X397558Y332999D01*
D02*
G37*
G36*
X87678Y329899D02*
X85042D01*
X82497Y329217D01*
X80214Y327899D01*
X78351Y326036D01*
X77033Y323753D01*
X76351Y321208D01*
Y318572D01*
X77033Y316027D01*
X78351Y313744D01*
X80214Y311881D01*
X82497Y310563D01*
X85042Y309881D01*
X87678D01*
X90223Y310563D01*
X92506Y311881D01*
X94369Y313744D01*
X95687Y316027D01*
X96369Y318572D01*
Y321208D01*
X95687Y323753D01*
X94369Y326036D01*
X92506Y327899D01*
X90223Y329217D01*
X87678Y329899D01*
D02*
G37*
G36*
X53340Y307730D02*
Y303530D01*
X57540D01*
X56767Y305398D01*
X55208Y306957D01*
X53340Y307730D01*
D02*
G37*
G36*
X50800D02*
X48932Y306957D01*
X47373Y305398D01*
X46600Y303530D01*
X50800D01*
Y307730D01*
D02*
G37*
G36*
X441960Y305190D02*
Y300990D01*
X446160D01*
X445387Y302858D01*
X443828Y304417D01*
X441960Y305190D01*
D02*
G37*
G36*
X439420D02*
X437552Y304417D01*
X435993Y302858D01*
X435220Y300990D01*
X439420D01*
Y305190D01*
D02*
G37*
G36*
X57540Y300990D02*
X53340D01*
Y296790D01*
X55208Y297563D01*
X56767Y299122D01*
X57540Y300990D01*
D02*
G37*
G36*
X50800D02*
X46600D01*
X47373Y299122D01*
X48932Y297563D01*
X50800Y296790D01*
Y300990D01*
D02*
G37*
G36*
X446160Y298450D02*
X441960D01*
Y294250D01*
X443828Y295023D01*
X445387Y296582D01*
X446160Y298450D01*
D02*
G37*
G36*
X439420D02*
X435220D01*
X435993Y296582D01*
X437552Y295023D01*
X439420Y294250D01*
Y298450D01*
D02*
G37*
G36*
X236220Y283600D02*
Y279400D01*
X240420D01*
X239647Y281268D01*
X238088Y282827D01*
X236220Y283600D01*
D02*
G37*
G36*
X233680D02*
X231812Y282827D01*
X230253Y281268D01*
X229480Y279400D01*
X233680D01*
Y283600D01*
D02*
G37*
G36*
X397558Y297999D02*
X394922D01*
X392377Y297317D01*
X390094Y295999D01*
X388231Y294136D01*
X386913Y291853D01*
X386231Y289308D01*
Y286672D01*
X386913Y284127D01*
X388231Y281844D01*
X390094Y279981D01*
X392377Y278663D01*
X394922Y277981D01*
X397558D01*
X400103Y278663D01*
X402386Y279981D01*
X404249Y281844D01*
X405567Y284127D01*
X406249Y286672D01*
Y289308D01*
X405567Y291853D01*
X404249Y294136D01*
X402386Y295999D01*
X400103Y297317D01*
X397558Y297999D01*
D02*
G37*
G36*
X87678Y294899D02*
X85042D01*
X82497Y294217D01*
X80214Y292899D01*
X78351Y291036D01*
X77033Y288753D01*
X76351Y286208D01*
Y283572D01*
X77033Y281027D01*
X78351Y278744D01*
X80214Y276881D01*
X82497Y275563D01*
X85042Y274881D01*
X87678D01*
X90223Y275563D01*
X92506Y276881D01*
X94369Y278744D01*
X95687Y281027D01*
X96369Y283572D01*
Y286208D01*
X95687Y288753D01*
X94369Y291036D01*
X92506Y292899D01*
X90223Y294217D01*
X87678Y294899D01*
D02*
G37*
G36*
X240420Y276860D02*
X236220D01*
Y272660D01*
X238088Y273433D01*
X239647Y274992D01*
X240420Y276860D01*
D02*
G37*
G36*
X233680D02*
X229480D01*
X230253Y274992D01*
X231812Y273433D01*
X233680Y272660D01*
Y276860D01*
D02*
G37*
G36*
X304800Y274710D02*
Y270510D01*
X309000D01*
X308227Y272378D01*
X306668Y273937D01*
X304800Y274710D01*
D02*
G37*
G36*
X302260D02*
X300392Y273937D01*
X298833Y272378D01*
X298060Y270510D01*
X302260D01*
Y274710D01*
D02*
G37*
G36*
X309000Y267970D02*
X304800D01*
Y263770D01*
X306668Y264543D01*
X308227Y266102D01*
X309000Y267970D01*
D02*
G37*
G36*
X302260D02*
X298060D01*
X298833Y266102D01*
X300392Y264543D01*
X302260Y263770D01*
Y267970D01*
D02*
G37*
G36*
X397695Y243199D02*
X397510D01*
Y233420D01*
X407289D01*
Y233605D01*
X406536Y236415D01*
X405081Y238934D01*
X403024Y240991D01*
X400505Y242446D01*
X397695Y243199D01*
D02*
G37*
G36*
X87815D02*
X87630D01*
Y233420D01*
X97409D01*
Y233605D01*
X96656Y236415D01*
X95201Y238934D01*
X93144Y240991D01*
X90625Y242446D01*
X87815Y243199D01*
D02*
G37*
G36*
X85090D02*
X84905D01*
X82095Y242446D01*
X79576Y240991D01*
X77519Y238934D01*
X76064Y236415D01*
X75311Y233605D01*
Y233420D01*
X85090D01*
Y243199D01*
D02*
G37*
G36*
X394970D02*
X394785D01*
X391975Y242446D01*
X389456Y240991D01*
X387399Y238934D01*
X385944Y236415D01*
X385191Y233605D01*
Y233420D01*
X394970D01*
Y243199D01*
D02*
G37*
G36*
X175260Y226450D02*
Y222250D01*
X179460D01*
X178687Y224118D01*
X177128Y225677D01*
X175260Y226450D01*
D02*
G37*
G36*
X172720D02*
X170852Y225677D01*
X169293Y224118D01*
X168520Y222250D01*
X172720D01*
Y226450D01*
D02*
G37*
G36*
X407289Y230880D02*
X397510D01*
Y221101D01*
X397695D01*
X400505Y221854D01*
X403024Y223309D01*
X405081Y225366D01*
X406536Y227885D01*
X407289Y230695D01*
Y230880D01*
D02*
G37*
G36*
X394970D02*
X385191D01*
Y230695D01*
X385944Y227885D01*
X387399Y225366D01*
X389456Y223309D01*
X391975Y221854D01*
X394785Y221101D01*
X394970D01*
Y230880D01*
D02*
G37*
G36*
X97409D02*
X87630D01*
Y221101D01*
X87815D01*
X90625Y221854D01*
X93144Y223309D01*
X95201Y225366D01*
X96656Y227885D01*
X97409Y230695D01*
Y230880D01*
D02*
G37*
G36*
X85090D02*
X75311D01*
Y230695D01*
X76064Y227885D01*
X77519Y225366D01*
X79576Y223309D01*
X82095Y221854D01*
X84905Y221101D01*
X85090D01*
Y230880D01*
D02*
G37*
G36*
X288290Y225180D02*
Y220980D01*
X292490D01*
X291717Y222848D01*
X290158Y224407D01*
X288290Y225180D01*
D02*
G37*
G36*
X285750D02*
X283882Y224407D01*
X282323Y222848D01*
X281550Y220980D01*
X285750D01*
Y225180D01*
D02*
G37*
G36*
X346710Y222640D02*
Y218440D01*
X350910D01*
X350137Y220308D01*
X348578Y221867D01*
X346710Y222640D01*
D02*
G37*
G36*
X344170D02*
X342302Y221867D01*
X340743Y220308D01*
X339970Y218440D01*
X344170D01*
Y222640D01*
D02*
G37*
G36*
X179460Y219710D02*
X175260D01*
Y215510D01*
X177128Y216283D01*
X178687Y217842D01*
X179460Y219710D01*
D02*
G37*
G36*
X172720D02*
X168520D01*
X169293Y217842D01*
X170852Y216283D01*
X172720Y215510D01*
Y219710D01*
D02*
G37*
G36*
X436880Y218830D02*
Y214630D01*
X441080D01*
X440307Y216498D01*
X438748Y218057D01*
X436880Y218830D01*
D02*
G37*
G36*
X434340D02*
X432472Y218057D01*
X430913Y216498D01*
X430140Y214630D01*
X434340D01*
Y218830D01*
D02*
G37*
G36*
X54610D02*
Y214630D01*
X58810D01*
X58037Y216498D01*
X56478Y218057D01*
X54610Y218830D01*
D02*
G37*
G36*
X52070D02*
X50202Y218057D01*
X48643Y216498D01*
X47870Y214630D01*
X52070D01*
Y218830D01*
D02*
G37*
G36*
X292490Y218440D02*
X288290D01*
Y214240D01*
X290158Y215013D01*
X291717Y216572D01*
X292490Y218440D01*
D02*
G37*
G36*
X285750D02*
X281550D01*
X282323Y216572D01*
X283882Y215013D01*
X285750Y214240D01*
Y218440D01*
D02*
G37*
G36*
X350910Y215900D02*
X346710D01*
Y211700D01*
X348578Y212473D01*
X350137Y214032D01*
X350910Y215900D01*
D02*
G37*
G36*
X344170D02*
X339970D01*
X340743Y214032D01*
X342302Y212473D01*
X344170Y211700D01*
Y215900D01*
D02*
G37*
G36*
X441080Y212090D02*
X436880D01*
Y207890D01*
X438748Y208663D01*
X440307Y210222D01*
X441080Y212090D01*
D02*
G37*
G36*
X434340D02*
X430140D01*
X430913Y210222D01*
X432472Y208663D01*
X434340Y207890D01*
Y212090D01*
D02*
G37*
G36*
X58810D02*
X54610D01*
Y207890D01*
X56478Y208663D01*
X58037Y210222D01*
X58810Y212090D01*
D02*
G37*
G36*
X52070D02*
X47870D01*
X48643Y210222D01*
X50202Y208663D01*
X52070Y207890D01*
Y212090D01*
D02*
G37*
G36*
X397695Y208199D02*
X397510D01*
Y198420D01*
X407289D01*
Y198605D01*
X406536Y201415D01*
X405081Y203934D01*
X403024Y205991D01*
X400505Y207446D01*
X397695Y208199D01*
D02*
G37*
G36*
X87815Y208199D02*
X87630D01*
Y198420D01*
X97409D01*
Y198605D01*
X96656Y201415D01*
X95201Y203934D01*
X93144Y205991D01*
X90625Y207446D01*
X87815Y208199D01*
D02*
G37*
G36*
X85090D02*
X84905D01*
X82095Y207446D01*
X79576Y205991D01*
X77519Y203934D01*
X76064Y201415D01*
X75311Y198605D01*
Y198420D01*
X85090D01*
Y208199D01*
D02*
G37*
G36*
X394970Y208199D02*
X394785D01*
X391975Y207446D01*
X389456Y205991D01*
X387399Y203934D01*
X385944Y201415D01*
X385191Y198605D01*
Y198420D01*
X394970D01*
Y208199D01*
D02*
G37*
G36*
X407289Y195880D02*
X397510D01*
Y186101D01*
X397695D01*
X400505Y186854D01*
X403024Y188309D01*
X405081Y190366D01*
X406536Y192885D01*
X407289Y195695D01*
Y195880D01*
D02*
G37*
G36*
X394970D02*
X385191D01*
Y195695D01*
X385944Y192885D01*
X387399Y190366D01*
X389456Y188309D01*
X391975Y186854D01*
X394785Y186101D01*
X394970D01*
Y195880D01*
D02*
G37*
G36*
X97409D02*
X87630D01*
Y186101D01*
X87815D01*
X90625Y186854D01*
X93144Y188309D01*
X95201Y190366D01*
X96656Y192885D01*
X97409Y195695D01*
Y195880D01*
D02*
G37*
G36*
X85090D02*
X75311D01*
Y195695D01*
X76064Y192885D01*
X77519Y190366D01*
X79576Y188309D01*
X82095Y186854D01*
X84905Y186101D01*
X85090D01*
Y195880D01*
D02*
G37*
G36*
X436880Y184540D02*
Y180340D01*
X441080D01*
X440307Y182208D01*
X438748Y183767D01*
X436880Y184540D01*
D02*
G37*
G36*
X434340D02*
X432472Y183767D01*
X430913Y182208D01*
X430140Y180340D01*
X434340D01*
Y184540D01*
D02*
G37*
G36*
X55880D02*
Y180340D01*
X60080D01*
X59307Y182208D01*
X57748Y183767D01*
X55880Y184540D01*
D02*
G37*
G36*
X53340D02*
X51472Y183767D01*
X49913Y182208D01*
X49140Y180340D01*
X53340D01*
Y184540D01*
D02*
G37*
G36*
X441080Y177800D02*
X436880D01*
Y173600D01*
X438748Y174373D01*
X440307Y175932D01*
X441080Y177800D01*
D02*
G37*
G36*
X434340D02*
X430140D01*
X430913Y175932D01*
X432472Y174373D01*
X434340Y173600D01*
Y177800D01*
D02*
G37*
G36*
X60080D02*
X55880D01*
Y173600D01*
X57748Y174373D01*
X59307Y175932D01*
X60080Y177800D01*
D02*
G37*
G36*
X53340D02*
X49140D01*
X49913Y175932D01*
X51472Y174373D01*
X53340Y173600D01*
Y177800D01*
D02*
G37*
G36*
X397695Y173199D02*
X397510D01*
Y163420D01*
X407289D01*
Y163605D01*
X406536Y166415D01*
X405081Y168934D01*
X403024Y170991D01*
X400505Y172446D01*
X397695Y173199D01*
D02*
G37*
G36*
X87815Y173199D02*
X87630D01*
Y163420D01*
X97409D01*
Y163605D01*
X96656Y166415D01*
X95201Y168934D01*
X93144Y170991D01*
X90625Y172446D01*
X87815Y173199D01*
D02*
G37*
G36*
X85090D02*
X84905D01*
X82095Y172446D01*
X79576Y170991D01*
X77519Y168934D01*
X76064Y166415D01*
X75311Y163605D01*
Y163420D01*
X85090D01*
Y173199D01*
D02*
G37*
G36*
X394970Y173199D02*
X394785D01*
X391975Y172446D01*
X389456Y170991D01*
X387399Y168934D01*
X385944Y166415D01*
X385191Y163605D01*
Y163420D01*
X394970D01*
Y173199D01*
D02*
G37*
G36*
X407289Y160880D02*
X397510D01*
Y151101D01*
X397695D01*
X400505Y151854D01*
X403024Y153309D01*
X405081Y155366D01*
X406536Y157885D01*
X407289Y160695D01*
Y160880D01*
D02*
G37*
G36*
X394970D02*
X385191D01*
Y160695D01*
X385944Y157885D01*
X387399Y155366D01*
X389456Y153309D01*
X391975Y151854D01*
X394785Y151101D01*
X394970D01*
Y160880D01*
D02*
G37*
G36*
X97409D02*
X87630D01*
Y151101D01*
X87815D01*
X90625Y151854D01*
X93144Y153309D01*
X95201Y155366D01*
X96656Y157885D01*
X97409Y160695D01*
Y160880D01*
D02*
G37*
G36*
X85090D02*
X75311D01*
Y160695D01*
X76064Y157885D01*
X77519Y155366D01*
X79576Y153309D01*
X82095Y151854D01*
X84905Y151101D01*
X85090D01*
Y160880D01*
D02*
G37*
G36*
X55880Y148980D02*
Y144780D01*
X60080D01*
X59307Y146648D01*
X57748Y148207D01*
X55880Y148980D01*
D02*
G37*
G36*
X53340D02*
X51472Y148207D01*
X49913Y146648D01*
X49140Y144780D01*
X53340D01*
Y148980D01*
D02*
G37*
G36*
X436880Y147710D02*
Y143510D01*
X441080D01*
X440307Y145378D01*
X438748Y146937D01*
X436880Y147710D01*
D02*
G37*
G36*
X434340D02*
X432472Y146937D01*
X430913Y145378D01*
X430140Y143510D01*
X434340D01*
Y147710D01*
D02*
G37*
G36*
X177800Y145170D02*
Y140970D01*
X182000D01*
X181227Y142838D01*
X179668Y144397D01*
X177800Y145170D01*
D02*
G37*
G36*
X175260D02*
X173392Y144397D01*
X171833Y142838D01*
X171060Y140970D01*
X175260D01*
Y145170D01*
D02*
G37*
G36*
X344170Y143900D02*
Y139700D01*
X348370D01*
X347597Y141568D01*
X346038Y143127D01*
X344170Y143900D01*
D02*
G37*
G36*
X341630D02*
X339762Y143127D01*
X338203Y141568D01*
X337430Y139700D01*
X341630D01*
Y143900D01*
D02*
G37*
G36*
X290830D02*
Y139700D01*
X295030D01*
X294257Y141568D01*
X292698Y143127D01*
X290830Y143900D01*
D02*
G37*
G36*
X288290D02*
X286422Y143127D01*
X284863Y141568D01*
X284090Y139700D01*
X288290D01*
Y143900D01*
D02*
G37*
G36*
X60080Y142240D02*
X55880D01*
Y138040D01*
X57748Y138813D01*
X59307Y140372D01*
X60080Y142240D01*
D02*
G37*
G36*
X53340D02*
X49140D01*
X49913Y140372D01*
X51472Y138813D01*
X53340Y138040D01*
Y142240D01*
D02*
G37*
G36*
X441080Y140970D02*
X436880D01*
Y136770D01*
X438748Y137543D01*
X440307Y139102D01*
X441080Y140970D01*
D02*
G37*
G36*
X434340D02*
X430140D01*
X430913Y139102D01*
X432472Y137543D01*
X434340Y136770D01*
Y140970D01*
D02*
G37*
G36*
X182000Y138430D02*
X177800D01*
Y134230D01*
X179668Y135003D01*
X181227Y136562D01*
X182000Y138430D01*
D02*
G37*
G36*
X175260D02*
X171060D01*
X171833Y136562D01*
X173392Y135003D01*
X175260Y134230D01*
Y138430D01*
D02*
G37*
G36*
X348370Y137160D02*
X344170D01*
Y132960D01*
X346038Y133733D01*
X347597Y135292D01*
X348370Y137160D01*
D02*
G37*
G36*
X341630D02*
X337430D01*
X338203Y135292D01*
X339762Y133733D01*
X341630Y132960D01*
Y137160D01*
D02*
G37*
G36*
X295030D02*
X290830D01*
Y132960D01*
X292698Y133733D01*
X294257Y135292D01*
X295030Y137160D01*
D02*
G37*
G36*
X288290D02*
X284090D01*
X284863Y135292D01*
X286422Y133733D01*
X288290Y132960D01*
Y137160D01*
D02*
G37*
G36*
X397695Y138199D02*
X397510D01*
Y128420D01*
X407289D01*
Y128605D01*
X406536Y131415D01*
X405081Y133934D01*
X403024Y135991D01*
X400505Y137446D01*
X397695Y138199D01*
D02*
G37*
G36*
X394970D02*
X394785D01*
X391975Y137446D01*
X389456Y135991D01*
X387399Y133934D01*
X385944Y131415D01*
X385191Y128605D01*
Y128420D01*
X394970D01*
Y138199D01*
D02*
G37*
G36*
X87815Y138199D02*
X87630D01*
Y128420D01*
X97409D01*
Y128605D01*
X96656Y131415D01*
X95201Y133934D01*
X93144Y135991D01*
X90625Y137446D01*
X87815Y138199D01*
D02*
G37*
G36*
X85090D02*
X84905D01*
X82095Y137446D01*
X79576Y135991D01*
X77519Y133934D01*
X76064Y131415D01*
X75311Y128605D01*
Y128420D01*
X85090D01*
Y138199D01*
D02*
G37*
G36*
X407289Y125880D02*
X397510D01*
Y116101D01*
X397695D01*
X400505Y116854D01*
X403024Y118309D01*
X405081Y120366D01*
X406536Y122885D01*
X407289Y125695D01*
Y125880D01*
D02*
G37*
G36*
X394970D02*
X385191D01*
Y125695D01*
X385944Y122885D01*
X387399Y120366D01*
X389456Y118309D01*
X391975Y116854D01*
X394785Y116101D01*
X394970D01*
Y125880D01*
D02*
G37*
G36*
X97409Y125880D02*
X87630D01*
Y116101D01*
X87815D01*
X90625Y116854D01*
X93144Y118309D01*
X95201Y120366D01*
X96656Y122885D01*
X97409Y125695D01*
Y125880D01*
D02*
G37*
G36*
X85090D02*
X75311D01*
Y125695D01*
X76064Y122885D01*
X77519Y120366D01*
X79576Y118309D01*
X82095Y116854D01*
X84905Y116101D01*
X85090D01*
Y125880D01*
D02*
G37*
G36*
X55880Y113420D02*
Y109220D01*
X60080D01*
X59307Y111088D01*
X57748Y112647D01*
X55880Y113420D01*
D02*
G37*
G36*
X53340D02*
X51472Y112647D01*
X49913Y111088D01*
X49140Y109220D01*
X53340D01*
Y113420D01*
D02*
G37*
G36*
X436880Y112150D02*
Y107950D01*
X441080D01*
X440307Y109818D01*
X438748Y111377D01*
X436880Y112150D01*
D02*
G37*
G36*
X434340D02*
X432472Y111377D01*
X430913Y109818D01*
X430140Y107950D01*
X434340D01*
Y112150D01*
D02*
G37*
G36*
X60080Y106680D02*
X55880D01*
Y102480D01*
X57748Y103253D01*
X59307Y104812D01*
X60080Y106680D01*
D02*
G37*
G36*
X53340D02*
X49140D01*
X49913Y104812D01*
X51472Y103253D01*
X53340Y102480D01*
Y106680D01*
D02*
G37*
G36*
X441080Y105410D02*
X436880D01*
Y101210D01*
X438748Y101983D01*
X440307Y103542D01*
X441080Y105410D01*
D02*
G37*
G36*
X434340D02*
X430140D01*
X430913Y103542D01*
X432472Y101983D01*
X434340Y101210D01*
Y105410D01*
D02*
G37*
G36*
X397695Y103199D02*
X397510D01*
Y93420D01*
X407289D01*
Y93605D01*
X406536Y96415D01*
X405081Y98934D01*
X403024Y100991D01*
X400505Y102446D01*
X397695Y103199D01*
D02*
G37*
G36*
X394970D02*
X394785D01*
X391975Y102446D01*
X389456Y100991D01*
X387399Y98934D01*
X385944Y96415D01*
X385191Y93605D01*
Y93420D01*
X394970D01*
Y103199D01*
D02*
G37*
G36*
X87815Y103199D02*
X87630D01*
Y93420D01*
X97409D01*
Y93605D01*
X96656Y96415D01*
X95201Y98934D01*
X93144Y100991D01*
X90625Y102446D01*
X87815Y103199D01*
D02*
G37*
G36*
X85090D02*
X84905D01*
X82095Y102446D01*
X79576Y100991D01*
X77519Y98934D01*
X76064Y96415D01*
X75311Y93605D01*
Y93420D01*
X85090D01*
Y103199D01*
D02*
G37*
G36*
X407289Y90880D02*
X397510D01*
Y81101D01*
X397695D01*
X400505Y81854D01*
X403024Y83309D01*
X405081Y85366D01*
X406536Y87885D01*
X407289Y90695D01*
Y90880D01*
D02*
G37*
G36*
X394970D02*
X385191D01*
Y90695D01*
X385944Y87885D01*
X387399Y85366D01*
X389456Y83309D01*
X391975Y81854D01*
X394785Y81101D01*
X394970D01*
Y90880D01*
D02*
G37*
G36*
X97409Y90880D02*
X87630D01*
Y81101D01*
X87815D01*
X90625Y81854D01*
X93144Y83309D01*
X95201Y85366D01*
X96656Y87885D01*
X97409Y90695D01*
Y90880D01*
D02*
G37*
G36*
X85090D02*
X75311D01*
Y90695D01*
X76064Y87885D01*
X77519Y85366D01*
X79576Y83309D01*
X82095Y81854D01*
X84905Y81101D01*
X85090D01*
Y90880D01*
D02*
G37*
G36*
X331258Y95099D02*
X328622D01*
X326077Y94417D01*
X323794Y93099D01*
X321931Y91236D01*
X320613Y88953D01*
X319931Y86408D01*
Y83772D01*
X320613Y81227D01*
X321931Y78944D01*
X323794Y77081D01*
X326077Y75763D01*
X328622Y75081D01*
X331258D01*
X333803Y75763D01*
X336086Y77081D01*
X337949Y78944D01*
X339267Y81227D01*
X339949Y83772D01*
Y86408D01*
X339267Y88953D01*
X337949Y91236D01*
X336086Y93099D01*
X333803Y94417D01*
X331258Y95099D01*
D02*
G37*
G36*
X296258D02*
X293622D01*
X291077Y94417D01*
X288794Y93099D01*
X286931Y91236D01*
X285613Y88953D01*
X284931Y86408D01*
Y83772D01*
X285613Y81227D01*
X286931Y78944D01*
X288794Y77081D01*
X291077Y75763D01*
X293622Y75081D01*
X296258D01*
X298803Y75763D01*
X301086Y77081D01*
X302949Y78944D01*
X304267Y81227D01*
X304949Y83772D01*
Y86408D01*
X304267Y88953D01*
X302949Y91236D01*
X301086Y93099D01*
X298803Y94417D01*
X296258Y95099D01*
D02*
G37*
G36*
X261258D02*
X258622D01*
X256077Y94417D01*
X253794Y93099D01*
X251931Y91236D01*
X250613Y88953D01*
X249931Y86408D01*
Y83772D01*
X250613Y81227D01*
X251931Y78944D01*
X253794Y77081D01*
X256077Y75763D01*
X258622Y75081D01*
X261258D01*
X263803Y75763D01*
X266086Y77081D01*
X267949Y78944D01*
X269267Y81227D01*
X269949Y83772D01*
Y86408D01*
X269267Y88953D01*
X267949Y91236D01*
X266086Y93099D01*
X263803Y94417D01*
X261258Y95099D01*
D02*
G37*
G36*
X226258D02*
X223622D01*
X221077Y94417D01*
X218794Y93099D01*
X216931Y91236D01*
X215613Y88953D01*
X214931Y86408D01*
Y83772D01*
X215613Y81227D01*
X216931Y78944D01*
X218794Y77081D01*
X221077Y75763D01*
X223622Y75081D01*
X226258D01*
X228803Y75763D01*
X231086Y77081D01*
X232949Y78944D01*
X234267Y81227D01*
X234949Y83772D01*
Y86408D01*
X234267Y88953D01*
X232949Y91236D01*
X231086Y93099D01*
X228803Y94417D01*
X226258Y95099D01*
D02*
G37*
G36*
X191258D02*
X188622D01*
X186077Y94417D01*
X183794Y93099D01*
X181931Y91236D01*
X180613Y88953D01*
X179931Y86408D01*
Y83772D01*
X180613Y81227D01*
X181931Y78944D01*
X183794Y77081D01*
X186077Y75763D01*
X188622Y75081D01*
X191258D01*
X193803Y75763D01*
X196086Y77081D01*
X197949Y78944D01*
X199267Y81227D01*
X199949Y83772D01*
Y86408D01*
X199267Y88953D01*
X197949Y91236D01*
X196086Y93099D01*
X193803Y94417D01*
X191258Y95099D01*
D02*
G37*
G36*
X156258D02*
X153622D01*
X151077Y94417D01*
X148794Y93099D01*
X146931Y91236D01*
X145613Y88953D01*
X144931Y86408D01*
Y83772D01*
X145613Y81227D01*
X146931Y78944D01*
X148794Y77081D01*
X151077Y75763D01*
X153622Y75081D01*
X156258D01*
X158803Y75763D01*
X161086Y77081D01*
X162949Y78944D01*
X164267Y81227D01*
X164949Y83772D01*
Y86408D01*
X164267Y88953D01*
X162949Y91236D01*
X161086Y93099D01*
X158803Y94417D01*
X156258Y95099D01*
D02*
G37*
G36*
X57150Y79130D02*
Y74930D01*
X61350D01*
X60577Y76798D01*
X59018Y78357D01*
X57150Y79130D01*
D02*
G37*
G36*
X54610D02*
X52742Y78357D01*
X51183Y76798D01*
X50410Y74930D01*
X54610D01*
Y79130D01*
D02*
G37*
G36*
X436880Y76590D02*
Y72390D01*
X441080D01*
X440307Y74258D01*
X438748Y75817D01*
X436880Y76590D01*
D02*
G37*
G36*
X434340D02*
X432472Y75817D01*
X430913Y74258D01*
X430140Y72390D01*
X434340D01*
Y76590D01*
D02*
G37*
G36*
X61350Y72390D02*
X57150D01*
Y68190D01*
X59018Y68963D01*
X60577Y70522D01*
X61350Y72390D01*
D02*
G37*
G36*
X54610D02*
X50410D01*
X51183Y70522D01*
X52742Y68963D01*
X54610Y68190D01*
Y72390D01*
D02*
G37*
G36*
X441080Y69850D02*
X436880D01*
Y65650D01*
X438748Y66423D01*
X440307Y67982D01*
X441080Y69850D01*
D02*
G37*
G36*
X434340D02*
X430140D01*
X430913Y67982D01*
X432472Y66423D01*
X434340Y65650D01*
Y69850D01*
D02*
G37*
G36*
X397695Y68199D02*
X397510D01*
Y58420D01*
X407289D01*
Y58605D01*
X406536Y61415D01*
X405081Y63934D01*
X403024Y65991D01*
X400505Y67446D01*
X397695Y68199D01*
D02*
G37*
G36*
X87815D02*
X87630D01*
Y58420D01*
X97409D01*
Y58605D01*
X96656Y61415D01*
X95201Y63934D01*
X93144Y65991D01*
X90625Y67446D01*
X87815Y68199D01*
D02*
G37*
G36*
X85090D02*
X84905D01*
X82095Y67446D01*
X79576Y65991D01*
X77519Y63934D01*
X76064Y61415D01*
X75311Y58605D01*
Y58420D01*
X85090D01*
Y68199D01*
D02*
G37*
G36*
X394970D02*
X394785D01*
X391975Y67446D01*
X389456Y65991D01*
X387399Y63934D01*
X385944Y61415D01*
X385191Y58605D01*
Y58420D01*
X394970D01*
Y68199D01*
D02*
G37*
G36*
X314960Y55000D02*
Y50800D01*
X319160D01*
X318387Y52668D01*
X316828Y54227D01*
X314960Y55000D01*
D02*
G37*
G36*
X312420D02*
X310552Y54227D01*
X308993Y52668D01*
X308220Y50800D01*
X312420D01*
Y55000D01*
D02*
G37*
G36*
X278130D02*
Y50800D01*
X282330D01*
X281557Y52668D01*
X279998Y54227D01*
X278130Y55000D01*
D02*
G37*
G36*
X275590D02*
X273722Y54227D01*
X272163Y52668D01*
X271390Y50800D01*
X275590D01*
Y55000D01*
D02*
G37*
G36*
X243840Y53730D02*
Y49530D01*
X248040D01*
X247267Y51398D01*
X245708Y52957D01*
X243840Y53730D01*
D02*
G37*
G36*
X241300D02*
X239432Y52957D01*
X237873Y51398D01*
X237100Y49530D01*
X241300D01*
Y53730D01*
D02*
G37*
G36*
X209550D02*
Y49530D01*
X213750D01*
X212977Y51398D01*
X211418Y52957D01*
X209550Y53730D01*
D02*
G37*
G36*
X207010D02*
X205142Y52957D01*
X203583Y51398D01*
X202810Y49530D01*
X207010D01*
Y53730D01*
D02*
G37*
G36*
X407289Y55880D02*
X397510D01*
Y46101D01*
X397695D01*
X400505Y46854D01*
X403024Y48309D01*
X405081Y50366D01*
X406536Y52885D01*
X407289Y55695D01*
Y55880D01*
D02*
G37*
G36*
X394970D02*
X385191D01*
Y55695D01*
X385944Y52885D01*
X387399Y50366D01*
X389456Y48309D01*
X391975Y46854D01*
X394785Y46101D01*
X394970D01*
Y55880D01*
D02*
G37*
G36*
X97409D02*
X87630D01*
Y46101D01*
X87815D01*
X90625Y46854D01*
X93144Y48309D01*
X95201Y50366D01*
X96656Y52885D01*
X97409Y55695D01*
Y55880D01*
D02*
G37*
G36*
X85090D02*
X75311D01*
Y55695D01*
X76064Y52885D01*
X77519Y50366D01*
X79576Y48309D01*
X82095Y46854D01*
X84905Y46101D01*
X85090D01*
Y55880D01*
D02*
G37*
G36*
X319160Y48260D02*
X314960D01*
Y44060D01*
X316828Y44833D01*
X318387Y46392D01*
X319160Y48260D01*
D02*
G37*
G36*
X312420D02*
X308220D01*
X308993Y46392D01*
X310552Y44833D01*
X312420Y44060D01*
Y48260D01*
D02*
G37*
G36*
X282330D02*
X278130D01*
Y44060D01*
X279998Y44833D01*
X281557Y46392D01*
X282330Y48260D01*
D02*
G37*
G36*
X275590D02*
X271390D01*
X272163Y46392D01*
X273722Y44833D01*
X275590Y44060D01*
Y48260D01*
D02*
G37*
G36*
X248040Y46990D02*
X243840D01*
Y42790D01*
X245708Y43563D01*
X247267Y45122D01*
X248040Y46990D01*
D02*
G37*
G36*
X241300D02*
X237100D01*
X237873Y45122D01*
X239432Y43563D01*
X241300Y42790D01*
Y46990D01*
D02*
G37*
G36*
X213750D02*
X209550D01*
Y42790D01*
X211418Y43563D01*
X212977Y45122D01*
X213750Y46990D01*
D02*
G37*
G36*
X207010D02*
X202810D01*
X203583Y45122D01*
X205142Y43563D01*
X207010Y42790D01*
Y46990D01*
D02*
G37*
G36*
X24588Y39700D02*
X24130D01*
Y23430D01*
X40400D01*
Y23888D01*
X39726Y27276D01*
X38404Y30468D01*
X36484Y33341D01*
X34041Y35784D01*
X31168Y37704D01*
X27976Y39026D01*
X24588Y39700D01*
D02*
G37*
G36*
X21590D02*
X21133D01*
X17744Y39026D01*
X14552Y37704D01*
X11679Y35784D01*
X9236Y33341D01*
X7316Y30468D01*
X5994Y27276D01*
X5320Y23888D01*
Y23430D01*
X21590D01*
Y39700D01*
D02*
G37*
G36*
X458325Y39696D02*
X457868D01*
Y23426D01*
X474138D01*
Y23883D01*
X473464Y27272D01*
X472142Y30464D01*
X470222Y33337D01*
X467779Y35780D01*
X464906Y37699D01*
X461714Y39021D01*
X458325Y39696D01*
D02*
G37*
G36*
X455328D02*
X454870D01*
X451482Y39021D01*
X448290Y37699D01*
X445417Y35780D01*
X442974Y33337D01*
X441054Y30464D01*
X439732Y27272D01*
X439058Y23883D01*
Y23426D01*
X455328D01*
Y39696D01*
D02*
G37*
G36*
X40400Y20890D02*
X24130D01*
Y4620D01*
X24588D01*
X27976Y5294D01*
X31168Y6616D01*
X34041Y8536D01*
X36484Y10979D01*
X38404Y13852D01*
X39726Y17044D01*
X40400Y20433D01*
Y20890D01*
D02*
G37*
G36*
X21590D02*
X5320D01*
Y20433D01*
X5994Y17044D01*
X7316Y13852D01*
X9236Y10979D01*
X11679Y8536D01*
X14552Y6616D01*
X17744Y5294D01*
X21133Y4620D01*
X21590D01*
Y20890D01*
D02*
G37*
G36*
X474138Y20886D02*
X457868D01*
Y4616D01*
X458325D01*
X461714Y5290D01*
X464906Y6612D01*
X467779Y8531D01*
X470222Y10975D01*
X472142Y13847D01*
X473464Y17039D01*
X474138Y20428D01*
Y20886D01*
D02*
G37*
G36*
X455328D02*
X439058D01*
Y20428D01*
X439732Y17039D01*
X441054Y13847D01*
X442974Y10975D01*
X445417Y8531D01*
X448290Y6612D01*
X451482Y5290D01*
X454870Y4616D01*
X455328D01*
Y20886D01*
D02*
G37*
%LPD*%
D32*
X396240Y57150D02*
D03*
Y92150D02*
D03*
Y127150D02*
D03*
Y162150D02*
D03*
Y197150D02*
D03*
Y232150D02*
D03*
X86360Y459890D02*
D03*
Y424890D02*
D03*
Y389890D02*
D03*
Y354890D02*
D03*
Y319890D02*
D03*
Y284890D02*
D03*
Y57150D02*
D03*
Y92150D02*
D03*
Y127150D02*
D03*
Y162150D02*
D03*
Y197150D02*
D03*
Y232150D02*
D03*
X396240Y688080D02*
D03*
Y653080D02*
D03*
Y618080D02*
D03*
Y583080D02*
D03*
Y548080D02*
D03*
Y513080D02*
D03*
Y287990D02*
D03*
Y322990D02*
D03*
Y357990D02*
D03*
Y392990D02*
D03*
Y427990D02*
D03*
Y462990D02*
D03*
X329940Y85090D02*
D03*
X294940D02*
D03*
X259940D02*
D03*
X224940D02*
D03*
X189940D02*
D03*
X154940D02*
D03*
X86360Y512930D02*
D03*
Y547930D02*
D03*
Y582930D02*
D03*
Y617930D02*
D03*
Y652930D02*
D03*
Y687930D02*
D03*
D38*
X195570Y601190D02*
D03*
D39*
X242570Y631190D02*
D03*
D40*
Y571190D02*
D03*
D41*
X133350Y403860D02*
D03*
X415290Y722630D02*
D03*
X377190D02*
D03*
X328930D02*
D03*
X137160D02*
D03*
X85090D02*
D03*
X342900Y138430D02*
D03*
X345440Y217170D02*
D03*
X354330Y350520D02*
D03*
Y377190D02*
D03*
X347980Y421640D02*
D03*
Y464820D02*
D03*
Y499110D02*
D03*
Y528320D02*
D03*
Y553720D02*
D03*
Y591820D02*
D03*
X331470Y642620D02*
D03*
Y666750D02*
D03*
Y693420D02*
D03*
X154940Y609600D02*
D03*
Y635000D02*
D03*
Y661670D02*
D03*
Y689610D02*
D03*
X261620Y607060D02*
D03*
X242570D02*
D03*
X222250D02*
D03*
X279400Y641350D02*
D03*
X205740Y642620D02*
D03*
X279400Y701040D02*
D03*
Y687070D02*
D03*
X205740Y701040D02*
D03*
Y688340D02*
D03*
X279400Y674370D02*
D03*
Y656590D02*
D03*
X205740Y659130D02*
D03*
Y674370D02*
D03*
X263167Y657018D02*
D03*
X222250Y659130D02*
D03*
X262890Y674370D02*
D03*
X222250D02*
D03*
X242570D02*
D03*
Y657860D02*
D03*
X147320Y426720D02*
D03*
Y464820D02*
D03*
X121920Y427990D02*
D03*
X201930Y447040D02*
D03*
Y464820D02*
D03*
X172720D02*
D03*
X123190D02*
D03*
X152400Y504190D02*
D03*
X124460D02*
D03*
X234950Y278130D02*
D03*
X303530Y269240D02*
D03*
X173990Y220980D02*
D03*
X287020Y219710D02*
D03*
X289560Y138430D02*
D03*
X176530Y139700D02*
D03*
X313690Y49530D02*
D03*
X276860D02*
D03*
X242570Y48260D02*
D03*
X208280D02*
D03*
X435610Y71120D02*
D03*
Y106680D02*
D03*
Y142240D02*
D03*
Y179070D02*
D03*
Y213360D02*
D03*
X440690Y299720D02*
D03*
Y337820D02*
D03*
Y374650D02*
D03*
Y408940D02*
D03*
X439420Y444500D02*
D03*
Y529590D02*
D03*
Y563880D02*
D03*
X438872Y598227D02*
D03*
X438150Y633730D02*
D03*
X438117Y669386D02*
D03*
X55880Y73660D02*
D03*
X54610Y107950D02*
D03*
Y143510D02*
D03*
Y179070D02*
D03*
X53340Y213360D02*
D03*
X52070Y302260D02*
D03*
Y335280D02*
D03*
X50800Y372110D02*
D03*
Y406400D02*
D03*
Y441960D02*
D03*
Y528320D02*
D03*
Y565150D02*
D03*
Y600710D02*
D03*
Y635000D02*
D03*
Y670560D02*
D03*
X276860Y361950D02*
D03*
X265430Y379730D02*
D03*
X252730Y360680D02*
D03*
X168910Y363220D02*
D03*
X156210Y379730D02*
D03*
X241300Y375920D02*
D03*
Y350520D02*
D03*
X142240Y364490D02*
D03*
D42*
X22860Y721330D02*
D03*
X456598Y22156D02*
D03*
X456600Y721328D02*
D03*
X22860Y22160D02*
D03*
M02*
