G04*
G04 #@! TF.GenerationSoftware,Altium Limited,Altium Designer,25.8.1 (18)*
G04*
G04 Layer_Color=32896*
%FSLAX44Y44*%
%MOMM*%
G71*
G04*
G04 #@! TF.SameCoordinates,5923BA5B-ABCF-4B3D-8C2E-468CF12D829E*
G04*
G04*
G04 #@! TF.FilePolarity,Positive*
G04*
G01*
G75*
%ADD11C,0.5080*%
%ADD17C,0.2540*%
D11*
X379730Y57655D02*
G03*
X379730Y57655I-3810J0D01*
G01*
X110490Y459385D02*
G03*
X110490Y459385I-3810J0D01*
G01*
Y231645D02*
G03*
X110490Y231645I-3810J0D01*
G01*
X379730Y513585D02*
G03*
X379730Y513585I-3810J0D01*
G01*
Y288495D02*
G03*
X379730Y288495I-3810J0D01*
G01*
X159255Y105410D02*
G03*
X159255Y105410I-3810J0D01*
G01*
X110490Y687425D02*
G03*
X110490Y687425I-3810J0D01*
G01*
D17*
X429259Y240328D02*
X434338D01*
X431798D01*
Y227632D01*
X434338Y225093D01*
X436877D01*
X439416Y227632D01*
X424181Y237788D02*
X421642Y240328D01*
X416563D01*
X414024Y237788D01*
Y235249D01*
X416563Y232710D01*
X414024Y230171D01*
Y227632D01*
X416563Y225093D01*
X421642D01*
X424181Y227632D01*
Y230171D01*
X421642Y232710D01*
X424181Y235249D01*
Y237788D01*
X421642Y232710D02*
X416563D01*
X60959Y289408D02*
X66038D01*
X63498D01*
Y276712D01*
X66038Y274172D01*
X68577D01*
X71116Y276712D01*
X55881Y289408D02*
X45724D01*
Y286868D01*
X55881Y276712D01*
Y274172D01*
X426719Y471167D02*
X431797D01*
X429258D01*
Y458472D01*
X431797Y455933D01*
X434337D01*
X436876Y458472D01*
X411484Y455933D02*
X421641D01*
X411484Y466089D01*
Y468628D01*
X414023Y471167D01*
X419102D01*
X421641Y468628D01*
X62229Y243988D02*
X67308D01*
X64768D01*
Y231292D01*
X67308Y228752D01*
X69847D01*
X72386Y231292D01*
X46994Y243988D02*
X52073Y241448D01*
X57151Y236370D01*
Y231292D01*
X54612Y228752D01*
X49533D01*
X46994Y231292D01*
Y233831D01*
X49533Y236370D01*
X57151D01*
X60959Y699768D02*
X66038D01*
X63498D01*
Y687072D01*
X66038Y684532D01*
X68577D01*
X71116Y687072D01*
X45724Y699768D02*
X55881D01*
Y692150D01*
X50802Y694689D01*
X48263D01*
X45724Y692150D01*
Y687072D01*
X48263Y684532D01*
X53342D01*
X55881Y687072D01*
X242569Y694688D02*
X247647D01*
X245108D01*
Y681992D01*
X247647Y679453D01*
X250187D01*
X252726Y681992D01*
X229873Y679453D02*
Y694688D01*
X237491Y687070D01*
X227334D01*
X422910Y698497D02*
X427988D01*
X425449D01*
Y685802D01*
X427988Y683262D01*
X430527D01*
X433067Y685802D01*
X417832Y683262D02*
X412753D01*
X415292D01*
Y698497D01*
X417832Y695958D01*
X162555Y63498D02*
X167633D01*
X165094D01*
Y50802D01*
X167633Y48263D01*
X170173D01*
X172712Y50802D01*
X157477Y60958D02*
X154937Y63498D01*
X149859D01*
X147320Y60958D01*
Y58419D01*
X149859Y55880D01*
X152398D01*
X149859D01*
X147320Y53341D01*
Y50802D01*
X149859Y48263D01*
X154937D01*
X157477Y50802D01*
M02*
