G04*
G04 #@! TF.GenerationSoftware,Altium Limited,Altium Designer,25.8.1 (18)*
G04*
G04 Layer_Color=16711935*
%FSLAX44Y44*%
%MOMM*%
G71*
G04*
G04 #@! TF.SameCoordinates,5923BA5B-ABCF-4B3D-8C2E-468CF12D829E*
G04*
G04*
G04 #@! TF.FilePolarity,Negative*
G04*
G01*
G75*
%ADD32C,1.7018*%
%ADD33O,2.4532X4.7032*%
%ADD34O,4.7032X2.4532*%
%ADD35O,5.2032X2.7032*%
%ADD36C,3.2032*%
D32*
X396240Y57150D02*
D03*
Y92150D02*
D03*
Y127150D02*
D03*
Y162150D02*
D03*
Y197150D02*
D03*
Y232150D02*
D03*
X86360Y459890D02*
D03*
Y424890D02*
D03*
Y389890D02*
D03*
Y354890D02*
D03*
Y319890D02*
D03*
Y284890D02*
D03*
Y57150D02*
D03*
Y92150D02*
D03*
Y127150D02*
D03*
Y162150D02*
D03*
Y197150D02*
D03*
Y232150D02*
D03*
X396240Y688080D02*
D03*
Y653080D02*
D03*
Y618080D02*
D03*
Y583080D02*
D03*
Y548080D02*
D03*
Y513080D02*
D03*
Y287990D02*
D03*
Y322990D02*
D03*
Y357990D02*
D03*
Y392990D02*
D03*
Y427990D02*
D03*
Y462990D02*
D03*
X329940Y85090D02*
D03*
X294940D02*
D03*
X259940D02*
D03*
X224940D02*
D03*
X189940D02*
D03*
X154940D02*
D03*
X86360Y512930D02*
D03*
Y547930D02*
D03*
Y582930D02*
D03*
Y617930D02*
D03*
Y652930D02*
D03*
Y687930D02*
D03*
D33*
X195570Y601190D02*
D03*
D34*
X242570Y631190D02*
D03*
D35*
Y571190D02*
D03*
D36*
X22860Y721330D02*
D03*
X456598Y22156D02*
D03*
X456600Y721328D02*
D03*
X22860Y22160D02*
D03*
M02*
