ISO-10303-21;
HEADER;

/* File generated by Shapr3D Version 26.0.10296.0 */

FILE_DESCRIPTION(('HOOPS Exchange Step'),'2;1');

FILE_NAME('C:\\Users\\Ruben\\AppData\\Local\\Packages\\Shapr3D.Shapr3D_dvv5p1vgwv6mp\\TempState\\export\\temp_export',
'2026-01-29T19:11:34+01:00',
('Ruben'),
('Shapr3D Limited'),
'HOOPS Exchange 2025.9',
'Shapr3D',
'Authorized');

FILE_SCHEMA( ('AP242_MANAGED_MODEL_BASED_3D_ENGINEERING_MIM_LF {1 0 10303 442 1 1 4}') );

ENDSEC;

DATA;
#3=(NAMED_UNIT(*)PLANE_ANGLE_UNIT()SI_UNIT($,.RADIAN.));
#4=PLANE_ANGLE_MEASURE_WITH_UNIT(PLANE_ANGLE_MEASURE(0.0174532925),#3);
#5=(CONVERSION_BASED_UNIT('DEGREE',#4)NAMED_UNIT(#6)PLANE_ANGLE_UNIT());
#6=DIMENSIONAL_EXPONENTS(0.,0.,0.,0.,0.,0.,0.);
#7=(NAMED_UNIT(*)SI_UNIT($,.STERADIAN.)SOLID_ANGLE_UNIT());
#8=(LENGTH_UNIT()NAMED_UNIT(*)SI_UNIT(.MILLI.,.METRE.));
#9=UNCERTAINTY_MEASURE_WITH_UNIT(LENGTH_MEASURE(1.000000E-03),#8,'DISTANCE_ACCURACY_VALUE','Maximum Tolerance applied to model');
#10=(GEOMETRIC_REPRESENTATION_CONTEXT(3)GLOBAL_UNCERTAINTY_ASSIGNED_CONTEXT((#9))GLOBAL_UNIT_ASSIGNED_CONTEXT((#8,#5,#7))REPRESENTATION_CONTEXT('','root'));
#12=CARTESIAN_POINT('',(0.,0.,0.));
#13=DIRECTION('',(0.,0.,1.));
#14=DIRECTION('',(1.,0.,0.));
#15=AXIS2_PLACEMENT_3D('',#12,#13,#14);
#26=(NAMED_UNIT(*)PLANE_ANGLE_UNIT()SI_UNIT($,.RADIAN.));
#27=PLANE_ANGLE_MEASURE_WITH_UNIT(PLANE_ANGLE_MEASURE(0.0174532925),#26);
#28=(CONVERSION_BASED_UNIT('DEGREE',#27)NAMED_UNIT(#29)PLANE_ANGLE_UNIT());
#29=DIMENSIONAL_EXPONENTS(0.,0.,0.,0.,0.,0.,0.);
#30=(NAMED_UNIT(*)SI_UNIT($,.STERADIAN.)SOLID_ANGLE_UNIT());
#31=(LENGTH_UNIT()NAMED_UNIT(*)SI_UNIT(.MILLI.,.METRE.));
#32=UNCERTAINTY_MEASURE_WITH_UNIT(LENGTH_MEASURE(1.000000E-05),#31,'DISTANCE_ACCURACY_VALUE','Maximum Tolerance applied to model');
#33=(GEOMETRIC_REPRESENTATION_CONTEXT(3)GLOBAL_UNCERTAINTY_ASSIGNED_CONTEXT((#32))GLOBAL_UNIT_ASSIGNED_CONTEXT((#31,#28,#30))REPRESENTATION_CONTEXT('','Kleinkopffu\S\_'));
#45=CARTESIAN_POINT('',(0.,0.,0.));
#46=DIRECTION('',(0.,0.,1.));
#47=DIRECTION('',(1.,0.,-0.));
#48=AXIS2_PLACEMENT_3D('',#45,#46,#47);
#49=ITEM_DEFINED_TRANSFORMATION('','',#48,#15);
#50=(REPRESENTATION_RELATIONSHIP('','',#35,#16)REPRESENTATION_RELATIONSHIP_WITH_TRANSFORMATION(#49)SHAPE_REPRESENTATION_RELATIONSHIP());
#51=NEXT_ASSEMBLY_USAGE_OCCURRENCE('Kleinkopffu\S\__1','Kleinkopffu\S\_','Kleinkopffu\S\_',#25,#44,$);
#52=PRODUCT_DEFINITION_SHAPE('','',#51);
#53=CONTEXT_DEPENDENT_SHAPE_REPRESENTATION(#50,#52);
#55=CARTESIAN_POINT('',(461.713749357,860.088622921,-12.1));
#56=DIRECTION('',(0.,0.,-1.));
#57=DIRECTION('',(-1.,0.,-0.));
#58=AXIS2_PLACEMENT_3D('',#55,#56,#57);
#59=CYLINDRICAL_SURFACE('',#58,4.);
#60=CARTESIAN_POINT('',(457.713749357,860.088622921,-27.1));
#61=VERTEX_POINT('',#60);
#62=CARTESIAN_POINT('',(457.713749357,860.088622921,-14.1));
#63=VERTEX_POINT('',#62);
#64=CARTESIAN_POINT('',(457.713749357,860.088622921,-27.1));
#65=DIRECTION('',(-0.,-0.,1.));
#66=VECTOR('',#65,13.);
#67=LINE('',#64,#66);
#68=EDGE_CURVE('',#61,#63,#67,.T.);
#69=ORIENTED_EDGE('',*,*,#68,.T.);
#70=CARTESIAN_POINT('',(463.713749357,856.624521306,-20.1));
#71=VERTEX_POINT('',#70);
#72=CARTESIAN_POINT('',(461.713749357,860.088622921,-16.1));
#73=DIRECTION('',(0.353553391,-0.612372436,0.707106781));
#74=DIRECTION('',(0.353553391,-0.612372436,-0.707106781));
#75=AXIS2_PLACEMENT_3D('',#72,#73,#74);
#76=ELLIPSE('',#75,5.656854249,4.);
#77=EDGE_CURVE('',#71,#63,#76,.T.);
#78=ORIENTED_EDGE('',*,*,#77,.F.);
#79=CARTESIAN_POINT('',(461.713749357,860.088622921,-16.1));
#80=DIRECTION('',(0.353553391,-0.612372436,0.707106781));
#81=DIRECTION('',(0.353553391,-0.612372436,-0.707106781));
#82=AXIS2_PLACEMENT_3D('',#79,#80,#81);
#83=ELLIPSE('',#82,5.656854249,4.);
#84=EDGE_CURVE('',#63,#71,#83,.T.);
#85=ORIENTED_EDGE('',*,*,#84,.F.);
#86=ORIENTED_EDGE('',*,*,#68,.F.);
#87=CARTESIAN_POINT('',(465.713749357,860.088622921,-27.1));
#88=VERTEX_POINT('',#87);
#89=CARTESIAN_POINT('',(461.713749357,860.088622921,-27.1));
#90=DIRECTION('',(-0.,-0.,1.));
#91=DIRECTION('',(1.,0.,0.));
#92=AXIS2_PLACEMENT_3D('',#89,#90,#91);
#93=CIRCLE('',#92,4.);
#94=EDGE_CURVE('',#61,#88,#93,.T.);
#95=ORIENTED_EDGE('',*,*,#94,.T.);
#96=CARTESIAN_POINT('',(461.713749357,860.088622921,-27.1));
#97=DIRECTION('',(-0.,-0.,1.));
#98=DIRECTION('',(1.,0.,0.));
#99=AXIS2_PLACEMENT_3D('',#96,#97,#98);
#100=CIRCLE('',#99,4.);
#101=EDGE_CURVE('',#88,#61,#100,.T.);
#102=ORIENTED_EDGE('',*,*,#101,.T.);
#103=EDGE_LOOP('',(#69,#78,#85,#86,#95,#102));
#104=FACE_BOUND('',#103,.T.);
#105=ADVANCED_FACE('',(#104),#59,.T.);
#106=CARTESIAN_POINT('',(461.713749357,860.088622921,-12.1));
#107=DIRECTION('',(0.,0.,-1.));
#108=DIRECTION('',(-1.,0.,-0.));
#109=AXIS2_PLACEMENT_3D('',#106,#107,#108);
#110=CYLINDRICAL_SURFACE('',#109,2.);
#111=CARTESIAN_POINT('',(459.713749357,860.088622921,-27.1));
#112=VERTEX_POINT('',#111);
#113=CARTESIAN_POINT('',(459.713749357,860.088622921,-15.1));
#114=VERTEX_POINT('',#113);
#115=CARTESIAN_POINT('',(459.713749357,860.088622921,-27.1));
#116=DIRECTION('',(-0.,-0.,1.));
#117=VECTOR('',#116,12.);
#118=LINE('',#115,#117);
#119=EDGE_CURVE('',#112,#114,#118,.T.);
#120=ORIENTED_EDGE('',*,*,#119,.F.);
#121=CARTESIAN_POINT('',(463.713749357,860.088622921,-27.1));
#122=VERTEX_POINT('',#121);
#123=CARTESIAN_POINT('',(461.713749357,860.088622921,-27.1));
#124=DIRECTION('',(-0.,-0.,1.));
#125=DIRECTION('',(1.,0.,0.));
#126=AXIS2_PLACEMENT_3D('',#123,#124,#125);
#127=CIRCLE('',#126,2.);
#128=EDGE_CURVE('',#122,#112,#127,.T.);
#129=ORIENTED_EDGE('',*,*,#128,.F.);
#130=CARTESIAN_POINT('',(461.713749357,860.088622921,-27.1));
#131=DIRECTION('',(-0.,-0.,1.));
#132=DIRECTION('',(1.,0.,0.));
#133=AXIS2_PLACEMENT_3D('',#130,#131,#132);
#134=CIRCLE('',#133,2.);
#135=EDGE_CURVE('',#112,#122,#134,.T.);
#136=ORIENTED_EDGE('',*,*,#135,.F.);
#137=ORIENTED_EDGE('',*,*,#119,.T.);
#138=CARTESIAN_POINT('',(462.713749357,858.356572113,-18.1));
#139=VERTEX_POINT('',#138);
#140=CARTESIAN_POINT('',(461.713749357,860.088622921,-16.1));
#141=DIRECTION('',(0.353553391,-0.612372436,0.707106781));
#142=DIRECTION('',(0.353553391,-0.612372436,-0.707106781));
#143=AXIS2_PLACEMENT_3D('',#140,#141,#142);
#144=ELLIPSE('',#143,2.828427125,2.);
#145=EDGE_CURVE('',#114,#139,#144,.T.);
#146=ORIENTED_EDGE('',*,*,#145,.T.);
#147=CARTESIAN_POINT('',(461.713749357,860.088622921,-16.1));
#148=DIRECTION('',(0.353553391,-0.612372436,0.707106781));
#149=DIRECTION('',(0.353553391,-0.612372436,-0.707106781));
#150=AXIS2_PLACEMENT_3D('',#147,#148,#149);
#151=ELLIPSE('',#150,2.828427125,2.);
#152=EDGE_CURVE('',#139,#114,#151,.T.);
#153=ORIENTED_EDGE('',*,*,#152,.T.);
#154=EDGE_LOOP('',(#120,#129,#136,#137,#146,#153));
#155=FACE_BOUND('',#154,.T.);
#156=ADVANCED_FACE('',(#155),#110,.F.);
#157=CARTESIAN_POINT('',(467.419767323,850.205509895,-27.1));
#158=DIRECTION('',(-0.,-0.,1.));
#159=DIRECTION('',(-1.,0.,-0.));
#160=AXIS2_PLACEMENT_3D('',#157,#158,#159);
#161=PLANE('',#160);
#162=ORIENTED_EDGE('',*,*,#94,.F.);
#163=ORIENTED_EDGE('',*,*,#101,.F.);
#164=EDGE_LOOP('',(#162,#163));
#165=FACE_BOUND('',#164,.T.);
#166=ORIENTED_EDGE('',*,*,#128,.T.);
#167=ORIENTED_EDGE('',*,*,#135,.T.);
#168=EDGE_LOOP('',(#166,#167));
#169=FACE_BOUND('',#168,.T.);
#170=ADVANCED_FACE('',(#165,#169),#161,.F.);
#171=CARTESIAN_POINT('',(442.603945419,844.776231532,-19.806017966));
#172=DIRECTION('',(0.353553391,-0.612372436,0.707106781));
#173=DIRECTION('',(0.,-0.755928946,-0.654653671));
#174=AXIS2_PLACEMENT_3D('',#171,#172,#173);
#175=PLANE('',#174);
#176=ORIENTED_EDGE('',*,*,#145,.F.);
#177=ORIENTED_EDGE('',*,*,#152,.F.);
#178=EDGE_LOOP('',(#176,#177));
#179=FACE_BOUND('',#178,.T.);
#180=ORIENTED_EDGE('',*,*,#77,.T.);
#181=ORIENTED_EDGE('',*,*,#84,.T.);
#182=EDGE_LOOP('',(#180,#181));
#183=FACE_BOUND('',#182,.T.);
#184=ADVANCED_FACE('',(#179,#183),#175,.T.);
#185=CLOSED_SHELL('',(#105,#156,#170,#184));
#186=MANIFOLD_SOLID_BREP('Gewindehalter 1',#185);
#187=COLOUR_RGB('',0.627451003,0.627451003,0.643137276);
#188=FILL_AREA_STYLE_COLOUR('',#187);
#189=FILL_AREA_STYLE('',(#188));
#190=SURFACE_STYLE_FILL_AREA(#189);
#191=SURFACE_SIDE_STYLE('',(#190));
#192=SURFACE_STYLE_USAGE(.BOTH.,#191);
#193=PRESENTATION_STYLE_ASSIGNMENT((#192));
#54=STYLED_ITEM('',(#193),#186);
#35=SHAPE_REPRESENTATION('Kleinkopffu\S\_',(#15),#33);
#36=ADVANCED_BREP_SHAPE_REPRESENTATION('Kleinkopffu\S\_',(#186),#33);
#201=SHAPE_REPRESENTATION_RELATIONSHIP('','',#35,#36);
#202=CARTESIAN_POINT('',(0.,0.,0.));
#203=DIRECTION('',(0.,0.,1.));
#204=DIRECTION('',(1.,0.,0.));
#205=AXIS2_PLACEMENT_3D('',#202,#203,#204);
#207=MAPPED_ITEM('',#206,#205);
#206=REPRESENTATION_MAP(#205,#35);
#208=APPLICATION_CONTEXT('Managed model based 3d engineering');
#209=APPLICATION_PROTOCOL_DEFINITION('international standard','ap242_managed_model_based_3d_engineering',2014,#208);
#210=PRODUCT_CONTEXT('',#208,'mechanical');
#211=PRODUCT_DEFINITION_CONTEXT('part definition',#208,'design');
#43=PRODUCT('Kleinkopffu\S\_','Kleinkopffu\S\_','',(#210));
#212=PRODUCT_RELATED_PRODUCT_CATEGORY('part','',(#43));
#213=PRODUCT_DEFINITION_FORMATION_WITH_SPECIFIED_SOURCE('','',#43,.NOT_KNOWN.);
#44=PRODUCT_DEFINITION('design','',#213,#211);
#42=PRODUCT_DEFINITION_SHAPE('','',#44);
#214=SHAPE_DEFINITION_REPRESENTATION(#42,#35);
#34=DRAUGHTING_MODEL('',(#207),#33);
#16=SHAPE_REPRESENTATION('root',(#15,#48),#10);
#215=CARTESIAN_POINT('',(0.,0.,0.));
#216=DIRECTION('',(0.,0.,1.));
#217=DIRECTION('',(1.,0.,0.));
#218=AXIS2_PLACEMENT_3D('',#215,#216,#217);
#220=MAPPED_ITEM('',#219,#218);
#219=REPRESENTATION_MAP(#218,#16);
#24=PRODUCT('root','root','',(#210));
#221=PRODUCT_RELATED_PRODUCT_CATEGORY('part','',(#24));
#222=PRODUCT_DEFINITION_FORMATION_WITH_SPECIFIED_SOURCE('','',#24,.NOT_KNOWN.);
#25=PRODUCT_DEFINITION('design','',#222,#211);
#23=PRODUCT_DEFINITION_SHAPE('','',#25);
#223=SHAPE_DEFINITION_REPRESENTATION(#23,#16);
#11=DRAUGHTING_MODEL('',(#220),#10);
#224=DESCRIPTIVE_REPRESENTATION_ITEM('KEY','C:\\Users\\Ruben\\AppData\\Local\\Packages\\Shapr3D.Shapr3D_dvv5p1vgwv6mp\\TempState\\d7648ba3-6eff-4de2-80b4-97fc2c1f0d50.tmp');
#225=PROPERTY_DEFINITION('KEY','',#25);
#226=REPRESENTATION('',(#224),#10);
#227=PROPERTY_DEFINITION_REPRESENTATION(#225,#226);
#228=GENERAL_PROPERTY('','KEY','');
#229=GENERAL_PROPERTY_ASSOCIATION('','',#228,#225);
#1=MECHANICAL_DESIGN_GEOMETRIC_PRESENTATION_REPRESENTATION('',(#54),#10);
ENDSEC;
END-ISO-10303-21;
