M48
;Layer_Color=9474304
;FILE_FORMAT=4:4
METRIC,LZ
;TYPE=PLATED
T01F00S00C0.3210
T03F00S00C1.1938
T04F00S00C2.5000
%
T01
X0043561Y0007112
Y0010668
Y0014224
Y0017907
Y0021336
X0034544Y0021717
X0028702Y0021971
X0028956Y0013843
X003429
X0031369Y0004953
X0027686
X0024257Y0004826
X0020828
X0017653Y001397
X0017399Y0022098
X0005334Y0021336
X0005461Y0017907
Y0014351
Y0010795
X0005588Y0007366
X0005207Y0030226
Y0033528
X000508Y0037211
Y004064
Y0044196
X0012192Y0042799
X0014732Y0042672
X0013335Y0040386
X0015621Y0037973
X0016891Y0036322
X0014224Y0036449
X0014732Y0046482
X0012319
X0012446Y0050419
X001524
X0017272Y0046482
X0020193
Y0044704
X002413Y0037592
Y0035052
X0025273Y0036068
X0027686Y0036195
X0026543Y0037973
X0035433Y0037719
Y0035052
X0034798Y0042164
Y0046482
Y0049911
Y0052832
Y0055372
Y0059182
X0026162Y0060706
X0024257
X0022225
X0015494Y006096
X000508Y0060071
Y0056515
Y0052832
X0023495Y0027813
X0030353Y0026924
X0044069Y0029972
Y0033782
Y0037465
Y0040894
X0043942Y004445
Y0052959
Y0056388
X00438872Y00598227
X0043815Y0063373
X00438117Y00669386
X0041529Y0072263
X0037719
X0032893
X0033147Y0069342
Y0066675
Y0064262
X002794Y0064135
Y0065659
X00263167Y00657018
X0026289Y0067437
X002794
Y0068707
Y0070104
X0024257Y0067437
Y0065786
X0022225Y0065913
Y0067437
X0020574
Y0068834
Y0070104
Y0065913
Y0064262
X0015494Y00635
Y0066167
Y0068961
X0013716Y0072263
X0008509
X000508Y0067056
Y00635
T03
X0008636Y0005715
Y0009215
Y0012715
Y0016215
Y0019715
Y0023215
X0015494Y0008509
X0018994
X0022494
X0025994
X0029494
X0032994
X0039624Y0009215
Y0012715
Y0016215
Y0019715
Y0023215
Y0005715
Y0028799
Y0032299
Y0035799
Y0039299
Y0042799
Y0046299
Y0051308
Y0054808
Y0058308
Y0061808
X0008636Y0061793
Y0058293
Y0054793
Y0051293
Y0045989
Y0042489
Y0038989
Y0035489
Y0031989
Y0028489
Y0065293
Y0068793
X0039624Y0068808
Y0065308
T04
X00456598Y00022156
X0002286Y0002216
X004566Y00721328
X0002286Y0072133
M30
