M48
;Layer_Color=9474304
;FILE_FORMAT=4:4
METRIC,LZ
;TYPE=PLATED
T01F00S00C0.3000
T02F00S00C0.6000
T04F00S00C0.7000
T05F00S00C0.8000
T06F00S00C0.9900
T07F00S00C1.0000
T08F00S00C1.0668
T09F00S00C1.0922
T10F00S00C1.1000
T11F00S00C1.4000
T12F00S00C3.0480
T13F00S00C4.5000
;TYPE=NON_PLATED
T14F00S00C0.6500
T15F00S00C1.0922
%
T01
X00029248Y00087457
X00066078Y00086187
X0010287Y0008636
X00162598Y00084917
X00255308Y00082377
X00289598
X00325158Y00079837
X00322618Y00020147
X00354368Y00021417
X00407708Y00022687
X00455968Y00021417
X00490258Y00020147
X00378498Y00128097
X0053975Y0011303
X00538518Y00083647
X0053721Y0005588
X00535326Y00021006
X00577888Y00018877
X00579158Y00053167
X00627418Y00050627
X00690918Y00049357
X00758228
X00828078Y00048087
X00886498Y00045547
X00960158Y00062057
X00996988
X01019848Y00109047
X01137958Y00123017
X01136688Y00083647
X01137958Y00168737
X01136688Y00213187
X01101128Y00258907
X01049058Y00260177
X01074458Y00302087
X01080808Y00337647
X01050328Y00341457
X01118908
X01139228Y00379557
Y00406227
Y00436707
X01140498Y00468457
X01139228Y00493857
X01014768Y00492587
X01009688Y00455757
X01021118Y00398607
X00932218Y00366857
X0093726Y0032639
X0093472Y0029337
X00994448Y00225887
Y00197947
X01019848Y00175087
Y00144607
X01026198Y00531957
X00966508Y00493857
X008255Y0050292
X0081261Y00502124
X0082296Y0047879
X00819188Y00434167
X0083058Y0040259
X00867448Y00368127
X00866178Y00336377
X00863638Y00302087
X00862368Y00263987
X00902419Y00235501
X0091567Y0024638
X0083566Y0021082
X00764578Y00209377
X00762038Y00243667
X00741718Y00290657
X00750608Y00331297
X00760768Y00356697
X00730288Y00359237
X00732828Y00425277
X0074549Y0044704
X0077089Y0047117
X0074041Y0051308
X0065786Y0049022
Y0047879
Y0046609
X0066802Y0045466
X0066929Y0041656
X0066167Y0039878
X00653582Y00391962
X0062992Y0038862
X00619581Y00394827
X0064008Y0041402
X0064262Y0043815
X0057658Y0043307
Y0046228
X0058166Y0049403
X005842Y0052197
X0054565Y00514565
X00536475Y0052374
Y0050539
X0054565Y00496215
X00536475Y0048704
X005273Y00496215
Y00514565
X0052959Y0046101
Y0043561
X0064897Y0032639
X00655358Y00281767
X00651548Y00236047
X00679488Y00206837
X00709968Y00224617
X00701964Y00270935
X00695998Y00308437
X00786168
X00753148Y00404957
X00749338Y00183977
X00541058Y00175087
X0054102Y0019685
X0053975Y0015367
X00378498Y00154767
X0033909Y0015367
X0028702
X00217208Y00200487
X0021971Y0023241
X00219748Y00267797
Y00307167
X00261658Y00305897
Y00266527
X00299758Y00265257
X00301028Y00304627
X0031496Y0040894
Y0042672
X00320078Y00454487
X0032004Y0048514
X0028702Y0048641
X00285788Y00454487
X0024765Y0045339
Y0048768
X00167678Y00468457
X00166755Y00422882
X00166408Y00378287
Y00328757
X00165138Y00270337
X0016383Y0023495
X00163868Y00203027
Y00145877
X00168948Y00514177
X0042672Y0051308
X00418845Y0049661
X004191Y0047625
X0042418Y004699
X0043307Y0046482
X0048514Y0046609
X0048641Y0043688
X00518125Y0048704
Y0050539
X0050895Y00496215
Y00514565
X00518125Y0052374
X0042291Y0038608
X0044196Y0034036
X0010414Y0032893
X00060998Y00327487
X00059728Y00274147
X0006096Y0024003
X00064808Y00206837
X00027978
Y00148417
X00065315Y00147126
X0010414Y0014859
Y0020574
Y0023622
Y0027305
X0010541Y00381
X00064808Y00378287
X00025438Y00382097
X00026708Y00427817
X00066078Y00422737
X0010541Y0042545
X0010668Y004699
X00066078Y00468457
X00029248Y00470997
X00027978Y00511637
X00064808
X0010668Y0051562
Y0056007
X00154978Y00559897
X00199428Y00558627
X00257848
X00309918Y00557357
X0048006Y0055372
X0047879Y0058039
X0053213Y0057912
X0053086Y0055372
X005842Y0055245
Y0057912
X0064389Y0055499
X00716318Y00568787
X00732828Y00542117
X00951268Y00553547
X00929678Y00576407
X01021118Y00571327
X01068108Y00545927
T02
X00527271Y00505067
X00527361Y00523788
X00546129Y00524033
X00546232Y00505451
X00546101Y00486997
X00526978Y00487366
X00508531Y00487243
X00508839Y00505259
X00508512Y00524278
T04
X0040513Y0033655
X0033909Y0053213
T05
X0022987Y0002159
X0024987
X0026987
T06
X0104938Y001199
X0109438
Y001849
X0104938
X0105065Y0042724
X0109565
Y0049224
X0105065
T07
X0033147Y0019812
T08
X0012192Y000381
X0014732
T09
X0110157Y0023353
Y0037853
X0105157
T10
X0096774Y0013335
Y0015875
Y0018415
Y0020955
Y0023495
Y0026035
Y0028575
Y0031115
Y0033655
Y0036195
Y0038735
Y0041275
Y0043815
Y0046355
X000254Y0033655
Y0031115
Y0028575
Y0026035
T11
X0020837Y0002159
X0029137
T12
X0102157Y0030353
X0113157
T13
X0003556Y0003937
X0112903
X0003556Y0055245
X0112903
T14
X0079914Y0052835
X0085694
T15
X0105157Y0023353
X0107657Y0037853
M30
