M48
;Layer_Color=9474304
;FILE_FORMAT=4:4
METRIC,LZ
;TYPE=PLATED
T01F00S00C0.3500
T02F00S00C0.4500
T04F00S00C0.7000
T05F00S00C0.8000
T06F00S00C1.0200
T07F00S00C1.1000
T08F00S00C1.2000
T09F00S00C1.4000
T10F00S00C3.2000
;TYPE=NON_PLATED
T11F00S00C3.0000
%
T01
X00069576Y00019728
X00094576Y00069728
X00044576
X00019576Y00119728
X00069576
X00119576
X00169576
X00219576
X00269576
X00244576Y00069728
X00194576
X00144576
X00169576Y00019728
X00219576
X00269576
X00319576
X00369576
X00344576Y00069728
X00294576
X00424586Y00125488
X00469576Y00119728
X00119576Y00019728
X00519576Y00119728
X00519017Y0015326
X00569576Y00119728
X00619576
X00669576
X00654779Y00152796
X00644576Y00069728
X00686206Y00079768
X00719576Y00119728
X00737006Y00031508
X00768756Y00055638
X00844576Y00069728
X00851217Y0003219
X0086614Y0009779
X00869576Y00119728
X00894576Y00069728
X00944576
X00936396Y00035318
X00988466Y00072148
X01044576Y00069728
X01094576
X01069576Y00119728
X00969576
X01019576Y00019728
X01058341Y00019452
X01044576Y00169728
X01094576
X01069576Y00219728
X0103251Y0020828
X01044576Y00269728
X00994576
X0096901Y0031369
X0093726
X0090678Y0032004
X00944576Y00369728
X00994576
X01044576
X01094576
X01111656Y00418858
X01069576Y00419728
X01019576
X00969576
X01044576Y00469728
X01090066Y00467118
X01069576Y00319728
X01019576
X00994576Y00169728
X00944576
X00844576
X00794576
X00744576
X00694576
X00706696Y00216043
X00669576Y00219728
X0066802Y002921
X00669576Y00319728
X00719576
X0070993Y0035941
X00744576Y00369728
X00769576Y00419728
X00719576
X00669576
X00644533Y00397468
X00619576Y00419728
X00594576Y00369728
X00619576Y00319728
X00644576Y00269728
X00694576
X005842Y0027432
X0058674Y0024511
X0059055Y0020193
X00594576Y00169728
X00520728Y00245081
X0051308Y0042545
X00544576Y00469728
X0052705Y0051689
X00569576Y00519728
X00619576
X0077216Y0050292
X00794576Y00469728
X0081661Y0044577
X0085598Y0044704
X00844576Y00469728
X00880877Y00469971
X0089281Y004445
X00869576Y00419728
X0086868Y0036322
X00894576Y00369728
X008763Y0032004
X0084582
X00819576Y00319728
X0081915Y003556
X00769576Y00319728
Y00219728
X00869576
X00894576Y00269728
X00844576
X0083185Y0050419
X0087474Y00508002
X0079629Y0053467
X00744576Y00469728
X00469576Y00419728
X0046355Y0038354
X0046228Y0035306
X00494959Y00343223
X00494576Y00369728
X00394576
X0039497Y0039878
X00419576Y00419728
X00369576
X00330606Y00411238
X00293776Y00435368
X0025781Y0044069
X0026543Y004191
X00169576Y00419728
X00127406Y00426478
X00119576Y00519728
X00169576
X00219576
X00269576
X00319576
X00369576
X00419576
Y00319728
X0047731Y00245081
X00494576Y00169728
X00394576
X00369576Y00219728
X00322986Y00223278
X00294576Y00269728
X00269576Y00319728
X00225196Y00326148
X00194576Y00369728
X00144576Y00269728
X00119576Y00219728
X00169576
X00194576Y00169728
X00144576
X00244576
X00094576
X00044576
X00019576Y00219728
X00069576
X00094576Y00269728
X00044576
X00019576Y00319728
X00069576
X00044576Y00369728
X00019576Y00419728
Y00519728
Y00619728
X00094576Y00569728
X00144576
X00194576
X00244576
X00294576
X00344576
X00394576
X00419576Y00619728
X00369576
X00319576
X00269576
X00219576
X00169576
X00119576
X00294576Y00769728
X00344576
X00394576
X00444576
X00494576
X00544576
X00594576
X00619576Y00719728
X00569576
X00519576
X0052705Y0062103
X00569576Y00619728
X00619576
X0061976Y0065659
X0066929Y0060198
X00644576Y00569728
X00594576
X00544576
X00753516Y00572528
Y00599198
Y00628408
X00753386Y00661611
X00753516Y00694448
X00795426Y00708418
X0079502Y0072898
X00819576Y00719728
X00819556Y00696234
X0082042Y0066929
X00794576Y00669728
X0079375Y0063881
X0081915Y0063754
X00830986Y00591578
X00795426Y00601738
X00794576Y00569728
X008128Y0077216
X0089281Y0076073
X00715416Y00732548
X009144Y0077343
X0093472Y0075946
X01044576Y00769728
X01043589Y00739372
X01019576Y00719728
X01069576
X0105761Y00579203
X01105964Y00577469
X0093853Y0057785
X0092075Y0063881
T02
X00877952Y00578041
X0089027Y0063881
X0092075Y0057785
X0097282Y0059055
T04
X0110617Y0048514
Y0050514
T05
X0064707Y0076327
X0066707
X0068707
T06
X0012806Y0046228
X0015346
X0017886
X0020426
X0022966
X0025506
X0028046
X0030586
X0033126
X0035666
X0038206
X0040746
X0043286
X0045826
X0010266
Y0071628
X0012806
X0015346
X0017886
X0020426
X0022966
X0025506
X0028046
X0030586
X0033126
X0035666
X0038206
X0040746
X0043286
X0045826
T07
X0055245Y0013716
Y0016129
Y0018796
Y0021336
Y0023876
Y0026416
Y0028956
Y0031496
T08
X0079475Y0007406
Y0012406
X0091975
Y0007406
X0091848Y0022497
Y0027497
X0097128
Y0022497
X0109628
Y0027497
X0091848Y0037632
Y0042632
X0079348
Y0037632
Y0027497
Y0022497
X0073687
Y0027497
X0061187
Y0022497
T09
X0062557Y0076327
X0070857
T10
X0003048Y0003048
X0109601Y0002921
X00029906Y00757459
X0109601Y0075692
T11
X0049256Y0046648
X0002306
Y0071158
X0049256
M30
