ISO-10303-21;
HEADER;

/* File generated by Shapr3D Version 26.0.10296.0 */

FILE_DESCRIPTION(('HOOPS Exchange Step'),'2;1');

FILE_NAME('C:\\Users\\Ruben\\AppData\\Local\\Packages\\Shapr3D.Shapr3D_dvv5p1vgwv6mp\\TempState\\export\\temp_export',
'2026-01-28T22:47:55+01:00',
('Ruben'),
('Shapr3D Limited'),
'HOOPS Exchange 2025.9',
'Shapr3D',
'Authorized');

FILE_SCHEMA( ('AP242_MANAGED_MODEL_BASED_3D_ENGINEERING_MIM_LF {1 0 10303 442 1 1 4}') );

ENDSEC;

DATA;
#3=(NAMED_UNIT(*)PLANE_ANGLE_UNIT()SI_UNIT($,.RADIAN.));
#4=PLANE_ANGLE_MEASURE_WITH_UNIT(PLANE_ANGLE_MEASURE(0.0174532925),#3);
#5=(CONVERSION_BASED_UNIT('DEGREE',#4)NAMED_UNIT(#6)PLANE_ANGLE_UNIT());
#6=DIMENSIONAL_EXPONENTS(0.,0.,0.,0.,0.,0.,0.);
#7=(NAMED_UNIT(*)SI_UNIT($,.STERADIAN.)SOLID_ANGLE_UNIT());
#8=(LENGTH_UNIT()NAMED_UNIT(*)SI_UNIT(.MILLI.,.METRE.));
#9=UNCERTAINTY_MEASURE_WITH_UNIT(LENGTH_MEASURE(1.000000E-03),#8,'DISTANCE_ACCURACY_VALUE','Maximum Tolerance applied to model');
#10=(GEOMETRIC_REPRESENTATION_CONTEXT(3)GLOBAL_UNCERTAINTY_ASSIGNED_CONTEXT((#9))GLOBAL_UNIT_ASSIGNED_CONTEXT((#8,#5,#7))REPRESENTATION_CONTEXT('','root'));
#12=CARTESIAN_POINT('',(0.,0.,0.));
#13=DIRECTION('',(0.,0.,1.));
#14=DIRECTION('',(1.,0.,0.));
#15=AXIS2_PLACEMENT_3D('',#12,#13,#14);
#26=(NAMED_UNIT(*)PLANE_ANGLE_UNIT()SI_UNIT($,.RADIAN.));
#27=PLANE_ANGLE_MEASURE_WITH_UNIT(PLANE_ANGLE_MEASURE(0.0174532925),#26);
#28=(CONVERSION_BASED_UNIT('DEGREE',#27)NAMED_UNIT(#29)PLANE_ANGLE_UNIT());
#29=DIMENSIONAL_EXPONENTS(0.,0.,0.,0.,0.,0.,0.);
#30=(NAMED_UNIT(*)SI_UNIT($,.STERADIAN.)SOLID_ANGLE_UNIT());
#31=(LENGTH_UNIT()NAMED_UNIT(*)SI_UNIT(.MILLI.,.METRE.));
#32=UNCERTAINTY_MEASURE_WITH_UNIT(LENGTH_MEASURE(1.000000E-03),#31,'DISTANCE_ACCURACY_VALUE','Maximum Tolerance applied to model');
#33=(GEOMETRIC_REPRESENTATION_CONTEXT(3)GLOBAL_UNCERTAINTY_ASSIGNED_CONTEXT((#32))GLOBAL_UNIT_ASSIGNED_CONTEXT((#31,#28,#30))REPRESENTATION_CONTEXT('','kleinkopffuss.step'));
#45=CARTESIAN_POINT('',(0.,0.,0.));
#46=DIRECTION('',(0.,0.,1.));
#47=DIRECTION('',(1.,0.,-0.));
#48=AXIS2_PLACEMENT_3D('',#45,#46,#47);
#49=ITEM_DEFINED_TRANSFORMATION('','',#48,#15);
#50=(REPRESENTATION_RELATIONSHIP('','',#35,#16)REPRESENTATION_RELATIONSHIP_WITH_TRANSFORMATION(#49)SHAPE_REPRESENTATION_RELATIONSHIP());
#51=NEXT_ASSEMBLY_USAGE_OCCURRENCE('kleinkopffuss.step_1','kleinkopffuss.step','kleinkopffuss.step',#25,#44,$);
#52=PRODUCT_DEFINITION_SHAPE('','',#51);
#53=CONTEXT_DEPENDENT_SHAPE_REPRESENTATION(#50,#52);
#54=(NAMED_UNIT(*)PLANE_ANGLE_UNIT()SI_UNIT($,.RADIAN.));
#55=PLANE_ANGLE_MEASURE_WITH_UNIT(PLANE_ANGLE_MEASURE(0.0174532925),#54);
#56=(CONVERSION_BASED_UNIT('DEGREE',#55)NAMED_UNIT(#57)PLANE_ANGLE_UNIT());
#57=DIMENSIONAL_EXPONENTS(0.,0.,0.,0.,0.,0.,0.);
#58=(NAMED_UNIT(*)SI_UNIT($,.STERADIAN.)SOLID_ANGLE_UNIT());
#59=(LENGTH_UNIT()NAMED_UNIT(*)SI_UNIT(.MILLI.,.METRE.));
#60=UNCERTAINTY_MEASURE_WITH_UNIT(LENGTH_MEASURE(1.000000E-03),#59,'DISTANCE_ACCURACY_VALUE','Maximum Tolerance applied to model');
#61=(GEOMETRIC_REPRESENTATION_CONTEXT(3)GLOBAL_UNCERTAINTY_ASSIGNED_CONTEXT((#60))GLOBAL_UNIT_ASSIGNED_CONTEXT((#59,#56,#58))REPRESENTATION_CONTEXT('','kleinkopffuss.step'));
#73=CARTESIAN_POINT('',(0.,0.,0.));
#74=DIRECTION('',(0.,0.,1.));
#75=DIRECTION('',(1.,0.,-0.));
#76=AXIS2_PLACEMENT_3D('',#73,#74,#75);
#77=ITEM_DEFINED_TRANSFORMATION('','',#76,#15);
#78=(REPRESENTATION_RELATIONSHIP('','',#63,#35)REPRESENTATION_RELATIONSHIP_WITH_TRANSFORMATION(#77)SHAPE_REPRESENTATION_RELATIONSHIP());
#79=NEXT_ASSEMBLY_USAGE_OCCURRENCE('kleinkopffuss.step_2','kleinkopffuss.step','kleinkopffuss.step',#44,#72,$);
#80=PRODUCT_DEFINITION_SHAPE('','',#79);
#81=CONTEXT_DEPENDENT_SHAPE_REPRESENTATION(#78,#80);
#82=(NAMED_UNIT(*)PLANE_ANGLE_UNIT()SI_UNIT($,.RADIAN.));
#83=PLANE_ANGLE_MEASURE_WITH_UNIT(PLANE_ANGLE_MEASURE(0.0174532925),#82);
#84=(CONVERSION_BASED_UNIT('DEGREE',#83)NAMED_UNIT(#85)PLANE_ANGLE_UNIT());
#85=DIMENSIONAL_EXPONENTS(0.,0.,0.,0.,0.,0.,0.);
#86=(NAMED_UNIT(*)SI_UNIT($,.STERADIAN.)SOLID_ANGLE_UNIT());
#87=(LENGTH_UNIT()NAMED_UNIT(*)SI_UNIT(.MILLI.,.METRE.));
#88=UNCERTAINTY_MEASURE_WITH_UNIT(LENGTH_MEASURE(1.000000E-05),#87,'DISTANCE_ACCURACY_VALUE','Maximum Tolerance applied to model');
#89=(GEOMETRIC_REPRESENTATION_CONTEXT(3)GLOBAL_UNCERTAINTY_ASSIGNED_CONTEXT((#88))GLOBAL_UNIT_ASSIGNED_CONTEXT((#87,#84,#86))REPRESENTATION_CONTEXT('','Kleinkopffu\S\_'));
#101=CARTESIAN_POINT('',(0.,0.,0.));
#102=DIRECTION('',(0.,0.,1.));
#103=DIRECTION('',(1.,0.,-0.));
#104=AXIS2_PLACEMENT_3D('',#101,#102,#103);
#105=ITEM_DEFINED_TRANSFORMATION('','',#104,#15);
#106=(REPRESENTATION_RELATIONSHIP('','',#91,#63)REPRESENTATION_RELATIONSHIP_WITH_TRANSFORMATION(#105)SHAPE_REPRESENTATION_RELATIONSHIP());
#107=NEXT_ASSEMBLY_USAGE_OCCURRENCE('Kleinkopffu\S\__3','Kleinkopffu\S\_','Kleinkopffu\S\_',#72,#100,$);
#108=PRODUCT_DEFINITION_SHAPE('','',#107);
#109=CONTEXT_DEPENDENT_SHAPE_REPRESENTATION(#106,#108);
#111=CARTESIAN_POINT('',(599.623002342,72.063341737,72.437743572));
#112=DIRECTION('',(0.,-1.,0.));
#113=DIRECTION('',(0.,0.,-1.));
#114=AXIS2_PLACEMENT_3D('',#111,#112,#113);
#115=PLANE('',#114);
#116=CARTESIAN_POINT('',(599.623002342,72.063341737,43.937743572));
#117=VERTEX_POINT('',#116);
#118=CARTESIAN_POINT('',(599.623002342,72.063341737,37.937743572));
#119=VERTEX_POINT('',#118);
#120=CARTESIAN_POINT('',(599.623002342,72.063341737,40.937743572));
#121=DIRECTION('',(0.,-1.,0.));
#122=DIRECTION('',(0.,0.,-1.));
#123=AXIS2_PLACEMENT_3D('',#120,#121,#122);
#124=CIRCLE('',#123,3.);
#125=EDGE_CURVE('',#117,#119,#124,.T.);
#126=ORIENTED_EDGE('',*,*,#125,.F.);
#127=CARTESIAN_POINT('',(599.623002342,72.063341737,40.937743572));
#128=DIRECTION('',(0.,-1.,0.));
#129=DIRECTION('',(0.,0.,-1.));
#130=AXIS2_PLACEMENT_3D('',#127,#128,#129);
#131=CIRCLE('',#130,3.);
#132=EDGE_CURVE('',#119,#117,#131,.T.);
#133=ORIENTED_EDGE('',*,*,#132,.F.);
#134=EDGE_LOOP('',(#126,#133));
#135=FACE_BOUND('',#134,.T.);
#136=CARTESIAN_POINT('',(616.344439351,72.063341737,70.437743572));
#137=VERTEX_POINT('',#136);
#138=CARTESIAN_POINT('',(616.344439351,72.063341737,9.437743572));
#139=VERTEX_POINT('',#138);
#140=CARTESIAN_POINT('',(616.344439351,72.063341737,70.437743572));
#141=DIRECTION('',(0.,0.,-1.));
#142=VECTOR('',#141,61.);
#143=LINE('',#140,#142);
#144=EDGE_CURVE('',#137,#139,#143,.T.);
#145=ORIENTED_EDGE('',*,*,#144,.F.);
#146=CARTESIAN_POINT('',(582.901565333,72.063341737,70.437743572));
#147=VERTEX_POINT('',#146);
#148=CARTESIAN_POINT('',(616.344439351,72.063341737,70.437743572));
#149=DIRECTION('',(-1.,0.,0.));
#150=VECTOR('',#149,33.442874018);
#151=LINE('',#148,#150);
#152=EDGE_CURVE('',#137,#147,#151,.T.);
#153=ORIENTED_EDGE('',*,*,#152,.T.);
#154=CARTESIAN_POINT('',(582.901565333,72.063341737,9.437743572));
#155=VERTEX_POINT('',#154);
#156=CARTESIAN_POINT('',(582.901565333,72.063341737,70.437743572));
#157=DIRECTION('',(0.,0.,-1.));
#158=VECTOR('',#157,61.);
#159=LINE('',#156,#158);
#160=EDGE_CURVE('',#147,#155,#159,.T.);
#161=ORIENTED_EDGE('',*,*,#160,.T.);
#162=CARTESIAN_POINT('',(616.344439351,72.063341737,9.437743572));
#163=DIRECTION('',(-1.,0.,0.));
#164=VECTOR('',#163,33.442874018);
#165=LINE('',#162,#164);
#166=EDGE_CURVE('',#139,#155,#165,.T.);
#167=ORIENTED_EDGE('',*,*,#166,.F.);
#168=EDGE_LOOP('',(#145,#153,#161,#167));
#169=FACE_BOUND('',#168,.T.);
#170=ADVANCED_FACE('',(#135,#169),#115,.T.);
#171=CARTESIAN_POINT('',(599.623002342,9.043629333,72.437743572));
#172=DIRECTION('',(-0.,1.,0.));
#173=DIRECTION('',(-1.,-0.,0.));
#174=AXIS2_PLACEMENT_3D('',#171,#172,#173);
#175=PLANE('',#174);
#176=CARTESIAN_POINT('',(582.901565333,9.043629333,70.437743572));
#177=VERTEX_POINT('',#176);
#178=CARTESIAN_POINT('',(582.901565333,9.043629333,9.437743572));
#179=VERTEX_POINT('',#178);
#180=CARTESIAN_POINT('',(582.901565333,9.043629333,70.437743572));
#181=DIRECTION('',(0.,0.,-1.));
#182=VECTOR('',#181,61.);
#183=LINE('',#180,#182);
#184=EDGE_CURVE('',#177,#179,#183,.T.);
#185=ORIENTED_EDGE('',*,*,#184,.F.);
#186=CARTESIAN_POINT('',(616.344439351,9.043629333,70.437743572));
#187=VERTEX_POINT('',#186);
#188=CARTESIAN_POINT('',(582.901565333,9.043629333,70.437743572));
#189=DIRECTION('',(1.,0.,0.));
#190=VECTOR('',#189,33.442874018);
#191=LINE('',#188,#190);
#192=EDGE_CURVE('',#177,#187,#191,.T.);
#193=ORIENTED_EDGE('',*,*,#192,.T.);
#194=CARTESIAN_POINT('',(616.344439351,9.043629333,9.437743572));
#195=VERTEX_POINT('',#194);
#196=CARTESIAN_POINT('',(616.344439351,9.043629333,70.437743572));
#197=DIRECTION('',(0.,0.,-1.));
#198=VECTOR('',#197,61.);
#199=LINE('',#196,#198);
#200=EDGE_CURVE('',#187,#195,#199,.T.);
#201=ORIENTED_EDGE('',*,*,#200,.T.);
#202=CARTESIAN_POINT('',(582.901565333,9.043629333,9.437743572));
#203=DIRECTION('',(1.,0.,0.));
#204=VECTOR('',#203,33.442874018);
#205=LINE('',#202,#204);
#206=EDGE_CURVE('',#179,#195,#205,.T.);
#207=ORIENTED_EDGE('',*,*,#206,.F.);
#208=EDGE_LOOP('',(#185,#193,#201,#207));
#209=FACE_BOUND('',#208,.T.);
#210=ADVANCED_FACE('',(#209),#175,.T.);
#211=CARTESIAN_POINT('',(599.623002342,53.900026904,-586.462256428));
#212=DIRECTION('',(0.,-1.,0.));
#213=DIRECTION('',(-1.,0.,0.));
#214=AXIS2_PLACEMENT_3D('',#211,#212,#213);
#215=PLANE('',#214);
#216=CARTESIAN_POINT('',(599.623002342,53.900026904,43.937743572));
#217=VERTEX_POINT('',#216);
#218=CARTESIAN_POINT('',(599.623002342,53.900026904,37.937743572));
#219=VERTEX_POINT('',#218);
#220=CARTESIAN_POINT('',(599.623002342,53.900026904,40.937743572));
#221=DIRECTION('',(0.,-1.,0.));
#222=DIRECTION('',(0.,0.,-1.));
#223=AXIS2_PLACEMENT_3D('',#220,#221,#222);
#224=CIRCLE('',#223,3.);
#225=EDGE_CURVE('',#217,#219,#224,.T.);
#226=ORIENTED_EDGE('',*,*,#225,.F.);
#227=CARTESIAN_POINT('',(599.623002342,53.900026904,40.937743572));
#228=DIRECTION('',(0.,-1.,0.));
#229=DIRECTION('',(0.,0.,-1.));
#230=AXIS2_PLACEMENT_3D('',#227,#228,#229);
#231=CIRCLE('',#230,3.);
#232=EDGE_CURVE('',#219,#217,#231,.T.);
#233=ORIENTED_EDGE('',*,*,#232,.F.);
#234=EDGE_LOOP('',(#226,#233));
#235=FACE_BOUND('',#234,.T.);
#236=CARTESIAN_POINT('',(606.816982597,53.900026904,36.079517414));
#237=VERTEX_POINT('',#236);
#238=CARTESIAN_POINT('',(606.816985656,53.900026904,35.079517414));
#239=VERTEX_POINT('',#238);
#240=CARTESIAN_POINT('',(606.816982597,53.900026904,36.079517414));
#241=DIRECTION('',(0.000003059,0.,-1.));
#242=VECTOR('',#241,1.);
#243=LINE('',#240,#242);
#244=EDGE_CURVE('',#237,#239,#243,.T.);
#245=ORIENTED_EDGE('',*,*,#244,.T.);
#246=CARTESIAN_POINT('',(592.416981859,53.900022545,35.079473361));
#247=VERTEX_POINT('',#246);
#248=CARTESIAN_POINT('',(606.816985656,53.900026904,35.079517414));
#249=DIRECTION('',(-1.,0.,-0.000003059));
#250=VECTOR('',#249,14.4);
#251=LINE('',#248,#250);
#252=EDGE_CURVE('',#239,#247,#251,.T.);
#253=ORIENTED_EDGE('',*,*,#252,.T.);
#254=CARTESIAN_POINT('',(592.416981336,53.90002164,34.758392661));
#255=VERTEX_POINT('',#254);
#256=CARTESIAN_POINT('',(592.416984375,53.900026904,34.758392661));
#257=DIRECTION('',(-0.,-0.,1.));
#258=VECTOR('',#257,0.3210807);
#259=LINE('',#256,#258);
#260=EDGE_CURVE('',#255,#247,#259,.T.);
#261=ORIENTED_EDGE('',*,*,#260,.F.);
#262=CARTESIAN_POINT('',(592.416984375,53.900026904,1.437743572));
#263=VERTEX_POINT('',#262);
#264=CARTESIAN_POINT('',(592.416984375,53.900026904,1.437743572));
#265=DIRECTION('',(-0.,-0.,1.));
#266=VECTOR('',#265,33.320649089);
#267=LINE('',#264,#266);
#268=EDGE_CURVE('',#263,#255,#267,.T.);
#269=ORIENTED_EDGE('',*,*,#268,.F.);
#270=CARTESIAN_POINT('',(606.829020309,53.900026904,1.437743572));
#271=VERTEX_POINT('',#270);
#272=CARTESIAN_POINT('',(592.416984375,53.900026904,1.437743572));
#273=DIRECTION('',(1.,-0.,-0.));
#274=VECTOR('',#273,14.412035933);
#275=LINE('',#272,#274);
#276=EDGE_CURVE('',#263,#271,#275,.T.);
#277=ORIENTED_EDGE('',*,*,#276,.T.);
#278=CARTESIAN_POINT('',(606.829020308,53.900026904,34.758458517));
#279=VERTEX_POINT('',#278);
#280=CARTESIAN_POINT('',(606.829020308,53.900026904,1.437743572));
#281=DIRECTION('',(-0.,-0.,1.));
#282=VECTOR('',#281,33.320714945);
#283=LINE('',#280,#282);
#284=EDGE_CURVE('',#271,#279,#283,.T.);
#285=ORIENTED_EDGE('',*,*,#284,.T.);
#286=CARTESIAN_POINT('',(606.829023348,53.90002164,36.625940842));
#287=VERTEX_POINT('',#286);
#288=CARTESIAN_POINT('',(606.829020308,53.900026904,34.758458517));
#289=DIRECTION('',(-0.,-0.,1.));
#290=VECTOR('',#289,1.867482325);
#291=LINE('',#288,#290);
#292=EDGE_CURVE('',#279,#287,#291,.T.);
#293=ORIENTED_EDGE('',*,*,#292,.T.);
#294=CARTESIAN_POINT('',(606.829020308,53.900026904,64.537743572));
#295=VERTEX_POINT('',#294);
#296=CARTESIAN_POINT('',(606.829020308,53.900026904,36.625940842));
#297=DIRECTION('',(-0.,-0.,1.));
#298=VECTOR('',#297,27.91180273);
#299=LINE('',#296,#298);
#300=EDGE_CURVE('',#287,#295,#299,.T.);
#301=ORIENTED_EDGE('',*,*,#300,.T.);
#302=CARTESIAN_POINT('',(592.416984375,53.900026904,64.537743572));
#303=VERTEX_POINT('',#302);
#304=CARTESIAN_POINT('',(592.416984375,53.900026904,64.537743572));
#305=DIRECTION('',(1.,0.,-0.));
#306=VECTOR('',#305,14.412035933);
#307=LINE('',#304,#306);
#308=EDGE_CURVE('',#303,#295,#307,.T.);
#309=ORIENTED_EDGE('',*,*,#308,.F.);
#310=CARTESIAN_POINT('',(592.416984375,53.900026904,56.025229669));
#311=VERTEX_POINT('',#310);
#312=CARTESIAN_POINT('',(592.416984375,53.900026904,56.025229669));
#313=DIRECTION('',(-0.,-0.,1.));
#314=VECTOR('',#313,8.512513903);
#315=LINE('',#312,#314);
#316=EDGE_CURVE('',#311,#303,#315,.T.);
#317=ORIENTED_EDGE('',*,*,#316,.F.);
#318=CARTESIAN_POINT('',(606.816984375,53.900026904,56.025229669));
#319=VERTEX_POINT('',#318);
#320=CARTESIAN_POINT('',(606.816984375,53.900026904,56.025229669));
#321=DIRECTION('',(-1.,0.,0.));
#322=VECTOR('',#321,14.4);
#323=LINE('',#320,#322);
#324=EDGE_CURVE('',#319,#311,#323,.T.);
#325=ORIENTED_EDGE('',*,*,#324,.F.);
#326=CARTESIAN_POINT('',(606.816984375,53.900026904,51.025229669));
#327=VERTEX_POINT('',#326);
#328=CARTESIAN_POINT('',(606.816984375,53.900026904,51.025229669));
#329=DIRECTION('',(0.,0.,1.));
#330=VECTOR('',#329,5.);
#331=LINE('',#328,#330);
#332=EDGE_CURVE('',#327,#319,#331,.T.);
#333=ORIENTED_EDGE('',*,*,#332,.F.);
#334=CARTESIAN_POINT('',(592.416984375,53.900026904,51.025229669));
#335=VERTEX_POINT('',#334);
#336=CARTESIAN_POINT('',(592.416984375,53.900026904,51.025229669));
#337=DIRECTION('',(1.,0.,-0.));
#338=VECTOR('',#337,14.4);
#339=LINE('',#336,#338);
#340=EDGE_CURVE('',#335,#327,#339,.T.);
#341=ORIENTED_EDGE('',*,*,#340,.F.);
#342=CARTESIAN_POINT('',(592.416984375,53.900026904,36.62598775));
#343=VERTEX_POINT('',#342);
#344=CARTESIAN_POINT('',(592.416984375,53.900026904,36.62598775));
#345=DIRECTION('',(-0.,-0.,1.));
#346=VECTOR('',#345,14.399241919);
#347=LINE('',#344,#346);
#348=EDGE_CURVE('',#343,#335,#347,.T.);
#349=ORIENTED_EDGE('',*,*,#348,.F.);
#350=CARTESIAN_POINT('',(592.416983486,53.900025363,36.079473361));
#351=VERTEX_POINT('',#350);
#352=CARTESIAN_POINT('',(592.416984375,53.900026904,36.079473361));
#353=DIRECTION('',(-0.,-0.,1.));
#354=VECTOR('',#353,0.546514389);
#355=LINE('',#352,#354);
#356=EDGE_CURVE('',#351,#343,#355,.T.);
#357=ORIENTED_EDGE('',*,*,#356,.F.);
#358=CARTESIAN_POINT('',(592.416982597,53.900026904,36.079473361));
#359=DIRECTION('',(1.,0.,0.000003059));
#360=VECTOR('',#359,14.4);
#361=LINE('',#358,#360);
#362=EDGE_CURVE('',#351,#237,#361,.T.);
#363=ORIENTED_EDGE('',*,*,#362,.T.);
#364=EDGE_LOOP('',(#245,#253,#261,#269,#277,#285,#293,#301,#309,#317,#325,#333,#341,#349,#357,#363));
#365=FACE_BOUND('',#364,.T.);
#366=ADVANCED_FACE('',(#235,#365),#215,.T.);
#367=CARTESIAN_POINT('',(606.816984375,29.000026904,53.525229669));
#368=DIRECTION('',(-1.,0.,0.));
#369=DIRECTION('',(0.,0.,1.));
#370=AXIS2_PLACEMENT_3D('',#367,#368,#369);
#371=PLANE('',#370);
#372=CARTESIAN_POINT('',(606.816984375,49.615800381,51.025229669));
#373=VERTEX_POINT('',#372);
#374=CARTESIAN_POINT('',(606.816984375,49.615800381,56.025229669));
#375=VERTEX_POINT('',#374);
#376=CARTESIAN_POINT('',(606.816984375,49.615800381,51.025229669));
#377=DIRECTION('',(0.,0.,1.));
#378=VECTOR('',#377,5.);
#379=LINE('',#376,#378);
#380=EDGE_CURVE('',#373,#375,#379,.T.);
#381=ORIENTED_EDGE('',*,*,#380,.F.);
#382=CARTESIAN_POINT('',(606.816984375,49.615800381,51.025229669));
#383=DIRECTION('',(0.,1.,0.));
#384=VECTOR('',#383,4.284226523);
#385=LINE('',#382,#384);
#386=EDGE_CURVE('',#373,#327,#385,.T.);
#387=ORIENTED_EDGE('',*,*,#386,.T.);
#388=ORIENTED_EDGE('',*,*,#332,.T.);
#389=CARTESIAN_POINT('',(606.816984375,49.615800381,56.025229669));
#390=DIRECTION('',(0.,1.,0.));
#391=VECTOR('',#390,4.284226523);
#392=LINE('',#389,#391);
#393=EDGE_CURVE('',#375,#319,#392,.T.);
#394=ORIENTED_EDGE('',*,*,#393,.F.);
#395=EDGE_LOOP('',(#381,#387,#388,#394));
#396=FACE_BOUND('',#395,.T.);
#397=ADVANCED_FACE('',(#396),#371,.F.);
#398=CARTESIAN_POINT('',(599.616984375,29.000026904,56.025229669));
#399=DIRECTION('',(0.,0.,-1.));
#400=DIRECTION('',(-1.,0.,0.));
#401=AXIS2_PLACEMENT_3D('',#398,#399,#400);
#402=PLANE('',#401);
#403=CARTESIAN_POINT('',(592.416984375,49.615800381,56.025229669));
#404=VERTEX_POINT('',#403);
#405=CARTESIAN_POINT('',(592.416984375,49.615800381,56.025229669));
#406=DIRECTION('',(0.,1.,0.));
#407=VECTOR('',#406,4.284226523);
#408=LINE('',#405,#407);
#409=EDGE_CURVE('',#404,#311,#408,.T.);
#410=ORIENTED_EDGE('',*,*,#409,.F.);
#411=CARTESIAN_POINT('',(592.416984375,49.615800381,56.025229669));
#412=DIRECTION('',(1.,0.,-0.));
#413=VECTOR('',#412,14.4);
#414=LINE('',#411,#413);
#415=EDGE_CURVE('',#404,#375,#414,.T.);
#416=ORIENTED_EDGE('',*,*,#415,.T.);
#417=ORIENTED_EDGE('',*,*,#393,.T.);
#418=ORIENTED_EDGE('',*,*,#324,.T.);
#419=EDGE_LOOP('',(#410,#416,#417,#418));
#420=FACE_BOUND('',#419,.T.);
#421=ADVANCED_FACE('',(#420),#402,.F.);
#422=CARTESIAN_POINT('',(599.616984375,29.000026904,51.025229669));
#423=DIRECTION('',(0.,0.,1.));
#424=DIRECTION('',(1.,0.,0.));
#425=AXIS2_PLACEMENT_3D('',#422,#423,#424);
#426=PLANE('',#425);
#427=CARTESIAN_POINT('',(592.416984375,49.615800381,51.025229669));
#428=VERTEX_POINT('',#427);
#429=CARTESIAN_POINT('',(592.416984375,49.615800381,51.025229669));
#430=DIRECTION('',(1.,0.,-0.));
#431=VECTOR('',#430,14.4);
#432=LINE('',#429,#431);
#433=EDGE_CURVE('',#428,#373,#432,.T.);
#434=ORIENTED_EDGE('',*,*,#433,.F.);
#435=CARTESIAN_POINT('',(592.416984375,49.615800381,51.025229669));
#436=DIRECTION('',(0.,1.,0.));
#437=VECTOR('',#436,4.284226523);
#438=LINE('',#435,#437);
#439=EDGE_CURVE('',#428,#335,#438,.T.);
#440=ORIENTED_EDGE('',*,*,#439,.T.);
#441=ORIENTED_EDGE('',*,*,#340,.T.);
#442=ORIENTED_EDGE('',*,*,#386,.F.);
#443=EDGE_LOOP('',(#434,#440,#441,#442));
#444=FACE_BOUND('',#443,.T.);
#445=ADVANCED_FACE('',(#444),#426,.F.);
#446=CARTESIAN_POINT('',(599.623002342,41.418837666,64.537743572));
#447=DIRECTION('',(0.,0.,-1.));
#448=DIRECTION('',(-1.,0.,0.));
#449=AXIS2_PLACEMENT_3D('',#446,#447,#448);
#450=PLANE('',#449);
#451=ORIENTED_EDGE('',*,*,#308,.T.);
#452=CARTESIAN_POINT('',(614.035038274,41.418837665,64.537743572));
#453=VERTEX_POINT('',#452);
#454=CARTESIAN_POINT('',(606.829020309,53.900026904,64.537743572));
#455=DIRECTION('',(0.5,-0.866025404,0.));
#456=VECTOR('',#455,14.412035933);
#457=LINE('',#454,#456);
#458=EDGE_CURVE('',#295,#453,#457,.T.);
#459=ORIENTED_EDGE('',*,*,#458,.T.);
#460=CARTESIAN_POINT('',(606.829020309,28.937648428,64.537743572));
#461=VERTEX_POINT('',#460);
#462=CARTESIAN_POINT('',(614.035038273,41.418837665,64.537743572));
#463=DIRECTION('',(-0.5,-0.866025404,0.));
#464=VECTOR('',#463,14.412035931);
#465=LINE('',#462,#464);
#466=EDGE_CURVE('',#453,#461,#465,.T.);
#467=ORIENTED_EDGE('',*,*,#466,.T.);
#468=CARTESIAN_POINT('',(592.416984376,28.937648428,64.537743572));
#469=VERTEX_POINT('',#468);
#470=CARTESIAN_POINT('',(606.829020309,28.937648428,64.537743572));
#471=DIRECTION('',(-1.,0.,0.));
#472=VECTOR('',#471,14.412035933);
#473=LINE('',#470,#472);
#474=EDGE_CURVE('',#461,#469,#473,.T.);
#475=ORIENTED_EDGE('',*,*,#474,.T.);
#476=CARTESIAN_POINT('',(585.210966411,41.418837666,64.537743572));
#477=VERTEX_POINT('',#476);
#478=CARTESIAN_POINT('',(592.416984376,28.937648428,64.537743572));
#479=DIRECTION('',(-0.5,0.866025404,0.));
#480=VECTOR('',#479,14.412035932);
#481=LINE('',#478,#480);
#482=EDGE_CURVE('',#469,#477,#481,.T.);
#483=ORIENTED_EDGE('',*,*,#482,.T.);
#484=CARTESIAN_POINT('',(585.210966411,41.418837666,64.537743572));
#485=DIRECTION('',(0.5,0.866025404,0.));
#486=VECTOR('',#485,14.412035932);
#487=LINE('',#484,#486);
#488=EDGE_CURVE('',#477,#303,#487,.T.);
#489=ORIENTED_EDGE('',*,*,#488,.T.);
#490=EDGE_LOOP('',(#451,#459,#467,#475,#483,#489));
#491=FACE_BOUND('',#490,.T.);
#492=CARTESIAN_POINT('',(591.262283837,26.937648428,64.537743572));
#493=VERTEX_POINT('',#492);
#494=CARTESIAN_POINT('',(582.901565334,41.418837666,64.537743572));
#495=VERTEX_POINT('',#494);
#496=CARTESIAN_POINT('',(591.262283837,26.937648428,64.537743572));
#497=DIRECTION('',(-0.5,0.866025404,0.));
#498=VECTOR('',#497,16.721437009);
#499=LINE('',#496,#498);
#500=EDGE_CURVE('',#493,#495,#499,.T.);
#501=ORIENTED_EDGE('',*,*,#500,.F.);
#502=CARTESIAN_POINT('',(607.983720847,26.937648428,64.537743572));
#503=VERTEX_POINT('',#502);
#504=CARTESIAN_POINT('',(607.983720847,26.937648428,64.537743572));
#505=DIRECTION('',(-1.,0.,0.));
#506=VECTOR('',#505,16.721437011);
#507=LINE('',#504,#506);
#508=EDGE_CURVE('',#503,#493,#507,.T.);
#509=ORIENTED_EDGE('',*,*,#508,.F.);
#510=CARTESIAN_POINT('',(616.344439351,41.418837666,64.537743572));
#511=VERTEX_POINT('',#510);
#512=CARTESIAN_POINT('',(616.344439351,41.418837666,64.537743572));
#513=DIRECTION('',(-0.5,-0.866025404,0.));
#514=VECTOR('',#513,16.721437009);
#515=LINE('',#512,#514);
#516=EDGE_CURVE('',#511,#503,#515,.T.);
#517=ORIENTED_EDGE('',*,*,#516,.F.);
#518=CARTESIAN_POINT('',(607.983720848,55.900026904,64.537743572));
#519=VERTEX_POINT('',#518);
#520=CARTESIAN_POINT('',(607.983720848,55.900026904,64.537743572));
#521=DIRECTION('',(0.5,-0.866025404,0.));
#522=VECTOR('',#521,16.721437009);
#523=LINE('',#520,#522);
#524=EDGE_CURVE('',#519,#511,#523,.T.);
#525=ORIENTED_EDGE('',*,*,#524,.F.);
#526=CARTESIAN_POINT('',(591.262283838,55.900026904,64.537743572));
#527=VERTEX_POINT('',#526);
#528=CARTESIAN_POINT('',(591.262283838,55.900026904,64.537743572));
#529=DIRECTION('',(1.,0.,-0.));
#530=VECTOR('',#529,16.72143701);
#531=LINE('',#528,#530);
#532=EDGE_CURVE('',#527,#519,#531,.T.);
#533=ORIENTED_EDGE('',*,*,#532,.F.);
#534=CARTESIAN_POINT('',(582.901565334,41.418837666,64.537743572));
#535=DIRECTION('',(0.5,0.866025404,0.));
#536=VECTOR('',#535,16.72143701);
#537=LINE('',#534,#536);
#538=EDGE_CURVE('',#495,#527,#537,.T.);
#539=ORIENTED_EDGE('',*,*,#538,.F.);
#540=EDGE_LOOP('',(#501,#509,#517,#525,#533,#539));
#541=FACE_BOUND('',#540,.T.);
#542=ADVANCED_FACE('',(#491,#541),#450,.F.);
#543=CARTESIAN_POINT('',(599.623002342,41.418837666,9.437743572));
#544=DIRECTION('',(0.,0.,1.));
#545=DIRECTION('',(-1.,0.,0.));
#546=AXIS2_PLACEMENT_3D('',#543,#544,#545);
#547=PLANE('',#546);
#548=CARTESIAN_POINT('',(616.344439351,5.586129561,9.437743572));
#549=VERTEX_POINT('',#548);
#550=CARTESIAN_POINT('',(582.901565333,5.586129561,9.437743572));
#551=VERTEX_POINT('',#550);
#552=CARTESIAN_POINT('',(616.344439351,5.586129561,9.437743572));
#553=DIRECTION('',(-1.,-0.,0.));
#554=VECTOR('',#553,33.442874018);
#555=LINE('',#552,#554);
#556=EDGE_CURVE('',#549,#551,#555,.T.);
#557=ORIENTED_EDGE('',*,*,#556,.T.);
#558=CARTESIAN_POINT('',(582.901565333,5.586129561,9.437743572));
#559=DIRECTION('',(0.,1.,0.));
#560=VECTOR('',#559,3.457499772);
#561=LINE('',#558,#560);
#562=EDGE_CURVE('',#551,#179,#561,.T.);
#563=ORIENTED_EDGE('',*,*,#562,.T.);
#564=ORIENTED_EDGE('',*,*,#206,.T.);
#565=CARTESIAN_POINT('',(616.344439351,9.043629333,9.437743572));
#566=DIRECTION('',(-0.,-1.,0.));
#567=VECTOR('',#566,3.457499772);
#568=LINE('',#565,#567);
#569=EDGE_CURVE('',#195,#549,#568,.T.);
#570=ORIENTED_EDGE('',*,*,#569,.T.);
#571=EDGE_LOOP('',(#557,#563,#564,#570));
#572=FACE_BOUND('',#571,.T.);
#573=ORIENTED_EDGE('',*,*,#166,.T.);
#574=CARTESIAN_POINT('',(582.901565333,76.186306775,9.437743572));
#575=VERTEX_POINT('',#574);
#576=CARTESIAN_POINT('',(582.901565333,72.063341737,9.437743572));
#577=DIRECTION('',(0.,1.,0.));
#578=VECTOR('',#577,4.122965038);
#579=LINE('',#576,#578);
#580=EDGE_CURVE('',#155,#575,#579,.T.);
#581=ORIENTED_EDGE('',*,*,#580,.T.);
#582=CARTESIAN_POINT('',(616.344439351,76.186306775,9.437743572));
#583=VERTEX_POINT('',#582);
#584=CARTESIAN_POINT('',(582.901565333,76.186306775,9.437743572));
#585=DIRECTION('',(1.,0.,-0.));
#586=VECTOR('',#585,33.442874018);
#587=LINE('',#584,#586);
#588=EDGE_CURVE('',#575,#583,#587,.T.);
#589=ORIENTED_EDGE('',*,*,#588,.T.);
#590=CARTESIAN_POINT('',(616.344439351,76.186306775,9.437743572));
#591=DIRECTION('',(0.,-1.,0.));
#592=VECTOR('',#591,4.122965038);
#593=LINE('',#590,#592);
#594=EDGE_CURVE('',#583,#139,#593,.T.);
#595=ORIENTED_EDGE('',*,*,#594,.T.);
#596=EDGE_LOOP('',(#573,#581,#589,#595));
#597=FACE_BOUND('',#596,.T.);
#598=CARTESIAN_POINT('',(622.313601265,80.720107855,9.437743572));
#599=VERTEX_POINT('',#598);
#600=CARTESIAN_POINT('',(576.932403422,80.720107854,9.437743572));
#601=VERTEX_POINT('',#600);
#602=CARTESIAN_POINT('',(622.313601265,80.720107855,9.437743572));
#603=DIRECTION('',(-1.,0.,0.));
#604=VECTOR('',#603,45.381197843);
#605=LINE('',#602,#604);
#606=EDGE_CURVE('',#599,#601,#605,.T.);
#607=ORIENTED_EDGE('',*,*,#606,.T.);
#608=CARTESIAN_POINT('',(554.241804494,41.418837668,9.437743573));
#609=VERTEX_POINT('',#608);
#610=CARTESIAN_POINT('',(576.932403421,80.720107854,9.437743572));
#611=DIRECTION('',(-0.5,-0.866025404,0.));
#612=VECTOR('',#611,45.381197846);
#613=LINE('',#610,#612);
#614=EDGE_CURVE('',#601,#609,#613,.T.);
#615=ORIENTED_EDGE('',*,*,#614,.T.);
#616=CARTESIAN_POINT('',(576.932403422,2.117567477,9.437743572));
#617=VERTEX_POINT('',#616);
#618=CARTESIAN_POINT('',(554.241804494,41.418837668,9.437743572));
#619=DIRECTION('',(0.5,-0.866025404,0.));
#620=VECTOR('',#619,45.38119785);
#621=LINE('',#618,#620);
#622=EDGE_CURVE('',#609,#617,#621,.T.);
#623=ORIENTED_EDGE('',*,*,#622,.T.);
#624=CARTESIAN_POINT('',(622.313601265,2.117567477,9.437743572));
#625=VERTEX_POINT('',#624);
#626=CARTESIAN_POINT('',(576.932403422,2.117567477,9.437743572));
#627=DIRECTION('',(1.,-0.,-0.));
#628=VECTOR('',#627,45.381197843);
#629=LINE('',#626,#628);
#630=EDGE_CURVE('',#617,#625,#629,.T.);
#631=ORIENTED_EDGE('',*,*,#630,.T.);
#632=CARTESIAN_POINT('',(645.004200191,41.418837668,9.437743572));
#633=VERTEX_POINT('',#632);
#634=CARTESIAN_POINT('',(622.313601265,2.117567477,9.437743572));
#635=DIRECTION('',(0.5,0.866025404,0.));
#636=VECTOR('',#635,45.381197849);
#637=LINE('',#634,#636);
#638=EDGE_CURVE('',#625,#633,#637,.T.);
#639=ORIENTED_EDGE('',*,*,#638,.T.);
#640=CARTESIAN_POINT('',(645.00420019,41.418837667,9.437743572));
#641=DIRECTION('',(-0.5,0.866025404,0.));
#642=VECTOR('',#641,45.381197846);
#643=LINE('',#640,#642);
#644=EDGE_CURVE('',#633,#599,#643,.T.);
#645=ORIENTED_EDGE('',*,*,#644,.T.);
#646=EDGE_LOOP('',(#607,#615,#623,#631,#639,#645));
#647=FACE_BOUND('',#646,.T.);
#648=CARTESIAN_POINT('',(607.983720847,26.937648428,9.437743572));
#649=VERTEX_POINT('',#648);
#650=CARTESIAN_POINT('',(591.262283837,26.937648428,9.437743572));
#651=VERTEX_POINT('',#650);
#652=CARTESIAN_POINT('',(607.983720847,26.937648428,9.437743572));
#653=DIRECTION('',(-1.,0.,0.));
#654=VECTOR('',#653,16.72143701);
#655=LINE('',#652,#654);
#656=EDGE_CURVE('',#649,#651,#655,.T.);
#657=ORIENTED_EDGE('',*,*,#656,.T.);
#658=CARTESIAN_POINT('',(582.901565333,41.418837666,9.437743572));
#659=VERTEX_POINT('',#658);
#660=CARTESIAN_POINT('',(591.262283837,26.937648428,9.437743572));
#661=DIRECTION('',(-0.5,0.866025404,0.));
#662=VECTOR('',#661,16.721437009);
#663=LINE('',#660,#662);
#664=EDGE_CURVE('',#651,#659,#663,.T.);
#665=ORIENTED_EDGE('',*,*,#664,.T.);
#666=CARTESIAN_POINT('',(591.262283838,55.900026904,9.437743572));
#667=VERTEX_POINT('',#666);
#668=CARTESIAN_POINT('',(582.901565333,41.418837666,9.437743572));
#669=DIRECTION('',(0.5,0.866025404,0.));
#670=VECTOR('',#669,16.72143701);
#671=LINE('',#668,#670);
#672=EDGE_CURVE('',#659,#667,#671,.T.);
#673=ORIENTED_EDGE('',*,*,#672,.T.);
#674=CARTESIAN_POINT('',(607.983720847,55.900026904,9.437743572));
#675=VERTEX_POINT('',#674);
#676=CARTESIAN_POINT('',(591.262283838,55.900026904,9.437743572));
#677=DIRECTION('',(1.,-0.,-0.));
#678=VECTOR('',#677,16.721437009);
#679=LINE('',#676,#678);
#680=EDGE_CURVE('',#667,#675,#679,.T.);
#681=ORIENTED_EDGE('',*,*,#680,.T.);
#682=CARTESIAN_POINT('',(616.344439351,41.418837666,9.437743572));
#683=VERTEX_POINT('',#682);
#684=CARTESIAN_POINT('',(607.983720847,55.900026904,9.437743572));
#685=DIRECTION('',(0.5,-0.866025404,0.));
#686=VECTOR('',#685,16.721437009);
#687=LINE('',#684,#686);
#688=EDGE_CURVE('',#675,#683,#687,.T.);
#689=ORIENTED_EDGE('',*,*,#688,.T.);
#690=CARTESIAN_POINT('',(616.344439351,41.418837666,9.437743572));
#691=DIRECTION('',(-0.5,-0.866025404,0.));
#692=VECTOR('',#691,16.721437009);
#693=LINE('',#690,#692);
#694=EDGE_CURVE('',#683,#649,#693,.T.);
#695=ORIENTED_EDGE('',*,*,#694,.T.);
#696=EDGE_LOOP('',(#657,#665,#673,#681,#689,#695));
#697=FACE_BOUND('',#696,.T.);
#698=ADVANCED_FACE('',(#572,#597,#647,#697),#547,.T.);
#699=CARTESIAN_POINT('',(599.623002342,41.418837666,1.437743572));
#700=DIRECTION('',(0.,0.,1.));
#701=DIRECTION('',(-1.,0.,0.));
#702=AXIS2_PLACEMENT_3D('',#699,#700,#701);
#703=PLANE('',#702);
#704=CARTESIAN_POINT('',(573.756976936,83.220107856,1.437743572));
#705=VERTEX_POINT('',#704);
#706=CARTESIAN_POINT('',(550.489027748,42.918837664,1.437743572));
#707=VERTEX_POINT('',#706);
#708=CARTESIAN_POINT('',(573.756976936,83.220107856,1.437743572));
#709=DIRECTION('',(-0.5,-0.866025404,0.));
#710=VECTOR('',#709,46.535898385);
#711=LINE('',#708,#710);
#712=EDGE_CURVE('',#705,#707,#711,.T.);
#713=ORIENTED_EDGE('',*,*,#712,.F.);
#714=CARTESIAN_POINT('',(576.35505315,84.720107855,1.437743572));
#715=VERTEX_POINT('',#714);
#716=CARTESIAN_POINT('',(576.35505315,81.720107855,1.437743572));
#717=DIRECTION('',(-0.,-0.,-1.));
#718=DIRECTION('',(1.,0.,-0.));
#719=AXIS2_PLACEMENT_3D('',#716,#717,#718);
#720=CIRCLE('',#719,3.);
#721=EDGE_CURVE('',#705,#715,#720,.T.);
#722=ORIENTED_EDGE('',*,*,#721,.T.);
#723=CARTESIAN_POINT('',(622.890951535,84.720107855,1.437743572));
#724=VERTEX_POINT('',#723);
#725=CARTESIAN_POINT('',(622.890951535,84.720107855,1.437743572));
#726=DIRECTION('',(-1.,0.,0.));
#727=VECTOR('',#726,46.535898385);
#728=LINE('',#725,#727);
#729=EDGE_CURVE('',#724,#715,#728,.T.);
#730=ORIENTED_EDGE('',*,*,#729,.F.);
#731=CARTESIAN_POINT('',(625.489027749,83.220107856,1.437743572));
#732=VERTEX_POINT('',#731);
#733=CARTESIAN_POINT('',(622.890951535,81.720107855,1.437743572));
#734=DIRECTION('',(-0.,-0.,-1.));
#735=DIRECTION('',(1.,0.,-0.));
#736=AXIS2_PLACEMENT_3D('',#733,#734,#735);
#737=CIRCLE('',#736,3.);
#738=EDGE_CURVE('',#724,#732,#737,.T.);
#739=ORIENTED_EDGE('',*,*,#738,.T.);
#740=CARTESIAN_POINT('',(648.756976936,42.918837665,1.437743572));
#741=VERTEX_POINT('',#740);
#742=CARTESIAN_POINT('',(648.756976936,42.918837665,1.437743572));
#743=DIRECTION('',(-0.5,0.866025404,0.));
#744=VECTOR('',#743,46.535898384);
#745=LINE('',#742,#744);
#746=EDGE_CURVE('',#741,#732,#745,.T.);
#747=ORIENTED_EDGE('',*,*,#746,.F.);
#748=CARTESIAN_POINT('',(648.756976936,39.918837667,1.437743572));
#749=VERTEX_POINT('',#748);
#750=CARTESIAN_POINT('',(646.158900727,41.418837666,1.437743572));
#751=DIRECTION('',(-0.,-0.,-1.));
#752=DIRECTION('',(1.,0.,-0.));
#753=AXIS2_PLACEMENT_3D('',#750,#751,#752);
#754=CIRCLE('',#753,3.);
#755=EDGE_CURVE('',#741,#749,#754,.T.);
#756=ORIENTED_EDGE('',*,*,#755,.T.);
#757=CARTESIAN_POINT('',(625.489027748,-0.382432524,1.437743572));
#758=VERTEX_POINT('',#757);
#759=CARTESIAN_POINT('',(625.489027748,-0.382432524,1.437743572));
#760=DIRECTION('',(0.5,0.866025404,0.));
#761=VECTOR('',#760,46.535898385);
#762=LINE('',#759,#761);
#763=EDGE_CURVE('',#758,#749,#762,.T.);
#764=ORIENTED_EDGE('',*,*,#763,.F.);
#765=CARTESIAN_POINT('',(622.890951535,-1.882432523,1.437743572));
#766=VERTEX_POINT('',#765);
#767=CARTESIAN_POINT('',(622.890951535,1.117567477,1.437743572));
#768=DIRECTION('',(-0.,-0.,-1.));
#769=DIRECTION('',(1.,0.,-0.));
#770=AXIS2_PLACEMENT_3D('',#767,#768,#769);
#771=CIRCLE('',#770,3.);
#772=EDGE_CURVE('',#758,#766,#771,.T.);
#773=ORIENTED_EDGE('',*,*,#772,.T.);
#774=CARTESIAN_POINT('',(576.35505315,-1.882432523,1.437743572));
#775=VERTEX_POINT('',#774);
#776=CARTESIAN_POINT('',(576.35505315,-1.882432523,1.437743572));
#777=DIRECTION('',(1.,0.,-0.));
#778=VECTOR('',#777,46.535898385);
#779=LINE('',#776,#778);
#780=EDGE_CURVE('',#775,#766,#779,.T.);
#781=ORIENTED_EDGE('',*,*,#780,.F.);
#782=CARTESIAN_POINT('',(573.756976936,-0.382432525,1.437743572));
#783=VERTEX_POINT('',#782);
#784=CARTESIAN_POINT('',(576.35505315,1.117567477,1.437743572));
#785=DIRECTION('',(-0.,-0.,-1.));
#786=DIRECTION('',(1.,0.,-0.));
#787=AXIS2_PLACEMENT_3D('',#784,#785,#786);
#788=CIRCLE('',#787,3.);
#789=EDGE_CURVE('',#775,#783,#788,.T.);
#790=ORIENTED_EDGE('',*,*,#789,.T.);
#791=CARTESIAN_POINT('',(550.489027748,39.918837667,1.437743572));
#792=VERTEX_POINT('',#791);
#793=CARTESIAN_POINT('',(550.489027748,39.918837667,1.437743572));
#794=DIRECTION('',(0.5,-0.866025404,0.));
#795=VECTOR('',#794,46.535898385);
#796=LINE('',#793,#795);
#797=EDGE_CURVE('',#792,#783,#796,.T.);
#798=ORIENTED_EDGE('',*,*,#797,.F.);
#799=CARTESIAN_POINT('',(550.087103957,41.418837666,1.437743572));
#800=VERTEX_POINT('',#799);
#801=CARTESIAN_POINT('',(553.087103957,41.418837666,1.437743572));
#802=DIRECTION('',(-0.,-0.,-1.));
#803=DIRECTION('',(1.,0.,-0.));
#804=AXIS2_PLACEMENT_3D('',#801,#802,#803);
#805=CIRCLE('',#804,3.);
#806=EDGE_CURVE('',#792,#800,#805,.T.);
#807=ORIENTED_EDGE('',*,*,#806,.T.);
#808=CARTESIAN_POINT('',(553.087103957,41.418837666,1.437743572));
#809=DIRECTION('',(-0.,-0.,-1.));
#810=DIRECTION('',(1.,0.,-0.));
#811=AXIS2_PLACEMENT_3D('',#808,#809,#810);
#812=CIRCLE('',#811,3.);
#813=EDGE_CURVE('',#800,#707,#812,.T.);
#814=ORIENTED_EDGE('',*,*,#813,.T.);
#815=EDGE_LOOP('',(#713,#722,#730,#739,#747,#756,#764,#773,#781,#790,#798,#807,#814));
#816=FACE_BOUND('',#815,.T.);
#817=CARTESIAN_POINT('',(592.416984376,28.937648428,1.437743572));
#818=VERTEX_POINT('',#817);
#819=CARTESIAN_POINT('',(585.210966411,41.418837666,1.437743572));
#820=VERTEX_POINT('',#819);
#821=CARTESIAN_POINT('',(592.416984376,28.937648428,1.437743572));
#822=DIRECTION('',(-0.5,0.866025404,-0.));
#823=VECTOR('',#822,14.412035932);
#824=LINE('',#821,#823);
#825=EDGE_CURVE('',#818,#820,#824,.T.);
#826=ORIENTED_EDGE('',*,*,#825,.F.);
#827=CARTESIAN_POINT('',(606.829020309,28.937648428,1.437743572));
#828=VERTEX_POINT('',#827);
#829=CARTESIAN_POINT('',(606.829020309,28.937648428,1.437743572));
#830=DIRECTION('',(-1.,-0.,0.));
#831=VECTOR('',#830,14.412035933);
#832=LINE('',#829,#831);
#833=EDGE_CURVE('',#828,#818,#832,.T.);
#834=ORIENTED_EDGE('',*,*,#833,.F.);
#835=CARTESIAN_POINT('',(614.035038274,41.418837665,1.437743572));
#836=VERTEX_POINT('',#835);
#837=CARTESIAN_POINT('',(614.035038273,41.418837666,1.437743572));
#838=DIRECTION('',(-0.5,-0.866025404,-0.));
#839=VECTOR('',#838,14.412035931);
#840=LINE('',#837,#839);
#841=EDGE_CURVE('',#836,#828,#840,.T.);
#842=ORIENTED_EDGE('',*,*,#841,.F.);
#843=CARTESIAN_POINT('',(606.829020309,53.900026904,1.437743572));
#844=DIRECTION('',(0.5,-0.866025404,-0.));
#845=VECTOR('',#844,14.412035933);
#846=LINE('',#843,#845);
#847=EDGE_CURVE('',#271,#836,#846,.T.);
#848=ORIENTED_EDGE('',*,*,#847,.F.);
#849=ORIENTED_EDGE('',*,*,#276,.F.);
#850=CARTESIAN_POINT('',(585.210966411,41.418837666,1.437743572));
#851=DIRECTION('',(0.5,0.866025404,-0.));
#852=VECTOR('',#851,14.412035932);
#853=LINE('',#850,#852);
#854=EDGE_CURVE('',#820,#263,#853,.T.);
#855=ORIENTED_EDGE('',*,*,#854,.F.);
#856=EDGE_LOOP('',(#826,#834,#842,#848,#849,#855));
#857=FACE_BOUND('',#856,.T.);
#858=ADVANCED_FACE('',(#816,#857),#703,.F.);
#859=CARTESIAN_POINT('',(562.123002342,63.069472761,1.437743572));
#860=DIRECTION('',(-0.866025404,0.5,0.));
#861=DIRECTION('',(-0.5,-0.866025404,0.));
#862=AXIS2_PLACEMENT_3D('',#859,#860,#861);
#863=PLANE('',#862);
#864=CARTESIAN_POINT('',(550.489027746,42.918837666,5.437743573));
#865=VERTEX_POINT('',#864);
#866=CARTESIAN_POINT('',(550.489027748,42.918837664,1.437743572));
#867=DIRECTION('',(0.,0.,1.));
#868=VECTOR('',#867,4.000000001);
#869=LINE('',#866,#868);
#870=EDGE_CURVE('',#707,#865,#869,.T.);
#871=ORIENTED_EDGE('',*,*,#870,.T.);
#872=CARTESIAN_POINT('',(573.756976939,83.220107854,5.437743569));
#873=VERTEX_POINT('',#872);
#874=CARTESIAN_POINT('',(550.489027748,42.918837665,5.437743572));
#875=DIRECTION('',(0.5,0.866025404,-0.));
#876=VECTOR('',#875,46.535898384);
#877=LINE('',#874,#876);
#878=EDGE_CURVE('',#865,#873,#877,.T.);
#879=ORIENTED_EDGE('',*,*,#878,.T.);
#880=CARTESIAN_POINT('',(573.756976936,83.220107856,5.437743569));
#881=DIRECTION('',(-0.,-0.,-1.));
#882=VECTOR('',#881,3.999999997);
#883=LINE('',#880,#882);
#884=EDGE_CURVE('',#873,#705,#883,.T.);
#885=ORIENTED_EDGE('',*,*,#884,.T.);
#886=ORIENTED_EDGE('',*,*,#712,.T.);
#887=EDGE_LOOP('',(#871,#879,#885,#886));
#888=FACE_BOUND('',#887,.T.);
#889=ADVANCED_FACE('',(#888),#863,.T.);
#890=CARTESIAN_POINT('',(562.123002342,19.768202571,1.437743572));
#891=DIRECTION('',(-0.866025404,-0.5,0.));
#892=DIRECTION('',(0.5,-0.866025404,0.));
#893=AXIS2_PLACEMENT_3D('',#890,#891,#892);
#894=PLANE('',#893);
#895=CARTESIAN_POINT('',(573.756976939,-0.382432523,5.437743568));
#896=VERTEX_POINT('',#895);
#897=CARTESIAN_POINT('',(573.756976936,-0.382432525,1.437743572));
#898=DIRECTION('',(0.,0.,1.));
#899=VECTOR('',#898,3.999999996);
#900=LINE('',#897,#899);
#901=EDGE_CURVE('',#783,#896,#900,.T.);
#902=ORIENTED_EDGE('',*,*,#901,.T.);
#903=CARTESIAN_POINT('',(550.489027746,39.918837666,5.437743571));
#904=VERTEX_POINT('',#903);
#905=CARTESIAN_POINT('',(573.756976936,-0.382432525,5.437743569));
#906=DIRECTION('',(-0.5,0.866025404,-0.));
#907=VECTOR('',#906,46.535898385);
#908=LINE('',#905,#907);
#909=EDGE_CURVE('',#896,#904,#908,.T.);
#910=ORIENTED_EDGE('',*,*,#909,.T.);
#911=CARTESIAN_POINT('',(550.489027748,39.918837667,5.437743571));
#912=DIRECTION('',(-0.,-0.,-1.));
#913=VECTOR('',#912,3.999999999);
#914=LINE('',#911,#913);
#915=EDGE_CURVE('',#904,#792,#914,.T.);
#916=ORIENTED_EDGE('',*,*,#915,.T.);
#917=ORIENTED_EDGE('',*,*,#797,.T.);
#918=EDGE_LOOP('',(#902,#910,#916,#917));
#919=FACE_BOUND('',#918,.T.);
#920=ADVANCED_FACE('',(#919),#894,.T.);
#921=CARTESIAN_POINT('',(599.623002342,-1.882432523,1.437743572));
#922=DIRECTION('',(0.,-1.,0.));
#923=DIRECTION('',(1.,0.,0.));
#924=AXIS2_PLACEMENT_3D('',#921,#922,#923);
#925=PLANE('',#924);
#926=CARTESIAN_POINT('',(622.890951535,-1.882432523,5.437743572));
#927=VERTEX_POINT('',#926);
#928=CARTESIAN_POINT('',(622.890951535,-1.882432523,1.437743572));
#929=DIRECTION('',(0.,0.,1.));
#930=VECTOR('',#929,4.);
#931=LINE('',#928,#930);
#932=EDGE_CURVE('',#766,#927,#931,.T.);
#933=ORIENTED_EDGE('',*,*,#932,.T.);
#934=CARTESIAN_POINT('',(576.35505315,-1.882432523,5.437743572));
#935=VERTEX_POINT('',#934);
#936=CARTESIAN_POINT('',(622.890951535,-1.882432523,5.437743572));
#937=DIRECTION('',(-1.,-0.,0.));
#938=VECTOR('',#937,46.535898385);
#939=LINE('',#936,#938);
#940=EDGE_CURVE('',#927,#935,#939,.T.);
#941=ORIENTED_EDGE('',*,*,#940,.T.);
#942=CARTESIAN_POINT('',(576.35505315,-1.882432523,5.437743572));
#943=DIRECTION('',(-0.,-0.,-1.));
#944=VECTOR('',#943,4.);
#945=LINE('',#942,#944);
#946=EDGE_CURVE('',#935,#775,#945,.T.);
#947=ORIENTED_EDGE('',*,*,#946,.T.);
#948=ORIENTED_EDGE('',*,*,#780,.T.);
#949=EDGE_LOOP('',(#933,#941,#947,#948));
#950=FACE_BOUND('',#949,.T.);
#951=ADVANCED_FACE('',(#950),#925,.T.);
#952=CARTESIAN_POINT('',(637.123002342,19.768202571,1.437743572));
#953=DIRECTION('',(0.866025404,-0.5,0.));
#954=DIRECTION('',(0.5,0.866025404,0.));
#955=AXIS2_PLACEMENT_3D('',#952,#953,#954);
#956=PLANE('',#955);
#957=CARTESIAN_POINT('',(648.756976938,39.918837666,5.437743573));
#958=VERTEX_POINT('',#957);
#959=CARTESIAN_POINT('',(648.756976936,39.918837667,1.437743572));
#960=DIRECTION('',(0.,0.,1.));
#961=VECTOR('',#960,4.000000001);
#962=LINE('',#959,#961);
#963=EDGE_CURVE('',#749,#958,#962,.T.);
#964=ORIENTED_EDGE('',*,*,#963,.T.);
#965=CARTESIAN_POINT('',(625.489027745,-0.382432523,5.437743569));
#966=VERTEX_POINT('',#965);
#967=CARTESIAN_POINT('',(648.756976936,39.918837667,5.437743572));
#968=DIRECTION('',(-0.5,-0.866025404,-0.));
#969=VECTOR('',#968,46.535898385);
#970=LINE('',#967,#969);
#971=EDGE_CURVE('',#958,#966,#970,.T.);
#972=ORIENTED_EDGE('',*,*,#971,.T.);
#973=CARTESIAN_POINT('',(625.489027748,-0.382432525,5.437743569));
#974=DIRECTION('',(-0.,-0.,-1.));
#975=VECTOR('',#974,3.999999997);
#976=LINE('',#973,#975);
#977=EDGE_CURVE('',#966,#758,#976,.T.);
#978=ORIENTED_EDGE('',*,*,#977,.T.);
#979=ORIENTED_EDGE('',*,*,#763,.T.);
#980=EDGE_LOOP('',(#964,#972,#978,#979));
#981=FACE_BOUND('',#980,.T.);
#982=ADVANCED_FACE('',(#981),#956,.T.);
#983=CARTESIAN_POINT('',(637.123002342,63.069472761,1.437743572));
#984=DIRECTION('',(0.866025404,0.5,0.));
#985=DIRECTION('',(-0.5,0.866025404,0.));
#986=AXIS2_PLACEMENT_3D('',#983,#984,#985);
#987=PLANE('',#986);
#988=CARTESIAN_POINT('',(625.489027745,83.220107854,5.437743568));
#989=VERTEX_POINT('',#988);
#990=CARTESIAN_POINT('',(625.489027749,83.220107856,1.437743572));
#991=DIRECTION('',(0.,0.,1.));
#992=VECTOR('',#991,3.999999996);
#993=LINE('',#990,#992);
#994=EDGE_CURVE('',#732,#989,#993,.T.);
#995=ORIENTED_EDGE('',*,*,#994,.T.);
#996=CARTESIAN_POINT('',(648.756976938,42.918837666,5.437743571));
#997=VERTEX_POINT('',#996);
#998=CARTESIAN_POINT('',(625.489027749,83.220107856,5.437743569));
#999=DIRECTION('',(0.5,-0.866025404,-0.));
#1000=VECTOR('',#999,46.535898384);
#1001=LINE('',#998,#1000);
#1002=EDGE_CURVE('',#989,#997,#1001,.T.);
#1003=ORIENTED_EDGE('',*,*,#1002,.T.);
#1004=CARTESIAN_POINT('',(648.756976936,42.918837665,5.437743571));
#1005=DIRECTION('',(-0.,-0.,-1.));
#1006=VECTOR('',#1005,3.999999999);
#1007=LINE('',#1004,#1006);
#1008=EDGE_CURVE('',#997,#741,#1007,.T.);
#1009=ORIENTED_EDGE('',*,*,#1008,.T.);
#1010=ORIENTED_EDGE('',*,*,#746,.T.);
#1011=EDGE_LOOP('',(#995,#1003,#1009,#1010));
#1012=FACE_BOUND('',#1011,.T.);
#1013=ADVANCED_FACE('',(#1012),#987,.T.);
#1014=CARTESIAN_POINT('',(599.623002342,84.720107855,1.437743572));
#1015=DIRECTION('',(0.,1.,0.));
#1016=DIRECTION('',(0.,0.,-1.));
#1017=AXIS2_PLACEMENT_3D('',#1014,#1015,#1016);
#1018=PLANE('',#1017);
#1019=CARTESIAN_POINT('',(576.35505315,84.720107855,5.437743572));
#1020=VERTEX_POINT('',#1019);
#1021=CARTESIAN_POINT('',(576.35505315,84.720107855,1.437743572));
#1022=DIRECTION('',(-0.,-0.,1.));
#1023=VECTOR('',#1022,4.);
#1024=LINE('',#1021,#1023);
#1025=EDGE_CURVE('',#715,#1020,#1024,.T.);
#1026=ORIENTED_EDGE('',*,*,#1025,.T.);
#1027=CARTESIAN_POINT('',(622.890951535,84.720107855,5.437743572));
#1028=VERTEX_POINT('',#1027);
#1029=CARTESIAN_POINT('',(576.35505315,84.720107855,5.437743572));
#1030=DIRECTION('',(1.,-0.,-0.));
#1031=VECTOR('',#1030,46.535898385);
#1032=LINE('',#1029,#1031);
#1033=EDGE_CURVE('',#1020,#1028,#1032,.T.);
#1034=ORIENTED_EDGE('',*,*,#1033,.T.);
#1035=CARTESIAN_POINT('',(622.890951535,84.720107855,5.437743572));
#1036=DIRECTION('',(0.,0.,-1.));
#1037=VECTOR('',#1036,4.);
#1038=LINE('',#1035,#1037);
#1039=EDGE_CURVE('',#1028,#724,#1038,.T.);
#1040=ORIENTED_EDGE('',*,*,#1039,.T.);
#1041=ORIENTED_EDGE('',*,*,#729,.T.);
#1042=EDGE_LOOP('',(#1026,#1034,#1040,#1041));
#1043=FACE_BOUND('',#1042,.T.);
#1044=ADVANCED_FACE('',(#1043),#1018,.T.);
#1045=CARTESIAN_POINT('',(576.35505315,81.720107855,1.437743572));
#1046=DIRECTION('',(0.,0.,1.));
#1047=DIRECTION('',(-1.,0.,0.));
#1048=AXIS2_PLACEMENT_3D('',#1045,#1046,#1047);
#1049=CYLINDRICAL_SURFACE('',#1048,3.);
#1050=ORIENTED_EDGE('',*,*,#884,.F.);
#1051=CARTESIAN_POINT('',(574.855053153,84.318184065,5.839667358));
#1052=VERTEX_POINT('',#1051);
#1053=CARTESIAN_POINT('',(573.756976942,83.220107852,5.437743567));
#1054=CARTESIAN_POINT('',(574.158900731,83.916260275,5.437743567));
#1055=CARTESIAN_POINT('',(574.855053154,84.318184064,5.839667356));
#1056=(BOUNDED_CURVE()
B_SPLINE_CURVE(2,(#1053,#1054,#1055),.UNSPECIFIED.,.F.,.F.)
B_SPLINE_CURVE_WITH_KNOTS((3,3),(179.999999978,209.999999983),.UNSPECIFIED.)
CURVE()
GEOMETRIC_REPRESENTATION_ITEM()
RATIONAL_B_SPLINE_CURVE((1.,0.965925826,1.))
REPRESENTATION_ITEM(''));
#1057=EDGE_CURVE('',#873,#1052,#1056,.T.);
#1058=ORIENTED_EDGE('',*,*,#1057,.T.);
#1059=CARTESIAN_POINT('',(574.855053151,84.318184066,5.83966736));
#1060=CARTESIAN_POINT('',(575.551205573,84.720107855,5.437743572));
#1061=CARTESIAN_POINT('',(576.35505315,84.720107855,5.437743572));
#1062=(BOUNDED_CURVE()
B_SPLINE_CURVE(2,(#1059,#1060,#1061),.UNSPECIFIED.,.F.,.F.)
B_SPLINE_CURVE_WITH_KNOTS((3,3),(149.999999997,180.),.UNSPECIFIED.)
CURVE()
GEOMETRIC_REPRESENTATION_ITEM()
RATIONAL_B_SPLINE_CURVE((1.,0.965925826,1.))
REPRESENTATION_ITEM(''));
#1063=EDGE_CURVE('',#1052,#1020,#1062,.T.);
#1064=ORIENTED_EDGE('',*,*,#1063,.T.);
#1065=ORIENTED_EDGE('',*,*,#1025,.F.);
#1066=ORIENTED_EDGE('',*,*,#721,.F.);
#1067=EDGE_LOOP('',(#1050,#1058,#1064,#1065,#1066));
#1068=FACE_BOUND('',#1067,.T.);
#1069=ADVANCED_FACE('',(#1068),#1049,.T.);
#1070=CARTESIAN_POINT('',(553.087103957,41.418837666,1.437743572));
#1071=DIRECTION('',(0.,0.,1.));
#1072=DIRECTION('',(-1.,0.,0.));
#1073=AXIS2_PLACEMENT_3D('',#1070,#1071,#1072);
#1074=CYLINDRICAL_SURFACE('',#1073,3.);
#1075=CARTESIAN_POINT('',(550.087103956,41.418837666,5.839667364));
#1076=VERTEX_POINT('',#1075);
#1077=CARTESIAN_POINT('',(550.087103957,41.418837666,5.839667364));
#1078=DIRECTION('',(-0.,-0.,-1.));
#1079=VECTOR('',#1078,4.401923792);
#1080=LINE('',#1077,#1079);
#1081=EDGE_CURVE('',#1076,#800,#1080,.T.);
#1082=ORIENTED_EDGE('',*,*,#1081,.T.);
#1083=ORIENTED_EDGE('',*,*,#806,.F.);
#1084=ORIENTED_EDGE('',*,*,#915,.F.);
#1085=CARTESIAN_POINT('',(550.489027745,39.918837665,5.437743574));
#1086=CARTESIAN_POINT('',(550.087103956,40.614990088,5.437743574));
#1087=CARTESIAN_POINT('',(550.087103956,41.418837665,5.839667363));
#1088=(BOUNDED_CURVE()
B_SPLINE_CURVE(2,(#1085,#1086,#1087),.UNSPECIFIED.,.F.,.F.)
B_SPLINE_CURVE_WITH_KNOTS((3,3),(180.000000013,210.000000015),.UNSPECIFIED.)
CURVE()
GEOMETRIC_REPRESENTATION_ITEM()
RATIONAL_B_SPLINE_CURVE((1.,0.965925826,1.))
REPRESENTATION_ITEM(''));
#1089=EDGE_CURVE('',#904,#1076,#1088,.T.);
#1090=ORIENTED_EDGE('',*,*,#1089,.T.);
#1091=EDGE_LOOP('',(#1082,#1083,#1084,#1090));
#1092=FACE_BOUND('',#1091,.T.);
#1093=ADVANCED_FACE('',(#1092),#1074,.T.);
#1094=CARTESIAN_POINT('',(622.890951535,81.720107855,1.437743572));
#1095=DIRECTION('',(0.,0.,1.));
#1096=DIRECTION('',(-1.,0.,0.));
#1097=AXIS2_PLACEMENT_3D('',#1094,#1095,#1096);
#1098=CYLINDRICAL_SURFACE('',#1097,3.);
#1099=ORIENTED_EDGE('',*,*,#1039,.F.);
#1100=CARTESIAN_POINT('',(624.390951533,84.318184065,5.839667358));
#1101=VERTEX_POINT('',#1100);
#1102=CARTESIAN_POINT('',(622.890951535,84.720107855,5.437743572));
#1103=CARTESIAN_POINT('',(623.694799112,84.720107855,5.437743572));
#1104=CARTESIAN_POINT('',(624.390951534,84.318184066,5.83966736));
#1105=(BOUNDED_CURVE()
B_SPLINE_CURVE(2,(#1102,#1103,#1104),.UNSPECIFIED.,.F.,.F.)
B_SPLINE_CURVE_WITH_KNOTS((3,3),(180.,210.000000003),.UNSPECIFIED.)
CURVE()
GEOMETRIC_REPRESENTATION_ITEM()
RATIONAL_B_SPLINE_CURVE((1.,0.965925826,1.))
REPRESENTATION_ITEM(''));
#1106=EDGE_CURVE('',#1028,#1101,#1105,.T.);
#1107=ORIENTED_EDGE('',*,*,#1106,.T.);
#1108=CARTESIAN_POINT('',(624.390951531,84.318184063,5.839667355));
#1109=CARTESIAN_POINT('',(625.087103954,83.916260275,5.437743566));
#1110=CARTESIAN_POINT('',(625.489027742,83.220107852,5.437743567));
#1111=(BOUNDED_CURVE()
B_SPLINE_CURVE(2,(#1108,#1109,#1110),.UNSPECIFIED.,.F.,.F.)
B_SPLINE_CURVE_WITH_KNOTS((3,3),(150.000000017,180.000000013),.UNSPECIFIED.)
CURVE()
GEOMETRIC_REPRESENTATION_ITEM()
RATIONAL_B_SPLINE_CURVE((1.,0.965925826,1.))
REPRESENTATION_ITEM(''));
#1112=EDGE_CURVE('',#1101,#989,#1111,.T.);
#1113=ORIENTED_EDGE('',*,*,#1112,.T.);
#1114=ORIENTED_EDGE('',*,*,#994,.F.);
#1115=ORIENTED_EDGE('',*,*,#738,.F.);
#1116=EDGE_LOOP('',(#1099,#1107,#1113,#1114,#1115));
#1117=FACE_BOUND('',#1116,.T.);
#1118=ADVANCED_FACE('',(#1117),#1098,.T.);
#1119=CARTESIAN_POINT('',(646.158900727,41.418837666,1.437743572));
#1120=DIRECTION('',(0.,0.,1.));
#1121=DIRECTION('',(-1.,0.,0.));
#1122=AXIS2_PLACEMENT_3D('',#1119,#1120,#1121);
#1123=CYLINDRICAL_SURFACE('',#1122,3.);
#1124=ORIENTED_EDGE('',*,*,#1008,.F.);
#1125=CARTESIAN_POINT('',(649.158900729,41.418837666,5.839667362));
#1126=VERTEX_POINT('',#1125);
#1127=CARTESIAN_POINT('',(648.75697694,42.918837667,5.437743573));
#1128=CARTESIAN_POINT('',(649.158900729,42.222685244,5.437743574));
#1129=CARTESIAN_POINT('',(649.158900729,41.418837667,5.839667362));
#1130=(BOUNDED_CURVE()
B_SPLINE_CURVE(2,(#1127,#1128,#1129),.UNSPECIFIED.,.F.,.F.)
B_SPLINE_CURVE_WITH_KNOTS((3,3),(180.000000013,210.000000015),.UNSPECIFIED.)
CURVE()
GEOMETRIC_REPRESENTATION_ITEM()
RATIONAL_B_SPLINE_CURVE((1.,0.965925826,1.))
REPRESENTATION_ITEM(''));
#1131=EDGE_CURVE('',#997,#1126,#1130,.T.);
#1132=ORIENTED_EDGE('',*,*,#1131,.T.);
#1133=CARTESIAN_POINT('',(649.158900729,41.418837665,5.839667362));
#1134=CARTESIAN_POINT('',(649.158900729,40.614990088,5.437743574));
#1135=CARTESIAN_POINT('',(648.75697694,39.918837665,5.437743573));
#1136=(BOUNDED_CURVE()
B_SPLINE_CURVE(2,(#1133,#1134,#1135),.UNSPECIFIED.,.F.,.F.)
B_SPLINE_CURVE_WITH_KNOTS((3,3),(149.999999985,179.999999987),.UNSPECIFIED.)
CURVE()
GEOMETRIC_REPRESENTATION_ITEM()
RATIONAL_B_SPLINE_CURVE((1.,0.965925826,1.))
REPRESENTATION_ITEM(''));
#1137=EDGE_CURVE('',#1126,#958,#1136,.T.);
#1138=ORIENTED_EDGE('',*,*,#1137,.T.);
#1139=ORIENTED_EDGE('',*,*,#963,.F.);
#1140=ORIENTED_EDGE('',*,*,#755,.F.);
#1141=EDGE_LOOP('',(#1124,#1132,#1138,#1139,#1140));
#1142=FACE_BOUND('',#1141,.T.);
#1143=ADVANCED_FACE('',(#1142),#1123,.T.);
#1144=CARTESIAN_POINT('',(622.890951535,1.117567477,1.437743572));
#1145=DIRECTION('',(0.,0.,1.));
#1146=DIRECTION('',(-1.,0.,0.));
#1147=AXIS2_PLACEMENT_3D('',#1144,#1145,#1146);
#1148=CYLINDRICAL_SURFACE('',#1147,3.);
#1149=ORIENTED_EDGE('',*,*,#977,.F.);
#1150=CARTESIAN_POINT('',(624.390951535,-1.480508735,5.83966736));
#1151=VERTEX_POINT('',#1150);
#1152=CARTESIAN_POINT('',(625.489027742,-0.382432521,5.437743566));
#1153=CARTESIAN_POINT('',(625.087103953,-1.078584944,5.437743566));
#1154=CARTESIAN_POINT('',(624.390951531,-1.480508732,5.839667355));
#1155=(BOUNDED_CURVE()
B_SPLINE_CURVE(2,(#1152,#1153,#1154),.UNSPECIFIED.,.F.,.F.)
B_SPLINE_CURVE_WITH_KNOTS((3,3),(179.999999987,209.999999995),.UNSPECIFIED.)
CURVE()
GEOMETRIC_REPRESENTATION_ITEM()
RATIONAL_B_SPLINE_CURVE((1.,0.965925826,1.))
REPRESENTATION_ITEM(''));
#1156=EDGE_CURVE('',#966,#1151,#1155,.T.);
#1157=ORIENTED_EDGE('',*,*,#1156,.T.);
#1158=CARTESIAN_POINT('',(624.390951535,-1.480508735,5.83966736));
#1159=CARTESIAN_POINT('',(623.694799112,-1.882432523,5.437743572));
#1160=CARTESIAN_POINT('',(622.890951535,-1.882432523,5.437743572));
#1161=(BOUNDED_CURVE()
B_SPLINE_CURVE(2,(#1158,#1159,#1160),.UNSPECIFIED.,.F.,.F.)
B_SPLINE_CURVE_WITH_KNOTS((3,3),(150.000000002,180.),.UNSPECIFIED.)
CURVE()
GEOMETRIC_REPRESENTATION_ITEM()
RATIONAL_B_SPLINE_CURVE((1.,0.965925826,1.))
REPRESENTATION_ITEM(''));
#1162=EDGE_CURVE('',#1151,#927,#1161,.T.);
#1163=ORIENTED_EDGE('',*,*,#1162,.T.);
#1164=ORIENTED_EDGE('',*,*,#932,.F.);
#1165=ORIENTED_EDGE('',*,*,#772,.F.);
#1166=EDGE_LOOP('',(#1149,#1157,#1163,#1164,#1165));
#1167=FACE_BOUND('',#1166,.T.);
#1168=ADVANCED_FACE('',(#1167),#1148,.T.);
#1169=CARTESIAN_POINT('',(576.35505315,1.117567477,1.437743572));
#1170=DIRECTION('',(0.,0.,1.));
#1171=DIRECTION('',(-1.,0.,0.));
#1172=AXIS2_PLACEMENT_3D('',#1169,#1170,#1171);
#1173=CYLINDRICAL_SURFACE('',#1172,3.);
#1174=ORIENTED_EDGE('',*,*,#946,.F.);
#1175=CARTESIAN_POINT('',(574.855053155,-1.480508733,5.839667356));
#1176=VERTEX_POINT('',#1175);
#1177=CARTESIAN_POINT('',(576.35505315,-1.882432523,5.437743572));
#1178=CARTESIAN_POINT('',(575.551205573,-1.882432523,5.437743572));
#1179=CARTESIAN_POINT('',(574.855053153,-1.480508736,5.839667359));
#1180=(BOUNDED_CURVE()
B_SPLINE_CURVE(2,(#1177,#1178,#1179),.UNSPECIFIED.,.F.,.F.)
B_SPLINE_CURVE_WITH_KNOTS((3,3),(180.,209.999999998),.UNSPECIFIED.)
CURVE()
GEOMETRIC_REPRESENTATION_ITEM()
RATIONAL_B_SPLINE_CURVE((1.,0.965925826,1.))
REPRESENTATION_ITEM(''));
#1181=EDGE_CURVE('',#935,#1176,#1180,.T.);
#1182=ORIENTED_EDGE('',*,*,#1181,.T.);
#1183=CARTESIAN_POINT('',(574.855053155,-1.480508733,5.839667356));
#1184=CARTESIAN_POINT('',(574.158900732,-1.078584944,5.437743567));
#1185=CARTESIAN_POINT('',(573.756976942,-0.382432521,5.437743567));
#1186=(BOUNDED_CURVE()
B_SPLINE_CURVE(2,(#1183,#1184,#1185),.UNSPECIFIED.,.F.,.F.)
B_SPLINE_CURVE_WITH_KNOTS((3,3),(150.000000005,180.000000022),.UNSPECIFIED.)
CURVE()
GEOMETRIC_REPRESENTATION_ITEM()
RATIONAL_B_SPLINE_CURVE((1.,0.965925826,1.))
REPRESENTATION_ITEM(''));
#1187=EDGE_CURVE('',#1176,#896,#1186,.T.);
#1188=ORIENTED_EDGE('',*,*,#1187,.T.);
#1189=ORIENTED_EDGE('',*,*,#901,.F.);
#1190=ORIENTED_EDGE('',*,*,#789,.F.);
#1191=EDGE_LOOP('',(#1174,#1182,#1188,#1189,#1190));
#1192=FACE_BOUND('',#1191,.T.);
#1193=ADVANCED_FACE('',(#1192),#1173,.T.);
#1194=CARTESIAN_POINT('',(633.658900727,21.768202571,9.437743572));
#1195=DIRECTION('',(-0.612372436,0.353553391,-0.707106781));
#1196=DIRECTION('',(0.5,0.866025404,0.));
#1197=AXIS2_PLACEMENT_3D('',#1194,#1195,#1196);
#1198=PLANE('',#1197);
#1199=ORIENTED_EDGE('',*,*,#971,.F.);
#1200=ORIENTED_EDGE('',*,*,#1137,.F.);
#1201=CARTESIAN_POINT('',(645.004200193,41.418837668,9.437743574));
#1202=DIRECTION('',(0.755928946,-0.,-0.654653671));
#1203=VECTOR('',#1202,5.496152197);
#1204=LINE('',#1201,#1203);
#1205=EDGE_CURVE('',#633,#1126,#1204,.T.);
#1206=ORIENTED_EDGE('',*,*,#1205,.F.);
#1207=ORIENTED_EDGE('',*,*,#638,.F.);
#1208=CARTESIAN_POINT('',(624.390951535,-1.480508735,5.83966736));
#1209=DIRECTION('',(-0.377964473,0.654653671,0.654653671));
#1210=VECTOR('',#1209,5.496152199);
#1211=LINE('',#1208,#1210);
#1212=EDGE_CURVE('',#1151,#625,#1211,.T.);
#1213=ORIENTED_EDGE('',*,*,#1212,.F.);
#1214=ORIENTED_EDGE('',*,*,#1156,.F.);
#1215=EDGE_LOOP('',(#1199,#1200,#1206,#1207,#1213,#1214));
#1216=FACE_BOUND('',#1215,.T.);
#1217=ADVANCED_FACE('',(#1216),#1198,.F.);
#1218=CARTESIAN_POINT('',(633.658900727,61.069472761,9.437743572));
#1219=DIRECTION('',(-0.612372436,-0.353553391,-0.707106781));
#1220=DIRECTION('',(-0.5,0.866025404,-0.));
#1221=AXIS2_PLACEMENT_3D('',#1218,#1219,#1220);
#1222=PLANE('',#1221);
#1223=ORIENTED_EDGE('',*,*,#1002,.F.);
#1224=ORIENTED_EDGE('',*,*,#1112,.F.);
#1225=CARTESIAN_POINT('',(622.313601265,80.720107855,9.437743572));
#1226=DIRECTION('',(0.377964473,0.654653671,-0.654653671));
#1227=VECTOR('',#1226,5.496152198);
#1228=LINE('',#1225,#1227);
#1229=EDGE_CURVE('',#599,#1101,#1228,.T.);
#1230=ORIENTED_EDGE('',*,*,#1229,.F.);
#1231=ORIENTED_EDGE('',*,*,#644,.F.);
#1232=ORIENTED_EDGE('',*,*,#1205,.T.);
#1233=ORIENTED_EDGE('',*,*,#1131,.F.);
#1234=EDGE_LOOP('',(#1223,#1224,#1230,#1231,#1232,#1233));
#1235=FACE_BOUND('',#1234,.T.);
#1236=ADVANCED_FACE('',(#1235),#1222,.F.);
#1237=CARTESIAN_POINT('',(599.623002342,2.117567477,9.437743572));
#1238=DIRECTION('',(0.,0.707106781,-0.707106781));
#1239=DIRECTION('',(1.,0.,0.));
#1240=AXIS2_PLACEMENT_3D('',#1237,#1238,#1239);
#1241=PLANE('',#1240);
#1242=ORIENTED_EDGE('',*,*,#1212,.T.);
#1243=ORIENTED_EDGE('',*,*,#630,.F.);
#1244=CARTESIAN_POINT('',(574.855053155,-1.480508733,5.839667356));
#1245=DIRECTION('',(0.377964473,0.654653671,0.654653671));
#1246=VECTOR('',#1245,5.4961522);
#1247=LINE('',#1244,#1246);
#1248=EDGE_CURVE('',#1176,#617,#1247,.T.);
#1249=ORIENTED_EDGE('',*,*,#1248,.F.);
#1250=ORIENTED_EDGE('',*,*,#1181,.F.);
#1251=ORIENTED_EDGE('',*,*,#940,.F.);
#1252=ORIENTED_EDGE('',*,*,#1162,.F.);
#1253=EDGE_LOOP('',(#1242,#1243,#1249,#1250,#1251,#1252));
#1254=FACE_BOUND('',#1253,.T.);
#1255=ADVANCED_FACE('',(#1254),#1241,.F.);
#1256=CARTESIAN_POINT('',(599.623002342,80.720107855,9.437743572));
#1257=DIRECTION('',(0.,-0.707106781,-0.707106781));
#1258=DIRECTION('',(-1.,0.,0.));
#1259=AXIS2_PLACEMENT_3D('',#1256,#1257,#1258);
#1260=PLANE('',#1259);
#1261=ORIENTED_EDGE('',*,*,#1033,.F.);
#1262=ORIENTED_EDGE('',*,*,#1063,.F.);
#1263=CARTESIAN_POINT('',(576.932403422,80.720107853,9.43774357));
#1264=DIRECTION('',(-0.377964473,0.65465367,-0.654653671));
#1265=VECTOR('',#1264,5.496152199);
#1266=LINE('',#1263,#1265);
#1267=EDGE_CURVE('',#601,#1052,#1266,.T.);
#1268=ORIENTED_EDGE('',*,*,#1267,.F.);
#1269=ORIENTED_EDGE('',*,*,#606,.F.);
#1270=ORIENTED_EDGE('',*,*,#1229,.T.);
#1271=ORIENTED_EDGE('',*,*,#1106,.F.);
#1272=EDGE_LOOP('',(#1261,#1262,#1268,#1269,#1270,#1271));
#1273=FACE_BOUND('',#1272,.T.);
#1274=ADVANCED_FACE('',(#1273),#1260,.F.);
#1275=CARTESIAN_POINT('',(565.587103957,21.768202571,9.437743572));
#1276=DIRECTION('',(0.612372436,0.353553391,-0.707106781));
#1277=DIRECTION('',(0.5,-0.866025404,-0.));
#1278=AXIS2_PLACEMENT_3D('',#1275,#1276,#1277);
#1279=PLANE('',#1278);
#1280=ORIENTED_EDGE('',*,*,#1248,.T.);
#1281=ORIENTED_EDGE('',*,*,#622,.F.);
#1282=CARTESIAN_POINT('',(550.087103957,41.418837667,5.839667364));
#1283=DIRECTION('',(0.755928946,0.,0.654653671));
#1284=VECTOR('',#1283,5.496152196);
#1285=LINE('',#1282,#1284);
#1286=EDGE_CURVE('',#1076,#609,#1285,.T.);
#1287=ORIENTED_EDGE('',*,*,#1286,.F.);
#1288=ORIENTED_EDGE('',*,*,#1089,.F.);
#1289=ORIENTED_EDGE('',*,*,#909,.F.);
#1290=ORIENTED_EDGE('',*,*,#1187,.F.);
#1291=EDGE_LOOP('',(#1280,#1281,#1287,#1288,#1289,#1290));
#1292=FACE_BOUND('',#1291,.T.);
#1293=ADVANCED_FACE('',(#1292),#1279,.F.);
#1294=CARTESIAN_POINT('',(565.587103957,61.069472761,9.437743572));
#1295=DIRECTION('',(0.612372436,-0.353553391,-0.707106781));
#1296=DIRECTION('',(-0.5,-0.866025404,0.));
#1297=AXIS2_PLACEMENT_3D('',#1294,#1295,#1296);
#1298=PLANE('',#1297);
#1299=ORIENTED_EDGE('',*,*,#1057,.F.);
#1300=ORIENTED_EDGE('',*,*,#878,.F.);
#1301=CARTESIAN_POINT('',(550.087103956,41.418837667,5.839667363));
#1302=CARTESIAN_POINT('',(550.087103956,42.222685244,5.437743574));
#1303=CARTESIAN_POINT('',(550.489027745,42.918837667,5.437743574));
#1304=(BOUNDED_CURVE()
B_SPLINE_CURVE(2,(#1301,#1302,#1303),.UNSPECIFIED.,.F.,.F.)
B_SPLINE_CURVE_WITH_KNOTS((3,3),(149.999999985,179.999999987),.UNSPECIFIED.)
CURVE()
GEOMETRIC_REPRESENTATION_ITEM()
RATIONAL_B_SPLINE_CURVE((1.,0.965925826,1.))
REPRESENTATION_ITEM(''));
#1305=EDGE_CURVE('',#1076,#865,#1304,.T.);
#1306=ORIENTED_EDGE('',*,*,#1305,.F.);
#1307=ORIENTED_EDGE('',*,*,#1286,.T.);
#1308=ORIENTED_EDGE('',*,*,#614,.F.);
#1309=ORIENTED_EDGE('',*,*,#1267,.T.);
#1310=EDGE_LOOP('',(#1299,#1300,#1306,#1307,#1308,#1309));
#1311=FACE_BOUND('',#1310,.T.);
#1312=ADVANCED_FACE('',(#1311),#1298,.F.);
#1313=CARTESIAN_POINT('',(588.813975393,35.178243047,-586.462256428));
#1314=DIRECTION('',(0.866025404,0.5,0.));
#1315=DIRECTION('',(0.5,-0.866025404,0.));
#1316=AXIS2_PLACEMENT_3D('',#1313,#1314,#1315);
#1317=PLANE('',#1316);
#1318=ORIENTED_EDGE('',*,*,#482,.F.);
#1319=CARTESIAN_POINT('',(592.416984376,28.937648428,1.437743572));
#1320=DIRECTION('',(-0.,-0.,1.));
#1321=VECTOR('',#1320,63.1);
#1322=LINE('',#1319,#1321);
#1323=EDGE_CURVE('',#818,#469,#1322,.T.);
#1324=ORIENTED_EDGE('',*,*,#1323,.F.);
#1325=ORIENTED_EDGE('',*,*,#825,.T.);
#1326=CARTESIAN_POINT('',(585.210966411,41.418837666,1.437743572));
#1327=DIRECTION('',(-0.,-0.,1.));
#1328=VECTOR('',#1327,63.1);
#1329=LINE('',#1326,#1328);
#1330=EDGE_CURVE('',#820,#477,#1329,.T.);
#1331=ORIENTED_EDGE('',*,*,#1330,.T.);
#1332=EDGE_LOOP('',(#1318,#1324,#1325,#1331));
#1333=FACE_BOUND('',#1332,.T.);
#1334=ADVANCED_FACE('',(#1333),#1317,.T.);
#1335=CARTESIAN_POINT('',(588.813975393,47.659432285,-586.462256428));
#1336=DIRECTION('',(0.866025404,-0.5,0.));
#1337=DIRECTION('',(-0.5,-0.866025404,0.));
#1338=AXIS2_PLACEMENT_3D('',#1335,#1336,#1337);
#1339=PLANE('',#1338);
#1340=ORIENTED_EDGE('',*,*,#260,.T.);
#1341=CARTESIAN_POINT('',(592.416985656,53.900029122,35.079473361));
#1342=DIRECTION('',(-0.000003059,-0.000005299,1.));
#1343=VECTOR('',#1342,1.);
#1344=LINE('',#1341,#1343);
#1345=EDGE_CURVE('',#247,#351,#1344,.T.);
#1346=ORIENTED_EDGE('',*,*,#1345,.T.);
#1347=ORIENTED_EDGE('',*,*,#356,.T.);
#1348=ORIENTED_EDGE('',*,*,#348,.T.);
#1349=CARTESIAN_POINT('',(592.416984375,53.900026904,56.025229669));
#1350=DIRECTION('',(0.,0.,-1.));
#1351=VECTOR('',#1350,5.);
#1352=LINE('',#1349,#1351);
#1353=EDGE_CURVE('',#311,#335,#1352,.T.);
#1354=ORIENTED_EDGE('',*,*,#1353,.F.);
#1355=ORIENTED_EDGE('',*,*,#316,.T.);
#1356=ORIENTED_EDGE('',*,*,#488,.F.);
#1357=ORIENTED_EDGE('',*,*,#1330,.F.);
#1358=ORIENTED_EDGE('',*,*,#854,.T.);
#1359=ORIENTED_EDGE('',*,*,#268,.T.);
#1360=EDGE_LOOP('',(#1340,#1346,#1347,#1348,#1354,#1355,#1356,#1357,#1358,#1359));
#1361=FACE_BOUND('',#1360,.T.);
#1362=ADVANCED_FACE('',(#1361),#1339,.T.);
#1363=CARTESIAN_POINT('',(610.432029291,47.659432285,-586.462256428));
#1364=DIRECTION('',(-0.866025404,-0.5,0.));
#1365=DIRECTION('',(-0.5,0.866025404,0.));
#1366=AXIS2_PLACEMENT_3D('',#1363,#1364,#1365);
#1367=PLANE('',#1366);
#1368=ORIENTED_EDGE('',*,*,#292,.F.);
#1369=ORIENTED_EDGE('',*,*,#284,.F.);
#1370=ORIENTED_EDGE('',*,*,#847,.T.);
#1371=CARTESIAN_POINT('',(614.035038274,41.418837665,1.437743572));
#1372=DIRECTION('',(-0.,-0.,1.));
#1373=VECTOR('',#1372,63.1);
#1374=LINE('',#1371,#1373);
#1375=EDGE_CURVE('',#836,#453,#1374,.T.);
#1376=ORIENTED_EDGE('',*,*,#1375,.T.);
#1377=ORIENTED_EDGE('',*,*,#458,.F.);
#1378=ORIENTED_EDGE('',*,*,#300,.F.);
#1379=EDGE_LOOP('',(#1368,#1369,#1370,#1376,#1377,#1378));
#1380=FACE_BOUND('',#1379,.T.);
#1381=ADVANCED_FACE('',(#1380),#1367,.T.);
#1382=CARTESIAN_POINT('',(610.432029291,35.178243047,-586.462256428));
#1383=DIRECTION('',(-0.866025404,0.5,0.));
#1384=DIRECTION('',(0.5,0.866025404,0.));
#1385=AXIS2_PLACEMENT_3D('',#1382,#1383,#1384);
#1386=PLANE('',#1385);
#1387=CARTESIAN_POINT('',(606.829020309,28.937648428,1.437743572));
#1388=DIRECTION('',(-0.,-0.,1.));
#1389=VECTOR('',#1388,63.1);
#1390=LINE('',#1387,#1389);
#1391=EDGE_CURVE('',#828,#461,#1390,.T.);
#1392=ORIENTED_EDGE('',*,*,#1391,.T.);
#1393=ORIENTED_EDGE('',*,*,#466,.F.);
#1394=ORIENTED_EDGE('',*,*,#1375,.F.);
#1395=ORIENTED_EDGE('',*,*,#841,.T.);
#1396=EDGE_LOOP('',(#1392,#1393,#1394,#1395));
#1397=FACE_BOUND('',#1396,.T.);
#1398=ADVANCED_FACE('',(#1397),#1386,.T.);
#1399=CARTESIAN_POINT('',(599.623002342,28.937648428,-586.462256428));
#1400=DIRECTION('',(0.,1.,0.));
#1401=DIRECTION('',(1.,0.,0.));
#1402=AXIS2_PLACEMENT_3D('',#1399,#1400,#1401);
#1403=PLANE('',#1402);
#1404=ORIENTED_EDGE('',*,*,#1323,.T.);
#1405=ORIENTED_EDGE('',*,*,#474,.F.);
#1406=ORIENTED_EDGE('',*,*,#1391,.F.);
#1407=ORIENTED_EDGE('',*,*,#833,.T.);
#1408=EDGE_LOOP('',(#1404,#1405,#1406,#1407));
#1409=FACE_BOUND('',#1408,.T.);
#1410=ADVANCED_FACE('',(#1409),#1403,.T.);
#1411=CARTESIAN_POINT('',(587.081924585,34.178243047,7.537743572));
#1412=DIRECTION('',(0.866025404,0.5,0.));
#1413=DIRECTION('',(0.5,-0.866025404,0.));
#1414=AXIS2_PLACEMENT_3D('',#1411,#1412,#1413);
#1415=PLANE('',#1414);
#1416=ORIENTED_EDGE('',*,*,#664,.F.);
#1417=CARTESIAN_POINT('',(591.262283837,26.937648428,9.437743572));
#1418=DIRECTION('',(-0.,-0.,1.));
#1419=VECTOR('',#1418,55.1);
#1420=LINE('',#1417,#1419);
#1421=EDGE_CURVE('',#651,#493,#1420,.T.);
#1422=ORIENTED_EDGE('',*,*,#1421,.T.);
#1423=ORIENTED_EDGE('',*,*,#500,.T.);
#1424=CARTESIAN_POINT('',(582.901565334,41.418837666,9.437743572));
#1425=DIRECTION('',(-0.,-0.,1.));
#1426=VECTOR('',#1425,55.1);
#1427=LINE('',#1424,#1426);
#1428=EDGE_CURVE('',#659,#495,#1427,.T.);
#1429=ORIENTED_EDGE('',*,*,#1428,.F.);
#1430=EDGE_LOOP('',(#1416,#1422,#1423,#1429));
#1431=FACE_BOUND('',#1430,.T.);
#1432=ADVANCED_FACE('',(#1431),#1415,.F.);
#1433=CARTESIAN_POINT('',(587.081924585,48.659432285,7.537743572));
#1434=DIRECTION('',(0.866025404,-0.5,0.));
#1435=DIRECTION('',(-0.5,-0.866025404,0.));
#1436=AXIS2_PLACEMENT_3D('',#1433,#1434,#1435);
#1437=PLANE('',#1436);
#1438=ORIENTED_EDGE('',*,*,#672,.F.);
#1439=ORIENTED_EDGE('',*,*,#1428,.T.);
#1440=ORIENTED_EDGE('',*,*,#538,.T.);
#1441=CARTESIAN_POINT('',(591.262283838,55.900026904,9.437743572));
#1442=DIRECTION('',(-0.,-0.,1.));
#1443=VECTOR('',#1442,55.1);
#1444=LINE('',#1441,#1443);
#1445=EDGE_CURVE('',#667,#527,#1444,.T.);
#1446=ORIENTED_EDGE('',*,*,#1445,.F.);
#1447=EDGE_LOOP('',(#1438,#1439,#1440,#1446));
#1448=FACE_BOUND('',#1447,.T.);
#1449=ADVANCED_FACE('',(#1448),#1437,.F.);
#1450=CARTESIAN_POINT('',(599.623002342,55.900026904,7.537743572));
#1451=DIRECTION('',(0.,-1.,0.));
#1452=DIRECTION('',(-1.,0.,0.));
#1453=AXIS2_PLACEMENT_3D('',#1450,#1451,#1452);
#1454=PLANE('',#1453);
#1455=CARTESIAN_POINT('',(599.623002342,55.900026904,37.937743572));
#1456=VERTEX_POINT('',#1455);
#1457=CARTESIAN_POINT('',(599.623002342,55.900026904,43.937743572));
#1458=VERTEX_POINT('',#1457);
#1459=CARTESIAN_POINT('',(599.623002342,55.900026904,40.937743572));
#1460=DIRECTION('',(0.,-1.,0.));
#1461=DIRECTION('',(0.,0.,-1.));
#1462=AXIS2_PLACEMENT_3D('',#1459,#1460,#1461);
#1463=CIRCLE('',#1462,3.);
#1464=EDGE_CURVE('',#1456,#1458,#1463,.T.);
#1465=ORIENTED_EDGE('',*,*,#1464,.T.);
#1466=CARTESIAN_POINT('',(599.623002342,55.900026904,40.937743572));
#1467=DIRECTION('',(0.,-1.,0.));
#1468=DIRECTION('',(0.,0.,-1.));
#1469=AXIS2_PLACEMENT_3D('',#1466,#1467,#1468);
#1470=CIRCLE('',#1469,3.);
#1471=EDGE_CURVE('',#1458,#1456,#1470,.T.);
#1472=ORIENTED_EDGE('',*,*,#1471,.T.);
#1473=EDGE_LOOP('',(#1465,#1472));
#1474=FACE_BOUND('',#1473,.T.);
#1475=ORIENTED_EDGE('',*,*,#680,.F.);
#1476=ORIENTED_EDGE('',*,*,#1445,.T.);
#1477=ORIENTED_EDGE('',*,*,#532,.T.);
#1478=CARTESIAN_POINT('',(607.983720848,55.900026904,9.437743572));
#1479=DIRECTION('',(-0.,-0.,1.));
#1480=VECTOR('',#1479,55.1);
#1481=LINE('',#1478,#1480);
#1482=EDGE_CURVE('',#675,#519,#1481,.T.);
#1483=ORIENTED_EDGE('',*,*,#1482,.F.);
#1484=EDGE_LOOP('',(#1475,#1476,#1477,#1483));
#1485=FACE_BOUND('',#1484,.T.);
#1486=ADVANCED_FACE('',(#1474,#1485),#1454,.F.);
#1487=CARTESIAN_POINT('',(612.164080099,48.659432285,7.537743572));
#1488=DIRECTION('',(-0.866025404,-0.5,0.));
#1489=DIRECTION('',(-0.5,0.866025404,0.));
#1490=AXIS2_PLACEMENT_3D('',#1487,#1488,#1489);
#1491=PLANE('',#1490);
#1492=ORIENTED_EDGE('',*,*,#688,.F.);
#1493=ORIENTED_EDGE('',*,*,#1482,.T.);
#1494=ORIENTED_EDGE('',*,*,#524,.T.);
#1495=CARTESIAN_POINT('',(616.344439351,41.418837666,9.437743572));
#1496=DIRECTION('',(-0.,-0.,1.));
#1497=VECTOR('',#1496,55.1);
#1498=LINE('',#1495,#1497);
#1499=EDGE_CURVE('',#683,#511,#1498,.T.);
#1500=ORIENTED_EDGE('',*,*,#1499,.F.);
#1501=EDGE_LOOP('',(#1492,#1493,#1494,#1500));
#1502=FACE_BOUND('',#1501,.T.);
#1503=ADVANCED_FACE('',(#1502),#1491,.F.);
#1504=CARTESIAN_POINT('',(612.164080099,34.178243047,7.537743572));
#1505=DIRECTION('',(-0.866025404,0.5,0.));
#1506=DIRECTION('',(0.5,0.866025404,0.));
#1507=AXIS2_PLACEMENT_3D('',#1504,#1505,#1506);
#1508=PLANE('',#1507);
#1509=ORIENTED_EDGE('',*,*,#694,.F.);
#1510=ORIENTED_EDGE('',*,*,#1499,.T.);
#1511=ORIENTED_EDGE('',*,*,#516,.T.);
#1512=CARTESIAN_POINT('',(607.983720847,26.937648428,9.437743572));
#1513=DIRECTION('',(-0.,-0.,1.));
#1514=VECTOR('',#1513,55.1);
#1515=LINE('',#1512,#1514);
#1516=EDGE_CURVE('',#649,#503,#1515,.T.);
#1517=ORIENTED_EDGE('',*,*,#1516,.F.);
#1518=EDGE_LOOP('',(#1509,#1510,#1511,#1517));
#1519=FACE_BOUND('',#1518,.T.);
#1520=ADVANCED_FACE('',(#1519),#1508,.F.);
#1521=CARTESIAN_POINT('',(599.623002342,26.937648428,7.537743572));
#1522=DIRECTION('',(0.,1.,0.));
#1523=DIRECTION('',(1.,0.,0.));
#1524=AXIS2_PLACEMENT_3D('',#1521,#1522,#1523);
#1525=PLANE('',#1524);
#1526=ORIENTED_EDGE('',*,*,#656,.F.);
#1527=ORIENTED_EDGE('',*,*,#1516,.T.);
#1528=ORIENTED_EDGE('',*,*,#508,.T.);
#1529=ORIENTED_EDGE('',*,*,#1421,.F.);
#1530=EDGE_LOOP('',(#1526,#1527,#1528,#1529));
#1531=FACE_BOUND('',#1530,.T.);
#1532=ADVANCED_FACE('',(#1531),#1525,.F.);
#1533=CARTESIAN_POINT('',(616.344439351,74.124824256,72.437743572));
#1534=DIRECTION('',(1.,0.,0.));
#1535=DIRECTION('',(0.,0.,-1.));
#1536=AXIS2_PLACEMENT_3D('',#1533,#1534,#1535);
#1537=PLANE('',#1536);
#1538=ORIENTED_EDGE('',*,*,#594,.F.);
#1539=CARTESIAN_POINT('',(616.344439351,76.186306775,72.437743572));
#1540=VERTEX_POINT('',#1539);
#1541=CARTESIAN_POINT('',(616.344439351,76.186306775,72.437743572));
#1542=DIRECTION('',(0.,0.,-1.));
#1543=VECTOR('',#1542,63.);
#1544=LINE('',#1541,#1543);
#1545=EDGE_CURVE('',#1540,#583,#1544,.T.);
#1546=ORIENTED_EDGE('',*,*,#1545,.F.);
#1547=CARTESIAN_POINT('',(616.344439351,5.586129561,72.437743572));
#1548=VERTEX_POINT('',#1547);
#1549=CARTESIAN_POINT('',(616.344439351,76.186306775,72.437743572));
#1550=DIRECTION('',(0.,-1.,0.));
#1551=VECTOR('',#1550,70.600177214);
#1552=LINE('',#1549,#1551);
#1553=EDGE_CURVE('',#1540,#1548,#1552,.T.);
#1554=ORIENTED_EDGE('',*,*,#1553,.T.);
#1555=CARTESIAN_POINT('',(616.344439351,5.586129561,72.437743572));
#1556=DIRECTION('',(0.,0.,-1.));
#1557=VECTOR('',#1556,63.);
#1558=LINE('',#1555,#1557);
#1559=EDGE_CURVE('',#1548,#549,#1558,.T.);
#1560=ORIENTED_EDGE('',*,*,#1559,.T.);
#1561=ORIENTED_EDGE('',*,*,#569,.F.);
#1562=ORIENTED_EDGE('',*,*,#200,.F.);
#1563=CARTESIAN_POINT('',(616.344439351,9.043629333,70.437743572));
#1564=DIRECTION('',(0.,1.,0.));
#1565=VECTOR('',#1564,63.019712403);
#1566=LINE('',#1563,#1565);
#1567=EDGE_CURVE('',#187,#137,#1566,.T.);
#1568=ORIENTED_EDGE('',*,*,#1567,.T.);
#1569=ORIENTED_EDGE('',*,*,#144,.T.);
#1570=EDGE_LOOP('',(#1538,#1546,#1554,#1560,#1561,#1562,#1568,#1569));
#1571=FACE_BOUND('',#1570,.T.);
#1572=ADVANCED_FACE('',(#1571),#1537,.T.);
#1573=CARTESIAN_POINT('',(599.623002342,76.186306775,72.437743572));
#1574=DIRECTION('',(0.,1.,0.));
#1575=DIRECTION('',(0.,0.,1.));
#1576=AXIS2_PLACEMENT_3D('',#1573,#1574,#1575);
#1577=PLANE('',#1576);
#1578=CARTESIAN_POINT('',(599.623002342,76.186306775,43.937743572));
#1579=VERTEX_POINT('',#1578);
#1580=CARTESIAN_POINT('',(599.623002342,76.186306775,40.937743572));
#1581=DIRECTION('',(0.,1.,0.));
#1582=DIRECTION('',(0.,-0.,1.));
#1583=AXIS2_PLACEMENT_3D('',#1580,#1581,#1582);
#1584=CIRCLE('',#1583,3.);
#1585=EDGE_CURVE('',#1579,#1579,#1584,.T.);
#1586=ORIENTED_EDGE('',*,*,#1585,.F.);
#1587=EDGE_LOOP('',(#1586));
#1588=FACE_BOUND('',#1587,.T.);
#1589=ORIENTED_EDGE('',*,*,#588,.F.);
#1590=CARTESIAN_POINT('',(582.901565333,76.186306775,72.437743572));
#1591=VERTEX_POINT('',#1590);
#1592=CARTESIAN_POINT('',(582.901565333,76.186306775,72.437743572));
#1593=DIRECTION('',(0.,0.,-1.));
#1594=VECTOR('',#1593,63.);
#1595=LINE('',#1592,#1594);
#1596=EDGE_CURVE('',#1591,#575,#1595,.T.);
#1597=ORIENTED_EDGE('',*,*,#1596,.F.);
#1598=CARTESIAN_POINT('',(582.901565333,76.186306775,72.437743572));
#1599=DIRECTION('',(1.,0.,-0.));
#1600=VECTOR('',#1599,33.442874018);
#1601=LINE('',#1598,#1600);
#1602=EDGE_CURVE('',#1591,#1540,#1601,.T.);
#1603=ORIENTED_EDGE('',*,*,#1602,.T.);
#1604=ORIENTED_EDGE('',*,*,#1545,.T.);
#1605=EDGE_LOOP('',(#1589,#1597,#1603,#1604));
#1606=FACE_BOUND('',#1605,.T.);
#1607=ADVANCED_FACE('',(#1588,#1606),#1577,.T.);
#1608=CARTESIAN_POINT('',(582.901565333,74.124824256,72.437743572));
#1609=DIRECTION('',(-1.,0.,0.));
#1610=DIRECTION('',(0.,0.,1.));
#1611=AXIS2_PLACEMENT_3D('',#1608,#1609,#1610);
#1612=PLANE('',#1611);
#1613=ORIENTED_EDGE('',*,*,#580,.F.);
#1614=ORIENTED_EDGE('',*,*,#160,.F.);
#1615=CARTESIAN_POINT('',(582.901565333,9.043629333,70.437743572));
#1616=DIRECTION('',(0.,1.,0.));
#1617=VECTOR('',#1616,63.019712403);
#1618=LINE('',#1615,#1617);
#1619=EDGE_CURVE('',#177,#147,#1618,.T.);
#1620=ORIENTED_EDGE('',*,*,#1619,.F.);
#1621=ORIENTED_EDGE('',*,*,#184,.T.);
#1622=ORIENTED_EDGE('',*,*,#562,.F.);
#1623=CARTESIAN_POINT('',(582.901565333,5.586129561,72.437743572));
#1624=VERTEX_POINT('',#1623);
#1625=CARTESIAN_POINT('',(582.901565333,5.586129561,72.437743572));
#1626=DIRECTION('',(0.,0.,-1.));
#1627=VECTOR('',#1626,63.);
#1628=LINE('',#1625,#1627);
#1629=EDGE_CURVE('',#1624,#551,#1628,.T.);
#1630=ORIENTED_EDGE('',*,*,#1629,.F.);
#1631=CARTESIAN_POINT('',(582.901565333,5.586129561,72.437743572));
#1632=DIRECTION('',(0.,1.,0.));
#1633=VECTOR('',#1632,70.600177214);
#1634=LINE('',#1631,#1633);
#1635=EDGE_CURVE('',#1624,#1591,#1634,.T.);
#1636=ORIENTED_EDGE('',*,*,#1635,.T.);
#1637=ORIENTED_EDGE('',*,*,#1596,.T.);
#1638=EDGE_LOOP('',(#1613,#1614,#1620,#1621,#1622,#1630,#1636,#1637));
#1639=FACE_BOUND('',#1638,.T.);
#1640=ADVANCED_FACE('',(#1639),#1612,.T.);
#1641=CARTESIAN_POINT('',(0.,0.,72.437743572));
#1642=DIRECTION('',(0.,0.,1.));
#1643=DIRECTION('',(0.,-1.,0.));
#1644=AXIS2_PLACEMENT_3D('',#1641,#1642,#1643);
#1645=PLANE('',#1644);
#1646=ORIENTED_EDGE('',*,*,#1635,.F.);
#1647=CARTESIAN_POINT('',(616.344439351,5.586129561,72.437743572));
#1648=DIRECTION('',(-1.,-0.,0.));
#1649=VECTOR('',#1648,33.442874018);
#1650=LINE('',#1647,#1649);
#1651=EDGE_CURVE('',#1548,#1624,#1650,.T.);
#1652=ORIENTED_EDGE('',*,*,#1651,.F.);
#1653=ORIENTED_EDGE('',*,*,#1553,.F.);
#1654=ORIENTED_EDGE('',*,*,#1602,.F.);
#1655=EDGE_LOOP('',(#1646,#1652,#1653,#1654));
#1656=FACE_BOUND('',#1655,.T.);
#1657=CARTESIAN_POINT('',(604.579625327,41.41380244,72.437743572));
#1658=VERTEX_POINT('',#1657);
#1659=CARTESIAN_POINT('',(599.779625327,41.41380244,72.437743572));
#1660=DIRECTION('',(0.,0.,1.));
#1661=DIRECTION('',(1.,0.,-0.));
#1662=AXIS2_PLACEMENT_3D('',#1659,#1660,#1661);
#1663=CIRCLE('',#1662,4.8);
#1664=EDGE_CURVE('',#1658,#1658,#1663,.T.);
#1665=ORIENTED_EDGE('',*,*,#1664,.F.);
#1666=EDGE_LOOP('',(#1665));
#1667=FACE_BOUND('',#1666,.T.);
#1668=ADVANCED_FACE('',(#1656,#1667),#1645,.T.);
#1669=CARTESIAN_POINT('',(599.623002342,5.586129561,72.437743572));
#1670=DIRECTION('',(0.,-1.,0.));
#1671=DIRECTION('',(1.,0.,0.));
#1672=AXIS2_PLACEMENT_3D('',#1669,#1670,#1671);
#1673=PLANE('',#1672);
#1674=ORIENTED_EDGE('',*,*,#556,.F.);
#1675=ORIENTED_EDGE('',*,*,#1559,.F.);
#1676=ORIENTED_EDGE('',*,*,#1651,.T.);
#1677=ORIENTED_EDGE('',*,*,#1629,.T.);
#1678=EDGE_LOOP('',(#1674,#1675,#1676,#1677));
#1679=FACE_BOUND('',#1678,.T.);
#1680=ADVANCED_FACE('',(#1679),#1673,.T.);
#1681=CARTESIAN_POINT('',(599.623002342,52.186306775,40.937743572));
#1682=DIRECTION('',(0.,1.,0.));
#1683=DIRECTION('',(0.,-0.,1.));
#1684=AXIS2_PLACEMENT_3D('',#1681,#1682,#1683);
#1685=CYLINDRICAL_SURFACE('',#1684,3.);
#1686=CARTESIAN_POINT('',(599.623002342,76.186306775,43.937743572));
#1687=DIRECTION('',(-0.,-1.,-0.));
#1688=VECTOR('',#1687,4.122965038);
#1689=LINE('',#1686,#1688);
#1690=EDGE_CURVE('',#1579,#117,#1689,.T.);
#1691=ORIENTED_EDGE('',*,*,#1690,.F.);
#1692=ORIENTED_EDGE('',*,*,#1585,.T.);
#1693=ORIENTED_EDGE('',*,*,#1690,.T.);
#1694=ORIENTED_EDGE('',*,*,#125,.T.);
#1695=ORIENTED_EDGE('',*,*,#132,.T.);
#1696=EDGE_LOOP('',(#1691,#1692,#1693,#1694,#1695));
#1697=FACE_BOUND('',#1696,.T.);
#1698=ADVANCED_FACE('',(#1697),#1685,.F.);
#1699=CARTESIAN_POINT('',(599.623002342,52.186306775,40.937743572));
#1700=DIRECTION('',(0.,1.,0.));
#1701=DIRECTION('',(0.,-0.,1.));
#1702=AXIS2_PLACEMENT_3D('',#1699,#1700,#1701);
#1703=CYLINDRICAL_SURFACE('',#1702,3.);
#1704=CARTESIAN_POINT('',(599.623002342,55.900026904,43.937743572));
#1705=DIRECTION('',(-0.,-1.,-0.));
#1706=VECTOR('',#1705,2.);
#1707=LINE('',#1704,#1706);
#1708=EDGE_CURVE('',#1458,#217,#1707,.T.);
#1709=ORIENTED_EDGE('',*,*,#1708,.F.);
#1710=ORIENTED_EDGE('',*,*,#1464,.F.);
#1711=ORIENTED_EDGE('',*,*,#1471,.F.);
#1712=ORIENTED_EDGE('',*,*,#1708,.T.);
#1713=ORIENTED_EDGE('',*,*,#225,.T.);
#1714=ORIENTED_EDGE('',*,*,#232,.T.);
#1715=EDGE_LOOP('',(#1709,#1710,#1711,#1712,#1713,#1714));
#1716=FACE_BOUND('',#1715,.T.);
#1717=ADVANCED_FACE('',(#1716),#1703,.F.);
#1718=CARTESIAN_POINT('',(592.416984375,29.000026904,53.525229669));
#1719=DIRECTION('',(1.,0.,0.));
#1720=DIRECTION('',(0.,0.,-1.));
#1721=AXIS2_PLACEMENT_3D('',#1718,#1719,#1720);
#1722=PLANE('',#1721);
#1723=ORIENTED_EDGE('',*,*,#439,.F.);
#1724=CARTESIAN_POINT('',(592.416984375,49.615800381,51.025229669));
#1725=DIRECTION('',(0.,0.,1.));
#1726=VECTOR('',#1725,5.);
#1727=LINE('',#1724,#1726);
#1728=EDGE_CURVE('',#428,#404,#1727,.T.);
#1729=ORIENTED_EDGE('',*,*,#1728,.T.);
#1730=ORIENTED_EDGE('',*,*,#409,.T.);
#1731=ORIENTED_EDGE('',*,*,#1353,.T.);
#1732=EDGE_LOOP('',(#1723,#1729,#1730,#1731));
#1733=FACE_BOUND('',#1732,.T.);
#1734=ADVANCED_FACE('',(#1733),#1722,.F.);
#1735=CARTESIAN_POINT('',(599.616984375,49.615800381,44.825229669));
#1736=DIRECTION('',(0.,-1.,0.));
#1737=DIRECTION('',(0.,0.,-1.));
#1738=AXIS2_PLACEMENT_3D('',#1735,#1736,#1737);
#1739=PLANE('',#1738);
#1740=ORIENTED_EDGE('',*,*,#433,.T.);
#1741=ORIENTED_EDGE('',*,*,#380,.T.);
#1742=ORIENTED_EDGE('',*,*,#415,.F.);
#1743=ORIENTED_EDGE('',*,*,#1728,.F.);
#1744=EDGE_LOOP('',(#1740,#1741,#1742,#1743));
#1745=FACE_BOUND('',#1744,.T.);
#1746=ADVANCED_FACE('',(#1745),#1739,.T.);
#1747=CARTESIAN_POINT('',(606.816984126,29.000026904,35.579517414));
#1748=DIRECTION('',(1.,0.,0.000003059));
#1749=DIRECTION('',(0.000003059,0.,-1.));
#1750=AXIS2_PLACEMENT_3D('',#1747,#1748,#1749);
#1751=PLANE('',#1750);
#1752=ORIENTED_EDGE('',*,*,#244,.F.);
#1753=CARTESIAN_POINT('',(606.816982597,29.000026904,36.079517414));
#1754=VERTEX_POINT('',#1753);
#1755=CARTESIAN_POINT('',(606.816982597,29.000026904,36.079517414));
#1756=DIRECTION('',(0.,1.,0.));
#1757=VECTOR('',#1756,24.9);
#1758=LINE('',#1755,#1757);
#1759=EDGE_CURVE('',#1754,#237,#1758,.T.);
#1760=ORIENTED_EDGE('',*,*,#1759,.F.);
#1761=CARTESIAN_POINT('',(606.816985656,29.000026904,35.079517414));
#1762=VERTEX_POINT('',#1761);
#1763=CARTESIAN_POINT('',(606.816982597,29.000026904,36.079517414));
#1764=DIRECTION('',(0.000003059,0.,-1.));
#1765=VECTOR('',#1764,1.);
#1766=LINE('',#1763,#1765);
#1767=EDGE_CURVE('',#1754,#1762,#1766,.T.);
#1768=ORIENTED_EDGE('',*,*,#1767,.T.);
#1769=CARTESIAN_POINT('',(606.816985656,29.000026904,35.079517414));
#1770=DIRECTION('',(0.,1.,0.));
#1771=VECTOR('',#1770,24.9);
#1772=LINE('',#1769,#1771);
#1773=EDGE_CURVE('',#1762,#239,#1772,.T.);
#1774=ORIENTED_EDGE('',*,*,#1773,.T.);
#1775=EDGE_LOOP('',(#1752,#1760,#1768,#1774));
#1776=FACE_BOUND('',#1775,.T.);
#1777=ADVANCED_FACE('',(#1776),#1751,.T.);
#1778=CARTESIAN_POINT('',(599.616982597,29.000026904,36.079495388));
#1779=DIRECTION('',(-0.000003059,0.,1.));
#1780=DIRECTION('',(1.,0.,0.000003059));
#1781=AXIS2_PLACEMENT_3D('',#1778,#1779,#1780);
#1782=PLANE('',#1781);
#1783=ORIENTED_EDGE('',*,*,#362,.F.);
#1784=CARTESIAN_POINT('',(592.416982597,29.000026904,36.079473361));
#1785=VERTEX_POINT('',#1784);
#1786=CARTESIAN_POINT('',(592.416982597,29.000026904,36.079473361));
#1787=DIRECTION('',(0.,1.,0.));
#1788=VECTOR('',#1787,24.9);
#1789=LINE('',#1786,#1788);
#1790=EDGE_CURVE('',#1785,#351,#1789,.T.);
#1791=ORIENTED_EDGE('',*,*,#1790,.F.);
#1792=CARTESIAN_POINT('',(592.416982597,29.000026904,36.079473361));
#1793=DIRECTION('',(1.,0.,0.000003059));
#1794=VECTOR('',#1793,14.4);
#1795=LINE('',#1792,#1794);
#1796=EDGE_CURVE('',#1785,#1754,#1795,.T.);
#1797=ORIENTED_EDGE('',*,*,#1796,.T.);
#1798=ORIENTED_EDGE('',*,*,#1759,.T.);
#1799=EDGE_LOOP('',(#1783,#1791,#1797,#1798));
#1800=FACE_BOUND('',#1799,.T.);
#1801=ADVANCED_FACE('',(#1800),#1782,.T.);
#1802=CARTESIAN_POINT('',(592.416984126,29.000026904,35.579473361));
#1803=DIRECTION('',(-1.,0.,-0.000003059));
#1804=DIRECTION('',(-0.000003059,0.,1.));
#1805=AXIS2_PLACEMENT_3D('',#1802,#1803,#1804);
#1806=PLANE('',#1805);
#1807=ORIENTED_EDGE('',*,*,#1345,.F.);
#1808=CARTESIAN_POINT('',(592.416985656,29.000026904,35.079473361));
#1809=VERTEX_POINT('',#1808);
#1810=CARTESIAN_POINT('',(592.416985656,29.000026904,35.079473361));
#1811=DIRECTION('',(0.,1.,0.));
#1812=VECTOR('',#1811,24.9);
#1813=LINE('',#1810,#1812);
#1814=EDGE_CURVE('',#1809,#247,#1813,.T.);
#1815=ORIENTED_EDGE('',*,*,#1814,.F.);
#1816=CARTESIAN_POINT('',(592.416985656,29.000026904,35.079473361));
#1817=DIRECTION('',(-0.000003059,0.,1.));
#1818=VECTOR('',#1817,1.);
#1819=LINE('',#1816,#1818);
#1820=EDGE_CURVE('',#1809,#1785,#1819,.T.);
#1821=ORIENTED_EDGE('',*,*,#1820,.T.);
#1822=ORIENTED_EDGE('',*,*,#1790,.T.);
#1823=EDGE_LOOP('',(#1807,#1815,#1821,#1822));
#1824=FACE_BOUND('',#1823,.T.);
#1825=ADVANCED_FACE('',(#1824),#1806,.T.);
#1826=CARTESIAN_POINT('',(599.616985656,29.000026904,35.079495388));
#1827=DIRECTION('',(0.000003059,0.,-1.));
#1828=DIRECTION('',(-1.,0.,-0.000003059));
#1829=AXIS2_PLACEMENT_3D('',#1826,#1827,#1828);
#1830=PLANE('',#1829);
#1831=ORIENTED_EDGE('',*,*,#252,.F.);
#1832=ORIENTED_EDGE('',*,*,#1773,.F.);
#1833=CARTESIAN_POINT('',(606.816985656,29.000026904,35.079517414));
#1834=DIRECTION('',(-1.,0.,-0.000003059));
#1835=VECTOR('',#1834,14.4);
#1836=LINE('',#1833,#1835);
#1837=EDGE_CURVE('',#1762,#1809,#1836,.T.);
#1838=ORIENTED_EDGE('',*,*,#1837,.T.);
#1839=ORIENTED_EDGE('',*,*,#1814,.T.);
#1840=EDGE_LOOP('',(#1831,#1832,#1838,#1839));
#1841=FACE_BOUND('',#1840,.T.);
#1842=ADVANCED_FACE('',(#1841),#1830,.T.);
#1843=CARTESIAN_POINT('',(0.,29.000026904,0.));
#1844=DIRECTION('',(0.,-1.,0.));
#1845=DIRECTION('',(1.,0.,0.));
#1846=AXIS2_PLACEMENT_3D('',#1843,#1844,#1845);
#1847=PLANE('',#1846);
#1848=ORIENTED_EDGE('',*,*,#1767,.F.);
#1849=ORIENTED_EDGE('',*,*,#1796,.F.);
#1850=ORIENTED_EDGE('',*,*,#1820,.F.);
#1851=ORIENTED_EDGE('',*,*,#1837,.F.);
#1852=EDGE_LOOP('',(#1848,#1849,#1850,#1851));
#1853=FACE_BOUND('',#1852,.T.);
#1854=ADVANCED_FACE('',(#1853),#1847,.T.);
#1855=CARTESIAN_POINT('',(599.623002342,9.041629333,70.437743572));
#1856=DIRECTION('',(0.,0.,-1.));
#1857=DIRECTION('',(-1.,0.,0.));
#1858=AXIS2_PLACEMENT_3D('',#1855,#1856,#1857);
#1859=PLANE('',#1858);
#1860=CARTESIAN_POINT('',(604.579625327,41.41380244,70.437743572));
#1861=VERTEX_POINT('',#1860);
#1862=CARTESIAN_POINT('',(594.979625327,41.41380244,70.437743572));
#1863=VERTEX_POINT('',#1862);
#1864=CARTESIAN_POINT('',(599.779625327,41.41380244,70.437743572));
#1865=DIRECTION('',(0.,0.,-1.));
#1866=DIRECTION('',(-1.,0.,0.));
#1867=AXIS2_PLACEMENT_3D('',#1864,#1865,#1866);
#1868=CIRCLE('',#1867,4.8);
#1869=EDGE_CURVE('',#1861,#1863,#1868,.T.);
#1870=ORIENTED_EDGE('',*,*,#1869,.F.);
#1871=CARTESIAN_POINT('',(599.779625327,41.41380244,70.437743572));
#1872=DIRECTION('',(0.,0.,-1.));
#1873=DIRECTION('',(-1.,0.,0.));
#1874=AXIS2_PLACEMENT_3D('',#1871,#1872,#1873);
#1875=CIRCLE('',#1874,4.8);
#1876=EDGE_CURVE('',#1863,#1861,#1875,.T.);
#1877=ORIENTED_EDGE('',*,*,#1876,.F.);
#1878=EDGE_LOOP('',(#1870,#1877));
#1879=FACE_BOUND('',#1878,.T.);
#1880=ORIENTED_EDGE('',*,*,#192,.F.);
#1881=ORIENTED_EDGE('',*,*,#1619,.T.);
#1882=ORIENTED_EDGE('',*,*,#152,.F.);
#1883=ORIENTED_EDGE('',*,*,#1567,.F.);
#1884=EDGE_LOOP('',(#1880,#1881,#1882,#1883));
#1885=FACE_BOUND('',#1884,.T.);
#1886=ADVANCED_FACE('',(#1879,#1885),#1859,.T.);
#1887=CARTESIAN_POINT('',(599.779625327,41.41380244,64.037743572));
#1888=DIRECTION('',(0.,0.,1.));
#1889=DIRECTION('',(1.,0.,-0.));
#1890=AXIS2_PLACEMENT_3D('',#1887,#1888,#1889);
#1891=CYLINDRICAL_SURFACE('',#1890,4.8);
#1892=CARTESIAN_POINT('',(604.579625327,41.41380244,72.437743572));
#1893=DIRECTION('',(-0.,-0.,-1.));
#1894=VECTOR('',#1893,2.);
#1895=LINE('',#1892,#1894);
#1896=EDGE_CURVE('',#1658,#1861,#1895,.T.);
#1897=ORIENTED_EDGE('',*,*,#1896,.F.);
#1898=ORIENTED_EDGE('',*,*,#1664,.T.);
#1899=ORIENTED_EDGE('',*,*,#1896,.T.);
#1900=ORIENTED_EDGE('',*,*,#1869,.T.);
#1901=ORIENTED_EDGE('',*,*,#1876,.T.);
#1902=EDGE_LOOP('',(#1897,#1898,#1899,#1900,#1901));
#1903=FACE_BOUND('',#1902,.T.);
#1904=ADVANCED_FACE('',(#1903),#1891,.F.);
#1905=CARTESIAN_POINT('',(553.087103957,41.418837666,1.437743572));
#1906=DIRECTION('',(0.,0.,1.));
#1907=DIRECTION('',(-1.,0.,0.));
#1908=AXIS2_PLACEMENT_3D('',#1905,#1906,#1907);
#1909=CYLINDRICAL_SURFACE('',#1908,3.);
#1910=ORIENTED_EDGE('',*,*,#1081,.F.);
#1911=ORIENTED_EDGE('',*,*,#1305,.T.);
#1912=ORIENTED_EDGE('',*,*,#870,.F.);
#1913=ORIENTED_EDGE('',*,*,#813,.F.);
#1914=EDGE_LOOP('',(#1910,#1911,#1912,#1913));
#1915=FACE_BOUND('',#1914,.T.);
#1916=ADVANCED_FACE('',(#1915),#1909,.T.);
#1917=CLOSED_SHELL('',(#170,#210,#366,#397,#421,#445,#542,#698,#858,#889,#920,#951,#982,#1013,#1044,#1069,#1093,#1118,#1143,#1168,#1193,#1217,#1236,#1255,#1274,#1293,
#1312,#1334,#1362,#1381,#1398,#1410,#1432,#1449,#1486,#1503,#1520,#1532,#1572,#1607,#1640,#1668,#1680,#1698,#1717,#1734,#1746,#1777,#1801,#1825,#1842,
#1854,#1886,#1904,#1916));
#1918=MANIFOLD_SOLID_BREP('Body 77',#1917);
#1919=COLOUR_RGB('',0.627451003,0.627451003,0.643137276);
#1920=FILL_AREA_STYLE_COLOUR('',#1919);
#1921=FILL_AREA_STYLE('',(#1920));
#1922=SURFACE_STYLE_FILL_AREA(#1921);
#1923=SURFACE_SIDE_STYLE('',(#1922));
#1924=SURFACE_STYLE_USAGE(.BOTH.,#1923);
#1925=PRESENTATION_STYLE_ASSIGNMENT((#1924));
#110=STYLED_ITEM('',(#1925),#1918);
#91=SHAPE_REPRESENTATION('Kleinkopffu\S\_',(#15),#89);
#92=ADVANCED_BREP_SHAPE_REPRESENTATION('Kleinkopffu\S\_',(#1918),#89);
#1933=SHAPE_REPRESENTATION_RELATIONSHIP('','',#91,#92);
#1934=CARTESIAN_POINT('',(0.,0.,0.));
#1935=DIRECTION('',(0.,0.,1.));
#1936=DIRECTION('',(1.,0.,0.));
#1937=AXIS2_PLACEMENT_3D('',#1934,#1935,#1936);
#1939=MAPPED_ITEM('',#1938,#1937);
#1938=REPRESENTATION_MAP(#1937,#91);
#1940=APPLICATION_CONTEXT('Managed model based 3d engineering');
#1941=APPLICATION_PROTOCOL_DEFINITION('international standard','ap242_managed_model_based_3d_engineering',2014,#1940);
#1942=PRODUCT_CONTEXT('',#1940,'mechanical');
#1943=PRODUCT_DEFINITION_CONTEXT('part definition',#1940,'design');
#99=PRODUCT('Kleinkopffu\S\_','Kleinkopffu\S\_','',(#1942));
#1944=PRODUCT_RELATED_PRODUCT_CATEGORY('part','',(#99));
#1945=PRODUCT_DEFINITION_FORMATION_WITH_SPECIFIED_SOURCE('','',#99,.NOT_KNOWN.);
#100=PRODUCT_DEFINITION('design','',#1945,#1943);
#98=PRODUCT_DEFINITION_SHAPE('','',#100);
#1946=SHAPE_DEFINITION_REPRESENTATION(#98,#91);
#90=DRAUGHTING_MODEL('',(#1939),#89);
#63=SHAPE_REPRESENTATION('kleinkopffuss.step',(#15,#104),#61);
#1947=CARTESIAN_POINT('',(0.,0.,0.));
#1948=DIRECTION('',(0.,0.,1.));
#1949=DIRECTION('',(1.,0.,0.));
#1950=AXIS2_PLACEMENT_3D('',#1947,#1948,#1949);
#1952=MAPPED_ITEM('',#1951,#1950);
#1951=REPRESENTATION_MAP(#1950,#63);
#71=PRODUCT('kleinkopffuss.step','kleinkopffuss.step','',(#1942));
#1953=PRODUCT_RELATED_PRODUCT_CATEGORY('part','',(#71));
#1954=PRODUCT_DEFINITION_FORMATION_WITH_SPECIFIED_SOURCE('','',#71,.NOT_KNOWN.);
#72=PRODUCT_DEFINITION('design','',#1954,#1943);
#70=PRODUCT_DEFINITION_SHAPE('','',#72);
#1955=SHAPE_DEFINITION_REPRESENTATION(#70,#63);
#62=DRAUGHTING_MODEL('',(#1952),#61);
#35=SHAPE_REPRESENTATION('kleinkopffuss.step',(#15,#76),#33);
#1956=CARTESIAN_POINT('',(0.,0.,0.));
#1957=DIRECTION('',(0.,0.,1.));
#1958=DIRECTION('',(1.,0.,0.));
#1959=AXIS2_PLACEMENT_3D('',#1956,#1957,#1958);
#1961=MAPPED_ITEM('',#1960,#1959);
#1960=REPRESENTATION_MAP(#1959,#35);
#43=PRODUCT('kleinkopffuss.step','kleinkopffuss.step','',(#1942));
#1962=PRODUCT_RELATED_PRODUCT_CATEGORY('part','',(#43));
#1963=PRODUCT_DEFINITION_FORMATION_WITH_SPECIFIED_SOURCE('','',#43,.NOT_KNOWN.);
#44=PRODUCT_DEFINITION('design','',#1963,#1943);
#42=PRODUCT_DEFINITION_SHAPE('','',#44);
#1964=SHAPE_DEFINITION_REPRESENTATION(#42,#35);
#34=DRAUGHTING_MODEL('',(#1961),#33);
#16=SHAPE_REPRESENTATION('root',(#15,#48),#10);
#1965=CARTESIAN_POINT('',(0.,0.,0.));
#1966=DIRECTION('',(0.,0.,1.));
#1967=DIRECTION('',(1.,0.,0.));
#1968=AXIS2_PLACEMENT_3D('',#1965,#1966,#1967);
#1970=MAPPED_ITEM('',#1969,#1968);
#1969=REPRESENTATION_MAP(#1968,#16);
#24=PRODUCT('root','root','',(#1942));
#1971=PRODUCT_RELATED_PRODUCT_CATEGORY('part','',(#24));
#1972=PRODUCT_DEFINITION_FORMATION_WITH_SPECIFIED_SOURCE('','',#24,.NOT_KNOWN.);
#25=PRODUCT_DEFINITION('design','',#1972,#1943);
#23=PRODUCT_DEFINITION_SHAPE('','',#25);
#1973=SHAPE_DEFINITION_REPRESENTATION(#23,#16);
#11=DRAUGHTING_MODEL('',(#1970),#10);
#1974=DESCRIPTIVE_REPRESENTATION_ITEM('KEY','C:\\Users\\Ruben\\AppData\\Local\\Packages\\Shapr3D.Shapr3D_dvv5p1vgwv6mp\\TempState\\b05526a8-09fe-4d85-924b-cf5620eab371.tmp');
#1975=PROPERTY_DEFINITION('KEY','',#25);
#1976=REPRESENTATION('',(#1974),#10);
#1977=PROPERTY_DEFINITION_REPRESENTATION(#1975,#1976);
#1978=GENERAL_PROPERTY('','KEY','');
#1979=GENERAL_PROPERTY_ASSOCIATION('','',#1978,#1975);
#1=MECHANICAL_DESIGN_GEOMETRIC_PRESENTATION_REPRESENTATION('',(#110),#10);
ENDSEC;
END-ISO-10303-21;
